/* XPM */
static char *DVY_FlatTile_1x8_xpm[] = {
/* width height num_colors chars_per_pixel */
"   100   100       16            1",
/* colors */
"` c #690000",
". c #c38f8e",
"# c #994f50",
"a c #920000",
"b c #ffd1ce",
"c c #b17070",
"d c #7d2d2e",
"e c #d7aeac",
"f c #982827",
"g c #ffffff",
"h c #b75151",
"i c #dd9595",
"j c #ffb5b5",
"k c #c87171",
"l c #7d0000",
"m c #9d393b",
/* pixels */
"gggggggggggggggggggggggggggggggggggggggggggggggggggggggggggggggggggggggggggggggggggggggggggggggggggg",
"gggggggggggggggggggggggggggggggggggggggggggggggggggggggggggggggggggggggggggggggggggggggggggggggggggg",
"gggggggggggggggggggggggggggggggggggggggggggggggggggggggggggggggggggggggggggggggggggggggggggggggggggg",
"gggggggggggggggggggggggggggggggggggggggggggggggggggggggggggggggggggggggggggggggggggggggggggggggggggg",
"gggggggggggggggggggggggggggggggggggggggggggggggggggggggggggggggggggggggggggggggggggggggggggggggggggg",
"gggggggggggggggggggggggggggggggggggggggggggggggggggggggggggggggggggggggggggggggggggggggggggggggggggg",
"gggggggggggggggggggggggggggggggggggggggggggggggggggggggggggggggggggggggggggggggggggggggggggggggggggg",
"gggggggggggggggggggggggggggggggggggggggggggggggggggggggggggggggggggggggggggggggggggggggggggggggggggg",
"gggggggggggggggggggggggggggggggggggggggggggggggggggggggggggggggggggggggggggggggggggggggggggggggggggg",
"gggggggggggggggggggggggggggggggggggggggggggggggggggggggggggggggggggggggggggggggggggggggggggggggggggg",
"gggggggggggggggggggggggggggggggggggggggggggggggggggggggggggggggggggggggggggggggggggggggggggggggggggg",
"gggggggggggggggggggggggggggggggggggggggggggggggggggggggggggggggggggggggggggggggggggggggggggggggggggg",
"gggggggggggggggggggggggggggggggggggggggggggggggggggggggggggggggggggggggggggggggggggggggggggggggggggg",
"gggggggggggggggggggggggggggggggggggggggggggggggggggggggggggggggggggggggggggggggggggggggggggggggggggg",
"gggggggggggggggggggggggggggggggggggggggggggggggggggggggggggggggggggggggggggggggggggggggggggggggggggg",
"gggggggggggggggggggggggggggggggggggggggggggggggggggggggggggggggggggggggggggggggggggggggggggggggggggg",
"gggggggggggggggggggggggggggggggggggggggggggggggggggggggggggggggggggggggggggggggggggggggggggggggggggg",
"gggggggggggggggggggggggggggggggggggggggggggggggggggggggggggggggggggggggggggggggggggggggggggggggggggg",
"gggggggggggggggggggggggggggggggggggggggggggggggggggggggggggggggggggggggggggggggggggggggggggggggggggg",
"gggggggggggggggggggggggggggggggggggggggggggggggggggggggggggggggggggggggggggggggggggggggggggggggggggg",
"gggggggggggggggggggggggggggggggggggggggggggggggggggggggggggggggggggggggggggggggggggggggggggggggggggg",
"gggggggggggggggggggggggggggggggggggggggggggggggggggggggggggggggggggggggggggggggggggggggggggggggggggg",
"gggggggggggggggggggggggggggggggggggggggggggggggggggggggggggggggggggggggggggggggggggggggggggggggggggg",
"gggggggggggggggggggggggggggggggggggggggggggggggggggggggggggggggggggggggggggggggggggggggggggggggggggg",
"gggggggggggggggggggggggggggggggggggggggggggggggggggggggggggggggggggggggggggggggggggggggggggggggggggg",
"gggggggggggggggggggggggggggggggggggggggggggggggggggggggggggggggggggggggggggggggggggggggggggggggggggg",
"gggggggggggggggggggggggggggggggggggggggggggggggggggggggggggggggggggggggggggggggggggggggggggggggggggg",
"gggggggggggggggggggggggggggggggggggggggggggggggggggggggggggggggggggggggggggggggggggggggggggggggggggg",
"gggggggggggggggggggggggggggggggggggggggggggggggggggggggggggggggggggggggggggggggggggggggggggggggggggg",
"gggggggggggggggggggggggggggggggggggggggggggggggggggggggggggggggggggggggggggggggbgggggggggggggggggggg",
"ggggggggggggggggggggggggggggggggggggggggggggggggggggggggggggggggggggggggggbbe..c.ebggggggggggggggggg",
"ggggggggggggggggggggggggggggggggggggggggggggggggggggggggggggggggggggggggggbekmd`dcebgggggggggggggggg",
"ggggggggggggggggggggggggggggggggggggggggggggggggggggggggggggggggggggggbje.c#mdd`dd#.ebgggggggggggggg",
"ggggggggggggggggggggggggggggggggggggggggggggggggggggggggggggggggggggbbe.#d```llll`ddkbbggggggggggggg",
"gggggggggggggggggggggggggggggggggggggggggggggggggggggggggggggggggbje.c##dll`llllllld#.eggggggggggggg",
"ggggggggggggggggggggggggggggggggggggggggggggggggggggggggggggggggbjicm``lllllllllaalldd.ggggggggggggg",
"ggggggggggggggggggggggggggggggggggggggggggggggggggggggggggggbbe.cc#mdlllllllllaaaaaldm.ggggggggggggg",
"ggggggggggggggggggggggggggggggggggggggggggggggggggggggggggggbecdd```llllllaaaaaaaffdm#eggggggggggggg",
"gggggggggggggggggggggggggggggggggggggggggggggggggggggggbbei.c#mdl```lllllaaaaaaafmhc.ebggggggggggggg",
"ggggggggggggggggggggggggggggggggggggggggggggggggggggggbbek#d```llllllllllaaaafffmh.bbggggggggggggggg",
"gggggggggggggggggggggggggggggggggggggggggggggggggggbee.c#mdlllllllllllllllaffhhk.eebgggggggggggggggg",
"ggggggggggggggggggggggggggggggggggggggggggggggggggbe.#d````llllllllllllfffffhkibbggggggggggggggggggg",
"ggggggggggggggggggggggggggggggggggggggggggggggbje.c##dd```lllllaaaaaafffmhc.ijbbgggggggggggggggggggg",
"gggggggggggggggggggggggggggggggggggggggggggggbe.#dd````lllllllaaaaaaafdmcibggggggggggggggggggggggggg",
"gggggggggggggggggggggggggggggggggggggggggbbe.cc#ddllllllllllllaaaafmhkkiebbggggggggggggggggggggggggg",
"ggggggggggggggggggggggggggggggggggggggggbbicm````lllllllllllaaaaffmhijbggggggggggggggggggggggggggggg",
"ggggggggggggggggggggggggggggggggggggbbe..c#md``lllllllaaaaaafffhhk.ejbbggggggggggggggggggggggggggggg",
"ggggggggggggggggggggggggggggggggggggbec#d`````lllllaaaaaaaafffhkibbggggggggggggggggggggggggggggggggg",
"ggggggggggggggggggggggggggggggggbee.c#mdl`llllllllaaaaaaffmhk.iebbgggggggggggggggggggggggggggggggggg",
"gggggggggggggggggggggggggggggggbe.#d````lllllalllaaaaaaffmkijbgggggggggggggggggggggggggggggggggggggg",
"gggggggggggggggggggggggggggbje.c##d````lllllaaaaaaaffmhkkiejbggggggggggggggggggggggggggggggggggggggg",
"ggggggggggggggggggggggggggbj.cd``l``lllllllaaaaaaaffmcijbggggggggggggggggggggggggggggggggggggggggggg",
"ggggggggggggggggggggggbbe.cc#dd`llllllllllaaaaaffhhk.ejbbggggggggggggggggggggggggggggggggggggggggggg",
"ggggggggggggggggggggggbicdd````lllllllllaaaaafffhkibbggggggggggggggggggggggggggggggggggggggggggggggg",
"gggggggggggggggggbbe..c#md```lllllllllaaaaffmhk.ijbbgggggggggggggggggggggggggggggggggggggggggggggggg",
"ggggggggggggggggbbicm```````lllaaaaaaaaffffmkijbgggggggggggggggggggggggggggggggggggggggggggggggggggg",
"ggggggggggggbbee.c#mdllllllllllaaaaaaafmhkk.ebbggggggggggggggggggggggggggggggggggggggggggggggggggggg",
"ggggggggggggbec#d```llllllllllllaaafffmhijbggggggggggggggggggggggggggggggggggggggggggggggggggggggggg",
"ggggggggbee.c#mdd`llllllllaaaaaaafmhckiejbbggggggggggggggggggggggggggggggggggggggggggggggggggggggggg",
"gggggggbek#dd```llllllllaaaaaffffd#kibbggggggggggggggggggggggggggggggggggggggggggggggggggggggggggggg",
"ggggggbe.#d`lllllllllllaaaaaffmhc.iebbgggggggggggggggggggggggggggggggggggggggggggggggggggggggggggggg",
"ggggggj.#d``lllllallllaaaffafmkijbgggggggggggggggggggggggggggggggggggggggggggggggggggggggggggggggggg",
"ggggggbecd`llllaaaaaaaaffmhkkiejbggggggggggggggggggggggggggggggggggggggggggggggggggggggggggggggggggg",
"ggggggbbcddlllaaaaaaaaffmh.jbggggggggggggggggggggggggggggggggggggggggggggggggggggggggggggggggggggggg",
"gggggggbec#fllaaaaafmhhk.ejbbggggggggggggggggggggggggggggggggggggggggggggggggggggggggggggggggggggggg",
"ggggggggbjcdflaaaaffhkibbggggggggggggggggggggggggggggggggggggggggggggggggggggggggggggggggggggggggggg",
"gggggggggbek#dffmhk.ijbbgggggggggggggggggggggggggggggggggggggggggggggggggggggggggggggggggggggggggggg",
"ggggggggggbb.dmmcijbgggggggggggggggggggggggggggggggggggggggggggggggggggggggggggggggggggggggggggggggg",
"gggggggggggbe...ebbggggggggggggggggggggggggggggggggggggggggggggggggggggggggggggggggggggggggggggggggg",
"gggggggggggggggggggggggggggggggggggggggggggggggggggggggggggggggggggggggggggggggggggggggggggggggggggg",
"gggggggggggggggggggggggggggggggggggggggggggggggggggggggggggggggggggggggggggggggggggggggggggggggggggg",
"gggggggggggggggggggggggggggggggggggggggggggggggggggggggggggggggggggggggggggggggggggggggggggggggggggg",
"gggggggggggggggggggggggggggggggggggggggggggggggggggggggggggggggggggggggggggggggggggggggggggggggggggg",
"gggggggggggggggggggggggggggggggggggggggggggggggggggggggggggggggggggggggggggggggggggggggggggggggggggg",
"gggggggggggggggggggggggggggggggggggggggggggggggggggggggggggggggggggggggggggggggggggggggggggggggggggg",
"gggggggggggggggggggggggggggggggggggggggggggggggggggggggggggggggggggggggggggggggggggggggggggggggggggg",
"gggggggggggggggggggggggggggggggggggggggggggggggggggggggggggggggggggggggggggggggggggggggggggggggggggg",
"gggggggggggggggggggggggggggggggggggggggggggggggggggggggggggggggggggggggggggggggggggggggggggggggggggg",
"gggggggggggggggggggggggggggggggggggggggggggggggggggggggggggggggggggggggggggggggggggggggggggggggggggg",
"gggggggggggggggggggggggggggggggggggggggggggggggggggggggggggggggggggggggggggggggggggggggggggggggggggg",
"gggggggggggggggggggggggggggggggggggggggggggggggggggggggggggggggggggggggggggggggggggggggggggggggggggg",
"gggggggggggggggggggggggggggggggggggggggggggggggggggggggggggggggggggggggggggggggggggggggggggggggggggg",
"gggggggggggggggggggggggggggggggggggggggggggggggggggggggggggggggggggggggggggggggggggggggggggggggggggg",
"gggggggggggggggggggggggggggggggggggggggggggggggggggggggggggggggggggggggggggggggggggggggggggggggggggg",
"gggggggggggggggggggggggggggggggggggggggggggggggggggggggggggggggggggggggggggggggggggggggggggggggggggg",
"gggggggggggggggggggggggggggggggggggggggggggggggggggggggggggggggggggggggggggggggggggggggggggggggggggg",
"gggggggggggggggggggggggggggggggggggggggggggggggggggggggggggggggggggggggggggggggggggggggggggggggggggg",
"gggggggggggggggggggggggggggggggggggggggggggggggggggggggggggggggggggggggggggggggggggggggggggggggggggg",
"gggggggggggggggggggggggggggggggggggggggggggggggggggggggggggggggggggggggggggggggggggggggggggggggggggg",
"gggggggggggggggggggggggggggggggggggggggggggggggggggggggggggggggggggggggggggggggggggggggggggggggggggg",
"gggggggggggggggggggggggggggggggggggggggggggggggggggggggggggggggggggggggggggggggggggggggggggggggggggg",
"gggggggggggggggggggggggggggggggggggggggggggggggggggggggggggggggggggggggggggggggggggggggggggggggggggg",
"gggggggggggggggggggggggggggggggggggggggggggggggggggggggggggggggggggggggggggggggggggggggggggggggggggg",
"gggggggggggggggggggggggggggggggggggggggggggggggggggggggggggggggggggggggggggggggggggggggggggggggggggg",
"gggggggggggggggggggggggggggggggggggggggggggggggggggggggggggggggggggggggggggggggggggggggggggggggggggg",
"gggggggggggggggggggggggggggggggggggggggggggggggggggggggggggggggggggggggggggggggggggggggggggggggggggg",
"gggggggggggggggggggggggggggggggggggggggggggggggggggggggggggggggggggggggggggggggggggggggggggggggggggg",
"gggggggggggggggggggggggggggggggggggggggggggggggggggggggggggggggggggggggggggggggggggggggggggggggggggg",
"gggggggggggggggggggggggggggggggggggggggggggggggggggggggggggggggggggggggggggggggggggggggggggggggggggg",
"gggggggggggggggggggggggggggggggggggggggggggggggggggggggggggggggggggggggggggggggggggggggggggggggggggg"
};
