/* XPM */
static char *DVY_DoorLf_4x5_xpm[] = {
/* width height num_colors chars_per_pixel */
"   100   100       16            1",
/* colors */
"` c #484748",
". c #a7a6a7",
"# c #787778",
"a c #d7d6d7",
"b c #626162",
"c c #bfbebf",
"d c #8e8d8e",
"e c #efefef",
"f c #525252",
"g c #b2b2b2",
"h c #808280",
"i c #e1e1e1",
"j c #656765",
"k c #c9cac9",
"l c #9a9a9a",
"m c #ffffff",
/* pixels */
"mmmmmmmmmmmmmmmmmmmmmmmmmmmmmmmmmmmmmmmmmmmmmmmmmmmmmmmmmmmmmmmmmmmmmmmmmmmmmmmmmmmmmmmmmmmmmmmmmmmm",
"mmmmmmmmmmmmmmmmmmmmmmmmmmmmmmmmmmmmmmmmmmmmmmmmmmmmmmmmmmmmmmmmmmmmmmmmmmmmmmmmmmmmmmmmmmmmmmmmmmmm",
"mmmmmmmmmmmmmmmmmmmmmmmmmmmmmmmmmmmmmmmmmmmmmmmmmmmmmmmmmmmmmmmmmmmmmmmmmmmmmmmmmmmmmmmmmmmmmmmmmmmm",
"mmmmmmmmmmmmmmmmmmmmmmmmmmmmmmmmmmmmmmmmmmmmmmmmmmmmmmmmmmmmmmmmmmmmmmmmmmmmmmmmmmmmmmmmmmmmmmmmmmmm",
"mmmmmmmmmmmmmmmmmmmmmmmmmmmmmmmmmmmmmmmmmmmmmmmmmmmmmmmmmmmmmmmmmmmmmmmmmmmmmmmmmmmmmmmmmmmmmmmmmmmm",
"mmmmmmmmmmmmmmmmmmmmmmmmmmmmmmmmmmmmmmmmmmmmmmmmmmmmmmmmmmmmmmmmmmmmmmmmmmmmmmmmmmmmmmmmmmmmmmmmmmmm",
"mmmmmmmmmmmmmmmmmmmmmmmmmmmmmmmmmmmmmmmmmmmmmmmmmmmmmmmmmmmmmmmmmmmmmmmmmmmmmmmmmmmmmmmmmmmmmmmmmmmm",
"mmmmmmmmmmmmmmmmmmmmmmmmmmmmmmmmmmmmmmmmmmmmmmmmmmmmmmmmmmmmmmmmmmmmmmmmmmmmmmmmmmmmmmmmmmmmmmmmmmmm",
"mmmmmmmmmmmmmmmmmmmmmmmmmmmmmmmmmmmmmmmmmmmmmmmmmmmmmmmmmmmmmmmmmmmmmmmmmmmmmmmmmmmmmmmmmmmmmmmmmmmm",
"mmmmmmmmmmmmmmmmmmmmmmmmmmmmmmmmmmmmmmmmmmmmmmmmmmmmmmmmmmmmmmmmmmmmmmmmmmmmmmmmmmmmmmmmmmmmmmmmmmmm",
"mmmmmmmmmmmmmmmmmmmmmmmmmmmmmmmmmmmmmmmmmmmmmmmmmmmmmmmmmmmmmmmmmmmmmmmmmmmmmmmmmmmmmmmmmmmmmmmmmmmm",
"mmmmmmmmmmmmmmmmmmmmmmmmmmmmmmmmmmmmmmmmmmmmmmmmmmmmmmmmmmmmmmmmmmmmmmmmmmmemmmmmmmmmmmmmmmmmmmmmmmm",
"mmmmmmmmmmmmmmmmmmmmmmmmmmmmmmmmmmmmmmmmmmmmmmmmmmmmmmmmmmmmmmmmmmmmmmmmeeeeemmmmmmmmmmmmmmmmmmmmmmm",
"mmmmmmmmmmmmmmmmmmmmmmmmmmmmmmmmmmmmmmmmmmmmmmmmmmmmmmmmmmmmmmmmmmmmmmmmeiiiemmmmmmmmmmmmmmmmmmmmmmm",
"mmmmmmmmmmmmmmmmmmmmmmmmmmmmmmmmmmmmmmmmmmmmmmmmmmmmmmmmmmmmmmmmmmmmeikc.ll.kmmmmmmmmmmmmmmmmmmmmmmm",
"mmmmmmmmmmmmmmmmmmmmmmmmmmmmmmmmmmmmmmmmmmmmmmmmmmmmmmmmmmmmmmmmmmmmikl#jffbgmmmmmmmmmmmmmmmmmmmmmmm",
"mmmmmmmmmmmmmmmmmmmmmmmmmmmmmmmmmmmmmmmmmmmmmmmmmmmmmmmmmmmmmmmeikcgldhjbbbbgmmmmmmmmmmmmmmmmmmmmmmm",
"mmmmmmmmmmmmmmmmmmmmmmmmmmmmmmmmmmmmmmmmmmmmmmmmmmmmmmmmmmmmmmmeklhbbfbbbbjjgmmmmmmmmmmmmmmmmmmmmmmm",
"mmmmmmmmmmmmmmmmmmmmmmmmmmeeeemmmmmmmmmmmmmmmmmmmmmmmmmmmmeiacg.d#jbbbbjjjjjgmmmmmmmmmmmmmmmmmmmmmmm",
"mmmmmmmmmmmmmmmmmmmmmmmmmmeieeemmmmmmmmmmmmmmmmmmmmmmmmmmmik.hjfffbjjjjjjjjjgmmmmmmmmmmmmmmmmmmmmmmm",
"mmmmmmmmmmmmmmmmmmmmmmiac..lll.gkiemmmmmmmmmmmmmmmmmmmiacgldh#jbbbjjjbbbbbjjgmmmmmmmmmmmmmmmmmmmmmmm",
"mmmmmmmmmmmmmmmmmmmmmma.hbfff`fbdcimmmmmmmmmmmmmmmmmmeagdbbfbjjjjjjjjbbbbbjjgmmmmmmmmmmmmmmmmmmmmmmm",
"mmmmmmmmmmmmmmmmmmmeikl#jfffffffjhgaemmmmmmmmmmmeeakg.dh#jbbbjjjjbjjbbbjjjjjgmmmmmmmmmmmmmmmmmmmmmmm",
"mmmmmmmmmmmmmmmmmmeecdj``ffffbf```#gammmmmmemmmmeigdjffbbjjjjjjjbbbbbbjjjjjjgmmmmmmmmmmmmmmmmmmmmmmm",
"mmmmmmmmmmmmmmmmmma.djb``ffffbfff`b#lcammmmeeikc.lh#jbbbbjjjjbbbbbbbbbbjjjjjgmmmmmmmmmmmmmmmmmmmmmmm",
"mmmmmmmmmmmmmmmmmegjf``f``ffbbbbf```b#gemmmeacl#bffbj#jbbbjjjbbbbjjjjbbbbbjjgmmmmmmmmmmmmmmmmmmmmmmm",
"mmmmmmmmmmmmmmmmeilf``fbffbjjjbbf```fbh.gcg.ld#jbbbbjjjbbbjjjbbbbjbbjjjjjbj#gmmmmmmmmmmmmmmmmmmmmmmm",
"mmmmmmmmmmmmmmmmikh```fbjj#h#jjjbf````fbjhjffbbbbjjjjbbbjjjjjjjjjbbbjjjjjjj#cmmmmmmmmmmmmmmmmmmmmmmm",
"mmmmmmmmmmmmmmmmich```fbjj####jjbf````ffb#jbbbbbjjjjbbbbjjjjjjjjjjbbbjjjjbj#cmmmmmmmmmmmmmmmmmmmmmmm",
"mmmmmmmmmmmmmmmmichf``fbj######jbf``````fbbjjjjjjjjbbbbjjjjjjbbbjjjbbjbbbbjhcmmmmmmmmmmmmmmmmmmmmmmm",
"mmmmmmmmmmmmmmmmichfffffbjjjjjjbfff`ffffbbbjjbjjjjjbbbbjjjjjjbbjjjbbbjbbbb#hcmmmmmmmmmmmmmmmmmmmmmmm",
"mmmmmmmmmmmmmmmmicdffff`ffbjbbffffffbbbjjjjjbbbjjjjjjjjjjjjjjjjjjjbbjjjbbj#hcmmmmmmmmmmmmmmmmmmmmmmm",
"mmmmmmmmmmmmmmmmachfbbbbbbjjjbbbbbbbbjjjjjjjjjjjjjjjjjjjjjjjjjjjjjbbjjjbjj#hcmmmmmmmmmmmmmmmmmmmmmmm",
"mmmmmmmmmmmmmmmmachfbjjjj###jjjjjjjjjjjjjjjjjjjjjjjjjjjjjjjjjjjjjjjbjjjjjj#hcmmmmmmmmmmmmmmmmmmmmmmm",
"mmmmmmmmmmmmmmmmaghfbjjj#####j##jjjjjjjjbbbjjjjjjjjjjjjjjjjjjjjjjjbbbjjbbj#hcmmmmmmmmmmmmmmmmmmmmmmm",
"mmmmmmmmmmmmmmmmaghfbjj####h#####jjjjjbbbbbbbbbjjjjjjjjjjjjjjjjjjjbbbjbbbj#dcmmmmmmmmmmmmmmmmmmmmmmm",
"mmmmmmmmmmmmmmmmaghfbjj####h####jjjbjjjbbbbjbbbjjjjjjjjjjjjjjjbbbjbbbjbbbj#dkmmmmmmmmmmmmmmmmmmmmmmm",
"mmmmmmmmmmmmmmmmaghfbjj#########jjjbjjjjjjjjjjjjjjjjjjjjjjjjjjbbbjbbbjbbbj#dkmmmmmmmmmmmmmmmmmmmmmmm",
"mmmmmmmmmmmmmmmmachfbjj#########jjjbjjjjjjjjjjjjjjjjjjjjjjjjjjbbjjjjjjbbjj#dkmmmmmmmmmmmmmmmmmmmmmmm",
"mmmmmmmmmmmmmmmmachfbjj#########jjjjjjjjjjjjjjjjjjjjjjjjjjjjjjjjjjjjjjjjjjhdkmmmmmmmmmmmmmmmmmmmmmmm",
"mmmmmmmmmmmmmmmmichfbjj####h####jjjbjjjjjjjjbbbjjjjjjjjjjjjjjjjjjjjjbbbbjjhlkmmmmmmmmmmmmmmmmmmmmmmm",
"mmmmmmmmmmmmmmmmichfbbjj##hhh###jjjbbjbbbbbbbbbjjjjjjjjjjjjjjjjjjjjbbbbbbjhlkmmmmmmmmmmmmmmmmmmmmmmm",
"mmmmmmmmmmmmmmmmichfbbj###hh####jjjbjjjbbbjjjjjjjjjjjjjjjjjjjjbbbjbbbbbbbjhlkmmmmmmmmmmmmmmmmmmmmmmm",
"mmmmmmmmmmmmmmmmachfbjj#########jjjjjjjjjjjjjjjjjjjjjjjjjjjjjjbbbbbbbbbbbjhlkmmmmmmmmmmmmmmmmmmmmmmm",
"mmmmmmmmmmmmmmmmichfbjj#########jjjjjjjjbbjjjjjjjjjjjjjjjjjjjjbbbbbbbbbbbjhlkmmmmmmmmmmmmmmmmmmmmmmm",
"mmmmmmmmmmmmmmmmicdfbjj######h##jjjjjjjjbbbjjjjjjjjjjjjjjjjjjjjjbbbbbfbbbjhlkmmmmmmmmmmmmmmmmmmmmmmm",
"mmmmmmmmmmmmmmmmichfbjj#########jjjbjjjjbbbjjjjjjjjjjjjjjjjjjjjjjjbbbbbbbbh.ammmmmmmmmmmmmmmmmmmmmmm",
"mmmmmmmmmmmmmmmmichfbjj#########jjjbbjjjjjjjjjjjjjjjjjjjjjjjjjjjjjbfbjjjbbh.ammmmmmmmmmmmmmmmmmmmmmm",
"mmmmmmmmmmmmmmmmichfbjj#########jjjbbjjjjjjjjjjjjjjjjjjjjjjjjjbbjjbfbjjjbbh.ammmmmmmmmmmmmmmmmmmmmmm",
"mmmmmmmmmmmmmmmmichfbjj#########jjjbbjjjjjjjjjjjjjjjjjjjjjjjjjbbjjbfbjjjbbhgammmmmmmmmmmmmmmmmmmmmmm",
"mmmmmmmmmmmmmmmmichfbjj#########jjjbbjjjjjjjjjjjjjjjjjjjjjjjjjbbjjbfbjjbbbdgammmmmmmmmmmmmmmmmmmmmmm",
"mmmmmmmmmmmmmmmmichfbjj#########jjjbbjjjjjjjjjjjjjjjjjjjjjjjjjbbbbbbbjjbjjdgammmmmmmmmmmmmmmmmmmmmmm",
"mmmmmmmmmmmmmmmmichfbjj#########jjjbbjjjjjjjjjjjjjjjjjjjjjjjjjbbbbbbbjjbjjdgammmmmmmmmmmmmmmmmmmmmmm",
"mmmmmmmmmmmmmmmmichfbjj#########jjjbbjjjjjjjjjjjjjjjjjjjjjjjjjbbbbbbbjjbjjdgammmmmmmmmmmmmmmmmmmmmmm",
"mmmmmmmmmmmmmmmmichfbjj#########jjjbbjjjjjjjjjjjjjjjjjjjjjjjjjjjbbbbbjbbbjdgammmmmmmmmmmmmmmmmmmmmmm",
"mmmmmmmmmmmmmmmmichfbjj#########jjjbbjjjjjjjjjjjjjjjjjjjjjjjjjjjbbbbjjbbbjdcimmmmmmmmmmmmmmmmmmmmmmm",
"mmmmmmmmmmmmmmmmichfbjj#########jjjbbjjjjjjjjjjjjjjjjjjjjjjjjjjjbbbjjjbbbjdcimmmmmmmmmmmmmmmmmmmmmmm",
"mmmmmmmmmmmmmmmmichfbjj#########jjjbbjjjjjjjjjjjjjjjjjjjjjjjjjjjjbjjjjjbbjdcimmmmmmmmmmmmmmmmmmmmmmm",
"mmmmmmmmmmmmmmmmichfbjj#########jjjbbjjjjjjjjjjjjjjjjjjjjjjjjjjjjbjjjjjbbbdcimmmmmmmmmmmmmmmmmmmmmmm",
"mmmmmmmmmmmmmmmmichfbjj#########jjjbbjjjjjjjjjjjjjjjjjjjjjjjjjjjjbjjjjjbbblkimmmmmmmmmmmmmmmmmmmmmmm",
"mmmmmmmmmmmmmmmmichfbjj#########jjjbbjjjjjjjjjjjjjjjjjjjjjjjjjjjjbbjjjjbbblkimmmmmmmmmmmmmmmmmmmmmmm",
"mmmmmmmmmmmmmmmmichfbjj#########jjjbbjjjjjjjjjjjjjjjjjjjjjjjjjjjjbbbjjjjjjlkimmmmmmmmmmmmmmmmmmmmmmm",
"mmmmmmmmmmmmmmmmichfbjj#########jjjbbjjjjjjjjjjjjjjjjjjjjjjjjjjjbbjjjbjjjblkimmmmmmmmmmmmmmmmmmmmmmm",
"mmmmmmmmmmmmmmmmicdfbjj####h####jjjbjjjjjjjjjjjjjjjjjjjjjjjjjjjjbbjjjbjjjblkimmmmmmmmmmmmmmmmmmmmmmm",
"mmmmmmmmmmmmmmmmicdfbjj####h####jjjbjjjjjjjjjjjjjjjjjjjjjjjjjjbbbbjjjbbjjjlaimmmmmmmmmmmmmmmmmmmmmmm",
"mmmmmmmmmmmmmmmmicdfbjj####h####jjjbjjjjjjjjjjjjjjjjjjjjjjjjjjbbbbjjjbbbjjlaemmmmmmmmmmmmmmmmmmmmmmm",
"mmmmmmmmmmmmmmmmicdfbjj####h####jjjbjjjjjjjjjjjjjjjjjjjjjjjjjjjjjbbjjjjjjjlaemmmmmmmmmmmmmmmmmmmmmmm",
"mmmmmmmmmmmmmmmmicdfbjj####h####jjjbjjjjjjjjjjjjjjjjjjjjjjjjjjjjjbbbjjjjjjlaemmmmmmmmmmmmmmmmmmmmmmm",
"mmmmmmmmmmmmmmmmicdfbjj####h####jjjbjjjjjjjjjjjjjjjjjjjjjjjjjjjjjbbjjjjbbjlaemmmmmmmmmmmmmmmmmmmmmmm",
"mmmmmmmmmmmmmmmmicdfbjj####h####jjjbjjjjjjjjjjjjjjjjjjjjjjjjjjbbbjjjjbbbbb.iemmmmmmmmmmmmmmmmmmmmmmm",
"mmmmmmmmmmmmmmmmicdfbjj####h####jjjbjjjjjjjjjjjjjjjjjjjjjjjjjjbbjjjbjjjjjb.iemmmmmmmmmmmmmmmmmmmmmmm",
"mmmmmmmmmmmmmmmmicdfbjj####h####jjjbjjjjjjjjjjjjjjjjjjjjjjjjjjjjjjjbjjjjjb.iemmmmmmmmmmmmmmmmmmmmmmm",
"mmmmmmmmmmmmmmmmicdfbjj####h####jjjbjjjjjjjjjjjjjjjjjjjjjjjjjjjjjjjbbbjjjb.iemmmmmmmmmmmmmmmmmmmmmmm",
"mmmmmmmmmmmmmmmmicdfbjj####h####jjjbjjjjjjjjjjjjjjjjjjjjjjjjjjbbjjjjbbbbbj.iemmmmmmmmmmmmmmmmmmmmmmm",
"mmmmmmmmmmmmmmmmicdfbjj####h####jjjbjjjjjjjjjjjjjjjjjjjjjjjjjjjjjjbbbbj#hdceemmmmmmmmmmmmmmmmmmmmmmm",
"mmmmmmmmmmmmmmmmicdfbjj####h####jjjbjjjjjjjjjjjjjjjjjjjjjjjjjjjjjjbbbj#d.cimmmmmmmmmmmmmmmmmmmmmmmmm",
"mmmmmmmmmmmmmmmmicdfbjj####h####jjjbjjjjjjjjjjjjjjjjjjjjjjjjjjjjjj#hdlgkaiemmmmmmmmmmmmmmmmmmmmmmmmm",
"mmmmmmmmmmmmmmmmicdfbjj####h####jjjbjjjjjjjjjjjjjjjjjjjjjjjjjjbbbjhlcaemmmmmmmmmmmmmmmmmmmmmmmmmmmmm",
"mmmmmmmmmmmmmmmmicdfbjj####h####jjjbbbjjjbbbjjjjjjbbjjjjjbbjjj#hl.ckaeemmmmmmmmmmmmmmmmmmmmmmmmmmmmm",
"mmmmmmmmmmmmmmmmicdfbjj####h####jjjbbbjjjbbbbjjjjjbbjjjjjbbjjjd.kiemmmmmmmmmmmmmmmmmmmmmmmmmmmmmmmmm",
"mmmmmmmmmmmmmmmmikdfbjj#########jjjjjjjjjbbbjjjjjjjbbbbjj#hdlgcaiemmmmmmmmmmmmmmmmmmmmmmmmmmmmmmmmmm",
"mmmmmmmmmmmmmmmmikdfbjj#####hh##jjjjjjjbbjjjjbbjjjjjbbbb#hlcaeemmmmmmmmmmmmmmmmmmmmmmmmmmmmmmmmmmmmm",
"mmmmmmmmmmmmmmmmikdfbbj#########jjjjjjbbbjjjjbjjjbbjj#hl.ckiemmmmmmmmmmmmmmmmmmmmmmmmmmmmmmmmmmmmmmm",
"mmmmmmmmmmmmmmmmikdfbbj#########jjjbbbbjjjjjjjjjjbbj#dgkiemmmmmmmmmmmmmmmmmmmmmmmmmmmmmmmmmmmmmmmmmm",
"mmmmmmmmmmmmmmmmikdfbjj####h####jjjbbjjjjjbbbbjj#hdlgcaiemmmmmmmmmmmmmmmmmmmmmmmmmmmmmmmmmmmmmmmmmmm",
"mmmmmmmmmmmmmmmmikdbbjjj###hh###jjjjjjjjjjbbbbbbhlcaemmmmmmmmmmmmmmmmmmmmmmmmmmmmmmmmmmmmmmmmmmmmmmm",
"mmmmmmmmmmmmmmmmikdfbjj####h####jjjbbbbjbbjj#hl.ckieemmmmmmmmmmmmmmmmmmmmmmmmmmmmmmmmmmmmmmmmmmmmmmm",
"mmmmmmmmmmmmmmmmikdfbjj########jj#jbbbbbbbj#d.keemmmmmmmmmmmmmmmmmmmmmmmmmmmmmmmmmmmmmmmmmmmmmmmmmmm",
"mmmmmmmmmmmmmmmmeilfbjj#########jjjbbjj#hd.gkaiemmmmmmmmmmmmmmmmmmmmmmmmmmmmmmmmmmmmmmmmmmmmmmmmmmmm",
"mmmmmmmmmmmmmmmmmmgbjjjj###h####jjjjjj#hlcaemmmmmmmmmmmmmmmmmmmmmmmmmmmmmmmmmmmmmmmmmmmmmmmmmmmmmmmm",
"mmmmmmmmmmmmmmmmmmk.d###########jjj#dlgckaemmmmmmmmmmmmmmmmmmmmmmmmmmmmmmmmmmmmmmmmmmmmmmmmmmmmmmmmm",
"mmmmmmmmmmmmmmmmmmei.########h##jj#h.kimmmmmmmmmmmmmmmmmmmmmmmmmmmmmmmmmmmmmmmmmmmmmmmmmmmmmmmmmmmmm",
"mmmmmmmmmmmmmmmmmmeeag..ldddddlll.gcaiemmmmmmmmmmmmmmmmmmmmmmmmmmmmmmmmmmmmmmmmmmmmmmmmmmmmmmmmmmmmm",
"mmmmmmmmmmmmmmmmmmmmmmiacg....gckiemmmmmmmmmmmmmmmmmmmmmmmmmmmmmmmmmmmmmmmmmmmmmmmmmmmmmmmmmmmmmmmmm",
"mmmmmmmmmmmmmmmmmmmmmmeeiaaaaaaiiemmmmmmmmmmmmmmmmmmmmmmmmmmmmmmmmmmmmmmmmmmmmmmmmmmmmmmmmmmmmmmmmmm",
"mmmmmmmmmmmmmmmmmmmmmmmmmmmmmmmmmmmmmmmmmmmmmmmmmmmmmmmmmmmmmmmmmmmmmmmmmmmmmmmmmmmmmmmmmmmmmmmmmmmm",
"mmmmmmmmmmmmmmmmmmmmmmmmmmmmmmmmmmmmmmmmmmmmmmmmmmmmmmmmmmmmmmmmmmmmmmmmmmmmmmmmmmmmmmmmmmmmmmmmmmmm",
"mmmmmmmmmmmmmmmmmmmmmmmmmmmmmmmmmmmmmmmmmmmmmmmmmmmmmmmmmmmmmmmmmmmmmmmmmmmmmmmmmmmmmmmmmmmmmmmmmmmm",
"mmmmmmmmmmmmmmmmmmmmmmmmmmmmmmmmmmmmmmmmmmmmmmmmmmmmmmmmmmmmmmmmmmmmmmmmmmmmmmmmmmmmmmmmmmmmmmmmmmmm",
"mmmmmmmmmmmmmmmmmmmmmmmmmmmmmmmmmmmmmmmmmmmmmmmmmmmmmmmmmmmmmmmmmmmmmmmmmmmmmmmmmmmmmmmmmmmmmmmmmmmm"
};
