/* XPM */
static char *ConterSunkHead_xpm[] = {
/* width height num_colors chars_per_pixel */
"    42    32       16            1",
/* colors */
"` c #1d3030",
". c #919ca5",
"# c #476780",
"a c #d3d4d9",
"b c #b4b7c0",
"c c #717c83",
"d c #7e8c97",
"e c #c3c4cd",
"f c #9faab3",
"g c #314d5a",
"h c #ffffff",
"i c #5f757f",
"j c #41565d",
"k c #57686c",
"l c #253e42",
"m c #e2e3e5",
/* pixels */
"hhhhhhhhhhhhhhhhhhhhhhhhhhhhhhhhhhhhhhhhhh",
"hhhhhhhhhhhhhhhhhhhhhhhhhhhhhhhhhhhhhhhhhh",
"hhhhhhhhhhhhhhhhhhhhhhhhhhhhhhhhhhhhhhhhhh",
"hhhhhhhhhhhhhhhhhhhhhhhhhhhhhhhhhhhhhhhhhh",
"hhhhhhhhhhhhhhhhhhhhhhhhhhhhhhhhhhhhhhhhhh",
"hhhhhhhhhhhhhmaeeeeaeebbbeammhhhhhhhhhhhhh",
"hhhhhhhhhhmaaeeeeb.b...faeeeeaamhhhhhhhhhh",
"hhhhhhhhmeeeee.abebiffc.fbffeebbemhhhhhhhh",
"hhhhhhheeeeeeeaee.ddbmmd.cfebeeeeaahhhhhhh",
"hhhhhhmbeeee.dddcdj#dbffcdfdidfeeemehhhhhh",
"hhhhhhbebeb.`llgj###de.jddii#aiebaaabhhhhh",
"hhhhhhcaebbeeeb.kj##dfbgfjic.afbebabdhhhhh",
"hhhhhac.eebbaamabcj#.ebgfdbaaaaaaaac.hhhhh",
"hhhhhedddeeebebeamfjdeecmeebbeeaaec..hhhhh",
"hhhhhmcbmfceaeeeeeebbbabaeeeaeam.kf.bhhhhh",
"hhhhhhekfmmeddfeaaaaaeaaeeamafcjiff.mhhhhh",
"hhhhhhhaji.bfae.eeffbbfb..dj```d..dmhhhhhh",
"hhhhhhhheicdbbbaaeaaaebck````ljdc.mhhhhhhh",
"hhhhhhhhhackjcemhhhhhhhecjl`ljcc.mhhhhhhhh",
"hhhhhhhhhhacikgjcfeeef.jjjjikcddmhhhhhhhhh",
"hhhhhhhhhhhacikkj#fe..dijjkicc.mhhhhhhhhhh",
"hhhhhhhhhhhhacikkcea..dkggkiidmhhhhhhhhhhh",
"hhhhhhhhhhhhhmcikdmbf.cjlgkc.mhhhhhhhhhhhh",
"hhhhhhhhhhhhhhaikcmb..ijllkcahhhhhhhhhhhhh",
"hhhhhhhhhhhhhhhdikff.dkggjc.ehhhhhhhhhhhhh",
"hhhhhhhhhhhhhhaecdi.digjkcedfhhhhhhhhhhhhh",
"hhhhhhhhhhhhhhhfeeamaafg`c.jahhhhhhhhhhhhh",
"hhhhhhhhhhhhhhhadd.ebkg`jjjihhhhhhhhhhhhhh",
"hhhhhhhhhhhhhhhhhhhhhhhhhhhhhhhhhhhhhhhhhh",
"hhhhhhhhhhhhhhhhhhhhhhhhhhhhhhhhhhhhhhhhhh",
"hhhhhhhhhhhhhhhhhhhhhhhhhhhhhhhhhhhhhhhhhh",
"hhhhhhhhhhhhhhhhhhhhhhhhhhhhhhhhhhhhhhhhhh"
};
