/* XPM */
static char *DVY_Door_xpm[] = {
/* width height num_colors chars_per_pixel */
"    32    32      256            2",
/* colors */
"`` c #241234",
"`. c #748a8c",
"`# c #8c1a28",
"`a c #9c565c",
"`b c #5c4e54",
"`c c #6c2234",
"`d c #bc2638",
"`e c #3c0664",
"`f c #c4c6c2",
"`g c #bc5660",
"`h c #bc9ea4",
"`i c #8c3654",
"`j c #241a34",
"`k c #ac1a2c",
"`l c #3c165c",
"`m c #9ca29c",
"`n c #946e6c",
"`o c #bc6e8c",
"`p c #c43e4c",
"`q c #4c067a",
"`r c #646a6c",
"`s c #9c929c",
"`t c #a45264",
"`u c #bcb6b4",
"`v c #8c2e44",
"`w c #340e4a",
"`x c #341a43",
"`y c #5c3274",
"`z c #ac3644",
"`A c #ac2a34",
"`B c #dc6e6c",
"`C c #bc3244",
"`D c #3c0e5c",
"`E c #cceae4",
"`F c #dc5254",
"`G c #d43f4c",
"`H c #4c0e74",
"`I c #a4666c",
"`J c #6c7c7c",
"`K c #8c1c54",
"`L c #8c8a8c",
"`M c #ac3a74",
"`N c #7c4a4c",
"`O c #acaeac",
"`P c #a46f74",
"`Q c #8c222c",
"`R c #e48e84",
"`S c #242227",
"`T c #341648",
"`U c #949295",
"`V c #5c0a92",
"`W c #a42236",
"`X c #d4aeb4",
"`Y c #cc3642",
"`Z c #d45e5c",
"`0 c #44066f",
"`1 c #dcdedc",
"`2 c #a44a54",
"`3 c #dc7e7c",
"`4 c #b4626c",
"`5 c #bc767c",
"`6 c #c44e4c",
"`7 c #540a86",
"`8 c #b49694",
".` c #3c0f54",
".. c #d44a54",
".# c #540e86",
".a c #7c7a7f",
".b c #8c8e8d",
".c c #b4b6b3",
".d c #e49e9c",
".e c #241634",
".f c #9c1c2c",
".g c #5c5654",
".h c #2c1a34",
".i c #7c6a84",
".j c #9c9a9d",
".k c #ac5274",
".l c #bcbebb",
".m c #341a4c",
".n c #7c2a34",
".o c #a42e64",
".p c #440e64",
".q c #ece6e4",
".r c #b42234",
".s c #c42e41",
".t c #c4666c",
".u c #947a7c",
".v c #cc3e4c",
".w c #54097c",
".x c #340f54",
".y c #e47674",
".z c #e45a5c",
".A c #54117c",
".B c #a47a7c",
".C c #848280",
".D c #941c2c",
".E c #8c666c",
".F c #7c223c",
".G c #440764",
".H c #dcc6c4",
".I c #647374",
".J c #942e6c",
".K c #b43640",
".L c #ac323c",
".M c #e4716c",
".N c #bc3a44",
".O c #d45a5c",
".P c #7c6264",
".Q c #b4aeb0",
".R c #5c1a84",
".S c #d43844",
".T c #b46284",
".U c #2c1d3c",
".V c #743244",
".W c #440f6c",
".X c #f4fff4",
".Y c #c42a3c",
".Z c #bc5e84",
".0 c #9c3a5c",
".1 c #4c226c",
".2 c #acaaac",
".3 c #cc6a6c",
".4 c #4c0a76",
".5 c #341247",
".6 c #341e43",
".7 c #d4464f",
".8 c #4c127c",
"#` c #ac6a74",
"#. c #745684",
"## c #e4beb4",
"#a c #d4a6ac",
"#b c #644a74",
"#c c #bc7694",
"#d c #6c567c",
"#e c #dcf6ec",
"#f c #b4427c",
"#g c #9c6264",
"#h c #841a4c",
"#i c #84565c",
"#j c #ac5e74",
"#k c #f49e94",
"#l c #d4d2cc",
"#m c #e49994",
"#n c #847684",
"#o c #cc7674",
"#p c #948284",
"#q c #848684",
"#r c #9c2334",
"#s c #e4625c",
"#t c #b47e83",
"#u c #747674",
"#v c #ece2dc",
"#w c #b44a54",
"#x c #cccecc",
"#y c #643a84",
"#z c #a44264",
"#A c #84324c",
"#B c #ac627e",
"#C c #948a98",
"#D c #8c7e94",
"#E c #943e4c",
"#F c #a43e4c",
"#G c #94225c",
"#H c #c4a6a4",
"#I c #bc464c",
"#J c #e4a69c",
"#K c #74627c",
"#L c #9c6a74",
"#M c #2c0e44",
"#N c #640a9c",
"#O c #847e8c",
"#P c #b45284",
"#Q c #c4c2c0",
"#R c #cc464c",
"#S c #b46a8c",
"#T c #cc7270",
"#U c #a47674",
"#V c #2c2230",
"#W c #3c1654",
"#X c #948e8c",
"#Y c #2c1638",
"#Z c #cc665c",
"#0 c #84222c",
"#1 c #ac4274",
"#2 c #a4a4a4",
"#3 c #9c7074",
"#4 c #ac565c",
"#5 c #b42c3c",
"#6 c #948684",
"#7 c #ac2434",
"#8 c #dc5e5c",
"a` c #e47c74",
"a. c #cc4a54",
"a# c #dc4e4c",
"aa c #64575c",
"ab c #a49e9c",
"ac c #6c767c",
"ad c #9c306c",
"ae c #ffffff",
"af c #6c4e7c",
"ag c #741e34",
"ah c #dcb2b4",
"ai c #e4e1dc",
"aj c #ac4854",
"ak c #eca29c",
"al c #842634",
"am c #f4eae4",
"an c #441660",
"ao c #c43241",
"ap c #3c1a4d",
"aq c #ac3e44",
"ar c #94222c",
"as c #b4627c",
"at c #b4b6bc",
"au c #b4323c",
"av c #c43a44",
"aw c #dc5a5c",
"ax c #7c3244",
"ay c #948e9c",
"az c #2c1644",
"aA c #8c1e2c",
"aB c #bc2a3c",
"aC c #3c0a5f",
"aD c #bc5a64",
"aE c #241e2c",
"aF c #ac1e30",
"aG c #9c969f",
"aH c #a4565c",
"aI c #bcbabb",
"aJ c #dc7268",
"aK c #dc5658",
"aL c #4c1270",
"aM c #e4928c",
"aN c #949694",
"aO c #5c0e8c",
"aP c #cc3a44",
"aQ c #440a6e",
"aR c #d44e50",
"aS c #7c7e7c",
"aT c #2c1e33",
"aU c #9c9e9c",
"aV c #ac567c",
"aW c #a4326c",
"aX c #44125f",
"aY c #b42635",
"aZ c #cc4249",
"a0 c #943264",
"a1 c #b4b2b2",
"a2 c #b4668c",
"a3 c #9c3e54",
"a4 c #9c666c",
"a5 c #cc7a6c",
"a6 c #2c123c",
"a7 c #dc6264",
"a8 c #3c125c",
/* pixels */
"`S`S`S`S`S`S`S`S`S`S`S`S`S`S`S`S`S`S`S`S`S`S`S`S`S`S`S`S`S`S`S`S",
"`S`S`S`S`S`S`S`S`S`S.ca1.caI.c.c.c.c.caIat.c`u.caIaI`S`S`S`S`S`S",
"#V#V#V#V#V#V#V#V#V#V`L#Q`8#t#t#t#t#t#t#t#t#t#H#QaSaIaTaEaEaTaT#V",
"aTaTaTaTaTaTaTaTaTaT.b`f`c#r.f.Dar`Q`#`#.DaA.V#x#qaIaTaTaTaTaTaT",
".U.U.U.U.U.U.U.U.U.U.b`fagaj`X.Eal.f`5`h#i`Q.V#x#qaI`j.h.h.haT.U",
".6.6.6.6.6.6.6.6.6.6`U`f.F`g#e`..naF#a`Eac#0ax#x.C.l.e.e#Y.h.h`x",
".m`x.m.m.m.m.m.m`x`x`L#Q`v`paD#F#r#7#w`4#E#r#A#l.C.l``#Y#Y#Y`x`x",
"apapapapapapapapapap.a`fa3..ao`daY#7aF`k.r#7#A#QaS.l``a6a6az`T.m",
"#W#W#W#W#W#W#Wap#W#Wa1`O`t`3am.H`g`d`a.P`N`A`i`O`U.Qa6a6a6.5`T#W",
"anananananananananan.ca1#jaMae.q.tao#L`Jaa.L.0#2a1`U#M#M.5.5a8`l",
"ananananananananananaIa1#B#mae#v.t`Y#3`Jaa.N#zaNaS#C`w`w`w.xa8aX",
"aLaLaLaLaLaLaLaLaL.W.c.c#B#m.Xai.3.S`Pacaa`6.ka1`U.j`w`w.x.`aXaX",
"aLaLaLaLaLaLaLaLaLaL.c.c#B#m.Xai#T.7`P.Iaa#Zas#2#2aU.`.x.``D.paL",
".A.A.A.A.A.A.A.A.A.8aI.c#B.d.Xai#oa##U.I.g#T`oaU.2aU`D`D`D.p.W`H",
".#.#.#.#.#.#.#.#.#.A.l.c#S#J.X`1#oaK.B.I.ga5#caU.2ayaCaC.G.W`H.A",
".#.#.#aO.#.#.#.#.#.#.l.c#Sak##ah#o.z`P`r`ba5#c.b`O.j.GaC.G.4`H.#",
"aOaOaOaOaOaOaOaOaOaOaI`ua2#ka`.Ma`.MaRav#IaJ`oaSa1aGaQaQaQ.4.w`7",
"`V`V`V`V`V`V`V`V`V`V.ca1.T`RaJ.M.y.M.7.S`G#s.Z#u.c#CaQaQ.4.4`7`V",
"`V`V`V`V`V`V`V`V`V`Va1a1aV`Ba7#8aR`Fa.`YaZ`F#P.a#2#O.4.4.4`7`7`V",
"#N#N#N#N#N#N#N#N#N`Va1.c#1.OaKawaP.7`Z`GaPaZ#f#q.c#n`q`q`q`7`V`V",
"#N#N#N#N#N#N#N#N#N`V`O.l.oaZ.v`G.s`Y#R`Yaoao`M`L.j.a`q`q`q`7`V`V",
"#N#N#N#N#N#N#N#N#N`V`O.l#G`C.s.s`d.Yao.YaBaBaW`LaG.b`q`q.w`7`V`V",
"#N#N#N#N#N#N#N#N#N`V`O.l`KaYaBaBaY`daB`d`daYaW.baG`s`q`q`7`7`V`V",
"#N#N#N#N#N#N#N#N#N`V.QaI`K#7#7#7#7#7aYaYaY#7ad`U#2ay`q`q`7`7`V`V",
"#N#N#N#N#N#N#N#N#N`V`Oa1#haY.K#5#7#7#7#7#7`WadaN#2#D`q`q`7`7`V`V",
"#N#N#N#N#N#N#N#N#N`VaNaU#`.Kau#5aY#7#7#7#7`W.JaN`O#K`q`q`7`7`V`V",
"#N#N#N#N#N#N#N#N#N`V#X.b#p#3`I#4ajaq`z`W#7`Wa0aU.2#b`q`q`7`7`V`V",
"#N#N#N#N#N#N#N#N#N`VaU#2.j.jaN.b#6.u`n#gaH`2a4aU.2`y`q`q`7`7`V`V",
"#N#N#N#N#N#N#N#N#N`V`V.R#y.iaUaUaU.jaN`U.b`LaN.b`O`q`q`q`7`V`V`V",
"#N#N#N#N#N#N#N#N#N`V`V`7`q`q`0.G.1#d`LaU`mabaUaSa1`q`q`q`7`V`V`V",
"#N#N#N#N#N#N#N#N#N`V`V`7`7`q`0.G`e`e`e.GaLaf#.`0`q`q`q`q`7`V`V`V",
"#N#N#N#N#N#N#N#N#N`V`V`V`7`q`0`0.G`e`e`e.G.G`0`0`0`0`q.w`7`V`V`V"
};
