/* XPM */
static char *DVY_Spindles_11_xpm[] = {
/* width height num_colors chars_per_pixel */
"    40   160      256            2",
/* colors */
"`` c #241200",
"`. c #948a6c",
"`# c #644e24",
"`a c #ccc6bc",
"`b c #9c6a3e",
"`c c #cc8a64",
"`d c #7c6a4c",
"`e c #ccae94",
"`f c #bc7e59",
"`g c #845a2f",
"`h c #9c7a61",
"`i c #cc9a74",
"`j c #b4a694",
"`k c #b48a6a",
"`l c #e49a6f",
"`m c #ac7a54",
"`n c #745e39",
"`o c #e4e6dc",
"`p c #b4967c",
"`q c #947a59",
"`r c #ac7a5c",
"`s c #744e24",
"`t c #84622e",
"`u c #8c6a3f",
"`v c #4c320c",
"`w c #ac7649",
"`x c #c48a61",
"`y c #cc9265",
"`z c #cca274",
"`A c #e4a274",
"`B c #8c6e54",
"`C c #ecaa7c",
"`D c #946639",
"`E c #dcdad4",
"`F c #9c7249",
"`G c #fff6f1",
"`H c #b49271",
"`I c #ac8263",
"`J c #745628",
"`K c #846244",
"`L c #dc925c",
"`M c #bcae9c",
"`N c #544214",
"`O c #cc865c",
"`P c #9c866c",
"`Q c #f4a274",
"`R c #9c7254",
"`S c #745637",
"`T c #a48a64",
"`U c #ccbeac",
"`V c #bc8656",
"`W c #dc9a71",
"`X c #bc8a69",
"`Y c #745e44",
"`Z c #f4e6e4",
"`0 c #c49674",
"`1 c #946a40",
"`2 c #d49269",
"`3 c #a4967c",
"`4 c #c4a280",
"`5 c #8c6232",
"`6 c #eca274",
"`7 c #b4825e",
"`8 c #dcc6b7",
".` c #a47a5b",
".. c #ac8254",
".# c #a48e74",
".a c #6c5628",
".b c #dca275",
".c c #8c765c",
".d c #ecdacc",
".e c #a4724a",
".f c #644214",
".g c #f4eee4",
".h c #342200",
".i c #d49a72",
".j c #b47a48",
".k c #b49e8c",
".l c #7c5629",
".m c #6c4e21",
".n c #e4aa7c",
".o c #c4825c",
".p c #8c5e34",
".q c #ec9a74",
".r c #7c5e32",
".s c #b47a5c",
".t c #4c3a0c",
".u c #ffaa7c",
".v c #ffffff",
".w c #7c5634",
".x c #dcbeac",
".y c #c48659",
".z c #bc8a74",
".A c #946a4c",
".B c #d49274",
".C c #dccebc",
".D c #d48e6c",
".E c #d4b69c",
".F c #bc8264",
".G c #845e3c",
".H c #bcaa90",
".I c #b48a74",
".J c #bc9678",
".K c #84623c",
".L c #8c6a4c",
".M c #c4926c",
".N c #cc9274",
".O c #e4a27c",
".P c #bc9273",
".Q c #ac836c",
".R c #8c6648",
".S c #a47454",
".T c #dc9a7c",
".U c #7c6644",
".V c #c4aa91",
".W c #8c643c",
".X c #eca57c",
".Y c #b4866c",
".Z c #a47d64",
".0 c #ac8a78",
".1 c #ece2d6",
".2 c #644a1f",
".3 c #ffeeec",
".4 c #b47c54",
".5 c #2c1e00",
".6 c #9c6e4c",
".7 c #cc8e6c",
".8 c #846a47",
"#` c #d4ae8c",
"#. c #e4e2dc",
"## c #5c3e14",
"#a c #94826c",
"#b c #c4b69c",
"#c c #ccc2b4",
"#d c #d4cec4",
"#e c #3c2a00",
"#f c #c49e84",
"#g c #dc926c",
"#h c #bca288",
"#i c #e4d6c4",
"#j c #c4ae94",
"#k c #e4ceb4",
"#l c #b4764c",
"#m c #d4a274",
"#n c #947658",
"#o c #ece6dc",
"#p c #946e54",
"#q c #f4aa7a",
"#r c #5c4214",
"#s c #a48267",
"#t c #ac8a69",
"#u c #d4baac",
"#v c #7c6247",
"#w c #ac9274",
"#x c #543a0c",
"#y c #2c1200",
"#z c #947e64",
"#A c #c48e6c",
"#B c #fffaff",
"#C c #c49a84",
"#D c #c4a68c",
"#E c #d49e7c",
"#F c #6c522c",
"#G c #7c603c",
"#H c #c4b2a4",
"#I c #e4d2c4",
"#J c #3c220c",
"#K c #bc9e84",
"#L c #f4e2dc",
"#M c #6c4a1c",
"#N c #d4c6bc",
"#O c #ac7654",
"#P c #946644",
"#Q c #b4927c",
"#R c #bc8664",
"#S c #b48254",
"#T c #c48664",
"#U c #846a54",
"#V c #d4a27c",
"#W c #947664",
"#X c #64522c",
"#Y c #9c6e44",
"#Z c #cc8e62",
"#0 c #ccb29c",
"#1 c #bc8259",
"#2 c #845e2e",
"#3 c #9c7e61",
"#4 c #cc9e71",
"#5 c #b48e6c",
"#6 c #e49e73",
"#7 c #ac7e5f",
"#8 c #745225",
"a` c #846634",
"a. c #8c6e3c",
"a# c #c48e64",
"aa c #cc966c",
"ab c #e4a674",
"ac c #9c7649",
"ad c #fffaf4",
"ae c #ac8664",
"af c #745a2c",
"ag c #846645",
"ah c #f4a675",
"ai c #9c7656",
"aj c #745a38",
"ak c #dc9e74",
"al c #bc8e68",
"am c #f4eae0",
"an c #946e42",
"ao c #d4966a",
"ap c #8c6634",
"aq c #eca674",
"ar c #b48663",
"as c #dccabc",
"at c #a47e5c",
"au c #dca676",
"av c #a47648",
"aw c #64461c",
"ax c #d49e74",
"ay c #b47e4c",
"az c #7c5a2b",
"aA c #6c5224",
"aB c #b47e5d",
"aC c #bc9a7b",
"aD c #ac8e76",
"aE c #fff2ed",
"aF c #d4b294",
"aG c #dc9671",
"aH c #eceae4",
"aI c #94725c",
"aJ c #f4ae7c",
"aK c #5c461c",
"aL c #a4866c",
"aM c #d4bea4",
"aN c #543e14",
"aO c #241600",
"aP c #ac7e54",
"aQ c #4c360c",
"aR c #8c7254",
"aS c #a48e64",
"aT c #746244",
"aU c #c49a74",
"aV c #ecdecc",
"aW c #f4f2e4",
"aX c #ec9e74",
"aY c #ffae7c",
"aZ c #7c5a34",
"a0 c #dcc2ac",
"a1 c #bc8e74",
"a2 c #946e4c",
"a3 c #d49674",
"a4 c #b48e74",
"a5 c #84663c",
"a6 c #8c6e4c",
"a7 c #cc9674",
"a8 c #e4a67c",
/* pixels */
".v.v.v.v.v.v.v.v.v.v.v.v.v.v.v.v.v.v.v.v.v.v.v.v.v.v.v.v.v.v.v.v.v.v.v.v.v.v.v.v",
".v.v.v.v.v.v.v.v.v.v.v.v.v.v.v.v.v.v.v.v.v.v.v#u#haS.HaW.v.v.v.v.v.v.v.v.v.v.v.v",
".v.v.v.v.v.v.v.v.v.v.v.v.v.v.v.v.v.v.v#B`Z#D#t`b`x`LaBac#iaE.v.v.v.v.v.v.v.v.v.v",
".v.v.v.v.v.v.v.v.v.v.v.v.v.v.v.v.v.1`8#3.6.j.y.Xaq#6#q`W#Yan#d.v.v.v.v.v.v.v.v.v",
".v.v.v.v.v.v.v.v.v.v.v.v.v.v.v.v.v.m`s.yak.na8`A`6#6`Waq#6.``5.V.v.v.v.v.v.v.v.v",
".v.v.v.v.v.v.v.v.v.v.v.v.v.v.v.v.vaz.W#YakaqaX`6.q`6aX`6#6aa`K#8.v.v.v.v.v.v.v.v",
".v.v.v.v.v.v.v.v.v.v.v.v.v.v.v.v.v`takar`D`x`6aq`Qaq`2`F`b`F#sa#`G.v.v.v.v.v.v.v",
".v.v.v.v.v.v.v.v.v.v.v.v.v.v.v.v.v#2aq`6.y.Wap`W.4av`D`w`y#6a8.Yad.v.v.v.v.v.v.v",
".v.v.v.v.v.v.v.v.v.v.v.v.v.v.v.v.vaz`AaXaq`2.e.W#Y.F#g`Qahah.i#7ad.v.v.v.v.v.v.v",
".v.v.v.v.v.v.v.v.v.v.v.v.v.v.v.v.v.raqaX`l#qax`u`6aqaX`6`6aq#m`Iad.v.v.v.v.v.v.v",
".v.v.v.v.v.v.v.v.v.v.v.v.v.v.v.v.vazah`6aG`6.i`taq`6.qaXaX.qax.zad.v.v.v.v.v.v.v",
".v.v.v.v.v.v.v.v.v.v.v.v.v.v.v.v.vazaqaqaX`6#m`t`6`6aXaXaq`6a3.S#B.v.v.v.v.v.v.v",
".v.v.v.v.v.v.v.v.v.v.v.v.v.v.v.v.v`t`A`6.q`6.i#2`6`6.qaXaqaq#m`Iad.v.v.v.v.v.v.v",
".v.v.v.v.v.v.v.v.v.v.v.v.v.v.v.v.v`taqaXaX`6#m`taq`6aX.qaX`6#m.QaE.v.v.v.v.v.v.v",
".v.v.v.v.v.v.v.v.v.v.v.v.v.v.v.v.v`taqaXaX`6#m`taq`6.q#6`6`6#m`IaE.v.v.v.v.v.v.v",
".v.v.v.v.v.v.v.v.v.v.v.v.v.v.v.v.v#2aqaXaX`6#m`taqaq.qaX`6`6ax.QaE.v.v.v.v.v.v.v",
".v.v.v.v.v.v.v.v.v.v.v.v.v.v.v.v.v`taqaXaX`6#m`t`6aqaXaX`6`6#m`IaE.v.v.v.v.v.v.v",
".v.v.v.v.v.v.v.v.v.v.v.v.v.v.v.v.v`taqaXaX`6#m`t`6aqaXaX`6`6#m`IaE.v.v.v.v.v.v.v",
".v.v.v.v.v.v.v.v.v.v.v.v.v.v.v.v.v`taqaXaX`6#m`t`6aqaXaX`6`6#m`IaE.v.v.v.v.v.v.v",
".v.v.v.v.v.v.v.v.v.v.v.v.v.v.v.v.v`taqaXaX`6#m`t`6aqaXaX`6`6#m`IaE.v.v.v.v.v.v.v",
".v.v.v.v.v.v.v.v.v.v.v.v.v.v.v.v.v`taqaXaX`6#m`t`6aqaXaX`6`6#m`IaE.v.v.v.v.v.v.v",
".v.v.v.v.v.v.v.v.v.v.v.v.v.v.v.v.v`taqaXaX`6#m`t`6aqaXaX`6`6#m`IaE.v.v.v.v.v.v.v",
".v.v.v.v.v.v.v.v.v.v.v.v.v.v.v.v.v`taqaXaX`6#m`t`6aqaXaX`6`6#m`IaE.v.v.v.v.v.v.v",
".v.v.v.v.v.v.v.v.v.v.v.v.v.v.v.v.v`taqaXaX`6#m`t`6aqaXaX`6`6#m`IaE.v.v.v.v.v.v.v",
".v.v.v.v.v.v.v.v.v.v.v.v.v.v.v.v.v.l#q#6aX`A#m#2aqaqaXaX`A`Aau.Y`G.v.v.v.v.v.v.v",
".v.v.v.v.v.v.v.v.v.v.v.v.v.v.v.v.v`T`w`C`6aqau`uahakak`6aqaq.M.6.v.v.v.v.v.v.v.v",
".v.v.v.v.v.v.v.v.v.v.v.v.v.v.v.v.v.v`u`D`W#6`7aK`x`A`AaX`W.e#p#I.v.v.v.v.v.v.v.v",
".v.v.v.v.v.v.v.v.v.v.v.v.v.v.v.v.v.v`i#r.2`J.A`1.K.w.l`J`N#r#5.v.v.v.v.v.v.v.v.v",
".v.v.v.v.v.v.v.v.v.v.v.v.v.v.v.v.v.1.8ao#Z`1.s`m.4a2`D.L.y`yai.g.v.v.v.v.v.v.v.v",
".v.v.v.v.v.v.v.v.v.v.v.v.v.v.v.v.v#B`S.i.Xahaqaq.uaJaYaJak#7aR.v.v.v.v.v.v.v.v.v",
".v.v.v.v.v.v.v.v.v.v.v.v.v.v.v.v.v.v`a#F`S`x`x`xav`xayacaK#Fam.v.v.v.v.v.v.v.v.v",
".v.v.v.v.v.v.v.v.v.v.v.v.v.v.v.v.v.v.v`E.5`gaZ.r`Jaz`5#r#GaH.v.v.v.v.v.v.v.v.v.v",
".v.v.v.v.v.v.v.v.v.v.v.v.v.v.v.v.v.v.v#w#R#6.iakab#ga8ax.Y#k.v.v.v.v.v.v.v.v.v.v",
".v.v.v.v.v.v.v.v.v.v.v.v.v.v.v.v.v.v.1#Jal`6`Q`6`AaqaXa#`Jag.v.v.v.v.v.v.v.v.v.v",
".v.v.v.v.v.v.v.v.v.v.v.v.v.v.v.v.v.v.`.m.aaz.K.l.maf.m.w`J.r#K.v.v.v.v.v.v.v.v.v",
".v.v.v.v.v.v.v.v.v.v.v.v.v.v.v.v.v.vag.O.7..#S#1`V`f`m`y`C.Y`h.v.v.v.v.v.v.v.v.v",
".v.v.v.v.v.v.v.v.v.v.v.v.v.v.v.v.v.v`nahahab`Cahah`6aha8aq`k`h.v.v.v.v.v.v.v.v.v",
".v.v.v.v.v.v.v.v.v.v.v.v.v.v.v.v.v.vaZa8`A`Aab#6`6`Waq.bah`X`h.v.v.v.v.v.v.v.v.v",
".v.v.v.v.v.v.v.v.v.v.v.v.v.v.v.v.v.vaCai`6`A`6abaX`A`6`6.b.S`8.v.v.v.v.v.v.v.v.v",
".v.v.v.v.v.v.v.v.v.v.v.v.v.v.v.v.v.v.vaAaq#maq`6.q`6`Aaq#7a2.v.v.v.v.v.v.v.v.v.v",
".v.v.v.v.v.v.v.v.v.v.v.v.v.v.v.v.v.v.v`F.M.OaqaqaX`6`Aaq.e#h.v.v.v.v.v.v.v.v.v.v",
".v.v.v.v.v.v.v.v.v.v.v.v.v.v.v.v.v.v.vaVagaq`6`6aqaXaqax.Sad.v.v.v.v.v.v.v.v.v.v",
".v.v.v.v.v.v.v.v.v.v.v.v.v.v.v.v.v.v.v.v.raq`A`6`6aX`6a1`h.v.v.v.v.v.v.v.v.v.v.v",
".v.v.v.v.v.v.v.v.v.v.v.v.v.v.v.v.v.v.v.va2.Xaqakaqab.X.J`h.v.v.v.v.v.v.v.v.v.v.v",
".v.v.v.v.v.v.v.v.v.v.v.v.v.v.v.v.v.v.g.Vaj.M`y`l`lao#Z.S.Gam.v.v.v.v.v.v.v.v.v.v",
".v.v.v.v.v.v.v.v.v.v.v.v.v.v.v.v.v.v.3#3`t`R.Wav.S`1`F`n.G.g.v.v.v.v.v.v.v.v.v.v",
".v.v.v.v.v.v.v.v.v.v.v.v.v.v.v.v.v.v.v.g.rai#O#R.e.4.`.W.#.v.v.v.v.v.v.v.v.v.v.v",
".v.v.v.v.v.v.v.v.v.v.v.v.v.v.v.v.v.v.v.va2.bao#Z`V`y.M.`aV.v.v.v.v.v.v.v.v.v.v.v",
".v.v.v.v.v.v.v.v.v.v.v.v.v.v.v.v.v.v.v#C.6`6`A`6`A`6`A.``P.v.v.v.v.v.v.v.v.v.v.v",
".v.v.v.v.v.v.v.v.v.v.v.v.v.v.v.v.v.v.vag`k.`#Mav.6.W`1.Q#nad.v.v.v.v.v.v.v.v.v.v",
".v.v.v.v.v.v.v.v.v.v.v.v.v.v.v.v.v.v.v#8aq#5aQ#A.iaz#2.b`IaM.v.v.v.v.v.v.v.v.v.v",
".v.v.v.v.v.v.v.v.v.v.v.v.v.v.v.v.v.v.v`Jaq.b#xa7#6aA`Jahae`p.v.v.v.v.v.v.v.v.v.v",
".v.v.v.v.v.v.v.v.v.v.v.v.v.v.v.v.v.v.v#vaqa8#x.Nakaz##`6`p`P.v.v.v.v.v.v.v.v.v.v",
".v.v.v.v.v.v.v.v.v.v.v.v.v.v.v.v.v.v.v.R`A`A`v`caq`t.haq`z#a.v.v.v.v.v.v.v.v.v.v",
".v.v.v.v.v.v.v.v.v.v.v.v.v.v.v.v.v.vadaA`A.b``akab`t`Jaq.P#3.v.v.v.v.v.v.v.v.v.v",
".v.v.v.v.v.v.v.v.v.v.v.v.v.v.v.v.v.v.v#8aq.iaOaq`A`taA`6arai.v.v.v.v.v.v.v.v.v.v",
".v.v.v.v.v.v.v.v.v.v.v.v.v.v.v.v.v.v.v`taq.i``aq`A`taAaqa1.Z.v.v.v.v.v.v.v.v.v.v",
".v.v.v.v.v.v.v.v.v.v.v.v.v.v.v.v.v.v.v`t`A`7```6ab#2aAaq#4.Q.v.v.v.v.v.v.v.v.v.v",
".v.v.v.v.v.v.v.v.v.v.v.v.v.v.v.v.v.v.v`1`A.e.t`6`Aa``J`6araI.v.v.v.v.v.v.v.v.v.v",
".v.v.v.v.v.v.v.v.v.v.v.v.v.v.v.v.v.v#cai`A`F#x`6.ba2awaq.Zai.v.v.v.v.v.v.v.v.v.v",
".v.v.v.v.v.v.v.v.v.v.v.v.v.v.v.v.v.v.V.Z`6a2#x`6ab.S`vaq`I.Z.v.v.v.v.v.v.v.v.v.v",
".v.v.v.v.v.v.v.v.v.v.v.v.v.v.v.v.v.v#0aBab.S#xaq`6aB```6ar.c.v.v.v.v.v.v.v.v.v.v",
".v.v.v.v.v.v.v.v.v.v.v.v.v.v.v.v.v.v`4#7`A.S#xaq`6#1#y`6.P.c.v.v.v.v.v.v.v.v.v.v",
".v.v.v.v.v.v.v.v.v.v.v.v.v.v.v.v.v.v#Q`kab`F#xaqaq`f``aq#m`q.v.v.v.v.v.v.v.v.v.v",
".v.v.v.v.v.v.v.v.v.v.v.v.v.v.v.v.v.vaea1`A`F.taq`6aB#eaq#m#7ad.v.v.v.v.v.v.v.v.v",
".v.v.v.v.v.v.v.v.v.v.v.v.v.v.v.v.v.va2#6aqav#xaqaqaB#x`A.b`I`G.v.v.v.v.v.v.v.v.v",
".v.v.v.v.v.v.v.v.v.v.v.v.v.v.v.v.v.v`1aqaq.e#xaq`A`O#x#m#m.`am.v.v.v.v.v.v.v.v.v",
".v.v.v.v.v.v.v.v.v.v.v.v.v.v.v.v.v.v.Laq`6.S#xaq`A.o#x#m#m`I.E.v.v.v.v.v.v.v.v.v",
".v.v.v.v.v.v.v.v.v.v.v.v.v.v.v.v.v.va2`6aq.S#xaqaqaB#x#m`6`k`H.v.v.v.v.v.v.v.v.v",
".v.v.v.v.v.v.v.v.v.v.v.v.v.v.v.v.v.van`6aq.S#xaqaqaB#x#m`Q.J.0.v.v.v.v.v.v.v.v.v",
".v.v.v.v.v.v.v.v.v.v.v.v.v.v.v.v.v.v.Laqaq.S#xaq`A#7#x#maq.J.z.v.v.v.v.v.v.v.v.v",
".v.v.v.v.v.v.v.v.v.v.v.v.v.v.v.v.v.vaT`6aqav.taq`6aB#x#maq.Y.Q.v.v.v.v.v.v.v.v.v",
".v.v.v.v.v.v.v.v.v.v.v.v.v.v.v.v.v.v.L`Qaqa2.maqaqaB#x#maq`k`I.v.v.v.v.v.v.v.v.v",
".v.v.v.v.v.v.v.v.v.v.v.v.v.v.v.v.v.v.8`6`6`tazaq`6.4#x#m`6.Y.Q.v.v.v.v.v.v.v.v.v",
".v.v.v.v.v.v.v.v.v.v.v.v.v.v.v.v.v.v`Yaq`6.l`taq`6.4.t#maqar`I.v.v.v.v.v.v.v.v.v",
".v.v.v.v.v.v.v.v.v.v.v.v.v.v.v.v.v.v#vaq`6aAanaq`6aB#x#m`6`kae.v.v.v.v.v.v.v.v.v",
".v.v.v.v.v.v.v.v.v.v.v.v.v.v.v.v.v.v#G`6`AaA.Waqaq.4#x#maq`7`h.v.v.v.v.v.v.v.v.v",
".v.v.v.v.v.v.v.v.v.v.v.v.v.v.v.v.v.v`t`Aab#8#2aq`6#T#xa1aqaB`h.v.v.v.v.v.v.v.v.v",
".v.v.v.v.v.v.v.v.v.v.v.v.v.v.v.v.v.v`5`A`A#8`taqaXak#8.``6.Yat.v.v.v.v.v.v.v.v.v",
".v.v.v.v.v.v.v.v.v.v.v.v.v.v.v.v.v.v`taq`AaA`t`6`6`W#8.eaqaBat.v.v.v.v.v.v.v.v.v",
".v.v.v.v.v.v.v.v.v.v.v.v.v.v.v.v.v.v`t`AabaA`t`6aqa3aA.Saq`7.`.v.v.v.v.v.v.v.v.v",
".v.v.v.v.v.v.v.v.v.v.v.v.v.v.v.v.v.v`t`A`A#8`taq`6a3aA.6aq.Y`I.v.v.v.v.v.v.v.v.v",
".v.v.v.v.v.v.v.v.v.v.v.v.v.v.v.v.v.v`Jaq`A#8`taqaXa7aA`u`6ax`I.g.v.v.v.v.v.v.v.v",
".v.v.v.v.v.v.v.v.v.v.v.v.v.v.v.v.v.v.WaqabaA`taqaXa3`sa2aha3`I.v.v.v.v.v.v.v.v.v",
".v.v.v.v.v.v.v.v.v.v.v.v.v.v.v.v.v.d.``Q#m`t#2aq`6`2#8.S`6a7.Q#B.v.v.v.v.v.v.v.v",
".v.v.v.v.v.v.v.v.v.v.v.v.v.v.v.v.v.Hae`6au`g#2`6`6`caA.SaqaUaraV.v.v.v.v.v.v.v.v",
".v.v.v.v.v.v.v.v.v.v.v.v.v.v.v.v.v#j`kab`AaA`u`6`6a3aAav`Q`A.z.V.v.v.v.v.v.v.v.v",
".v.v.v.v.v.v.v.v.v.v.v.v.v.v.v.v.v`e.Yabaq`J`taq`6a3aA.eaqaba1`H.v.v.v.v.v.v.v.v",
".v.v.v.v.v.v.v.v.v.v.v.v.v.v.v.v.v.V.Q`6`A`t`taqaqa3aA.S`6`QaC.#.v.v.v.v.v.v.v.v",
".v.v.v.v.v.v.v.v.v.v.v.v.v.v.v.v.vaF`Iaqau#2#2`6`6a3#8.e`6aq.JaD.v.v.v.v.v.v.v.v",
".v.v.v.v.v.v.v.v.v.v.v.v.v.v.v.v.v#0`kaq`AaA.W`6`6ao.a.Saq`6.JaC.v.v.v.v.v.v.v.v",
".v.v.v.v.v.v.v.v.v.v.v.v.v.v.v.v.v#f`iaqabaA.Waq`Aa3#8.SaqaqaC#w.v.v.v.v.v.v.v.v",
".v.v.v.v.v.v.v.v.v.v.v.v.v.v.v.v.v.Y.baq`A`J`taqaha3aA`waqaqaC.0.v.v.v.v.v.v.v.v",
".v.v.v.v.v.v.v.v.v.v.v.v.v.v.v.v.vai`A.X`6az`taqaqa3#8`Faqaq`kaD.v.v.v.v.v.v.v.v",
".v.v.v.v.v.v.v.v.v.v.v.v.v.v.v.v.v.J`Iak`W`J`tahaqaG`J`maq`6.P`P.v.v.v.v.v.v.v.v",
".v.v.v.v.v.v.v.v.v.v.v.v.v.v.v.v.v.v#2aB.RaN`JaGaG`X#r.r#RaB.I#i.v.v.v.v.v.v.v.v",
".v.v.v.v.v.v.v.v.v.v.v.v.v.v.v.v.v.v`gaxaa`V.e`faB`m`bat`2`I.S.v.v.v.v.v.v.v.v.v",
".v.v.v.v.v.v.v.v.v.v.v.v.v.v.v.v.v.vaCaraq.Xaq`l`WaX#qah`A`r#h.v.v.v.v.v.v.v.v.v",
".v.v.v.v.v.v.v.v.v.v.v.v.v.v.v.v.v.v`G`Jaqab`6`6aqaq`6aq.Qan.v.v.v.v.v.v.v.v.v.v",
".v.v.v.v.v.v.v.v.v.v.v.v.v.v.v.v.v.v.v#s`7aqaq`A`Aaq`AahaeaD.v.v.v.v.v.v.v.v.v.v",
".v.v.v.v.v.v.v.v.v.v.v.v.v.v.v.v.v.v.v#Laiaka8ab`6`A`6aaaL#o.v.v.v.v.v.v.v.v.v.v",
".v.v.v.v.v.v.v.v.v.v.v.v.v.v.v.v.v.v.v#H`I`6aq`Aaq`0`Qak#5.1.v.v.v.v.v.v.v.v.v.v",
".v.v.v.v.v.v.v.v.v.v.v.v.v.v.v.v.v.vad#X#n`W.O#q`6`C`Caa#F#s.v.v.v.v.v.v.v.v.v.v",
".v.v.v.v.v.v.v.v.v.v.v.v.v.v.v.v.v.v`q#M`Y.Ka5av`F#2a.aI`naZ`j.v.v.v.v.v.v.v.v.v",
".v.v.v.v.v.v.v.v.v.v.v.v.v.v.v.v.v.v#M`y`X`Da2#1.e.Aac`FaC.##W.v.v.v.v.v.v.v.v.v",
".v.v.v.v.v.v.v.v.v.v.v.v.v.v.v.v.v.vaD.2`H`2#A`Wa##Ea3`W`I.ras.v.v.v.v.v.v.v.v.v",
".v.v.v.v.v.v.v.v.v.v.v.v.v.v.v.v.v.v`G.fag`J`D#Y`u`Faf.L`#aj.v.v.v.v.v.v.v.v.v.v",
".v.v.v.v.v.v.v.v.v.v.v.v.v.v.v.v.v.v.v`Mawal.e.4#1.4`I`B.U`U.v.v.v.v.v.v.v.v.v.v",
".v.v.v.v.v.v.v.v.v.v.v.v.v.v.v.v.v.v.v.v`5ah.i`l`l`laq.Y#z.v.v.v.v.v.v.v.v.v.v.v",
".v.v.v.v.v.v.v.v.v.v.v.v.v.v.v.v.v.v.v#B#2.baqabakaqab.P.`.v.v.v.v.v.v.v.v.v.v.v",
".v.v.v.v.v.v.v.v.v.v.v.v.v.v.v.v.v.v.v`G`taq`6aX`l`6ab`i`R.v.v.v.v.v.v.v.v.v.v.v",
".v.v.v.v.v.v.v.v.v.v.v.v.v.v.v.v.v.v.v`G#2aqaXaXaX`6aqa1`1.v.v.v.v.v.v.v.v.v.v.v",
".v.v.v.v.v.v.v.v.v.v.v.v.v.v.v.v.v.v.v#BaA`6#6aX`6`6`6.i.S.v.v.v.v.v.v.v.v.v.v.v",
".v.v.v.v.v.v.v.v.v.v.v.v.v.v.v.v.v.v.v`G.r`A`6.qaq`6`6`Aaea0.v.v.v.v.v.v.v.v.v.v",
".v.v.v.v.v.v.v.v.v.v.v.v.v.v.v.v.v.v.v#0`rab#6aXaq`6`Aaq.Y.Y.v.v.v.v.v.v.v.v.v.v",
".v.v.v.v.v.v.v.v.v.v.v.v.v.v.v.v.v.v.v`m.i`A.qaXaq`6ab`6.P`q.v.v.v.v.v.v.v.v.v.v",
".v.v.v.v.v.v.v.v.v.v.v.v.v.v.v.v.v.v.v`Jaq`A.qaXaX`6`A`6al.`.v.v.v.v.v.v.v.v.v.v",
".v.v.v.v.v.v.v.v.v.v.v.v.v.v.v.v.v.v.v.W`A`6`6.qaX`6`Aaq`A`k#0.v.v.v.v.v.v.v.v.v",
".v.v.v.v.v.v.v.v.v.v.v.v.v.v.v.v.v.v#I.S`A`A`6aX`6`6`A`Aaha1`I.v.v.v.v.v.v.v.v.v",
".v.v.v.v.v.v.v.v.v.v.v.v.v.v.v.v.v.v.E.`aq`AaXaXaXaX`A`Aaq.z.`.v.v.v.v.v.v.v.v.v",
".v.v.v.v.v.v.v.v.v.v.v.v.v.v.v.v.v.v`G`Jahaq.q#6.qaXaq`6aq`I.P.v.v.v.v.v.v.v.v.v",
".v.v.v.v.v.v.v.v.v.v.v.v.v.v.v.v.v.v#..fa#.uaqaXaX`Aaq#q#A.W#h.v.v.v.v.v.v.v.v.v",
".v.v.v.v.v.v.v.v.v.v.v.v.v.v.v.v.v.v`B`k.ravakaXaqaq#Zayaj.mae.v.v.v.v.v.v.v.v.v",
".v.v.v.v.v.v.v.v.v.v.v.v.v.v.v.v.v.v#U`A#6a#`F.e.e`ban#7aoa4#3.v.v.v.v.v.v.v.v.v",
".v.v.v.v.v.v.v.v.v.v.v.v.v.v.v.v.v.v`J`u.uaqaq`Aaq`Aaq.n.b.W`S.v.v.v.v.v.v.v.v.v",
".v.v.v.v.v.v.v.v.v.v.v.v.v.v.v.v.v.k.2.l#2.``c`W.i#4#Zan`F#7`F`3.v.v.v.v.v.v.v.v",
".v.v.v.v.v.v.v.v.v.v.v.v.v.v.v.v.vaj`6aP`taB#7avav`F#Y.W.4#t#O`K.v.v.v.v.v.v.v.v",
".v.v.v.v.v.v.v.v.v.v.v.v.v.v.v.v.vag`6#q`Van`2#q#q#1.eav`V`xa4`kad.v.v.v.v.v.v.v",
".v.v.v.v.v.v.v.v.v.v.v.v.v.v.v.v.v#v`6`6`C.e`F.7ap.6`2`6.XauaUaead.v.v.v.v.v.v.v",
".v.v.v.v.v.v.v.v.v.v.v.v.v.v.v.v.v.8aq`Aaq.Tan`J#lakaq#6`Wab.b.Zad.v.v.v.v.v.v.v",
".v.v.v.v.v.v.v.v.v.v.v.v.v.v.v.v.va2`6ab`6aXaaaz#q`6aX#6`Aab.b.Q#B.v.v.v.v.v.v.v",
".v.v.v.v.v.v.v.v.v.v.v.v.v.v.v.v.va2aq`6`6aXak.paqaXaX`6`6`A#m.Q.v.v.v.v.v.v.v.v",
".v.v.v.v.v.v.v.v.v.v.v.v.v.v.v.v.va2aq`6`6#6a3`taqaX.q`6`6ab#m`I.v.v.v.v.v.v.v.v",
".v.v.v.v.v.v.v.v.v.v.v.v.v.v.v.v.v`1`Q`6`6aX.B`taq.q.q`6`6`A#m`I.v.v.v.v.v.v.v.v",
".v.v.v.v.v.v.v.v.v.v.v.v.v.v.v.v.va2aq`6aXaX`W`taq.qaX`A`6ab#m.Q.v.v.v.v.v.v.v.v",
".v.v.v.v.v.v.v.v.v.v.v.v.v.v.v.v.va2`6`6aX`A`A`taqaX.q`6`6`A#maB.v.v.v.v.v.v.v.v",
".v.v.v.v.v.v.v.v.v.v.v.v.v.v.v.v.va2aq`6aX`6`A`taqaX.q`6`6`A#m.4.v.v.v.v.v.v.v.v",
".v.v.v.v.v.v.v.v.v.v.v.v.v.v.v.v.va2aq`6aX`6`A`taq.qaX`6`6`A#m.4.v.v.v.v.v.v.v.v",
".v.v.v.v.v.v.v.v.v.v.v.v.v.v.v.v.va2aq`6.q`6`A`t`6aX.q`6`6`A#m.4.v.v.v.v.v.v.v.v",
".v.v.v.v.v.v.v.v.v.v.v.v.v.v.v.v.va2aqaXaX`6`A`taq.qaX`AaX`A#maB.v.v.v.v.v.v.v.v",
".v.v.v.v.v.v.v.v.v.v.v.v.v.v.v.v.va2aqaXaX`6ab#2aq`6`6aX`6aqa3ar.v.v.v.v.v.v.v.v",
".v.v.v.v.v.v.v.v.v.v.v.v.v.v.v.v.va2aqaXaX`6ab#2aqaX`6aX`6aqa3`I.v.v.v.v.v.v.v.v",
".v.v.v.v.v.v.v.v.v.v.v.v.v.v.v.v.va2aqaXaX`6ab#2aqaXaXaXaqaqa3`I.v.v.v.v.v.v.v.v",
".v.v.v.v.v.v.v.v.v.v.v.v.v.v.v.v.va2aqaXaX`6ab`taqaX.q.qaq`Aa3al.v.v.v.v.v.v.v.v",
".v.v.v.v.v.v.v.v.v.v.v.v.v.v.v.v.v.AaqaXaXaqab`taqaXaXaX`6abax#`.v.v.v.v.v.v.v.v",
".v.v.v.v.v.v.v.v.v.v.v.v.v.v.v.v.va2aqaXaXaq`A`taq.q`6aX`6`A#V`8.v.v.v.v.v.v.v.v",
".v.v.v.v.v.v.v.v.v.v.v.v.v.v.v.v.va6`6`A`6`6#m`t`6aXaX.q`Aah#m`I.v.v.v.v.v.v.v.v",
".v.v.v.v.v.v.v.v.v.v.v.v.v.v.v.v.v.A`6`AaX`A#m`taq.q`6`6aq`A#m.P.v.v.v.v.v.v.v.v",
".v.v.v.v.v.v.v.v.v.v.v.v.v.v.v.v.v`1aq`AaXab.b`taqaX.q`6aq`A.b.x.v.v.v.v.v.v.v.v",
".v.v.v.v.v.v.v.v.v.v.v.v.v.v.v.v.va2`6ab`6`6.b`t`6#6aX.q`A`A.b.C.v.v.v.v.v.v.v.v",
".v.v.v.v.v.v.v.v.v.v.v.v.v.v.v.v.va2aq`AaX`6`A`t`6aX`Q.q`A`6ax#4.v.v.v.v.v.v.v.v",
".v.v.v.v.v.v.v.v.v.v.v.v.v.v.v.v.vag`6`A`W`6.b`taqaXaq`6`6ab.i.Yad.v.v.v.v.v.v.v",
".v.v.v.v.v.v.v.v.v.v.v.v.v.v.v.v.va6abab#6.D`A`5`6aXaXaXab`A#m`I#B.v.v.v.v.v.v.v",
".v.v.v.v.v.v.v.v.v.v.v.v.v.v.v.v.v`d.Xab`W`6`6`taX.qaX.q`6aq#mai.v.v.v.v.v.v.v.v",
".v.v.v.v.v.v.v.v.v.v.v.v.v.v.v.v.v`p`m.b#q`A.b`taqaXaGaX`Qaq#m`k.v.v.v.v.v.v.v.v",
".v.v.v.v.v.v.v.v.v.v.v.v.v.v.v.v.v.v#f.pao.Xak#2`6`6`6.Xao.y.s`4.v.v.v.v.v.v.v.v",
".v.v.v.v.v.v.v.v.v.v.v.v.v.v.v.v.v.vad#0#P.j#6`taX`A#1`m.y`eas.v.v.v.v.v.v.v.v.v",
".v.v.v.v.v.v.v.v.v.v.v.v.v.v.v.v.v.v.v.vam#b#3.f#tae.V`o`G.v.v.v.v.v.v.v.v.v.v.v",
".v.v.v.v.v.v.v.v.v.v.v.v.v.v.v.v.v.v.v.v.v.v#N`..vad.v.v.v.v.v.v.v.v.v.v.v.v.v.v",
".v.v.v.v.v.v.v.v.v.v.v.v.v.v.v.v.v.v.v.v.v.v.v.v.v.v.v.v.v.v.v.v.v.v.v.v.v.v.v.v"
};
