/* XPM */
static char *DVY_EndRidgeTile_1x2x45_xpm[] = {
/* width height num_colors chars_per_pixel */
"   100   100       16            1",
/* colors */
"` c #8f0000",
". c #d3908f",
"# c #ac4d4d",
"a c #c40000",
"b c #ffd2d0",
"c c #9f2728",
"d c #c56f70",
"e c #ffb0b0",
"f c #b93236",
"g c #ffffff",
"h c #da7475",
"i c #c55153",
"j c #e89796",
"k c #a50000",
"l c #d40000",
"m c #a2393a",
/* pixels */
"gggggggggggggggggggggggggggggggggggggggggggggggggggggggggggggggggggggggggggggggggggggggggggggggggggg",
"gggggggggggggggggggggggggggggggggggggggggggggggggggggggggggggggggggggggggggggggggggggggggggggggggggg",
"gggggggggggggggggggggggggggggggggggggggggggggggggggggggggggggggggggggggggggggggggggggggggggggggggggg",
"gggggggggggggggggggggggggggggggggggggggggggggggggggggggggggggggggggggggggggggggggggggggggggggggggggg",
"gggggggggggggggggggggggggggggggggggggggggggggggggggggggggggggggggggggggggggggggggggggggggggggggggggg",
"gggggggggggggggggggggggggggggggggggggggggggggggggggggggggggggggggggggggggggggggggggggggggggggggggggg",
"gggggggggggggggggggggggggggggggggggggggggggggggggggggggggggggggggggggggggggggggggggggggggggggggggggg",
"gggggggggggggggggggggggggggggggggggggggggggggggggggggggggggggggggggggggggggggggggggggggggggggggggggg",
"gggggggggggggggggggggggggggggggggggggggggggggggggggggggggggggggggggggggggggggggggggggggggggggggggggg",
"gggggggggggggggggggggggggggggggggggggggggggggggggggggggggggggggggggggggggggggggggggggggggggggggggggg",
"gggggggggggggggggggggggggggggggggggggggggggggggggggggggggggggggggggggggggggggggggggggggggggggggggggg",
"gggggggggggggggggggggggggggggggggggggggggggggggggggggggggggggggggggggggggggggggggggggggggggggggggggg",
"gggggggggggggggggggggggggggggggggggggggggggggggggggggggggggggggggggggggggggggggggggggggggggggggggggg",
"gggggggggggggggggggggggggggggggggggggggggggggggggggggggggggggggggggggggggggggggggggggggggggggggggggg",
"gggggggggggggggggggggggggggggggggggggggggggggggggggggggggggggggggggggggggggggggggggggggggggggggggggg",
"gggggggggggggggggggggggggggggggggggggggggggggggggggggggggggggggggggggggggggggggggggggggggggggggggggg",
"gggggggggggggggggggggggggggggggggggggggggggggggggggggggggggggggggggggggggggggggggggggggggggggggggggg",
"gggggggggggggggggggggggggggggggggggggggggggggggggggggggggggggggggggggggggggggggggggggggggggggggggggg",
"gggggggggggggggggggggggggggggggggggggggggggggggggggggggggggggggggggggggggggggggggggggggggggggggggggg",
"gggggggggggggggggggggggggggggggggggggggggggggggggggggggggggggggggggggggggggggggggggggggggggggggggggg",
"gggggggggggggggggggggggggggggggggggggggggggggggggggggggggggggggggggggggggggggggggggggggggggggggggggg",
"gggggggggggggggggggggggggggggggggggggggggggggggggggggggggggggggggggggggggggggggggggggggggggggggggggg",
"gggggggggggggggggggggggggggggggggggggggggggggggggggggggggggggggggggggggggggggggggggggggggggggggggggg",
"gggggggggggggggggggggggggggggggggggggggggggggggggggggggggggggggggggggggggggggggggggggggggggggggggggg",
"gggggggggggggggggggggggggggggggggggggggggggggggggggggggggggggggggggggggggggggggggggggggggggggggggggg",
"gggggggggggggggggggggggggggggggggggggggggggggggggggggggggggggggggggggggggggggggggggggggggggggggggggg",
"ggggggggggggggggggggggggggggggggggggggggggggggggggggggggggbbbbgggggggggggggggggggggggggggggggggggggg",
"gggggggggggggggggggggggggggggggggggggggggggggggggggggggggbbbbbbggggggggggggggggggggggggggggggggggggg",
"ggggggggggggggggggggggggggggggggggggggggggggggggggggggbbe.hdddebgggggggggggggggggggggggggggggggggggg",
"gggggggggggggggggggggggggggggggggggggggggggggggggggggbejdmc`cc.bbggggggggggggggggggggggggggggggggggg",
"ggggggggggggggggggggggggggggggggggggggggggggggggbbbejhdifcckccdjbggggggggggggggggggggggggggggggggggg",
"ggggggggggggggggggggggggggggggggggggggggggggggggbejd#cckkkkkkc#deggggggggggggggggggggggggggggggggggg",
"ggggggggggggggggggggggggggggggggggggggggggggbbe.hdifckkkkaaaacf#.bgggggggggggggggggggggggggggggggggg",
"gggggggggggggggggggggggggggggggggggggggggggbejdmcckkkkaaaaaaaaccdbbggggggggggggggggggggggggggggggggg",
"ggggggggggggggggggggggggggggggggggggggbbbejhdifcckkkkaaaaaaaaakcijbggggggggggggggggggggggggggggggggg",
"ggggggggggggggggggggggggggggggggggggggbbjh#ckkkkkkaaaaaaaaaaaaakfheggggggggggggggggggggggggggggggggg",
"ggggggggggggggggggggggggggggggggggbbe..diffkkkaaaaaaaaaaaaaaaaaaf#jbgggggggggggggggggggggggggggggggg",
"ggggggggggggggggggggggggggggggggggbjd#c`kkkaaaaaaaaaaaaaaaalaaaacchbgggggggggggggggggggggggggggggggg",
"gggggggggggggggggggggggggggggbbej.di#fckkaaaaaaaaaaaaaaaaaaaaaaaacdebggggggggggggggggggggggggggggggg",
"ggggggggggggggggggggggggggggbbehicckkkkaaaaaaaaaaaaaaaaaaaaaaaaaaaiheggggggggggggggggggggggggggggggg",
"ggggggggggggggggggggggggbbbj.diifckkkaaaaaaaaaaaaaaaaaaaaaaalllaaafijbgggggggggggggggggggggggggggggg",
"ggggggggggggggggggggggggbe.dmckkkaaaaaaaaaallaaaaaaaaaaaaaalllllaacchbgggggggggggggggggggggggggggggg",
"ggggggggggggggggggggbbe.hdifckkkaaaaaaaaaaaaaaaaaaaaaaaaaaalaallaakcdebggggggggggggggggggggggggggggg",
"gggggggggggggggggggbejdfckkkkkaaaaaaaaaaaaaaaaaaaaaaaaaaaaalaaalaaaaiheggggggggggggggggggggggggggggg",
"ggggggggggggggggbe..difcckkaaaaaaaaaaaaaaaaaaaaaaaaaaaaaaaalaaaaaaaafijggggggggggggggggggggggggggggg",
"gggggggggggggggbjd#cckkaaaaaaaaaaaaaaaaaaaaaaaaaaaaaaaaaaaalaaaaaaaakc.ggggggggggggggggggggggggggggg",
"ggggggggggggggbjd#mckkaaaaaaaaaaaaaaaaaaaaaaaaaaaaaaaaaaaaaaaaaaaaaaacdebggggggggggggggggggggggggggg",
"gggggggggggggged#cckkaaaaaaaaaaaaaaaaaaaaaaaaaaaaaaaaaaaaaaaaaalaaaaaci.eggggggggggggggggggggggggggg",
"ggggggggggggggedmckkkaaaaaaaaaaaaaaaaaaaaaaaaaaaaaaaaaaaaaaaaalllaaaakfdjggggggggggggggggggggggggggg",
"ggggggggggggggedm`kkaaaaaaaaaaaaaaaaaaaaaaaaaaaaaaaaaaaaaaaaaallllaaakcm.ggggggggggggggggggggggggggg",
"ggggggggggggggedm``kkaaaaaaaaaaaaaaaaaaaaaaaaaaaaaaaaaaaaaaaalaaaallaacchebggggggggggggggggggggggggg",
"ggggggggggggggedm``kkkaaaaaaaaaaaaaaaaaaaaaaaaaaaaaaaaaaaaalllaaaallaakkijbggggggggggggggggggggggggg",
"ggggggggggggggb.#c``kkkkaaaaaaaaaaaaaaaaaaaaaaaaaaaaaaaaaaalllaaaalllaakfdeggggggggggggggggggggggggg",
"ggggggggggggggbedcc``kkkaaaaaaaaaaaaaaaaaaaaaaaaaaaaaaaaaallllllaallllaacf.ggggggggggggggggggggggggg",
"gggggggggggggggbjd#cc`kkkaaaaaaaaaaaaaaaaaaaaaaaaaaaaaaaallllllaaallllaaachbbggggggggggggggggggggggg",
"ggggggggggggggggbbdmc``kkaaaaaaaaaaaaaaaaaaaaaaaaaaaaaaaalllllaaaalllllaacijbggggggggggggggggggggggg",
"gggggggggggggggggbe.#cckkkkaaaaaaaaaaaaaaaaaaaaaaaaaaaaaalllllaaaalllllaacideggggggggggggggggggggggg",
"ggggggggggggggggggbb.#c``kkkaaaaaaaaaaaaaaaaaaaaaaaaaaaaalllllaaalllllllaafm.ggggggggggggggggggggggg",
"gggggggggggggggggggbe.dmc`kkkaaaaaaaaaaaaaaaaaaaaaaaaaaaaallllaaalllllllaacchbbggggggggggggggggggggg",
"ggggggggggggggggggggggjdm``kkkkaaaaaaaaaaaaaaaaaaaaaaaaaaaalllaallllllllaakciebggggggggggggggggggggg",
"ggggggggggggggggggggggbjd#c`kkkkkaaaaaaaaaaaaaaaaaaaaaaaaaallllallllllllaaakiheggggggggggggggggggggg",
"gggggggggggggggggggggggge.#```kkkkaaaaaaaaaaaaaaaaaaaaaaaaalllllaalllllllaakf#jggggggggggggggggggggg",
"ggggggggggggggggggggggggbe.#m``kkkkaaaaaaaaaaaaaaaaaaaaaaalllllllllllllllaaacfhbbggggggggggggggggggg",
"ggggggggggggggggggggggggggbj#c``kkkkaaaaaaaaaaaaaaaaaaaaalllllllllllllllllaakcdebggggggggggggggggggg",
"ggggggggggggggggggggggggggbb.dm``kkkkkaaaaaaaaaaaaaaaaaallllllllllllllllllaakciheggggggggggggggggggg",
"ggggggggggggggggggggggggggggbedcc`kkkkaaaaaaaaaaaaaaaaalllllllllllllllllllaaacf#jggggggggggggggggggg",
"ggggggggggggggggggggggggggggbbjd#cc`kkkaaaaaaaaaaaaaaaalllllllllllllllllllaaakcm.bgggggggggggggggggg",
"ggggggggggggggggggggggggggggggbbdmc``kkkkaaaaaaaaaaaaaalllllllllllllllaaaallaakcdbbggggggggggggggggg",
"gggggggggggggggggggggggggggggggbe.#cc`kkkaaaaaaaaaaaaaallllallllllaaaaaaaallaakcdebggggggggggggggggg",
"gggggggggggggggggggggggggggggggggb.#c``kkkkkkaaaaaaaaaallllaalllllaaaaalllllaakciebggggggggggggggggg",
"ggggggggggggggggggggggggggggggggggb.dmc`kkkkkaaaaaaaaaalllaaallllaaaaaaaaaaaaakcdebggggggggggggggggg",
"ggggggggggggggggggggggggggggggggggggjdm```kkkaaaaaaaaaalllaaallllaaaaaaaaaaaakkcdebggggggggggggggggg",
"ggggggggggggggggggggggggggggggggggggbjd#c``kkkkaaaaaaaallllaaaaaaaaaaaaaaaaakkkcdebggggggggggggggggg",
"ggggggggggggggggggggggggggggggggggggggeh#c``kkkkaaaaaaalllllaaaaaaaaaaaaaakkkk``debggggggggggggggggg",
"ggggggggggggggggggggggggggggggggggggggbe.im``kkkkaaaaaalllllaaaaaaaaaaaakkkkcf#djbgggggggggggggggggg",
"ggggggggggggggggggggggggggggggggggggggggbjic``kkkkaaaaalllllaaaaaaaakkkakkkcmd.bbggggggggggggggggggg",
"ggggggggggggggggggggggggggggggggggggggggbbjd#c`kkkkaaaaaaaaaaaaaakkkkkkcffid.jbbgggggggggggggggggggg",
"ggggggggggggggggggggggggggggggggggggggggggbedcc`kkkaaaaaaaaaaaakkkkkkkccihebbggggggggggggggggggggggg",
"gggggggggggggggggggggggggggggggggggggggggggbe.#ckkkkaaaaaaaaaakkkkccfid.jebbgggggggggggggggggggggggg",
"ggggggggggggggggggggggggggggggggggggggggggggbb.mc`kkaaaaaaakkkkkk`cmdjbggggggggggggggggggggggggggggg",
"gggggggggggggggggggggggggggggggggggggggggggggge.icckkaaakkkkkkcfiih.ebbggggggggggggggggggggggggggggg",
"gggggggggggggggggggggggggggggggggggggggggggggggb.#c`kkkkkkkk`cfihebggggggggggggggggggggggggggggggggg",
"ggggggggggggggggggggggggggggggggggggggggggggggggb.dmccccccc#id.jebbggggggggggggggggggggggggggggggggg",
"gggggggggggggggggggggggggggggggggggggggggggggggggged#ccccc#djbbggggggggggggggggggggggggggggggggggggg",
"ggggggggggggggggggggggggggggggggggggggggggggggggggbe.iiidd.ebbgggggggggggggggggggggggggggggggggggggg",
"ggggggggggggggggggggggggggggggggggggggggggggggggggggbjj.ebgggggggggggggggggggggggggggggggggggggggggg",
"ggggggggggggggggggggggggggggggggggggggggggggggggggggbbbbbggggggggggggggggggggggggggggggggggggggggggg",
"gggggggggggggggggggggggggggggggggggggggggggggggggggggggggggggggggggggggggggggggggggggggggggggggggggg",
"gggggggggggggggggggggggggggggggggggggggggggggggggggggggggggggggggggggggggggggggggggggggggggggggggggg",
"gggggggggggggggggggggggggggggggggggggggggggggggggggggggggggggggggggggggggggggggggggggggggggggggggggg",
"gggggggggggggggggggggggggggggggggggggggggggggggggggggggggggggggggggggggggggggggggggggggggggggggggggg",
"gggggggggggggggggggggggggggggggggggggggggggggggggggggggggggggggggggggggggggggggggggggggggggggggggggg",
"gggggggggggggggggggggggggggggggggggggggggggggggggggggggggggggggggggggggggggggggggggggggggggggggggggg",
"gggggggggggggggggggggggggggggggggggggggggggggggggggggggggggggggggggggggggggggggggggggggggggggggggggg",
"gggggggggggggggggggggggggggggggggggggggggggggggggggggggggggggggggggggggggggggggggggggggggggggggggggg",
"gggggggggggggggggggggggggggggggggggggggggggggggggggggggggggggggggggggggggggggggggggggggggggggggggggg",
"gggggggggggggggggggggggggggggggggggggggggggggggggggggggggggggggggggggggggggggggggggggggggggggggggggg",
"gggggggggggggggggggggggggggggggggggggggggggggggggggggggggggggggggggggggggggggggggggggggggggggggggggg",
"gggggggggggggggggggggggggggggggggggggggggggggggggggggggggggggggggggggggggggggggggggggggggggggggggggg",
"gggggggggggggggggggggggggggggggggggggggggggggggggggggggggggggggggggggggggggggggggggggggggggggggggggg"
};
