/* XPM */
static char *DryWall01_xpm[] = {
/* width height num_colors chars_per_pixel */
"    32    32       16            1",
/* colors */
"` c #111100",
". c #8b8c89",
"# c #4d4d47",
"a c #cccccc",
"b c #30302b",
"c c #ebebe9",
"d c #73726e",
"e c #3d3c36",
"f c #acaca8",
"g c #dddddc",
"h c #9b9a97",
"i c #1f201a",
"j c #5d5d5a",
"k c #807e79",
"l c #ffffff",
"m c #bcbcbb",
/* pixels */
"lllllllllllllllllllllcacllllllll",
"lllllllllllllllllllcdeeedgllllll",
"lllllllllllllllllllheeeebbhlllll",
"lllllllllllllllllllkbeeiibbdllll",
"lllllllllllllllllll.beeb`bbbjlll",
"lllllllllllllllllllmieee`ibbbhll",
"lllllllllllllllllllcebei`````bgl",
"llllllllllllllllllla#bbb````ibjl",
"lllllllllllllllllll.eeibeei`bbbg",
"llllllllllllllllllg#ebbbeee`ibem",
"lllllllllllllllllldbbbbebbbbieef",
"llllllllllllllll.#bbbbbbebbeeeea",
"llllllllllllllllkiibbbbedhjbe#dl",
"lllllllllllllll.bbiiibkglllgmgll",
"lllllllllllla.kbbbiie.llllllllll",
"llllllllllllaiibiii#clllllllllll",
"lllllllllllldb``iibhllllllllllll",
"lllllllllffjibiiib#gllllllllllll",
"llllllllldiibiiihmclllllllllllll",
"llllllllc#i`iiibglllllllllllllll",
"llllllmgjbbiiib#llllllllllllllll",
"lllllleiibiib.fcllllllllllllllll",
"lllllge``i`ielllllllllllllllllll",
"llllc#bb`ibbdlllllllllllllllllll",
"lllkjibii#khllllllllllllllllllll",
"llld`iiii.llllllllllllllllllllll",
"llgei``iballllllllllllllllllllll",
"ll#bib..mlllllllllllllllllllllll",
"l.iiihllllllllllllllllllllllllll",
"lej.hlllllllllllllllllllllllllll",
"lallllllllllllllllllllllllllllll",
"llllllllllllllllllllllllllllllll"
};
