/* XPM */
static char *DVY_DoorKnobLf_3x4_xpm[] = {
/* width height num_colors chars_per_pixel */
"   100   100       16            1",
/* colors */
"` c #8c8c8c",
". c #c6c8c8",
"# c #e5e8e8",
"a c #aaacac",
"b c #d4d7da",
"c c #bbbdbd",
"d c #ffffff",
"e c #9b9c9d",
"f c #ced0d1",
"g c #b2b4b4",
"h c #eff0f0",
"i c #dfe0e0",
"j c #a2a4a4",
"k c #c4c2c4",
"l c #949594",
"m c #bcc2c2",
/* pixels */
"dddddddddddddddddddddddddddddddddddddddddddddddddddddddddddddddddddddddddddddddddddddddddddddddddddd",
"dddddddddddddddddddddddddddddddddddddddddddddddddddddddddddddddddddddddddddddddddddddddddddddddddddd",
"dddddddddddddddddddddddddddddddddddddddddddddddddddddddddddddddddddddddddddddddddddddddddddddddddddd",
"dddddddddddddddddddddddddddddddddddddddddddddddddddddddddddddddddddddddddddddddddddddddddddddddddddd",
"ddddddddddddddddddddddddddddddddddddddddddddddddddddddddddddddh###hddddddddddddddddddddddddddddddddd",
"ddddddddddddddddddddddddddddddddddddddddddddddddddddddddddddhh#bbfihhddddddddddddddddddddddddddddddd",
"ddddddddddddddddddddddddddddddddddddddddddddddddddddddddddhib.biiibfb#hddddddddddddddddddddddddddddd",
"dddddddddddddddddddddddddddddddddddddddddddddddddddddddddd#fge.#hhfacb#ddddddddddddddddddddddddddddd",
"dddddddddddddddddddddddddddddddddddddddddddddddddddddh#ibfkgajkiii.aag.b#ddddddddddddddddddddddddddd",
"ddddddddddddddddddddddddddddddddddddddddddddddddddddhhbmgjeleacbffmajljgbddddddddddddddddddddddddddd",
"ddddddddddddddddddddddddddddddddddddddddddddddddhhibffcgajelac.fff.cj`ej.hhddddddddddddddddddddddddd",
"ddddddddddddddddddddddddddddddddddddddddddddddddhb.ggajjeeeegfffffffa`lec#hddhdddddddddddddddddddddd",
"dddddddddddddddddddddddddddddddddddddddddddhh#bff.kccmgaajeegfb##ibfgllecb#ddddddddddddddddddddddddd",
"ddddddddddddddddddddddddddddddddddddddddddhhifcjagc.ff.cgajegf#ddhifgeeeg.#ddddddddddddddddddddddddd",
"ddddddddddddddddddddddddddddddddddddddhh#bf...mcm..ffbf.mcgagm.f..mcgajjgf#ddddddddddddddddddddddddd",
"ddddddddddddddddddddddddddddddddddddddhi.gaagc.bbbbbbbbff.kcggajeejjagajcf#ddddddddddddddddddddddddd",
"dddddddddddddddddddddddddddddddddhh#ibf.mcmk..fbbbbbbbbfffffffffffff..cacf#ddddddddddddddddddddddddd",
"dddddddddddddddddddddddddddddddddhifcaaac.fbbbbbbbbbbbbfbbii#hhddddd#i.acf#ddddddddddddddddddddddddd",
"ddddddddddddddddddddddddddddhh#bbf.kcccm.fbbbbbbbbbbbbbbbbbii##h##iibfcamf#ddddddddddddddddddddddddd",
"ddddddddddddddddddddddddddddh#fggaggc.fbbbbbbbbbbbbbbbbbbbbbiiiibf...mgakb#ddddddddddddddddddddddddd",
"ddddddddddddddddddddddddh#ibf.kccm..ffbbbbbbbbbbbbbbbbbbbbbbbbbbfkkmmmcg.b#ddddddddddddddddddddddddd",
"dddddddddddddddddddddddd#fkgaac.fbbbbbbbbbbbbbbbbbbbbbbbbbbbffff.cccckcg.b#ddddddddddddddddddddddddd",
"dddddddddddddddddddddddd#f.ccc.ffbbbbbbbbbbbbbbbbbbbbbbbbbbbbbff.ccccmcg.b#ddddddddddddddddddddddddd",
"ddddddddddddddddddddddddi..ffbbbbbbbbbbbbfbbbbbbbbbbbbbbbbbbbibf.cmkmcgg.ihddddddddddddddddddddddddd",
"ddddddddddddddddddddddddi.ffbbbbbbbbbbbbbbbbbbbbbbbbbbbbbbbbbbff.cccccga.ihddddddddddddddddddddddddd",
"dddddddddddddddddddddddd#fffbibbbbbbbbbbbbbbbfbbbbbbbbbbbbbbbbff.ccccgga.#hddddddddddddddddddddddddd",
"dddddddddddddddddddddddd#ffbbbbbbbbbbbbbbbbbbbbbbbbbbbbbbbbbbbff.cccccga.ihddddddddddddddddddddddddd",
"ddddddddddddddddddddddddi.fbbbbbbbbbbbbbbbbbbibbbbbbffbbbbbbbbff.mccmkga.ihddddddddddddddddddddddddd",
"dddddddddddddddddddddddd#.fbbbbbbbbbbbbbbbbbbbbbbbbbbbbbbbbbbbff.ccccmga.#hddddddddddddddddddddddddd",
"dddddddddddddddddddddddd#.fbbbbbbbbbbbbbbbbbbbbbbbbbbbbbbbbbbbf..cccccga.#hddddddddddddddddddddddddd",
"dddddddddddddddddddddddd#ffbbbbbbbbbbbbbbbbbbbbbbbbbbbbbbbbbbbff.cccccgj.hhddddddddddddddddddddddddd",
"dddddddddddddddddddddddd#ffbbbbbbbbbbbbbbbbbbbbbbbbbbbbbbbbbbbff.cccccaj.hdddddddddddddddddddddddddd",
"dddddddddddddddddddddddd#ffbbbbbbbbbbbbbbbbbbbbbbbbbbbbbbbbbbbff.cccccaj.hdddddddddddddddddddddddddd",
"dddddddddddddddddddddddd#ffbbbbbbbbbbbbbbbbbbbbbbbbbbbbbbbbbbbff.cccccae.hdddddddddddddddddddddddddd",
"dddddddddddddddddddddddd#ffbbbbbbbbbbbbbbbbbbbbbbbbbbbbbbbbbbbff.cccccae.ddddddddddddddddddddddddddd",
"dddddddddddddddddddddddd#ffbbbbbbbbbbbbbbbbbbbbbbbbbbbbbbbbbbbf..cccccae.ddddddddddddddddddddddddddd",
"dddddddddddddddddddddddd#ffbbbbbbbbbbbbbbbbbbbbbbbbbbbbbbbbbbbf..cccccae.ddddddddddddddddddddddddddd",
"dddddddddddddddddddddddd#ffbbbbbbbbbbbbbbbbbbbbbbbbbbbbbbbbbbbf..cccccae.ddddddddddddddddddddddddddd",
"dddddddddddddddddddddddd#ffbbbbbbbbbbbbbbbbbbbbbbbbbbbbbbbbbbbf.mcccccaefddddddddddddddddddddddddddd",
"dddddddddddddddddddddddd#ffbbbbbbbbbbbbbbbbbbbbbbbbbbbbbbbbbbbf.mcccccaefddddddddddddddddddddddddddd",
"dddddddddddddddddddddddd#ffbbbbbbbbbbbbbbbbbbbbbbbbbbbbbbbbbbbf.mcccccaefddddddddddddddddddddddddddd",
"dddddddddddddddddddddddd#ffbbbbbbbbbbbbbbbbbbbbbbbbbbbbbbbbbbbf.mcccccaefddddddddddddddddddddddddddd",
"dddddddddddddddddddddddd#ffbbbbbbbbbbbbbbbbbbbbbbbbbbbbbbbbbbbf.mcccccajfddddddddddddddddddddddddddd",
"dddddddddddddddddddddddd#ffbbbbbbbbbbbbbbbbbbbbbbbbbbbbbbbbbbbf.mcccccgjfddddddddddddddddddddddddddd",
"dddddddddddddddddddddddd#ffbbbbbbbbbbbbbbbbbbbbbbbbbbbbbbbbbbbf.mcccccgjfddddddddddddddddddddddddddd",
"dddddddddddddddddddddddd#ffbbbbbbbbbbbbbbbbbbbbbbbbbbbbbbbbbbbf.mccmccgjfddddddddddddddddddddddddddd",
"dddddddddddddddddddddddd#ffbbbbbbbbbbbbbbbbbbbbbbbbbbbbbbbbbbbf.mcccccgjfddddddddddddddddddddddddddd",
"dddddddddddddddddddddddd#ffbbbbbbfbbbbbbbbbbbbbbbbbbbbbbbbbbbbf.mccccmgjfddddddddddddddddddddddddddd",
"dddddddddddddddddddddddd#ffbbbbbbffbbbbbbbbbbbbbbbbbbbbbbbbbbbf.mccccmgjfddddddddddddddddddddddddddd",
"dddddddddddddddddddddddd#ffbbbbbfffbbbbbbbbbbbbbbbbbbbbbbbbbbbf.mccccmgjfddddddddddddddddddddddddddd",
"dddddddddddddddddddddddd#ffbbbbbf.ffbbbbbbbbbbbbbbbbbbbbbbbbbbf.mcccccgjfddddddddddddddddddddddddddd",
"dddddddddddddddddddddddd#ffbbbbbf.ffbbbbbbbbbbbbbbbbbbbbbbbbbbf.mcccccgjfddddddddddddddddddddddddddd",
"dddddddddddddddddddddddd#ffbbbbbffffbbbbbbbbbbbbbbbbbbbbbbbbbbf.mcccccgafddddddddddddddddddddddddddd",
"dddddddddddddddddddddddd#ffbbbbbfffbbbbbbbbbbbbbbbbbbbbbbbbbbbf.mcccccgabddddddddddddddddddddddddddd",
"dddddddddddddddddddddddd#ffbbbbbbfbbbbbbbbbbbbbbbbbbbbbbbbbbbbf.mcccccgabddddddddddddddddddddddddddd",
"dddddddddddddddddddddddd#ffbbbbbbbbbbbbbbbbbbbbbbbbbbbbbbbbbbbf.mcccccgabddddddddddddddddddddddddddd",
"dddddddddddddddddddddddd#ffbbbbbbbbbbbbbbbbbbbbbbbbbbbbbbbbbbbf.mcccccgabddddddddddddddddddddddddddd",
"dddddddddddddddddddddddd#ffbbbbbbbbbbbbbbbbbbbbbbbbbbbbbbbbbbbf.mcccccggbddddddddddddddddddddddddddd",
"dddddddddddddddddddddddd#ffbbbbbbbbbbbbbbbbbbbbbbbbbbbbbbbbbbbfmmcccccggbddddddddddddddddddddddddddd",
"dddddddddddddddddddddddd#ffbbbbbbbbbbbbbbbbbbbbbbbbbbbbbbbbbbbfmmccccccgbddddddddddddddddddddddddddd",
"dddddddddddddddddddddddd#ffbbbbbbbbbbbbbbbbbbbbbbbbbbbbbbbbbbbfmmccccccgbddddddddddddddddddddddddddd",
"dddddddddddddddddddddddd#ffbbbbbbbbbbbbbbbbbbbbbbbbbbbbbbbbbbbfmmccccccgbddddddddddddddddddddddddddd",
"dddddddddddddddddddddddd#ffbbbbbbbbbbbbbbbbbbbbbbbbbbbbbbbbbbbfkmccccmcgbddddddddddddddddddddddddddd",
"dddddddddddddddddddddddd#ffbbbbbbbbbbbbbbbbbbbbbbbbbbbbbbbbbbbf.mcccc.cgbddddddddddddddddddddddddddd",
"dddddddddddddddddddddddd#ffbbbbbbbbbbbbbbbbbbbbbbbbbbbbbbbbbbbfkmccccmcgbddddddddddddddddddddddddddd",
"dddddddddddddddddddddddd#ffbbbbbbbbbbbbbbbbbbbbbbbbbbbbbbbbbbbfkmccccccciddddddddddddddddddddddddddd",
"dddddddddddddddddddddddd#ffbbbbbbbbbbbbbbbbbbbbbbbbbbbbbbbbff.cgcccccccciddddddddddddddddddddddddddd",
"dddddddddddddddddddddddd#ffbbbbbbbbbbbbbbbbbbbbbbbbbbbbfbbbfmgaagcckcccciddddddddddddddddddddddddddd",
"dddddddddddddddddddddddd#ffbbbbbbbbbbbbbbbbbbbbbbbbbbbff.mcgajjjaggccccciddddddddddddddddddddddddddd",
"dddddddddddddddddddddddd#ffbbbbbbbbbbbbbbbbbbbbbbbbbbbf.cajeeeeejagccccmiddddddddddddddddddddddddddd",
"dddddddddddddddddddddddd#ffbbbbbbbbbbbbbbbbbbbbbbbbbffmgajeeeeeeeejagcckiddddddddddddddddddddddddddd",
"dddddddddddddddddddddddd#ffbbbbbbbbbbbbbbbbbbbbbbbbbf.geelejeeeeelejagckiddddddddddddddddddddddddddd",
"dddddddddddddddddddddddd#ffbbbbbbbbbbbbbbbbbbbbbbbbbf.cajeeeeeeeelejjagmiddddddddddddddddddddddddddd",
"dddddddddddddddddddddddd#ffbbbbbbbbbbbbbbbbbbbbbbbbbff.cgajeeleeeeejjjgmiddddddddddddddddddddddddddd",
"dddddddddddddddddddddddd#ffbbbbbbbbbbbbbbbbbbbbbbbbbff.cccccgaaaagggajg.iddddddddddddddddddddddddddd",
"dddddddddddddddddddddddd#ffbbbbbbbbbbbbbbbbbbbbbbffbff.m.ffbf.mck...gjcf#ddddddddddddddddddddddddddd",
"dddddddddddddddddddddddd#ffbbbbbbbbbbbbbbbbbbbbbbii###bfffbiiiiiiibbmakbhddddddddddddddddddddddddddd",
"dddddddddddddddddddddddd#ffbbbbbbbbbbbbbbbbbbbbbi#hddd#ibfi#hdddddh#.gf#hddddddddddddddddddddddddddd",
"dddddddddddddddddddddddd#bbbbbbbbbbbbbbbbbbbii##hhddddh##i#hhddddhh#bfihhddddddddddddddddddddddddddd",
"dddddddddddddddddddddddd#bbbbbbbbbbbbbbfbbbi##hdddddddddhhhhhddddhh#hhhddddddddddddddddddddddddddddd",
"dddddddddddddddddddddddd#bbbbbbbbbbbbbbbii#hhhdddddddddddhhhddddddhhhhdddddddddddddddddddddddddddddd",
"dddddddddddddddddddddddd#bbbbbbbbffffbii#hhddddddddddddddddddddddddddddddddddddddddddddddddddddddddd",
"dddddddddddddddddddddddd#fffbbbbbbbbi##hhddddddddddddddddddddddddddddddddddddddddddddddddddddddddddd",
"dddddddddddddddddddddddd#ffffbbbbbi#hhdddddddddddddddddddddddddddddddddddddddddddddddddddddddddddddd",
"dddddddddddddddddddddddd#bffbbiii#hhhddddddddddddddddddddddddddddddddddddddddddddddddddddddddddddddd",
"dddddddddddddddddddddddd#bbbbi##hhdddddddddddddddddddddddddddddddddddddddddddddddddddddddddddddddddd",
"ddddddddddddddddddddddddh#ii##hhhddddddddddddddddddddddddddddddddddddddddddddddddddddddddddddddddddd",
"dddddddddddddddddddddddddhhhhhdddddddddddddddddddddddddddddddddddddddddddddddddddddddddddddddddddddd",
"dddddddddddddddddddddddddddddddddddddddddddddddddddddddddddddddddddddddddddddddddddddddddddddddddddd",
"dddddddddddddddddddddddddddddddddddddddddddddddddddddddddddddddddddddddddddddddddddddddddddddddddddd",
"dddddddddddddddddddddddddddddddddddddddddddddddddddddddddddddddddddddddddddddddddddddddddddddddddddd",
"dddddddddddddddddddddddddddddddddddddddddddddddddddddddddddddddddddddddddddddddddddddddddddddddddddd",
"dddddddddddddddddddddddddddddddddddddddddddddddddddddddddddddddddddddddddddddddddddddddddddddddddddd",
"dddddddddddddddddddddddddddddddddddddddddddddddddddddddddddddddddddddddddddddddddddddddddddddddddddd",
"dddddddddddddddddddddddddddddddddddddddddddddddddddddddddddddddddddddddddddddddddddddddddddddddddddd",
"dddddddddddddddddddddddddddddddddddddddddddddddddddddddddddddddddddddddddddddddddddddddddddddddddddd",
"dddddddddddddddddddddddddddddddddddddddddddddddddddddddddddddddddddddddddddddddddddddddddddddddddddd",
"dddddddddddddddddddddddddddddddddddddddddddddddddddddddddddddddddddddddddddddddddddddddddddddddddddd",
"dddddddddddddddddddddddddddddddddddddddddddddddddddddddddddddddddddddddddddddddddddddddddddddddddddd",
"dddddddddddddddddddddddddddddddddddddddddddddddddddddddddddddddddddddddddddddddddddddddddddddddddddd"
};
