/* XPM */
static char *DVY_Brick_2x4_xpm[] = {
/* width height num_colors chars_per_pixel */
"   100   100       16            1",
/* colors */
"` c #7e0000",
". c #ca8f8d",
"# c #a24e4f",
"a c #b60000",
"b c #7d2928",
"c c #ffd2d0",
"d c #c02a2c",
"e c #980000",
"f c #b97071",
"g c #ffafae",
"h c #ffffff",
"i c #cf7374",
"j c #e49695",
"k c #d82d31",
"l c #be5355",
"m c #993032",
/* pixels */
"hhhhhhhhhhhhhhhhhhhhhhhhhhhhhhhhhhhhhhhhhhhhhhhhhhhhhhhhhhhhhhhhhhhhhhhhhhhhhhhhhhhhhhhhhhhhhhhhhhhh",
"hhhhhhhhhhhhhhhhhhhhhhhhhhhhhhhhhhhhhhhhhhhhhhhhhhhhhhhhhhhhhhhhhhhhhhhhhhhhhhhhhhhhhhhhhhhhhhhhhhhh",
"hhhhhhhhhhhhhhhhhhhhhhhhhhhhhhhhhhhhhhhhhhhhhhhhhhhhhhhhhhhhhhhhhhhhhhhhhhhhhhhhhhhhhhhhhhhhhhhhhhhh",
"hhhhhhhhhhhhhhhhhhhhhhhhhhhhhhhhhhhhhhhhhhhhhhhhhhhhhhhhhhhhhhhhhhhhhhhhhhhhhhhhhhhhhhhhhhhhhhhhhhhh",
"hhhhhhhhhhhhhhhhhhhhhhhhhhhhhhhhhhhhhhhhhhhhhhhhhhhhhhhhhhhhhhhhhhhhhhhhhhhhhhhhhhhhhhhhhhhhhhhhhhhh",
"hhhhhhhhhhhhhhhhhhhhhhhhhhhhhhhhhhhhhhhhhhhhhhhhhhhhhhhhhhhhhhhhhhhhhhhhhhhhhhhhhhhhhhhhhhhhhhhhhhhh",
"hhhhhhhhhhhhhhhhhhhhhhhhhhhhhhhhhhhhhhhhhhhhhhhhhhhhhhhhhhhhhhhhhhhhhhhhhhhhhhhhhhhhhhhhhhhhhhhhhhhh",
"hhhhhhhhhhhhhhhhhhhhhhhhhhhhhhhhhhhhhhhhhhhhhhhhhhhhhhhhhhhhhhhhhhhhhhhhhhhhhhhhhhhhhhhhhhhhhhhhhhhh",
"hhhhhhhhhhhhhhhhhhhhhhhhhhhhhhhhhhhhhhhhhhhhhhhhhhhhhhhhhhhhhhhhhhhhhhhhhhhhhhhhhhhhhhhhhhhhhhhhhhhh",
"hhhhhhhhhhhhhhhhhhhhhhhhhhhhhhhhhhhhhhhhhhhhhhhhhhhhhhhhhhhhhhhhhhhhhhhhhhhhhhhhhhhhhhhhhhhhhhhhhhhh",
"hhhhhhhhhhhhhhhhhhhhhhhhhhhhhhhhhhhhhhhhhhhhhhhhhhhhhhhhhhhhhhhhhhhhhhhhhhhhhhhhhhhhhhhhhhhhhhhhhhhh",
"hhhhhhhhhhhhhhhhhhhhhhhhhhhhhhhhhhhhhhhhhhhhhhhhhhhhhhhhhhhhhhhhhhhhhhhhhhhhhhhhhhhhhhhhhhhhhhhhhhhh",
"hhhhhhhhhhhhhhhhhhhhhhhhhhhhhhhhhhhhhhhhhhhhhhhhhhhhhhhhhhhhhhhhhhhhhhhhhhhhhhhhhhhhhhhhhhhhhhhhhhhh",
"hhhhhhhhhhhhhhhhhhhhhhhhhhhhhhhhhhhhhhhhhhhhhhhhhhhhhhhhhhhhhhhhhhhhhhhhhhhhhhhhhhhhhhhhhhhhhhhhhhhh",
"hhhhhhhhhhhhhhhhhhhhhhhhhhhhhhhhhhhhhhhhhhhhhhhhhhhhhhhhhhhhhhhhhhhhhhhhhhhhhhhhhhhhhhhhhhhhhhhhhhhh",
"hhhhhhhhhhhhhhhhhhhhhhhhhhhhhhhhhhhhhhhhhhhhhhhhhhhhhhhhhhhhhhhhhhhhhhhhhhhhhhhhhhhhhhhhhhhhhhhhhhhh",
"hhhhhhhhhhhhhhhhhhhhhhhhhhhhhhhhhhhhhhhhhhhhhhhhhhhhhhhhhhhhhhhhhhhhhhhhhhhhhhhhhhhhhhhhhhhhhhhhhhhh",
"hhhhhhhhhhhhhhhhhhhhhhhhhhhhhhhhhhhhhhhhhhhhhhhhhhhhhhhhhhhhhhhhhhhhhhhhhhhhhhhhhhhhhhhhhhhhhhhhhhhh",
"hhhhhhhhhhhhhhhhhhhhhhhhhhhhhhhhhhhhhhhhhhhhhhhhhhhhhhhhhhhhhhhhhhhhhhhhhhhhhhhhhhhhhhhhhhhhhhhhhhhh",
"hhhhhhhhhhhhhhhhhhhhhhhhhhhhhhhhhhhhhhhhhhhhhhhhhhhhhhhhhhhhhhhhhhhhhhhhhhhhhhhhhhhhhhhhhhhhhhhhhhhh",
"hhhhhhhhhhhhhhhhhhhhhhhhhhhhhhhhhhhhhhhhhhhhhhhhhhhhhhhhhhhhhhhhhhhhhhhhhhhhhhhhhhhhhhhhhhhhhhhhhhhh",
"hhhhhhhhhhhhhhhhhhhhhhhhhhhhhhhhhhhhhhhhhhhhhhhhhhhhhhhhhhhhhhhhhhhhhhhhhhhhhhhhhhhhhhhhhhhhhhhhhhhh",
"hhhhhhhhhhhhhhhhhhhhhhhhhhhhhhhhhhhhhhhhhhhhhhhhhhhhhhhhhhhhhhccccchhhhhhhhhhhhhhhhhhhhhhhhhhhhhhhhh",
"hhhhhhhhhhhhhhhhhhhhhhhhhhhhhhhhhhhhhhhhhhhhhhhhhhhhhhhhhhhhhccgggchhhhhhhhhhhhhhhhhhhhhhhhhhhhhhhhh",
"hhhhhhhhhhhhhhhhhhhhhhhhhhhhhhhhhhhhhhhhhhhhhhhhhhhhhhhhhhcg.ffff#.jchhhhhhhhhhhhhhhhhhhhhhhhhhhhhhh",
"hhhhhhhhhhhhhhhhhhhhhhhhhhhhhhhhhhhhhhhhhhhhhhhhhhhhhhhhhhgf#bbbb`mfjhhhhhhhhhhhhhhhhhhhhhhhhhhhhhhh",
"hhhhhhhhhhhhhhhhhhhhhhhhhhhhhhhhhhhhhhhhhhhhhhhhhhhhhccgj.fmbbbb``bmf.chhhhhhhhhhhhhhhhhhhhhhhhhhhhh",
"hhhhhhhhhhhhhhhhhhhhhhhhhhhhhhhhhhhhhhhhhhhhhhhhhhhhccgi#b````eeee``bm.chhhhhhhhhhhhhhhhhhhhhhhhhhhh",
"hhhhhhhhhhhhhhhhhhhhhhhhhhhhhhhhhhhhhhhhhhhhhhhcccgj.f##b```eeeeeee`bb#fjchhhhhhhhhhhhhhhhhhhhhhhhhh",
"hhhhhhhhhhhhhhhhhhhhhhhhhhhhhhhhhhhhhhhhhhhhhhccg.f#b``````eeadddee```bbfgchhhhhhhhhhhhhhhhhhhhhhhhh",
"hhhhhhhhhhhhhhhhhhhhhhhhhhhhhhhhhhhhhhhhhhhhcg.ff##mb``````eeddddaee````mf.cchhhhhhhhhhhhhhhhhhhhhhh",
"hhhhhhhhhhhhhhhhhhhhhhhhhhhhhhhhhhhhhhhhhhhcjf#bbb````````eeaddkddee``````#.chhhhhhhhhhhhhhhhhhhhhhh",
"hhhhhhhhhhhhhhhhhhhhhhhhhhhhhhhhhhhhhhhccj.f#mb`eeeeee`````eeadddaee`````bm#fjchhhhhhhhhhhhhhhhhhhhh",
"hhhhhhhhhhhhhhhhhhhhhhhhhhhhhhhhhhhhhhccjfmb```eeeeeeee````eeeeaeeee```ebm``b#jhhhhhhhhhhhhhhhhhhhhh",
"hhhhhhhhhhhhhhhhhhhhhhhhhhhhhhhhcccgj.ff#mb```eeaaaaeee``````eeeee````eeeee`bmf.gchhhhhhhhhhhhhhhhhh",
"hhhhhhhhhhhhhhhhhhhhhhhhhhhhhhhhcj.i#mb``````eeadkddaee``````````````eeeeeeee`bm.cchhhhhhhhhhhhhhhhh",
"hhhhhhhhhhhhhhhhhhhhhhhhhhhhhhcj.f##mbb``````eeadkddaee``````````````eeeeaeee``b#fjchhhhhhhhhhhhhhhh",
"hhhhhhhhhhhhhhhhhhhhhhhhhhhhcc.f#bb``e`````eeeeadkkddee``````````e```eeadddaee```bfgchhhhhhhhhhhhhhh",
"hhhhhhhhhhhhhhhhhhhhhhhhccg..f#mb``eeee```````eeadaeee`````ee````````eeddddaeee```#fjchhhhhhhhhhhhhh",
"hhhhhhhhhhhhhhhhhhhhhhhccgi#b`````eeeeee`````````````````eeeee```````emdkkddaeee```bfcchhhhhhhhhhhhh",
"hhhhhhhhhhhhhhhhhhccgj..f#mbb```eeedddeee````````````````eeeeee``````eeedddaeeeeee`bfcchhhhhhhhhhhhh",
"hhhhhhhhhhhhhhhhhhcjf##bb``````eeadkdddee````````````````eeeeeee`````eeeeeeeeeeaeee`fcchhhhhhhhhhhhh",
"hhhhhhhhhhhhhhhcg.f##mmb```````eeadkdddee``````````````eeeaaaaeee```eeeeeeaaaaaaaeebicchhhhhhhhhhhhh",
"hhhhhhhhhhhhhhcg.#mbbbe`````````eddkddaee````e````````eeaaadaaaee``eeeeeeaaaaaaaaeemicchhhhhhhhhhhhh",
"hhhhhhhhhhhcg.ff#bb`eeeee```````eeedaeeee`eeeee```````eeeddkkdaeeeeeeeeeeaaaaaaaaaebicchhhhhhhhhhhhh",
"hhhhhhhhhhcjfbb````eeeeeee````````eeeeeeeeeeeeee``````eeedkkkkaeeeeeeeaaaaaaaaaaaaebicchhhhhhhhhhhhh",
"hhhhhhhhhhg.#bb``eeeadddeee````````eeee``eeeeeeeee``````eeadaaaeeeeeaaaaaaaaaaaaaeebichhhhhhhhhhhhhh",
"hhhhhhhhhhj#m```eeaadkkddee`````````ee```eeeeeeeeee``````eeeeeeeeeaaaaaaaaaaaaaaaeebichhhhhhhhhhhhhh",
"hhhhhhhhhhj#m`eeeeaadkdddee``````````````eeeeaaaeee```````eeeeeeaaaaaaaaaaaaaaaaaeebichhhhhhhhhhhhhh",
"hhhhhhhhhhjlmeeeeeaaddddaee``````````````eeeddddaeee``````eeeeaaaaaaaaaaaaaaaaaaaaeb.hhhhhhhhhhhhhhh",
"hhhhhhhhhhjlmeeeeeeeeeeeeee``eeee`````````eedkddaeeeeeeeeeeeaaaaaaaaaaaaaaaaaaaaaaeb.chhhhhhhhhhhhhh",
"hhhhhhhhhhjlmeeeeeeee``````eeeeeee````````eedkkddaeeeeeeaaaaaaaaaaaaaaaaaaaaaaaaaamm.chhhhhhhhhhhhhh",
"hhhhhhhhhhjlmeeeeeeee``````eeeeeeee```````eeeddaaaeeeeeaaaaaaaaaaaaaaaaaaaaaaaaaaemb.hhhhhhhhhhhhhhh",
"hhhhhhhhhhjlmeeeeeeee``````eeeeeeeee```````eeeeeeeaaaaaaaaaaaaaaaaaaaaaaaaaaaaaaeebb.hhhhhhhhhhhhhhh",
"hhhhhhhhhhjlmeeeeeeeeee```eeeeaaaaeee`````eeeeeeaaaaaaaaaaaaaaaaaaaaaaaaaaaaaaeemm#fjhhhhhhhhhhhhhhh",
"hhhhhhhhhhjlmeeeeeeeeeeee`eeadddddaee``eeeeeeeaaaaaaaaaaaaaaaaaaaaaaaaaaaaaaaeeemmfjchhhhhhhhhhhhhhh",
"hhhhhhhhhhjlmeeeeeeeeeeeeeeeaadkdddee`eeeeeeeaaaaaaaaaaaaaaaaaaaaaaaaaaaaeeeddlli.gcchhhhhhhhhhhhhhh",
"hhhhhhhhhhjfmeeeeeeeeeeeeeeeaadkkkdeeeeeeeaaaaaaaaaaaaaaaaaaaaaaaaaaaaaaeeeemligchhhhhhhhhhhhhhhhhhh",
"hhhhhhhhhhgfmeeeeeeeeeeeeeeeeeadddaeeeeeaaaaaaaaaaaaaaaaaaaaaaaaaaaaaaemm#li.jgcchhhhhhhhhhhhhhhhhhh",
"hhhhhhhhhhgimeeeeeeeeeeeeeeeeeeeeeeeeaaaaaaaaaaaaaaaaaaaaaaaaaaaaaaaaaeb#fjcchhhhhhhhhhhhhhhhhhhhhhh",
"hhhhhhhhhhgf#`eeeeeeeeeeeeeeeeeeeeeaaaaaaaaaaaaaaaaaaaaaaaaaaaaaeeaddlli.gcchhhhhhhhhhhhhhhhhhhhhhhh",
"hhhhhhhhhhgi#``eeeeeeeeeeeeeeeeeeaaaaaaaaaaaaaaaaaaaaaaaaaaaaaeeemmmligcchhhhhhhhhhhhhhhhhhhhhhhhhhh",
"hhhhhhhhhhcgfmmeeeeeeeeeeeeeeeeaaaaaaaaaaaaaaaaaaaaaaaaaaaaaeemm#li.jgcchhhhhhhhhhhhhhhhhhhhhhhhhhhh",
"hhhhhhhhhhhhjfm`eeeeeeeeeeeeeaaaaaaaaaaaaaaaaaaaaaaaaaaaaaaaeem#fjcchhhhhhhhhhhhhhhhhhhhhhhhhhhhhhhh",
"hhhhhhhhhhhhcji#meeeeeeeeeeeeaaaaaaaaaaaaaaaaaaaaaaaaaaeeeddli..gcchhhhhhhhhhhhhhhhhhhhhhhhhhhhhhhhh",
"hhhhhhhhhhhhhhgi#`eeeeeeeeeeeaaaaaaaaaaaaaaaaaaaaaaaaaeeebdljgchhhhhhhhhhhhhhhhhhhhhhhhhhhhhhhhhhhhh",
"hhhhhhhhhhhhhhcg.#meeeeeeeeeaaaaaaaaaaaaaaaaaaaaaaaaemm#li.jgcchhhhhhhhhhhhhhhhhhhhhhhhhhhhhhhhhhhhh",
"hhhhhhhhhhhhhhhhc.#beeeeeeaaaaaaaaaaaaaaaaaaaaaaaaeemmlijcchhhhhhhhhhhhhhhhhhhhhhhhhhhhhhhhhhhhhhhhh",
"hhhhhhhhhhhhhhhhcc.fmeeeeaeeaaaaaaaaaaaaaaaaaaaaaddlf.jgcchhhhhhhhhhhhhhhhhhhhhhhhhhhhhhhhhhhhhhhhhh",
"hhhhhhhhhhhhhhhhhhcgfbeeeaeeeaaaaaaaaaaaaaaaaaeemmijgchhhhhhhhhhhhhhhhhhhhhhhhhhhhhhhhhhhhhhhhhhhhhh",
"hhhhhhhhhhhhhhhhhhccjf#eeeeeaaaaaaaaaaaaaaeemmlli.gcchhhhhhhhhhhhhhhhhhhhhhhhhhhhhhhhhhhhhhhhhhhhhhh",
"hhhhhhhhhhhhhhhhhhhhccibeeeeaaaaaaaaaaaaaeebm#igchhhhhhhhhhhhhhhhhhhhhhhhhhhhhhhhhhhhhhhhhhhhhhhhhhh",
"hhhhhhhhhhhhhhhhhhhhhcgi#beeeaaaaaaaaaadddli.jgcchhhhhhhhhhhhhhhhhhhhhhhhhhhhhhhhhhhhhhhhhhhhhhhhhhh",
"hhhhhhhhhhhhhhhhhhhhhhcc.mbeeeeaaeaaeeem#ijcchhhhhhhhhhhhhhhhhhhhhhhhhhhhhhhhhhhhhhhhhhhhhhhhhhhhhhh",
"hhhhhhhhhhhhhhhhhhhhhhhcg.lmmeeeeeemdllijgcchhhhhhhhhhhhhhhhhhhhhhhhhhhhhhhhhhhhhhhhhhhhhhhhhhhhhhhh",
"hhhhhhhhhhhhhhhhhhhhhhhhhc.#meeeeemml.gchhhhhhhhhhhhhhhhhhhhhhhhhhhhhhhhhhhhhhhhhhhhhhhhhhhhhhhhhhhh",
"hhhhhhhhhhhhhhhhhhhhhhhhhhc.fmmm#li.jgchhhhhhhhhhhhhhhhhhhhhhhhhhhhhhhhhhhhhhhhhhhhhhhhhhhhhhhhhhhhh",
"hhhhhhhhhhhhhhhhhhhhhhhhhhhcjf##ijgchhhhhhhhhhhhhhhhhhhhhhhhhhhhhhhhhhhhhhhhhhhhhhhhhhhhhhhhhhhhhhhh",
"hhhhhhhhhhhhhhhhhhhhhhhhhhhhcjjjgcchhhhhhhhhhhhhhhhhhhhhhhhhhhhhhhhhhhhhhhhhhhhhhhhhhhhhhhhhhhhhhhhh",
"hhhhhhhhhhhhhhhhhhhhhhhhhhhhhhhhhhhhhhhhhhhhhhhhhhhhhhhhhhhhhhhhhhhhhhhhhhhhhhhhhhhhhhhhhhhhhhhhhhhh",
"hhhhhhhhhhhhhhhhhhhhhhhhhhhhhhhhhhhhhhhhhhhhhhhhhhhhhhhhhhhhhhhhhhhhhhhhhhhhhhhhhhhhhhhhhhhhhhhhhhhh",
"hhhhhhhhhhhhhhhhhhhhhhhhhhhhhhhhhhhhhhhhhhhhhhhhhhhhhhhhhhhhhhhhhhhhhhhhhhhhhhhhhhhhhhhhhhhhhhhhhhhh",
"hhhhhhhhhhhhhhhhhhhhhhhhhhhhhhhhhhhhhhhhhhhhhhhhhhhhhhhhhhhhhhhhhhhhhhhhhhhhhhhhhhhhhhhhhhhhhhhhhhhh",
"hhhhhhhhhhhhhhhhhhhhhhhhhhhhhhhhhhhhhhhhhhhhhhhhhhhhhhhhhhhhhhhhhhhhhhhhhhhhhhhhhhhhhhhhhhhhhhhhhhhh",
"hhhhhhhhhhhhhhhhhhhhhhhhhhhhhhhhhhhhhhhhhhhhhhhhhhhhhhhhhhhhhhhhhhhhhhhhhhhhhhhhhhhhhhhhhhhhhhhhhhhh",
"hhhhhhhhhhhhhhhhhhhhhhhhhhhhhhhhhhhhhhhhhhhhhhhhhhhhhhhhhhhhhhhhhhhhhhhhhhhhhhhhhhhhhhhhhhhhhhhhhhhh",
"hhhhhhhhhhhhhhhhhhhhhhhhhhhhhhhhhhhhhhhhhhhhhhhhhhhhhhhhhhhhhhhhhhhhhhhhhhhhhhhhhhhhhhhhhhhhhhhhhhhh",
"hhhhhhhhhhhhhhhhhhhhhhhhhhhhhhhhhhhhhhhhhhhhhhhhhhhhhhhhhhhhhhhhhhhhhhhhhhhhhhhhhhhhhhhhhhhhhhhhhhhh",
"hhhhhhhhhhhhhhhhhhhhhhhhhhhhhhhhhhhhhhhhhhhhhhhhhhhhhhhhhhhhhhhhhhhhhhhhhhhhhhhhhhhhhhhhhhhhhhhhhhhh",
"hhhhhhhhhhhhhhhhhhhhhhhhhhhhhhhhhhhhhhhhhhhhhhhhhhhhhhhhhhhhhhhhhhhhhhhhhhhhhhhhhhhhhhhhhhhhhhhhhhhh",
"hhhhhhhhhhhhhhhhhhhhhhhhhhhhhhhhhhhhhhhhhhhhhhhhhhhhhhhhhhhhhhhhhhhhhhhhhhhhhhhhhhhhhhhhhhhhhhhhhhhh",
"hhhhhhhhhhhhhhhhhhhhhhhhhhhhhhhhhhhhhhhhhhhhhhhhhhhhhhhhhhhhhhhhhhhhhhhhhhhhhhhhhhhhhhhhhhhhhhhhhhhh",
"hhhhhhhhhhhhhhhhhhhhhhhhhhhhhhhhhhhhhhhhhhhhhhhhhhhhhhhhhhhhhhhhhhhhhhhhhhhhhhhhhhhhhhhhhhhhhhhhhhhh",
"hhhhhhhhhhhhhhhhhhhhhhhhhhhhhhhhhhhhhhhhhhhhhhhhhhhhhhhhhhhhhhhhhhhhhhhhhhhhhhhhhhhhhhhhhhhhhhhhhhhh",
"hhhhhhhhhhhhhhhhhhhhhhhhhhhhhhhhhhhhhhhhhhhhhhhhhhhhhhhhhhhhhhhhhhhhhhhhhhhhhhhhhhhhhhhhhhhhhhhhhhhh",
"hhhhhhhhhhhhhhhhhhhhhhhhhhhhhhhhhhhhhhhhhhhhhhhhhhhhhhhhhhhhhhhhhhhhhhhhhhhhhhhhhhhhhhhhhhhhhhhhhhhh",
"hhhhhhhhhhhhhhhhhhhhhhhhhhhhhhhhhhhhhhhhhhhhhhhhhhhhhhhhhhhhhhhhhhhhhhhhhhhhhhhhhhhhhhhhhhhhhhhhhhhh",
"hhhhhhhhhhhhhhhhhhhhhhhhhhhhhhhhhhhhhhhhhhhhhhhhhhhhhhhhhhhhhhhhhhhhhhhhhhhhhhhhhhhhhhhhhhhhhhhhhhhh",
"hhhhhhhhhhhhhhhhhhhhhhhhhhhhhhhhhhhhhhhhhhhhhhhhhhhhhhhhhhhhhhhhhhhhhhhhhhhhhhhhhhhhhhhhhhhhhhhhhhhh",
"hhhhhhhhhhhhhhhhhhhhhhhhhhhhhhhhhhhhhhhhhhhhhhhhhhhhhhhhhhhhhhhhhhhhhhhhhhhhhhhhhhhhhhhhhhhhhhhhhhhh"
};
