/* XPM */
static char *DVY_Door_4x5_xpm[] = {
/* width height num_colors chars_per_pixel */
"   100   100       16            1",
/* colors */
"` c #900000",
". c #c98c8c",
"# c #964a4a",
"a c #b30000",
"b c #ffd1cf",
"c c #ca5455",
"d c #af3131",
"e c #8f2b2b",
"f c #ffb0ae",
"g c #b8706f",
"h c #cb7373",
"i c #ffffff",
"j c #ff9494",
"k c #b34d4e",
"l c #ec564c",
"m c #c63534",
/* pixels */
"iiiiiiiiiiiiiiiiiiiiiiiiiiiiiiiiiiiiiiiiiiiiiiiiiiiiiiiiiiiiiiiiiiiiiiiiiiiiiiiiiiiiiiiiiiiiiiiiiiii",
"iiiiiiiiiiiiiiiiiiiiiiiiiiiiiiiiiiiiiiiiiiiiiiiiiiiiiiiiiiiiiiiiiiiiiiiiiiiiiiiiiiiiiiiiiiiiiiiiiiii",
"iiiiiiiiiiiiiiiiiiiiiiiiiiiiiiiiiiiiiiiiiiiiiiiiiiiiiiiiiiiiiiiiiiiiiiiiiiiiiiiiiiiiiiiiiiiiiiiiiiii",
"iiiiiiiiiiiiiiiiiiiiiiiiiiiiiiiiiiiiiiiiiiiiiiiiiiiiiiiiiiiiiiiiiiiiiiiiiiiiiiiiiiiiiiiiiiiiiiiiiiii",
"iiiiiiiiiiiiiiiiiiiiiiiiiiiiiiiiiiiiiiiiiiiiiiiiiiiiiiiiiiiiiiiiiiiiiiiiiiiiiiiiiiiiiiiiiiiiiiiiiiii",
"iiiiiiiiiiiiiiiiiiiiiiiiiiiiiiiiiiiiiiiiiiiiiiiiiiiiiiiiiiiiiiiiiiiiiiiiiiiiiiiiiiiiiiiiiiiiiiiiiiii",
"iiiiiiiiiiiiiiiiiiiiiiiiiiiiiiiiiiiiiiiiiiiiiiiiiiiiiiiiiiiiiibbf...biiiiiiiiiiiiiiiiiiiiiiiiiiiiiii",
"iiiiiiiiiiiiiiiiiiiiiiiiiiiiiiiiiiiiiiiiiiiiiiiiiiiiiiiiiiiiibfjg#ee.iiiiiiiiiiiiiiiiiiiiiiiiiiiiiii",
"iiiiiiiiiiiiiiiiiiiiiiiiiiiiiiiiiiiiiiiiiiiiiiiiiiiiiiiiibbf..gk#eee.iiiiiiiiiiiiiiiiiiiiiiiiiiiiiii",
"iiiiiiiiiiiiiiiiiiiiiiiiiiiiiiiiiiiiiiiiiiiiiiiiiiiiiiiibb.g#ee```ee.iiiiiiiiiiiiiiiiiiiiiiiiiiiiiii",
"iiiiiiiiiiiiiiiiiiiiiiiiiiiiiiiiiiiiiiiiiiiiiiiiiiiibbf.hgckee````ee.iiiiiiiiiiiiiiiiiiiiiiiiiiiiiii",
"iiiiiiiiiiiiiiiiiiiiiiiiiiiiiiiiiiiiiiiiiiiiiiiiiiibfjgde````aaaaaee.biiiiiiiiiiiiiiiiiiiiiiiiiiiiii",
"iiiiiiiiiiiiiiiiiiiiiiiiiiiiiiiiiiiiiiiiiiiiiiibbf..gkdde`aaaaaaaaee.biiiiiiiiiiiiiiiiiiiiiiiiiiiiii",
"iiiiiiiiiiiiiiiiiiiiiiiiiiiiiiiiiiiiiiiiiiiiiibb.g#ee```aaaaaaaaaaee.iiiiiiiiiiiiiiiiiiiiiiiiiiiiiii",
"iiiiiiiiiiiiiiiiiiiiiiiiiiiiiiiiiiiiiiiiiibbf.hgkdee``aaaaaaaaaaaaee.iiiiiiiiiiiiiiiiiiiiiiiiiiiiiii",
"iiiiiiiiiiiiiiiiiiiiiiiiiiiiiiiiiiiiiiiiibf.cde``aaaaaaaaaaaaaaaa`ee.iiiiiiiiiiiiiiiiiiiiiiiiiiiiiii",
"iiiiiiiiiiiiiiiiiiiiiiiiiiiiiiiiiiiiibbf.hgkdda`aaaaaaaaaaamaaaaa`ee.iiiiiiiiiiiiiiiiiiiiiiiiiiiiiii",
"iiiiiiiiiiiiiiiiiiiiiiiiiiiiiiiiiiiibb.g#ee``aaaaaaaaaaa``dmdaaaa`e#.iiiiiiiiiiiiiiiiiiiiiiiiiiiiiii",
"iiiiiiiiiiiiiiiiiiiiiiiiiiiiiibbbff..hkdee`aaaaaaaaaaddkchhjcaaaaae#.iiiiiiiiiiiiiiiiiiiiiiiiiiiiiii",
"iiiiiiiiiiiiiiiiiiiiiiiiiiiiiibfjjcdeee``aaaaaaaaaaaeek.fbbbheaaaad#.iiiiiiiiiiiiiiiiiiiiiiiiiiiiiii",
"iiiiiiiiiiiiiiiiiiiiiiiiiiibf.hchhkee``aaaaaaaaaddmch..fbbbbheaaaad#.iiiiiiiiiiiiiiiiiiiiiiiiiiiiiii",
"iiiiiiiiiiiiiiiiiiiiiiiiiiib.#eedmd````aaaaaaaaadmhjbbiiiibbheaaaadk.iiiiiiiiiiiiiiiiiiiiiiiiiiiiiii",
"iiiiiiiiiiiiiiiiiiiiiiiiiifg#eeeede``````aeeddeek.fbbiiiiibbheaaaadk.iiiiiiiiiiiiiiiiiiiiiiiiiiiiiii",
"iiiiiiiiiiiiiiiiiiiiiiiiii.ee`eeaaa```````edddeehbbiiiiiiibbheaaaadk.iiiiiiiiiiiiiiiiiiiiiiiiiiiiiii",
"iiiiiiiiiiiiiiiiiiiiiiiiibge``edmmda````dch.hcdegbbiiiiiiibfheaaaadk.iiiiiiiiiiiiiiiiiiiiiiiiiiiiiii",
"iiiiiiiiiiiiiiiiiiiiiiiibbg```dmllma```ecfbbfhkegbbiiiiiiibfheaaaadkfiiiiiiiiiiiiiiiiiiiiiiiiiiiiiii",
"iiiiiiiiiiiiiiiiiiiiiiiibbg```edmmd```e#.bbbf.kegbbiiiiiiibjceaaaadkfiiiiiiiiiiiiiiiiiiiiiiiiiiiiiii",
"iiiiiiiiiiiiiiiiiiiiiiiibbg``````a````#gfiiif.kegbbiiiiiibfjcaaaaadgfiiiiiiiiiiiiiiiiiiiiiiiiiiiiiii",
"iiiiiiiiiiiiiiiiiiiiiiiibbh````````edkhfbiiif.#egbbiiibbf.hcdaaaaadgfiiiiiiiiiiiiiiiiiiiiiiiiiiiiiii",
"iiiiiiiiiiiiiiiiiiiiiiiibbhe``````edc.fiiiiifg#egbbiibf.geeeeaaaaadgfiiiiiiiiiiiiiiiiiiiiiiiiiiiiiii",
"iiiiiiiiiiiiiiiiiiiiiiiibbhe````edc..fbiiiiifg#egfff..gk#edddaaaaadgfiiiiiiiiiiiiiiiiiiiiiiiiiiiiiii",
"iiiiiiiiiiiiiiiiiiiiiiiibbhe`aaadcjiiiiiiiiifg#ecj.ckeeeeekcmaaaaadgfiiiiiiiiiiiiiiiiiiiiiiiiiiiiiii",
"iiiiiiiiiiiiiiiiiiiiiiiibbhe`aaadcfiiiiiiiiifg#edckk#dkgh..hkaaaaadgfiiiiiiiiiiiiiiiiiiiiiiiiiiiiiii",
"iiiiiiiiiiiiiiiiiiiiiiiibbhe````dhfiiiiiiiib.g#ee`eedkhfbbbfcaaaaakgfiiiiiiiiiiiiiiiiiiiiiiiiiiiiiii",
"iiiiiiiiiiiiiiiiiiiiiiiibbhe``aamhfiiiibbf..cde`ekch..fbbbbjceaaaakhfiiiiiiiiiiiiiiiiiiiiiiiiiiiiiii",
"iiiiiiiiiiiiiiiiiiiiiiiibbhe`aaamhfiiibbjgkee```khfbbiiiiibjceaaaakhfiiiiiiiiiiiiiiiiiiiiiiiiiiiiiii",
"iiiiiiiiiiiiiiiiiiiiiiiiibhe`aaamljbf..gk#dddde`cfbbiiiiiibjceaaaakhfiiiiiiiiiiiiiiiiiiiiiiiiiiiiiii",
"iiiiiiiiiiiiiiiiiiiiiiiiibhe`aaamlhfg#eeeeedmkdehbbiiiiiiibjceaaaak.fiiiiiiiiiiiiiiiiiiiiiiiiiiiiiii",
"iiiiiiiiiiiiiiiiiiiiiiiiibhe`aaadmkck###kh..hcdehbiiiiiiiibjceaaaak.fiiiiiiiiiiiiiiiiiiiiiiiiiiiiiii",
"iiiiiiiiiiiiiiiiiiiiiiiiibhe`aaaaaeeee#g.bbbfh#e.biiiiiiiibjc`aaaak.fiiiiiiiiiiiiiiiiiiiiiiiiiiiiiii",
"iiiiiiiiiiiiiiiiiiiiiiiiibhe`aaaaddkg..fbbbifg#e.biiiiiibbfhmaaaaak.biiiiiiiiiiiiiiiiiiiiiiiiiiiiiii",
"iiiiiiiiiiiiiiiiiiiiiiiiibhe`aaaadcjfbbiiiiifg#e.biiiiiibf.kmdaaaak.biiiiiiiiiiiiiiiiiiiiiiiiiiiiiii",
"iiiiiiiiiiiiiiiiiiiiiiiiibhe`aaadmhfbiiiiiiifg#e.bbibbf.hhkddaaaaak.biiiiiiiiiiiiiiiiiiiiiiiiiiiiiii",
"iiiiiiiiiiiiiiiiiiiiiiiiibhe`aaamlfiiiiiiiiifg#egbbbfjhdd``aaaaaaac.biiiiiiiiiiiiiiiiiiiiiiiiiiiiiii",
"iiiiiiiiiiiiiiiiiiiiiiiiibhe`aaamhfiiiiiiiiifg#egf..hcdddaaaaaaaaac.biiiiiiiiiiiiiiiiiiiiiiiiiiiiiii",
"iiiiiiiiiiiiiiiiiiiiiiiiibhe``aamhfiiiiiiiiifg#ekhkee``aaaaaammaaac.biiiiiiiiiiiiiiiiiiiiiiiiiiiiiii",
"iiiiiiiiiiiiiiiiiiiiiiiiibhe``aamhfiiiiiiibb.kdedmdaa`aaaaaaaaaaaacjbiiiiiiiiiiiiiiiiiiiiiiiiiiiiiii",
"iiiiiiiiiiiiiiiiiiiiiiiiibh``aaamhfiiiiiiibfhddaaaaaaaaaaaaaaaaaa`cfbiiiiiiiiiiiiiiiiiiiiiiiiiiiiiii",
"iiiiiiiiiiiiiiiiiiiiiiiiibh``aaamhfiiibbf.hckdaaaaaaaaaaaaaaaaaaa`cfbiiiiiiiiiiiiiiiiiiiiiiiiiiiiiii",
"iiiiiiiiiiiiiiiiiiiiiiiiibh``aaamhfiiibjgee``aaaaaaaaaaaaaaaaaaaa`cfbiiiiiiiiiiiiiiiiiiiiiiiiiiiiiii",
"iiiiiiiiiiiiiiiiiiiiiiiiibh``aaaml.f..hcdeeaaaaaaaaaaaaaaaaaaaaaa`cfbiiiiiiiiiiiiiiiiiiiiiiiiiiiiiii",
"iiiiiiiiiiiiiiiiiiiiiiiiibh``aaamcchkee`aaaaaaaaaaaaaaaaaaaaaaaaa`cfbiiiiiiiiiiiiiiiiiiiiiiiiiiiiiii",
"iiiiiiiiiiiiiiiiiiiiiiiiibh``aaadmmmdeaaaaaaaaaaaaaaaaaaaaaaaaaaa`cfbiiiiiiiiiiiiiiiiiiiiiiiiiiiiiii",
"iiiiiiiiiiiiiiiiiiiiiiiiibh``aaaaaaaaaaaaaaaaaaaaaaaaaaaaaaaaaaaa`gfbiiiiiiiiiiiiiiiiiiiiiiiiiiiiiii",
"iiiiiiiiiiiiiiiiiiiiiiiiibh``aaaaaaaaaaaaaaaaaaaaaaaaaaaaaaaaaaaa`hfbiiiiiiiiiiiiiiiiiiiiiiiiiiiiiii",
"iiiiiiiiiiiiiiiiiiiiiiiiibh``aaaaaaaaaaaaaaaaaaaaaaaaaaaaaaaaaaaa`hbbiiiiiiiiiiiiiiiiiiiiiiiiiiiiiii",
"iiiiiiiiiiiiiiiiiiiiiiiiibh``aaaaaaaaaaaaaaaaaaaaaaaaaaaaaaaaaaaa`hbbiiiiiiiiiiiiiiiiiiiiiiiiiiiiiii",
"iiiiiiiiiiiiiiiiiiiiiiiiibhe`aaaaaaaaaaaaaaaaaaaaaaaaaaaaaaaaaaaa`hbbiiiiiiiiiiiiiiiiiiiiiiiiiiiiiii",
"iiiiiiiiiiiiiiiiiiiiiiiiibhe`aaaaaaaaaaaaaaaaaaaaaaaaaaaaaaaaaaaa`hbbiiiiiiiiiiiiiiiiiiiiiiiiiiiiiii",
"iiiiiiiiiiiiiiiiiiiiiiiiibhe`aaaaaaaaaaaaaaaaaaaaaaaaaaaaaaaaaaaa`hbbiiiiiiiiiiiiiiiiiiiiiiiiiiiiiii",
"iiiiiiiiiiiiiiiiiiiiiiiiibhe`aaaaaaaaaaaaaaaaaaaaaaaaaaaaaaaaaaaa`hbbiiiiiiiiiiiiiiiiiiiiiiiiiiiiiii",
"iiiiiiiiiiiiiiiiiiiiiiiiibhe`aaaaaaaaaaaaaaaaaaaaaaaaaaaaaaaaaaaa`hbbiiiiiiiiiiiiiiiiiiiiiiiiiiiiiii",
"iiiiiiiiiiiiiiiiiiiiiiiiibh``aaaaaaaaaaaaaaaaaaaaaaaaaaaaaaaaaaaaehbiiiiiiiiiiiiiiiiiiiiiiiiiiiiiiii",
"iiiiiiiiiiiiiiiiiiiiiiiiiih``aaaaaaaaaaaaaaaaaaaaaaaaaaaaaaaaaaaaehbiiiiiiiiiiiiiiiiiiiiiiiiiiiiiiii",
"iiiiiiiiiiiiiiiiiiiiiiiiiih``aaaaaaaaaaaaaaaaaaaaaaaaaaaaaaaaaaaaehbiiiiiiiiiiiiiiiiiiiiiiiiiiiiiiii",
"iiiiiiiiiiiiiiiiiiiiiiiiiih``aaaaaaaaaaaaaaaaaaaaaaaaaaaaaaaaaaa``hbiiiiiiiiiiiiiiiiiiiiiiiiiiiiiiii",
"iiiiiiiiiiiiiiiiiiiiiiiiiih``aaaaaaaaaaaaaaaaaaaaaaaaaaaaaaaaaaaee.iiiiiiiiiiiiiiiiiiiiiiiiiiiiiiiii",
"iiiiiiiiiiiiiiiiiiiiiiiiiih``aaaaaaaaaaaaaaaaaaaaaaaaaaaaaaaaaa`e#.iiiiiiiiiiiiiiiiiiiiiiiiiiiiiiiii",
"iiiiiiiiiiiiiiiiiiiiiiiiii.``aaaaaaaaaaaaaaaaaaaaaaaaaaaaaaaddkch.biiiiiiiiiiiiiiiiiiiiiiiiiiiiiiiii",
"iiiiiiiiiiiiiiiiiiiiiiiiii.e`aaaaaaaaaaaaaaaaaaaaaaaaaaaa``edkhfbiiiiiiiiiiiiiiiiiiiiiiiiiiiiiiiiiii",
"iiiiiiiiiiiiiiiiiiiiiiiiii.e`aaaaaaaaaaaaaaaaaaaaaaaaaaaddkh..fbbiiiiiiiiiiiiiiiiiiiiiiiiiiiiiiiiiii",
"iiiiiiiiiiiiiiiiiiiiiiiiii.e`aaaaaaaaaaaaaaaaaaaaaaaaa`edcjbbiiiiiiiiiiiiiiiiiiiiiiiiiiiiiiiiiiiiiii",
"iiiiiiiiiiiiiiiiiiiiiiiiii.e`aaaaaaaaaaaaaaaaaaaaaaddkch.fbbbiiiiiiiiiiiiiiiiiiiiiiiiiiiiiiiiiiiiiii",
"iiiiiiiiiiiiiiiiiiiiiiiiii.e`aaaaaaaaaaaaaaaaaaa``edkhfbbiiiiiiiiiiiiiiiiiiiiiiiiiiiiiiiiiiiiiiiiiii",
"iiiiiiiiiiiiiiiiiiiiiiiiii.``aaaaaaaaaaaaaaaaaeddkh..fbbiiiiiiiiiiiiiiiiiiiiiiiiiiiiiiiiiiiiiiiiiiii",
"iiiiiiiiiiiiiiiiiiiiiiiiii.``aaaaaaaaaaaaaaaaeedg.fbiiiiiiiiiiiiiiiiiiiiiiiiiiiiiiiiiiiiiiiiiiiiiiii",
"iiiiiiiiiiiiiiiiiiiiiiiiii.``aaaaaaaaaaaaaddmch.fbbiiiiiiiiiiiiiiiiiiiiiiiiiiiiiiiiiiiiiiiiiiiiiiiii",
"iiiiiiiiiiiiiiiiiiiiiiiiii.``aaaaaaaaaaaa`dchfbiiiiiiiiiiiiiiiiiiiiiiiiiiiiiiiiiiiiiiiiiiiiiiiiiiiii",
"iiiiiiiiiiiiiiiiiiiiiiiiii.``aaaaaaaaaddch.jfbbiiiiiiiiiiiiiiiiiiiiiiiiiiiiiiiiiiiiiiiiiiiiiiiiiiiii",
"iiiiiiiiiiiiiiiiiiiiiiiiiih``aaaaaaa`edgjbbiiiiiiiiiiiiiiiiiiiiiiiiiiiiiiiiiiiiiiiiiiiiiiiiiiiiiiiii",
"iiiiiiiiiiiiiiiiiiiiiiiiiih``aaaaaa`dkhfbbbiiiiiiiiiiiiiiiiiiiiiiiiiiiiiiiiiiiiiiiiiiiiiiiiiiiiiiiii",
"iiiiiiiiiiiiiiiiiiiiiiiiiih``aaaa```mhfiiiiiiiiiiiiiiiiiiiiiiiiiiiiiiiiiiiiiiiiiiiiiiiiiiiiiiiiiiiii",
"iiiiiiiiiiiiiiiiiiiiiiiiiih``a``````ek.bbiiiiiiiiiiiiiiiiiiiiiiiiiiiiiiiiiiiiiiiiiiiiiiiiiiiiiiiiiii",
"iiiiiiiiiiiiiiiiiiiiiiiiiih```````````kfbiiiiiiiiiiiiiiiiiiiiiiiiiiiiiiiiiiiiiiiiiiiiiiiiiiiiiiiiiii",
"iiiiiiiiiiiiiiiiiiiiiiiiii.```````````#.biiiiiiiiiiiiiiiiiiiiiiiiiiiiiiiiiiiiiiiiiiiiiiiiiiiiiiiiiii",
"iiiiiiiiiiiiiiiiiiiiiiiiii.e``````````#gfiiiiiiiiiiiiiiiiiiiiiiiiiiiiiiiiiiiiiiiiiiiiiiiiiiiiiiiiiii",
"iiiiiiiiiiiiiiiiiiiiiiiiii.e``````````#gfiiiiiiiiiiiiiiiiiiiiiiiiiiiiiiiiiiiiiiiiiiiiiiiiiiiiiiiiiii",
"iiiiiiiiiiiiiiiiiiiiiiiiii.e``````````#gfiiiiiiiiiiiiiiiiiiiiiiiiiiiiiiiiiiiiiiiiiiiiiiiiiiiiiiiiiii",
"iiiiiiiiiiiiiiiiiiiiiiiiii.ee`````````#.biiiiiiiiiiiiiiiiiiiiiiiiiiiiiiiiiiiiiiiiiiiiiiiiiiiiiiiiiii",
"iiiiiiiiiiiiiiiiiiiiiiiiii.ee`````eeee#.biiiiiiiiiiiiiiiiiiiiiiiiiiiiiiiiiiiiiiiiiiiiiiiiiiiiiiiiiii",
"iiiiiiiiiiiiiiiiiiiiiiiiiif.#ee````ee#.bbiiiiiiiiiiiiiiiiiiiiiiiiiiiiiiiiiiiiiiiiiiiiiiiiiiiiiiiiiii",
"iiiiiiiiiiiiiiiiiiiiiiiiiibbheeee``ekhfiiiiiiiiiiiiiiiiiiiiiiiiiiiiiiiiiiiiiiiiiiiiiiiiiiiiiiiiiiiii",
"iiiiiiiiiiiiiiiiiiiiiiiiiiibfhkddkch.fbiiiiiiiiiiiiiiiiiiiiiiiiiiiiiiiiiiiiiiiiiiiiiiiiiiiiiiiiiiiii",
"iiiiiiiiiiiiiiiiiiiiiiiiiiiibb.#chfbbiiiiiiiiiiiiiiiiiiiiiiiiiiiiiiiiiiiiiiiiiiiiiiiiiiiiiiiiiiiiiii",
"iiiiiiiiiiiiiiiiiiiiiiiiiiiiibb.ffbbiiiiiiiiiiiiiiiiiiiiiiiiiiiiiiiiiiiiiiiiiiiiiiiiiiiiiiiiiiiiiiii",
"iiiiiiiiiiiiiiiiiiiiiiiiiiiiiiiiiiiiiiiiiiiiiiiiiiiiiiiiiiiiiiiiiiiiiiiiiiiiiiiiiiiiiiiiiiiiiiiiiiii",
"iiiiiiiiiiiiiiiiiiiiiiiiiiiiiiiiiiiiiiiiiiiiiiiiiiiiiiiiiiiiiiiiiiiiiiiiiiiiiiiiiiiiiiiiiiiiiiiiiiii",
"iiiiiiiiiiiiiiiiiiiiiiiiiiiiiiiiiiiiiiiiiiiiiiiiiiiiiiiiiiiiiiiiiiiiiiiiiiiiiiiiiiiiiiiiiiiiiiiiiiii",
"iiiiiiiiiiiiiiiiiiiiiiiiiiiiiiiiiiiiiiiiiiiiiiiiiiiiiiiiiiiiiiiiiiiiiiiiiiiiiiiiiiiiiiiiiiiiiiiiiiii",
"iiiiiiiiiiiiiiiiiiiiiiiiiiiiiiiiiiiiiiiiiiiiiiiiiiiiiiiiiiiiiiiiiiiiiiiiiiiiiiiiiiiiiiiiiiiiiiiiiiii"
};
