/* XPM */
static char *DVY_WindowWallElement_2x2_xpm[] = {
/* width height num_colors chars_per_pixel */
"   100   100       16            1",
/* colors */
"` c #760000",
". c #c98f8f",
"# c #964d4e",
"a c #b60000",
"b c #8e2e31",
"c c #ffd1d0",
"d c #ca5657",
"e c #b63233",
"f c #950000",
"g c #ffaeae",
"h c #b57271",
"i c #cc6f70",
"j c #ffffff",
"k c #e49494",
"l c #e22b2c",
"m c #b34f50",
/* pixels */
"jjjjjjjjjjjjjjjjjjjjjjjjjjjjjjjjjjjjjjjjjjjjjjjjjjjjjjjjjjjjjjjjjjjjjjjjjjjjjjjjjjjjjjjjjjjjjjjjjjjj",
"jjjjjjjjjjjjjjjjjjjjjjjjjjjjjjjjjjjjjjjjjjjjjjjjjjjjjjjjjjjjjjjjjjjjjjjjjjjjjjjjjjjjjjjjjjjjjjjjjjjj",
"jjjjjjjjjjjjjjjjjjjjjjjjjjjjjjjjjjjjjjjjjjjjjjjjjjjjjjjjjjjjjjjjjjjjjjjjjjjjjjjjjjjjjjjjjjjjjjjjjjjj",
"jjjjjjjjjjjjjjjjjjjjjjjjjjjjjjjjjjjjjjjjjjjjjjjjjjjjjjjjjjjjjjjjjjjjjjjjjjjjjjjjjjjjjjjjjjjjjjjjjjjj",
"jjjjjjjjjjjjjjjjjjjjjjjjjjjjjjjjjjjjjjjjjjjjjjjjjjjjjjjjjjjjjjjjjjjjjjjjjjjjjjjjjjjjjjjjjjjjjjjjjjjj",
"jjjjjjjjjjjjjjjjjjjjjjjjjjjjjjjjjjjjjjjjjjjjjjjjjjjjjjjjjjjjjjjjjjjjjjjjjjjjjjjjjjjjjjjjjjjjjjjjjjjj",
"jjjjjjjjjjjjjjjjjjjjjjjjjjjjjjjjjjjjjjjjjjjjjjjjjjjjjjjjjjjjjjjjjjjjjjjjjjjjjjjjjjjjjjjjjjjjjjjjjjjj",
"jjjjjjjjjjjjjjjjjjjjjjjjjjjjjjjjjjjjjjjjjjjjjjjjjjjjjjjjjjjjjjjjjjjjjjjjjjjjjjjjjjjjjjjjjjjjjjjjjjjj",
"jjjjjjjjjjjjjjjjjjjjjjjjjjjjjjjjjjjjjjjjjjjjjjjjjjjjjjjjjjjjjjjjjjjjjjjjjjjjjjjjjjjjjjjjjjjjjjjjjjjj",
"jjjjjjjjjjjjjjjjjjjjjjjjjjjjjjjjjjjjjjjjjjjjjjjjjjjjjjjjjjjjjjjjjjjjjjjjjjjjjjjjjjjjjjjjjjjjjjjjjjjj",
"jjjjjjjjjjjjjjjjjjjjjjjjjjjjjjjjjjjjjjjjjjjjjjjjjjjjjjccgkkk.h..cjjjjjjjjjjjjjjjjjjjjjjjjjjjjjjjjjjj",
"jjjjjjjjjjjjjjjjjjjjjjjjjjjjjjjjjjjjjjjjjjjjjjjjjjjjjjg.hmmmb`b#.cjjjjjjjjjjjjjjjjjjjjjjjjjjjjjjjjjj",
"jjjjjjjjjjjjjjjjjjjjjjjjjjjjjjjjjjjjjjjjjjjjjjjjjjjcg.hm#bbbb`bb#.gcjjjjjjjjjjjjjjjjjjjjjjjjjjjjjjjj",
"jjjjjjjjjjjjjjjjjjjjjjjjjjjjjjjjjjjjjjjjjjjjjjjjjjcc.bb```fff````bhccjjjjjjjjjjjjjjjjjjjjjjjjjjjjjjj",
"jjjjjjjjjjjjjjjjjjjjjjjjjjjjjjjjjjjjjjjjjjjjjjjccg.h#````fffff````#h.ccjjjjjjjjjjjjjjjjjjjjjjjjjjjjj",
"jjjjjjjjjjjjjjjjjjjjjjjjjjjjjjjjjjjjjjjjjjjjjjcckh#b```fffffffff````#kcjjjjjjjjjjjjjjjjjjjjjjjjjjjjj",
"jjjjjjjjjjjjjjjjjjjjjjjjjjjjjjjjjjjjjjjjjjccg..h#bb````ffffffffff```b#.gcjjjjjjjjjjjjjjjjjjjjjjjjjjj",
"jjjjjjjjjjjjjjjjjjjjjjjjjjjjjjjjjjjjjjjjjjckh#b```````fffffafffaff````#hgjjjjjjjjjjjjjjjjjjjjjjjjjjj",
"jjjjjjjjjjjjjjjjjjjjjjjjjjjjjjjjjjjjcccg..h##b``````fffffffaaaaaff````b#h.cjjjjjjjjjjjjjjjjjjjjjjjjj",
"jjjjjjjjjjjjjjjjjjjjjjjjjjjjjjjjjjcccckh#b`````````fffffffaaaaaaff``````b#.cjjjjjjjjjjjjjjjjjjjjjjjj",
"jjjjjjjjjjjjjjjjjjjjjjjjjjjjjjcck..hhhm#b`````````ffffaaeelllaaafff``````bm.gcjjjjjjjjjjjjjjjjjjjjjj",
"jjjjjjjjjjjjjjjjjjjjjjjjjjjjjjg.hbb````````````fffffffaelllllllaaff```````bbhccjjjjjjjjjjjjjjjjjjjjj",
"jjjjjjjjjjjjjjjjjjjjjjjjjjjjcgh#bbb``````````````fffffallllllllaaff````````bmkcjjjjjjjjjjjjjjjjjjjjj",
"jjjjjjjjjjjjjjjjjjjjjjjjjjcckh#``````fff``````````ffffaallllllaaafffff```fffedgjjjjjjjjjjjjjjjjjjjjj",
"jjjjjjjjjjjjjjjjjjjjjjjcck.hmbb```fffffffff``````fffffaaallllaaaffffffffffffedkjjjjjjjjjjjjjjjjjjjjj",
"jjjjjjjjjjjjjjjjjjjjjjcc.hb`````fffffffffff`````fffeafffaaalaaafffffffaaaaffedkjjjjjjjjjjjjjjjjjjjjj",
"jjjjjjjjjjjjjjjjjjccg.hh#bb````ffffffffffff`````ffbeefffffaaaafffffaaaaaaaffedkjjjjjjjjjjjjjjjjjjjjj",
"jjjjjjjjjjjjjjjjjjckhbb```````ffffffffffffff````ffbeeefff`ffffffffaaaaaaaffaedgjjjjjjjjjjjjjjjjjjjjj",
"jjjjjjjjjjjjjjjjjjgh#b````````fffaaaaeaaffff````ffedeefff`ffffffffaaaaaaaaafedgjjjjjjjjjjjjjjjjjjjjj",
"jjjjjjjjjjjjjjjjjj.bb````````ffaaaelleeaaaff````fbedeef```fffffbfffaaaaaaaafeigjjjjjjjjjjjjjjjjjjjjj",
"jjjjjjjjjjjjjjjjjj.#b````````ffaaallllllaafff````fbeefffffffffbemdmeeaaaaaafeigjjjjjjjjjjjjjjjjjjjjj",
"jjjjjjjjjjjjjjjjjjkmb``fff``fffaalllllllaafff```````ffffffffbb#m.gkdefaaaaafeigjjjjjjjjjjjjjjjjjjjjj",
"jjjjjjjjjjjjjjjjjjckh#b`fff`fffaalllllllaaaff``````ffffffbemdi.kgckdefaaaaafeigjjjjjjjjjjjjjjjjjjjjj",
"jjjjjjjjjjjjjjjjjjjjgi#``fffffffallllllllaaff`````fffbbfbbmikccjjjgiefaaaaffeigjjjjjjjjjjjjjjjjjjjjj",
"jjjjjjjjjjjjjjjjjjjjcghmb``ffffffaaellaaafffffffffffbemdi.kgccjjjjgdefaaaaffmigjjjjjjjjjjjjjjjjjjjjj",
"jjjjjjjjjjjjjjjjjjjjjjg.mb`ffffffffffffffffffaaafffbbmikccjjjjjjjjkdeeaaaaafmkgjjjjjjjjjjjjjjjjjjjjj",
"jjjjjjjjjjjjjjjjjjjjjjcc.hefffffffffffffffffffffeedi.kgccjjjjjjjjjkdeeaaaaafmigjjjjjjjjjjjjjjjjjjjjj",
"jjjjjjjjjjjjjjjjjjjjjjjjcgibfffff`````fffaaaffffedkgcjjjjjjjjjjjjjgdeeaaaaafmigjjjjjjjjjjjjjjjjjjjjj",
"jjjjjjjjjjjjjjjjjjjjjjjjcckiefffffffffffffffemdikggccjjjjjjjjjjjjjkdeaaaaaffmigjjjjjjjjjjjjjjjjjjjjj",
"jjjjjjjjjjjjjjjjjjjjjjjjjjcgdffffffffaaaaffbmigccjjjjjjjjjjjjjjjjjkmeaaaaaffm.gjjjjjjjjjjjjjjjjjjjjj",
"jjjjjjjjjjjjjjjjjjjjjjjjjjcciffffaafaaaaffem.gcjjjjjjjjjjjjjjjjjjjkmeeaaaaffmkgjjjjjjjjjjjjjjjjjjjjj",
"jjjjjjjjjjjjjjjjjjjjjjjjjjjci`ffaaaaaaaaffmkgjjjjjjjjjjjjjjjjjjjjjkdeeaaaaffmkcjjjjjjjjjjjjjjjjjjjjj",
"jjjjjjjjjjjjjjjjjjjjjjjjjjcci`ffaaaaaaaaabigcjjjjjjjjjjjjjjjjjjjjjkmeaaaaaffmkcjjjjjjjjjjjjjjjjjjjjj",
"jjjjjjjjjjjjjjjjjjjjjjjjjjcch`ffaaaaaaaaee.jjjjjjjjjjjjjjjjjjjjjjjkmeaaaaaafmkcjjjjjjjjjjjjjjjjjjjjj",
"jjjjjjjjjjjjjjjjjjjjjjjjjjjch`ffaaaaaaaaemkjjjjjjjjjjjjjjjjjjjjjjjkmeaaaaaffdkcjjjjjjjjjjjjjjjjjjjjj",
"jjjjjjjjjjjjjjjjjjjjjjjjjjjch``ffaaaaaaaedkjjjjjjjjjjjjjjjjjjjjjjjkmeaaaaaffdkcjjjjjjjjjjjjjjjjjjjjj",
"jjjjjjjjjjjjjjjjjjjjjjjjjjjch`ffaaaaaaaaedkjjjjjjjjjjjjjjjjjjjjjjjkmeaaaaaffdkcjjjjjjjjjjjjjjjjjjjjj",
"jjjjjjjjjjjjjjjjjjjjjjjjjjjch`ffaaaaaaaaedkjjjjjjjjjjjjjjjjjjjjjjjkeeaaaaaffdkcjjjjjjjjjjjjjjjjjjjjj",
"jjjjjjjjjjjjjjjjjjjjjjjjjjjch`ffaaaaaaaaedkjjjjjjjjjjjjjjjjjjjjjjjkmeaaaaaffdkcjjjjjjjjjjjjjjjjjjjjj",
"jjjjjjjjjjjjjjjjjjjjjjjjjjjch`fffaaaaaaaedkjjjjjjjjjjjjjjjjjjjjjjjkmeaaaaaffdgcjjjjjjjjjjjjjjjjjjjjj",
"jjjjjjjjjjjjjjjjjjjjjjjjjjjch`ffaaaaaaaaedkjjjjjjjjjjjjjjjjjjjjjjjkeeaaaaaffdgcjjjjjjjjjjjjjjjjjjjjj",
"jjjjjjjjjjjjjjjjjjjjjjjjjjjch`ffaaaaaaaaedkjjjjjjjjjjjjjjjjjjjjjjj.eeaaaaaffdgcjjjjjjjjjjjjjjjjjjjjj",
"jjjjjjjjjjjjjjjjjjjjjjjjjjjch`ffaaaaaaaaedgjjjjjjjjjjjjjjjjjccjjjj.eeaaaaaffdgcjjjjjjjjjjjjjjjjjjjjj",
"jjjjjjjjjjjjjjjjjjjjjjjjjjjch`ffaaaaaaaaedgjjjjjjjjjjjjjjjjccgcjjjkeeaaaaaffdgcjjjjjjjjjjjjjjjjjjjjj",
"jjjjjjjjjjjjjjjjjjjjjjjjjjjch`ffaaaaaaaaedgjjjjjjjjjjjjcck.hh#.kcc.beeaaaaffdgcjjjjjjjjjjjjjjjjjjjjj",
"jjjjjjjjjjjjjjjjjjjjjjjjjjjch`ffaaaaaaafeigjjjjjjjjjjjcc.mb```bhkcifaeaaaaffdgcjjjjjjjjjjjjjjjjjjjjj",
"jjjjjjjjjjjjjjjjjjjjjjjjjjjch`ffaaaaaaafedgjjjjjjjccg.hh#bb```bbmimfeeaaaaffigcjjjjjjjjjjjjjjjjjjjjj",
"jjjjjjjjjjjjjjjjjjjjjjjjjjjch`ffaaaaaaafeigjjjjjjjc.hbb``````````ebaelaaafffigcjjjjjjjjjjjjjjjjjjjjj",
"jjjjjjjjjjjjjjjjjjjjjjjjjjcch`ffaaaaaaafeigjjjcg..h#bb``````````fbaaalaaaaffigcjjjjjjjjjjjjjjjjjjjjj",
"jjjjjjjjjjjjjjjjjjjjjjjjjjcch`ffaaaaaaffeigcccghmb``````````````ffaallaaaaffigcjjjjjjjjjjjjjjjjjjjjj",
"jjjjjjjjjjjjjjjjjjjjjjjjjjcch`ffaaaaaaafedik.hm#b``````````````fffaaaaaaaafficcjjjjjjjjjjjjjjjjjjjjj",
"jjjjjjjjjjjjjjjjjjjjjjjjjjcch`ffaaaaaaafemmhb```````````````fffffaaaaaaaaafficcjjjjjjjjjjjjjjjjjjjjj",
"jjjjjjjjjjjjjjjjjjjjjjjjjjcch`ffaaaaaaafbbbbb````````````fffffffaaaaaaaaaafficcjjjjjjjjjjjjjjjjjjjjj",
"jjjjjjjjjjjjjjjjjjjjjjjjjjcch`ffaaaaaaafff``````````````ffffffaaaaaaaaaaaafficcjjjjjjjjjjjjjjjjjjjjj",
"jjjjjjjjjjjjjjjjjjjjjjjjjjcch`ffaaaaaaaaff````````````ffffffaaaaaaaaaaaaaafficcjjjjjjjjjjjjjjjjjjjjj",
"jjjjjjjjjjjjjjjjjjjjjjjjjjcci`ffaaaaaaaafff``````````fffffaaaaaaaaaaaaaaaafficcjjjjjjjjjjjjjjjjjjjjj",
"jjjjjjjjjjjjjjjjjjjjjjjjjjcgd`ffaaaaaaaafff```````fffffffaaaaaaaaaaaaaaaaafficjjjjjjjjjjjjjjjjjjjjjj",
"jjjjjjjjjjjjjjjjjjjjjjjjjjcgdfffaaaaaaaaff```````ffffaaaaaaaaaaaaaaaaaaaaafbicjjjjjjjjjjjjjjjjjjjjjj",
"jjjjjjjjjjjjjjjjjjjjjjccg.hmefffaaaaaaaafff```fffffaaaaaaaaaaaaaaaaaaaaaaafficjjjjjjjjjjjjjjjjjjjjjj",
"jjjjjjjjjjjjjjjjjjjjjjckhbb``fffaaaaaaaafffffffffaaaaaaaaaaaaaaaaaaaaaaaaafficjjjjjjjjjjjjjjjjjjjjjj",
"jjjjjjjjjjjjjjjjjjcg.hhmbb``ffffaaaaaaaaaafffffaaaaaaaaaaaaaaaaaaaaaaaaaaafficjjjjjjjjjjjjjjjjjjjjjj",
"jjjjjjjjjjjjjjjjjjc.#b``````fffaaaaaaaaaaaaaaaaaaaaaaaaaaaaaaaaaaaaaaaaaaffbhcjjjjjjjjjjjjjjjjjjjjjj",
"jjjjjjjjjjjjjjjjjjkmb```````ffffaaaaaaaaaaaaaaaaaaaaaaaaaaaaaaaaaaaaaaaafffb.jjjjjjjjjjjjjjjjjjjjjjj",
"jjjjjjjjjjjjjjjjjj.bb``````fffffaaaaaaaaaaaaaaaaaaaaaaaaaaaaaaaaaaafffaaffbb.jjjjjjjjjjjjjjjjjjjjjjj",
"jjjjjjjjjjjjjjjjjj.bbfff```fffffaaaaaaaaaaaaaaaaaaaaaaaaaaaaaaaaaaaafffbemdhgjjjjjjjjjjjjjjjjjjjjjjj",
"jjjjjjjjjjjjjjjjjj.bffffffffffffaaaaaaaaaaaaaaaaaaaaaaaaaaaaaaaaaaaaffbbmigccjjjjjjjjjjjjjjjjjjjjjjj",
"jjjjjjjjjjjjjjjjjj.bffffffffffffaaaaaaaaaaaaaaaaaaaaaaaaaaaaaaaaafaeediikgccjjjjjjjjjjjjjjjjjjjjjjjj",
"jjjjjjjjjjjjjjjjjj.bffffffffffffaaaaaaaaaaaaaaaaaaaaaaaaaaaaaaaaffbedkgccjjjjjjjjjjjjjjjjjjjjjjjjjjj",
"jjjjjjjjjjjjjjjjjj.bbfffffffffffaaaaaaaaaaaaaaaaaaaaaaaaaaaaafbemdi.gccjjjjjjjjjjjjjjjjjjjjjjjjjjjjj",
"jjjjjjjjjjjjjjjjjj.bbfffffffffffaaaaaaaaaaaaaaaaaaaaaaaaaaaaffemigcjjjjjjjjjjjjjjjjjjjjjjjjjjjjjjjjj",
"jjjjjjjjjjjjjjjjjjghmbffffffffffaaaaaaaaaaaaaaaaaaaaaaaaffeedi.kgccjjjjjjjjjjjjjjjjjjjjjjjjjjjjjjjjj",
"jjjjjjjjjjjjjjjjjjcchbbfffffffffaaaaaaaaaaaaaaaaaaaaaafffbmikccjjjjjjjjjjjjjjjjjjjjjjjjjjjjjjjjjjjjj",
"jjjjjjjjjjjjjjjjjjjcg.mbbfffffffaaaaaaaaaaaaaaaaaaaffbemdikgccjjjjjjjjjjjjjjjjjjjjjjjjjjjjjjjjjjjjjj",
"jjjjjjjjjjjjjjjjjjjjcc.#b`ffffffaaaaaaaaaaaaaaaaaaffbbm.gccjjjjjjjjjjjjjjjjjjjjjjjjjjjjjjjjjjjjjjjjj",
"jjjjjjjjjjjjjjjjjjjjjjc.hbbfffffaaaaaaaaaaaaaaaaaeedi.kgcjjjjjjjjjjjjjjjjjjjjjjjjjjjjjjjjjjjjjjjjjjj",
"jjjjjjjjjjjjjjjjjjjjjjjjkmb`ffffaaaaaaaaaaaaffffbeikgcjjjjjjjjjjjjjjjjjjjjjjjjjjjjjjjjjjjjjjjjjjjjjj",
"jjjjjjjjjjjjjjjjjjjjjjjjckhebfffaaaaaaaaaaffbemii.gccjjjjjjjjjjjjjjjjjjjjjjjjjjjjjjjjjjjjjjjjjjjjjjj",
"jjjjjjjjjjjjjjjjjjjjjjjjjcgimfffaaaaaaaafffb#m.gcjjjjjjjjjjjjjjjjjjjjjjjjjjjjjjjjjjjjjjjjjjjjjjjjjjj",
"jjjjjjjjjjjjjjjjjjjjjjjjjjcgimeffaaaaaabemdi.kcccjjjjjjjjjjjjjjjjjjjjjjjjjjjjjjjjjjjjjjjjjjjjjjjjjjj",
"jjjjjjjjjjjjjjjjjjjjjjjjjjjjgimfffaaffbbmikccjjjjjjjjjjjjjjjjjjjjjjjjjjjjjjjjjjjjjjjjjjjjjjjjjjjjjjj",
"jjjjjjjjjjjjjjjjjjjjjjjjjjjjcg.debbbedi.kgccjjjjjjjjjjjjjjjjjjjjjjjjjjjjjjjjjjjjjjjjjjjjjjjjjjjjjjjj",
"jjjjjjjjjjjjjjjjjjjjjjjjjjjjjjcghbbbhkgccjjjjjjjjjjjjjjjjjjjjjjjjjjjjjjjjjjjjjjjjjjjjjjjjjjjjjjjjjjj",
"jjjjjjjjjjjjjjjjjjjjjjjjjjjjjjccg...gccjjjjjjjjjjjjjjjjjjjjjjjjjjjjjjjjjjjjjjjjjjjjjjjjjjjjjjjjjjjjj",
"jjjjjjjjjjjjjjjjjjjjjjjjjjjjjjjjjcjjjjjjjjjjjjjjjjjjjjjjjjjjjjjjjjjjjjjjjjjjjjjjjjjjjjjjjjjjjjjjjjjj",
"jjjjjjjjjjjjjjjjjjjjjjjjjjjjjjjjjjjjjjjjjjjjjjjjjjjjjjjjjjjjjjjjjjjjjjjjjjjjjjjjjjjjjjjjjjjjjjjjjjjj",
"jjjjjjjjjjjjjjjjjjjjjjjjjjjjjjjjjjjjjjjjjjjjjjjjjjjjjjjjjjjjjjjjjjjjjjjjjjjjjjjjjjjjjjjjjjjjjjjjjjjj",
"jjjjjjjjjjjjjjjjjjjjjjjjjjjjjjjjjjjjjjjjjjjjjjjjjjjjjjjjjjjjjjjjjjjjjjjjjjjjjjjjjjjjjjjjjjjjjjjjjjjj",
"jjjjjjjjjjjjjjjjjjjjjjjjjjjjjjjjjjjjjjjjjjjjjjjjjjjjjjjjjjjjjjjjjjjjjjjjjjjjjjjjjjjjjjjjjjjjjjjjjjjj",
"jjjjjjjjjjjjjjjjjjjjjjjjjjjjjjjjjjjjjjjjjjjjjjjjjjjjjjjjjjjjjjjjjjjjjjjjjjjjjjjjjjjjjjjjjjjjjjjjjjjj",
"jjjjjjjjjjjjjjjjjjjjjjjjjjjjjjjjjjjjjjjjjjjjjjjjjjjjjjjjjjjjjjjjjjjjjjjjjjjjjjjjjjjjjjjjjjjjjjjjjjjj"
};
