/* XPM */
static char * mgSmoothRivet_xpm[] = {
"32 32 486 2",
"  	c #C1C1C1",
". 	c #C0C0C0",
"+ 	c #8EA18F",
"@ 	c #ACB4AB",
"# 	c #2B5E2B",
"$ 	c #285920",
"% 	c #285B20",
"& 	c #294425",
"* 	c #3D6C3E",
"= 	c #285C1F",
"- 	c #285D1F",
"; 	c #284425",
"> 	c #537A52",
", 	c #285C20",
"' 	c #295D1F",
") 	c #255124",
"! 	c #3E6C3E",
"~ 	c #275A1F",
"{ 	c #255225",
"] 	c #3C6A3D",
"^ 	c #285E1F",
"/ 	c #275D1F",
"( 	c #284025",
"_ 	c #557C53",
": 	c #264B25",
"< 	c #718D70",
"[ 	c #295E20",
"} 	c #BABCBA",
"| 	c #739273",
"1 	c #275A20",
"2 	c #92A693",
"3 	c #A6B1A6",
"4 	c #B9BCB8",
"5 	c #6F8B6E",
"6 	c #27601E",
"7 	c #275E1F",
"8 	c #2D5B2D",
"9 	c #718F71",
"0 	c #295223",
"a 	c #2A5522",
"b 	c #2A4925",
"c 	c #517551",
"d 	c #669665",
"e 	c #2B6722",
"f 	c #296420",
"g 	c #3C793D",
"h 	c #8BA48C",
"i 	c #AAB2A9",
"j 	c #537B52",
"k 	c #296220",
"l 	c #28601F",
"m 	c #294524",
"n 	c #235C1F",
"o 	c #2A5423",
"p 	c #2B4625",
"q 	c #1F291E",
"r 	c #518451",
"s 	c #29611F",
"t 	c #2B6622",
"u 	c #2C6823",
"v 	c #2F6D25",
"w 	c #2D6A23",
"x 	c #2B6621",
"y 	c #296521",
"z 	c #246523",
"A 	c #28692A",
"B 	c #296320",
"C 	c #295E1F",
"D 	c #2A4525",
"E 	c #295422",
"F 	c #2A4A25",
"G 	c #283D25",
"H 	c #647563",
"I 	c #6B826A",
"J 	c #2C5A2C",
"K 	c #2A4D23",
"L 	c #295B20",
"M 	c #2A6421",
"N 	c #2C6822",
"O 	c #2E6B24",
"P 	c #285F1F",
"Q 	c #307027",
"R 	c #296120",
"S 	c #317128",
"T 	c #294424",
"U 	c #647E64",
"V 	c #C0C0BF",
"W 	c #A1A8A1",
"X 	c #6C856B",
"Y 	c #265123",
"Z 	c #295621",
"` 	c #285B1F",
" .	c #2C6923",
"..	c #285821",
"+.	c #307026",
"@.	c #2F6E25",
"#.	c #307227",
"$.	c #33782A",
"%.	c #2C702D",
"&.	c #3F753F",
"*.	c #729072",
"=.	c #B9BCB9",
"-.	c #BBBDBB",
";.	c #286029",
">.	c #2B6822",
",.	c #295D20",
"'.	c #28591F",
").	c #2A4E23",
"!.	c #2A6722",
"~.	c #2E6C25",
"{.	c #2D6A24",
"].	c #2E6C24",
"^.	c #2A6622",
"/.	c #27601F",
"(.	c #256321",
"_.	c #2B6B2D",
":.	c #94A494",
"<.	c #BCBEBC",
"[.	c #BFBFBE",
"}.	c #C1C1BF",
"|.	c #557E54",
"1.	c #275C20",
"2.	c #295622",
"3.	c #2A4D24",
"4.	c #233021",
"5.	c #2B4626",
"6.	c #295728",
"7.	c #2F5A2E",
"8.	c #2F482A",
"9.	c #2B4C26",
"0.	c #2D6622",
"a.	c #306923",
"b.	c #326A24",
"c.	c #2F6823",
"d.	c #466141",
"e.	c #AAA89D",
"f.	c #B9B6B0",
"g.	c #BFBBB7",
"h.	c #C0BFBD",
"i.	c #708D70",
"j.	c #235C20",
"k.	c #2A5422",
"l.	c #27591F",
"m.	c #2A5323",
"n.	c #295522",
"o.	c #273B25",
"p.	c #243724",
"q.	c #295122",
"r.	c #285D20",
"s.	c #3D683D",
"t.	c #A4AAA3",
"u.	c #949C8E",
"v.	c #7D8670",
"w.	c #5F6645",
"x.	c #6A5021",
"y.	c #72511A",
"z.	c #765218",
"A.	c #755519",
"B.	c #77551B",
"C.	c #7A5523",
"D.	c #856C47",
"E.	c #9E8E7B",
"F.	c #B3A599",
"G.	c #BBB2AA",
"H.	c #BDBAB5",
"I.	c #BFBFBC",
"J.	c #3D783D",
"K.	c #285820",
"L.	c #294A24",
"M.	c #2B4926",
"N.	c #202C1F",
"O.	c #8A968A",
"P.	c #70896E",
"Q.	c #285A20",
"R.	c #456A43",
"S.	c #909A88",
"T.	c #9C9889",
"U.	c #93856F",
"V.	c #876F4F",
"W.	c #885F35",
"X.	c #885D2F",
"Y.	c #8C5E2D",
"Z.	c #92602E",
"`.	c #976131",
" +	c #976338",
".+	c #9E6F4B",
"++	c #A58369",
"@+	c #AE9685",
"#+	c #B5A79B",
"$+	c #B9B2AB",
"%+	c #BCBAB6",
"&+	c #BFBFBD",
"*+	c #2B6F2D",
"=+	c #295921",
"-+	c #2B4B25",
";+	c #253423",
">+	c #223122",
",+	c #B7B8B7",
"'+	c #8A9C8A",
")+	c #295C20",
"!+	c #476B44",
"~+	c #7F896F",
"{+	c #978A75",
"]+	c #978166",
"^+	c #967251",
"/+	c #956B45",
"(+	c #976D43",
"_+	c #9B7043",
":+	c #A07245",
"<+	c #A57348",
"[+	c #A8754B",
"}+	c #AC7754",
"|+	c #AF8064",
"1+	c #AD8C76",
"2+	c #AE9989",
"3+	c #B1A99E",
"4+	c #B7B3AD",
"5+	c #BCBBB7",
"6+	c #6F946F",
"7+	c #295A21",
"8+	c #273A25",
"9+	c #4F634E",
"0+	c #8C9D8C",
"a+	c #496A41",
"b+	c #797E5F",
"c+	c #908064",
"d+	c #99795C",
"e+	c #9A7352",
"f+	c #9B724D",
"g+	c #9E7850",
"h+	c #A37C53",
"i+	c #A97E55",
"j+	c #AF8057",
"k+	c #B48158",
"l+	c #B6805A",
"m+	c #B58162",
"n+	c #B1876E",
"o+	c #AC907D",
"p+	c #AC9C8F",
"q+	c #AFABA3",
"r+	c #B7B5B1",
"s+	c #BBBBB9",
"t+	c #8BA38C",
"u+	c #2A6E2C",
"v+	c #ACB3AC",
"w+	c #56754D",
"x+	c #7B7757",
"y+	c #90785A",
"z+	c #9A7555",
"A+	c #9B7452",
"B+	c #9D7854",
"C+	c #A27E59",
"D+	c #AD825C",
"E+	c #B3865F",
"F+	c #B88861",
"G+	c #BB8961",
"H+	c #BC8760",
"I+	c #BA8462",
"J+	c #B48569",
"K+	c #AB8A75",
"L+	c #A89484",
"M+	c #AAA198",
"N+	c #B0AEAA",
"O+	c #B6B6B4",
"P+	c #295822",
"Q+	c #647751",
"R+	c #7F7554",
"S+	c #937454",
"T+	c #9C7453",
"U+	c #9D7753",
"V+	c #A07A58",
"W+	c #AA7F5C",
"X+	c #B28560",
"Y+	c #B98963",
"Z+	c #BD8C66",
"`+	c #C08D67",
" @	c #C08C65",
".@	c #BD8763",
"+@	c #B68466",
"@@	c #AB866E",
"#@	c #A58D7C",
"$@	c #A5988F",
"%@	c #A9A8A3",
"&@	c #B0B0B0",
"*@	c #899A89",
"=@	c #2D6024",
"-@	c #6A7756",
";@	c #8A7A5A",
">@	c #997757",
",@	c #A17654",
"'@	c #A27854",
")@	c #A57A57",
"!@	c #AB7E5A",
"~@	c #B5835E",
"{@	c #BC8862",
"]@	c #BF8C67",
"^@	c #C1906A",
"/@	c #C28F68",
"(@	c #BE8963",
"_@	c #B68364",
":@	c #A9836A",
"<@	c #A28976",
"[@	c #A19387",
"}@	c #A4A29D",
"|@	c #ACABAB",
"1@	c #709570",
"2@	c #839B7F",
"3@	c #8B8E74",
"4@	c #978468",
"5@	c #A07C5F",
"6@	c #A77959",
"7@	c #A87B57",
"8@	c #B0815D",
"9@	c #B78661",
"0@	c #BC8A66",
"a@	c #BF8F6A",
"b@	c #C1936D",
"c@	c #C2916A",
"d@	c #BE8A63",
"e@	c #B58362",
"f@	c #A78167",
"g@	c #A08572",
"h@	c #9D8E83",
"i@	c #A09C99",
"j@	c #A9A9A9",
"k@	c #BABDB9",
"l@	c #A8ADA0",
"m@	c #A49E8C",
"n@	c #A58E78",
"o@	c #A58368",
"p@	c #AC7E5F",
"q@	c #AF7F5C",
"r@	c #B3855F",
"s@	c #B98964",
"t@	c #BE8D68",
"u@	c #C2916C",
"v@	c #C4946F",
"w@	c #C2926B",
"x@	c #BC8B64",
"y@	c #B38262",
"z@	c #A68066",
"A@	c #9D8371",
"B@	c #9A8B81",
"C@	c #9D9896",
"D@	c #A5A3A3",
"E@	c #BEBEBC",
"F@	c #B8B5AE",
"G@	c #B2A79A",
"H@	c #AD9684",
"I@	c #AA8972",
"J@	c #AF8266",
"K@	c #B48160",
"L@	c #B98760",
"M@	c #C1906B",
"N@	c #C4936E",
"O@	c #C59570",
"P@	c #C0916B",
"Q@	c #B98A64",
"R@	c #B08162",
"S@	c #A37F66",
"T@	c #9A8272",
"U@	c #988B82",
"V@	c #9A9796",
"W@	c #A3A3A3",
"X@	c #C1C0BD",
"Y@	c #BEB9B3",
"Z@	c #B9ADA3",
"`@	c #B09C8E",
" #	c #AC8F7B",
".#	c #AE866D",
"+#	c #B48364",
"@#	c #B98561",
"##	c #BD8A64",
"$#	c #C08E69",
"%#	c #C2926D",
"&#	c #C0916C",
"*#	c #BB8D69",
"=#	c #B48763",
"-#	c #AA8064",
";#	c #9D7F6A",
">#	c #968375",
",#	c #958C86",
"'#	c #9A9898",
")#	c #A4A4A4",
"!#	c #C0BCB8",
"~#	c #BCB3AB",
"{#	c #B4A398",
"]#	c #AE9585",
"^#	c #AC8B75",
"/#	c #AF8468",
"(#	c #B48261",
"_#	c #B8845F",
":#	c #BB8862",
"<#	c #BC8A65",
"[#	c #BB8B66",
"}#	c #B88A66",
"|#	c #B38764",
"1#	c #AB8063",
"2#	c #A27E67",
"3#	c #98806F",
"4#	c #93867C",
"5#	c #928F8D",
"6#	c #9C9C9C",
"7#	c #A8A8A8",
"8#	c #C0BFBC",
"9#	c #BEB8B2",
"0#	c #B9ADA4",
"a#	c #B09D90",
"b#	c #AB917E",
"c#	c #AA876F",
"d#	c #AB8061",
"e#	c #AF7F5F",
"f#	c #B17F5E",
"g#	c #B1805E",
"h#	c #B0805F",
"i#	c #AD8060",
"j#	c #A87F62",
"k#	c #A17E66",
"l#	c #987F6C",
"m#	c #938377",
"n#	c #918A87",
"o#	c #969493",
"p#	c #A2A2A2",
"q#	c #ACACAC",
"r#	c #BFBDB9",
"s#	c #BCB5AF",
"t#	c #B5A99F",
"u#	c #AC9A8C",
"v#	c #A88D78",
"w#	c #A5826B",
"x#	c #A48165",
"y#	c #A37E5F",
"z#	c #A27B5E",
"A#	c #A17D60",
"B#	c #A07D63",
"C#	c #9B7D64",
"D#	c #97806E",
"E#	c #918B85",
"F#	c #93908E",
"G#	c #9C9B9B",
"H#	c #B4B4B4",
"I#	c #C0C0BE",
"J#	c #BDBBB8",
"K#	c #B9B3AE",
"L#	c #B0A79F",
"M#	c #A99A8E",
"N#	c #A49181",
"O#	c #A08A77",
"P#	c #9C8571",
"Q#	c #99806B",
"R#	c #977F6B",
"S#	c #967F6C",
"T#	c #948171",
"U#	c #92857D",
"V#	c #918D89",
"W#	c #91908E",
"X#	c #9A9999",
"Y#	c #A5A5A5",
"Z#	c #B9B9B9",
"`#	c #BFBFBF",
" $	c #BCBABA",
".$	c #B7B3B0",
"+$	c #B0AAA5",
"@$	c #A7A19A",
"#$	c #A19991",
"$$	c #9C928A",
"%$	c #968C84",
"&$	c #948981",
"*$	c #928B84",
"=$	c #938E88",
"-$	c #938F8E",
";$	c #959493",
">$	c #9B9B9B",
",$	c #AFAFAF",
"'$	c #B7B7B7",
")$	c #BCBCBC",
"!$	c #B6B6B6",
"~$	c #AEAEAE",
"{$	c #A7A7A6",
"]$	c #A1A19F",
"^$	c #9B9A98",
"/$	c #979494",
"($	c #979595",
"_$	c #989796",
":$	c #9B9A9A",
"<$	c #A0A0A0",
"                    . + + @                                     ",
"                    # $ % &                                     ",
"                    * = - ;                                     ",
"                    > , ' )                                     ",
"                    ! = ~ {                                     ",
"                    ] ^ / (                                     ",
"                    _ ^ = :                                     ",
"                    < [ = #     } | 1 2                         ",
"    3 4             5 6 7 8   9 0 a b c                         ",
"  d e f 7 g h i     j k l m n a o p q                           ",
"  r s t u v w x y z A B C D E F G H                             ",
"  } I J K L M N O O P Q R S = T U                               ",
"        V W X Y Z `  ...+.@.#.$.u k %.&.*.=.                    ",
"            -.;.>.,.'.7 ).^ !.~.O {.].w ^./.(._.:.<.[.}.        ",
"          |.1.{.2.3.p 4.5.6.7.8.9.^ /.0.0.a.b.c.d.e.f.g.h..     ",
"      i.j.k.l.m.n.o.p.q.r.s.t.u.v.w.x.y.z.A.B.C.D.E.F.G.H.I..   ",
"    J.K.2.a L.M.N.O.P.~ Q.R.S.T.U.V.W.X.Y.Z.`. +.+++@+#+$+%+&+. ",
"    *+Q.=+-+;+>+,+  '+r.)+!+~+{+]+^+/+(+_+:+<+[+}+|+1+2+3+4+5+&+",
"    6+Q.7+8+9+      0+- )+a+b+c+d+e+f+g+h+i+j+k+l+m+n+o+p+q+r+s+",
"      t+u+v+        '+r...w+x+y+z+A+B+C+D+E+F+G+H+I+J+K+L+M+N+O+",
"                    0+r.P+Q+R+S+T+U+V+W+X+Y+Z+`+ @.@+@@@#@$@%@&@",
"                    *@K.=@-@;@>@,@'@)@!@~@{@]@^@/@(@_@:@<@[@}@|@",
"                      1@2@3@4@5@6@7@!@8@9@0@a@b@c@d@e@f@g@h@i@j@",
"                      k@l@m@n@o@p@q@r@s@t@u@v@v@w@x@y@z@A@B@C@D@",
"                      E@F@G@H@I@J@K@L@Z+M@N@O@v@P@Q@R@S@T@U@V@W@",
"                      X@Y@Z@`@ #.#+#@###$#u@%#&#*#=#-#;#>#,#'#)#",
"                      }.!#~#{#]#^#/#(#_#:#<#[#}#|#1#2#3#4#5#6#7#",
"                        8#9#0#a#b#c#d#e#f#g#h#i#j#k#l#m#n#o#p#q#",
"                        }.r#s#t#u#v#w#x#y#z#A#B#C#D#m#E#F#G#j@H#",
"                          I#J#K#L#M#N#O#P#Q#R#S#T#U#V#W#X#Y#&@Z#",
"                          . `# $.$+$@$#$$$%$&$*$=$-$;$>$Y#,$'$)$",
"                            . `#)$!$~${$]$^$/$($_$:$<$7#&@'$)$`#"};
