/* XPM */
static char * image_name[]={
"32 32 58 2",
"  	c #FFE4C4",
". 	c #F5DEB3",
"X 	c #FFEBCD",
"o 	c #EEE8AA",
"O 	c #A3A3A3",
"+ 	c #A1A1A1",
"@ 	c #707070",
"# 	c #B0B0B0",
"$ 	c #636363",
"% 	c #FFFACD",
"& 	c #999999",
"* 	c #969696",
"= 	c #6B6B6B",
"- 	c #B3B37E",
"; 	c #9E9E9E",
": 	c #666666",
"> 	c #9B7071",
", 	c #737373",
"< 	c #757575",
"1 	c #949494",
"2 	c #575757",
"3 	c #595959",
"4 	c #5C5C5C",
"5 	c #616161",
"6 	c #8FBC8F",
"7 	c #DEB887",
"8 	c #696969",
"9 	c #919191",
"0 	c #5E5E5E",
"q 	c #ADADAD",
"w 	c #B6E191",
"e 	c #6E6E6E",
"r 	c #ABABAB",
"t 	c #A6A6A6",
"y 	c #509F69",
"u 	c #A8A8A8",
"i 	c #55562F",
"p 	c #9C9C9C",
"a 	c #545454",
"s 	c #4D4D4D",
"d 	c #474747",
"f 	c #4A4A4A",
"g 	c #8F8F8F",
"h 	c #454545",
"j 	c #878787",
"k 	c #363636",
"l 	c #525252",
"z 	c #8C8C8C",
"x 	c #2F4F4F",
"c 	c #383838",
"v 	c #4F4F4F",
"b 	c #708090",
"n 	c #8A8A8A",
"m 	c #778899",
"M 	c #6A6A8D",
"N 	c #384B66",
"B 	c #2F2F64",
"V 	c #232375",
"                                                                ",
"                  .   X .     .   X .     . X                   ",
"                    o O X       o O X     X + o                 ",
"                  X @ # X     X @ # X     o $ .                 ",
"                  . @ X       . @ X     % & * %                 ",
"                  . =         . =       X + - %                 ",
"                  % - ; X     % - ; X     . $ .                 ",
"                    . : .       . : .     % ; - %               ",
"                    % > o       % > o       . @                 ",
"                    X , o       X , o       o < X               ",
"                    o =         o =       X - 1 X               ",
"                    . o         . o         o .                 ",
"                % % X                                           ",
"              . - - . %                           . o   X       ",
"            X o 2 - 3 - X                       X - 4 $ ; X     ",
"    X %       . = o o 5 1 %         X           % > 6 o : - X   ",
"    7 & o %   . 8 o o o 2 .       o 7   X       % 9 - o o 0 q X ",
"  . 3 - 0 - X o : o w o - < %   . 4 e 5 r X     % - - o o t 4   ",
"    @ o o , - 1 y w w w w 3 # % . 8 o w 4 ; %   X : 6 w w w e - ",
"  X < u o o 4 i r q q q w p a . X e q o w a . % q 4 w r r r r s ",
"    : r o + d - r O t O O r , e % $ r w w - - . f 1 t + + + t g ",
"% o : w y h j O p p p p p & + 4 0 = w q # w h k y ; * & & * * & ",
"o 3 l l l z * 9 9 9 9 9 9 9 9 * x c < - , f v b 1 z z z z z z n ",
"2 v 5 y g m m m m m m m m m m m z e f x l e m m b b b b b b b b ",
"b b b b b b b b M M M M M M M M M b b b b M M M M M M M M M M M ",
"@ M @ @ @ @ @ @ @ e e e e e e e e e e e e = = = = = = = = = = 8 ",
"$ : : : : $ $ $ $ $ $ $ $ $ $ 5 5 5 5 5 5 5 5 5 5 5 0 0 0 0 0 0 ",
"3 3 3 3 3 3 3 3 N N N N N N N N N N N N N N N N N N N N N N N N ",
"N N N N N N N N N N N N N N N N N N N N N N N N N N N B B B B B ",
"B B B B B B B B B B B B B B B B B B B B B B B B B B B B B B B V ",
"V V V V V V V V V V V V V V V V V V V V V V V V V V V V V V V V ",
"V V V V V V V V V V V V V V V V V V V V V V V V V V V V V V V V "
};
