/* XPM */
static char * weigthCutter_xpm[] = {
"32 32 404 2",
"  	c #C0C0C0",
". 	c #C0BFBF",
"+ 	c #C0BFBE",
"@ 	c #BFBCBC",
"# 	c #B7A5A0",
"$ 	c #9F7C76",
"% 	c #98726B",
"& 	c #A99591",
"* 	c #BFBDBD",
"= 	c #BCB5B3",
"- 	c #A27E76",
"; 	c #77453C",
"> 	c #572A26",
", 	c #5F2F28",
"' 	c #5D3430",
") 	c #AC9E9D",
"! 	c #BCB7B6",
"~ 	c #92685F",
"{ 	c #663731",
"] 	c #3E2021",
"^ 	c #5F2E29",
"/ 	c #865041",
"( 	c #381C19",
"_ 	c #6D5251",
": 	c #BCB8B7",
"< 	c #A18A86",
"[ 	c #6E3A32",
"} 	c #4F2827",
"| 	c #4B2423",
"1 	c #985846",
"2 	c #D69476",
"3 	c #BF7C61",
"4 	c #4E2826",
"5 	c #AC9F9E",
"6 	c #BDBBBA",
"7 	c #937875",
"8 	c #593331",
"9 	c #482323",
"0 	c #5A2C27",
"a 	c #723B33",
"b 	c #A66C5B",
"c 	c #D39175",
"d 	c #BB7960",
"e 	c #522B27",
"f 	c #AA9D9C",
"g 	c #BDB4B2",
"h 	c #997C77",
"i 	c #542A28",
"j 	c #371C1E",
"k 	c #341A1C",
"l 	c #4E2724",
"m 	c #B3725D",
"n 	c #DDA087",
"o 	c #AB715D",
"p 	c #432422",
"q 	c #5B3632",
"r 	c #B8ADAA",
"s 	c #8F7370",
"t 	c #4E2523",
"u 	c #3C1B1C",
"v 	c #3F1F1E",
"w 	c #79493B",
"x 	c #A56953",
"y 	c #C37B62",
"z 	c #B26D58",
"A 	c #522F26",
"B 	c #2F1516",
"C 	c #7E5650",
"D 	c #BEB8B6",
"E 	c #B9B3B2",
"F 	c #674240",
"G 	c #5F2A22",
"H 	c #421C1A",
"I 	c #9E6652",
"J 	c #DDA68A",
"K 	c #DCA68A",
"L 	c #945C49",
"M 	c #34181A",
"N 	c #150A0C",
"O 	c #54302E",
"P 	c #A7867C",
"Q 	c #C0BEBE",
"R 	c #A99A98",
"S 	c #512B26",
"T 	c #A2553C",
"U 	c #884431",
"V 	c #C07E61",
"W 	c #DCA588",
"X 	c #DDA78C",
"Y 	c #AF7863",
"Z 	c #271417",
"` 	c #2D1618",
" .	c #633F3C",
"..	c #BFBFBE",
"+.	c #896E6B",
"@.	c #793E2F",
"#.	c #AA5C42",
"$.	c #BF7555",
"%.	c #D89775",
"&.	c #D89C7D",
"*.	c #D19577",
"=.	c #4C2D2C",
"-.	c #5A322E",
";.	c #694541",
">.	c #B8B1B0",
",.	c #754843",
"'.	c #AB6145",
").	c #CC8261",
"!.	c #D69374",
"~.	c #D28E6D",
"{.	c #B97256",
"].	c #DDA588",
"^.	c #DBA284",
"/.	c #96675B",
"(.	c #8C625A",
"_.	c #84615C",
":.	c #BCB8B8",
"<.	c #B9B0AF",
"[.	c #6F3530",
"}.	c #B4694D",
"|.	c #D69673",
"1.	c #DC9F80",
"2.	c #D29071",
"3.	c #BB7458",
"4.	c #D49578",
"5.	c #DFA98E",
"6.	c #BC8069",
"7.	c #91645B",
"8.	c #AA8F8B",
"9.	c #BFBFBF",
"0.	c #BDB6B6",
"a.	c #905247",
"b.	c #C37858",
"c.	c #D99A7B",
"d.	c #DDA183",
"e.	c #D59272",
"f.	c #D59375",
"g.	c #BD765A",
"h.	c #DBA184",
"i.	c #D29477",
"j.	c #BE968C",
"k.	c #C6B5B0",
"l.	c #C1BFBF",
"m.	c #C0BDBC",
"n.	c #C48A70",
"o.	c #CF8966",
"p.	c #D89879",
"q.	c #DA9B7B",
"r.	c #D18B69",
"s.	c #D79677",
"t.	c #C0765B",
"u.	c #C68365",
"v.	c #D99C7D",
"w.	c #CD8B6C",
"x.	c #D5A186",
"y.	c #CFB2A4",
"z.	c #C3BCB8",
"A.	c #CD8F71",
"B.	c #D28E6A",
"C.	c #D59372",
"D.	c #D69271",
"E.	c #C57B59",
"F.	c #B46C4F",
"G.	c #B8775F",
"H.	c #BA7A5E",
"I.	c #D99A79",
"J.	c #D69372",
"K.	c #DAA082",
"L.	c #D7A186",
"M.	c #C4BCB9",
"N.	c #C5B6AF",
"O.	c #D08C6A",
"P.	c #D3906E",
"Q.	c #D59070",
"R.	c #D28D6D",
"S.	c #B86B4B",
"T.	c #A66754",
"U.	c #CA927A",
"V.	c #D79B7E",
"W.	c #D08868",
"X.	c #D99574",
"Y.	c #D79573",
"Z.	c #D39573",
"`.	c #C5B3AB",
" +	c #C7ACA0",
".+	c #D18C6B",
"++	c #D18C6C",
"@+	c #C67D5D",
"#+	c #A95B3F",
"$+	c #C07B5C",
"%+	c #D89E80",
"&+	c #E0AB92",
"*+	c #CD8A6B",
"=+	c #D89573",
"-+	c #DA9977",
";+	c #D08C6B",
">+	c #C6B1A7",
",+	c #C99F8B",
"'+	c #D28C6B",
")+	c #CF8766",
"!+	c #C87F5F",
"~+	c #B4674A",
"{+	c #C37B59",
"]+	c #D89C7C",
"^+	c #DEA88D",
"/+	c #DBA285",
"(+	c #C48062",
"_+	c #BB7355",
":+	c #DE9E7D",
"<+	c #CF8765",
"[+	c #C89F8D",
"}+	c #C1C0BF",
"|+	c #C1BEBC",
"1+	c #CB9175",
"2+	c #D28E6C",
"3+	c #CB8363",
"4+	c #C27656",
"5+	c #C47C5B",
"6+	c #D79B7B",
"7+	c #DBA487",
"8+	c #DCA284",
"9+	c #D59474",
"0+	c #A1563D",
"a+	c #9C4F36",
"b+	c #D48F6D",
"c+	c #C6957F",
"d+	c #C0B5B1",
"e+	c #C98260",
"f+	c #D18F6E",
"g+	c #D18B6A",
"h+	c #C47B5A",
"i+	c #DBA183",
"j+	c #DDA58A",
"k+	c #D79477",
"l+	c #BF7557",
"m+	c #944832",
"n+	c #A55639",
"o+	c #CD825F",
"p+	c #DA9876",
"q+	c #CB957C",
"r+	c #C2BEBD",
"s+	c #C09787",
"t+	c #C97E5B",
"u+	c #D49473",
"v+	c #D59576",
"w+	c #DA9E7F",
"x+	c #E1AD93",
"y+	c #DDA589",
"z+	c #D7997A",
"A+	c #C98366",
"B+	c #AE6247",
"C+	c #A7583D",
"D+	c #B16142",
"E+	c #CD845F",
"F+	c #D79470",
"G+	c #C6B3AA",
"H+	c #C08870",
"I+	c #C97F5B",
"J+	c #D3926F",
"K+	c #D79B7D",
"L+	c #DCA386",
"M+	c #DA9C7F",
"N+	c #CE8A6E",
"O+	c #B56B50",
"P+	c #AA5D43",
"Q+	c #BF775B",
"R+	c #C38C77",
"S+	c #CD977C",
"T+	c #D89673",
"U+	c #D99673",
"V+	c #CC9D88",
"W+	c #C1BFBE",
"X+	c #C1BEBD",
"Y+	c #C28A72",
"Z+	c #CB805C",
"`+	c #D28D6A",
" @	c #D69677",
".@	c #D99A7C",
"+@	c #D89679",
"@@	c #CD8A71",
"#@	c #BF7B61",
"$@	c #BB765B",
"%@	c #C29481",
"&@	c #C3ADA5",
"*@	c #C1BDBB",
"=@	c #C7B5AD",
"-@	c #D79978",
";@	c #DA9676",
">@	c #CF9072",
",@	c #C3BAB7",
"'@	c #C39888",
")@	c #C97D5A",
"!@	c #CE8664",
"~@	c #D18B6C",
"{@	c #D08B6D",
"]@	c #CA8569",
"^@	c #BE7961",
"/@	c #BF8F7F",
"(@	c #C2B3AD",
"_@	c #C2BDBB",
":@	c #CF9A80",
"<@	c #D79474",
"[@	c #CD8564",
"}@	c #C4B4AC",
"|@	c #C2B6B1",
"1@	c #C68F78",
"2@	c #C98161",
"3@	c #C78062",
"4@	c #C37D63",
"5@	c #BB755C",
"6@	c #C0A79E",
"7@	c #C0BEBD",
"8@	c #CBA491",
"9@	c #CB8466",
"0@	c #CA8164",
"a@	c #C4B2AA",
"b@	c #C2BCB9",
"c@	c #C7A297",
"d@	c #CA8E79",
"e@	c #C9886E",
"f@	c #C0846E",
"g@	c #C0BCBA",
"h@	c #C2B8B8",
"i@	c #C1BBBC",
"j@	c #C3B5B5",
"k@	c #C2BEBC",
"l@	c #D09F87",
"m@	c #CD8463",
"n@	c #C97E5F",
"o@	c #C3B0A8",
"p@	c #C99FA0",
"q@	c #CF9799",
"r@	c #CDB4B1",
"s@	c #D5887E",
"t@	c #CB8773",
"u@	c #C8A1A0",
"v@	c #E05156",
"w@	c #CC9496",
"x@	c #E44046",
"y@	c #C6ACAD",
"z@	c #C6A7A8",
"A@	c #D48E8C",
"B@	c #DFA58E",
"C@	c #D98069",
"D@	c #D76A56",
"E@	c #C4ADA3",
"F@	c #C7A6A7",
"G@	c #DE575B",
"H@	c #D67679",
"I@	c #CD999B",
"J@	c #E3474C",
"K@	c #DC7E75",
"L@	c #DD5B5C",
"M@	c #E44348",
"N@	c #CF888A",
"O@	c #E6353C",
"P@	c #CC9698",
"Q@	c #E04E53",
"R@	c #DA6267",
"S@	c #E37B73",
"T@	c #E83D3F",
"U@	c #DE6252",
"V@	c #C7A08F",
"W@	c #CA9A9B",
"X@	c #D9666A",
"Y@	c #CAA1A3",
"Z@	c #CAA1A2",
"`@	c #E3494E",
" #	c #DB8A89",
".#	c #DF6467",
"+#	c #E25054",
"@#	c #C6A8AA",
"##	c #E43E45",
"$#	c #C7A5A7",
"%#	c #E34045",
"&#	c #D86A6E",
"*#	c #D58A8C",
"=#	c #E34C50",
"-#	c #D68F74",
";#	c #C68D75",
">#	c #C2BABA",
",#	c #D76C70",
"'#	c #D96569",
")#	c #C6ADAE",
"!#	c #D9696D",
"~#	c #D97478",
"{#	c #D4898B",
"]#	c #D37E81",
"^#	c #D08588",
"/#	c #D67175",
"(#	c #CD8F91",
"_#	c #D4777A",
":#	c #D96368",
"<#	c #CCAAAA",
"[#	c #D5797D",
"}#	c #D09883",
"|#	c #C77F5E",
"1#	c #C9A291",
"2#	c #C3BFBD",
"3#	c #C6C5C4",
"4#	c #CFBDB8",
"5#	c #D1ACA4",
"6#	c #D0B6AD",
"7#	c #C7C1BF",
"                                  . +                           ",
"                              @ # $ % & *                       ",
"                            = - ; > , ' )                       ",
"                          ! ~ { ] ^ / ( _ :                     ",
"                        * < [ } | 1 2 3 4 5                     ",
"                      6 7 8 9 0 a b c d e f                     ",
"                    g h i j k l m n o p q r                     ",
"                  @ s t u v w x y z A B C D                     ",
"                  E F G H I J K L M N O P Q                     ",
"                  R S T U V W X Y Z `  .r                       ",
"                ..+.@.#.$.%.&.K *.=.-.;.>.                      ",
"                : ,.'.).!.~.{.].^./.(._.:.                      ",
"                <.[.}.|.1.2.3.4.5.6.7.8.9.                      ",
"                0.a.b.c.d.e.f.g.h.i.j.k.l.                      ",
"                m.n.o.p.q.r.s.t.u.v.w.x.y.                      ",
"                z.A.B.C.D.E.F.G.H.I.J.K.L.M.                    ",
"                N.O.P.Q.R.S.T.U.V.W.X.Y.Z.`.                    ",
"                 +.+~.++@+#+$+%+&+*+=+-+;+>+                    ",
"              . ,+'+)+!+~+{+]+^+/+(+_+:+<+[+}+                  ",
"              |+1+2+3+4+5+6+7+8+9+0+a+=+b+c++                   ",
"              d+e+f+g+h+i+j+K.k+l+m+n+o+p+q+r+                  ",
"              s+t+u+v+w+x+y+z+A+B+C+D+E+F+C.G+                  ",
"              H+I+J+K+L+].M+N+O+P+Q+R+S+T+U+V+W+                ",
"            X+Y+Z+`+ @.@+@@@#@$@%@&@*@=@-@;@>@,@                ",
"            . '@)@!@~@{@]@^@/@(@W+    _@:@<@[@}@                ",
"              |@1@2@3@4@5@6@7@        }+8@9@0@a@                ",
"                b@c@d@e@f@g@h@i@j@    k@l@m@n@o@                ",
"              . p@q@r@s@t@u@v@w@x@y@z@A@B@C@D@E@                ",
"              F@G@H@I@J@K@L@M@N@O@P@Q@R@S@T@U@V@.               ",
"              W@X@Y@Z@`@ #.#+#@###$#%#&#*#=#-#;#b@              ",
"              >#,#'#)#!#~#{#]#^#/#(#_#:#<#[#}#|#1#2#            ",
"                                      . 3#  4#5#6#7#            "};
