/* XPM */
static char *DVY_RoofTile_3x3x25_xpm[] = {
/* width height num_colors chars_per_pixel */
"   100   100       16            1",
/* colors */
"` c #770000",
". c #bd8f8d",
"# c #954d4b",
"a c #b90000",
"b c #ffd0ce",
"c c #6a302c",
"d c #ff2e32",
"e c #990000",
"f c #ff9193",
"g c #c05157",
"h c #c56f72",
"i c #ffffff",
"j c #ffb1b2",
"k c #986961",
"l c #c1a7a1",
"m c #953032",
/* pixels */
"iiiiiiiiiiiiiiiiiiiiiiiiiiiiiiiiiiiiiiiiiiiiiiiiiiiiiiiiiiiiiiiiiiiiiiiiiiiiiiiiiiiiiiiiiiiiiiiiiiii",
"iiiiiiiiiiiiiiiiiiiiiiiiiiiiiiiiiiiiiiiiiiiiiiiiiiiiiiiiiiiiiiiiiiiiiiiiiiiiiiiiiiiiiiiiiiiiiiiiiiii",
"iiiiiiiiiiiiiiiiiiiiiiiiiiiiiiiiiiiiiiiiiiiiiiiiiiiiiiiiiiiiiiiiiiiiiiiiiiiiiiiiiiiiiiiiiiiiiiiiiiii",
"iiiiiiiiiiiiiiiiiiiiiiiiiiiiiiiiiiiiiiiiiiiiiiiiiiiiiiiiiiiiiiiiiiiiiiiiiiiiiiiiiiiiiiiiiiiiiiiiiiii",
"iiiiiiiiiiiiiiiiiiiiiiiiiiiiiiiiiiiiiiiiiiiiiiiiiiiiiiiiiiiiiiiiiiiiiiiiiiiiiiiiiiiiiiiiiiiiiiiiiiii",
"iiiiiiiiiiiiiiiiiiiiiiiiiiiiiiiiiiiiiiiiiiiiiiiiiiiiiiiiiiiiiiiiiiiiiiiiiiiiiiiiiiiiiiiiiiiiiiiiiiii",
"iiiiiiiiiiiiiiiiiiiiiiiiiiiiiiiiiiiiiiiiiiiiiiiiiiiiiiiiiiiiiiiiiiiiiiiiiiiiiiiiiiiiiiiiiiiiiiiiiiii",
"iiiiiiiiiiiiiiiiiiiiiiiiiiiiiiiiiiiiiiiiiiiiiiiiiiiiiiiiiiiiiiiiiiiiiiiiiiiiiiiiiiiiiiiiiiiiiiiiiiii",
"iiiiiiiiiiiiiiiiiiiiiiiiiiiiiiiiiiiiiiiiiiiiiiiiiiiiiiiiiiiiiiiiiiiiiiiiiiiiiiiiiiiiiiiiiiiiiiiiiiii",
"iiiiiiiiiiiiiiiiiiiiiiiiiiiiiiiiiiiiiiiiiiiiiiiiiiiiiiiiiiiiiiiiiiiiiiiiiiiiiiiiiiiiiiiiiiiiiiiiiiii",
"iiiiiiiiiiiiiiiiiiiiiiiiiiiiiiiiiiiiiiiiiiiiiiiiiiiiiiiiiiiiiiiiiiiiiiiiiiiiiiiiiiiiiiiiiiiiiiiiiiii",
"iiiiiiiiiiiiiiiiiiiiiiiiiiiiiiiiiiiiiiiiiiiiiiiiiiiiiiiiiiiiiiiiiiiiiiiiiiiiiiiiiiiiiiiiiiiiiiiiiiii",
"iiiiiiiiiiiiiiiiiiiiiiiiiiiiiiiiiiiiiiiiiiiiiiiiiiiiiiiiiiiiiiiiiiiiiiiiiiiiiiiiiiiiiiiiiiiiiiiiiiii",
"iiiiiiiiiiiiiiiiiiiiiiiiiiiiiiiiiiiiiiiiiiiiiiiiiiiiiiiiiiiiiiiiiiiiiiiiiiiiiiiiiiiiiiiiiiiiiiiiiiii",
"iiiiiiiiiiiiiiiiiiiiiiiiiiiiiiiiiiiiiiiiiiiiiiiiiibjll...lbiiiiiiiiiiiiiiiiiiiiiiiiiiiiiiiiiiiiiiiii",
"iiiiiiiiiiiiiiiiiiiiiiiiiiiiiiiiiiiiiiiiiiiiiiiiibl.k#cccc.biiiiiiiiiiiiiiiiiiiiiiiiiiiiiiiiiiiiiiii",
"iiiiiiiiiiiiiiiiiiiiiiiiiiiiiiiiiiiiiiiiiiiiiiibjhg#mmmccc#hlbiiiiiiiiiiiiiiiiiiiiiiiiiiiiiiiiiiiiii",
"iiiiiiiiiiiiiiiiiiiiiiiiiiiiiiiiiiiiiiiiiiiiiibjhmeeeeeee```hjbiiiiiiiiiiiiiiiiiiiiiiiiiiiiiiiiiiiii",
"iiiiiiiiiiiiiiiiiiiiiiiiiiiiiiiiiiiiiiiiiibbl..kmeeeeeeaee``mk.bbiiiiiiiiiiiiiiiiiiiiiiiiiiiiiiiiiii",
"iiiiiiiiiiiiiiiiiiiiiiiiiiiiiiiiiiiiiiiiiiblkcc`````eeaaeme```#.biiiiiiiiiiiiiiiiiiiiiiiiiiiiiiiiiii",
"iiiiiiiiiiiiiiiiiiiiiiiiiiiiiiiiiiiiiibj..k#mc```eeeeaaaaeee``m#.bbiiiiiiiiiiiiiiiiiiiiiiiiiiiiiiiii",
"iiiiiiiiiiiiiiiiiiiiiiiiiiiiiiiiiiibbbfgm```````eeamaaaaaaaee```#.biiiiiiiiiiiiiiiiiiiiiiiiiiiiiiiii",
"iiiiiiiiiiiiiiiiiiiiiiiiiiiiiiiiiiblllk#mc`````eeeaamddaaaaee```m#hlbiiiiiiiiiiiiiiiiiiiiiiiiiiiiiii",
"iiiiiiiiiiiiiiiiiiiiiiiiiiiiiiiiibl.k#ccccc```eeeeaaddddaaaeee````c#liiiiiiiiiiiiiiiiiiiiiiiiiiiiiii",
"iiiiiiiiiiiiiiiiiiiiiiiiiiibbjbbjhg#mmm``c````````eemmmmaeeeeeeee`mmhjbiiiiiiiiiiiiiiiiiiiiiiiiiiiii",
"iiiiiiiiiiiiiiiiiiiiiiiiiibbfhfjhmeeeeeae``````````eemmmmeeeeeeaaaaeghjiiiiiiiiiiiiiiiiiiiiiiiiiiiii",
"iiiiiiiiiiiiiiiiiiiiiiiiiibl.##kmeeeeeeeee`````````eeeemeeeeeaaaaaaemg.biiiiiiiiiiiiiiiiiiiiiiiiiiii",
"iiiiiiiiiiiiiiiiiiiiiiiiiiblkcc````eeeeeeme```````````eeeeeeaaaaaaeeeehbbiiiiiiiiiiiiiiiiiiiiiiiiiii",
"iiiiiiiiiiiiiiiiiiibbbjj..k#mc```eeeaaaaaaee````````eeeeeeaaaaaaaaaaeeghjiiiiiiiiiiiiiiiiiiiiiiiiiii",
"iiiiiiiiiiiiiiiiiibjffhgm```````eeaaaaaaaaaee``````eeaaaaaaaaaaaaaaaaaamfbiiiiiiiiiiiiiiiiiiiiiiiiii",
"iiiiiiiiiiiiiiiibl.hgg#mm``````eeeaaadddaaaee``````eeaaaaaaaaaaaaaaaaaaahjbiiiiiiiiiiiiiiiiiiiiiiiii",
"iiiiiiiiiiiiiiii.#cccc`````````eeeaaddddaaaeee````eeeaaaaaaaaaaaaaaaaaee#.jiiiiiiiiiiiiiiiiiiiiiiiii",
"iiiiiiiiiiibbj.h#mm``eeeeee```````eemmmaaeeeeeeeeeeaaaaaaaaaaaaaaaaaaaaamg.biiiiiiiiiiiiiiiiiiiiiiii",
"iiiiiiiiiibbfhm```eeeeeeeeee```````eemmmeeeeeeeaaaaaaaaaaaaaaaaaaaaaaaaaaegjbiiiiiiiiiiiiiiiiiiiiiii",
"iiiiiiiibl.h#mm``eeeeeeeeeee````````eeeeeeeeeaaaaaaaaaaaaaaaaaaaaaaaaaaaaeghjiiiiiiiiiiiiiiiiiiiiiii",
"iiiiiiiilkc``````eeeeeeeeeee`````````eeeeeeeaaaaaaaaaaaaaaaaaaaaaaaaaaaaaemmliiiiiiiiiiiiiiiiiiiiiii",
"iiiiiiiilmm`````eeeaaaaaaaee````````eeeeeeaaaaaaaaaaaaaaaaaaaaaaaaaaaaaaaaamhjbiiiiiiiiiiiiiiiiiiiii",
"iiiiiiii.aeee`eeeaaaddddaaee```````eeaaaaaaaaaaaaaaaaaaaaaaaaaaaaaaaaaaaaaaaghjiiiiiiiiiiiiiiiiiiiii",
"iiiiiiii.meeeeeeeeaaddddaaee``````eeeaaaaaaaaaaaaaaaaaaaaaaaaaaaaaaaaaaaaaaam#.biiiiiiiiiiiiiiiiiiii",
"iiiiiiii.maeeeeeeeaaddddaaee```eeeeeeaaaaaaaaaaaaaaaaaaaaaaaaaaaaaaaaaaaaaaaemhjbiiiiiiiiiiiiiiiiiii",
"iiiiiiii.maeeeeeeeeaaaaaaeeeeeeeeeeaaaaaaaaaaaaaaaaaaaaaaaaaaaaaaaaaaaaaaaaaaeghjiiiiiiiiiiiiiiiiiii",
"iiiiiiiilmmeeeeeeeee```eeeeaaaaaaaaaaaaaaaaaaaaaaaaaaaaaaaaaaaaaaaaaaaaaaaaaaaaafbiiiiiiiiiiiiiiiiii",
"iiiiiiii.mmeeeeeeeeeeeeeeeeaaaaaaaaaaaaaaaaaaaaaaaaaaaaaaaaaaaaaaaaaaaaaaaaaaaaahlbiiiiiiiiiiiiiiiii",
"iiiiiiii.mmeeeeeeeeeeeeeeeaaaaaaaaaaaaaaaaaaaaaaaaaaaaaaaaaaaaaaaaaaaaaaaaaaaaaa#.biiiiiiiiiiiiiiiii",
"iiiiiiii.mmeeeeeeeeeeaaeeaaaaaaaaaaaaaaaaaaaaaaaaaaaaaaaaaaaaaaaaaaaaaaaaaaaaaaam#.biiiiiiiiiiiiiiii",
"iiiiiiiilmmeeeeeaaaaaaaaaaaaaaaaaaaaaaaaaaaaaaaaaaaaaaaaaaaaaaaaaaaaaaaaaaaaaaaaaegjbiiiiiiiiiiiiiii",
"iiiiiiii.meeeeeeaaaaaaaaaaaaaaaaaaaaaaaaaaaaaaaaaaaaaaaaaaaaaaaaaaaaaaaaaaaaaaaaaemhjiiiiiiiiiiiiiii",
"iiiiiiii.meeeeeaaeaaaaaaaaaaaaaaaaaaaaaaaaaaaaaaaaaaaaaaaaaaaaaaaaaaaaaaaaaaaaaaaamm.iiiiiiiiiiiiiii",
"iiiiiiii.aeeeeeeeeeaaaaaaaaaaaaaaaaaaaaaaaaaaaaaaaaaaaaaaaaaaaaaaaaaaaaaaaaaaaaaaaamhjbiiiiiiiiiiiii",
"iiiiiiii.aeeee``eeeeeaaaaaaaaaaaaaaaaaaaaaaaaaaaaaaaaaaaaaaaaaaaaaaaaaaaaaaaaaaaaaaaghjiiiiiiiiiiiii",
"iiiiiiii.maeeeeeeeeeeaaaaaaaaaaaaaaaaaaaaaaaaaaaaaaaaaaaaaaaaaaaaaaaaaaaaaaaaaaaaaaam#liiiiiiiiiiiii",
"iiiiiiii.maaeeeeeeeeeaaaaaaaaaaaaaaaaaaaaaaaaaaaaaaaaaaaaaaaaaaaaaaaaaaaaaaaaaaaaaaaec.biiiiiiiiiiii",
"iiiiiiii.meeeeeeeeeeeeeeaaaaaaaaaaaaaaaaaaaaaaaaaaaaaaaaaaaaaaaaaaaaaaaaaaaaaaaaaaaaaegfbiiiiiiiiiii",
"iiiiiiii.mmeeeeaaeaaaeeeeaaaaaaaaaaaaaaaaaaaaaaaaaaaaaaaaaaaaaaaaaaaaaaaaaaaaaaaaaaaaaddfiiiiiiiiiii",
"iiiiiiiijhmeeeeaaeaaeeeeeaaaaaaaaaaaaaaaaaaaaaaaaaaaaaaaaaaaaaaaaaaaaaaaaaaaaaaaaaaaaaaahlbiiiiiiiii",
"iiiiiiiibjgeeeeeeaaaeeeeaaaaaaaaaaaaaaaaaaaaaaaaaaaaaaaaaaaaaaaaaaaaaaaaaaaaaaaaaaaaaaaamkliiiiiiiii",
"iiiiiiiibbfh#eeeeeeaeeeeeaaaaaaaaaaaaaaaaaaaaaaaaaaaaaaaaaaaaaaaaaaaaaaaaaaaaaaaaaaaaaaamm.biiiiiiii",
"iiiiiiiiiibbhmeeeeeaeeeeeaaaaaaaaaaaaaaaaaaaaaaaaaaaaaaaaaaaaaaaaaaaaaaaaaaaaaaaaaaeaaaaaagjbiiiiiii",
"iiiiiiiiiiibj.geeeeaeeeeeeaaaaaaaaaaaaaaaaaaaaaaaaaaaaaaaaaaaaaaaaaaaaaaaaaaaaaaaaaaaaaaaaghjiiiiiii",
"iiiiiiiiiiiiii.maeeaeeeeeeaaaaaaaaaaaaaaaaaaaaaaaaaaaaaaaaaaaaaaaaaaaaaaaaaaaaaaaaaaaaaaaamgliiiiiii",
"iiiiiiiiiiiiiib.h#meeeeeeeeaaaaaaaaaaaaaaaaaaaaaaaaaaaaaaaaaaaaaaaaaaaaaaaaaaaaaaaaaaaaaaemhliiiiiii",
"iiiiiiiiiiiiiiiil.#`eaaaeeeeeeaaaaaaaaaaaaaaaaaaaaaaaaaaaaaaaaaaaaaaaaaaaaaaaaaaaaaaaaaaee#hliiiiiii",
"iiiiiiiiiiiiiiiibl.#meeeeeeeeeaaaaaaaaaaaaaaaaaaaaaaaaaaaaaaaaaaaaaaaaaaaaaaaaaaaaaaaaaagg.lbiiiiiii",
"iiiiiiiiiiiiiiiiiiblgeeeeeeeeeeaaaaaaaaaaaaaaaaaaaaaaaaaaaaaaaaaaaaaaaaaaaaaaaaaaaaaaaadhjbiiiiiiiii",
"iiiiiiiiiiiiiiiiiibb.gm`eeeeeeeeaaaaaaaaaaaaaaaaaaaaaaaaaaaaaaaaaaaaaaaaaaaaaaaaaammghhfjbbiiiiiiiii",
"iiiiiiiiiiiiiiiiiiiib.kc`eeeeeeeaaaaaaaaaaaaaaaaaaaaaaaaaaaaaaaaaaaaaaaaaaaaaaaeem#k.bbiiiiiiiiiiiii",
"iiiiiiiiiiiiiiiiiiiibbl.#eeeeeeeaaaaaaaaaaaaaaaaaaaaaaaaaaaaaaaaaaaaaaaaaaaaaammgh.lbbiiiiiiiiiiiiii",
"iiiiiiiiiiiiiiiiiiiiiiiihaaeeeeeaaaaaaaaaaaaaaaaaaaaaaaaaaaaaaaaaeaaaaaaaaaaaaghfbbiiiiiiiiiiiiiiiii",
"iiiiiiiiiiiiiiiiiiiiiiiilhmeeeeeeeaaaaaaaaaaaaaaaaaaaaaaaaaaaaaaaaaaaaaaaamgghfjbbiiiiiiiiiiiiiiiiii",
"iiiiiiiiiiiiiiiiiiiiiiiibbhc`eeeeeeeeaaaaaaaaaaaaaaaaaaaaaaaaaaaaaaaaaaaee#hliiiiiiiiiiiiiiiiiiiiiii",
"iiiiiiiiiiiiiiiiiiiiiiiiibl.gaeeeeeeeaaaaaaaaaaaaaaaaaaaaaaaaaaaaaaaaaaagg.jbiiiiiiiiiiiiiiiiiiiiiii",
"iiiiiiiiiiiiiiiiiiiiiiiiiiii.aaeeeeeeaaaaaaaaaaaaaaaaaaaaaaaaaaaaaaaaaadhjbiiiiiiiiiiiiiiiiiiiiiiiii",
"iiiiiiiiiiiiiiiiiiiiiiiiiiiib.gmmeeeaaaaaaaaaaaaaaaaaaaaaaaaaaaaaammghhfjbbiiiiiiiiiiiiiiiiiiiiiiiii",
"iiiiiiiiiiiiiiiiiiiiiiiiiiiiiil#meeaaaaaaaaaaaaaaaaaaaaaaaaaaaaeemmk.bbiiiiiiiiiiiiiiiiiiiiiiiiiiiii",
"iiiiiiiiiiiiiiiiiiiiiiiiiiiiiiblhmaaaaaaaaaaaaaaaaaaaaaaaaaaaamggh.lbbiiiiiiiiiiiiiiiiiiiiiiiiiiiiii",
"iiiiiiiiiiiiiiiiiiiiiiiiiiiiiiiijgdaaaaaaaaaaaaaaaaaaaaaaaaaaaghfbbiiiiiiiiiiiiiiiiiiiiiiiiiiiiiiiii",
"iiiiiiiiiiiiiiiiiiiiiiiiiiiiiiiibjh#meeaaaaaaaaaaaaaaaaammmghhfjbbiiiiiiiiiiiiiiiiiiiiiiiiiiiiiiiiii",
"iiiiiiiiiiiiiiiiiiiiiiiiiiiiiiiiiil.#`eeeaaaaaaaaaaaaaemmcklbiiiiiiiiiiiiiiiiiiiiiiiiiiiiiiiiiiiiiii",
"iiiiiiiiiiiiiiiiiiiiiiiiiiiiiiiiiibllh#eeaaaaaaaaaaaaaggh.lbbiiiiiiiiiiiiiiiiiiiiiiiiiiiiiiiiiiiiiii",
"iiiiiiiiiiiiiiiiiiiiiiiiiiiiiiiiiiiiibheeaaaaaaaaaaaadhfbiiiiiiiiiiiiiiiiiiiiiiiiiiiiiiiiiiiiiiiiiii",
"iiiiiiiiiiiiiiiiiiiiiiiiiiiiiiiiiiiiiilhmeeeeaaemmghffjbbiiiiiiiiiiiiiiiiiiiiiiiiiiiiiiiiiiiiiiiiiii",
"iiiiiiiiiiiiiiiiiiiiiiiiiiiiiiiiiiiiiibbhmmmmmmm#kliiiiiiiiiiiiiiiiiiiiiiiiiiiiiiiiiiiiiiiiiiiiiiiii",
"iiiiiiiiiiiiiiiiiiiiiiiiiiiiiiiiiiiiiiiblhgmghh.llbiiiiiiiiiiiiiiiiiiiiiiiiiiiiiiiiiiiiiiiiiiiiiiiii",
"iiiiiiiiiiiiiiiiiiiiiiiiiiiiiiiiiiiiiiiibb.ghjbiiiiiiiiiiiiiiiiiiiiiiiiiiiiiiiiiiiiiiiiiiiiiiiiiiiii",
"iiiiiiiiiiiiiiiiiiiiiiiiiiiiiiiiiiiiiiiiibbljbbiiiiiiiiiiiiiiiiiiiiiiiiiiiiiiiiiiiiiiiiiiiiiiiiiiiii",
"iiiiiiiiiiiiiiiiiiiiiiiiiiiiiiiiiiiiiiiiiiiiiiiiiiiiiiiiiiiiiiiiiiiiiiiiiiiiiiiiiiiiiiiiiiiiiiiiiiii",
"iiiiiiiiiiiiiiiiiiiiiiiiiiiiiiiiiiiiiiiiiiiiiiiiiiiiiiiiiiiiiiiiiiiiiiiiiiiiiiiiiiiiiiiiiiiiiiiiiiii",
"iiiiiiiiiiiiiiiiiiiiiiiiiiiiiiiiiiiiiiiiiiiiiiiiiiiiiiiiiiiiiiiiiiiiiiiiiiiiiiiiiiiiiiiiiiiiiiiiiiii",
"iiiiiiiiiiiiiiiiiiiiiiiiiiiiiiiiiiiiiiiiiiiiiiiiiiiiiiiiiiiiiiiiiiiiiiiiiiiiiiiiiiiiiiiiiiiiiiiiiiii",
"iiiiiiiiiiiiiiiiiiiiiiiiiiiiiiiiiiiiiiiiiiiiiiiiiiiiiiiiiiiiiiiiiiiiiiiiiiiiiiiiiiiiiiiiiiiiiiiiiiii",
"iiiiiiiiiiiiiiiiiiiiiiiiiiiiiiiiiiiiiiiiiiiiiiiiiiiiiiiiiiiiiiiiiiiiiiiiiiiiiiiiiiiiiiiiiiiiiiiiiiii",
"iiiiiiiiiiiiiiiiiiiiiiiiiiiiiiiiiiiiiiiiiiiiiiiiiiiiiiiiiiiiiiiiiiiiiiiiiiiiiiiiiiiiiiiiiiiiiiiiiiii",
"iiiiiiiiiiiiiiiiiiiiiiiiiiiiiiiiiiiiiiiiiiiiiiiiiiiiiiiiiiiiiiiiiiiiiiiiiiiiiiiiiiiiiiiiiiiiiiiiiiii",
"iiiiiiiiiiiiiiiiiiiiiiiiiiiiiiiiiiiiiiiiiiiiiiiiiiiiiiiiiiiiiiiiiiiiiiiiiiiiiiiiiiiiiiiiiiiiiiiiiiii",
"iiiiiiiiiiiiiiiiiiiiiiiiiiiiiiiiiiiiiiiiiiiiiiiiiiiiiiiiiiiiiiiiiiiiiiiiiiiiiiiiiiiiiiiiiiiiiiiiiiii",
"iiiiiiiiiiiiiiiiiiiiiiiiiiiiiiiiiiiiiiiiiiiiiiiiiiiiiiiiiiiiiiiiiiiiiiiiiiiiiiiiiiiiiiiiiiiiiiiiiiii",
"iiiiiiiiiiiiiiiiiiiiiiiiiiiiiiiiiiiiiiiiiiiiiiiiiiiiiiiiiiiiiiiiiiiiiiiiiiiiiiiiiiiiiiiiiiiiiiiiiiii",
"iiiiiiiiiiiiiiiiiiiiiiiiiiiiiiiiiiiiiiiiiiiiiiiiiiiiiiiiiiiiiiiiiiiiiiiiiiiiiiiiiiiiiiiiiiiiiiiiiiii",
"iiiiiiiiiiiiiiiiiiiiiiiiiiiiiiiiiiiiiiiiiiiiiiiiiiiiiiiiiiiiiiiiiiiiiiiiiiiiiiiiiiiiiiiiiiiiiiiiiiii",
"iiiiiiiiiiiiiiiiiiiiiiiiiiiiiiiiiiiiiiiiiiiiiiiiiiiiiiiiiiiiiiiiiiiiiiiiiiiiiiiiiiiiiiiiiiiiiiiiiiii"
};
