/* XPM */
static char *DVY_Screws_xpm[] = {
/* width height num_colors chars_per_pixel */
"    32    32       16            1",
/* colors */
"` c #292916",
". c #9f9058",
"# c #dac889",
"a c #beab6d",
"b c #5f562c",
"c c #80764a",
"d c #ffe8a4",
"e c #b8b19d",
"f c #cccecc",
"g c #4b4420",
"h c #91824e",
"i c #726538",
"j c #c9b99d",
"k c #e3d0ad",
"l c #ad9e6d",
"m c #cdbb7a",
/* pixels */
"ffffffffffffffffffffffffffffffff",
"fffffffffffffffffffaaeffffffffff",
"ffffffffffffffffffjlj#e#ffffffff",
"ffffffffffffffffffelajee#fffffff",
"ffffffffffffffffffj`bcjejkffffff",
"ffffffffffffffffffeg.bbljkkfffff",
"fffffffffffffffffffiamlbijkkffff",
"fffffffffffffffffffcik#jhbc#kfff",
"ffffffffffffffffff.bgck#kkehafff",
"fffffffffffffffff.hb``iakkk#aeff",
"ffffffffffffffff.ii.c``giek#a#ff",
"fffffffffffffff.iiaddc``bghkjjjf",
"fffffffffffffflibaddmgbbiccclajf",
"ffffffffffffflci.dd#hbi..jeeeejf",
"ffffffffffffeib.ddhbbbchffffffff",
"fffffffffff.hi.dd.``cchjffffffff",
"fffffffffffcciddc``calffffffffff",
"fffffffffllchddc``ilafffffffffff",
"ffffffffjbhhdda`blaeffffffffffff",
"fffffffejhiddi``caafffffffffffff",
"ffffffebhikd.`haleffffffffffffff",
"fffffffhckdiggaaefffffffffffffff",
"ffffebhimdhg.lmeffffffffffffffff",
"ffffjccmdc`b#ajfffffffffffffffff",
"ffji.cadig..meffffffffffffffffff",
"fff.hmd.`i#affffffffffffffffffff",
"fffcldcb..mjffffffffffffffffffff",
"ffchdmgcmlffffffffffffffffffffff",
"ffl#agc.mjffffffffffffffffffffff",
"ffclcileffffffffffffffffffffffff",
"ffejffffffffffffffffffffffffffff",
"ffffffffffffffffffffffffffffffff"
};
