/* XPM */
static char *DVY_RoofTile_1x3x25_xpm[] = {
/* width height num_colors chars_per_pixel */
"    64    64       32            1",
/* colors */
"` c #185a30",
". c #3eb561",
"# c #268b45",
"a c #588e6a",
"b c #9dc3a9",
"c c #3b8957",
"d c #b7e2c6",
"e c #3f704f",
"f c #e7ffff",
"g c #399e58",
"h c #1b7b3a",
"i c #2ba352",
"j c #5c9e71",
"k c #73b186",
"l c #307f4b",
"m c #d3ffde",
"n c #ffffff",
"o c #a6d2b3",
"p c #4cca70",
"q c #8ac29c",
"r c #7ba789",
"s c #cce8d4",
"t c #2f6a43",
"u c #88b594",
"v c #b9d8c1",
"w c #588064",
"x c #35a757",
"y c #62a878",
"z c #289349",
"A c #3e9559",
"B c #1d6b37",
"C c #407e53",
/* pixels */
"nnnnnnnnnnnnnnnnnnnnnnnnnnnnnnnnnnnnnnnnnnnnnnnnnnnnnnnnnnnnnnnn",
"nnnnnnnnnnnnnnnnnnnnnnnnnnnnnnnnnnnnnnnnnnnnnnnnnnnnnnnnnnnnnnnn",
"nnnnnnnnnnnnnnnnnnnnnnnnnnnnnnnnnnnnnnnnnnnnnnnnnnnnnnnnnnnnnnnn",
"nnnnnnnnnnnnnnnnnnnnnnnnnnnnnnnnnnnnnnnnnnnnnnnnnnnnnnnnnnnnnnnn",
"nnnnnnnnnnnnnnnnnnnnnnnnnnnnnnnnnnnnnnnnnnnnnnnnnnnnnnnnnnnnnnnn",
"nnnnnnnnnnnnnnnnnnnnnnnnnnnnnnnnnnnnnnnnnnnnnnnnnnnnnnnnnnnnnnnn",
"nnnnnnnnnnnnnnnnnnnnnnnnnnnnnnnnnnnnnnnnnnnnnnnnnnnnnnnnnnnnnnnn",
"nnnnnnnnnnnnnnnnnnnnnnnnnnnnnnnnnnnnnnnnnnnnnnnnnnnnnnnnnnnnnnnn",
"nnnnnnnnnnnnnnnnnnnnnnnnnnnnnnnnnnnnnnnnnnnnnnnnnnnnnnnnnnnnnnnn",
"nnnnnnnnnnnnnnnnnnnnnnnnnnnnnnnnnnnnnnnnnnnnnnnnnnnnnnnnnnnnnnnn",
"nnnnnnnnnnnnnnnnnnnffsvsfnnnnnnnnnnnnnnnnnnnnnnnnnnnnnnnnnnnnnnn",
"nnnnnnnnnnnnnnnnnfsdobrbvfnnnnnnnnnnnnnnnnnnnnnnnnnnnnnnnnnnnnnn",
"nnnnnnnnnnnnnnnffbwCCCttwbfnnnnnnnnnnnnnnnnnnnnnnnnnnnnnnnnnnnnn",
"nnnnnnnnnnnnnnmdueCcccBttermnnnnnnnnnnnnnnnnnnnnnnnnnnnnnnnnnnnn",
"nnnnnnnnnnnfsuraCthh##llltervfnnnnnnnnnnnnnnnnnnnnnnnnnnnnnnnnnn",
"nnnnnnnnnnsvuweBBlhhh###lB`Crvfnnnnnnnnnnnnnnnnnnnnnnnnnnnnnnnnn",
"nnnnnnnnnnbwttBBBzzz##zz#h`teadfnnnnnnnnnnnnnnnnnnnnnnnnnnnnnnnn",
"nnnnnnnnnfbCChhhhzx.pp.xzhBBBteofnnnnnnnnnnnnnnnnnnnnnnnnnnnnnnn",
"nnnnnnnnnfbCl#hhhzx....xz#hhBBlaosnnnnnnnnnnnnnnnnnnnnnnnnnnnnnn",
"nnnnnnnnnfbCl###h#zgxxxz#hhhh##ckofnnnnnnnnnnnnnnnnnnnnnnnnnnnnn",
"nnnnnnnnnfbCl#z#hhhh#z#hhhh#zixAAusnnnnnnnnnnnnnnnnnnnnnnnnnnnnn",
"nnnnnnnnnfbCl#####hhhhhh#zgiiixiAjqfnnnnnnnnnnnnnnnnnnnnnnnnnnnn",
"nnnnnnnnnfbCc######hhhzggzziiiiigAjvfnnnnnnnnnnnnnnnnnnnnnnnnnnn",
"nnnnnnnnnfbCc######zAzgggxxiiiiixgArmfnnnnnnnnnnnnnnnnnnnnnnnnnn",
"nnnnnnnnnfbCl######Agggggxxiiiiixggjdmnnnnnnnnnnnnnnnnnnnnnnnnnn",
"nnnnnnnnnfbCl######zzxxiiiiiixiiiizgkdfnnnnnnnnnnnnnnnnnnnnnnnnn",
"nnnnnnnnnfbC########zxxiiiiiiiiiiiixAudnnnnnnnnnnnnnnnnnnnnnnnnn",
"nnnnnnnnnfbC#########ixxxiiiiiiiiiiigjqmnnnnnnnnnnnnnnnnnnnnnnnn",
"nnnnnnnnnfbl#########zixxiiiiiiiiixigAyonnnnnnnnnnnnnnnnnnnnnnnn",
"nnnnnnnnnfbl###z#####zzxxiiiiiiiiiiixgAkmnnnnnnnnnnnnnnnnnnnnnnn",
"nnnnnnnnnfbCc#zz#####z#gxxixiiiiiiiiiggAofnnnnnnnnnnnnnnnnnnnnnn",
"nnnnnnnnnnvjCll#z#######zxixxiiiiiiiiiggjdmfnnnnnnnnnnnnnnnnnnnn",
"nnnnnnnnnnfskCl#########zixiiiiiiiiiiiigAqdfnnnnnnnnnnnnnnnnnnnn",
"nnnnnnnnnnnfvycc########zzxiiiiiiiiiiiiiAybsnnnnnnnnnnnnnnnnnnnn",
"nnnnnnnnnnnnfvrac#########xxiiiiiixiiiiixAkofnnnnnnnnnnnnnnnnnnn",
"nnnnnnnnnnnnnfsbcc########zxxiiiiixiiiiixgAymfnnnnnnnnnnnnnnnnnn",
"nnnnnnnnnnnnnnfmdacc#######zxiiiiiiiiiiiiggjqmfnnnnnnnnnnnnnnnnn",
"nnnnnnnnnnnnnnnfmojc#######zixiiiiiiiiiiixggydmfnnnnnnnnnnnnnnnn",
"nnnnnnnnnnnnnnnnnfbyA#######zxiiiiiiiiiiixxgAqsfnnnnnnnnnnnnnnnn",
"nnnnnnnnnnnnnnnnnnfvkc#######zxiiiiiiiiiiiiigjomnnnnnnnnnnnnnnnn",
"nnnnnnnnnnnnnnnnnnnfsqCll####ziiiiiiiiiixiiiigybfnnnnnnnnnnnnnnn",
"nnnnnnnnnnnnnnnnnnnnfsbalc####z.xiiiiiiiiiiiixgkdfnnnnnnnnnnnnnn",
"nnnnnnnnnnnnnnnnnnnnnfsqjc#####xxxiiiiiiixiiixgjqfnnnnnnnnnnnnnn",
"nnnnnnnnnnnnnnnnnnnnnnfsoac###zzxxxiiiiixxiiixgAysfnnnnnnnnnnnnn",
"nnnnnnnnnnnnnnnnnnnnnnnnfsac####zgxxiiiixxiiiixgAksnnnnnnnnnnnnn",
"nnnnnnnnnnnnnnnnnnnnnnnnnfmyAc#z#zxxixxixiixiiixgAosnnnnnnnnnnnn",
"nnnnnnnnnnnnnnnnnnnnnnnnnnfdqjc##zixiiiixiiiiiiigAkvfnnnnnnnnnnn",
"nnnnnnnnnnnnnnnnnnnnnnnnnnnfsqjl##zxiiiiiiiiiiiigAjofnnnnnnnnnnn",
"nnnnnnnnnnnnnnnnnnnnnnnnnnnnnmbwc##iiiiiiiiiixiigAjofnnnnnnnnnnn",
"nnnnnnnnnnnnnnnnnnnnnnnnnnnnnnfval#zxxiiixiixgggAckdfnnnnnnnnnnn",
"nnnnnnnnnnnnnnnnnnnnnnnnnnnnnnnfduC#ziiixiixgAAjqdsfnnnnnnnnnnnn",
"nnnnnnnnnnnnnnnnnnnnnnnnnnnnnnnnfduc#gxxiiggAkqodmfnnnnnnnnnnnnn",
"nnnnnnnnnnnnnnnnnnnnnnnnnnnnnnnnnfsycAgxiggjkosfnnnnnnnnnnnnnnnn",
"nnnnnnnnnnnnnnnnnnnnnnnnnnnnnnnnnnffrjAAAyqdfnnnnnnnnnnnnnnnnnnn",
"nnnnnnnnnnnnnnnnnnnnnnnnnnnnnnnnnnnfmdqqdmffnnnnnnnnnnnnnnnnnnnn",
"nnnnnnnnnnnnnnnnnnnnnnnnnnnnnnnnnnnnfmssffnnnnnnnnnnnnnnnnnnnnnn",
"nnnnnnnnnnnnnnnnnnnnnnnnnnnnnnnnnnnnnffnnnnnnnnnnnnnnnnnnnnnnnnn",
"nnnnnnnnnnnnnnnnnnnnnnnnnnnnnnnnnnnnnnnnnnnnnnnnnnnnnnnnnnnnnnnn",
"nnnnnnnnnnnnnnnnnnnnnnnnnnnnnnnnnnnnnnnnnnnnnnnnnnnnnnnnnnnnnnnn",
"nnnnnnnnnnnnnnnnnnnnnnnnnnnnnnnnnnnnnnnnnnnnnnnnnnnnnnnnnnnnnnnn",
"nnnnnnnnnnnnnnnnnnnnnnnnnnnnnnnnnnnnnnnnnnnnnnnnnnnnnnnnnnnnnnnn",
"nnnnnnnnnnnnnnnnnnnnnnnnnnnnnnnnnnnnnnnnnnnnnnnnnnnnnnnnnnnnnnnn",
"nnnnnnnnnnnnnnnnnnnnnnnnnnnnnnnnnnnnnnnnnnnnnnnnnnnnnnnnnnnnnnnn",
"nnnnnnnnnnnnnnnnnnnnnnnnnnnnnnnnnnnnnnnnnnnnnnnnnnnnnnnnnnnnnnnn"
};
