/* XPM */
static char *DVY_Brick_2x8_xpm[] = {
/* width height num_colors chars_per_pixel */
"   100   100       16            1",
/* colors */
"` c #700000",
". c #c99190",
"# c #a14f50",
"a c #ab0000",
"b c #ffd1cf",
"c c #a82b2c",
"d c #8a2e30",
"e c #b47070",
"f c #dcaeac",
"g c #ffffff",
"h c #ca7372",
"i c #bf5254",
"j c #8a0000",
"k c #e59494",
"l c #be2c30",
"m c #ffb5b5",
/* pixels */
"gggggggggggggggggggggggggggggggggggggggggggggggggggggggggggggggggggggggggggggggggggggggggggggggggggg",
"gggggggggggggggggggggggggggggggggggggggggggggggggggggggggggggggggggggggggggggggggggggggggggggggggggg",
"gggggggggggggggggggggggggggggggggggggggggggggggggggggggggggggggggggggggggggggggggggggggggggggggggggg",
"gggggggggggggggggggggggggggggggggggggggggggggggggggggggggggggggggggggggggggggggggggggggggggggggggggg",
"gggggggggggggggggggggggggggggggggggggggggggggggggggggggggggggggggggggggggggggggggggggggggggggggggggg",
"gggggggggggggggggggggggggggggggggggggggggggggggggggggggggggggggggggggggggggggggggggggggggggggggggggg",
"gggggggggggggggggggggggggggggggggggggggggggggggggggggggggggggggggggggggggggggggggggggggggggggggggggg",
"gggggggggggggggggggggggggggggggggggggggggggggggggggggggggggggggggggggggggggggggggggggggggggggggggggg",
"gggggggggggggggggggggggggggggggggggggggggggggggggggggggggggggggggggggggggggggggggggggggggggggggggggg",
"gggggggggggggggggggggggggggggggggggggggggggggggggggggggggggggggggggggggggggggggggggggggggggggggggggg",
"gggggggggggggggggggggggggggggggggggggggggggggggggggggggggggggggggggggggggggggggggggggggggggggggggggg",
"gggggggggggggggggggggggggggggggggggggggggggggggggggggggggggggggggggggggggggggggggggggggggggggggggggg",
"gggggggggggggggggggggggggggggggggggggggggggggggggggggggggggggggggggggggggggggggggggggggggggggggggggg",
"gggggggggggggggggggggggggggggggggggggggggggggggggggggggggggggggggggggggggggggggggggggggggggggggggggg",
"gggggggggggggggggggggggggggggggggggggggggggggggggggggggggggggggggggggggggggggggggggggggggggggggggggg",
"gggggggggggggggggggggggggggggggggggggggggggggggggggggggggggggggggggggggggggggggggggggggggggggggggggg",
"gggggggggggggggggggggggggggggggggggggggggggggggggggggggggggggggggggggggggggggggggggggggggggggggggggg",
"gggggggggggggggggggggggggggggggggggggggggggggggggggggggggggggggggggggggggggggggggggggggggggggggggggg",
"gggggggggggggggggggggggggggggggggggggggggggggggggggggggggggggggggggggggggggggggggggggggggggggggggggg",
"gggggggggggggggggggggggggggggggggggggggggggggggggggggggggggggggggggggggggggggggggggggggggggggggggggg",
"gggggggggggggggggggggggggggggggggggggggggggggggggggggggggggggggggggggggggggggggggggggggggggggggggggg",
"gggggggggggggggggggggggggggggggggggggggggggggggggggggggggggggggggggggggggggggggggggggggggggggggggggg",
"gggggggggggggggggggggggggggggggggggggggggggggggggggggggggggggggggggggggggggggggggggggggggggggggggggg",
"gggggggggggggggggggggggggggggggggggggggggggggggggggggggggggggggggggggggggggggggggggggggggggggggggggg",
"gggggggggggggggggggggggggggggggggggggggggggggggggggggggggggggggggggggggggggggggggggggggggggggggggggg",
"gggggggggggggggggggggggggggggggggggggggggggggggggggggggggggggggggggggggggggggggggggggggggggggggggggg",
"gggggggggggggggggggggggggggggggggggggggggggggggggggggggggggggggggggggggbbbbggggggggggggggggggggggggg",
"ggggggggggggggggggggggggggggggggggggggggggggggggggggggggggggggggggggggbbf.bggggggggggggggggggggggggg",
"gggggggggggggggggggggggggggggggggggggggggggggggggggggggggggggggggggbff.ee#e.fbgggggggggggggggggggggg",
"ggggggggggggggggggggggggggggggggggggggggggggggggggggggggggggggggggbm.#d``ddd.bbggggggggggggggggggggg",
"ggggggggggggggggggggggggggggggggggggggggggggggggggggggggggggggbff.he#ddddddd#ekbbggggggggggggggggggg",
"gggggggggggggggggggggggggggggggggggggggggggggggggggggggggggggbfe#dd```dcccjj``#fbggggggggggggggggggg",
"gggggggggggggggggggggggggggggggggggggggggggggggggggggggggbbf.h##cdd```jjccjjjjd#.fbggggggggggggggggg",
"ggggggggggggggggggggggggggggggggggggggggggggggggggggggggbbfe#d`jjcjj``jjjajjjj``#hfggggggggggggggggg",
"ggggggggggggggggggggggggggggggggggggggggggggggggggggbbf.ee#dd`jjccjjj`jjjjjjjjjdd#e.fggggggggggggggg",
"ggggggggggggggggggggggggggggggggggggggggggggggggggggbfedd`````jcccajjjjjjjjjjcccj`dd.bgggggggggggggg",
"gggggggggggggggggggggggggggggggggggggggggggggggbbff.e#ddddj```jjaajjjjjjjjjjjaccjjddefbggggggggggggg",
"ggggggggggggggggggggggggggggggggggggggggggggggbf.h#d```dclcjjjjjjjjjjjjajjjjjaaaaaj`#.fggggggggggggg",
"ggggggggggggggggggggggggggggggggggggggggggbbffhe##d````jccjjjjjjjjjjjaacajjjaaaaaajji.mggggggggggggg",
"ggggggggggggggggggggggggggggggggggggggggggbfh#d`jdj```jjjcjjjjjjjjjjacclaaajaaaaaaajikmggggggggggggg",
"ggggggggggggggggggggggggggggggggggggggbff.e##ddjccjjj`jjjjjjjjjjjjjjaaaaaaaaaaaaaaaaikmggggggggggggg",
"ggggggggggggggggggggggggggggggggggggbbfe#dd```jccccjjjjjjjjjjjjajjjjjaaaaaaaaaaaaaaaikbggggggggggggg",
"ggggggggggggggggggggggggggggggggbbmf.e#ddd````jaccajjjjjjjjjjaccajjjjaaaaaaaaaaaaaaaikbggggggggggggg",
"ggggggggggggggggggggggggggggggggbm.ed```jcj```jjjjjjjjjjjjjjacclcaajaaaaaaaaaaaaaaajikbggggggggggggg",
"ggggggggggggggggggggggggggggbbf.ee#dd`jjccajjjjjjjjjjaaaajjjjaacaaaaaaaaaaaaaaaaaaajhmbggggggggggggg",
"ggggggggggggggggggggggggggggf.#dd`````jcllcjjjjjjjjjjaccaajjjjaaaaaaaaaaaaaaaaaaaaddhbbggggggggggggg",
"ggggggggggggggggggggggbbbf..e#cddjj```jaacjjjjjjjjjjjaccaaaaaaaaaaaaaaaaaaaaaacclihhfbgggggggggggggg",
"ggggggggggggggggggggggbmke#d``jcccj````jjjjjjjaajjjjaaccaaaaaaaaaaaaaaaaaaaaacccikfbgggggggggggggggg",
"ggggggggggggggggggbbf.he##d```jcccjj``jjjjjjjaacajjjjaaaaaaaaaaaaaaaaaaaaacciih.fmbggggggggggggggggg",
"ggggggggggggggggggbfe#dd`j``jjaccajjjjjjjjjjaaclajjjjjaaaaaaaaaaaaaaaaaaajcihkmggggggggggggggggggggg",
"gggggggggggggbbff.e##dddjjj`jjjaajjjjjjjjjjjjaaaaaaaaaaaaaaaaaaaaaaaaaclih.kmbbggggggggggggggggggggg",
"ggggggggggggbmke#d```jjccajjjjjjjjjjjjjjjjjjjaaaaaaaaaaaaaaaaaaaaaaajd#hkbbggggggggggggggggggggggggg",
"gggggggggbff.e##ddj`jjjccajjjjjjjjjjacccjjjjjaaaaaaaaaaaaaaaaaaaccliih.fbbgggggggggggggggggggggggggg",
"ggggggggbf.ed``jjjjjjjacaajjjjjjj`jjclccajjjjaaaaaaaaaaaaaaaaaaaccihmbbggggggggggggggggggggggggggggg",
"ggggggggfe#ddjdcjjjjjjjjjjjjjjjjjjjjacaaaaaaaaaaaaaaaaaaaaaacccih.kmbbgggggggggggggggggggggggggggggg",
"gggggggg.dd`jaclcjjjjjjjjjjjjajjjjjjjaaaaaaaaaaaaaaaaaaaaaacc#hkmbgggggggggggggggggggggggggggggggggg",
"gggggggg.dd`jaacajjjjjjjjjjjaccajjjjaaaaaaaaaaaaaaaaaaaacliih.fbbggggggggggggggggggggggggggggggggggg",
"gggggggg.ddjjaaaajjjjjjjjjjacllaajaaaaaaaaaaaaaaaaaaaaaalikmbggggggggggggggggggggggggggggggggggggggg",
"gggggggg.ddjjjaajjjjjajjjjjaacaaaaaaaaaaaaaaaaaaaaacclihkfmbbggggggggggggggggggggggggggggggggggggggg",
"gggggggg.#djjjjjjjjaacajjjjajjaaaaaaaaaaaaaaaaaaaajd#hfbbggggggggggggggggggggggggggggggggggggggggggg",
"gggggggg.#djjjjajjaaccaajjaaaaaaaaaaaaaaaaaaaacclihh.fbbgggggggggggggggggggggggggggggggggggggggggggg",
"gggggggg.#djjaaaaaaaclaaaaaaaaaaaaaaaaaaaaaaacccikmbgggggggggggggggggggggggggggggggggggggggggggggggg",
"ggggggggf#d`jaaaaaaaaaaaaaaaaaaaaaaaaaaaaacciih.fmbggggggggggggggggggggggggggggggggggggggggggggggggg",
"ggggggggf#d`jjaaaaaaaaaaaaaaaaaaaaaaaaaaajc#hfbggggggggggggggggggggggggggggggggggggggggggggggggggggg",
"ggggggggbfeddjjaaaaaaaaaaaaaaaaaaaaaaaclih.kfbbggggggggggggggggggggggggggggggggggggggggggggggggggggg",
"gggggggggb.#djjaaaaaaaaaaaaaaaaaaaaacclikmbggggggggggggggggggggggggggggggggggggggggggggggggggggggggg",
"ggggggggggf.eddjjaaaaaaaaaaaaaaaacciih.fmbbggggggggggggggggggggggggggggggggggggggggggggggggggggggggg",
"ggggggggggggk#djjaaaaaaaaaaaaaaaccihfbgggggggggggggggggggggggggggggggggggggggggggggggggggggggggggggg",
"ggggggggggggbkeccjaaaaaaaaaacclih.kfbggggggggggggggggggggggggggggggggggggggggggggggggggggggggggggggg",
"gggggggggggggbficjjaaaaaaaaaclhkmbgggggggggggggggggggggggggggggggggggggggggggggggggggggggggggggggggg",
"ggggggggggggggbfedccaaaccciihkfmbggggggggggggggggggggggggggggggggggggggggggggggggggggggggggggggggggg",
"ggggggggggggggggfe#djjjd#i.mbggggggggggggggggggggggggggggggggggggggggggggggggggggggggggggggggggggggg",
"ggggggggggggggggbfh###ih.fmbbggggggggggggggggggggggggggggggggggggggggggggggggggggggggggggggggggggggg",
"ggggggggggggggggggfhhhfbbggggggggggggggggggggggggggggggggggggggggggggggggggggggggggggggggggggggggggg",
"ggggggggggggggggggbfffbbgggggggggggggggggggggggggggggggggggggggggggggggggggggggggggggggggggggggggggg",
"gggggggggggggggggggggggggggggggggggggggggggggggggggggggggggggggggggggggggggggggggggggggggggggggggggg",
"gggggggggggggggggggggggggggggggggggggggggggggggggggggggggggggggggggggggggggggggggggggggggggggggggggg",
"gggggggggggggggggggggggggggggggggggggggggggggggggggggggggggggggggggggggggggggggggggggggggggggggggggg",
"gggggggggggggggggggggggggggggggggggggggggggggggggggggggggggggggggggggggggggggggggggggggggggggggggggg",
"gggggggggggggggggggggggggggggggggggggggggggggggggggggggggggggggggggggggggggggggggggggggggggggggggggg",
"gggggggggggggggggggggggggggggggggggggggggggggggggggggggggggggggggggggggggggggggggggggggggggggggggggg",
"gggggggggggggggggggggggggggggggggggggggggggggggggggggggggggggggggggggggggggggggggggggggggggggggggggg",
"gggggggggggggggggggggggggggggggggggggggggggggggggggggggggggggggggggggggggggggggggggggggggggggggggggg",
"gggggggggggggggggggggggggggggggggggggggggggggggggggggggggggggggggggggggggggggggggggggggggggggggggggg",
"gggggggggggggggggggggggggggggggggggggggggggggggggggggggggggggggggggggggggggggggggggggggggggggggggggg",
"gggggggggggggggggggggggggggggggggggggggggggggggggggggggggggggggggggggggggggggggggggggggggggggggggggg",
"gggggggggggggggggggggggggggggggggggggggggggggggggggggggggggggggggggggggggggggggggggggggggggggggggggg",
"gggggggggggggggggggggggggggggggggggggggggggggggggggggggggggggggggggggggggggggggggggggggggggggggggggg",
"gggggggggggggggggggggggggggggggggggggggggggggggggggggggggggggggggggggggggggggggggggggggggggggggggggg",
"gggggggggggggggggggggggggggggggggggggggggggggggggggggggggggggggggggggggggggggggggggggggggggggggggggg",
"gggggggggggggggggggggggggggggggggggggggggggggggggggggggggggggggggggggggggggggggggggggggggggggggggggg",
"gggggggggggggggggggggggggggggggggggggggggggggggggggggggggggggggggggggggggggggggggggggggggggggggggggg",
"gggggggggggggggggggggggggggggggggggggggggggggggggggggggggggggggggggggggggggggggggggggggggggggggggggg",
"gggggggggggggggggggggggggggggggggggggggggggggggggggggggggggggggggggggggggggggggggggggggggggggggggggg",
"gggggggggggggggggggggggggggggggggggggggggggggggggggggggggggggggggggggggggggggggggggggggggggggggggggg",
"gggggggggggggggggggggggggggggggggggggggggggggggggggggggggggggggggggggggggggggggggggggggggggggggggggg",
"gggggggggggggggggggggggggggggggggggggggggggggggggggggggggggggggggggggggggggggggggggggggggggggggggggg",
"gggggggggggggggggggggggggggggggggggggggggggggggggggggggggggggggggggggggggggggggggggggggggggggggggggg",
"gggggggggggggggggggggggggggggggggggggggggggggggggggggggggggggggggggggggggggggggggggggggggggggggggggg",
"gggggggggggggggggggggggggggggggggggggggggggggggggggggggggggggggggggggggggggggggggggggggggggggggggggg"
};
