/* XPM */
static char *DVY_DoorKnobRt_4x5_xpm[] = {
/* width height num_colors chars_per_pixel */
"   100   100       16            1",
/* colors */
"` c #7a0000",
". c #cb8f8e",
"# c #ab4e4e",
"a c #c10000",
"b c #ffd1cf",
"c c #a03031",
"d c #c23032",
"e c #b8706f",
"f c #ffafad",
"g c #ffffff",
"h c #cc5252",
"i c #d16f6e",
"j c #ff9292",
"k c #ff2526",
"l c #a10000",
"m c #e41a1c",
/* pixels */
"gggggggggggggggggggggggggggggggggggggggggggggggggggggggggggggggggggggggggggggggggggggggggggggggggggg",
"gggggggggggggggggggggggggggggggggggggggggggggggggggggggggggggggggggggggggggggggggggggggggggggggggggg",
"gggggggggggggggggggggggggggggggggggggggggggggggggggggggggggggggggggggggggggggggggggggggggggggggggggg",
"gggggggggggggggggggggggggggggggggggggggggggggggggggggggggggggggggggggggggggggggggggggggggggggggggggg",
"gggggggggggggggggggggggggggggggggggggggggggggggggggggggggggggggggggggggggggggggggggggggggggggggggggg",
"gggggggggggggggggggggggggggggggggggggggggggggggggggggggggggggggggggggggggggggggggggggggggggggggggggg",
"gggggggggggggggggggggggggggggggggggggggggggggggggggggggggggggggggggggggggggggggggggggggggggggggggggg",
"gggggggggggggggggggggggggggggggggggggggggggggggggggggggggggggggggggggggggggggggggggggggggggggggggggg",
"ggggggggggggggggggggggggggggggggggggggggggggggggggggggggggggbbff.fffbggggggggggggggggggggggggggggggg",
"ggggggggggggggggggggggggggggggggggggggggggggggggggggggggggbbf.eeeee.fbgggggggggggggggggggggggggggggg",
"ggggggggggggggggggggggggggggggggggggggggggggggggggggggbbf..e##ccccc#e.bggggggggggggggggggggggggggggg",
"ggggggggggggggggggggggggggggggggggggggggggggggggggggggbf.#c`````````c#.ggggggggggggggggggggggggggggg",
"ggggggggggggggggggggggggggggggggggggggggggggggggggbb..e##c``````````c#.ggggggggggggggggggggggggggggg",
"gggggggggggggggggggggggggggggggggggggggggggggggggbf.#c```````lllllllc#.ggggggggggggggggggggggggggggg",
"gggggggggggggggggggggggggggggggggggggggggggggbf..e##c``````llllaaaaldh.ggggggggggggggggggggggggggggg",
"ggggggggggggggggggggggggggggggggggggggggggggbf.#c`````````llllammmmadhfggggggggggggggggggggggggggggg",
"gggggggggggggggggggggggggggggggggggggggbbf..e##cc```````lllllaammmmadhfggggggggggggggggggggggggggggg",
"ggggggggggggggggggggggggggggggggggggggbbfe#c```````````lllllaammmmmadhfggggggggggggggggggggggggggggg",
"ggggggggggggggggggggggggggggggggggbbf..e#cc````l````ccccclllaammmmmadhfggggggggggggggggggggggggggggg",
"ggggggggggggggggggggggggggggggggggbfe#c````````ll``c#ihhclllaammmkmadifggggggggggggggggggggggggggggg",
"ggggggggggggggggggggggggggggbbff..e##c````````ccc##e.fihdllaaammmmmadifggggggggggggggggggggggggggggg",
"ggggggggggggggggggggggggggggb..e#c```````````ccchifbbgfhdllaaammmmmldifggggggggggggggggggggggggggggg",
"ggggggggggggggggggggggggggb.e###cc```````cc##i..ffbgggfhdllaaammmmmldifggggggggggggggggggggggggggggg",
"gggggggggggggggggggggggggg.#c`cdccl````ccc#e.bbgggggggfhcllaaammmmml#ifggggggggggggggggggggggggggggg",
"ggggggggggggggggggggggggb.ecc`lclll```che..fbbggggggggfhdllaaammmmml#ifggggggggggggggggggggggggggggg",
"gggggggggggggggggggggggg.ec``llllall``#.fbbgggggggggggfhdllaaammmmmlhifggggggggggggggggggggggggggggg",
"gggggggggggggggggggggggg.#c``lamaal```#fbgggggggggggggfhdllaaammmmmlh.fggggggggggggggggggggggggggggg",
"gggggggggggggggggggggggg.#c`lldddll```ebbgggggggggggggf#claaaammmmmlh.fggggggggggggggggggggggggggggg",
"gggggggggggggggggggggggg.#c`llamall```ebggggggggggggggf#cllaaammmmmlh.fggggggggggggggggggggggggggggg",
"gggggggggggggggggggggggg.#cllaaallll`c.ggggggggggggggg.#cllaaammmmmlhjbggggggggggggggggggggggggggggg",
"gggggggggggggggggggggggg.#clammmaacc#efggggggggggggggg.#cllaaammmmmlhjbggggggggggggggggggggggggggggg",
"gggggggggggggggggggggggg.#clmmmkmdd#.bbggggggggggggggg.#cllaaamkmmalhjbggggggggggggggggggggggggggggg",
"gggggggggggggggggggggggg.#clmmmkmddh.bgggggggggggggggg.#cllaaamkmmalhjbggggggggggggggggggggggggggggg",
"gggggggggggggggggggggggg.#clmmmkmdhifggggggggggggggggg.#cllaaamkmmalhjbggggggggggggggggggggggggggggg",
"gggggggggggggggggggggggg.#clmmmkmmhifggggggggggggggggg.#claaaammmmalhjbggggggggggggggggggggggggggggg",
"gggggggggggggggggggggggg.#clmmkkmmhifggggggggggggggggg.#claaaammmmalhjbggggggggggggggggggggggggggggg",
"gggggggggggggggggggggggg.#clmmkkmmdhfggggggggggggggggg.cclaaaammmmalhfbggggggggggggggggggggggggggggg",
"gggggggggggggggggggggggg.#clmmkkmmdhfggggggggggggggggg.cclaaaammmmalhfbggggggggggggggggggggggggggggg",
"gggggggggggggggggggggggg.#clmmkkmmdhfggggggggggggggggg.cclaaaammmmalifbggggggggggggggggggggggggggggg",
"gggggggggggggggggggggggg.#clmmmkmmdifggggggggggggggggg.ccllaaamkmmalifbggggggggggggggggggggggggggggg",
"gggggggggggggggggggggggg.#clmmmkmmdifggggggggggggggggg.cclllaamkmmalifbggggggggggggggggggggggggggggg",
"gggggggggggggggggggggggg.#clmmmkmmdifggggggggggggggggg.cclllaamkmmalifbggggggggggggggggggggggggggggg",
"gggggggggggggggggggggggg.#clmmmkmmdhfggggggggggggggggg.cclllaammmmalifbggggggggggggggggggggggggggggg",
"gggggggggggggggggggggggg.#cammmkmmdhfggggggggggggggggg.ccallaammmmclifbggggggggggggggggggggggggggggg",
"gggggggggggggggggggggggg.#cammmkmmdhfggggggggggggggggbiclallaammmmccibbggggggggggggggggggggggggggggg",
"gggggggggggggggggggggggg.#cammmkmmhifgggggggggggggggbbillallaammmmccibbggggggggggggggggggggggggggggg",
"ggggggggggggggggggggggggfeclmmmkmmhifgggggggggggggbb.i#llallllamaalcibbggggggggggggggggggggggggggggg",
"ggggggggggggggggggggggggfeclammkmmhifgggggggggggggf.hcllaalllllllllcibbggggggggggggggggggggggggggggg",
"ggggggggggggggggggggggggfeclammkmmhifggggggggbbf..e#ccllllllllllllllibbggggggggggggggggggggggggggggg",
"ggggggggggggggggggggggggfeclammkmmhifgggggggbb.e#````llllllllllaalllebbggggggggggggggggggggggggggggg",
"ggggggggggggggggggggggggfeclammkmmhifgggbbf..e##c```llllllllllaaaallebgggggggggggggggggggggggggggggg",
"ggggggggggggggggggggggggfeclamkkmmdifgggbfi#c````llll`lllllllaammallibgggggggggggggggggggggggggggggg",
"ggggggggggggggggggggggggfeclammkmmdh.f..e##cc``llllllllllllaaammmdllibgggggggggggggggggggggggggggggg",
"ggggggggggggggggggggggggfeclammmmmdhii#cc``llllllllllllllaaaaammmmclibgggggggggggggggggggggggggggggg",
"ggggggggggggggggggggggggfeclammkmmddd#cc````lllllllllllaaaaaaammmmllibgggggggggggggggggggggggggggggg",
"ggggggggggggggggggggggggfeclammkmmall````````llllllaaaaaaaaaaammmallibgggggggggggggggggggggggggggggg",
"ggggggggggggggggggggggggfeclammkmmalllllllllllllllaaaaaaaaaaaammmalcibgggggggggggggggggggggggggggggg",
"ggggggggggggggggggggggggfeclammkmmaalllllllllllaaaaaaaaaaaaaammkmalc.bgggggggggggggggggggggggggggggg",
"ggggggggggggggggggggggggfeclammkmmaallllllllllaaaaaaaaaaaaaaammkmacc.bgggggggggggggggggggggggggggggg",
"ggggggggggggggggggggggggfeclammkmmaallllllaaaaaaaaaaaaaaaaaaammkmadc.ggggggggggggggggggggggggggggggg",
"ggggggggggggggggggggggggfeclammkmmaaalllllaaaaaaaaaaaaaaaaaaammkmadc.ggggggggggggggggggggggggggggggg",
"ggggggggggggggggggggggggfeclammkmmaaaaaaaaaaaaaaaaaaaaaaaaaaammkmacc.ggggggggggggggggggggggggggggggg",
"ggggggggggggggggggggggggfeclammkmmmaaaaaaaaaaaaaaaaaaaaaaaaaammkmacc.ggggggggggggggggggggggggggggggg",
"ggggggggggggggggggggggggfedlammkmmmaaaaaaaaaaaaaaaaaaaaaaaaaammkmadc.ggggggggggggggggggggggggggggggg",
"ggggggggggggggggggggggggfedlammkmmmaaaaaaaaaaaaaaaaaaaaaaaaaammkmadc.ggggggggggggggggggggggggggggggg",
"ggggggggggggggggggggggggfedlammkmmmaaaaaaaaaaaaaaaaaaaaaaaaaaammmad#.ggggggggggggggggggggggggggggggg",
"ggggggggggggggggggggggggfe#lammkmmmaaaaaaaaaaaaaaaaaaaaaaaaaaammmad#.ggggggggggggggggggggggggggggggg",
"ggggggggggggggggggggggggfe#lammkmmmaaaaaaaaaaaaaaaaaaaaaaaaaammmmad#.ggggggggggggggggggggggggggggggg",
"ggggggggggggggggggggggggfe#lammkmmmaaaaaaaaaaaaaaaaaaaaaaaaaammmmad#.ggggggggggggggggggggggggggggggg",
"ggggggggggggggggggggggggfe#lammkmmmaaaaaaaaaaaaaaaaaaaaaaaaaammmmad#.ggggggggggggggggggggggggggggggg",
"ggggggggggggggggggggggggfe#lammkmmmaaaaaaaaaaaaaaaaaaaaaaaaaamdddlc#.ggggggggggggggggggggggggggggggg",
"ggggggggggggggggggggggggfe#lammkmmmaaaaaaaaaaaaaaaaaaaaaaaaaaddddlc#.ggggggggggggggggggggggggggggggg",
"ggggggggggggggggggggggggfe#lammkmmmaaaaaaaaaaaaaaaaaaaaaaaddhhiih#eefggggggggggggggggggggggggggggggg",
"ggggggggggggggggggggggggfe#lammkmmmaaaaaaaaaaaaaaaaaaalllldhijjj.e..bggggggggggggggggggggggggggggggg",
"ggggggggggggggggggggggggfe#lammkmmmaaaaaaaaaaaaaaallllcdhi.jfbbbfffbbggggggggggggggggggggggggggggggg",
"ggggggggggggggggggggggggfe#lammkmmmaaaaaaaaaaaaaalllcc#e.bbggggggggggggggggggggggggggggggggggggggggg",
"ggggggggggggggggggggggggfe#lammkmmmaaaaaaaaaallllcd#hi.fbbgggggggggggggggggggggggggggggggggggggggggg",
"ggggggggggggggggggggggggfe#lammkmmmaaaaaaaalllllcc#ifbbggggggggggggggggggggggggggggggggggggggggggggg",
"ggggggggggggggggggggggggfe#lammkmmmaaaaaalllcc#he..fbbgggggggggggggggggggggggggggggggggggggggggggggg",
"ggggggggggggggggggggggggfe#lammkmmmaaaaaallccce.fbgggggggggggggggggggggggggggggggggggggggggggggggggg",
"ggggggggggggggggggggggggfe#lammkmmmaaaalcc#ii.fbbggggggggggggggggggggggggggggggggggggggggggggggggggg",
"ggggggggggggggggggggggggfi#lammkmmmaaallc#ifbggggggggggggggggggggggggggggggggggggggggggggggggggggggg",
"ggggggggggggggggggggggggfe#lammkmmaaddhii.fbbggggggggggggggggggggggggggggggggggggggggggggggggggggggg",
"ggggggggggggggggggggggggfe#lmmmkmmaldh.bbggggggggggggggggggggggggggggggggggggggggggggggggggggggggggg",
"ggggggggggggggggggggggggfe#lammkmmaldifbbggggggggggggggggggggggggggggggggggggggggggggggggggggggggggg",
"ggggggggggggggggggggggggf.#lammkmmmlhjfggggggggggggggggggggggggggggggggggggggggggggggggggggggggggggg",
"ggggggggggggggggggggggggfe#ldmmkmmalc#.ggggggggggggggggggggggggggggggggggggggggggggggggggggggggggggg",
"ggggggggggggggggggggggggfe#cdmmmmmal`c.ggggggggggggggggggggggggggggggggggggggggggggggggggggggggggggg",
"ggggggggggggggggggggggggfe#cdmmmmmal``.ggggggggggggggggggggggggggggggggggggggggggggggggggggggggggggg",
"ggggggggggggggggggggggggb.#`ldmkmmal``.ggggggggggggggggggggggggggggggggggggggggggggggggggggggggggggg",
"ggggggggggggggggggggggggbfeccddmmdccc#.ggggggggggggggggggggggggggggggggggggggggggggggggggggggggggggg",
"gggggggggggggggggggggggggb.cddddddcc#.bggggggggggggggggggggggggggggggggggggggggggggggggggggggggggggg",
"ggggggggggggggggggggggggggf.iihhhhie.bbggggggggggggggggggggggggggggggggggggggggggggggggggggggggggggg",
"gggggggggggggggggggggggggggbfjjjjjfbbggggggggggggggggggggggggggggggggggggggggggggggggggggggggggggggg",
"ggggggggggggggggggggggggggggbbbffbbbgggggggggggggggggggggggggggggggggggggggggggggggggggggggggggggggg",
"gggggggggggggggggggggggggggggggggggggggggggggggggggggggggggggggggggggggggggggggggggggggggggggggggggg",
"gggggggggggggggggggggggggggggggggggggggggggggggggggggggggggggggggggggggggggggggggggggggggggggggggggg",
"gggggggggggggggggggggggggggggggggggggggggggggggggggggggggggggggggggggggggggggggggggggggggggggggggggg",
"gggggggggggggggggggggggggggggggggggggggggggggggggggggggggggggggggggggggggggggggggggggggggggggggggggg",
"gggggggggggggggggggggggggggggggggggggggggggggggggggggggggggggggggggggggggggggggggggggggggggggggggggg"
};
