/* XPM */
static char *DVY_Brick_1x2_xpm[] = {
/* width height num_colors chars_per_pixel */
"   100   100       16            1",
/* colors */
"` c #770000",
". c #c88e8e",
"# c #944d4e",
"a c #b90000",
"b c #7e2b2d",
"c c #ffd0d0",
"d c #970000",
"e c #b53031",
"f c #c06e6f",
"g c #ffb0af",
"h c #ffffff",
"i c #b25152",
"j c #e4282c",
"k c #e29594",
"l c #db1a20",
"m c #9b3334",
/* pixels */
"hhhhhhhhhhhhhhhhhhhhhhhhhhhhhhhhhhhhhhhhhhhhhhhhhhhhhhhhhhhhhhhhhhhhhhhhhhhhhhhhhhhhhhhhhhhhhhhhhhhh",
"hhhhhhhhhhhhhhhhhhhhhhhhhhhhhhhhhhhhhhhhhhhhhhhhhhhhhhhhhhhhhhhhhhhhhhhhhhhhhhhhhhhhhhhhhhhhhhhhhhhh",
"hhhhhhhhhhhhhhhhhhhhhhhhhhhhhhhhhhhhhhhhhhhhhhhhhhhhhhhhhhhhhhhhhhhhhhhhhhhhhhhhhhhhhhhhhhhhhhhhhhhh",
"hhhhhhhhhhhhhhhhhhhhhhhhhhhhhhhhhhhhhhhhhhhhhhhhhhhhhhhhhhhhhhhhhhhhhhhhhhhhhhhhhhhhhhhhhhhhhhhhhhhh",
"hhhhhhhhhhhhhhhhhhhhhhhhhhhhhhhhhhhhhhhhhhhhhhhhhhhhhhhhhhhhhhhhhhhhhhhhhhhhhhhhhhhhhhhhhhhhhhhhhhhh",
"hhhhhhhhhhhhhhhhhhhhhhhhhhhhhhhhhhhhhhhhhhhhhhhhhhhhhhhhhhhhhhhhhhhhhhhhhhhhhhhhhhhhhhhhhhhhhhhhhhhh",
"hhhhhhhhhhhhhhhhhhhhhhhhhhhhhhhhhhhhhhhhhhhhhhhhhhhhhhhhhhhhhhhhhhhhhhhhhhhhhhhhhhhhhhhhhhhhhhhhhhhh",
"hhhhhhhhhhhhhhhhhhhhhhhhhhhhhhhhhhhhhhhhhhhhhhhhhhhhhhhhhhhhhhhhhhhhhhhhhhhhhhhhhhhhhhhhhhhhhhhhhhhh",
"hhhhhhhhhhhhhhhhhhhhhhhhhhhhhhhhhhhhhhhhhhhhhhhhhhhhhhhhhhhhhhhhhhhhhhhhhhhhhhhhhhhhhhhhhhhhhhhhhhhh",
"hhhhhhhhhhhhhhhhhhhhhhhhhhhhhhhhhhhhhhhhhhhhhhhhhhhhhhhhhhhhhhhhhhhhhhhhhhhhhhhhhhhhhhhhhhhhhhhhhhhh",
"hhhhhhhhhhhhhhhhhhhhhhhhhhhhhhhhhhhhhhhhhhhhhhhhhhhhhhhhhhhhhhhhhhhhhhhhhhhhhhhhhhhhhhhhhhhhhhhhhhhh",
"hhhhhhhhhhhhhhhhhhhhhhhhhhhhhhhhhhhhhhhhhhhhhhhhhhhhhhhhhhhhhhhhhhhhhhhhhhhhhhhhhhhhhhhhhhhhhhhhhhhh",
"hhhhhhhhhhhhhhhhhhhhhhhhhhhhhhhhhhhhhhhhhhhhhhhhhhhhhhhhhhhhhhhhhhhhhhhhhhhhhhhhhhhhhhhhhhhhhhhhhhhh",
"hhhhhhhhhhhhhhhhhhhhhhhhhhhhhhhhhhhhhhhhhhhhhhhhhhhhhhhhhhhhhhhhhhhhhhhhhhhhhhhhhhhhhhhhhhhhhhhhhhhh",
"hhhhhhhhhhhhhhhhhhhhhhhhhhhhhhhhhhhhhhhhhhhhhhhhhhhhhhhhhhhhhhhhhhhhhhhhhhhhhhhhhhhhhhhhhhhhhhhhhhhh",
"hhhhhhhhhhhhhhhhhhhhhhhhhhhhhhhhhhhhhhhhhhhhhhhhhhhhhhhhhhhhhhhhhhhhhhhhhhhhhhhhhhhhhhhhhhhhhhhhhhhh",
"hhhhhhhhhhhhhhhhhhhhhhhhhhhhhhhhhhhhhhhhhhhhhhhhhhhhhhhhhhhhcccgk.gchhhhhhhhhhhhhhhhhhhhhhhhhhhhhhhh",
"hhhhhhhhhhhhhhhhhhhhhhhhhhhhhhhhhhhhhhhhhhhhhhhhhhhhhhhhhhcccgk.f#.cchhhhhhhhhhhhhhhhhhhhhhhhhhhhhhh",
"hhhhhhhhhhhhhhhhhhhhhhhhhhhhhhhhhhhhhhhhhhhhhhhhhhhhhhcgk.ffffi#bb#f.cchhhhhhhhhhhhhhhhhhhhhhhhhhhhh",
"hhhhhhhhhhhhhhhhhhhhhhhhhhhhhhhhhhhhhhhhhhhhhhhhhhhhhcgf#bb``b``````#.chhhhhhhhhhhhhhhhhhhhhhhhhhhhh",
"hhhhhhhhhhhhhhhhhhhhhhhhhhhhhhhhhhhhhhhhhhhhhhhhhhhhc.f#mbbddmd`````b#fkchhhhhhhhhhhhhhhhhhhhhhhhhhh",
"hhhhhhhhhhhhhhhhhhhhhhhhhhhhhhhhhhhhhhhhhhhhhhhhhhhh.#bbbbdddaded`````bikhhhhhhhhhhhhhhhhhhhhhhhhhhh",
"hhhhhhhhhhhhhhhhhhhhhhhhhhhhhhhhhhhhhhhhhhhhhhhccg.f#bb``dddddddd`````bbf.chhhhhhhhhhhhhhhhhhhhhhhhh",
"hhhhhhhhhhhhhhhhhhhhhhhhhhhhhhhhhhhhhhhhhhhhhhcckfm``````ddedddddddd````b#.chhhhhhhhhhhhhhhhhhhhhhhh",
"hhhhhhhhhhhhhhhhhhhhhhhhhhhhhhhhhhhhhhhhhhccg..fimb``````ddddddddddddd```b#.gchhhhhhhhhhhhhhhhhhhhhh",
"hhhhhhhhhhhhhhhhhhhhhhhhhhhhhhhhhhhhhhhhhhckf#b```````dd```dddddddddddd````bfcchhhhhhhhhhhhhhhhhhhhh",
"hhhhhhhhhhhhhhhhhhhhhhhhhhhhhhhhhhhhhhcgk.f#mbb``````dddd`ddddddddddddd````b#f.cchhhhhhhhhhhhhhhhhhh",
"hhhhhhhhhhhhhhhhhhhhhhhhhhhhhhhhhhhhcck.#bb`````````dddddddddddaadddddd```````#kchhhhhhhhhhhhhhhhhhh",
"hhhhhhhhhhhhhhhhhhhhhhhhhhhhhhcccggk.fi#bb``````````ddddddaaaaaaaaadddd```````b#.gchhhhhhhhhhhhhhhhh",
"hhhhhhhhhhhhhhhhhhhhhhhhhhhhhcck..f#b```````````````ddddelejjjlllalladd`````````#fghhhhhhhhhhhhhhhhh",
"hhhhhhhhhhhhhhhhhhhhhhhhhhck.ffiiimbb```````````````dddallljjjjllllaaddd````````b#f.chhhhhhhhhhhhhhh",
"hhhhhhhhhhhhhhhhhhhhhhhhhc.#mbbbbb`````````````````ddddallljjjjjlllaadddd`````````b#.chhhhhhhhhhhhhh",
"hhhhhhhhhhhhhhhhhhhhhhhcg.imbbdddmdd````````````````dddaalljjjjjlllaadddd`````````bmfcchhhhhhhhhhhhh",
"hhhhhhhhhhhhhhhhhhhhhhccfbbbbddddeeed````````d``````dddaalljjjjjlllaaddddd````dddddbfgchhhhhhhhhhhhh",
"hhhhhhhhhhhhhhhhhhccg..f#bb``dddddddddd``````````````dddaalljjjjllaadddddddddddddddbfgchhhhhhhhhhhhh",
"hhhhhhhhhhhhhhhhhhckf#b``````ddddddddddddd`````````````ddalljjjllaadddddddddddaaaddbfgchhhhhhhhhhhhh",
"hhhhhhhhhhhhhhcgk.fimb```````ddddddddddddd`````````````ddddaaeaaadddddddddddaaaaadddfgchhhhhhhhhhhhh",
"hhhhhhhhhhhhhcg.#bb``````d```dddddddddddddd```````````````dddddddddddddddaaaaaaaaadmfgchhhhhhhhhhhhh",
"hhhhhhhhhhcckf##bb```````dddddddddddddddddd`````````````````dddddddddddaaaaaaaaaaaddfgchhhhhhhhhhhhh",
"hhhhhhhhhhc.#```````````ddddddddddddddddddd``````````````````ddddddddaaaaaaaaaaaaaddfgchhhhhhhhhhhhh",
"hhhhhhhhhhg.#b``````````dddaaaalllllaaadddd`````````````````ddddddaaaaaaaaaaaaaaaaddfgchhhhhhhhhhhhh",
"hhhhhhhhhhgf#``````d```ddddalljjjjjjlllladd`````````````````dddaaaaaaaaaaaaaaaaaaaddfgchhhhhhhhhhhhh",
"hhhhhhhhhhgfm``ddd`````ddddallljjjjjlllaadd`````````````dddddaaaaaaaaaaaaaaaaaaaaaddfgchhhhhhhhhhhhh",
"hhhhhhhhhhgfeddddd`````ddddaallljjjjlllaaddd``````````ddddaaaaaaaaaaaaaaaaaaaaaaaddbfcchhhhhhhhhhhhh",
"hhhhhhhhhhgfeddddddd````dddaalljjjjjlllaaddd````````dddddaaaaaaaaaaaaaaaaaaaaaaaaddbfcchhhhhhhhhhhhh",
"hhhhhhhhhhgfedddddddd```dddaalljjjjllllladddd`````ddddaaaaaaaaaaaaaaaaaaaaaaaaaaaaddfcchhhhhhhhhhhhh",
"hhhhhhhhhhgfedddddddddd``dddaalljjjlllaaddddddddddddaaaaaaaaaaaaaaaaaaaaaaaaaaaaaaddfcchhhhhhhhhhhhh",
"hhhhhhhhhhgfeddddddddddd```dddeeeeeeeaddddd`dddddaaaaaaaaaaaaaaaaaaaaaaaaaaaaaaaaaddfcchhhhhhhhhhhhh",
"hhhhhhhhhhgfeddddddddddddddddddddedaddddddddddddaaaaaaaaaaaaaaaaaaaaaaaaaaaaaaaaaaddfcchhhhhhhhhhhhh",
"hhhhhhhhhhgfeddddddddddddddd``````ddddddddddddaaaaaaaaaaaaaaaaaaaaaaaaaaaaaaaaaaaaddfcchhhhhhhhhhhhh",
"hhhhhhhhhhgfeddddaddddddddddd`````dddddddddaaaaaaaaaaaaaaaaaaaaaaaaaaaaaaaaaaaaaaaddfcchhhhhhhhhhhhh",
"hhhhhhhhhhgfeddddaddddddddddd`````dddddaaaaaaaaaaaaaaaaaaaaaaaaaaaaaaaaaaaaaaaaaaaddfcchhhhhhhhhhhhh",
"hhhhhhhhhhgfeddddaaddddddddddddddddddaaaaaaaaaaaaaaaaaaaaaaaaaaaaaaaaaaaaaaaaaaaaaddfcchhhhhhhhhhhhh",
"hhhhhhhhhhgfeddddaaddddddddddddddddaaaaaaaaaaaaaaaaaaaaaaaaaaaaaaaaaaaaaaaaaaaaaadddfchhhhhhhhhhhhhh",
"hhhhhhhhhhgfeddddadddddddddddddaaaaaaaaaaaaaaaaaaaaaaaaaaaaaaaaaaaaaaaaaaaaaaaaaadddfchhhhhhhhhhhhhh",
"hhhhhhhhhhgfedddddddddddddddaaaaaaaaaaaaaaaaaaaaaaaaaaaaaaaaaaaaaaaaaaaaaaaaaaaaadddfchhhhhhhhhhhhhh",
"hhhhhhhhhhgfmdddddddddddddddaaaaaaaaaaaaaaaaaaaaaaaaaaaaaaaaaaaaaaaaaaaaaaaaaaaaaddb.chhhhhhhhhhhhhh",
"hhhhhhhhhhgfmdddddddddddddddaaaaaaaaaaaaaaaaaaaaaaaaaaaaaaaaaaaaaaaaaaaaaaaaaaaaaddb.chhhhhhhhhhhhhh",
"hhhhhhhhhhgfmdddddddddddddddaaalaaaaaaaaaaaaaaaaaaaaaaaaaaaaaaaaaaaaaaaaaaaaaaaaaddb.chhhhhhhhhhhhhh",
"hhhhhhhhhhgfmdddddddddddddddaaalaaaaaaaaaaaaaaaaaaaaaaaaaaaaaaaaaaaaaaaaaaaaaaaaaddb.chhhhhhhhhhhhhh",
"hhhhhhhhhhgfmdddddddddddddddaaaaaaaaaaaaaaaaaaaaaaaaaaaaaaaaaaaaaaaaaaaaaaaaaaaaadmb.chhhhhhhhhhhhhh",
"hhhhhhhhhhgfmddddddddddddddaaaaaaaaaaaaaaaaaaaaaaaaaaaaaaaaaaaaaaaaaaaaaaaaaaaaaadbb.hhhhhhhhhhhhhhh",
"hhhhhhhhhhgfm`ddddddddddddddaaaaaaaaaaaaaaaaaaaaaaaaaaaaaaaaaaaaaaaaaaaaaaaaaaaaddbb.hhhhhhhhhhhhhhh",
"hhhhhhhhhhgfm`ddddddddddddddaaalaaaaaaaaaaaaaaaaaaaaaaaaaaaaaaaaaaaaaaaaaaaaaaaddmmm.hhhhhhhhhhhhhhh",
"hhhhhhhhhhgfmdddddddddddddddaaaaaaaaaaaaaaaaaaaaaaaaaaaaaaaaaaaaaaaaaaaaaaaaaaddmmifghhhhhhhhhhhhhhh",
"hhhhhhhhhhgfmddddddddddddaddaaaaaaaaaaaaaaaaaaaaaaaaaaaaaaaaaaaaaaaaaaaaaaaadddbmikcchhhhhhhhhhhhhhh",
"hhhhhhhhhhgfmdddddddddddddddaaalaaaaaaaaaaaaaaaaaaaaaaaaaaaaaaaaaaaaaaaaaadeeiff.kcchhhhhhhhhhhhhhhh",
"hhhhhhhhhhgfm`ddddddddddddddaaaaaaaaaaaaaaaaaaaaaaaaaaaaaaaaaaaaaaaaaaaaadmmi.gcchhhhhhhhhhhhhhhhhhh",
"hhhhhhhhhhgfm`dddddddddddddddaaaaaaaaaaaaaaaaaaaaaaaaaaaaaaaaaaaaaaaaaaeeif.kgchhhhhhhhhhhhhhhhhhhhh",
"hhhhhhhhhhgfm`dddddddddddadddaaaaaaaaaaaaaaaaaaaaaaaaaaaaaaaaaaaaaaaddeefkgchhhhhhhhhhhhhhhhhhhhhhhh",
"hhhhhhhhhhg.#`dddddddddddddddaaaaaaaaaaaaaaaaaaaaaaaaaaaaaaaaaaaddeeiff.gcchhhhhhhhhhhhhhhhhhhhhhhhh",
"hhhhhhhhhhg.#``ddddddaddddddaaaaaaaaaaaaaaaaaaaaaaaaaaaaaaaaaaaadbmi.gchhhhhhhhhhhhhhhhhhhhhhhhhhhhh",
"hhhhhhhhhhcg.#mdddddddddddddaaaaaaaaaaaaaaaaaaaaaaaaaaaaaaaaaaeeif.kgchhhhhhhhhhhhhhhhhhhhhhhhhhhhhh",
"hhhhhhhhhhhhg.#``dddddddddddaaaaaaaaaaaaaaaaaaaaaaaaaaaadddddeifkcchhhhhhhhhhhhhhhhhhhhhhhhhhhhhhhhh",
"hhhhhhhhhhhhcg.im`dddddddddaaaaaaaaaaaaaaaaaaaaaaaaaadddmmeif.kgcchhhhhhhhhhhhhhhhhhhhhhhhhhhhhhhhhh",
"hhhhhhhhhhhhhhcki``ddddddaaaaaaaaaaaaaaaaaaaaaaaaaaadddbmmf.ghhhhhhhhhhhhhhhhhhhhhhhhhhhhhhhhhhhhhhh",
"hhhhhhhhhhhhhhcckfmdddddddaaaaaaaaaaaaaaaaaaaaaaaaademiff.gcchhhhhhhhhhhhhhhhhhhhhhhhhhhhhhhhhhhhhhh",
"hhhhhhhhhhhhhhhhcgfbddddddaaaaaaaaaaaaaaaaaaaaaaadddmi.gchhhhhhhhhhhhhhhhhhhhhhhhhhhhhhhhhhhhhhhhhhh",
"hhhhhhhhhhhhhhhhhckf#bddddddaaaaaaaaaaaaaaaaadddeiif.kgcchhhhhhhhhhhhhhhhhhhhhhhhhhhhhhhhhhhhhhhhhhh",
"hhhhhhhhhhhhhhhhhhccfbbddaddaaaaaaaaaaaaaaadddbbifkcchhhhhhhhhhhhhhhhhhhhhhhhhhhhhhhhhhhhhhhhhhhhhhh",
"hhhhhhhhhhhhhhhhhhhcg.ibddddaaaaaaaaaaaaaddeeiffkgcchhhhhhhhhhhhhhhhhhhhhhhhhhhhhhhhhhhhhhhhhhhhhhhh",
"hhhhhhhhhhhhhhhhhhhhhc.mbdddaaaaaaaaaaaaddmmi.gcchhhhhhhhhhhhhhhhhhhhhhhhhhhhhhhhhhhhhhhhhhhhhhhhhhh",
"hhhhhhhhhhhhhhhhhhhhhhg.fmbddaaaaaaaddeeiif.kgchhhhhhhhhhhhhhhhhhhhhhhhhhhhhhhhhhhhhhhhhhhhhhhhhhhhh",
"hhhhhhhhhhhhhhhhhhhhhhhhkim`daaaaadddmmifkchhhhhhhhhhhhhhhhhhhhhhhhhhhhhhhhhhhhhhhhhhhhhhhhhhhhhhhhh",
"hhhhhhhhhhhhhhhhhhhhhhhhckfmmddaadeeif.kgcchhhhhhhhhhhhhhhhhhhhhhhhhhhhhhhhhhhhhhhhhhhhhhhhhhhhhhhhh",
"hhhhhhhhhhhhhhhhhhhhhhhhhhgfibbdmmifkgcchhhhhhhhhhhhhhhhhhhhhhhhhhhhhhhhhhhhhhhhhhhhhhhhhhhhhhhhhhhh",
"hhhhhhhhhhhhhhhhhhhhhhhhhhcg.iiif.kgccchhhhhhhhhhhhhhhhhhhhhhhhhhhhhhhhhhhhhhhhhhhhhhhhhhhhhhhhhhhhh",
"hhhhhhhhhhhhhhhhhhhhhhhhhhhhck..gcchhhhhhhhhhhhhhhhhhhhhhhhhhhhhhhhhhhhhhhhhhhhhhhhhhhhhhhhhhhhhhhhh",
"hhhhhhhhhhhhhhhhhhhhhhhhhhhhccccchhhhhhhhhhhhhhhhhhhhhhhhhhhhhhhhhhhhhhhhhhhhhhhhhhhhhhhhhhhhhhhhhhh",
"hhhhhhhhhhhhhhhhhhhhhhhhhhhhhhhhhhhhhhhhhhhhhhhhhhhhhhhhhhhhhhhhhhhhhhhhhhhhhhhhhhhhhhhhhhhhhhhhhhhh",
"hhhhhhhhhhhhhhhhhhhhhhhhhhhhhhhhhhhhhhhhhhhhhhhhhhhhhhhhhhhhhhhhhhhhhhhhhhhhhhhhhhhhhhhhhhhhhhhhhhhh",
"hhhhhhhhhhhhhhhhhhhhhhhhhhhhhhhhhhhhhhhhhhhhhhhhhhhhhhhhhhhhhhhhhhhhhhhhhhhhhhhhhhhhhhhhhhhhhhhhhhhh",
"hhhhhhhhhhhhhhhhhhhhhhhhhhhhhhhhhhhhhhhhhhhhhhhhhhhhhhhhhhhhhhhhhhhhhhhhhhhhhhhhhhhhhhhhhhhhhhhhhhhh",
"hhhhhhhhhhhhhhhhhhhhhhhhhhhhhhhhhhhhhhhhhhhhhhhhhhhhhhhhhhhhhhhhhhhhhhhhhhhhhhhhhhhhhhhhhhhhhhhhhhhh",
"hhhhhhhhhhhhhhhhhhhhhhhhhhhhhhhhhhhhhhhhhhhhhhhhhhhhhhhhhhhhhhhhhhhhhhhhhhhhhhhhhhhhhhhhhhhhhhhhhhhh",
"hhhhhhhhhhhhhhhhhhhhhhhhhhhhhhhhhhhhhhhhhhhhhhhhhhhhhhhhhhhhhhhhhhhhhhhhhhhhhhhhhhhhhhhhhhhhhhhhhhhh",
"hhhhhhhhhhhhhhhhhhhhhhhhhhhhhhhhhhhhhhhhhhhhhhhhhhhhhhhhhhhhhhhhhhhhhhhhhhhhhhhhhhhhhhhhhhhhhhhhhhhh",
"hhhhhhhhhhhhhhhhhhhhhhhhhhhhhhhhhhhhhhhhhhhhhhhhhhhhhhhhhhhhhhhhhhhhhhhhhhhhhhhhhhhhhhhhhhhhhhhhhhhh",
"hhhhhhhhhhhhhhhhhhhhhhhhhhhhhhhhhhhhhhhhhhhhhhhhhhhhhhhhhhhhhhhhhhhhhhhhhhhhhhhhhhhhhhhhhhhhhhhhhhhh",
"hhhhhhhhhhhhhhhhhhhhhhhhhhhhhhhhhhhhhhhhhhhhhhhhhhhhhhhhhhhhhhhhhhhhhhhhhhhhhhhhhhhhhhhhhhhhhhhhhhhh"
};
