/* XPM */
static char *DVY_FlatTile_1x1_xpm[] = {
/* width height num_colors chars_per_pixel */
"   100   100       16            1",
/* colors */
"` c #636263",
". c #b2b2b2",
"# c #8a8b8a",
"a c #dedede",
"b c #777777",
"c c #c9c9c9",
"d c #9d9d9d",
"e c #f2f3f2",
"f c #656665",
"g c #bebebe",
"h c #949394",
"i c #e9e8e9",
"j c #7f7f7f",
"k c #d4d4d4",
"l c #a7a8a7",
"m c #ffffff",
/* pixels */
"mmmmmmmmmmmmmmmmmmmmmmmmmmmmmmmmmmmmmmmmmmmmmmmmmmmmmmmmmmmmmmmmmmmmmmmmmmmmmmmmmmmmmmmmmmmmmmmmmmmm",
"mmmmmmmmmmmmmmmmmmmmmmmmmmmmmmmmmmmmmmmmmmmmmmmmmmmmmmmmmmmmmmmmmmmmmmmmmmmmmmmmmmmmmmmmmmmmmmmmmmmm",
"mmmmmmmmmmmmmmmmmmmmmmmmmmmmmmmmmmmmmmmmmmmmmmmmmmmmmmmmmmmmmmmmmmmmmmmmmmmmmmmmmmmmmmmmmmmmmmmmmmmm",
"mmmmmmmmmmmmmmmmmmmmmmmmmmmmmmmmmmmmmmmmmmmmmmmmmmmmmmmmmmmmmmmmmmmmmmmmmmmmmmmmmmmmmmmmmmmmmmmmmmmm",
"mmmmmmmmmmmmmmmmmmmmmmmmmmmmmmmmmmmmmmmmmmmmmmmmmmmmmmmmmmmmmmmmmmmmmmmmmmmmmmmmmmmmmmmmmmmmmmmmmmmm",
"mmmmmmmmmmmmmmmmmmmmmmmmmmmmmmmmmmmmmmmmmmmmmmmmmmmmmmmmmmmmmmmmmmmmmmmmmmmmmmmmmmmmmmmmmmmmmmmmmmmm",
"mmmmmmmmmmmmmmmmmmmmmmmmmmmmmmmmmmmmmmmmmmmmmmmmmmmmmmmmmmmmmmmmmmmmmmmmmmmmmmmmmmmmmmmmmmmmmmmmmmmm",
"mmmmmmmmmmmmmmmmmmmmmmmmmmmmmmmmmmmmmmmmmmmmmmmmmmmmmmmmmmmmmmmmmmmmmmmmmmmmmmmmmmmmmmmmmmmmmmmmmmmm",
"mmmmmmmmmmmmmmmmmmmmmmmmmmmmmmmmmmmmmmmmmmmmmmmmmmmmmmmmmmmmmmmmmmmmmmmmmmmmmmmmmmmmmmmmmmmmmmmmmmmm",
"mmmmmmmmmmmmmmmmmmmmmmmmmmmmmmmmmmmmmmmmmmmmmmmmmmmmmmmmmmmmmmmmmmmmmmmmmmmmmmmmmmmmmmmmmmmmmmmmmmmm",
"mmmmmmmmmmmmmmmmmmmmmmmmmmmmmmmmmmmmmmmmmmmmmmmmmmmmmmmmmmmmmmmmmmmmmmmmmmmmmmmmmmmmmmmmmmmmmmmmmmmm",
"mmmmmmmmmmmmmmmmmmmmmmmmmmmmmmmmmmmmmmmmmmmmmmmmmmmmmmmmmmmmmmmmmmmmmmmmmmmmmmmmmmmmmmmmmmmmmmmmmmmm",
"mmmmmmmmmmmmmmmmmmmmmmmmmmmmmmmmmmmmmmmmmmmmmmmmmmmmmmmmmmmmmmmmmmmmmmmmmmmmmmmmmmmmmmmmmmmmmmmmmmmm",
"mmmmmmmmmmmmmmmmmmmmmmmmmmmmmmmmmmmmmmmmmmmmmmmmmmmmmmmmmmmmmmmmmmmmmmmmmmmmmmmmmmmmmmmmmmmmmmmmmmmm",
"mmmmmmmmmmmmmmmmmmmmmmmmmmmmmmmmmmmmmmmmmmmmmmmmmmmmmmmmmmmmmmmmmmmmmmmmmmmmmmmmmmmmmmmmmmmmmmmmmmmm",
"mmmmmmmmmmmmmmmmmmmmmmmmmmmmmmmmmmmmmmmmmmmmmmmmmmmmmmmmmmmmmmmmmmmmmmmmmmmmmmmmmmmmmmmmmmmmmmmmmmmm",
"mmmmmmmmmmmmmmmmmmmmmmmmmmmmmmmmmmmmmmmmmmmmmmmmmmmmmmmmmmmmmmmmmmmmmmmmmmmmmmmmmmmmmmmmmmmmmmmmmmmm",
"mmmmmmmmmmmmmmmmmmmmmmmmmmmmmmmmmmmmmmmmmmmmmmmmmmmmmmmmmmmmmmmmmmmmmmmmmmmmmmmmmmmmmmmmmmmmmmmmmmmm",
"mmmmmmmmmmmmmmmmmmmmmmmmmmmmmmmmmmmmmmmmmmmmmmmmmmmmmmmmmmmmmmmmmmmmmmmmmmmmmmmmmmmmmmmmmmmmmmmmmmmm",
"mmmmmmmmmmmmmmmmmmmmmmmmmmmmmmmmmmmmmmmmmmmmmmmmmmmmmemmmmmmmmmmmmmmmmmmmmmmmmmmmmmmmmmmmmmmmmmmmmmm",
"mmmmmmmmmmmmmmmmmmmmmmmmmmmmmmmmmmmmmmmmmmmmmmmmeikcg.gcimmmmmmmmmmmmmmmmmmmmmmmmmmmmmmmmmmmmmmmmmmm",
"mmmmmmmmmmmmmmmmmmmmmmmmmmmmmmmemmmmmmmmmmmmmmmmik.hjfjdcmmemmmmmmmmmmmmmmmmmmmmmmmmmmmmmmmmmmmmmmmm",
"mmmmmmmmmmmmmmmmmmmmmmmmmmmmmmmmmmmmmmmmmmmmiacgld#bbfbjlcaemmmmmmmmmmmmmmmmmmmmmmmmmmmmmmmmmmmmmmmm",
"mmmmmmmmmmmmmmmmmmmmmmmmmmmmmmmmmmmmmmmmmmmekgdjf```fff`b#gemmmmmmmmmmmmmmmmmmmmmmmmmmmmmmmmmmmmmmmm",
"mmmmmmmmmmmmmmmmmmmmmmmmmmmmmmmmmmmmmmeiacg.l#jffff`fffffbh.kemmmmmmmmmmmmmmmmmmmmmmmmmmmmmmmmmmmmmm",
"mmmmmmmmmmmmmmmmmmmmmmmmmmmmmmmmmmmmmmiagd#fff``ffffffff``fb.iemmmmmmmmmmmmmmmmmmmmmmmmmmmmmmmmmmmmm",
"mmmmmmmmmmmmmmmmmmmmmmmmmmmmmmmmmmeikg.lhjbff``ffffff`fff`ff#lciemmmmmmmmmmmmmmmmmmmmmmmmmmmmmmmmmmm",
"mmmmmmmmmmmmmmmmmmmmmmmmmmmmmmmmmmicljbffff```ff```f```fffffffdkaemmmmmmmmmmmmmmmmmmmmmmmmmmmmmmmmmm",
"mmmmmmmmmmmmmmmmmmmmmmmmmmmmmeikcglh#bfffff``ffff``ff`ffffffffjdgkimmmmmmmmmmmmmmmmmmmmmmmmmmmmmmmmm",
"mmmmmmmmmmmmmmmmmmmmmmmmmmmmeek.hbf`ffff``ffffffffffffffffff````#gammmmmmmmmmmmmmmmmmmmmmmmmmmmmmmmm",
"mmmmmmmmmmmmmmmmmmmmmmmmeiacg.d#bff`fffff`fffffffffffffffffff`ffb#lcammmmmmmmmmmmmmmmmmmmmmmmmmmmmmm",
"mmmmmmmmmmmmmmmmmmmmmmmmiagdjfffffffffffffffffffffffffffffffffff``jdcemmmmmmmmmmmmmmmmmmmmmmmmmmmmmm",
"mmmmmmmmmmmmmmmmmmmmiacg.d#jbfffffffffffffffffffffffffffffffffff``bjdgaemmmmmmmmmmmmmmmmmmmmmmmmmmmm",
"mmmmmmmmmmmmmmmmmmmeacljb`````ffffffffffffffffffffffffffffffffff``ffb#giemmmmmmmmmmmmmmmmmmmmmmmmmmm",
"mmmmmmmmmmmmmmeiakg.lhjbff```fffffffffffffffffffffffffffffffff```ffffbh.ciemmmmmmmmmmmmmmmmmmmmmmmmm",
"mmmmmmmmmmmmmeiacl#f```fff``ffffffffffffffffffffffffffffffffff```ff```fblaimmmmmmmmmmmmmmmmmmmmmmmmm",
"mmmmmmmmmmmmeic.d#bf```ffff``fffffffffffffffffffffffffffffffff``fff```ff#lgaimmmmmmmmmmmmmmmmmmmmmmm",
"mmmmmmmmmmmmiklbfff``f```fff```fffffffffffffffffffffffffffffffffffffffffffhcammmmmmmmemmmmmmmmmmmmmm",
"mmmmmmmmmmmmacl#bbffffffffffffffffffffffffffffffffffffffffffffffffff```fffjh.kimmmmmmmmmmmmmmmmmmmmm",
"mmmmmmmmmmmmaglh#bbfffffffffffffffffffffffffffffffffffffffffff``ffff```ffff`#.kmmmmmmmmmmmmmmmmmmmmm",
"mmmmmmmmmmmmagl###jbfff`fffffffffffffffffffffffffffffffffffffffffff```fffff`b#lcammmmmmmmmmmmmmmmmmm",
"mmmmmmmmmmmma.dj#h##bf```fffffffffffffffffffffffffffffffffffffffff```ffff`````b#gmmmmmmmmmmmmmmmmmmm",
"mmmmmmmmmmmma.djj###jbbffffff`ffffffffffffffffffffffffffffffffffff``ffff```ff`fbdgammmmmmmmmmmmmmmmm",
"mmmmmmmmmmmma.djjj####jbf`fff`ffffffffffffffffffffffffffffffffffffffffff``ffffffbj.eemmmmmmmmmmmmmmm",
"mmmmmmmmmmmma.djjjj####jbff`fffffffffffffffffffffffffffffffffffffffff`fff`ffffbbj#.aimmmmmmmmmmmmmmm",
"mmmmmmmmmmmma.djjbbj####jbf`fffffffffffffffffffffffffffffffffff`fff```fffff`ffb#hl.gammmmmmmmmmmmmmm",
"mmmmmmmmmmmma.djjjjbjj###jbffff`ffffffffffffffffffffffffffffff``ffff``fffbbbj###hd.gammmmmmmmmmmmmmm",
"mmmmmmmmmmmma.djjjjbbbj##h#jf````ffff`ffffffffffffffffffffff`````ffff`ffbj#hdldhhhlgammmmmmmmmmmmmmm",
"mmmmmmmmmmmmagdjjjjjjjjj###jbbf`fff`fffffffffffff```fffff``ffffffffffbbj##hhhdhhhdlgammmmmmmmmmmmmmm",
"mmmmmmmmmmmeagdbbjj#jjjjjj###jbfff```ffffffffffff```ffff```ffffff`ffbj#ddddhhhhhhd.gammmmmmmmmmmmmmm",
"mmmmmmmmmmmmik.##bjjjjjjjjj###jbfff``ffffffffff`fffffff```ffffffbbj##hhhhhhhhhhhh#lcammmmmmmmmmmmmmm",
"mmmmmmmmmmmmeicd#bjjjbbjjjj##h##bffff``fffff`````fffff``ffff``fbj#dlldhhhhhhhhhh#jlcimmemmmmmmmmmmmm",
"mmmmmmmmmmmmmeacl##jjjjjjjjjj###jbbff`fffff``ffffffffffffffbbbj##hhdhhhhhhhhhhhhh#.cammmmmmmmmmmmmmm",
"mmmmmmmmmmmmmmmecd#jjjjbjjjbbj####bffffffff`ffffffffffffffbj#hdldhh###hhhh##hhhhhd.cammmmmmmmmmmmmmm",
"mmmmmmmmmmmmmmmmac.h#jjjjjjbjjj###jjbffffffffffffffffffbbj##hhhdhhhhhhhhhhhhhhhhhh.cammmmmmmmmmmmmmm",
"mmmmmmmmmmmmmmmmmmklhjjjjjjjjjjjjj#hjbffffffff```fffffbj#ddddhh##hhhhhhhhhhhhhhh##lcammmmmmmmmmmmmmm",
"mmmmmmmmmmmmmmmmmmik.d#jjjjjjjjjjj###jbffffff``fffbbj##hhhhhhhhhhhhhhhhhhhhhhhhhhh.kimmmmmmmmmmmmmmm",
"mmmmmmmmmmmmmmmmmmmmagdjjbjjjjjjjjj##h#bf`ff``fffbj#hddddhh#hhhhhhh#hhhhh###hhhhhdgiemmmmmmmmmmmmmmm",
"mmmmmmmmmmmmmmmmmmmmiaglhjjjjjjjjjjj###jbffffbbjj##hhdhhhhhhhhhhhhhhh##hhhhhh#dl.caeemmmmmmmmmmmmmmm",
"mmmmmmmmmmmmmmmmmmmmmmicljjjjjjjjjjjjj#h#bbfbj#hdddddhh#hhhhhh##hhhhh###hhhhh#d.kmmmmmmmmmmmmmmmmmmm",
"mmmmmmmmmmmmmmmmmmmmmmeic.djjjjjjjjjjj########hhhddhhhhhhhhhhhhhhhhhhhh##hdll.caimmmmmmmmmmmmmmmmmmm",
"mmmmmmmmmmmmmmmmmmmmmmmmia.#jjjjjjjjjjjj#hdllddhhhhhhhhhhhhhhhhhh##hhdh###d.caimmmmmmmmmmmmmmmmmmmmm",
"mmmmmmmmmmmmmmmmmmmmmmmmeikgl#jjjjjjjbjj#hdlddhhhhhhhhhhhhhhhhhhhh##hhdl.gckaiemmmmmmmmmmmmmmmmmmmmm",
"mmmmmmmmmmmmmmmmmmmmmmmmmmeigh#jjjjjjbbj##hldhhhhhhhhhhhhhhhhhhhhh##hhlgkiemmmmmmmmmmmmmmmmmmmmmmmmm",
"mmmmmmmmmmmmmmmmmmmmmmmmmmmeagl##jjjjjjj##hldhhhhhhhhhhhhhhhhhh#hdllgckaiemmmmmmmmmmmmmmmmmmmmmmmmmm",
"mmmmmmmmmmmmmmmmmmmmmmmmmmmmmecd#bbjj#jj##dldhhhhhhhhhhh###hhh##hd.caemmmmmmmmmmmmmmmmmmmmmmmmmmmmmm",
"mmmmmmmmmmmmmmmmmmmmmmmmmmmmmmac.h#jjjjj##hldhhhh#hhhhhh###hddl.gcaiimmmmmmmmmmmmmmmmmmmmmmmmmmmmmmm",
"mmmmmmmmmmmmmmmmmmmmmmmmmmmmmmmma.djbbjjj#hldhhh####hhhhh#hhdlgaimmmmmmemmmmmmmmmmmmmmmmmmmmmmmmmmmm",
"mmmmmmmmmmmmmmmmmmmmmmmmmmmmmmmmiagd#bjj##hldhhhhhhhhhhhdl.gckaeemmmmmmmmmmmmmmmmmmmmmmmmmmmmmmmmmmm",
"mmmmmmmmmmmmmmmmmmmmmmmmmmmmmmmmmmagdjjj##hldhhhhddhh##hlgkiemmmmmmmmmmmmmmmmmmmmmmmmmmmmmmmmmmmmmmm",
"mmmmmmmmmmmmmmmmmmmmmmmmmmmmmmmmmmiaclhj##dldhhhhhhdll.gkaiemmmmmmmmmmmmmmmmmmmmmmmmmmmmmmmmmmmmmmmm",
"mmmmmmmmmmmmmmmmmmmmmmmmmmmmmmmmmmmmialj#hdld#hh##hd.caemmmmmmmmmmmmmmmmmmmmmmmmmmmmmmmmmmmmmmmmmmmm",
"mmmmmmmmmmmmmmmmmmmmmmmmmmmmmmmmmmmmeic.lhddh#hdl.gcaiimmmmmmmmmmmmmmmmmmmmmmmmmmmmmmmmmmmmmmmmmmmmm",
"mmmmmmmmmmmmmmmmmmmmmmmmmmmmmmmmmmmmmmeighddh#dlgkimmmmmmmmmmmmmmmmmmmmmmmmmmmmmmmmmmmmmmmmmmmmmmmmm",
"mmmmmmmmmmmmmmmmmmmmmmmmmmmmmmmmmmmmmmmeacg..gckaiemmmmmmmmmmmmmmmmmmmmmmmmmmmmmmmmmmmmmmmmmmmmmmmmm",
"mmmmmmmmmmmmmmmmmmmmmmmmmmmmmmmmmmmmmmmmmmacaiemmmmmmmmmmmmmmmmmmmmmmmmmmmmmmmmmmmmmmmmmmmmmmmmmmmmm",
"mmmmmmmmmmmmmmmmmmmmmmmmmmmmmmmmmmmmmmmmmmiaiemmmmmmmmmmmmmmmmmmmmmmmmmmmmmmmmmmmmmmmmmmmmmmmmmmmmmm",
"mmmmmmmmmmmmmmmmmmmmmmmmmmmmmmmmmmmmmmmmmmmmmmmmmmmmmmmmmmmmmmmmmmmmmmmmmmmmmmmmmmmmmmmmmmmmmmmmmmmm",
"mmmmmmmmmmmmmmmmmmmmmmmmmmmmmmmmmmmmmmmmmmmmmmmmmmmmmmmmmmmmmmmmmmmmmmmmmmmmmmmmmmmmmmmmmmmmmmmmmmmm",
"mmmmmmmmmmmmmmmmmmmmmmmmmmmmmmmmmmmmmmmmmmmmmmmmmmmmmmmmmmmmmmmmmmmmmmmmmmmmmmmmmmmmmmmmmmmmmmmmmmmm",
"mmmmmmmmmmmmmmmmmmmmmmmmmmmmmmmmmmmmmmmmmmmmmmmmmmmmmmmmmmmmmmmmmmmmmmmmmmmmmmmmmmmmmmmmmmmmmmmmmmmm",
"mmmmmmmmmmmmmmmmmmmmmmmmmmmmmmmmmmmmmmmmmmmmmmmmmmmmmmmmmmmmmmmmmmmmmmmmmmmmmmmmmmmmmmmmmmmmmmmmmmmm",
"mmmmmmmmmmmmmmmmmmmmmmmmmmmmmmmmmmmmmmmmmmmmmmmmmmmmmmmmmmmmmmmmmmmmmmmmmmmmmmmmmmmmmmmmmmmmmmmmmmmm",
"mmmmmmmmmmmmmmmmmmmmmmmmmmmmmmmmmmmmmmmmmmmmmmmmmmmmmmmmmmmmmmmmmmmmmmmmmmmmmmmmmmmmmmmmmmmmmmmmmmmm",
"mmmmmmmmmmmmmmmmmmmmmmmmmmmmmmmmmmmmmmmmmmmmmmmmmmmmmmmmmmmmmmmmmmmmmmmmmmmmmmmmmmmmmmmmmmmmmmmmmmmm",
"mmmmmmmmmmmmmmmmmmmmmmmmmmmmmmmmmmmmmmmmmmmmmmmmmmmmmmmmmmmmmmmmmmmmmmmmmmmmmmmmmmmmmmmmmmmmmmmmmmmm",
"mmmmmmmmmmmmmmmmmmmmmmmmmmmmmmmmmmmmmmmmmmmmmmmmmmmmmmmmmmmmmmmmmmmmmmmmmmmmmmmmmmmmmmmmmmmmmmmmmmmm",
"mmmmmmmmmmmmmmmmmmmmmmmmmmmmmmmmmmmmmmmmmmmmmmmmmmmmmmmmmmmmmmmmmmmmmmmmmmmmmmmmmmmmmmmmmmmmmmmmmmmm",
"mmmmmmmmmmmmmmmmmmmmmmmmmmmmmmmmmmmmmmmmmmmmmmmmmmmmmmmmmmmmmmmmmmmmmmmmmmmmmmmmmmmmmmmmmmmmmmmmmmmm",
"mmmmmmmmmmmmmmmmmmmmmmmmmmmmmmmmmmmmmmmmmmmmmmmmmmmmmmmmmmmmmmmmmmmmmmmmmmmmmmmmmmmmmmmmmmmmmmmmmmmm",
"mmmmmmmmmmmmmmmmmmmmmmmmmmmmmmmmmmmmmmmmmmmmmmmmmmmmmmmmmmmmmmmmmmmmmmmmmmmmmmmmmmmmmmmmmmmmmmmmmmmm",
"mmmmmmmmmmmmmmmmmmmmmmmmmmmmmmmmmmmmmmmmmmmmmmmmmmmmmmmmmmmmmmmmmmmmmmmmmmmmmmmmmmmmmmmmmmmmmmmmmmmm",
"mmmmmmmmmmmmmmmmmmmmmmmmmmmmmmmmmmmmmmmmmmmmmmmmmmmmmmmmmmmmmmmmmmmmmmmmmmmmmmmmmmmmmmmmmmmmmmmmmmmm",
"mmmmmmmmmmmmmmmmmmmmmmmmmmmmmmmmmmmmmmmmmmmmmmmmmmmmmmmmmmmmmmmmmmmmmmmmmmmmmmmmmmmmmmmmmmmmmmmmmmmm",
"mmmmmmmmmmmmmmmmmmmmmmmmmmmmmmmmmmmmmmmmmmmmmmmmmmmmmmmmmmmmmmmmmmmmmmmmmmmmmmmmmmmmmmmmmmmmmmmmmmmm",
"mmmmmmmmmmmmmmmmmmmmmmmmmmmmmmmmmmmmmmmmmmmmmmmmmmmmmmmmmmmmmmmmmmmmmmmmmmmmmmmmmmmmmmmmmmmmmmmmmmmm",
"mmmmmmmmmmmmmmmmmmmmmmmmmmmmmmmmmmmmmmmmmmmmmmmmmmmmmmmmmmmmmmmmmmmmmmmmmmmmmmmmmmmmmmmmmmmmmmmmmmmm",
"mmmmmmmmmmmmmmmmmmmmmmmmmmmmmmmmmmmmmmmmmmmmmmmmmmmmmmmmmmmmmmmmmmmmmmmmmmmmmmmmmmmmmmmmmmmmmmmmmmmm",
"mmmmmmmmmmmmmmmmmmmmmmmmmmmmmmmmmmmmmmmmmmmmmmmmmmmmmmmmmmmmmmmmmmmmmmmmmmmmmmmmmmmmmmmmmmmmmmmmmmmm",
"mmmmmmmmmmmmmmmmmmmmmmmmmmmmmmmmmmmmmmmmmmmmmmmmmmmmmmmmmmmmmmmmmmmmmmmmmmmmmmmmmmmmmmmmmmmmmmmmmmmm"
};
