/* XPM */
static char *DVY_Plate_4x6_xpm[] = {
/* width height num_colors chars_per_pixel */
"   100   100       16            1",
/* colors */
"` c #700000",
". c #c98e8e",
"# c #9d4f4f",
"a c #a30000",
"b c #ffd2d0",
"c c #8c2d2e",
"d c #af6b6c",
"e c #a72e2f",
"f c #dbafae",
"g c #ffffff",
"h c #b35354",
"i c #e59798",
"j c #c47273",
"k c #8a0000",
"l c #c12d2f",
"m c #ffb7b6",
/* pixels */
"gggggggggggggggggggggggggggggggggggggggggggggggggggggggggggggggggggggggggggggggggggggggggggggggggggg",
"gggggggggggggggggggggggggggggggggggggggggggggggggggggggggggggggggggggggggggggggggggggggggggggggggggg",
"gggggggggggggggggggggggggggggggggggggggggggggggggggggggggggggggggggggggggggggggggggggggggggggggggggg",
"gggggggggggggggggggggggggggggggggggggggggggggggggggggggggggggggggggggggggggggggggggggggggggggggggggg",
"gggggggggggggggggggggggggggggggggggggggggggggggggggggggggggggggggggggggggggggggggggggggggggggggggggg",
"gggggggggggggggggggggggggggggggggggggggggggggggggggggggggggggggggggggggggggggggggggggggggggggggggggg",
"gggggggggggggggggggggggggggggggggggggggggggggggggggggggggggggggggggggggggggggggggggggggggggggggggggg",
"gggggggggggggggggggggggggggggggggggggggggggggggggggggggggggggggggggggggggggggggggggggggggggggggggggg",
"gggggggggggggggggggggggggggggggggggggggggggggggggggggggggggggggggggggggggggggggggggggggggggggggggggg",
"gggggggggggggggggggggggggggggggggggggggggggggggggggggggggggggggggggggggggggggggggggggggggggggggggggg",
"gggggggggggggggggggggggggggggggggggggggggggggggggggggggggggggggggggggggggggggggggggggggggggggggggggg",
"gggggggggggggggggggggggggggggggggggggggggggggggggggggggggggggggggggggggggggggggggggggggggggggggggggg",
"gggggggggggggggggggggggggggggggggggggggggggggggggggggggggggggggggggggggggggggggggggggggggggggggggggg",
"gggggggggggggggggggggggggggggggggggggggggggggggggggggggggggggggggggggggggggggggggggggggggggggggggggg",
"gggggggggggggggggggggggggggggggggggggggggggggggggggggggggggggggggggggggggggggggggggggggggggggggggggg",
"gggggggggggggggggggggggggggggggggggggggggggggggggggggggggggggggggggggggggggggggggggggggggggggggggggg",
"gggggggggggggggggggggggggggggggggggggggggggggggggggggggggggggggggggggggggggggggggggggggggggggggggggg",
"gggggggggggggggggggggggggggggggggggggggggggggggggggggggggggggggggggggggggggggggggggggggggggggggggggg",
"gggggggggggggggggggggggggggggggggggggggggggggggggggggggggggggggggggggggggggggggggggggggggggggggggggg",
"gggggggggggggggggggggggggggggggggggggggggggggggggggggggggggggggggggggggggggggggggggggggggggggggggggg",
"gggggggggggggggggggggggggggggggggggggggggggggggggggggggggggggggggggggggggggggggggggggggggggggggggggg",
"gggggggggggggggggggggggggggggggggggggggggggggggggggggggggggggggggggggggggggggggggggggggggggggggggggg",
"gggggggggggggggggggggggggggggggggggggggggggggggggggggggggggggggggggggggggggggggggggggggggggggggggggg",
"gggggggggggggggggggggggggggggggggggggggggggggggggggggggggggggggggggggggggggggggggggggggggggggggggggg",
"gggggggggggggggggggggggggggggggggggggggggggggggggggggggggggggggggggggggggggggggggggggggggggggggggggg",
"gggggggggggggggggggggggggggggggggggggggggggggggggggggggggggggggggggggggggggggggggggggggggggggggggggg",
"gggggggggggggggggggggggggggggggggggggggggggggggggggggggggggggggggggggggggggggggggggggggggggggggggggg",
"gggggggggggggggggggggggggggggggggggggggggggggggggggggggggggggggggggggggggggggggggggggggggggggggggggg",
"ggggggggggggggggggggggggggggggggggggggggggggggggggggggggbbffbbgggggggggggggggggggggggggggggggggggggg",
"ggggggggggggggggggggggggggggggggggggggggggggggggggggggggbf.dfbbggggggggggggggggggggggggggggggggggggg",
"ggggggggggggggggggggggggggggggggggggggggggggggggggggbbf.jh##hdibbggggggggggggggggggggggggggggggggggg",
"ggggggggggggggggggggggggggggggggggggggggggggggggggggbfj#c``kk`hibggggggggggggggggggggggggggggggggggg",
"ggggggggggggggggggggggggggggggggggggggggggggggggbf..dhecckceckc#.fbggggggggggggggggggggggggggggggggg",
"ggggggggggggggggggggggggggggggggggggggggggggggbb.#cc````kellek``cjfggggggggggggggggggggggggggggggggg",
"ggggggggggggggggggggggggggggggggggggggggggbbff.j#ccck```kkkekkk`c#d.fggggggggggggggggggggggggggggggg",
"gggggggggggggggggggggggggggggggggggggggggbmfj#c``kkekkkk```kkkkkkccc.bgggggggggggggggggggggggggggggg",
"ggggggggggggggggggggggggggggggggggggggbffjdd#cc`kkaeakkkkkkkkkkkkccc#jfbgggggggggggggggggggggggggggg",
"gggggggggggggggggggggggggggggggggggggbf.#`cck`kkkaalaakkkkk```kaeec`ccdmbggggggggggggggggggggggggggg",
"ggggggggggggggggggggggggggggggggbmff.jd#cccckkkkkkkakkkkkkkk``kaaekk``#d.fbggggggggggggggggggggggggg",
"ggggggggggggggggggggggggggggggggm.jhc````ceeakkkk``kkkkkaakkk`kkkkkk```c#.fggggggggggggggggggggggggg",
"ggggggggggggggggggggggggggggbbf.d##ec```kkaeakkkkkk``kkaalakk`kkkkkkkkkcc#jfbggggggggggggggggggggggg",
"ggggggggggggggggggggggggggggf.dcc`kckkkkkkkaakkkkkk```alllekkkkkkkkkkkaec`c#fggggggggggggggggggggggg",
"gggggggggggggggggggggggbf...d#cccceeakkkkkkkkkkkaakk``kaaekkkkkkkkkkkkaeckcch.fbgggggggggggggggggggg",
"ggggggggggggggggggggggbm.#c`````kellekk```kkkkkaaeakk```kkkkkkkakkkkkaelakk`ccjbbggggggggggggggggggg",
"gggggggggggggggggbbbf.jd#ccck``kkkaeakkkkkkkkkkaalakk```kkkkkaaaakkkkkaakkkkkc#dfbbggggggggggggggggg",
"ggggggggggggggggbbmid#c``kcekkkkkkkkkkkakkk`kkkallakkkkkkkkkkaalakkkkkkkkkkkkkccdfbggggggggggggggggg",
"gggggggggggggbbf.jdhec```ccekkkkkkkkkkkaaakkkkkkaakkkkkkkkkkkkaeakkkkkkkkkkaaeccch.fbggggggggggggggg",
"ggggggggggggbbid#ckk````kceeakkkkk```kkaelakkkkkkkkkkkkakkkkkkaeakkkkkkkkkaallek``#.fggggggggggggggg",
"gggggggggggbfd#ecckkkk``kkkkkkkkkkk``kkaaeakkkkkkkkkkaaeakkkkkkkkkkkkkkkkkkaaaakk`#dfggggggggggggggg",
"ggggggggggbfd```keaaakk``kk`kkkkkkkkkkkaaaakkkkkkkkkaallakk`kkkkkkkkkkkkkkkkaakkkcc#fggggggggggggggg",
"ggggggggggbfd```kaaaakk```kkkkaaaakkk`kkkkkkkkkkkkkkkkaaakkkkkkkkkkaaeakkkkaaakkccd.fggggggggggggggg",
"ggggggggggbfd``kkaaakkkkk`kkkkalllakk`kkkkk`kkkkkkkkkkkkkkkkkkkkkkkelllakkkaaakce#.mbggggggggggggggg",
"ggggggggggbb.#ckkkkkkkkkkkkkkkaaaaakkkkkkkkkkaeekkkkkkkkkkkkkkkkkkkkaeaakkkaeehj.ffbgggggggggggggggg",
"ggggggggggggf.#``kkkkkkkkkk`kkkaaaakkkkkk`kkaeelekkkkkkkkkkaaakkkkkkkkkkkkcehjimbggggggggggggggggggg",
"ggggggggggggbf.hc`kkkkaeeakkkkkkkkkkkaaakkkkkkaekkkkkkkkkkkaalakkkkkkkkcehjjifmbbggggggggggggggggggg",
"ggggggggggggggbihckkkkelllakkkkkkkkkaaaaakk````kkkkkkkkkkkaallakkkaaakceh.fbbggggggggggggggggggggggg",
"ggggggggggggggbb.dekkkaeaakkkkkkkkkkaaaaakkkkkk`kkkaaakkkkkaaaaakkaeehj.imbbgggggggggggggggggggggggg",
"ggggggggggggggggbfdckkkkkkkkkkkkkkkkaleaakkkkkk`kkkaeeakkkkkkaaakkehjimbbggggggggggggggggggggggggggg",
"ggggggggggggggggbbid#kkkkkkkaaakkkkkkaaakkkkkkkkkkkaaeakkkkkkaeehdjifbbggggggggggggggggggggggggggggg",
"ggggggggggggggggggbmdckkkkkkaleak``kkkkkkkkaaakkkkkaaaakkaaaaceh.mbggggggggggggggggggggggggggggggggg",
"gggggggggggggggggggbfj#ckkkkalaakkkkkkk`kkkaaaakkkkaaaakkaeehj.ffbbggggggggggggggggggggggggggggggggg",
"ggggggggggggggggggggbbjcckkkaeaakkkkkk```kalllakkkkkkkkkcc#jibbggggggggggggggggggggggggggggggggggggg",
"gggggggggggggggggggggbf.#ckkkaakkkkkkkk`kkkaaaaaaakkkcehd..fbbgggggggggggggggggggggggggggggggggggggg",
"ggggggggggggggggggggggbb.cckkkkkkkkaaak`kkkaaaaaaaakcch.mbgggggggggggggggggggggggggggggggggggggggggg",
"ggggggggggggggggggggggggf.hcckkkkaaeaakkkkkkaaaaaeehj.fmbggggggggggggggggggggggggggggggggggggggggggg",
"gggggggggggggggggggggggggb.#c`kkkalllakkkkkkkaeeeejimggggggggggggggggggggggggggggggggggggggggggggggg",
"ggggggggggggggggggggggggggmidcckkkalaaakkkkkcehjj.fbbggggggggggggggggggggggggggggggggggggggggggggggg",
"ggggggggggggggggggggggggggggfhekkkkaaaaaakkcch.mbggggggggggggggggggggggggggggggggggggggggggggggggggg",
"ggggggggggggggggggggggggggggbfjeckkkaaaaeehj.ffbgggggggggggggggggggggggggggggggggggggggggggggggggggg",
"ggggggggggggggggggggggggggggggfd#ckkcecchjibbggggggggggggggggggggggggggggggggggggggggggggggggggggggg",
"ggggggggggggggggggggggggggggggbfj#cc#hjjifbbgggggggggggggggggggggggggggggggggggggggggggggggggggggggg",
"ggggggggggggggggggggggggggggggggf.d#d.mbbggggggggggggggggggggggggggggggggggggggggggggggggggggggggggg",
"ggggggggggggggggggggggggggggggggbff.fmbggggggggggggggggggggggggggggggggggggggggggggggggggggggggggggg",
"gggggggggggggggggggggggggggggggggggggggggggggggggggggggggggggggggggggggggggggggggggggggggggggggggggg",
"gggggggggggggggggggggggggggggggggggggggggggggggggggggggggggggggggggggggggggggggggggggggggggggggggggg",
"gggggggggggggggggggggggggggggggggggggggggggggggggggggggggggggggggggggggggggggggggggggggggggggggggggg",
"gggggggggggggggggggggggggggggggggggggggggggggggggggggggggggggggggggggggggggggggggggggggggggggggggggg",
"gggggggggggggggggggggggggggggggggggggggggggggggggggggggggggggggggggggggggggggggggggggggggggggggggggg",
"gggggggggggggggggggggggggggggggggggggggggggggggggggggggggggggggggggggggggggggggggggggggggggggggggggg",
"gggggggggggggggggggggggggggggggggggggggggggggggggggggggggggggggggggggggggggggggggggggggggggggggggggg",
"gggggggggggggggggggggggggggggggggggggggggggggggggggggggggggggggggggggggggggggggggggggggggggggggggggg",
"gggggggggggggggggggggggggggggggggggggggggggggggggggggggggggggggggggggggggggggggggggggggggggggggggggg",
"gggggggggggggggggggggggggggggggggggggggggggggggggggggggggggggggggggggggggggggggggggggggggggggggggggg",
"gggggggggggggggggggggggggggggggggggggggggggggggggggggggggggggggggggggggggggggggggggggggggggggggggggg",
"gggggggggggggggggggggggggggggggggggggggggggggggggggggggggggggggggggggggggggggggggggggggggggggggggggg",
"gggggggggggggggggggggggggggggggggggggggggggggggggggggggggggggggggggggggggggggggggggggggggggggggggggg",
"gggggggggggggggggggggggggggggggggggggggggggggggggggggggggggggggggggggggggggggggggggggggggggggggggggg",
"gggggggggggggggggggggggggggggggggggggggggggggggggggggggggggggggggggggggggggggggggggggggggggggggggggg",
"gggggggggggggggggggggggggggggggggggggggggggggggggggggggggggggggggggggggggggggggggggggggggggggggggggg",
"gggggggggggggggggggggggggggggggggggggggggggggggggggggggggggggggggggggggggggggggggggggggggggggggggggg",
"gggggggggggggggggggggggggggggggggggggggggggggggggggggggggggggggggggggggggggggggggggggggggggggggggggg",
"gggggggggggggggggggggggggggggggggggggggggggggggggggggggggggggggggggggggggggggggggggggggggggggggggggg",
"gggggggggggggggggggggggggggggggggggggggggggggggggggggggggggggggggggggggggggggggggggggggggggggggggggg",
"gggggggggggggggggggggggggggggggggggggggggggggggggggggggggggggggggggggggggggggggggggggggggggggggggggg",
"gggggggggggggggggggggggggggggggggggggggggggggggggggggggggggggggggggggggggggggggggggggggggggggggggggg",
"gggggggggggggggggggggggggggggggggggggggggggggggggggggggggggggggggggggggggggggggggggggggggggggggggggg",
"gggggggggggggggggggggggggggggggggggggggggggggggggggggggggggggggggggggggggggggggggggggggggggggggggggg",
"gggggggggggggggggggggggggggggggggggggggggggggggggggggggggggggggggggggggggggggggggggggggggggggggggggg",
"gggggggggggggggggggggggggggggggggggggggggggggggggggggggggggggggggggggggggggggggggggggggggggggggggggg",
"gggggggggggggggggggggggggggggggggggggggggggggggggggggggggggggggggggggggggggggggggggggggggggggggggggg"
};
