/* XPM */
static char *DVY_StubBrick_1x2_xpm[] = {
/* width height num_colors chars_per_pixel */
"   100   100       16            1",
/* colors */
"` c #5b5b5b",
". c #b1b2b1",
"# c #878687",
"a c #dfdedf",
"b c #717271",
"c c #c9cac9",
"d c #9f9d9f",
"e c #f2f3f2",
"f c #666666",
"g c #bebdbe",
"h c #939293",
"i c #e7e8e7",
"j c #7c7c7c",
"k c #d4d4d4",
"l c #a8a8a8",
"m c #ffffff",
/* pixels */
"mmmmmmmmmmmmmmmmmmmmmmmmmmmmmmmmmmmmmmmmmmmmmmmmmmmmmmmmmmmmmmmmmmmmmmmmmmmmmmmmmmmmmmmmmmmmmmmmmmmm",
"mmmmmmmmmmmmmmmmmmmmmmmmmmmmmmmmmmmmmmmmmmmmmmmmmmmmmmmmmmmmmmmmmmmmmmmmmmmmmmmmmmmmmmmmmmmmmmmmmmmm",
"mmmmmmmmmmmmmmmmmmmmmmmmmmmmmmmmmmmmmmmmmmmmmmmmmmmmmmmmmmmmmmmmmmmmmmmmmmmmmmmmmmmmmmmmmmmmmmmmmmmm",
"mmmmmmmmmmmmmmmmmmmmmmmmmmmmmmmmmmmmmmmmmmmmmmmmmmmmmmmmmmmmmmmmmmmmmmmmmmmmmmmmmmmmmmmmmmmmmmmmmmmm",
"mmmmmmmmmmmmmmmmmmmmmmmmmmmmmmmmmmmmmmmmmmmmmmmmmmmmmmmmmmmmmmmmmmmmmmmmmmmmmmmmmmmmmmmmmmmmmmmmmmmm",
"mmmmmmmmmmmmmmmmmmmmmmmmmmmmmmmmmmmmmmmmmmmmmmmmmmmmmmmmmmmmmmmmmmmmmmmmmmmmmmmmmmmmmmmmmmmmmmmmmmmm",
"mmmmmmmmmmmmmmmmmmmmmmmmmmmmmmmmmmmmmmmmmmmmmmmmmmmmmmmmmmmmmmmmmmmmmmmmmmmmmmmmmmmmmmmmmmmmmmmmmmmm",
"mmmmmmmmmmmmmmmmmmmmmmmmmmmmmmmmmmmmmmmmmmmmmmmmmmmmmmmmmmmmmmmmmmmmmmmmmmmmmmmmmmmmmmmmmmmmmmmmmmmm",
"mmmmmmmmmmmmmmmmmmmmmmmmmmmmmmmmmmmmmmmmmmmmmmmmmmmmmmmmmmmmmmmmmmmmmmmmmmmmmmmmmmmmmmmmmmmmmmmmmmmm",
"mmmmmmmmmmmmmmmmmmmmmmmmmmmmmmmmmmmmmmmmmmmmmmmmmmmmmmmmmmmmmmmmmmmmmmmmmmmmmmmmmmmmmmmmmmmmmmmmmmmm",
"mmmmmmmmmmmmmmmmmmmmmmmmmmmmmmmmmmmmmmmmmmmmmmmmmmmmmmmmmmmmmmmmmmmmmmmmmmmmmmmmmmmmmmmmmmmmmmmmmmmm",
"mmmmmmmmmmmmmmmmmmmmmmmmmmmmmmmmmmmmmmmmmmmmmmmmmmmmmmmmmmmmmmmmmmmmmmmmmmmmmmmmmmmmmmmmmmmmmmmmmmmm",
"mmmmmmmmmmmmmmmmmmmmmmmmmmmmmmmmmmmmmmmmmmmmmmmmmmmmmmmmmmmmmmmmmmmmmmmmmmmmmmmmmmmmmmmmmmmmmmmmmmmm",
"mmmmmmmmmmmmmmmmmmmmmmmmmmmmmmmmmmmmmmmmmmmmmmmmmmmmmmmmmmmmmmmmmmmmmmmmmmmmmmmmmmmmmmmmmmmmmmmmmmmm",
"mmmmmmmmmmmmmmmmmmmmmmmmmmmmmmmmmmmmmmmmmmmmmmmmmmmmmmmmmmmmmmmmmmmmmmmmmmmmmmmmmmmmmmmmmmmmmmmmmmmm",
"mmmmmmmmmmmmmmmmmmmmmmmmmmmmmmmmmmmmmmmmmmmmmmmmmmmmmmmmmmmmmmmmmmmmmmmmmmmmmmmmmmmmmmmmmmmmmmmmmmmm",
"mmmmmmmmmmmmmmmmmmmmmmmmmmmmmmmmmmmmmmmmmmmmmmmmmmmmmmmmmmmmmmmmmmmmmmmmmmmmmmmmmmmmmmmmmmmmmmmmmmmm",
"mmmmmmmmmmmmmmmmmmmmmmmmmmmmmmmmmmmmmmmmmmmmmmmmmmmmmmmmmmmmmmmmmmmmmmmmmmmmmmmmmmmmmmmmmmmmmmmmmmmm",
"mmmmmmmmmmmmmmmmmmmmmmmmmmmmmmmmmmmmmmmmmmmmmmmmmmmmmmmmmmmmmmmmmmmmmmmmmmmmmmmmmmmmmmmmmmmmmmmmmmmm",
"mmmmmmmmmmmmmmmmmmmmmmmmmmmmmmmmmmmmmmmmmmmmmmmmmmmmmmmmmmmmmmmmmmmmmmmmmmmmmmmmmmmmmmmmmmmmmmmmmmmm",
"mmmmmmmmmmmmmmmmmmmmmmmmmmmmmmmmmmmmmmmmmmmmmmmmmmmmmmmmmmmmmmmmmmmmmmmmmmmmmmmmmmmmmmmmmmmmmmmmmmmm",
"mmmmmmmmmmmmmmmmmmmmmmmmmmmmmmmmmmmmmmmmmmmmmmmmmmmmmmmmmmmmmmmmmmmmmmmmmmmmmmmmmmmmmmmmmmmmmmmmmmmm",
"mmmmmmmmmmmmmmmmmmmmmmmmmmmmmmmmmmmmmmmmmmmmmmmmmmmmmmmmmmmmmmmmmmmmmmmmmmmmmmmmmmmmmmmmmmmmmmmmmmmm",
"mmmmmmmmmmmmmmmmmmmmmmmmmmmmmmmmmmmmmmmmmmmmmmmmmmmmmmmmmmmmmmmmmmmmmmmmmmmmmmmmmmmmmmmmmmmmmmmmmmmm",
"mmmmmmmmmmmmmmmmmmmmmmmmmmmmmmmmmmmmmmmmmmmmmmmmmmmmmmmmmmmmeeemmmmmmmmmmmmmmmmmmmmmmmmmmmmmmmmmmmmm",
"mmmmmmmmmmmmmmmmmmmmmmmmmmmmmmmmmmmmmmmmmmmmmmmmmmmmmmmmmmmeeeemmmmmmmmmmmmmmmmmmmmmmemmmmmmmmmmmmmm",
"mmmmmmmmmmmmmmmmmmmmmmmmmmmmmmmmmmmmmmmmmmmmmmmmmmmmeiacgg....ciemmmmmmmmeiakcg.gkimmmmmmmmmmmmmmmmm",
"mmmmmmmmmmmmmmmmmmmmmmmmmmmmmmmmmmmmmmmmmmmmmmmmmmmmik.d#bbbbbdkiemmmmmmeikglhjf#lcmmmmmmmmmmmmmmmmm",
"mmmmmmmmmmmmmmmmmmmmmmmmmmmmmmmmmmmmmmmmmmmmmmmmmmiagdh#jjbbbb#d.kaiakcg.dh#jbf`b#lcammmmmmmmmmmmmmm",
"mmmmmmmmmmmmmmmmmmmmmmmmmmmmmmmmmmmmmmmmmmmmmmmmmma.hfffbjbbbbff#.cag.hbf`````````jdcemmmmmmmmmmmmmm",
"mmmmmmmmmmmmmmmmmmmmmmmmmmmmmmmmmmmmmmmmmmmmmeikc.d#jffbbbbbbbffb#hdh#bf````fffbbb#dgeemmmmmmmmmmmmm",
"mmmmmmmmmmmmmmmmmmmmmmmmmmmmmmmmmmmmmmmmmmmmeeclhbfffbbbbbbbbbfff``````````ffbj#hhhdgaemmmmmmmmmmmmm",
"mmmmmmmmmmmmmmmmmmmmmmmmmmmmmmmmmmmmmmmmeiacgld#jfffbjjbbbbffbbbf``f```ffbjj##hhhhh#.aemmmmmmmmmmmmm",
"mmmmmmmmmmmmmmmmmmmmmmmmmmmmmmmmmmmmmmmeik.hjffff`ffj##jbffffbbjf``ffffb#hhdddddhh#jlaimmmmmmmmmmmmm",
"mmmmmmmmmmmmmmmmmmmmmmmmmmmmmmmmmeikcggg.dhjbfffffffj#hhhhhh####f``fffffj#hdhhhhhh##.aemmmmmmmmmmmmm",
"mmmmmmmmmmmmmmmmmmmmmmmmmmmmmmmmeeclh#jjbfffffffffffb#dl.ggg.dh#b``fffffb#hdh###hhh#.iemmmmmmmmmmmmm",
"mmmmmmmmmmmmmmmmmmmmmmmmmmmmmmeec.d##jbbbbffffffffffj#dl....llh#bfffffbbj##hhhhdl.dhgiemmmmmmmmmmmmm",
"mmmmmmmmmmmmmmmmmmmmmmmmmmmmmmealbffbbbffbfffffffffbjhdl....llh#jbffffb#####hhdlgkgdgiemmmmmmmmmmmmm",
"mmmmmmmmmmmmmmmmmmmmmmmmmmeakg.d#fbbbbbfbbfff`ffffffbj#hddddhh#jbfbbbj##hh#bjjh.caghgeemmmmmmmmmmmmm",
"mmmmmmmmmmmmmmmmmmmmmemmmmacl#bfffbbbbbbbbff```fffffffbj#hh##jbbffb##hhhhhjfffh.ca.#gemmmmmmmmmmmmmm",
"mmmmmmmmmmmmmmmmmmmmmmeac.lh#bffbbbbbbbbfffbf`fffffffffbbjjbbjjjjj#hhhhhhhjffb#l.clhgeemmmmmmmmmmmmm",
"mmmmmmmmmmmmmmmmmmmmmmagdbf`fff`b#jbbbbbfffbbfffffffffffffffbbj#hhdddhhhh#jfbb#dlldhgeemmmmmmmmmmmmm",
"mmmmmmmmmmmmmmmmmmmmmma.hbbffff`b###hhhh####b`ffffffffffbbbj###hhhhhhhhhh##jjjhdl.gcaemmmmmmmmmmmmmm",
"mmmmmmmmmmmmmmmmmmmmmmklhjbbff``b#dl....lldhb``fffffffffbj#hhdhhhhh#hhhhhhhhh#hhlgammmmmmmmmmmmmmmmm",
"mmmmmmmmmmmmmmmmmmmmmmcdhjjbbfffb#hdl....ldhjfffffffbbjj##hhhhhhhhhhhhhhhhhhhd.gcaimmmmmmmmmmmmmmmmm",
"mmmmmmmmmmmmmmmmmmmmmmchh###bfffj#hdl....ldhjbfffffbj#hhhhhhhhhhhhhhhhhhhhhhdlciemmmmmmmmmmmmmmmmmmm",
"mmmmmmmmmmmmmmmmmmeikcdjjjj#jjbfbj##hddlddh#bfbbbbj##hhhhhhhhhhhhhhhhhhhhhlgckiemmmmmmmmmmmmmmmmmmmm",
"mmmmmmmmmmmmmmmmmmicl#bfbjj###jbffbb#hhdh#jbffbj##hhhhhhhhhhhhhhhhhhhhhhhhgiemmmmmmmmmmmmmmmmmmmmmmm",
"mmmmmmmmmmmmmmeik.lh##jb#h####jbbbbbbjjjjbbbjj###hhhhhhhhhhhhhhhhhhhhhhhhhcemmmmmmmmmmmmmmmmmmmmmmmm",
"mmmmmmmemmmmmeiklbf`bj##hdhj####jbbfffffffbj#hhhhhhhhhhhhhhhhhhhh#hdhhhhhdcmmmmmmmmmmmmmmmmmmmmmmmmm",
"mmmmmmmmmmeacg.lhjbfjhhhddh#jj##jjbbbbbbj##hhhhhhhhhhhhhhhhhhhhhhhhhhhhhddcmmmmmmmmmmmmmmmmmmmmmmmmm",
"mmmmmmmmmmagl#jb#h#b#ddddlh#jj###jjbbbj#hdddhhhhhhhhhhhhhhhhhhhhhhhhhhhhddkmmmmmmmmmmmmmmmmmmmmmmmmm",
"mmmmmmmmeaclh#####jb#dddddh#jjj#########hhhhhhhhhhhhhhhhhhhhhhhhhhhhhhhhddcmmmmmmmmmmmmmmmmmmmmmmmmm",
"mmmmmmmmaclh##hhh#jb#dddddh#jjjjj##hhdhhhhhhhhhhhhhhhhhhhhhhhhhhhhhhhhhhddcmmmmmmmmmmmmmmmmmmmmmmmmm",
"mmmmmmmmk.d##hhddhjb#dddddhjjjbbbj##hdhhhhhhhhhhhhhhhhhhhhhhhhhhhhhhhhhhdlkmmmmmmmmmmmmmmmmmmmmmmmmm",
"mmmmmmmech#j#hd.dd#b#dddddhjbbbffbj#hdddhhhhhhhhhhhhhhhhhhhhhhhhhhhdhhhhd.ammmmmmmmmmmmmmmmmmmmmmmmm",
"mmmmmmeeghhhd..ldh#jhddhhh#bbbbbjj#hhhhhhhhhhhhhhhhhhhhhhhhhhhhhhhhhhhhh.kimmmmmmmmmmmmmmmmmmmmmmmmm",
"mmmmmmei.#hd.cgldh##hdh###jfffb##hhddhh#hhhhhhhhhhhhhhhhhhhhhhhhhhhhhhhdceemmmmmmmmmmmmmmmmmmmmmmmmm",
"mmmmmmei.#hd.g.dhhh####h#jjjjj###hhdddhhhhhhhhhhhhhhhhhhhhhhhhhhhhhhhhlgammmmmmmmmmmmmmmmmmmmmmmmmmm",
"mmmmmmeighhhl.dhhdh#jb#h#b#hhhhhhhhhdddhhhhhhhhhhhhhhhhhhhhhhhhhhhhdhh.aemmmmmmmmmmmmmmmmmmmmmmmmmmm",
"mmmmmmeecddhdldhhh########hhhhhhhhhhhdhhhhhhhhhhhhhhhhhhhhhhhhhhhhddl.keemmmmmmmmmmmmmmmmmmmmmmmmmmm",
"mmmmmmmmk.dhdldh#####hh#hdhhhhhhhhhhhhhhhhhhhhhhhhhhhhhhhhhhhhhhhhddgkimmmmmmmmmmmmmmmmmmmmmmmmmmmmm",
"mmmmmmmmikglddddh###hhhhhhhhhhhhhhhhhhhhhhhhhhhhhhhhhhhhhhhhhhdd.gckaiemmmmmmmmmmmmmmmmmmmmmmmmmmmmm",
"mmmmmmmmmeaglhddhhhhhhhhhhhdhhhhhhhhhdhhhhhhhhhhhhhhhhhhhhhhhhl.caemmmmmmmmmmmmmmmmmmmmmmmmmmmmmmmmm",
"mmmmmmmmmmiakccc.hhhhhhhhhhhhhhhhhhhhhhhhhhhhhhhhhhhhhhhhhdl.gcaaeemmmmmmmmmmmmmmmmmmmmmmmmmmmmmmmmm",
"mmmmmmmmmmmmmeeecdhhhdhhhhhhhhhhhddhhhhhhhhhhhhhhhhhhhh#hd.caeemmmmmmmmmmmmmmmmmmmmmmmmmmmmmmmmmmmmm",
"mmmmmmmmmmmmmmmmcdddhhhhhhhhhhhhhhhhhhhhhhhhhhhhhhhhhdl.gckaeemmmmmmmmmmmmmmmmmmmmmmmmmmmmmmmmmmmmmm",
"mmmmmmmmmmmmmmmmcdddhhhhhhhhhhhhh##hhdhhhhhddhhhhhhhdlgkimmmmmmmmmmmmmmmmmmmmmmmmmmmmmmmmmmmmmmmmmmm",
"mmmmmmmmmmmmmmmmag.dh#hhhhhhdl.g.dhhhhhhhhhhhhhhdd.gckaiemmmmmmmmmmmmmmmmmmmmmmmmmmmmmmmmmmmmmmmmmmm",
"mmmmmmmmmmmmmmmmeagdh##hhhhh.gkic.dhhhhhhhhhh##hd.caemmmmmmmmmmmmmmmmmmmmmmmmmmmmmmmmmmmmmmmmmmmmmmm",
"mmmmmmmmmmmmmmmmeeag.ddl..gckaieiac.dhhhhhhhdl.gcaieemmmmmmmmmmmmmmmmmmmmmmmmmmmmmmmmmmmmmmmmmmmmmmm",
"mmmmmmmmmmmmmmmmmmeicgggckimmmmmmmic.ddhhhhh.caeemmmmmmmmmmmmmmmmmmmmmmmmmmmmmmmmmmmmmmmmmmmmmmmmmmm",
"mmmmmmmmmmmmmmmmmmeeiaaaaiemmmmmmmeikcgl..gckaiemmmmmmmmmmmmmmmmmmmmmmmmmmmmmmmmmmmmmmmmmmmmmmmmmmmm",
"mmmmmmmmmmmmmmmmmmmmmmmmmmmmmmmmmmmmeeagckimmmmmmmmmmmmmmmmmmmmmmmmmmmmmmmmmmmmmmmmmmmmmmmmmmmmmmmmm",
"mmmmmmmmmmmmmmmmmmmmmmmmmmmmmmmmmmmmmeiaaiemmmmmmmmmmmmmmmmmmmmmmmmmmmmmmmmmmmmmmmmmmmmmmmmmmmmmmmmm",
"mmmmmmmmmmmmmmmmmmmmmmmmmmmmmmmmmmmmmmmmmmmmmmmmmmmmmmmmmmmmmmmmmmmmmmmmmmmmmmmmmmmmmmmmmmmmmmmmmmmm",
"mmmmmmmmmmmmmmmmmmmmmmmmmmmmmmmmmmmmmmmmmmmmmmmmmmmmmmmmmmmmmmmmmmmmmmmmmmmmmmmmmmmmmmmmmmmmmmmmmmmm",
"mmmmmmmmmmmmmmmmmmmmmmmmmmmmmmmmmmmmmmmmmmmmmmmmmmmmmmmmmmmmmmmmmmmmmmmmmmmmmmmmmmmmmmmmmmmmmmmmmmmm",
"mmmmmmmmmmmmmmmmmmmmmmmmmmmmmmmmmmmmmmmmmmmmmmmmmmmmmmmmmmmmmmmmmmmmmmmmmmmmmmmmmmmmmmmmmmmmmmmmmmmm",
"mmmmmmmmmmmmmmmmmmmmmmmmmmmmmmmmmmmmmmmmmmmmmmmmmmmmmmmmmmmmmmmmmmmmmmmmmmmmmmmmmmmmmmmmmmmmmmmmmmmm",
"mmmmmmmmmmmmmmmmmmmmmmmmmmmmmmmmmmmmmmmmmmmmmmmmmmmmmmmmmmmmmmmmmmmmmmmmmmmmmmmmmmmmmmmmmmmmmmmmmmmm",
"mmmmmmmmmmmmmmmmmmmmmmmmmmmmmmmmmmmmmmmmmmmmmmmmmmmmmmmmmmmmmmmmmmmmmmmmmmmmmmmmmmmmmmmmmmmmmmmmmmmm",
"mmmmmmmmmmmmmmmmmmmmmmmmmmmmmmmmmmmmmmmmmmmmmmmmmmmmmmmmmmmmmmmmmmmmmmmmmmmmmmmmmmmmmmmmmmmmmmmmmmmm",
"mmmmmmmmmmmmmmmmmmmmmmmmmmmmmmmmmmmmmmmmmmmmmmmmmmmmmmmmmmmmmmmmmmmmmmmmmmmmmmmmmmmmmmmmmmmmmmmmmmmm",
"mmmmmmmmmmmmmmmmmmmmmmmmmmmmmmmmmmmmmmmmmmmmmmmmmmmmmmmmmmmmmmmmmmmmmmmmmmmmmmmmmmmmmmmmmmmmmmmmmmmm",
"mmmmmmmmmmmmmmmmmmmmmmmmmmmmmmmmmmmmmmmmmmmmmmmmmmmmmmmmmmmmmmmmmmmmmmmmmmmmmmmmmmmmmmmmmmmmmmmmmmmm",
"mmmmmmmmmmmmmmmmmmmmmmmmmmmmmmmmmmmmmmmmmmmmmmmmmmmmmmmmmmmmmmmmmmmmmmmmmmmmmmmmmmmmmmmmmmmmmmmmmmmm",
"mmmmmmmmmmmmmmmmmmmmmmmmmmmmmmmmmmmmmmmmmmmmmmmmmmmmmmmmmmmmmmmmmmmmmmmmmmmmmmmmmmmmmmmmmmmmmmmmmmmm",
"mmmmmmmmmmmmmmmmmmmmmmmmmmmmmmmmmmmmmmmmmmmmmmmmmmmmmmmmmmmmmmmmmmmmmmmmmmmmmmmmmmmmmmmmmmmmmmmmmmmm",
"mmmmmmmmmmmmmmmmmmmmmmmmmmmmmmmmmmmmmmmmmmmmmmmmmmmmmmmmmmmmmmmmmmmmmmmmmmmmmmmmmmmmmmmmmmmmmmmmmmmm",
"mmmmmmmmmmmmmmmmmmmmmmmmmmmmmmmmmmmmmmmmmmmmmmmmmmmmmmmmmmmmmmmmmmmmmmmmmmmmmmmmmmmmmmmmmmmmmmmmmmmm",
"mmmmmmmmmmmmmmmmmmmmmmmmmmmmmmmmmmmmmmmmmmmmmmmmmmmmmmmmmmmmmmmmmmmmmmmmmmmmmmmmmmmmmmmmmmmmmmmmmmmm",
"mmmmmmmmmmmmmmmmmmmmmmmmmmmmmmmmmmmmmmmmmmmmmmmmmmmmmmmmmmmmmmmmmmmmmmmmmmmmmmmmmmmmmmmmmmmmmmmmmmmm",
"mmmmmmmmmmmmmmmmmmmmmmmmmmmmmmmmmmmmmmmmmmmmmmmmmmmmmmmmmmmmmmmmmmmmmmmmmmmmmmmmmmmmmmmmmmmmmmmmmmmm",
"mmmmmmmmmmmmmmmmmmmmmmmmmmmmmmmmmmmmmmmmmmmmmmmmmmmmmmmmmmmmmmmmmmmmmmmmmmmmmmmmmmmmmmmmmmmmmmmmmmmm",
"mmmmmmmmmmmmmmmmmmmmmmmmmmmmmmmmmmmmmmmmmmmmmmmmmmmmmmmmmmmmmmmmmmmmmmmmmmmmmmmmmmmmmmmmmmmmmmmmmmmm",
"mmmmmmmmmmmmmmmmmmmmmmmmmmmmmmmmmmmmmmmmmmmmmmmmmmmmmmmmmmmmmmmmmmmmmmmmmmmmmmmmmmmmmmmmmmmmmmmmmmmm",
"mmmmmmmmmmmmmmmmmmmmmmmmmmmmmmmmmmmmmmmmmmmmmmmmmmmmmmmmmmmmmmmmmmmmmmmmmmmmmmmmmmmmmmmmmmmmmmmmmmmm",
"mmmmmmmmmmmmmmmmmmmmmmmmmmmmmmmmmmmmmmmmmmmmmmmmmmmmmmmmmmmmmmmmmmmmmmmmmmmmmmmmmmmmmmmmmmmmmmmmmmmm",
"mmmmmmmmmmmmmmmmmmmmmmmmmmmmmmmmmmmmmmmmmmmmmmmmmmmmmmmmmmmmmmmmmmmmmmmmmmmmmmmmmmmmmmmmmmmmmmmmmmmm"
};
