/* XPM */
static char * djRivet_xpm[] = {
"32 32 822 2",
"  	c #C8E5F7",
". 	c #C6E3F5",
"+ 	c #C7E4F6",
"@ 	c #C5E5F8",
"# 	c #C5E4F6",
"$ 	c #C6E3F4",
"% 	c #C6E2F1",
"& 	c #C6E1EE",
"* 	c #C3E3F1",
"= 	c #C4E5F5",
"- 	c #CAE5F7",
"; 	c #C9E3F6",
"> 	c #C4E6F6",
", 	c #C5E8F7",
"' 	c #C4E4F4",
") 	c #C4E3F4",
"! 	c #CCE8FA",
"~ 	c #CAE5F6",
"{ 	c #C6E1F2",
"] 	c #C5E4F7",
"^ 	c #BFDFF5",
"/ 	c #C2E3F9",
"( 	c #C0E5F7",
"_ 	c #BFE4F5",
": 	c #C1E3F3",
"< 	c #C1E1F3",
"[ 	c #C3E4F5",
"} 	c #C2E2F4",
"| 	c #C6E6F9",
"1 	c #C4E4F6",
"2 	c #C3E1F1",
"3 	c #C4E0EF",
"4 	c #C8E3F0",
"5 	c #C6E5F3",
"6 	c #C4E3F3",
"7 	c #CCE5F5",
"8 	c #C8E1F2",
"9 	c #C9E8F6",
"0 	c #C4E5F6",
"a 	c #C4E5F8",
"b 	c #CBEBFD",
"c 	c #C7E4F8",
"d 	c #CDE9FD",
"e 	c #CCE8FC",
"f 	c #CAE6FB",
"g 	c #C8E5F9",
"h 	c #C9E7FC",
"i 	c #C2E3F6",
"j 	c #C3E5F7",
"k 	c #C1E0F2",
"l 	c #C2E1F3",
"m 	c #C5E2F4",
"n 	c #C5E5F7",
"o 	c #C4E3F5",
"p 	c #C4E2F2",
"q 	c #C8E3F1",
"r 	c #C6E3F0",
"s 	c #CBE7F5",
"t 	c #CFE4F5",
"u 	c #C6DBEC",
"v 	c #C9E5F3",
"w 	c #B9D8E7",
"x 	c #A4C2D7",
"y 	c #9DBACF",
"z 	c #8CA7BC",
"A 	c #8FA8BE",
"B 	c #A3BAD1",
"C 	c #BED5ED",
"D 	c #BED5E8",
"E 	c #B9D2E1",
"F 	c #C3DFF0",
"G 	c #CBE6FB",
"H 	c #C4E2F4",
"I 	c #C2E2F5",
"J 	c #C3E2F4",
"K 	c #C7E4F4",
"L 	c #C8E4F3",
"M 	c #C7E3F0",
"N 	c #CBE6F3",
"O 	c #C1D8E6",
"P 	c #C0D1E1",
"Q 	c #D2E3F2",
"R 	c #B8CFDE",
"S 	c #A0B9C7",
"T 	c #C2D5E5",
"U 	c #D5E7F6",
"V 	c #D3E3F2",
"W 	c #BDCBDC",
"X 	c #909DB2",
"Y 	c #677693",
"Z 	c #AABCCC",
"` 	c #C2D8DF",
" .	c #A1B7C6",
"..	c #ABC1DC",
"+.	c #CDE7FC",
"@.	c #C4E0F2",
"#.	c #C4E0F3",
"$.	c #C1DDF0",
"%.	c #C4E1F3",
"&.	c #C4E1F2",
"*.	c #CCE7F5",
"=.	c #BED8E5",
"-.	c #BBD1DF",
";.	c #DEEDF9",
">.	c #CEDDE9",
",.	c #7B919F",
"'.	c #889BA7",
").	c #B3BBC5",
"!.	c #959CA7",
"~.	c #8B909B",
"{.	c #797C88",
"].	c #56596B",
"^.	c #3B4666",
"/.	c #6B7B89",
"(.	c #DEF1F4",
"_.	c #D2E4F1",
":.	c #93A4C3",
"<.	c #96AFC4",
"[.	c #CBE5F7",
"}.	c #C5DEF2",
"|.	c #C6DFF3",
"1.	c #C4E3F7",
"2.	c #C0E0F3",
"3.	c #C1E2F5",
"4.	c #C2E3F5",
"5.	c #C5E2F9",
"6.	c #C0E0F5",
"7.	c #C1E5F7",
"8.	c #C3E3F5",
"9.	c #C3DDEF",
"0.	c #A0B3C4",
"a.	c #D9E7F2",
"b.	c #F1F9FF",
"c.	c #D4DDE5",
"d.	c #76868E",
"e.	c #6F7E8B",
"f.	c #767D8F",
"g.	c #343B49",
"h.	c #1C222C",
"i.	c #84888E",
"j.	c #969BA2",
"k.	c #5C6876",
"l.	c #77828B",
"m.	c #EBF6FC",
"n.	c #EEF7FF",
"o.	c #98A0A9",
"p.	c #586C89",
"q.	c #BCD9F0",
"r.	c #C6E9F6",
"s.	c #BFDFF1",
"t.	c #C2E1F5",
"u.	c #C3E4F7",
"v.	c #C0E1F4",
"w.	c #C6E4FA",
"x.	c #BEDFF4",
"y.	c #BBE0F3",
"z.	c #C9EAFD",
"A.	c #ACC7DA",
"B.	c #667A8B",
"C.	c #B6C4CF",
"D.	c #E6EFF5",
"E.	c #F3FBFF",
"F.	c #DFECF1",
"G.	c #9FACB8",
"H.	c #666D7E",
"I.	c #2C3341",
"J.	c #242B34",
"K.	c #B1B6BA",
"L.	c #F6FBFF",
"M.	c #C8D3DE",
"N.	c #DCE5EC",
"O.	c #CFD8E0",
"P.	c #8B949E",
"Q.	c #555D66",
"R.	c #4E627E",
"S.	c #ABC9DF",
"T.	c #C2E7F3",
"U.	c #BBDCEE",
"V.	c #C1E0F4",
"W.	c #BFE1F4",
"X.	c #C4E1F8",
"Y.	c #C0E0F6",
"Z.	c #BEE2F5",
"`.	c #CBECFE",
" +	c #B3CEE0",
".+	c #526978",
"++	c #5A6D77",
"@+	c #929DA4",
"#+	c #B4BBC1",
"$+	c #B9C3CC",
"%+	c #C5CFDA",
"&+	c #C2C9D4",
"*+	c #B3BAC4",
"=+	c #B1B6BF",
"-+	c #B0B3B9",
";+	c #A5A8AF",
">+	c #A0A9B5",
",+	c #828D98",
"'+	c #5A6673",
")+	c #616D7C",
"!+	c #5E6C7B",
"~+	c #586E84",
"{+	c #BCD9EE",
"]+	c #BFE4F4",
"^+	c #BFE0F3",
"/+	c #C4E2F7",
"(+	c #C2E2F6",
"_+	c #C0E2F5",
":+	c #C1E2F4",
"<+	c #CEE9FB",
"[+	c #829BAA",
"}+	c #384E58",
"|+	c #414C53",
"1+	c #51565D",
"2+	c #585E6A",
"3+	c #4E5661",
"4+	c #3A4046",
"5+	c #373C42",
"6+	c #3D3F47",
"7+	c #56565E",
"8+	c #A4A4AD",
"9+	c #BBC2CF",
"0+	c #C3CDDA",
"a+	c #C8D5E4",
"b+	c #6C7D91",
"c+	c #47586E",
"d+	c #A6BDCF",
"e+	c #CBEAFD",
"f+	c #BBDEF4",
"g+	c #C1E1F6",
"h+	c #BEDFF2",
"i+	c #C1E1F4",
"j+	c #C3E2F5",
"k+	c #C5E3F5",
"l+	c #C4E1F5",
"m+	c #C3E1F4",
"n+	c #C4E2F5",
"o+	c #C6E2F5",
"p+	c #CCE8F6",
"q+	c #95ADB6",
"r+	c #4C575D",
"s+	c #2D3035",
"t+	c #2F313D",
"u+	c #31353F",
"v+	c #282C2E",
"w+	c #222629",
"x+	c #1F1E25",
"y+	c #403C46",
"z+	c #B3B0BC",
"A+	c #ACB1BE",
"B+	c #818998",
"C+	c #586578",
"D+	c #61738B",
"E+	c #ABC0DA",
"F+	c #CFE7F4",
"G+	c #C0DEF0",
"H+	c #B9DBF5",
"I+	c #BCDBF1",
"J+	c #C0E0F4",
"K+	c #C1E0F6",
"L+	c #C4E1F4",
"M+	c #C0E0F2",
"N+	c #C4E2F3",
"O+	c #D2EDFC",
"P+	c #BED5E6",
"Q+	c #97ADBD",
"R+	c #778D9F",
"S+	c #617584",
"T+	c #44535D",
"U+	c #2D3B4B",
"V+	c #2E3E4F",
"W+	c #2B3B49",
"X+	c #2D404B",
"Y+	c #566C79",
"Z+	c #8EA5B2",
"`+	c #AEC8D6",
" @	c #C9E2F2",
".@	c #C9E3F3",
"+@	c #C0DFF0",
"@@	c #BCDEF1",
"#@	c #BCDFF4",
"$@	c #BADCEF",
"%@	c #C1E0F5",
"&@	c #C3E1F5",
"*@	c #C3E3F7",
"=@	c #C6E8FC",
"-@	c #C8EAFE",
";@	c #CCEBFF",
">@	c #B7D1E6",
",@	c #8DA8C0",
"'@	c #87A3BB",
")@	c #92B1C6",
"!@	c #A2C1D2",
"~@	c #D2EEFE",
"{@	c #C7E2F5",
"]@	c #C4DFF1",
"^@	c #BEE0F5",
"/@	c #BDE0F3",
"(@	c #BBDEF2",
"_@	c #C3E3F6",
":@	c #C1E3F5",
"<@	c #C4E2F9",
"[@	c #C2E1F7",
"}@	c #BEE3F5",
"|@	c #BBDFF2",
"1@	c #B7DDEF",
"2@	c #B9E0F1",
"3@	c #BADFF6",
"4@	c #C3E5FF",
"5@	c #CCEEFF",
"6@	c #CEEEFF",
"7@	c #CCEAFF",
"8@	c #C5E1FE",
"9@	c #C2E0F9",
"0@	c #BDDBF3",
"a@	c #BEDDF5",
"b@	c #BDDCF4",
"c@	c #B9DBF0",
"d@	c #BEE1F6",
"e@	c #BEE1F7",
"f@	c #BCDFF5",
"g@	c #BFDFF4",
"h@	c #C5E4F8",
"i@	c #C5E3F7",
"j@	c #C4E2F6",
"k@	c #C0E1F3",
"l@	c #BDE1F4",
"m@	c #B6DCF0",
"n@	c #BAE3F5",
"o@	c #BCE1F8",
"p@	c #C3DEFA",
"q@	c #C1DDEB",
"r@	c #B5CEDA",
"s@	c #C4D7EE",
"t@	c #CCDFFD",
"u@	c #BDE0F8",
"v@	c #B9DDF4",
"w@	c #BEE1F9",
"x@	c #BBDEF6",
"y@	c #B9DCF4",
"z@	c #BBDDF5",
"A@	c #BEE1F8",
"B@	c #BEE0F8",
"C@	c #C4E3F6",
"D@	c #C1E3F6",
"E@	c #BFE0F4",
"F@	c #C3E2F8",
"G@	c #C5E3F6",
"H@	c #C7E3F5",
"I@	c #BFE0F5",
"J@	c #B9DCF3",
"K@	c #C6E0F9",
"L@	c #B6C4D5",
"M@	c #48585B",
"N@	c #1D2A2A",
"O@	c #535566",
"P@	c #C5C8E5",
"Q@	c #BFE8FA",
"R@	c #B7DEEE",
"S@	c #B8DEEF",
"T@	c #B9E0F0",
"U@	c #BBE1F1",
"V@	c #C0E2F8",
"W@	c #C4E6FD",
"X@	c #BDDFF5",
"Y@	c #A6C8E0",
"Z@	c #C2E1F4",
"`@	c #C5E4F5",
" #	c #C1E1F5",
".#	c #C5DFF9",
"+#	c #848C95",
"@#	c #453726",
"##	c #634630",
"$#	c #A5917F",
"%#	c #A19A9F",
"&#	c #C8DFE5",
"*#	c #B6DFF1",
"=#	c #B8E8EE",
"-#	c #BDE8F6",
";#	c #B6E7F7",
">#	c #9CC4EC",
",#	c #7293C2",
"'#	c #5373A2",
")#	c #426492",
"!#	c #C8E4F6",
"~#	c #C6E6F8",
"{#	c #C5E2F3",
"]#	c #C3E0FA",
"^#	c #71787F",
"/#	c #543724",
"(#	c #815236",
"_#	c #9D8356",
":#	c #948F7C",
"<#	c #D0E0F6",
"[#	c #B1DAFF",
"}#	c #92BFDE",
"|#	c #7A9BC9",
"1#	c #5983B4",
"2#	c #39609B",
"3#	c #224081",
"4#	c #2A4587",
"5#	c #3E5A9B",
"6#	c #C6E4F6",
"7#	c #C6E5F8",
"8#	c #C5E3F4",
"9#	c #BDE0F6",
"0#	c #C2E2FC",
"a#	c #777F85",
"b#	c #54392F",
"c#	c #7C4F38",
"d#	c #917941",
"e#	c #8E906D",
"f#	c #9CB9E4",
"g#	c #5A80C4",
"h#	c #3E5B98",
"i#	c #3F4E99",
"j#	c #3A529F",
"k#	c #365499",
"l#	c #455CA4",
"m#	c #4457A0",
"n#	c #3C5199",
"o#	c #C6E4F5",
"p#	c #BEE0F7",
"q#	c #B8E1FA",
"r#	c #C6E9FF",
"s#	c #777D86",
"t#	c #784B36",
"u#	c #99814C",
"v#	c #676A49",
"w#	c #41648D",
"x#	c #385A9E",
"y#	c #3A4E88",
"z#	c #454C96",
"A#	c #475EA6",
"B#	c #40559F",
"C#	c #3C4A97",
"D#	c #3C4695",
"E#	c #3B4795",
"F#	c #C6E6F7",
"G#	c #C3E3F4",
"H#	c #C1E7FD",
"I#	c #B2E0FA",
"J#	c #A1C7E9",
"K#	c #686E7A",
"L#	c #583D2F",
"M#	c #734731",
"N#	c #917852",
"O#	c #605E57",
"P#	c #304979",
"Q#	c #293F8A",
"R#	c #364281",
"S#	c #444C99",
"T#	c #405EA9",
"U#	c #36488F",
"V#	c #343C86",
"W#	c #393B88",
"X#	c #303582",
"Y#	c #C5E1F4",
"Z#	c #C5E2F5",
"`#	c #C1E4F8",
" $	c #BEE5FC",
".$	c #B3D9F5",
"+$	c #A7CCEF",
"@$	c #87B0DD",
"#$	c #588ABF",
"$$	c #345F92",
"%$	c #444C60",
"&$	c #5F4539",
"*$	c #784935",
"=$	c #8D6D5D",
"-$	c #5E5763",
";$	c #364B7F",
">$	c #324B9B",
",$	c #3E4C9B",
"'$	c #343F89",
")$	c #254487",
"!$	c #293C79",
"~$	c #333D81",
"{$	c #383F7E",
"]$	c #354176",
"^$	c #C3E4F6",
"/$	c #C5E2F8",
"($	c #C4E5FA",
"_$	c #BEE4FC",
":$	c #BFE6FF",
"<$	c #99C1E4",
"[$	c #5480B3",
"}$	c #3E68A5",
"|$	c #375896",
"1$	c #294A8B",
"2$	c #3A62AB",
"3$	c #3C619C",
"4$	c #495467",
"5$	c #5E453E",
"6$	c #71472C",
"7$	c #91705E",
"8$	c #675C5B",
"9$	c #2E4463",
"0$	c #2E4C85",
"a$	c #2C3E85",
"b$	c #323B80",
"c$	c #273B88",
"d$	c #263A83",
"e$	c #2A388A",
"f$	c #2B397F",
"g$	c #2B3C74",
"h$	c #C4E5F7",
"i$	c #C2E4F9",
"j$	c #C5E7FA",
"k$	c #C0E4FD",
"l$	c #8FB7DD",
"m$	c #6F95C9",
"n$	c #668BC7",
"o$	c #4E71B0",
"p$	c #345AA5",
"q$	c #21428D",
"r$	c #273D76",
"s$	c #556490",
"t$	c #616F9A",
"u$	c #7C8CAF",
"v$	c #616671",
"w$	c #4B382A",
"x$	c #644521",
"y$	c #846A41",
"z$	c #655A3B",
"A$	c #556264",
"B$	c #788FA2",
"C$	c #7E89A6",
"D$	c #605F8C",
"E$	c #313A81",
"F$	c #253586",
"G$	c #34459C",
"H$	c #2F4198",
"I$	c #293D8D",
"J$	c #C4E4F7",
"K$	c #C0E3FA",
"L$	c #BFE4F9",
"M$	c #BCE2FA",
"N$	c #BADCFC",
"O$	c #A7C8F1",
"P$	c #9CBEEA",
"Q$	c #7FA5D6",
"R$	c #395D9C",
"S$	c #24438F",
"T$	c #314D9C",
"U$	c #38539B",
"V$	c #314D89",
"W$	c #485E85",
"X$	c #949DAA",
"Y$	c #92928D",
"Z$	c #797570",
"`$	c #4E4C4F",
" %	c #413E40",
".%	c #514437",
"+%	c #5A4528",
"@%	c #816A42",
"#%	c #5A4721",
"$%	c #303023",
"%%	c #414D46",
"&%	c #737769",
"*%	c #B9B3A5",
"=%	c #B9BDBF",
"-%	c #43526F",
";%	c #23376A",
">%	c #2B428D",
",%	c #354891",
"'%	c #BBE5F5",
")%	c #ADDBFC",
"!%	c #96C8F2",
"~%	c #8AB1E1",
"{%	c #5C78B4",
"]%	c #425E9F",
"^%	c #335698",
"/%	c #2F5096",
"(%	c #4862B4",
"_%	c #4357AE",
":%	c #3B4B97",
"<%	c #32447D",
"[%	c #566284",
"}%	c #B4B6BC",
"|%	c #817B65",
"1%	c #3C3112",
"2%	c #3D301D",
"3%	c #584B47",
"4%	c #463A3B",
"5%	c #3A302E",
"6%	c #493B33",
"7%	c #5B4533",
"8%	c #50351E",
"9%	c #6E6053",
"0%	c #565357",
"a%	c #332723",
"b%	c #3C2B16",
"c%	c #9C997E",
"d%	c #C3CDBA",
"e%	c #415167",
"f%	c #1C2D79",
"g%	c #303D86",
"h%	c #7AA4C7",
"i%	c #5E85B7",
"j%	c #4770B5",
"k%	c #4A6AB0",
"l%	c #455CA2",
"m%	c #364E8F",
"n%	c #2A4683",
"o%	c #354A8D",
"p%	c #4158A4",
"q%	c #3951A8",
"r%	c #3E4F9D",
"s%	c #44537F",
"t%	c #B3B6BE",
"u%	c #BBB2B2",
"v%	c #2E211D",
"w%	c #62533F",
"x%	c #8B796F",
"y%	c #998786",
"z%	c #4B3E34",
"A%	c #382D29",
"B%	c #443532",
"C%	c #6E564D",
"D%	c #624635",
"E%	c #766955",
"F%	c #8F8582",
"G%	c #6B5761",
"H%	c #614649",
"I%	c #887668",
"J%	c #D3D6AA",
"K%	c #5D6A72",
"L%	c #2D3C93",
"M%	c #373F96",
"N%	c #3F63A5",
"O%	c #415DA2",
"P%	c #536CB2",
"Q%	c #475EA1",
"R%	c #384A89",
"S%	c #37447F",
"T%	c #353E76",
"U%	c #384575",
"V%	c #375187",
"W%	c #3D60AE",
"X%	c #264298",
"Y%	c #3D4C7F",
"Z%	c #A0AA9B",
"`%	c #C9CBBE",
" &	c #817C8A",
".&	c #827977",
"+&	c #8F846F",
"@&	c #9E9577",
"#&	c #514E2A",
"$&	c #51482C",
"%&	c #4C3F24",
"&&	c #B0A181",
"*&	c #7E704C",
"=&	c #645938",
"-&	c #A0936A",
";&	c #67573E",
">&	c #87735E",
",&	c #C7B582",
"'&	c #9CA360",
")&	c #51655C",
"!&	c #1C3281",
"~&	c #303E8D",
"{&	c #415E9E",
"]&	c #344B88",
"^&	c #364986",
"/&	c #394B84",
"(&	c #414E84",
"_&	c #3F4779",
":&	c #2C3061",
"<&	c #36426B",
"[&	c #2F436F",
"}&	c #395295",
"|&	c #3F55A7",
"1&	c #3C4A86",
"2&	c #505771",
"3&	c #ADB39B",
"4&	c #C3CC8A",
"5&	c #9F9E68",
"6&	c #ADA17F",
"7&	c #B1A48C",
"8&	c #837974",
"9&	c #3E3331",
"0&	c #3F3130",
"a&	c #40312A",
"b&	c #3F2F21",
"c&	c #887257",
"d&	c #9E8D67",
"e&	c #847A4F",
"f&	c #A29F6A",
"g&	c #ACB167",
"h&	c #8A9A67",
"i&	c #4C616B",
"j&	c #253B8F",
"k&	c #324491",
"l&	c #3D5694",
"m&	c #395084",
"n&	c #55699D",
"o&	c #4E5E91",
"p&	c #343E6E",
"q&	c #363A67",
"r&	c #2C2E57",
"s&	c #202849",
"t&	c #283652",
"u&	c #2B3B6E",
"v&	c #323F8E",
"w&	c #38458F",
"x&	c #3C3E75",
"y&	c #605F54",
"z&	c #939646",
"A&	c #A79D58",
"B&	c #BDA67F",
"C&	c #A98F75",
"D&	c #9B8678",
"E&	c #5B453B",
"F&	c #4F392F",
"G&	c #624F3E",
"H&	c #837254",
"I&	c #AFA36F",
"J&	c #C1BC8A",
"K&	c #C6C998",
"L&	c #BFCC9D",
"M&	c #869770",
"N&	c #394B57",
"O&	c #273C75",
"P&	c #2C42A7",
"Q&	c #3345A3",
"R&	c #405D99",
"S&	c #426091",
"T&	c #50679C",
"U&	c #46598C",
"V&	c #425180",
"W&	c #3A446E",
"X&	c #323861",
"Y&	c #30364F",
"Z&	c #2B3441",
"`&	c #2D3559",
" *	c #2D347F",
".*	c #333E97",
"+*	c #2F417A",
"@*	c #333F69",
"#*	c #44446D",
"$*	c #585160",
"%*	c #6E6051",
"&*	c #6D623D",
"**	c #605D2E",
"=*	c #57552D",
"-*	c #52542C",
";*	c #696F3E",
">*	c #A7AF77",
",*	c #B9C293",
"'*	c #94A080",
")*	c #728468",
"!*	c #546A5E",
"~*	c #3E516B",
"{*	c #33488D",
"]*	c #2E469A",
"^*	c #28419E",
"/*	c #263F97",
"(*	c #34548E",
"_*	c #4B6D9B",
":*	c #455E91",
"<*	c #3A5083",
"[*	c #475989",
"}*	c #485684",
"|*	c #2E3A67",
"1*	c #2E344B",
"2*	c #2C323C",
"3*	c #2B2E4A",
"4*	c #33367B",
"5*	c #434AA7",
"6*	c #354CA1",
"7*	c #314FAB",
"8*	c #26419C",
"9*	c #31447A",
"0*	c #384362",
"a*	c #344061",
"b*	c #3F4E75",
"c*	c #3A4772",
"d*	c #3B4A6E",
"e*	c #3F5570",
"f*	c #3D5471",
"g*	c #364674",
"h*	c #263475",
"i*	c #1C2C6E",
"j*	c #192A6B",
"k*	c #374396",
"l*	c #33489B",
"m*	c #3D56A0",
"n*	c #2E4888",
"o*	c #2A4584",
"p*	c #4E67A2",
"q*	c #526D98",
"r*	c #2F436E",
"s*	c #354574",
"t*	c #435384",
"u*	c #414F83",
"v*	c #354179",
"w*	c #2C3256",
"x*	c #24273C",
"y*	c #292C3B",
"z*	c #2B314E",
"A*	c #303B70",
"B*	c #32398D",
"C*	c #334FA3",
"D*	c #3665AB",
"E*	c #3959A1",
"F*	c #2F478D",
"G*	c #2F4C92",
"H*	c #2D4198",
"I*	c #27348C",
"J*	c #2A3576",
"K*	c #2B3C77",
"L*	c #2D408D",
"M*	c #364997",
"N*	c #2F469A",
"O*	c #324AA3",
"P*	c #24378A",
"Q*	c #2E3B85",
"R*	c #26357F",
"S*	c #263775",
"T*	c #26396C",
"U*	c #263970",
"  .   + . +   @ # $ % & * = - ; > , ' ) ! ~ { ] ^ / ( _ : < [ } ",
"  + + . . . + | 1 2 3 4 5 6 7 8 9 0 a b c d e f g h i j # k k l ",
"  + + . m . + n o p % q r s t u v w x y z A B C D E F G H . . + ",
"+ + . m m m . I J K L M N O P Q R S T U V W X Y Z `  ...+.@.#.$.",
". + . m %.m . 1 J &.% *.=.-.;.>.,.'.).!.~.{.].^./.(._.:.<.[.}.|.",
"1.1.2.3.4.i i 5.6.7.8.9.0.a.b.c.d.e.f.g.h.i.j.k.l.m.n.o.p.q.r.s.",
"t.t.3.i u.i v.w.x.y.z.A.B.C.D.E.F.G.H.I.J.K.L.M.N.O.P.Q.R.S.T.U.",
"V.V.u.u.u.i W.X.Y.Z.`. +.+++@+#+$+%+&+*+=+-+;+>+,+'+)+!+~+{+]+^+",
"V.V.3.i i I v./+(+_+:+<+[+}+|+1+2+3+4+5+6+7+8+9+0+a+b+c+d+e+f+g+",
"t.t.h+i+I j+k+l+m+n+2.o+p+q+r+s+t+u+v+w+x+y+z+A+B+C+D+E+F+G+H+I+",
"J+K+J+m+L+m . m+%.. o M+N+O+P+Q+R+S+T+U+V+W+X+Y+Z+`+ @.@+@@@#@$@",
"6.%@&@m %.m k+8.J n+1.(+:+2.*@=@-@;@>@,@'@)@!@. ~@o+{@]@^@#@/@(@",
"6.6.2.I 4._@i *@i :@<@[@y.}@|@1@2@3@4@5@6@7@8@9@0@0@a@b@c@d@e@f@",
"g@J+3.i u.i 3.h@u.3.i@j@k@j l@m@n@o@p@q@r@s@t@u@v@w@x@y@x@z@A@B@",
"i+n+C@u.u.D@E@F@(+j+G@. H@+ @ I@J@K@L@M@N@O@P@Q@R@S@T@U@V@W@X@Y@",
"k+Z@I 1 C@G@G@1.C@`@$ m . + @  #J+.#+#@###$#%#&#*#=#-#;#>#,#'#)#",
"1 8.8.k+. . !#~## N+{#m m H@C@} 3.]#^#/#(#_#:#<#[#}#|#1#2#3#4#5#",
"6## G@. m . + 7#o N+8#%.m . C@V.9#0#a#b#c#d#e#f#g#h#i#j#k#l#m#n#",
"6#6#6#k+m m + _@J o#. H n+o 1.p#q#r#s#b#t#u#v#w#x#y#z#A#B#C#D#E#",
"6#6#6#m %.m . 8.J o#F#) G#1 1.H#I#J#K#L#M#N#O#P#Q#R#S#T#U#V#W#X#",
"6#. Y#Z#n+j+_@i@n+`@0 `# $.$+$@$#$$$%$&$*$=$-$;$>$,$'$)$!$~${$]$",
"# n+j+j+C@^$3./$($_$:$<$[$}$|$1$2$3$4$5$6$7$8$9$0$a$b$c$d$e$f$g$",
"C@1 _@4.h$i$j$k$l$m$n$o$p$q$r$s$t$u$v$w$x$y$z$A$B$C$D$E$F$G$H$I$",
"J$K$L$M$N$O$P$Q$R$S$T$U$V$W$X$Y$Z$`$ %.%+%@%#%$%%%&%*%=%-%;%>%,%",
"'%)%!%~%{%]%^%/%(%_%:%<%[%}%|%1%2%3%4%5%6%7%8%9%0%a%b%c%d%e%f%g%",
"h%i%j%k%l%m%n%o%p%q%r%s%t%u%v%w%x%y%z%A%B%C%D%E%F%G%H%I%J%K%L%M%",
"N%O%P%Q%R%S%T%U%V%W%X%Y%Z%`% &.&+&@&#&$&%&&&*&=&-&;&>&,&'&)&!&~&",
"{&]&^&/&(&_&:&<&[&}&|&1&2&3&4&5&6&7&8&9&0&a&b&c&d&e&f&g&h&i&j&k&",
"l&m&n&o&p&q&r&s&t&u&v&w&x&y&z&A&B&C&D&E&F&G&H&I&J&K&L&M&N&O&P&Q&",
"R&S&T&U&V&W&X&Y&Z&`& *.*+*@*#*$*%*&***=*-*;*>*,*'*)*!*~*{*]*^*/*",
"(*_*:*<*[*}*|*1*2*3*4*5*6*7*8*9*0*a*b*c*d*e*f*g*h*i*j*k*l*m*n*o*",
"p*q*r*s*t*u*v*w*x*y*z*A*B*C*D*E*F*G*H*I*J*K*L*M*N*O*P*Q*R*S*T*U*"};
