/* XPM */
static char *DVY_Chains_xpm[] = {
/* width height num_colors chars_per_pixel */
"    32    32       16            1",
/* colors */
"` c #cc003b",
". c #9a7c69",
"# c #c1b6ae",
"a c #766154",
"b c #a59789",
"c c #a85264",
"d c #cdcecc",
"e c #c72f54",
"f c #b98383",
"g c #ad656f",
"h c #946d64",
"i c #ba9e94",
"j c #c44964",
"k c #c06576",
"l c #a08c7e",
"m c #c9c2ba",
/* pixels */
"dddddddddddddddmmddddddddddddddd",
"dddddddddddd#haaaabmdddddddddddd",
"dddddddddddbagjeejhhmddddddddddd",
"ddddddddddiac`````eghddddddddddd",
"dddddddddmhg``ee```ehldddddddddd",
"dddddddddbfe`ehhhc``elmddddddddd",
"dddddddddbf`ei.hhlk``i#ddddddddd",
"dddddddddbj`jdm#idme`fiddddddddd",
"dddddddddle`eii#iibe`fbddddddddd",
"ddddddddm.j``f...lg``fbddddddddd",
"ddddddddmlk``j...ge`eibddddddddd",
"ddddddddml#e``eje```f#bddddddddd",
"ddddddddmbdie``````k##bddddddddd",
"ddddddddmbddijee`jf#d#bddddddddd",
"ddddddddmbddd#iff#mdd#bddddddddd",
"ddddddddmbddddddddddd#bddddddddd",
"ddddddddmbdddddddddddmbddddddddd",
"ddddddddmbddd#ibfimdd#bddddddddd",
"ddddddddmlddikee`ek#d#bddddddddd",
"ddddddddmldie``````g##lddddddddd",
"dddddddd#b#j``ejje``k#lddddddddd",
"ddddddddmbf``e...ge``ibddddddddd",
"ddddddddm.j``f...fk``fbddddddddd",
"dddddddddle`jii#iif``fiddddddddd",
"dddddddddbj`kdm#idm``fiddddddddd",
"dddddddddbf`eb.hhlk`ei#ddddddddd",
"dddddddddbl``ehhhhe`klmddddddddd",
"dddddddddmac```ee``ehldddddddddd",
"ddddddddddiac`````egaddddddddddd",
"dddddddddddbagjeejhamddddddddddd",
"dddddddddddd#haaaalddddddddddddd",
"ddddddddddddddd#mddddddddddddddd"
};
