/* XPM */
static char *DVY_AngularBrick_1x1_xpm[] = {
/* width height num_colors chars_per_pixel */
"   100   100       16            1",
/* colors */
"` c #7a0000",
". c #ca9190",
"# c #a84f4f",
"a c #bc0000",
"b c #85302f",
"c c #ffd1cf",
"d c #9e0000",
"e c #c72927",
"f c #ff4e4d",
"g c #ffb1af",
"h c #b36e6e",
"i c #c87070",
"j c #ffffff",
"k c #ff2b2b",
"l c #9d2e30",
"m c #e1181b",
/* pixels */
"jjjjjjjjjjjjjjjjjjjjjjjjjjjjjjjjjjjjjjjjjjjjjjjjjjjjjjjjjjjjjjjjjjjjjjjjjjjjjjjjjjjjjjjjjjjjjjjjjjjj",
"jjjjjjjjjjjjjjjjjjjjjjjjjjjjjjjjjjjjjjjjjjjjjjjjjjjjjjjjjjjjjjjjjjjjjjjjjjjjjjjjjjjjjjjjjjjjjjjjjjjj",
"jjjjjjjjjjjjjjjjjjjjjjjjjjjjjjjjjjjjjjjjjjjjjjjjjjjjjjjjjjjjjjjjjjjjjjjjjjjjjjjjjjjjjjjjjjjjjjjjjjjj",
"jjjjjjjjjjjjjjjjjjjjjjjjjjjjjjjjjjjjjjjjjjjjjjjjjjjjjjjjjjjjjjjjjjjjjjjjjjjjjjjjjjjjjjjjjjjjjjjjjjjj",
"jjjjjjjjjjjjjjjjjjjjjjjjjjjjjjjjjjjjjjjjjjjjjjjjjjjjjjjjjjjjjjjjjjjjjjjjjjjjjjjjjjjjjjjjjjjjjjjjjjjj",
"jjjjjjjjjjjjjjjjjjjjjjjjjjjjjjjjjjjjjjjjjjjjjjjjjjjjjjjjjjjjjjjjjjjjjjjjjjjjjjjjjjjjjjjjjjjjjjjjjjjj",
"jjjjjjjjjjjjjjjjjjjjjjjjjjjjjjjjjjjjjjjjjjjjjjjjjjjjjjjjjjjjjjjjjjjjjjjjjjjjjjjjjjjjjjjjjjjjjjjjjjjj",
"jjjjjjjjjjjjjjjjjjjjjjjjjjjjjjjjjjjjjjjjjjjjjjjjjjjjjjjjjjjjjjjjjjjjjjjjjjjjjjjjjjjjjjjjjjjjjjjjjjjj",
"jjjjjjjjjjjjjjjjjjjjjjjjjjjjjjjjjjjjjjjjjjjjjjjjjjjjjjjjjjjjjjjjjjjjjjjjjjjjjjjjjjjjjjjjjjjjjjjjjjjj",
"jjjjjjjjjjjjjjjjjjjjjjjjjjjjjjjjjjjjjjjjjjjjjjjjjjjjjjjjjjjjjjjjjjjjjjjjjjjjjjjjjjjjjjjjjjjjjjjjjjjj",
"jjjjjjjjjjjjjjjjjjjjjjjjjjjjjjjjjjjjjjjjjjjjjjjjjjcgg.gccjjjjjjjjjjjjjjjjjjjjjjjjjjjjjjjjjjjjjjjjjjj",
"jjjjjjjjjjjjjjjjjjjjjjjjjjjjjjjjjjjjjjjjjjjjjjjjjcg.h#h.cjjjjjjjjjjjjjjjjjjjjjjjjjjjjjjjjjjjjjjjjjjj",
"jjjjjjjjjjjjjjjjjjjjjjjjjjjjjjjjjjjjjjjjccg....hhh##bbb#.gcjjjjjjjjjjjjjjjjjjjjjjjjjjjjjjjjjjjjjjjjj",
"jjjjjjjjjjjjjjjjjjjjjjjjjjjjjjjjjjjjjjjcg.i#bbb`````````#.gjjjjjjjjjjjjjjjjjjjjjjjjjjjjjjjjjjjjjjjjj",
"jjjjjjjjjjjjjjjjjjjjjjjjjjjjjjjjjjjjccgih##lbbb`````````b#h.cjjjjjjjjjjjjjjjjjjjjjjjjjjjjjjjjjjjjjjj",
"jjjjjjjjjjjjjjjjjjjjjjjjjjjjjjjjjjjjcghbb```ddd```````````b#.jjjjjjjjjjjjjjjjjjjjjjjjjjjjjjjjjjjjjjj",
"jjjjjjjjjjjjjjjjjjjjjjjjjjjjjjjjjjcc.#lb`````ddddd````````bb#.gjjjjjjjjjjjjjjjjjjjjjjjjjjjjjjjjjjjjj",
"jjjjjjjjjjjjjjjjjjjjjjjjjjjjjjjjjjcg#``ldd```ddddddd````````bb.cjjjjjjjjjjjjjjjjjjjjjjjjjjjjjjjjjjjj",
"jjjjjjjjjjjjjjjjjjjjjjjjjjjjjjccg.h#b````ddddddddddddd```````b#hgcjjjjjjjjjjjjjjjjjjjjjjjjjjjjjjjjjj",
"jjjjjjjjjjjjjjjjjjjjjjjjjjjjjjcg.#b``````ddddddddddddel````````bhgcjjjjjjjjjjjjjjjjjjjjjjjjjjjjjjjjj",
"jjjjjjjjjjjjjjjjjjjjjjjjjjcg..h##bb```````dddddddddddddd````````bh.ccjjjjjjjjjjjjjjjjjjjjjjjjjjjjjjj",
"jjjjjjjjjjjjjjjjjjjjjjjjjcg.#bb```````````````dddddddddddl````````#.cjjjjjjjjjjjjjjjjjjjjjjjjjjjjjjj",
"jjjjjjjjjjjjjjjjjjjjjcc..hh#b`````````````````dldddddddddl````````b#hgcjjjjjjjjjjjjjjjjjjjjjjjjjjjjj",
"jjjjjjjjjjjjjjjjjjjjcc.#b`````````````````````delldadddddld`````````bh.jjjjjjjjjjjjjjjjjjjjjjjjjjjjj",
"jjjjjjjjjjjjjjjjjcg.hh#bb````````````d````````ddllaaddddddd`````````bbh.cjjjjjjjjjjjjjjjjjjjjjjjjjjj",
"jjjjjjjjjjjjjjjjcghbb```````````````ddd`````````deaaaadddddd``````````b#.cjjjjjjjjjjjjjjjjjjjjjjjjjj",
"jjjjjjjjjjjjjjjjg.#b````````````````ddddddddd``ddddddddddddd```````````b#.gcjjjjjjjjjjjjjjjjjjjjjjjj",
"jjjjjjjjjjjjjjjj.#b`````````````````ddaaaeaddddddddddddddadd`````````````bhccjjjjjjjjjjjjjjjjjjjjjjj",
"jjjjjjjjjjjjjjjj.#l``dd`````````````dddaammeeeeeeeemaaaaaadd`````````````bh.cjjjjjjjjjjjjjjjjjjjjjjj",
"jjjjjjjjjjjjjjjj.#ldddddd```````````dddaammekffffffkemmmaadd`````````ddddl#hgjjjjjjjjjjjjjjjjjjjjjjj",
"jjjjjjjjjjjjjjjj.#lddddddd``````````dddaammmkkkkkkkkmmmmaaddd`````dddddddd#hgjjjjjjjjjjjjjjjjjjjjjjj",
"jjjjjjjjjjjjjjjj.#l`ddddddd`````````ddaaammmmkkkkkkmmmmaaaddd```ddddaaaadd#hgjjjjjjjjjjjjjjjjjjjjjjj",
"jjjjjjjjjjjjjjjj.#l`dddddddd````````ddaaammmmkkkkkkmmmmaaadddddddddaaaaaad#hgjjjjjjjjjjjjjjjjjjjjjjj",
"jjjjjjjjjjjjjjjj.#ldddddddddd``````dddaaammmmmkkkkkmmmmaaaaddddaaaaaaaaaad#igjjjjjjjjjjjjjjjjjjjjjjj",
"jjjjjjjjjjjjjjjj.#l`dddddddddd``````dddaammmmkkkkmmmmmmmaaaaadaaaaaaaaaaad#igjjjjjjjjjjjjjjjjjjjjjjj",
"jjjjjjjjjjjjjjjj.#l`ddddddddddd``````dddaeeeeekkkmmmmmmaaaaaaaaaaaaaaaaadd#igjjjjjjjjjjjjjjjjjjjjjjj",
"jjjjjjjjjjjjjjjj.#l`ddddddddddd``````dddddaeeeekkmmmmmmaaaaaaaaaaaaaaaaadd#igjjjjjjjjjjjjjjjjjjjjjjj",
"jjjjjjjjjjjjjjjj.#l`dddddddddddddd```````dddaeeeeemmmmmmaaaaaaaaaaaaaaaadd#igjjjjjjjjjjjjjjjjjjjjjjj",
"jjjjjjjjjjjjjjjj.#l`dddddddddddddddd`````dddddemmmmmmaaaaaaaaaaaaaaaaaaadd#.gjjjjjjjjjjjjjjjjjjjjjjj",
"jjjjjjjjjjjjjjjj.ll`ddddddddddddddddd``d````ddddaaaaaaaaaaaaaaaaaaaaaaaadd#.gjjjjjjjjjjjjjjjjjjjjjjj",
"jjjjjjjjjjjjjjjj.llddddddddddddddddddddddddddddaaaaaaaaaaaaddddddddaaaaadd#.gjjjjjjjjjjjjjjjjjjjjjjj",
"jjjjjjjjjjjjjjjj.llddddddddddddddddddddddddddaaaaaaaaaaaaaddddddddddaaaadd#.gjjjjjjjjjjjjjjjjjjjjjjj",
"jjjjjjjjjjjjjjjj.lldddddddddddddddddddddddddaaaaaaaaaaaaadddd`````dddaaadd#.gjjjjjjjjjjjjjjjjjjjjjjj",
"jjjjjjjjjjjjjjjj.lldddddddddddddddddaaaaaaaaaaaaaaaaaaaaddd````````ddddadd#.gjjjjjjjjjjjjjjjjjjjjjjj",
"jjjjjjjjjjjjjjjj.bbdddddddddddddddddaaamaaaaaaaaaaaaaaaaddd`````````dddddd#.gjjjjjjjjjjjjjjjjjjjjjjj",
"jjjjjjjjjjjjjjjj.bb`ddddddddddddddddaaamaaaaaaaaaaaaaaadddd`````````dddddd#.cjjjjjjjjjjjjjjjjjjjjjjj",
"jjjjjjjjjjjjjjjj.bbddddddddddddddddddaamaaaaaaaaaaaaaaadddddd`````dddddddd#.cjjjjjjjjjjjjjjjjjjjjjjj",
"jjjjjjjjjjjjjjjj.bbddddddddddddddddddaamaaaaaaaaaaamaaaddddddddddddddddddl#.cjjjjjjjjjjjjjjjjjjjjjjj",
"jjjjjjjjjjjjjjjj.bbddddddddddddddddddaamaaaaaaaaamaaaaaadddddddddaddddddd`#.cjjjjjjjjjjjjjjjjjjjjjjj",
"jjjjjjjjjjjjjjjj.bbddddddddddddddddddaamaaaaaaaammmaaaaaadaaaaaaaaaaaaddd`#.cjjjjjjjjjjjjjjjjjjjjjjj",
"jjjjjjjjjjjjjjjj.bbddddddddddddddddddaamaaaaaaammmaaaaaaaaaaaaaadddddaddd`#.cjjjjjjjjjjjjjjjjjjjjjjj",
"jjjjjjjjjjjjjjjj.bbddddddddddddddddddaamaaaaaammmaaaaaaaammmaaadddddddddd`#.cjjjjjjjjjjjjjjjjjjjjjjj",
"jjjjjjjjjjjjjjjj.bbdddddddddddddddddaaamaaaaaammmaaaaaammmmaaddddddddddad`#.cjjjjjjjjjjjjjjjjjjjjjjj",
"jjjjjjjjjjjjjjjj.bbdddddddddddddddddaaamaaaaaammmaaaaammmmmaddddddddddaedd#gcjjjjjjjjjjjjjjjjjjjjjjj",
"jjjjjjjjjjjjjjjj.bbdddddddddddddddddaaamaaaaammmmaaaaamkeaaaddddddddddaedd#gcjjjjjjjjjjjjjjjjjjjjjjj",
"jjjjjjjjjjjjjjjj.bbdddddddddddddddddaaamaaaaammaaaammmefeddddddddddddaamdd#gcjjjjjjjjjjjjjjjjjjjjjjj",
"jjjjjjjjjjjjjjjj.bbdddddddddddddddddaaamaaaaamaaaaaaekeemddddddddaaaaaaead#gcjjjjjjjjjjjjjjjjjjjjjjj",
"jjjjjjjjjjjjjjjj.bbdddddddddddddddddaaamaaaaamaaaaaaefemadddddddaaaaaaaead#gcjjjjjjjjjjjjjjjjjjjjjjj",
"jjjjjjjjjjjjjjjj.bbdddddddddddddddddaaamaaaaaaaaaaaaefeadddddddaaaaaaameedhgcjjjjjjjjjjjjjjjjjjjjjjj",
"jjjjjjjjjjjjjjjj.bbdddddddddddddddddaaamaaaaaaaaaaamkfeddddddddaaaaammeeedigcjjjjjjjjjjjjjjjjjjjjjjj",
"jjjjjjjjjjjjjjjj.bbdddddddddddddddddaaamaaaaaaadaaaeekeddddddddaaaaamkeeedigcjjjjjjjjjjjjjjjjjjjjjjj",
"jjjjjjjjjjjjjjjj.bbdddddddddddddddddaaamaaaaaaadddmeeeaddddddddaaaaamfkmddhgcjjjjjjjjjjjjjjjjjjjjjjj",
"jjjjjjjjjjjjjjjj.bb`ddddddddddddddddaaamaaaaaaddddaeeedddd``ddddaaaamkmaddigcjjjjjjjjjjjjjjjjjjjjjjj",
"jjjjjjjjjjjjjjjj.bb`ddddddddddddddddaaaaaaaaaaddddaeeed```````ddaaammkmaddigcjjjjjjjjjjjjjjjjjjjjjjj",
"jjjjjjjjjjjjjjjj.bbdddddddddddddddddaaaaaaaaaaddddaeead```````dddaammmaaddigcjjjjjjjjjjjjjjjjjjjjjjj",
"jjjjjjjjjjjjjjjj.bbdddddddddddddddddaaaaaaaaaaaddddaaad``````ddddaammaaaddigcjjjjjjjjjjjjjjjjjjjjjjj",
"jjjjjjjjjjjjjjjj.bbddddddddddddddddddaaaaaaaaaadddaaaadd````ddddaaaaaaaddd#igjjjjjjjjjjjjjjjjjjjjjjj",
"jjjjjjjjjjjjjjjj.bb`dddddddddddddddddaaaaaaaaaaaddaaaaddd``ddddaamaaaaddd`ll.ccjjjjjjjjjjjjjjjjjjjjj",
"jjjjjjjjjjjjjjjj.bb`dddddddddddddddddaamaaaaaaaaadaaaadddddddddaaaadddddd``b#igcjjjjjjjjjjjjjjjjjjjj",
"jjjjjjjjjjjjjjjj.bb``ddddddddddddddddaamaaaaaaaaaaaaaaaaddddddaadddddddd`````bhccjjjjjjjjjjjjjjjjjjj",
"jjjjjjjjjjjjjjjjghl``ddddddddddddddddaamaaaaaaaaaaaaaaaaadddddddddddd````````b#.cjjjjjjjjjjjjjjjjjjj",
"jjjjjjjjjjjjjjjjc.#```dddddddddddddddaamaaaaaaaaaaaaaaaaaaaddddd`````````ddddll#.jjjjjjjjjjjjjjjjjjj",
"jjjjjjjjjjjjjjjjcc.hl`dddddddddddddddaamaaaaaaaaaaaaaaaaaadddd`````````ddddaddl#.jjjjjjjjjjjjjjjjjjj",
"jjjjjjjjjjjjjjjjjjcghb``dddddddddddddaamaaaaaaaaaaaaaaaaadddd`````````dddaaaadlhgjjjjjjjjjjjjjjjjjjj",
"jjjjjjjjjjjjjjjjjjcc.i#``dddddddddddaaamaaaaaaaaaaaadddddddd``````dddddddaaaddl#.jjjjjjjjjjjjjjjjjjj",
"jjjjjjjjjjjjjjjjjjjjccibb``dddddddddaaamaaaaaaaaaaadddddd```````ddddaaaaaaaaddl#.jjjjjjjjjjjjjjjjjjj",
"jjjjjjjjjjjjjjjjjjjjjcg.#lddddddddddaaamaaaaaaaaadddddd``````ddddddaaaaadddddl#.gjjjjjjjjjjjjjjjjjjj",
"jjjjjjjjjjjjjjjjjjjjjjcc.ll`ddddddddaaamaaaaadaadddddd`````ddddaaaaaadddddddllhgcjjjjjjjjjjjjjjjjjjj",
"jjjjjjjjjjjjjjjjjjjjjjjcg.hll`ddddddaaaaaaadddddddddddd`ddddddaaaaaaddddll##i.gccjjjjjjjjjjjjjjjjjjj",
"jjjjjjjjjjjjjjjjjjjjjjjjjj.#l``dddddaaaaaaddddd`dd``ddddddaaaaaaaaaddddll#i.cjjjjjjjjjjjjjjjjjjjjjjj",
"jjjjjjjjjjjjjjjjjjjjjjjjjjc.h#l`ddddaaaaaddddd```dddddddddaaaaaaadddll#ii.gccjjjjjjjjjjjjjjjjjjjjjjj",
"jjjjjjjjjjjjjjjjjjjjjjjjjjjjgi#bddddaaaaddd``````dddddaaaaaaaaaadddll#.gcjjjjjjjjjjjjjjjjjjjjjjjjjjj",
"jjjjjjjjjjjjjjjjjjjjjjjjjjjjcg.#l`dddaaaddd```ddddddddaaaaaddddde#ii..gccjjjjjjjjjjjjjjjjjjjjjjjjjjj",
"jjjjjjjjjjjjjjjjjjjjjjjjjjjjjjc.#b`dddddddd```dddaaaaaaaaaddddll#igccjjjjjjjjjjjjjjjjjjjjjjjjjjjjjjj",
"jjjjjjjjjjjjjjjjjjjjjjjjjjjjjjcc.hldddddddddddddaaaadddddddll#i..gcjjjjjjjjjjjjjjjjjjjjjjjjjjjjjjjjj",
"jjjjjjjjjjjjjjjjjjjjjjjjjjjjjjjjcghb`dddddddddaaaaadddddddlli.gcjjjjjjjjjjjjjjjjjjjjjjjjjjjjjjjjjjjj",
"jjjjjjjjjjjjjjjjjjjjjjjjjjjjjjjjcc.i#lddddaeadaaadddddll#ii.gccjjjjjjjjjjjjjjjjjjjjjjjjjjjjjjjjjjjjj",
"jjjjjjjjjjjjjjjjjjjjjjjjjjjjjjjjjjccill`ddeeeaaadddddbl#.gcjjjjjjjjjjjjjjjjjjjjjjjjjjjjjjjjjjjjjjjjj",
"jjjjjjjjjjjjjjjjjjjjjjjjjjjjjjjjjjjcg.#ldddeeaddddl##i..gccjjjjjjjjjjjjjjjjjjjjjjjjjjjjjjjjjjjjjjjjj",
"jjjjjjjjjjjjjjjjjjjjjjjjjjjjjjjjjjjjcc.#lddeeaddll#igccjjjjjjjjjjjjjjjjjjjjjjjjjjjjjjjjjjjjjjjjjjjjj",
"jjjjjjjjjjjjjjjjjjjjjjjjjjjjjjjjjjjjjcg.hllllll#ii.gccjjjjjjjjjjjjjjjjjjjjjjjjjjjjjjjjjjjjjjjjjjjjjj",
"jjjjjjjjjjjjjjjjjjjjjjjjjjjjjjjjjjjjjjjj.h#lllh.gcjjjjjjjjjjjjjjjjjjjjjjjjjjjjjjjjjjjjjjjjjjjjjjjjjj",
"jjjjjjjjjjjjjjjjjjjjjjjjjjjjjjjjjjjjjjjjc..i..gccjjjjjjjjjjjjjjjjjjjjjjjjjjjjjjjjjjjjjjjjjjjjjjjjjjj",
"jjjjjjjjjjjjjjjjjjjjjjjjjjjjjjjjjjjjjjjjjjcccjjjjjjjjjjjjjjjjjjjjjjjjjjjjjjjjjjjjjjjjjjjjjjjjjjjjjjj",
"jjjjjjjjjjjjjjjjjjjjjjjjjjjjjjjjjjjjjjjjjjjcjjjjjjjjjjjjjjjjjjjjjjjjjjjjjjjjjjjjjjjjjjjjjjjjjjjjjjjj",
"jjjjjjjjjjjjjjjjjjjjjjjjjjjjjjjjjjjjjjjjjjjjjjjjjjjjjjjjjjjjjjjjjjjjjjjjjjjjjjjjjjjjjjjjjjjjjjjjjjjj",
"jjjjjjjjjjjjjjjjjjjjjjjjjjjjjjjjjjjjjjjjjjjjjjjjjjjjjjjjjjjjjjjjjjjjjjjjjjjjjjjjjjjjjjjjjjjjjjjjjjjj",
"jjjjjjjjjjjjjjjjjjjjjjjjjjjjjjjjjjjjjjjjjjjjjjjjjjjjjjjjjjjjjjjjjjjjjjjjjjjjjjjjjjjjjjjjjjjjjjjjjjjj",
"jjjjjjjjjjjjjjjjjjjjjjjjjjjjjjjjjjjjjjjjjjjjjjjjjjjjjjjjjjjjjjjjjjjjjjjjjjjjjjjjjjjjjjjjjjjjjjjjjjjj",
"jjjjjjjjjjjjjjjjjjjjjjjjjjjjjjjjjjjjjjjjjjjjjjjjjjjjjjjjjjjjjjjjjjjjjjjjjjjjjjjjjjjjjjjjjjjjjjjjjjjj"
};
