/* XPM */
static char *Hexagon_xpm[] = {
/* width height num_colors chars_per_pixel */
"    42    32       16            1",
/* colors */
"` c #1a2122",
". c #83949e",
"# c #c8d0cf",
"a c #4c5c60",
"b c #a3b3bf",
"c c #617885",
"d c #98a1a7",
"e c #758189",
"f c #ffffff",
"g c #354045",
"h c #5f6c70",
"i c #b8c0c2",
"j c #d8dbd4",
"k c #272f33",
"l c #404f55",
"m c #526871",
/* pixels */
"ffffffffffffffffffffffffffffffffffffffffff",
"ffffffffffffffffffffffffffffffffffffffffff",
"ffffffffffffffffffffffffffffffffffffffffff",
"fffffffffffffffffjjj##i#jfffffffffffffffff",
"fffffffffffj#jidd.dd.eedeggmdjffffffffffff",
"fffffffffjjjjicaleddii###ibdhkai#fffffffff",
"ffffffffjjb.e.d...bbii#iibb.ecch##ffffffff",
"fffffff#jemc..ec..bb#i#j##i.eecm.jjfffffff",
"ffffffjiiac.i#b.cdbbbd.eccmeceembj#jffffff",
"ffffffiaae.##bcaeglhchaedb.cmmd#jjjjffffff",
"ffffff.llllh.e.d...iidedbibb#iiijjjjffffff",
"fffffjagmeddcaaheijjj##bbdeecdi##jjjffffff",
"fffff#lhmhhedbbddddddecmmclaglbi##jjffffff",
"fffffiahmmhhhahii.de.lkkk`kkkkke##jjffffff",
"fffffiamamllaaah#dcmk``k`kkkkkk`ijjjffffff",
"fffff.aalhhaallldimgk`k``k`kk`kk.j#jjfffff",
"fffffeaalamlllgad#ck`````k`k``kkgj##jfffff",
"fffffhmallalglgla#m`k``````````k`di#ffffff",
"fffffemmglgglalll.g``````````kk`keifffffff",
"fffffeceggkglgkll.k`````````````kcjfffffff",
"fffffiec..hlllllahk`````````````khffffffff",
"fffffffjbd.dd..emhg```kkkgggghlhdjffffffff",
"fffffffffffjbhhc.bg`gggkem.bjfffffffffffff",
"ffffffffffffjeceheedbilmea.cifffffffffffff",
"fffffffffffffff.ed#ffmllchc.ffffffffffffff",
"fffffffffffffff.cm#ffid.chc.ffffffffffffff",
"fffffffffffffff..dj##idehmecjfffffffffffff",
"ffffffffffffj.mllceddell.c.cdfffffffffffff",
"fffffffffffffdd...djj..ghmhhifffffffffffff",
"fffffffffffffff...jjfdahcmadffffffffffffff",
"fffffffffffffff.cciff#b.emhh#fffffffffffff",
"ffffffffffffffj.eb#i#ibchhee.fffffffffffff"
};
