/* XPM */
static char *DVY_Spindles_4_xpm[] = {
/* width height num_colors chars_per_pixel */
"    40   160      256            2",
/* colors */
"`` c #34220c",
"`. c #a4927c",
"`# c #745a2c",
"`a c #a46a4c",
"`b c #d4cabc",
"`c c #d49264",
"`d c #947654",
"`e c #a47e5c",
"`f c #8c5e2c",
"`g c #d4b294",
"`h c #bc8254",
"`i c #d4a274",
"`j c #c4aa8c",
"`k c #846a3c",
"`l c #ece6dc",
"`m c #a48a6c",
"`n c #7c5a24",
"`o c #8c6a3c",
"`p c #4c3e14",
"`q c #bc926c",
"`r c #6c4e1c",
"`s c #ec9a74",
"`t c #b47e5a",
"`u c #9c6a44",
"`v c #bc8a5c",
"`w c #eca274",
"`x c #cc9e77",
"`y c #9c866c",
"`z c #7c5a3c",
"`A c #d49a6f",
"`B c #94765e",
"`C c #e4ded4",
"`D c #f4f6ec",
"`E c #a47646",
"`F c #a47e6c",
"`G c #8c6e54",
"`H c #cc926c",
"`I c #5c4a26",
"`J c #948264",
"`K c #dcbea7",
"`L c #cc8a64",
"`M c #8c724c",
"`N c #7c5630",
"`O c #e49a73",
"`P c #e4a274",
"`Q c #bc9274",
"`R c #7c6240",
"`S c #a47a5e",
"`T c #746241",
"`U c #eceee4",
"`V c #946a41",
"`W c #6c5630",
"`X c #bc8a6e",
"`Y c #ecaa74",
"`Z c #e4cebc",
"`0 c #a48664",
"`1 c #bc8264",
"`2 c #b48a61",
"`3 c #84622e",
"`4 c #b48656",
"`5 c #9c7242",
"`6 c #dc9a72",
"`7 c #ac764f",
"`8 c #dcc6b0",
".` c #b49e84",
".. c #e49674",
".# c #ac7e5c",
".a c #c4b6ac",
".b c #845a34",
".c c #5c421c",
".d c #f4a275",
".e c #9c7660",
".f c #f4e2d7",
".g c #645228",
".h c #84623c",
".i c #6c5a3c",
".j c #dc926c",
".k c #dcaa84",
".l c #f4e6d9",
".m c #ffffff",
".n c #a48671",
".o c #9c7e60",
".p c #d4bebc",
".q c #c49a76",
".r c #b49684",
".s c #8c6644",
".t c #c48258",
".u c #dca274",
".v c #846e54",
".w c #544620",
".x c #6c4e2c",
".y c #f49e74",
".z c #b47e64",
".A c #c4a68c",
".B c #ece2d8",
".C c #946a4c",
".D c #c48a6c",
".E c #9c7e6c",
".F c #a47244",
".G c #dcd2cc",
".H c #9c7647",
".I c #d4ba9c",
".J c #ac8a74",
".K c #7c5a34",
".L c #8c6a4c",
".M c #c4925c",
".N c #ec9e7c",
".O c #9c6e4e",
".P c #c48a63",
".Q c #fff6f2",
".R c #a47654",
".S c #cc9a73",
".T c #644a24",
".U c #e4aa74",
".V c #c49274",
".W c #74562b",
".X c #e4d6c8",
".Y c #b48a6f",
".Z c #dc9e7c",
".0 c #ac7e64",
".1 c #ac9a8c",
".2 c #dccec0",
".3 c #d49674",
".4 c #8c623c",
".5 c #dcb69c",
".6 c #ccb2a4",
".7 c #543e1c",
".8 c #ec9e74",
"#` c #eca674",
"#. c #443a14",
"## c #9c8e7c",
"#a c #ccaa94",
"#b c #ecdac4",
"#c c #9c724e",
"#d c #845e3c",
"#e c #946e54",
"#f c #f4eee8",
"#g c #c48664",
"#h c #ccbaaa",
"#i c #745a3c",
"#j c #dcc2b4",
"#k c #74522c",
"#l c #d4cecc",
"#m c #d4b6a4",
"#n c #c4ae9c",
"#o c #cca284",
"#p c #d49e7c",
"#q c #7c664c",
"#r c #74624c",
"#s c #84664c",
"#t c #f4eae4",
"#u c #9c7654",
"#v c #c4926c",
"#w c #fffaff",
"#x c #644e34",
"#y c #ecded4",
"#z c #ac927f",
"#A c #ac7a5c",
"#B c #f4aa77",
"#C c #ac8670",
"#D c #94663c",
"#E c #ecd6cc",
"#F c #846a4c",
"#G c #94724c",
"#H c #ac8664",
"#I c #b48664",
"#J c #645234",
"#K c #cca68c",
"#L c #a47254",
"#M c #745634",
"#N c #745e34",
"#O c #a46e50",
"#P c #d4966c",
"#Q c #a48264",
"#R c #8c622d",
"#S c #d4b69c",
"#T c #bc8654",
"#U c #eceae4",
"#V c #a48e74",
"#W c #7c5e2c",
"#X c #8c6e44",
"#Y c #4c421c",
"#Z c #6c5224",
"#0 c #b4825c",
"#1 c #9c6e42",
"#2 c #bc8e64",
"#3 c #cca274",
"#4 c #7c5e3f",
"#5 c #d49e74",
"#6 c #947a5f",
"#7 c #a47a4c",
"#8 c #a48271",
"a` c #cc9669",
"a. c #dcc2a9",
"a# c #cc8e6a",
"aa c #e49e74",
"ab c #e4a675",
"ac c #7c6644",
"ad c #946e40",
"ae c #bc8e72",
"af c #bc8666",
"ag c #dc9e73",
"ah c #ac7a51",
"ai c #b4a28c",
"aj c #ac8259",
"ak c #845e2d",
"al c #5c4624",
"am c #f4a675",
"an c #9c7a5f",
"ao c #84663f",
"ap c #6c5e44",
"aq c #dc9673",
"ar c #f4eadc",
"as c #9c8262",
"at c #d4c2b4",
"au c #c48654",
"av c #dca675",
"aw c #847258",
"ax c #6c5231",
"ay c #b48266",
"az c #c49664",
"aA c #c48e64",
"aB c #fffaf4",
"aC c #c49674",
"aD c #b48e74",
"aE c #ecdecc",
"aF c #947255",
"aG c #f4f2ec",
"aH c #745e44",
"aI c #bc9674",
"aJ c #e4d2bc",
"aK c #c4baac",
"aL c #b49a84",
"aM c #946e4c",
"aN c #c48e6c",
"aO c #9c826c",
"aP c #ac8e74",
"aQ c #7c5e34",
"aR c #8c6e4c",
"aS c #a47a54",
"aT c #644e24",
"aU c #ac8264",
"aV c #54421c",
"aW c #74664c",
"aX c #9c7a54",
"aY c #c4966c",
"aZ c #745a34",
"a0 c #d4926c",
"a1 c #a47e64",
"a2 c #bc825c",
"a3 c #d4a27c",
"a4 c #846a44",
"a5 c #ece6e4",
"a6 c #a48a74",
"a7 c #7c5a2c",
"a8 c #8c6a44",
/* pixels */
".m.m.m.m.m.m.m.m.m.m.m.m.m.m.m.m.m.m.m.m.m.m.m.m.m.m.m.m.m.m.m.m.m.m.m.m.m.m.m.m",
".m.m.m.m.m.m.m.m.m.m.m.m.m.m.m.m.m.m.m.m.m.m`U#j.a##.l.m.m.m.m.m.m.m.m.m.m.m.m.m",
".m.m.m.m.m.m.m.m.m.m.m.m.m.m.m.m.m.m.m.m.B#a#C`a`v#c#i.2.m.m.m.m.m.m.m.m.m.m.m.m",
".m.m.m.m.m.m.m.m.m.m.m.m.m.m.m.m.maB`CaI`dah#v`w#`#B#0#N`q#f.m.m.m.m.m.m.m.m.m.m",
".m.m.m.m.m.m.m.m.m.m.m.m.m.m.m.mat`0a1a#a0am#`.8`wam#`a0#da6.l.m.m.m.m.m.m.m.m.m",
".m.m.m.m.m.m.m.m.m.m.m.m.m.m.m.maF.Tayab#B.8`6`w`w`6#`#B`OaM#N.Q.m.m.m.m.m.m.m.m",
".m.m.m.m.m.m.m.m.m.m.m.m.m.m.m.ma6aead#Xa0#B`6.8.8.yaa`6.RaMaH#h.m.m.m.m.m.m.m.m",
".m.m.m.m.m.m.m.m.m.m.m.m.m.m.m.m#8.Sab`E.O.t#B#B`Oa#`uaFaja0#C.l.m.m.m.m.m.m.m.m",
".m.m.m.m.m.m.m.m.m.m.m.m.m.m.m.m.n`X#`.N`1.h`Ea2`Va4`h.j#`am#I#S.m.m.m.m.m.m.m.m",
".m.m.m.m.m.m.m.m.m.m.m.m.m.m.m.m.nae`P`w`waN#Z`7ay`Oam.d`w`P.#.I.m.m.m.m.m.m.m.m",
".m.m.m.m.m.m.m.m.m.m.m.m.m.m.m.m#8ae#`.8`O#``3`Oab#`.8`wab`PaU`K.m.m.m.m.m.m.m.m",
".m.m.m.m.m.m.m.m.m.m.m.m.m.m.m.m.nae#``saa#`akav#``P`w`w`P`P.#`K.m.m.m.m.m.m.m.m",
".m.m.m.m.m.m.m.m.m.m.m.m.m.m.m.m#8ae#``w`w`w#R`H.uab.8`w`PabaUa..m.m.m.m.m.m.m.m",
".m.m.m.m.m.m.m.m.m.m.m.m.m.m.m.m#8ae#`.8`w`w`3.u`P#``s`wab`P.0.I.m.m.m.m.m.m.m.m",
".m.m.m.m.m.m.m.m.m.m.m.m.m.m.m.m#8ae#``s`w`w`3`i#``Paa`w`w`PaU.5.m.m.m.m.m.m.m.m",
".m.m.m.m.m.m.m.m.m.m.m.m.m.m.m.m.nae#`.8`w#``3`i`wab`s`w`wab.#.5.m.m.m.m.m.m.m.m",
".m.m.m.m.m.m.m.m.m.m.m.m.m.m.m.m#8ae#``s.8#``3aq#``P`s.8.8`P.0#S.m.m.m.m.m.m.m.m",
".m.m.m.m.m.m.m.m.m.m.m.m.m.m.m.m#8ae#``s.8#``3aq#``P`s.8.8`P.0#S.m.m.m.m.m.m.m.m",
".m.m.m.m.m.m.m.m.m.m.m.m.m.m.m.m#8ae#``s.8#``3aq#``P`s`w`w`P.0#S.m.m.m.m.m.m.m.m",
".m.m.m.m.m.m.m.m.m.m.m.m.m.m.m.m#8ae#``s.8#``3aq#``w`s`w.8`P.0#S.m.m.m.m.m.m.m.m",
".m.m.m.m.m.m.m.m.m.m.m.m.m.m.m.m#8ae#``s.8#``3aq`w`w`s.8`w`P.z.5.m.m.m.m.m.m.m.m",
".m.m.m.m.m.m.m.m.m.m.m.m.m.m.m.m#8ae#``s.8#``3aq`w`w`s.8`w`P.z.5.m.m.m.m.m.m.m.m",
".m.m.m.m.m.m.m.m.m.m.m.m.m.m.m.m#8ae#``s.8#``3aq#``w`s.8`w`P`t#S.m.m.m.m.m.m.m.m",
".m.m.m.m.m.m.m.m.m.m.m.m.m.m.m.m#8ae#``s.8#``3aq#``w`s`w`w`P`t#S.m.m.m.m.m.m.m.m",
".m.m.m.m.m.m.m.m.m.m.m.m.m.m.m.m#8ae#``s`w`w#Raq#`.8.8`w`w`P.z.5.m.m.m.m.m.m.m.m",
".m.m.m.m.m.m.m.m.m.m.m.m.m.m.m.m.nae#``s`w#``3`O#``w`s`w.8`P`t.5.m.m.m.m.m.m.m.m",
".m.m.m.m.m.m.m.m.m.m.m.m.m.m.m.m.nae#``s`w#``3av#``w`s.8`w`P`t.I.m.m.m.m.m.m.m.m",
".m.m.m.m.m.m.m.m.m.m.m.m.m.m.m.m.nae`w`s.8`w`3`6#``w`s.N`w#`.z`g.m.m.m.m.m.m.m.m",
".m.m.m.m.m.m.m.m.m.m.m.m.m.m.m.m#6`x#``6.8`w#R..`w.8`wa0#``PaS#a.m.m.m.m.m.m.m.m",
".m.m.m.m.m.m.m.m.m.m.m.m.m.m.m.m.n#u#``wab.8`3aq.8`wag#`#`.UaZ.m.m.m.m.m.m.m.m.m",
".m.m.m.m.m.m.m.m.m.m.m.m.m.m.m.m`l#u`X`P`P#`.Way#`#B#`#``X`VaL.m.m.m.m.m.m.m.m.m",
".m.m.m.m.m.m.m.m.m.m.m.m.m.m.m.m.m`8`W#caoaRaR#c`#aS#u#k`I#h.m.m.m.m.m.m.m.m.m.m",
".m.m.m.m.m.m.m.m.m.m.m.m.m.m.m.m.m.m#H#JacasaDaC#7.sapaoaH.m.m.m#w.m.m.m.m.m.m.m",
".m.m.m.m.m.m.m.m.m.m.m.m.m.m.m.m.m.m#faxawa1a8aoaR.H.n.g#V.m.m.m.m.m.m.m.m.m.m.m",
".m.m.m.m.m.m.m.m.m.m.m.m.m.m.m.m.m.m.m`Bal#r`2`v.P`SaQ``#t.m.m.m.m.m.m.m.m.m.m.m",
".m.m.m.m.m.m.m.m.m.m.m.m.m.m.m.m.m.m.2a8aAa#.#`7.F#0`P#0#s.m.m.m.m.m.m.m.m.m.m.m",
".m.m.m.m.m.m.m.m.m.m.m.m.m.m.m.m.m.m.L#2#`#``wam`w#B#`#BaR#b.m.m.m.m.m.m.m.m.m.m",
".m.m.m.m.m.m.m.m.m.m.m.m.m.m.m.m.m.m`BaYavab.8`6`w.8`P#``Ba..m.m.m.m.m.m.m.m.m.m",
".m.m.m.m.m.m.m.m.m.m.m.m.m.m.m.m.m.maJ#e.S`w.8.d#`#``P.q`W.m.m.m.m.m.m.m.m.m.m.m",
".m.m.m.m.m.m.m.m.m.m.m.m.m.m.m.m.m.m.m.Gax`za2`7afaj.L#x#l.m.m.m.m.m.m.m.m.m.m.m",
".m.m.m.m.m.m.m.m.m.m.m.m.m.m.m.m.m.m.m.m.W.C.R#c`u`taT`B.m.m.m.m.m.m.m.m.m.m.m.m",
".m.m.m.m.m.m.m.m.m.m.m.m.m.m.m.m.m.m.m.maZ`ea2a2`E.t.7.m.m.m.m.m.m.m.m.m.m.m.m.m",
".m.m.m.m.m.m.m.m.m.m.m.m.m.m.m.m.m.m.mat.i#I`6`w`6`6`I#h.m.m.m.m.m.m.m.m.m.m.m.m",
".m.m.m.m.m.m.m.m.m.m.m.m.m.m.m.m.m.m.maL#W.W`zaQaZaZa8.x#w.m.m.m.m.m.m.m.m.m.m.m",
".m.m.m.m.m.m.m.m.m.m.m.m.m.m.m.m.m.m.`#8aU`t`taS`t`t`X.0`B.m.m.m.m.m.m.m.m.m.m.m",
".m.m.m.m.m.m.m.m.m.m.m.m.m.m.m.m.m.ma1.Yamab#``w#`#`#B#BaT.m.m.m.m.m.m.m.m.m.m.m",
".m.m.m.m.m.m.m.m.m.m.m.m.m.m.m.m.m.m`BaC#``P#``P#`#`#`#`.v#t.m.m.m.m.m.m.m.m.m.m",
".m.m.m.m.m.m.m.m.m.m.m.m.m.m.m.m.m.m#u`TaYaY`6`A`c`A`6`V#q.X.m.m.m.m.m.m.m.m.m.m",
".m.m.m.m.m.m.m.m.m.m.m.m.m.m.m.m.m.maE`TaM.O#L.O#R.C`SaV.p.m.m.m.m.m.m.m.m.m.m.m",
".m.m.m.m.m.m.m.m.m.m.m.m.m.m.m.m.m.m.maLay`O`6ag`6aq.S`B.m.m.m.m.m.m.m.m.m.m.m.m",
".m.m.m.m.m.m.m.m.m.m.m.m.m.m.m.m.m.m.mar.#a3#`#`#`#``E`8.m.m.m.m.m.m.m.m.m.m.m.m",
".m.m.m.m.m.m.m.m.m.m.m.m.m.m.m.m.m.m.m.m#c.Y#`ag`w#`ak.m.m.m.m.m.m.m.m.m.m.m.m.m",
".m.m.m.m.m.m.m.m.m.m.m.m.m.m.m.m.m.m.m.maM.S#`aa`P#`.W.m.m.m.m.m.m.m.m.m.m.m.m.m",
".m.m.m.m.m.m.m.m.m.m.m.m.m.m.m.m.m.m.m.maM`i`P`w`w`w#W.m.m.m.m.m.m.m.m.m.m.m.m.m",
".m.m.m.m.m.m.m.m.m.m.m.m.m.m.m.m.m.m.m.maM`i`w.8`w#`#D.f.m.m.m.m.m.m.m.m.m.m.m.m",
".m.m.m.m.m.m.m.m.m.m.m.m.m.m.m.m.m.m.m.man`i`w`w`wam#A#o.m.m.m.m.m.m.m.m.m.m.m.m",
".m.m.m.m.m.m.m.m.m.m.m.m.m.m.m.m.m.m.m.QaU`P#`.8`w#`aC.#.m.m.m.m.m.m.m.m.m.m.m.m",
".m.m.m.m.m.m.m.m.m.m.m.m.m.m.m.m.m.m.maE.#.u#``w`w`w#`aM.m.m.m.m.m.m.m.m.m.m.m.m",
".m.m.m.m.m.m.m.m.m.m.m.m.m.m.m.m.m.m.m#n#v.u`P`O`w#``w#q.m.m.m.m.m.m.m.m.m.m.m.m",
".m.m.m.m.m.m.m.m.m.m.m.m.m.m.m.m.m.m.ma6av.uab`s`w`w#``R.m.m.m.m.m.m.m.m.m.m.m.m",
".m.m.m.m.m.m.m.m.m.m.m.m.m.m.m.m.m.m.m#V`iabab`s.8`w#``R.m.m.m.m.m.m.m.m.m.m.m.m",
".m.m.m.m.m.m.m.m.m.m.m.m.m.m.m.m.m.m.m.o`i#``w.8.8`w`w.h.m.m.m.m.m.m.m.m.m.m.m.m",
".m.m.m.m.m.m.m.m.m.m.m.m.m.m.m.m.m.m.m`B`i#`#`.8.8`wam`3.m.m.m.m.m.m.m.m.m.m.m.m",
".m.m.m.m.m.m.m.m.m.m.m.m.m.m.m.m.m.m.m`B.u`wab`w`w#`ab#R.m.m.m.m.m.m.m.m.m.m.m.m",
".m.m.m.m.m.m.m.m.m.m.m.m.m.m.m.m.m.m.maF.S`w`P`w`s`w`6`3.m.m.m.m.m.m.m.m.m.m.m.m",
".m.m.m.m.m.m.m.m.m.m.m.m.m.m.m.m.m.m.maMaC`w`w`w`s#``Pak.m.m.m.m.m.m.m.m.m.m.m.m",
".m.m.m.m.m.m.m.m.m.m.m.m.m.m.m.m.m.m.maMaI`w`w#`.8`w#`aMaE.m.m.m.m.m.m.m.m.m.m.m",
".m.m.m.m.m.m.m.m.m.m.m.m.m.m.m.m.m.m.maMaC`w`w`w`s#``w#A.k.m.m.m.m.m.m.m.m.m.m.m",
".m.m.m.m.m.m.m.m.m.m.m.m.m.m.m.m.m.m.maMaC`w`w#``s#``P.PaN.m.m.m.m.m.m.m.m.m.m.m",
".m.m.m.m.m.m.m.m.m.m.m.m.m.m.m.m.m.m.maMaC#``w#``s`w#``ias.m.m.m.m.m.m.m.m.m.m.m",
".m.m.m.m.m.m.m.m.m.m.m.m.m.m.m.m.m.m.maMae#``w`w.8`w`w`P.v.m.m.m.m.m.m.m.m.m.m.m",
".m.m.m.m.m.m.m.m.m.m.m.m.m.m.m.m.m.m.m`d.D`P.8`s`w`w#`#`#r.m.m.m.m.m.m.m.m.m.m.m",
".m.m.m.m.m.m.m.m.m.m.m.m.m.m.m.m.m.m.m#6aC`P`s.8#`aaab`waW.m.m.m.m.m.m.m.m.m.m.m",
".m.m.m.m.m.m.m.m.m.m.m.m.m.m.m.m.m.m`Da1`i`P`s`w`w`sabab`R.m.m.m.m.m.m.m.m.m.m.m",
".m.m.m.m.m.m.m.m.m.m.m.m.m.m.m.m.m.m.la1`i`P.8`w`w`sab`P`3.m.m.m.m.m.m.m.m.m.m.m",
".m.m.m.m.m.m.m.m.m.m.m.m.m.m.m.m.m.m.l.E`i`P.8#``w`wab.uak.m.m.m.m.m.m.m.m.m.m.m",
".m.m.m.m.m.m.m.m.m.m.m.m.m.m.m.m.m.m`l.0ag`w.8.8.8.8.8`P.W.m.m.m.m.m.m.m.m.m.m.m",
".m.m.m.m.m.m.m.m.m.m.m.m.m.m.m.m.m.ma.ayaq#`.8`s.8`s`s`P#R.m.m.m.m.m.m.m.m.m.m.m",
".m.m.m.m.m.m.m.m.m.m.m.m.m.m.m.m.m.maCae`P`w`s`s`s`waa`P`3.m.m.m.m.m.m.m.m.m.m.m",
".m.m.m.m.m.m.m.m.m.m.m.m.m.m.m.m.m.man`i#``s.8.8`s`w`w`PaM#b.m.m.m.m.m.m.m.m.m.m",
".m.m.m.m.m.m.m.m.m.m.m.m.m.m.m.m.m.m`B`i`w.8`s.8`s.8`wab#A.I.m.m.m.m.m.m.m.m.m.m",
".m.m.m.m.m.m.m.m.m.m.m.m.m.m.m.m.m.m#8#5`w.8.8.8`s.8`s`Pay.A.m.m.m.m.m.m.m.m.m.m",
".m.m.m.m.m.m.m.m.m.m.m.m.m.m.m.m.m.maO.S#``w.8`s`s`s.8`P`H#I.m.m.m.m.m.m.m.m.m.m",
".m.m.m.m.m.m.m.m.m.m.m.m.m.m.m.m.m.m`B`i`P`w.8`s`saa#`abab#X.m.m.m.m.m.m.m.m.m.m",
".m.m.m.m.m.m.m.m.m.m.m.m.m.m.m.m.m.m`B.S`w`w`s.8aa`s#``PabaM.m.m.m.m.m.m.m.m.m.m",
".m.m.m.m.m.m.m.m.m.m.m.m.m.m.m.m.m.m#6`i#`.8.8`s`s.8.N`P`w#G.m.m.m.m.m.m.m.m.m.m",
".m.m.m.m.m.m.m.m.m.m.m.m.m.m.m.m.m.m`Ba3`P`w`s`saa`s`wab#`#s.m.m.m.m.m.m.m.m.m.m",
".m.m.m.m.m.m.m.m.m.m.m.m.m.m.m.m.m.m`B.q#``w`s.8`s`s`w`w`w#q.m.m.m.m.m.m.m.m.m.m",
".m.m.m.m.m.m.m.m.m.m.m.m.m.m.m.m.m.m`B#p`P`w`s`s`s`s`w#``w`R.m.m.m.m.m.m.m.m.m.m",
".m.m.m.m.m.m.m.m.m.m.m.m.m.m.m.m.m.m`BaC`P#``s`s`O`s`P`Pab`f.m.m.m.m.m.m.m.m.m.m",
".m.m.m.m.m.m.m.m.m.m.m.m.m.m.m.m.m.m`BaIab`w.8`s.8`O#``P`Pak.m.m.m.m.m.m.m.m.m.m",
".m.m.m.m.m.m.m.m.m.m.m.m.m.m.m.m.m.m`B.q`P#``s`s.8.8`P`Pab.W.m.m.m.m.m.m.m.m.m.m",
".m.m.m.m.m.m.m.m.m.m.m.m.m.m.m.m.m.m#6aCab#``s`s`s`s`P`Pab#R.m.m.m.m.m.m.m.m.m.m",
".m.m.m.m.m.m.m.m.m.m.m.m.m.m.m.m.m.maFaCab#``s`s`s`s`P`P`P.W.m.m.m.m.m.m.m.m.m.m",
".m.m.m.m.m.m.m.m.m.m.m.m.m.m.m.m.m.maFaI`P#``s`s`w`O`P`P`PaQ.m.m.m.m.m.m.m.m.m.m",
".m.m.m.m.m.m.m.m.m.m.m.m.m.m.m.m.m.maF`Q#``P.8`s.8ag#`#`.u#F.m.m.m.m.m.m.m.m.m.m",
".m.m.m.m.m.m.m.m.m.m.m.m.m.m.m.m.m.m`B`i`w`6#``saq#``O.uab.4.m.m.m.m.m.m.m.m.m.m",
".m.m.m.m.m.m.m.m.m.m.m.m.m.m.m.m.m.m`S#5#`aa.8`w.8`P`P`P.Z#4.m.m.m.m.m.m.m.m.m.m",
".m.m.m.m.m.m.m.m.m.m.m.m.m.m.m.m.m.m#j`Bav#`.8`s.8`O`w#`#c.6.m.m.m.m.m.m.m.m.m.m",
".m.m.m.m.m.m.m.m.m.m.m.m.m.m.m.m.m.m.maFae`P#``w#`#``P.u`n.m.m.m.m.m.m.m.m.m.m.m",
".m.m.m.m.m.m.m.m.m.m.m.m.m.m.m.m.m.m#3`oad#1ah`t`tah`5`W`3.n.m.m.m.m.m.m.m.m.m.m",
".m.m.m.m.m.m.m.m.m.m.m.m.m.m.m.m.m.Q`V.Saaaa.Pa2`Lafaaaa#B#Z.Q.m.m.m.m.m.m.m.m.m",
".m.m.m.m.m.m.m.m.m.m.m.m.m.m.m.m.m#K`1aaaa#``waa.8`waa`w.u#1.f.m.m.m.m.m.m.m.m.m",
".m.m.m.m.m.m.m.m.m.m.m.m.m.m.m.m.m.q`tabam`6`6`w`w.8`s`waba8.QaB.m.m.m.m.m.m.m.m",
".m.m.m.m.m.m.m.m.m.m.m.m.m.m.m.m.m.m.O.Y#`am`waa.8.8ag#B#P#D.m.m.m.m.m.m.m.m.m.m",
".m.m.m.m.m.m.m.m.m.m.m.m.m.m.m.m.m.m`bacan#5ab#5`O`P#`.P.W#E.m.m.m.m.m.m.m.m.m.m",
".m.m.m.m.m.m.m.m.m.m.m.m.m.m.m.m.m.m.m`G.g.v`5.H`5.Hao.b#8.m.m.m.m.m.m.m.m.m.m.m",
".m.m.m.m.m.m.m.m.m.m.m.m.m.m.m.m.m.m.m#z#s.e`4`4`4`4ay.c.m.m.m.m.m.m.m.m.m.m.m.m",
".m.m.m.m.m.m.m.m.m.m.m.m.m.m.m.m.m.m.m`BaM#v#T`h#Tau`Q`T.m.m.m.m.m.m.m.m.m.m.m.m",
".m.m.m.m.m.m.m.m.m.m.m.m.m.m.m.m.m.m`K.wacaC.VaAaN#v#ual.r.m.m.m.m.m.m.m.m.m.m.m",
".m.m.m.m.m.m.m.m.m.m.m.m.m.m.m.m.m#Ua1#s#e`W`N#1#DaZ.O`R#Q#h.m.m.m.m.m.m.m.m.m.m",
".m.m.m.m.m.m.m.m.m.m.m.m.m.m.m.m.m.Jafa0#PaA#g`t.z.Pay`Pag.K.m.m.m.m.m.m.m.m.m.m",
".m.m.m.m.m.m.m.m.m.m.m.m.m.m.m.m.maFaqamaa#B`wa0aa#``w`Oamak.m.m.m.m.m.m.m.m.m.m",
".m.m.m.m.m.m.m.m.m.m.m.m.m.m.m.m.mas.Vab`w.8`6.8`w.8`O#``P.W.m.m.m.m.m.m.m.m.m.m",
".m.m.m.m.m.m.m.m.m.m.m.m.m.m.m.m.m.l.h`2.U`Y#`.8`wam#B#`.0as.m.m.m.m.m.m.m.m.m.m",
".m.m.m.m.m.m.m.m.m.m.m.m.m.m.m.m.m.X.w`WadaSaA`P.u#gaf`Mal.n.m.m.m.m.m.m.m.m.m.m",
".m.m.m.m.m.m.m.m.m.m.m.m.m.m.m.mai.saTaV`W#Za7a8a4aT#.#Y`Iaw#z.m.m.m.m.m.m.m.m.m",
".m.m.m.m.m.m.m.m.m.m.m.m.m.m.m.m#8aZ`R#N#FaM#4aZ#d#k#c.L`B`y#M.m.m.m.m.m.m.m.m.m",
".m.m.m.m.m.m.m.m.m.m.m.m.m.m.m.maDaY`xaR`V.u`6a``A#P`5ad#O#v`I.m.m.m.m.m.m.m.m.m",
".m.m.m.m.m.m.m.m.m.m.m.m.m.m.m.m#C.qam.u#1a`#B#BazaoayaY`Pav`3.m.m.m.m.m.m.m.m.m",
".m.m.m.m.m.m.m.m.m.m.m.m.m.m.m.m.n`Q#`#`#`#Z#P.C.Fa0#`#`#``P#R.m.m.m.m.m.m.m.m.m",
".m.m.m.m.m.m.m.m.m.m.m.m.m.m.m.m.naD#`.8`P.M#4`r#`.8`w.8.8`P`3.m.m.m.m.m.m.m.m.m",
".m.m.m.m.m.m.m.m.m.m.m.m.m.m.m.m.nae#`.8`w#Bax`P`O#``w`s`s`P`3.m.m.m.m.m.m.m.m.m",
".m.m.m.m.m.m.m.m.m.m.m.m.m.m.m.m.nae#`aa`O#`#R`i#``O`s`s.8aqak.m.m.m.m.m.m.m.m.m",
".m.m.m.m.m.m.m.m.m.m.m.m.m.m.m.m.nae`waa#`#`#R.u`waa`w`w`waq#R.m.m.m.m.m.m.m.m.m",
".m.m.m.m.m.m.m.m.m.m.m.m.m.m.m.m.nae#`.8`w#``3.u#`ab`w`w#``Pak.m.m.m.m.m.m.m.m.m",
".m.m.m.m.m.m.m.m.m.m.m.m.m.m.m.m.n`Q#``s.8#``3`i`w`P`w.8`w`P`3.m.m.m.m.m.m.m.m.m",
".m.m.m.m.m.m.m.m.m.m.m.m.m.m.m.m#8ae`w.8`w`w`3`i#``P`w.8#``P`3.m.m.m.m.m.m.m.m.m",
".m.m.m.m.m.m.m.m.m.m.m.m.m.m.m.m.n.S#``s`w#`ak`i`w`P`w`w`w`Pak.m.m.m.m.m.m.m.m.m",
".m.m.m.m.m.m.m.m.m.m.m.m.m.m.m.m`Bae#``s.8`w#R`i`w`P`w`w`w`Pak.m.m.m.m.m.m.m.m.m",
".m.m.m.m.m.m.m.m.m.m.m.m.m.m.m.m`y`X#`.8`w#`ak`i`w`P`w`w`w`Pak.m.m.m.m.m.m.m.m.m",
".m.m.m.m.m.m.m.m.m.m.m.m.m.m.m.m`.`X`w.8`w#`ak`i`w`P`w`w`w`Pak.m.m.m.m.m.m.m.m.m",
".m.m.m.m.m.m.m.m.m.m.m.m.m.m.m.m`F#I`w`s`w#``3`i`w`P`w`w`w`Pak.m.m.m.m.m.m.m.m.m",
".m.m.m.m.m.m.m.m.m.m.m.m.m.m.m.m#8`2`w`s`w#`#R`i`w`P`w`w`w`Pak.m.m.m.m.m.m.m.m.m",
".m.m.m.m.m.m.m.m.m.m.m.m.m.m.m.m#8af.d.8`w#``3`i`w`P`w`w`w`Pak.m.m.m.m.m.m.m.m.m",
".m.m.m.m.m.m.m.m.m.m.m.m.m.m.m.m.YaC#``s`w`w`3`i`w`P`w`w`w`Pak.m.m.m.m.m.m.m.m.m",
".m.m.m.m.m.m.m.m.m.m.m.m.m.m.m.m#6aC#``s`w#`ak`i`w`P`w`w`w`Pak.m.m.m.m.m.m.m.m.m",
".m.m.m.m.m.m.m.m.m.m.m.m.m.m.m.m#CaC`w.8`w`w`3`i`w`P`w`w`w`Pak.m.m.m.m.m.m.m.m.m",
".m.m.m.m.m.m.m.m.m.m.m.m.m.m.m.maPay#``s`w#``3`i`w`P`w`w`w`Pak.m.m.m.m.m.m.m.m.m",
".m.m.m.m.m.m.m.m.m.m.m.m.m.m.m.ma6ae#``s`w#`ak`i`w`P`w`w`w`Pak.m.m.m.m.m.m.m.m.m",
".m.m.m.m.m.m.m.m.m.m.m.m.m.m.m.maM`x#``s`w`w`3`i`w`P`w`w`w`Pak.m.m.m.m.m.m.m.m.m",
".m.m.m.m.m.m.m.m.m.m.m.m.m.m.m.m.oae`w`s.8`w`3`i`w`P`w`w`w`Pak.m.m.m.m.m.m.m.m.m",
".m.m.m.m.m.m.m.m.m.m.m.m.m.m.m.m#z#v#``s`w#``3`i`w`P`w`w`w`Pak.m.m.m.m.m.m.m.m.m",
".m.m.m.m.m.m.m.m.m.m.m.m.m.m`l.m#C`X#``s`w#``3`i`w`P`w`w`w`Pak.m.m.m.m.m.m.m.m.m",
".m.m.m.m.m.m.m.m.m.m.m.m.m.m#w.m#C`q#``s.8#``3`6#``w`w.8#``P`3.m.m.m.m.m.m.m.m.m",
".m.m.m.m.m.m.m.m.m.m.m.m.m.m.m.ma1ae#``s`w`w`3aq#`.8.8.8#``Pak.m.m.m.m.m.m.m.m.m",
".m.m.m.m.m.m.m.m.m.m.m.m.m.m.m.ma1.S.d.8`w#``3aq#`.8.8`s#``P`3.m.m.m.m.m.m.m.m.m",
".m.m.m.m.m.m.m.m.m.m.m.m.m.m.m.maFaI`w`s`w`w`f.3#`.8`w`s#``P`R.m.m.m.m.m.m.m.m.m",
".m.m.m.m.m.m.m.m.m.m.m.m.m.m.m.m.n.Y`w.8`w#``3.u`w`w`w.8#``P.h.m.m.m.m.m.m.m.m.m",
".m.m.m.m.m.m.m.m.m.m.m.m.m.m.m.m.n`q`w`s`w#``3.u`w`w.8`w.dab.h.m.m.m.m.m.m.m.m.m",
".m.m.m.m.m.m.m.m.m.m.m.m.m.m.m.m#8`X#``O`w`w`3`i`w`P.8`w#`ab`3.m.m.m.m.m.m.m.m.m",
".m.m.m.m.m.m.m.m.m.m.m.m.m.m.m.m`..S#``O`w`w`3`6`O`Paa`wag`P`#.m.m.m.m.m.m.m.m.m",
".m.m.m.m.m.m.m.m.m.m.m.m.m.m.m.m#VaCam#`..`w`fa##``P#``Paa`P`N.m.m.m.m.m.m.m.m.m",
".m.m.m.m.m.m.m.m.m.m.m.m.m.m.m.m#m#c#v.8`P#`ak.P`w`P`6abam.U`R.m.m.m.m.m.m.m.m.m",
".m.m.m.m.m.m.m.m.m.m.m.m.m.m.m.m.m#Sa8`L`P.d`3`6`P`6.8#`#`a`a4.m.m.m.m.m.m.m.m.m",
".m.m.m.m.m.m.m.m.m.m.m.m.m.m.m.m.m.m#j#O.R#``oa#.uam#`aAaj`G`J.m.m.m.m.m.m.m.m.m",
".m.m.m.m.m.m.m.m.m.m.m.m.m.m.m.m.m.m.m.BaF#0`3ag`P`X`k`S`ja5aG.m.m.m.m.m.m.m.m.m",
".m.m.m.m.m.m.m.m.m.m.m.m.m.m.m.m.m.m.m.maB#Q`p.eaX.1#y#w.m.m.m.m.m.m.m.m.m.m.m.m",
".m.m.m.m.m.m.m.m.m.m.m.m.m.m.m.m.m.m.m.m.m.f`maK`Z.m.m.m.m.m.m.m.m.m.m.m.m.m.m.m",
".m.m.m.m.m.m.m.m.m.m.m.m.m.m.m.m.m.m.m.m.m.maB.m.m.m.m.m.m.m.m.m.m.m.m.m.m.m.m.m"
};
