/* XPM */
static char *DVY_OutsideCornerBrick_2x2x45_xpm[] = {
/* width height num_colors chars_per_pixel */
"   100   100       16            1",
/* colors */
"` c #8c8d91",
". c #c6c8c9",
"# c #e4e7e9",
"a c #a9abad",
"b c #d6d8da",
"c c #ffffff",
"d c #babec0",
"e c #9b9c9e",
"f c #edf1f3",
"g c #cfd0d2",
"h c #b2b4b5",
"i c #dee0e2",
"j c #a2a4a5",
"k c #949598",
"l c #c4c2c4",
"m c #e4eeec",
/* pixels */
"cccccccccccccccccccccccccccccccccccccccccccccccccccccccccccccccccccccccccccccccccccccccccccccccccccc",
"cccccccccccccccccccccccccccccccccccccccccccccccccccccccccccccccccccccccccccccccccccccccccccccccccccc",
"cccccccccccccccccccccccccccccccccccccccccccccccccccccccccccccccccccccccccccccccccccccccccccccccccccc",
"cccccccccccccccccccccccccccccccccccccccccccccccccccccccccccccccccccccccccccccccccccccccccccccccccccc",
"cccccccccccccccccccccccccccccccccccccccccccccccccccccccccccccccccccccccccccccccccccccccccccccccccccc",
"cccccccccccccccccccccccccccccccccccccccccccccccccccccccccccccccccccccccccccccccccccccccccccccccccccc",
"cccccccccccccccccccccccccccccccccccccccccccccccccccccccccccccccccccccccccccccccccccccccccccccccccccc",
"cccccccccccccccccccccccccccccccccccccccccccccccccccccccccccccccccccccccccccccccccccccccccccccccccccc",
"cccccccccccccccccccccccccccccccccccccccccccccccccccccccccccccccccccccccccccccccccccccccccccccccccccc",
"cccccccccccccccccccccccccccccccccccccccccccccccccccccccccccccccccccccccccccccccccccccccccccccccccccc",
"cccccccccccccccccccccccccccccccccccccccccccccccccccccccccccccccccccccccccccccccccccccccccccccccccccc",
"cccccccccccccccccccccccccccccccccccccccccccccccccccccccccccccccccccccccccccccccccccccccccccccccccccc",
"cccccccccccccccccccccccccccccccccccccccccccccccccccccccccccccccccccccccccccccccccccccccccccccccccccc",
"cccccccccccccccccccccccccccccccccccccccccccccccccccccccccccccccccccccccccccccccccccccccccccccccccccc",
"cccccccccccccccccccccccccccccccccccccccccccccccccccccccccccccccccccccccccccccccccccccccccccccccccccc",
"cccccccccccccccccccccccccccccccccfcccccccccccccccccccccccccccccccccccccccccccccccccccccccccccccccccc",
"cccccccccccccccccccccccccccccccccccccccccccccccccccccccccccccccccccccccccccccccccccccccccccccccccccc",
"cccccccccccccccccccccccccccccccccccccccccccfcccccccccccccccccccccccccccccccccccccccccccccccccccccccc",
"cccccccccccccccccccccccccccccccccccccccccccccccfff##ib#fcccccccccccccccccccccccccccccccccccccccccccc",
"cccccccccccccccccccccccccccccccccccccccccccccccf#ibb.hg#fccccccccccccccccccccccccccccccccccccccccccc",
"ccccccccccccccccccccccccccccccccccccccccccccfiglllddhad.b#fccccccccccccccccccccccccccccccccccccccccc",
"cccccccccccccccccccccccccccccccccccccccccccfbdakejjjjajjdg#ccccccccccccccccccccccccccccccccccccccccc",
"ccccccccccccccccccccccccccccccccccccccccffiblajejjjjjaaaah.ifccccccccccccccccccccccccccccccccccccccc",
"ccccccccccccccccccccccccccccccccccccccccfi.haejjjjjjjaaaeka.iccccccccccccccccccccccccccccccccccccccc",
"ccccccccccccccccccccccccccccccccccccf#bg.dhajjjjjjjaaajjeejadb#ccccccccccccccccccccccccccccccccccccc",
"cccccccccccccccccccccccccccccccccccf#gdjeeeeejeeejjaaajkeje`jhbfcccccccccccccccccccccccccccccccccccc",
"cccccccccccccccccccccccccccccccccfiglhajeeekaddhhhaaaaahajk`ejdgifcccccccccccccccccccccccccccccccccc",
"ccccccccccccccccccccccccccccccccf#.aekejeek`hggg.lhaahd.hjk`keej.#fccccccccccccccccccccccccccccccccc",
"cccccccccccccccccccccccccccccccff#b.heeeeeeehgbiiibbbbggdjk`keeeh.b#fccccccccccccccccccccccccccccccc",
"ccccccccccccccccccccccccccccccff##ii.ajeeejjh.bfffcccc#bdjekkeeeejdb#ccccccccccccccccccccccccccccccc",
"ccccccccccccccccccccccccccccccf#####b.dajeejh.bffccccf#bdaekeeeejh.b#ccccccccccccccccccccccccccccccc",
"cccccccccccccccccccccccccccccffi#####igdakeeh.bffccccf#b.hjeeeeealgb#fcccccccccccccccccccccccccccccc",
"ccccccccccccccccccccccccccccff########bgdaajaad.gbiibb.dajjjahd.gbi##ffccccccccccccccccccccccccccccc",
"ccccccccccccccccccccccccccccff#########ib.daekejahdddhajekjad.iffffff#fccccccccccccccccccccccccccccc",
"cccccccccccccccccccccccccccff###########ib.daeejjaaaaaaahddgbi#ffffff#fccccccccccccccccccccccccccccc",
"ccccccccccccccccccccccccccff###########f##b.djjeeeekeeah.b#fffffffffffffcccccccccccccccccccccccccccc",
"cccccccccccccccccccccccccff###############ibgdhjjjjahdgbi#fffffffffffffffccccccccccccccccccccccccccc",
"cccccccccccccccccccccccccf#############i####iidjjjhdg#fffffffffffffffff#fccccccccccccccccccccccccccc",
"ccccccccccccccccccccccccff###################ib...gb#ffffffffffffffffff#fccccccccccccccccccccccccccc",
"cccccccccccccccccccccccff######################ffffffffffffffffffcfffff#fccccccccccccccccccccccccccc",
"ccccccccccccccccccccccff#######################fffffffffffffffffffffffffffcccccccccccccccccccccccccc",
"ccccccccccccccccccccccf######################i#fffffffffffffccfffffffffffffccccccccccccccccccccccccc",
"cccccccccccccccccccccff########################ffffffffffffffffffffffffffffccccccccccccccccccccccccc",
"ccccccccccccccccccccff########################fffffffffffcfff#fffffcfffff#fccccccccccccccccccccccccc",
"ccccccccccccccccccccf#########################ffffffffffffffffffffffffffffffcccccccccccccccccccccccc",
"cccccccccccccccccccff#########################fffffffffffffffcfffffffffffffffccccccccccccccccccccccc",
"ccccccccccccccccccff##########################fffffffffffffffffffffffffffffffccccccccccccccccccccccc",
"ccccccccccccccccccf###########################fffffffffffffffffffffffffffffffccccccccccccccccccccccc",
"cccccccccccccccccff###########################ffffffffffffffffffffffffffffffffcccccccccccccccccccccc",
"ccccccccccccccccf#############################ffffffffffffffffffffffffffffffffcccccccccccccccccccccc",
"cccccccccccccccff#############################fffffffffffffffffffffffffffffffffccccccccccccccccccccc",
"ccccccccccccccff#i############################fffffffffffffffffffffffffffffff#fccccccccccccccccccccc",
"ccccccccccccccf##i############################fffffffffffffffffffffffffffffff#ffcccccccccccccccccccc",
"cccccccccccccff##i###########################fffffffffffffffffffffffffffffffffffcccccccccccccccccccc",
"ccccccccccccff###############################ffffffffffffffffffffffffffffffffffffccccccccccccccccccc",
"ccccccccccccf####f#####m#####################ffffffffffffffffffffffffffffffffff#fccccccccccccccccccc",
"ccccccccccccfibbi###########################fffffffffffffffffffffffffffffffffff#fccccccccccccccccccc",
"cccccccccccc#ig.b###########################ffffffffffffffffffffffffffffffffffffffcccccccccccccccccc",
"ccccccccccccfigdgbii########################ffffffffffffffffffffffffffffffffffffffcccccccccccccccccc",
"ccccccccccccf#gd.gbii#######################fffffffffffffffffffffffffffffffffffffffccccccccccccccccc",
"ccccccccccccffig.d.gb#######################fffffffffffffffffffffffffffffffffffffffccccccccccccccccc",
"ccccccccccccccfigddlgi######################fffffffffffffffffffffffffffffffffffff#fccccccccccccccccc",
"ccccccccccccccffig.l.gbi####################ffffffffffffffffffffffffffffffffffff#iffcccccccccccccccc",
"ccccccccccccccccf#blddgbif##################ffffffffffffffffffffffffffffffffffff#i#fcccccccccccccccc",
"cccccccccccccccccf#bgl.gbii#################ffffffffffffffffffffffffffffffff###iib#fcccccccccccccccc",
"ccccccccccccccccccffb.ld.gb####i############ffffffffffffffffffffffffffffff##iibggb#fcccccccccccccccc",
"cccccccccccccccccccf#igl..gbi##############fffffffffffffffffffffffffffff##iibbbbbi#ccccccccccccccccc",
"cccccccccccccccccccccfi.ld..b##f#i#########fffffffffffffffffffffffffff##iibbggbii#fccccccccccccccccc",
"ccccccccccccccccccccccfib...gbi############ffffffffffffffffffffffff##iiibbbbii#fffcccccccccccccccccc",
"cccccccccccccccccccccccc#g.d..bi###########ffffffffffffffffffffff##iibbggbbi#ffccccccccccccccccccccc",
"ccccccccccccccccccccccccf#b....gb##########fffffffffffffffffff###iibbbbbii#fffcccccccccccccccccccccc",
"cccccccccccccccccccccccccc#b.dddg###########ffffffffffffffffff#ibbbgbbi##ffccccccccccccccccccccccccc",
"ccccccccccccccccccccccccccf#ig.d.bbi#######fffffffffffffff###iibbbbii#ffffcccccccccccccccccccccccccc",
"ccccccccccccccccccccccccccccfigdl.gbi#####ffffffffffffff##iibbbbbii#fccccccccccccccccccccccccccccccc",
"ccccccccccccccccccccccccccccffig....b#####fffffffffff###iibbbbii##fffccccccccccccccccccccccccccccccc",
"ccccccccccccccccccccccccccccccf#glddgiiii#fcffffffff#iiibbbbbbifffcccccccccccccccccccccccccccccccccc",
"cccccccccccccccccccccccccccccccf#b.d.gbii#ffffff###iibbbbii###ffcccccccccccccccccccccccccccccccccccc",
"ccccccccccccccccccccccccccccccccffbldd.bi#fffff#iiibbgbbii#fcccccccccccccccccccccccccccccccccccccccc",
"cccccccccccccccccccccccccccccccccf#bg...gi#f##iiibbbbbi##ffccccccccccccccccccccccccccccccccccccccccc",
"cccccccccccccccccccccccccccccccccccfi.lh.bifibbbbbbbi#ffcccccccccccccccccccccccccccccccccccccccccccc",
"cccccccccccccccccccccccccccccccccccc#ig..gbiibbbiii#fffccccccccccccccccccccccccccccccccccccccccccccc",
"ccccccccccccccccccccccccccccccccccccffiggggbbbbii#fccccccccccccccccccccccccccccccccccccccccccccccccc",
"cccccccccccccccccccccccccccccccccccccffiibiiii#ffffccccccccccccccccccccccccccccccccccccccccccccccccc",
"cccccccccccccccccccccccccccccccccccccccff####ffccccccccccccccccccccccccccccccccccccccccccccccccccccc",
"ccccccccccccccccccccccccccccccccccccccccffffffcccccccccccccccccccccccccccccccccccccccccccccccccccccc",
"cccccccccccccccccccccccccccccccccccccccccccccccccccccccccccccccccccccccccccccccccccccccccccccccccccc",
"cccccccccccccccccccccccccccccccccccccccccccccccccccccccccccccccccccccccccccccccccccccccccccccccccccc",
"cccccccccccccccccccccccccccccccccccccccccccccccccccccccccccccccccccccccccccccccccccccccccccccccccccc",
"cccccccccccccccccccccccccccccccccccccccccccccccccccccccccccccccccccccccccccccccccccccccccccccccccccc",
"cccccccccccccccccccccccccccccccccccccccccccccccccccccccccccccccccccccccccccccccccccccccccccccccccccc",
"cccccccccccccccccccccccccccccccccccccccccccccccccccccccccccccccccccccccccccccccccccccccccccccccccccc",
"cccccccccccccccccccccccccccccccccccccccccccccccccccccccccccccccccccccccccccccccccccccccccccccccccccc",
"cccccccccccccccccccccccccccccccccccccccccccccccccccccccccccccccccccccccccccccccccccccccccccccccccccc",
"cccccccccccccccccccccccccccccccccccccccccccccccccccccccccccccccccccccccccccccccccccccccccccccccccccc",
"cccccccccccccccccccccccccccccccccccccccccccccccccccccccccccccccccccccccccccccccccccccccccccccccccccc",
"cccccccccccccccccccccccccccccccccccccccccccccccccccccccccccccccccccccccccccccccccccccccccccccccccccc",
"cccccccccccccccccccccccccccccccccccccccccccccccccccccccccccccccccccccccccccccccccccccccccccccccccccc",
"cccccccccccccccccccccccccccccccccccccccccccccccccccccccccccccccccccccccccccccccccccccccccccccccccccc",
"cccccccccccccccccccccccccccccccccccccccccccccccccccccccccccccccccccccccccccccccccccccccccccccccccccc",
"cccccccccccccccccccccccccccccccccccccccccccccccccccccccccccccccccccccccccccccccccccccccccccccccccccc"
};
