/* XPM */
static char *DVY_Knob2Brick_1x1_xpm[] = {
/* width height num_colors chars_per_pixel */
"   100   100       16            1",
/* colors */
"` c #2c2d2c",
". c #979897",
"# c #5f5f5f",
"a c #d1d1d1",
"b c #444444",
"c c #b5b4b5",
"d c #7b7b7b",
"e c #ececec",
"f c #363536",
"g c #a7a7a7",
"h c #6e6d6e",
"i c #dfdedf",
"j c #4d4f4d",
"k c #c0c1c0",
"l c #898a89",
"m c #ffffff",
/* pixels */
"mmmmmmmmmmmmmmmmmmmmmmmmmmmmmmmmmmmmmmmmmmmmmmmmmmmmmmmmmmmmmmmmmmmmmmmmmmmmmmmmmmmmmmmmmmmmmmmmmmmm",
"mmmmmmmmmmmmmmmmmmmmmmmmmmmmmmmmmmmmmmmmmmmmmmmmmmmmmmmmmmmmmmmmmmmmmmmmmmmmmmmmmmmmmmmmmmmmmmmmmmmm",
"mmmmmmmmmmmmmmmmmmmmmmmmmmmmmmmmmmmmmmmmmmmmmmmmmmmmmmmmmmmmmmmmmmmmmmmmmmmmmmmmmmmmmmmmmmmmmmmmmmmm",
"mmmmmmmmmmmmmmmmmmmmmmmmmmmmmmmmmmmmmmmmmmmmmmmmmmmmmmmmmmmmmmmmmmmmmmmmmmmmmmmmmmmmmmmmmmmmmmmmmmmm",
"mmmmmmmmmmmmmmmmmmmmmmmmmmmmmmmmmmmmmmmmmmmmmmmmmmmmmmmmmmmmmmmmmmmmmmmmmmmmmmmmmmmmmmmmmmmmmmmmmmmm",
"mmmmmmmmmmmmmmmmmmmmmmmmmmmmmmmmmmmmmmmmmmmmmmmmmmmmmmmmmmmmmmmmmmmmmmmmmmmmmmmmmmmmmmmmmmmmmmmmmmmm",
"mmmmmmmmmmmmmmmmmmmmmmmmmmmmmmmmmmmmmmmmmmmmmmmmmmmmmmmmmmmmmmmmmmmmmmmmmmmmmmmmmmmmmmmmmmmmmmmmmmmm",
"mmmmmmmmmmmmmmmmmmmmmmmmmmmmmmmmmmmmmmmmmmmmmmmmmmmmmemmmmmmmmmmmmmmmmmmmmmmmmmmmmmmmmmmmmmmmmmmmmmm",
"mmmmmmmmmmmmmmmmmmmmmmmmmmmmmmmmmmmmmmmmmmmmmmmmmmmmmmmmmmmmmmmmmmmmmmmmmmmmmmmmmmmmmmmmmmmmmmmmmmmm",
"mmmmmmmmmmmmmmmmmmmmmmmmmmmmmmmmmmmmmmmmmmmmmmmmmmmmmmmmmmmmmmmmmmmmmmmmmmmmmmmmmmmmmmmmmmmmmmmmmmmm",
"mmmmmmmmmmmmmmmmmmmmmmmmmmmmmmmmmmmmmmmmmmmmmmmmmmmmmmmmmmmmmmmmmmmmmmmmmmmmmmmmmmmmmmmmmmmmmmmmmmmm",
"mmmmmmmmmmmmmmmmmmmmmmmmmmmmmmmmmmmmmmmmmmmmmmmmmmmmmmmmmmmmmmmmmmmmmmmmmmmmmmmmmmmmmmmmmmmmmmmmmmmm",
"mmmmmmmmmmmmmmmmmmmmmmmmmmmmmmmmmmmmmmmmmmmmmmmmmeiakkaemmmmmmmmmmmmmmmmmmmmmmmmmmmmmmmmmmmmmmmmmmmm",
"mmmmmmmmmmmmmmmmmmmmmmmmmmmmmmmmmmmmmmmmmmmmmmmmeeagldceemmmmmmmmmmmmmmmmmmmmmmmmmmmmmmmmmmmmmmmmmmm",
"mmmmmmmmmmmmmmmmmmmmmmmmmmmmmmmmmmmmmmmmeiakcggg..dh#jd.keemmmmmmmmmmmmmmmmmmmmmmmmmmmmmmmmmmmmmmmmm",
"mmmmmmmmmmmmmmmmmmmmmmmmmmmmmmmmmmmmmmmmac.dhjjbbffffffblaemmmmmmmmmmmmmmmmmmmmmmmmmmmmmmmmmmmmmmmmm",
"mmmmmmmmmmmmmmmmmmmmmmmmmmmmmmmmmmmmeik.lh##jbbffffffbbf#lgiemmmmmmmmmmmmmmmmmmmmmmmmmmmmmmmmmmmmmmm",
"mmmmmmmmmmmmmmmmmmmmmmmmmmmmmmmmmmmmikdbfffffffffbffbjbfffhcammmmmmmmmmmmmmmmmmmmmmmmmmmmmmmmmmmmmmm",
"mmmmmmmmmmmmmmmmmmmmmmmmmmmmmmmmmmeigd#ff`fffffffbbfbbffffjh.aimmmmmmmmmmmmmmmmmmmmmmmmmmmmmmmmmmmmm",
"mmmmmmmmmmmmmmmmmmmmmmmmmmmmmmmmmmicdfff``fffff`bjbbf`ffff``#.ammmmmmmmmmmmmmmmmmmmmmmmmmmmmmmmmmmmm",
"mmmmmmmmmmmmmmmmmmmmmmmmmmmmmmeiak.hjff```fffffffbbbfffbfff`b#lcammmmmmmmmmmmmmmmmmmmmmmmmmmmmmmmmmm",
"mmmmmmmmmmmmmmmmmmmmmmmmmmmmmmik.hj`fff`fffff`fffffbbfbbbbf```b#gemmmmmmmmmmmmmmmmmmmmmmmmmmmmmmmmmm",
"mmmmmmmmmmmmmmmmmmmmmmmmmeiakgld#jbfffffffffffffffbjbfbbbff```bjd.keemmmmmmmmmmmmmmmmmmmmmmmmmmmmmmm",
"mmmmmmmmmmmmmmmmmmmmmmmmeeagdjbf``fff`fffffffbffffbjbbbjbfffffffbj.iemmmmmmmmmmmmmmmmmmmmmmmmmmmmmmm",
"mmmmmmmmmmmmmmmmmmmmeeakg.dhjbfffffff`fffff`ffffffbbbffffffff```fb#l.cckaeemmmmmmmmmmmmmmmmmmmmmmmmm",
"mmmmmmmmmmmmmmmmmmmmeigl#ffff```fffff`fbfff``fffbbbbff````fff`````fbj#hdgiemmmmmmmmmmmmmmmmmmmmmmmmm",
"mmmmmmmmmmmmmmmmeeag.lh#bfffff```ffffffffffffffffffff`fff`fff````fffbjjjhlciemmmmmmmmmmmmmmmmmmmmmmm",
"mmmmmmmmmmmmmmmmea.#b``fff``fff```ffbjbff`bjbbfff`ff``fffffbf````f```fffffhcimmmmmmmmmmmmmmmmmmmmmmm",
"mmmmmmmmmmmmmmmmagdjbff`ff```fff``ffbbbbbbbbbffffffffffbbbbbf``````ff``fffjdgiemmmmmmmmmmmmmmmmmmmmm",
"mmmmmmmmmmmmmmmmkl#bbff``ff```ff```fbbj#jjjbbfffffffbbbbjjbbf`````fff``ffffblkimmmmmmmmmmmmmmmmmmmmm",
"mmmmmmmmmmmmmmmmkd#bbbffff````ff``ffbbjjj####hhhh###jjjjjjbf```````ff`fffffb#lkemmmmmmmmmmmmmmmmmmmm",
"mmmmmmmmmmmmmmmmkd#bbbbff`````````ffbbjjj#hdl..g..ldh###jjbf```````ffffff`ffbj.eemmmmmmmmmmmmmmmmmmm",
"mmmmmmmmmmmmmmmmkd#bbbbbfff```ffffffbbjjj##hdlllllddh##jjjbff```````ffff``fffbdkimmmmmmmmmmmmmmmmmmm",
"mmmmmmmmmmmmmmmmkd#bbbbbbbff``ffffffbbjjj##hhhddddhh###jjjbfffffff````ff````ff#lkmmmmmmmmmmmmmmmmmmm",
"mmmmmmmmmmmmmmmmkd#bbbbbbbbff`ffffffbbjjj##hhdddddhh##jjjjbbfffffff````fffffbbj#gemmmmmmmmmmmmmmmmmm",
"mmmmmmmmmmmmmmmmkd#bbbbbbbbbff````ffbjjjj##hhdddddhh##jjjjbbfffffffff``ffffbjjjb.eemmmmmmmmmmmmmmmmm",
"mmmmmmmmmmmmmmmmkd#bbbbbbbbbbff```fffbbjj##hhdddddhh###jjjbbfff``ffffffbbbbjjjjjlaemmmmmmmmmmmmmmmmm",
"mmmmmmmmmmmmmmmmkd#bbbbbbbbjbbffff``ffbjj#hhhhddddhh###jjjbff``````fffbjjjjjjjjjdgammmmmmmmmmmmmmmmm",
"mmmmmmmmmmmmmmmmkd#bbbbbbbbbbbbbff``fffbbjj##hhhhh###jjbbffff```fffbbbjjjjjjjjjjh.ammmmmmmmmmmmmmmmm",
"mmmmmmmmmmmmmmmmkd#bbbbbbbbbbjbbbf``fffff`fbj##h###jjbff`````ffffbbjjjjjjjjjjjjj#dkmmmmmmmmmmmmmmmmm",
"mmmmmmmmmmmmmmmmkd#bbbbbbbbbbbbbbffffff```ffbbjjjjbbbfff``ffffbbbjjjjjjjjjjjjjjj##cmmmmmmmmmmmmmmmmm",
"mmmmmmmmmmmmmmmmkd#bbbbbbbbbbbbbbbbff````ffff`ffffff````fffbbbjjjjjjjjjjjjjjjjjjj#gmmmmmmmmmmmmmmmmm",
"mmmmmmmmmmmmmmmmkd#bbbbbfffbbbbbbbbbfff```fff`ffff```ffffbbbbjjjjjjjjjjjjjjjjjjjjjgmmmmmmmmmmmmmmmmm",
"mmmmmmmmmmmmmmmmkd#bbbbffffbbbbbbbbbbbfff``fffff````fffbbbjjjjjjjjjjjjjjjjjjjjjjjjgmmmmmmmmmmmmmmmmm",
"mmmmmmmmmmmmmmmmkdjffff```fffbbbbbbbbbbfff```ff`fffffbbbjjjjjjjjjjjjjjjjjjjjjjjbbjgmmmmmmmmmmmmmmmmm",
"mmmmmmmmmmmmmmmmkdjf````````fbbbbbbbbbbbff```f``fffbbjjjjjjjjjjjjjjjjjjjjjjjjjbbbbgmmmmmmmmmmmmmmmmm",
"mmmmmmmmmmmmmmei.#bff``````ffbbbbbbbbbbbbff`fffbbbbbjjjjjjjjjjjjjjjjjjjjjjjjjjbbjjgmmmmmmmmmmmmmmmmm",
"mmmmmmmmmmmmmmiklbfff````fffffbjbfbbbbbbbbffffbjjjjjjjjjjjjjjjjjjjjjjjjjjjjjjjbbjhcmmmmmmmmmmmmmmmmm",
"mmmmmmmmmmmmmekl#bbbbbfffffbbbbjbbbbbbbbbbjjbbbjjjjjjjjjjjjjjjjjjjjjjjjjjjjjjjbbh.ammmmmmmmmmmmmmmmm",
"mmmmmmmmmmmmee.jbbbbbjbbffbbbbbbjjbbbbbbbjj##jjjjjjjjjjjjjjjjjjjjjjjjjjjjjjjjjbbdkimmmmmmmmmmmmmmmmm",
"mmmmmmmmmmmmeilbbbbbbbbjbbbbbbbjjjjbbbbbbbj##jjjjjjjjjjjjjjjjjjjjjjjjjjjjjjjjj#hgiemmmmmmmmmmmmmmmmm",
"mmmmmmmmmmmmialbbbbbbbjjjbbjjjjjj#jbbbbbbbj##jjjjjjjjjjjjjjjjjjjjjjjjjjjjjjjjjh.ammmmmmmmmmmmmmmmmmm",
"mmmmmmmmmmmmikljbbbbbbjjjjjjjjjjjjjjjbbbbbj##jjjjjjjjjjjjjjjjjjjjjjjjjjjjjjjjjdgammmmmmmmmmmmmmmmmmm",
"mmmmmmmmmmmmagljjbjjbbjjj#jjjjjjjj##jbbbbbj#jjjjjjjjjjjjjjjjjjjjjjjjjjjjjjjjjjlcimmmmmmmmmmmmmmmmmmm",
"mmmmmmmmmmmmacl#jjjjjjjjj###jjjjjj##jbbbbbj##jjjjjjjjjjjjjjjjjjjjjjjjjjjjjjjjjdgammmmmmmmmmmmmmmmmmm",
"mmmmmmmmmmmmicl#jjj##jjjj####jjjjj#h#bbbbbj##jjjjjjjjjjjjjjjjjjjjjjjjjjjjjjjjjdgammmmmmmmmmmmmmmmmmm",
"mmmmmmmmmmmmik.h#j##jjjjjj#d#########jjbbbj#jjjjjjjjjjjjjjjjjjjjjjjjjjjjjjjjjjdgammmmmmmmmmmmmmmmmmm",
"mmmmmmmmmmmmeagdh###jj##jb#lh#########jbbbj#jjjjjjjjjjjjjjjjjjjjjjjjjjjjjjjjjjlcimmmmmmmmmmmmmmmmmmm",
"mmmmmmmmmmmmeighhh#jjjj#jj#ddh########jbbbj#jjjjjjjjjjjjjjjjjjjjjjjjjjjjjjjjjjdcimmmmmmmmmmmmmmmmmmm",
"mmmmmmmmmmmmmechddhjj#jjjj#ddlh###jj#h#bbbj##jjjjjjjjjjjjjjjjjjjjjjjjjjjjjjjjjdcimmmmmmmmmmmmmmmmmmm",
"mmmmmmmmmmmmmmkdddh#jjjjjj##d.d###jj#hjbbbj##jjjjjjjjjjjjjjjjjjjjjjjjjjjjjjjjjlcimmmmmmmmmmmmmmmmmmm",
"mmmmmmmmmmmmmmklddh##jjjjjjjdgl##jj###jfbbj#jjjjjjjjjjjjjjjjjjjjjjjjjjjjjjjjjjlkimmmmmmmmmmmmmmmmmmm",
"mmmmmmmmmmmmmmaglhh##jjjjjjbhgdjjjjj##jbbbj#jjjjjjjjjjjjjjjjjjjjjjjjjjjjjjjjjjlkimmmmmmmmmmmmmmmmmmm",
"mmmmmmmmmmmmmmea.h###jjjjjbbh.djjjjjjjjbbbj#jjjjjjjjjjjjjjjjjjjjjjjjjjjjjjjjjjlkimmmmmmmmmmmmmmmmmmm",
"mmmmmmmmmmmmmmeegh##jjjbbbbf#lhjjjjjjjjbbbj#jjjjjjjjjjjjjjjjjjjjjjjjjjjjjjjjjjlkimmmmmmmmmmmmmmmmmmm",
"mmmmmmmmmmmmmmmmch##jbbbbfff#dhjjjjjjjbbbbj#jjjjjjjjjjjjjjjjjjjjjjjjjjjjjjjjjjlkimmmmmmmmmmmmmmmmmmm",
"mmmmmmmmmmmmmmmmch#jjbbfffffjh#jjjjbjjbbbbj#jjjjjjjjjjjjjjjjjjjjjjjjjjjjjjjjjjlkimmmmmmmmmmmmmmmmmmm",
"mmmmmmmmmmmmmmmmch#jbbf`````j#jjjbbbbjbbbbj#jjjjjjjjjjjjjjjjjjjjjjjjjjjjjjjjjjlaimmmmmmmmmmmmmmmmmmm",
"mmmmmmmmmmmmmmmmchjbbbbff`ffj#jbbbbbbbbbbbj##jjjjjjjjjjjjjjjjjjjjjjjjjjjjjjjjjlaemmmmmmmmmmmmmmmmmmm",
"mmmmmmmmmmmmmmmmg#jbbjbbf`fbj#jbbbbbbbbbbbj##jjjjjjjjjjjjjjjjjjjjjjjjjjjjjjjjjlaemmmmmmmmmmmmmmmmmmm",
"mmmmmmmmmmmmmmmmchjfbbbbfffbjjbbbbbbbbbbbbj##jjjjjjjjjjjjjjjjjjjjjjjjjjjjjjjjjlaemmmmmmmmmmmmmmmmmmm",
"mmmmmmmmmmmmmmmmkdjffbbbbfbjbbbbbbbbbbbbbbj#jjjjjjjjjjjjjjjjjjjjjjjjjjjjjjjjjjlaemmmmmmmmmmmmmmmmmmm",
"mmmmmmmmmmmmmmmmicljjbbbbbbbbbbbbbbbbbbbbbj#jjjjjjjjjjjjjjjjjjjjjjjjjjjjjjjjjjlaemmmmmmmmmmmmmmmmmmm",
"mmmmmmmmmmmmmmmmmecd#bbfbbbbbbbbbbbbbbbbbbj#jjjjjjjjjjjjjjjjjjjjjjjjjjjjjjjjjjlaemmmmmmmmmmmmmmmmmmm",
"mmmmmmmmmmmmmmmmmmik.hjbbbbbbbbbbbbbbbbbbbj#jjjjjjjjjjjjjjjjjjjjjjjjjjjjjjjjjj.aemmmmmmmmmmmmmmmmmmm",
"mmmmmmmmmmmmmmmmmmmmklhbbbbbbbbbbbbbbbbbbbj#jjjjjjjjjjjjjjjjjjjjjjjjjjjjjjjjjj.iemmmmmmmmmmmmmmmmmmm",
"mmmmmmmmmmmmmmmmmmmmik.d#bbbbbbbbbbbbbbbbbj#jjjjjjjjjjjjjjjjjjjjjjjjjjjjjjjjjj.iemmmmmmmmmmmmmmmmmmm",
"mmmmmmmmmmmmmmmmmmmmmmagdbbbbbbbbbbbbbbbbbj#jjjjjjjjjjjjjjjjjjjjjjjjjjjjjjjjjj.iemmmmmmmmmmmmmmmmmmm",
"mmmmmmmmmmmmmmmmmmmmmmeagl#bbbbbbbbbbbbbbbj#jjjjjjjjjjjjjjjjjjjjjjjjjjjjjj#hl.kemmmmmmmmmmmmmmmmmmmm",
"mmmmmmmmmmmmmmmmmmmmmmmmikljbbbbbbbbbfbbbbj#jjjjjjjjjjjjjjjjjjjjjjjjjjjjjjhlciemmmmmmmmmmmmmmmmmmmmm",
"mmmmmmmmmmmmmmmmmmmmmmmmeik.hjbbbbbbbbbbbbj#jjjjjjjjjjjjjjjjjjjjjjjjjjhdlgckieemmmmmmmmmmmmmmmmmmmmm",
"mmmmmmmmmmmmmmmmmmmmmmmmmmei.jjbbbbjbbbbbbj#jjjjjjjjjjjjjjjjjjjjjjjjj#lgaeemmmmmmmmmmmmmmmmmmmmmmmmm",
"mmmmmmmmmmmmmmmmmmmmmmmmmmeekgdjjbbbbbbbbbj#jjjjjjjjjjjjjjjjjjjjj#hl.gkaeemmmmmmmmmmmmmmmmmmmmmmmmmm",
"mmmmmmmmmmmmmmmmmmmmmmmmmmmmeeg#jbbbffbbbbj##jjjjjjjjjjjjjjjjjjj#d.kimmmmmmmmmmmmmmmmmmmmmmmmmmmmmmm",
"mmmmmmmmmmmmmmmmmmmmmmmmmmmmmeagl#jbbbbbbbj##jjjjjjjjjjjjjjj#hd.gkaiemmmmmmmmmmmmmmmmmmmmmmmmmmmmmmm",
"mmmmmmmmmmmmmmmmmmmmmmmmmmmmmmmekd#bbbbbbfj##jjjjjjjjjjjjbjjhlciemmmmmmmmmmmmmmmmmmmmmmmmmmmmmmmmmmm",
"mmmmmmmmmmmmmmmmmmmmmmmmmmmmmmmmik.hjbbbbbj#jjjjjjjjjjjj#hl.ckieemmmmmmmmmmmmmmmmmmmmmmmmmmmmmmmmmmm",
"mmmmmmmmmmmmmmmmmmmmmmmmmmmmmmmmmma.hfbbbbj#jjjjjjjjjjj#dgkeemmmmmmmmmmmmmmmmmmmmmmmmmmmmmmmmmmmmmmm",
"mmmmmmmmmmmmmmmmmmmmmmmmmmmmmmmmmmik.d#bbbj#jjjjjjj#hl.gkaieemmmmmmmmmmmmmmmmmmmmmmmmmmmmmmmmmmmmmmm",
"mmmmmmmmmmmmmmmmmmmmmmmmmmmmmmmmmmmmacdfbbj#jjjjjj#hlcammmmmmmmmmmmmmmmmmmmmmmmmmmmmmmmmmmmmmmmmmmmm",
"mmmmmmmmmmmmmmmmmmmmmmmmmmmmmmmmmmmmeigd#jj#jj#hdlgckiemmmmmmmmmmmmmmmmmmmmmmmmmmmmmmmmmmmmmmmmmmmmm",
"mmmmmmmmmmmmmmmmmmmmmmmmmmmmmmmmmmmmmmiklj#h#j#lgaemmmmmmmmmmmmmmmmmmmmmmmmmmmmmmmmmmmmmmmmmmmmmmmmm",
"mmmmmmmmmmmmmmmmmmmmmmmmmmmmmmmmmmmmmmeik..l..gkaeemmmmmmmmmmmmmmmmmmmmmmmmmmmmmmmmmmmmmmmmmmmmmmmmm",
"mmmmmmmmmmmmmmmmmmmmmmmmmmmmmmmmmmmmmmmmeikgaeemmmmmmmmmmmmmmmmmmmmmmmmmmmmmmmmmmmmmmmmmmmmmmmmmmmmm",
"mmmmmmmmmmmmmmmmmmmmmmmmmmmmmmmmmmmmmmmmeeiaeemmmmmmmmmmmmmmmmmmmmmmmmmmmmmmmmmmmmmmmmmmmmmmmmmmmmmm",
"mmmmmmmmmmmmmmmmmmmmmmmmmmmmmmmmmmmmmmmmmmmmmmmmmmmmmmmmmmmmmmmmmmmmmmmmmmmmmmmmmmmmmmmmmmmmmmmmmmmm",
"mmmmmmmmmmmmmmmmmmmmmmmmmmmmmmmmmmmmmmmmmmmmmmmmmmmmmmmmmmmmmmmmmmmmmmmmmmmmmmmmmmmmmmmmmmmmmmmmmmmm",
"mmmmmmmmmmmmmmmmmmmmmmmmmmmmmmmmmmmmmmmmmmmmmmmmmmmmmmmmmmmmmmmmmmmmmmmmmmmmmmmmmmmmmmmmmmmmmmmmmmmm",
"mmmmmmmmmmmmmmmmmmmmmmmmmmmmmmmmmmmmmmmmmmmmmmmmmmmmmmmmmmmmmmmmmmmmmmmmmmmmmmmmmmmmmmmmmmmmmmmmmmmm",
"mmmmmmmmmmmmmmmmmmmmmmmmmmmmmmmmmmmmmmmmmmmmmmmmmmmmmmmmmmmmmmmmmmmmmmmmmmmmmmmmmmmmmmmmmmmmmmmmmmmm"
};
