/* XPM */
static char *DVY_Stairs[] = {
/* width height ncolors chars_per_pixel */
"32 32 145 2",
/* colors */
"AA c #FFFFFFFFFFFF",
"BA c #FFFFF7F7CECE",
"CA c #FFFFEFEFB5B5",
"DA c #F7F7DEDE8484",
"EA c #F7F7DEDE7373",
"FA c #F7F7DEDE6363",
"GA c #EFEFFFFFFFFF",
"HA c #EFEFE7E7F7F7",
"IA c #EFEFDEDE9C9C",
"JA c #EFEFC6C63131",
"KA c #E7E7D6D6EFEF",
"LA c #DEDED6D6E7E7",
"MA c #DEDEC6C6E7E7",
"NA c #DEDEB5B52121",
"OA c #D6D6ADAD7B7B",
"PA c #CECEC6C6D6D6",
"AB c #CECEADADDEDE",
"BB c #CECEADAD2929",
"CB c #CECEADAD1818",
"DB c #CECEA5A57373",
"EB c #C6C6CECE7373",
"FB c #BDBDF7F7F7F7",
"GB c #BDBDA5A55A5A",
"HB c #BDBDA5A53939",
"IB c #BDBD9C9C1818",
"JB c #BDBD9494D6D6",
"KB c #BDBD8C8C3939",
"LB c #B5B5ADADB5B5",
"MB c #ADADEFEFF7F7",
"NB c #ADADDEDEF7F7",
"OB c #ADAD73736363",
"PB c #A5A5EFEFEFEF",
"AC c #A5A5DEDEEFEF",
"BC c #A5A57373C6C6",
"CC c #A5A56B6B6B6B",
"DC c #9C9CDEDEDEDE",
"EC c #9C9CD6D6E7E7",
"FC c #9C9C84841818",
"GC c #9C9C7B7B3939",
"HC c #9494CECEDEDE",
"IC c #9494C6C6CECE",
"JC c #9494BDBDD6D6",
"KC c #949494949494",
"LC c #94947B7B1010",
"MC c #94947B7B0808",
"NC c #94945A5ABDBD",
"OC c #8C8CCECECECE",
"PC c #8C8CC6C6D6D6",
"AD c #8C8CBDBDCECE",
"BD c #8C8CBDBDBDBD",
"CD c #8C8C73733131",
"DD c #8C8C73731818",
"ED c #8484C6C6BDBD",
"FD c #8484ADADC6C6",
"GD c #8484A5A5BDBD",
"HD c #84846B6B1010",
"ID c #7B7BB5B5BDBD",
"JD c #7B7BADADBDBD",
"KD c #7B7BA5A5ADAD",
"LD c #7B7B9C9CB5B5",
"MD c #7B7B9C9CADAD",
"ND c #7B7B63630808",
"OD c #737363634242",
"PD c #73732121A5A5",
"AE c #6B6B9494A5A5",
"BE c #6B6B94949C9C",
"CE c #6B6B8C8C9C9C",
"DE c #6B6B73734242",
"EE c #6B6B52527373",
"FE c #6B6B18188C8C",
"GE c #6B6B10109C9C",
"HE c #636384848C8C",
"IE c #63637B7B8C8C",
"JE c #636373735A5A",
"KE c #63634A4A7373",
"LE c #636308089C9C",
"ME c #5A5A8C8C8C8C",
"NE c #5A5A7B7B8C8C",
"OE c #5A5A6B6B7B7B",
"PE c #5A5A6B6B6B6B",
"AF c #5A5A63634A4A",
"BF c #5A5A4A4A6B6B",
"CF c #5A5A39396B6B",
"DF c #5A5A10108C8C",
"EF c #5A5A08089494",
"FF c #5A5A08088C8C",
"GF c #525229296B6B",
"HF c #525210107B7B",
"IF c #4A4A84847B7B",
"JF c #4A4A7B7B7B7B",
"KF c #4A4A6B6B7373",
"LF c #4A4A6B6B6B6B",
"MF c #4A4A5A5A6B6B",
"NF c #4A4A52527373",
"OF c #4A4A42424242",
"PF c #4A4A42421818",
"AG c #4A4A21216B6B",
"BG c #4A4A18187B7B",
"CG c #4A4A18186B6B",
"DG c #42424A4A6363",
"EG c #424239391818",
"FG c #424231317373",
"GG c #424210105A5A",
"HG c #393963636363",
"IG c #39395A5A6363",
"JG c #393952525A5A",
"KG c #39394A4A5A5A",
"LG c #393939395252",
"MG c #393931314242",
"NG c #393921214A4A",
"OG c #393918184A4A",
"PG c #393910105252",
"AH c #31314A4A4A4A",
"BH c #313129293939",
"CH c #313129292121",
"DH c #313129291818",
"EH c #313129290808",
"FH c #29295A5A4A4A",
"GH c #29294A4A5252",
"HH c #29294A4A4A4A",
"IH c #292939394A4A",
"JH c #292929294A4A",
"KH c #292929293131",
"LH c #292921212929",
"MH c #292921211010",
"NH c #292921210808",
"OH c #292918183939",
"PH c #292918182929",
"AI c #21214A4A3939",
"BI c #212139393939",
"CI c #212110101818",
"DI c #181842423939",
"EI c #181831313131",
"FI c #181829293131",
"GI c #181829292929",
"HI c #181810102929",
"II c #181808081818",
"JI c #101018181818",
"KI c #101000000808",
"LI c #080829292121",
"MI c #080818182121",
"NI c #080818181818",
"OI c #080800001818",
"PI c #000010100808",
"AJ c #000000000000",
/* pixels */
"LHLHLHLHLHLHLHGIPHLHLHLHLHLHLHLHLHLHLHLHLHLHLHLHLHLHGIPHLHLHLHLH",
"LHPHGILHPHGILHPHKHMFLIOIAJOIHIKHKHMGKHMGMGGILHLHLHLHEGNDIBDDLHLH",
"KHLHPHLHKHPHKHLHBFOCHCDCECDCOCJDBENELFJGEIFINIAJAJCHNDNAFAEACDKH",
"OHKHOGKHOHBHOHOHPEKDCEHECECEMDADPCDCECECACPBECMBMBAFMCJACABAGBOH",
"OGOHLHOGOHOGLHOGKEIDHCHCHCICADMDMDAEKDJDJDFDADADFDJENDNAEADACDKH",
"OGKHOGOGBHOGDGIHAJAJAJAJIHMFMDDCACPBACHCICICADOCMDEDPFDDCBHBOFOG",
"OGOGOGOHOGNGNGEDJDBDCEJGJIAJAJAJAJAJIHHEICACPBACAEACOHKHHAOEOGOG",
"OGOGNGPGOGOGOGMENENECEADHCHCHCADCEIGGIAJAJAJAJNGICDCKHOHGAEEPGOG",
"PGPGPGAGOGPGGGKDBEMDMENEIEHECEKDADACACMBFBMDFDPBJDADOHLHGAKEPGPG",
"GGAGBGOFAGLGPINIKGKFBEGDGDIDMDAECEHEMDMDGDFDDCGDMDOCLHHIGAKEPGCG",
"CGPGCGBGIFJFLFGHNINIAJGIJGNEMDADADADJDKDJDCEADJDGDIDOGLHGACFCGCG",
"CGBGCGAGLFKFIENEMDNEKFMGLIAJNIGIJGIEGDHCACJDGDJDBDCELHKHGACFCGCG",
"BGCGHFCGKGNELFKFKFNEAEAEMDCELFIHGINIGIGINIIEHCMDADMFKHLGAAAGBGCG",
"CGFFHFAGGIAJGIMFNENEOENEMEAEMDJDMDCEIGMGGDHCJDMDDCLGKHLGGAGFCGFF",
"FFHFDGLFMFHHGIAJPIBIOEMENENENEHEBEJDMDECDCGDKDMDOCJHBHOFAACGFFHF",
"HFDFAGJGJGMFOEJFAHLHAJNIMGNEBECEHEHENEADADBDGDAEOCOHKHNFHAGFHFFF",
"FFDFFHJGIGJGJGMFOEJFJFAHGIAJJIJGCEMDMEGDICMDJDMDBDHIKHOEAACGFFFF",
"GEOFEIIHKGHGMFLFJGNFPENENENEAHGIAJGIKGADADJDMDKDADPHPHOEAACGEFFF",
"MEKFNIPIGIBIJGMFKFLFLFMFLFOECEHELFGIOEHCJDKDMDAEADJIEGDDBBGCFEEF",
"CEBENEMFMGAJNIEIJGMFKFKFKFKFKFKFOEACDCGDMDJDAEKDKDCINDBBFAEACCLE",
"NIGHMDBEMENEMFGIAJMIAHKFOEOENEGHACADGDIDKDMDBEJDIDEHMCJACABADBEF",
"BIGIOIKGMDKDMEHECEJGOIAJFIHGNEJGGDJCBDKDGDBEIDDCKIMHNDBBFADACCEF",
"LIBIHHGIHIIGGDGDHEBEKDNEBIAJJIBIICOCJDLDBEPBCEAJIIPEDELCBBGCFELE",
"EFCFEIHHHHFINIMFIDBDBECEKDGDLFOIFDJCMDKDFBJHIIIIJDJCKCKAPDLELELE",
"EFEFEFJHAIAHKGGIGINEADADMDBEBEGDOCMDBDMBAJPHOIACCELBMAGEEFLELEEF",
"LEEFLELEEFIHHHJGKGHININEHCHEGDHCMDDCMBAJPHHIFBEEPAABLEEFEFLEEFLE",
"LELEEFLELEFFDFDIFHJGMFGIAJMBPCMDMBAEAJPHMGFBKGLAJBEFEFLELEGEEFLE",
"LEEFLEEFLEEFGELEAGJGAHJGFIECADFBMGEGHDIBEBOFHABCEFEFLEEFLEEFLEEF",
"EFLELELEFFLEEFLELEEFFGJGNINBFBAJDHNDBBFAEAIANCEFLELELELEEFLELELE",
"LELEFFGELELEEFGEEFLELEEFLGFBAJHINHDDNACABAOAEFLEEFLEEFEFGEEFLEEF",
"EFLEEFEFLEEFLEEFLEGEEFEFEFLEJHFBJENDNAEADAOBEFLELEEFLELEEFLEGEEF",
"LEEFLELEEFGELEEFLEEFEFLELEEFFEFFNEODFCCBKBFELELEEFLEEFGEEFLEFFLE"};
