/* XPM */
static char *DVY_Pulleys_xpm[] = {
/* width height num_colors chars_per_pixel */
"    32    32       16            1",
/* colors */
"` c #000000",
". c #778097",
"# c #40485e",
"a c #b9bbc0",
"b c #5f6779",
"c c #919cb1",
"d c #858692",
"e c #707079",
"f c #4c4544",
"g c #2f3341",
"h c #dfe5e9",
"i c #a3a6ad",
"j c #545663",
"k c #cccecc",
"l c #17181a",
"m c #8c92a1",
/* pixels */
"kkkkkkkkkkkkkkkkkkkkkkkkkkkkkkkk",
"kkkkkkkkkkkkkkkkkkkkkkkkkkkkkkkk",
"kkkkkkkkkkkkkkkicmikkkkkkkkkkkkk",
"kkkkkkkkkkkkkdbbbjjjmkkkkkkkkkkk",
"kkkkkkkkkkkc..bjjdj#j.kkkkkkkkkk",
"kkkkkkkkkkc.eb.efgbefjmaikkkkkkk",
"kkkkkkkkkaeejf#bebgjjbeebbikkkkk",
"kkkkkkkkaebeeejfjeb#jbeee..ckkkk",
"kkkkkkka.ejbbjejbj#jbbjbe...akkk",
"kkkkkkkdedmedmfdjjj#gg#fje..ckkk",
"kkkkkkmbbciimeibjbfb#lllge..ckkk",
"kkkkkiebiejimi.bjjccjgggge..ckkk",
"kkkkkdedjmdfmcdbjbb##b#gggj.ckkk",
"kkkkabbeejddckc.bjg``g#gjbjjikkk",
"kkkkmebjjebdahaccj#gg#bc....ckkk",
"kkkk.e.bjjjccikhkejimecd....mkkk",
"kkkk.ebbbjd.ddekhaeek..d...dmkkk",
"kkkkm.j.eedebbee.ahai..m..ddmkkk",
"kkkkmdemdee.jj##jemhm.djljddmkkk",
"kkkkmmeec..dbdg#bjidmcjlgjdmikkk",
"kkkkicb.e....ib#jjdddd`ef.dmkkkk",
"kkkkam.dd.m.dm..bj.dmjlgmcdakkkk",
"kkkkkcm.cdmdddemmmmmc#l#.mckkkkk",
"kkkkkkmmdmcm.mbdiiccm.jmmmakkkkk",
"kkkkkkkacmmc.ce.ciccmmmmcakkkkkk",
"kkkkkkkkkcmccmmmmiccmmmcakkkkkkk",
"kkkkkkkkkamcciccccccmmckkkkkkkkk",
"kkkkkkkkkkimcccccciaaakkkkkkkkkk",
"kkkkkkkkkkkacmciikkkkkkkkkkkkkkk",
"kkkkkkkkkkkkkkkkkkkkkkkkkkkkkkkk",
"kkkkkkkkkkkkkkkkkkkkkkkkkkkkkkkk",
"kkkkkkkkkkkkkkkkkkkkkkkkkkkkkkkk"
};
