/* XPM */
static char *HexagonWashered_xpm[] = {
/* width height num_colors chars_per_pixel */
"    42    32       16            1",
/* colors */
"` c #202729",
". c #7e939e",
"# c #c8cfc8",
"a c #4e5f64",
"b c #aab1b1",
"c c #607987",
"d c #98a8b4",
"e c #37454b",
"f c #ffffff",
"g c #b2bec3",
"h c #768185",
"i c #d8dbd2",
"j c #60696a",
"k c #464f55",
"l c #929a9b",
"m c #bfc3bd",
/* pixels */
"ffffffffffffffffffffffffffffffffffffffffff",
"ffffffffffffffffffffffffffffffffffffffffff",
"ffffffffffffffffffffffffffffffffffffffffff",
"fffffffffffffffffiii##m#ifffffffffffffffff",
"fffffffffffi#imddldllhhlheealiffffffffffff",
"fffffffffiiiigckkhllgm#i#gblj`kmifffffffff",
"ffffffffiib.hll...dbgg#ggdblhccj##ffffffff",
"fffffff#ihac..hc.ldb#m#i#mg.hhcchiifffffff",
"ffffffigmac.g#blcddbddlcccjhchhabi#iffffff",
"ffffffbaah.i#dcahekccjahdd.caal#iiiiffffff",
"ffffff.kkkkj..lll..ggdhlggbb#gmmiiiiffffff",
"fffffiaea.llcaajhgiiiimgbdh.clg###iiffffff",
"fffff#kjaachlbbdldldlhcjackkekbm##iiffffff",
"fffffmajaajjjajmm.lh.k`e``e````h##iiffffff",
"fffffbkaaakkaaaj#dca``````e`````miiiffffff",
"ffffflakkjjaakkklgae````````````.i#iifffff",
"ffffihkkeajkkkeal#c``````e`````eei###iffff",
"fffiijaakkakekeka#a``````````````lgmiiiiff",
"ffmiicjaeeeekakekle``````````````hmiiii#ff",
"fim#icchee`eee`kk.```````````````c#ii#i#ff",
"ffl#icjc..jkkeeeac```````````````ji##imiff",
"ffmhmhaeejhdd..hjje`````eeeeejkj.g#m#m#iff",
"ffigaj..hjkeekac.ge`eeajhlhbb.dhcl#####fff",
"fff#leeehl..hae``hldgg.hajjkejjb######ffff",
"ffff#h`kaldbmgmblhhhhakkajjkhlmm###mifffff",
"fffffileealgbbbbdhhjk``````ejdm#m#ifffffff",
"ffffffffbhjkjk````````````kjbb#iffffffffff",
"ffffffffffffimmhhjhhcjjjlbbb.fffffffffffff",
"fffffffffffffff#mbmgbbbm##iimfffffffffffff",
"ffffffffffffffffffffffffffffffffffffffffff",
"ffffffffffffffffffffffffffffffffffffffffff",
"ffffffffffffffffffffffffffffffffffffffffff"
};
