/* XPM */
static char *DVY_Brick_1x3_xpm[] = {
/* width height num_colors chars_per_pixel */
"   100   100       16            1",
/* colors */
"` c #760000",
". c #c98f8e",
"# c #9e4d4d",
"a c #b80000",
"b c #ffd1cf",
"c c #8f2d2e",
"d c #b43334",
"e c #970000",
"f c #bd5152",
"g c #d6aaa8",
"h c #c47071",
"i c #ffffff",
"j c #a46361",
"k c #e22b30",
"l c #e49293",
"m c #ffb2b2",
/* pixels */
"iiiiiiiiiiiiiiiiiiiiiiiiiiiiiiiiiiiiiiiiiiiiiiiiiiiiiiiiiiiiiiiiiiiiiiiiiiiiiiiiiiiiiiiiiiiiiiiiiiii",
"iiiiiiiiiiiiiiiiiiiiiiiiiiiiiiiiiiiiiiiiiiiiiiiiiiiiiiiiiiiiiiiiiiiiiiiiiiiiiiiiiiiiiiiiiiiiiiiiiiii",
"iiiiiiiiiiiiiiiiiiiiiiiiiiiiiiiiiiiiiiiiiiiiiiiiiiiiiiiiiiiiiiiiiiiiiiiiiiiiiiiiiiiiiiiiiiiiiiiiiiii",
"iiiiiiiiiiiiiiiiiiiiiiiiiiiiiiiiiiiiiiiiiiiiiiiiiiiiiiiiiiiiiiiiiiiiiiiiiiiiiiiiiiiiiiiiiiiiiiiiiiii",
"iiiiiiiiiiiiiiiiiiiiiiiiiiiiiiiiiiiiiiiiiiiiiiiiiiiiiiiiiiiiiiiiiiiiiiiiiiiiiiiiiiiiiiiiiiiiiiiiiiii",
"iiiiiiiiiiiiiiiiiiiiiiiiiiiiiiiiiiiiiiiiiiiiiiiiiiiiiiiiiiiiiiiiiiiiiiiiiiiiiiiiiiiiiiiiiiiiiiiiiiii",
"iiiiiiiiiiiiiiiiiiiiiiiiiiiiiiiiiiiiiiiiiiiiiiiiiiiiiiiiiiiiiiiiiiiiiiiiiiiiiiiiiiiiiiiiiiiiiiiiiiii",
"iiiiiiiiiiiiiiiiiiiiiiiiiiiiiiiiiiiiiiiiiiiiiiiiiiiiiiiiiiiiiiiiiiiiiiiiiiiiiiiiiiiiiiiiiiiiiiiiiiii",
"iiiiiiiiiiiiiiiiiiiiiiiiiiiiiiiiiiiiiiiiiiiiiiiiiiiiiiiiiiiiiiiiiiiiiiiiiiiiiiiiiiiiiiiiiiiiiiiiiiii",
"iiiiiiiiiiiiiiiiiiiiiiiiiiiiiiiiiiiiiiiiiiiiiiiiiiiiiiiiiiiiiiiiiiiiiiiiiiiiiiiiiiiiiiiiiiiiiiiiiiii",
"iiiiiiiiiiiiiiiiiiiiiiiiiiiiiiiiiiiiiiiiiiiiiiiiiiiiiiiiiiiiiiiiiiiiiiiiiiiiiiiiiiiiiiiiiiiiiiiiiiii",
"iiiiiiiiiiiiiiiiiiiiiiiiiiiiiiiiiiiiiiiiiiiiiiiiiiiiiiiiiiiiiiiiiiiiiiiiiiiiiiiiiiiiiiiiiiiiiiiiiiii",
"iiiiiiiiiiiiiiiiiiiiiiiiiiiiiiiiiiiiiiiiiiiiiiiiiiiiiiiiiiiiiiiiiiiiiiiiiiiiiiiiiiiiiiiiiiiiiiiiiiii",
"iiiiiiiiiiiiiiiiiiiiiiiiiiiiiiiiiiiiiiiiiiiiiiiiiiiiiiiiiiiiiiiiiiiiiiiiiiiiiiiiiiiiiiiiiiiiiiiiiiii",
"iiiiiiiiiiiiiiiiiiiiiiiiiiiiiiiiiiiiiiiiiiiiiiiiiiiiiiiiiiiiiiiiiiiiiiiiiiiiiiiiiiiiiiiiiiiiiiiiiiii",
"iiiiiiiiiiiiiiiiiiiiiiiiiiiiiiiiiiiiiiiiiiiiiiiiiiiiiiiiiiiiiiiiiiiiiiiiiiiiiiiiiiiiiiiiiiiiiiiiiiii",
"iiiiiiiiiiiiiiiiiiiiiiiiiiiiiiiiiiiiiiiiiiiiiiiiiiiiiiiiiiiiiiiiiiiiiiiiiiiiiiiiiiiiiiiiiiiiiiiiiiii",
"iiiiiiiiiiiiiiiiiiiiiiiiiiiiiiiiiiiiiiiiiiiiiiiiiiiiiiiiiiiiiiiiiiiiiiiiiiiiiiiiiiiiiiiiiiiiiiiiiiii",
"iiiiiiiiiiiiiiiiiiiiiiiiiiiiiiiiiiiiiiiiiiiiiiiiiiiiiiiiiiiiiiiiiiiiiiiiiiiiiiiiiiiiiiiiiiiiiiiiiiii",
"iiiiiiiiiiiiiiiiiiiiiiiiiiiiiiiiiiiiiiiiiiiiiiiiiiiiiiiiiiiiiiiiiiiiiiiiiiiiiiiiiiiiiiiiiiiiiiiiiiii",
"iiiiiiiiiiiiiiiiiiiiiiiiiiiiiiiiiiiiiiiiiiiiiiiiiiiiiiiiiiiiiiiiibbbggggbiiiiiiiiiiiiiiiiiiiiiiiiiii",
"iiiiiiiiiiiiiiiiiiiiiiiiiiiiiiiiiiiiiiiiiiiiiiiiiiiiiiiiiiiiiiiibbg..jj#.bbiiiiiiiiiiiiiiiiiiiiiiiii",
"iiiiiiiiiiiiiiiiiiiiiiiiiiiiiiiiiiiiiiiiiiiiiiiiiiiiiiiiiiiiiib..hjj##cc#hgbbiiiiiiiiiiiiiiiiiiiiiii",
"iiiiiiiiiiiiiiiiiiiiiiiiiiiiiiiiiiiiiiiiiiiiiiiiiiiiiiiiiiiiib.#c`cccc````jgbiiiiiiiiiiiiiiiiiiiiiii",
"iiiiiiiiiiiiiiiiiiiiiiiiiiiiiiiiiiiiiiiiiiiiiiiiiiiiiiiiiibbgh#cceeeee````cj.gbiiiiiiiiiiiiiiiiiiiii",
"iiiiiiiiiiiiiiiiiiiiiiiiiiiiiiiiiiiiiiiiiiiiiiiiiiiiiiiibbg.#c``eeeeeeee````#.giiiiiiiiiiiiiiiiiiiii",
"iiiiiiiiiiiiiiiiiiiiiiiiiiiiiiiiiiiiiiiiiiiiiiiiiiiibbbg.hj#c```eeeeeeeee```c#hgbiiiiiiiiiiiiiiiiiii",
"iiiiiiiiiiiiiiiiiiiiiiiiiiiiiiiiiiiiiiiiiiiiiiiiiiiibm.jc```````eeeeeeeeee````c#giiiiiiiiiiiiiiiiiii",
"iiiiiiiiiiiiiiiiiiiiiiiiiiiiiiiiiiiiiiiiiiiiiiibbbg.hj#cc`````eeeeeeeeeeeee```ccj.gbiiiiiiiiiiiiiiii",
"iiiiiiiiiiiiiiiiiiiiiiiiiiiiiiiiiiiiiiiiiiiiiibbg.j#c`````````eeaaaeaaaaeeee````cc.bbiiiiiiiiiiiiiii",
"iiiiiiiiiiiiiiiiiiiiiiiiiiiiiiiiiiiiiiiiiibg..hhj#cc`````````eeaaakkkkaaaaee`````c#hgbbiiiiiiiiiiiii",
"iiiiiiiiiiiiiiiiiiiiiiiiiiiiiiiiiiiiiiiiibljc`cc````````````eeeaakkkkkkkaaee```````cjmbiiiiiiiiiiiii",
"iiiiiiiiiiiiiiiiiiiiiiiiiiiiiiiiiiiiiibbg.jcceeeee```````````eeaakkkkkkkaaeee```````#.miiiiiiiiiiiii",
"iiiiiiiiiiiiiiiiiiiiiiiiiiiiiiiiiiiiiibgjcc`eeeeeee``````````eeeakkkkkkkaaeeeeeeeeeedfgiiiiiiiiiiiii",
"iiiiiiiiiiiiiiiiiiiiiiiiiiiiiiiiiibgg.hjcc``eeeeeeeee`````````eeeaaddkaaaeeeeeeeeeeedfgiiiiiiiiiiiii",
"iiiiiiiiiiiiiiiiiiiiiiiiiiiiiiiiibgh#cc``````eeeeeeeeee`````````eeeeeeeeeeeeeeaaaaaedfgiiiiiiiiiiiii",
"iiiiiiiiiiiiiiiiiiiiiiiiiiiiibbg.hj#c``````eeeeeeeeeeee``````````eeeeeeeeeeeaaaaaaaedhgiiiiiiiiiiiii",
"iiiiiiiiiiiiiiiiiiiiiiiiiiiibm.jc````````eeeeeeeeeeeeee``````````````eeeeeaaaaaaaaaedhmiiiiiiiiiiiii",
"iiiiiiiiiiiiiiiiiiiiibbggg..hj#cc````````eeaaaakkkaaeee`````````eeeeeeeeaaaaaaaaaaaedhgiiiiiiiiiiiii",
"iiiiiiiiiiiiiiiiiiiibbghj#ccc````````````eeakkkkkkkaaee````````eeeeeeeaaaaaaaaaaaaaadhgiiiiiiiiiiiii",
"iiiiiiiiiiiiiiiiiiibghj##ccce````````````eeaakkkkkkaaee```````eeeeeeaaaaaaaaaaaaaaaedhgiiiiiiiiiiiii",
"iiiiiiiiiiiiiiiiiibbhcccceeeeee``````````eeaakkkkkkaaee`````eeeeaaaaaaaaaaaaaaaaaaaedhmiiiiiiiiiiiii",
"iiiiiiiiiiiiiibbgg.h#``ceeeeeeeee````````eeeakkkkkaaeeeeeeeeeeeaaaaaaaaaaaaaaaaaaaaedhmiiiiiiiiiiiii",
"iiiiiiiiiiiiiibgh#c``````eeeeeeee`````````eeeaddddaeeeeeeeeeaaaaaaaaaaaaaaaaaaaaaaeeflmiiiiiiiiiiiii",
"iiiiiiiiiibbg.hj#c``````eeeeeeeeee`````````eeeeaeeeeeeeeeeeaaaaaaaaaaaaaaaaaaaaaaaeeflmiiiiiiiiiiiii",
"iiiiiiiiiim.jcc``````eeeeeeeeeeeee````````````eeeeeeeeeaaaaaaaaaaaaaaaaaaaaaaaaaaaeeflmiiiiiiiiiiiii",
"iiiiiiiiib.#cc``````eeeeeaaaaaeeee```````````eeeeeeeeaaaaaaaaaaaaaaaaaaaaaaaaaaaaaeeflmiiiiiiiiiiiii",
"iiiiiiiibbh````````eeeaaakkkaaaaee```````````eeeeaaaaaaaaaaaaaaaaaaaaaaaaaaaaaaaaaeeflmiiiiiiiiiiiii",
"iiiiiiiibbh``e`````eeeaakkkkkaaaeee````````eeeeeaaaaaaaaaaaaaaaaaaaaaaaaaaaaaaaaaaeeflmiiiiiiiiiiiii",
"iiiiiiiibbh`eeeeeeeeeeaakkkkkkaaeee```````eeeaaaaaaaaaaaaaaaaaaaaaaaaaaaaaaaaaaaaaeeflmiiiiiiiiiiiii",
"iiiiiiiibbh`eeeeeeeeeeaakkkkkkaaeeeeeeeeeeeeeaaaaaaaaaaaaaaaaaaaaaaaaaaaaaaaaaaaaaeeflbiiiiiiiiiiiii",
"iiiiiiiibbh`eeeeeeeeeeeddkkkkkaeeeeeeeeeaaaaaaaaaaaaaaaaaaaaaaaaaaaaaaaaaaaaaaaaaeeeflbiiiiiiiiiiiii",
"iiiiiiiibbh`eeeeeeeeeeeeedddaaeeeeeeeeeaaaaaaaaaaaaaaaaaaaaaaaaaaaaaaaaaaaaaaaaaaeecflbiiiiiiiiiiiii",
"iiiiiiiibbh`eeeeeeeeeee`eeeeeeeeeeeaaaaaaaaaaaaaaaaaaaaaaaaaaaaaaaaaaaaaaaaaaaaaeeecflbiiiiiiiiiiiii",
"iiiiiiiibbheeeeeeeeeeeeeeeeeeeeeeaaaaaaaaaaaaaaaaaaaaaaaaaaaaaaaaaaaaaaaaaaaaaaaeeechgbiiiiiiiiiiiii",
"iiiiiiiibbheeeeeeeeeeeeeeeeeeeeaaaaaaaaaaaaaaaaaaaaaaaaaaaaaaaaaaaaaaaaaaaaaaaaaee`cjgbiiiiiiiiiiiii",
"iiiiiiiibbheeeeeeeeeeeeeeeeeeaaaaaaaaaaaaaaaaaaaaaaaaaaaaaaaaaaaaaaaaaaaaaaaaaeecdfhgbbiiiiiiiiiiiii",
"iiiiiiiibbheeeeeeeeeeeeeaaaaaaaaaaaaaaaaaaaaaaaaaaaaaaaaaaaaaaaaaaaaaaaaaaaaeeee#hlmbiiiiiiiiiiiiiii",
"iiiiiiiibbheeeeeeeeeeeeaaaaaaaaaaaaaaaaaaaaaaaaaaaaaaaaaaaaaaaaaaaaaaaaaeeecdffh.gbbbiiiiiiiiiiiiiii",
"iiiiiiiiibheeeeeeeeeeeaaaaaaaaaaaaaaaaaaaaaaaaaaaaaaaaaaaaaaaaaaaaaaaaaaeeccfhgbbiiiiiiiiiiiiiiiiiii",
"iiiiiiiiibheeeeeeeeeeeaaaaaaaaaaaaaaaaaaaaaaaaaaaaaaaaaaaaaaaaaaaaaaaadddfh.gmbiiiiiiiiiiiiiiiiiiiii",
"iiiiiiiiibh`eeeeeeeeeeaaaaaaaaaaaaaaaaaaaaaaaaaaaaaaaaaaaaaaaaaaaaaaeecdhlbbiiiiiiiiiiiiiiiiiiiiiiii",
"iiiiiiiiibheeeeeeeeeeeaaaaaaaaaaaaaaaaaaaaaaaaaaaaaaaaaaaaaaaaaeeecdfhh.gbbiiiiiiiiiiiiiiiiiiiiiiiii",
"iiiiiiiiibheeeeeeeeeeeeaaaaaaaaaaaaaaaaaaaaaaaaaaaaaaaaaaaaaaaeeecdflmbiiiiiiiiiiiiiiiiiiiiiiiiiiiii",
"iiiiiiiiibheeeeeeeeeeeeaaaaaaaaaaaaaaaaaaaaaaaaaaaaaaaaaaaaaaadffh.gmbbiiiiiiiiiiiiiiiiiiiiiiiiiiiii",
"iiiiiiiibbheeeeeeeeeeeeaaaaaaaaaaaaaaaaaaaaaaaaaaaaaaaaaaeeeecfhlbbiiiiiiiiiiiiiiiiiiiiiiiiiiiiiiiii",
"iiiiiiiiibheeeeeeeeeeeaaaaaaaaaaaaaaaaaaaaaaaaaaaaaaaaeeccdfh.lmbbiiiiiiiiiiiiiiiiiiiiiiiiiiiiiiiiii",
"iiiiiiiiibh`eeeaeeeeeeaaaaaaaaaaaaaaaaaaaaaaaaaaaaaaaeeecchlmbiiiiiiiiiiiiiiiiiiiiiiiiiiiiiiiiiiiiii",
"iiiiiiiiibh`eeeeeeeeeeaaaaaaaaaaaaaaaaaaaaaaaaaaaaaeddfhh.gbbiiiiiiiiiiiiiiiiiiiiiiiiiiiiiiiiiiiiiii",
"iiiiiiiiibh``eeeeeeaaeaaaaaaaaaaaaaaaaaaaaaaaaaaeeecdflmbiiiiiiiiiiiiiiiiiiiiiiiiiiiiiiiiiiiiiiiiiii",
"iiiiiiiiiigfceeeeeeeeeaaaaaaaaaaaaaaaaaaaaaaaaeeddfh.gmbbiiiiiiiiiiiiiiiiiiiiiiiiiiiiiiiiiiiiiiiiiii",
"iiiiiiiiiiblf`eeeeeeeeeaaaaaaaaaaaaaaaaaaaaeeecc#hlbbiiiiiiiiiiiiiiiiiiiiiiiiiiiiiiiiiiiiiiiiiiiiiii",
"iiiiiiiiiibb.fdeeeeeeeeaaaaaaaaaaaaaaaaaaeaddfhh.gbbiiiiiiiiiiiiiiiiiiiiiiiiiiiiiiiiiiiiiiiiiiiiiiii",
"iiiiiiiiiiiibmhceeeeeeeaaaaaaaaaaaaaaaaaeecdflmbbiiiiiiiiiiiiiiiiiiiiiiiiiiiiiiiiiiiiiiiiiiiiiiiiiii",
"iiiiiiiiiiiibblhdceeeeeaaaaaaaaaaaaaeecdffh.gmbiiiiiiiiiiiiiiiiiiiiiiiiiiiiiiiiiiiiiiiiiiiiiiiiiiiii",
"iiiiiiiiiiiiiibmhcceeeeaaaaaaaaaaaaeeec#hmbiiiiiiiiiiiiiiiiiiiiiiiiiiiiiiiiiiiiiiiiiiiiiiiiiiiiiiiii",
"iiiiiiiiiiiiiibbgh#ceeeaaaaaaaaaaaddfh.gmbbiiiiiiiiiiiiiiiiiiiiiiiiiiiiiiiiiiiiiiiiiiiiiiiiiiiiiiiii",
"iiiiiiiiiiiiiiiibb.cceeeaaaaeeeeecdhlbbiiiiiiiiiiiiiiiiiiiiiiiiiiiiiiiiiiiiiiiiiiiiiiiiiiiiiiiiiiiii",
"iiiiiiiiiiiiiiiiibg.jcceaaeeccdfhhlgbbbiiiiiiiiiiiiiiiiiiiiiiiiiiiiiiiiiiiiiiiiiiiiiiiiiiiiiiiiiiiii",
"iiiiiiiiiiiiiiiiiiib.#ceeaeeccj.mbbiiiiiiiiiiiiiiiiiiiiiiiiiiiiiiiiiiiiiiiiiiiiiiiiiiiiiiiiiiiiiiiii",
"iiiiiiiiiiiiiiiiiiiibghdddffh.gbbiiiiiiiiiiiiiiiiiiiiiiiiiiiiiiiiiiiiiiiiiiiiiiiiiiiiiiiiiiiiiiiiiii",
"iiiiiiiiiiiiiiiiiiiiiigfffhmbiiiiiiiiiiiiiiiiiiiiiiiiiiiiiiiiiiiiiiiiiiiiiiiiiiiiiiiiiiiiiiiiiiiiiii",
"iiiiiiiiiiiiiiiiiiiiiibgglmbbiiiiiiiiiiiiiiiiiiiiiiiiiiiiiiiiiiiiiiiiiiiiiiiiiiiiiiiiiiiiiiiiiiiiiii",
"iiiiiiiiiiiiiiiiiiiiiiiiiiiiiiiiiiiiiiiiiiiiiiiiiiiiiiiiiiiiiiiiiiiiiiiiiiiiiiiiiiiiiiiiiiiiiiiiiiii",
"iiiiiiiiiiiiiiiiiiiiiiiiiiiiiiiiiiiiiiiiiiiiiiiiiiiiiiiiiiiiiiiiiiiiiiiiiiiiiiiiiiiiiiiiiiiiiiiiiiii",
"iiiiiiiiiiiiiiiiiiiiiiiiiiiiiiiiiiiiiiiiiiiiiiiiiiiiiiiiiiiiiiiiiiiiiiiiiiiiiiiiiiiiiiiiiiiiiiiiiiii",
"iiiiiiiiiiiiiiiiiiiiiiiiiiiiiiiiiiiiiiiiiiiiiiiiiiiiiiiiiiiiiiiiiiiiiiiiiiiiiiiiiiiiiiiiiiiiiiiiiiii",
"iiiiiiiiiiiiiiiiiiiiiiiiiiiiiiiiiiiiiiiiiiiiiiiiiiiiiiiiiiiiiiiiiiiiiiiiiiiiiiiiiiiiiiiiiiiiiiiiiiii",
"iiiiiiiiiiiiiiiiiiiiiiiiiiiiiiiiiiiiiiiiiiiiiiiiiiiiiiiiiiiiiiiiiiiiiiiiiiiiiiiiiiiiiiiiiiiiiiiiiiii",
"iiiiiiiiiiiiiiiiiiiiiiiiiiiiiiiiiiiiiiiiiiiiiiiiiiiiiiiiiiiiiiiiiiiiiiiiiiiiiiiiiiiiiiiiiiiiiiiiiiii",
"iiiiiiiiiiiiiiiiiiiiiiiiiiiiiiiiiiiiiiiiiiiiiiiiiiiiiiiiiiiiiiiiiiiiiiiiiiiiiiiiiiiiiiiiiiiiiiiiiiii",
"iiiiiiiiiiiiiiiiiiiiiiiiiiiiiiiiiiiiiiiiiiiiiiiiiiiiiiiiiiiiiiiiiiiiiiiiiiiiiiiiiiiiiiiiiiiiiiiiiiii",
"iiiiiiiiiiiiiiiiiiiiiiiiiiiiiiiiiiiiiiiiiiiiiiiiiiiiiiiiiiiiiiiiiiiiiiiiiiiiiiiiiiiiiiiiiiiiiiiiiiii",
"iiiiiiiiiiiiiiiiiiiiiiiiiiiiiiiiiiiiiiiiiiiiiiiiiiiiiiiiiiiiiiiiiiiiiiiiiiiiiiiiiiiiiiiiiiiiiiiiiiii",
"iiiiiiiiiiiiiiiiiiiiiiiiiiiiiiiiiiiiiiiiiiiiiiiiiiiiiiiiiiiiiiiiiiiiiiiiiiiiiiiiiiiiiiiiiiiiiiiiiiii",
"iiiiiiiiiiiiiiiiiiiiiiiiiiiiiiiiiiiiiiiiiiiiiiiiiiiiiiiiiiiiiiiiiiiiiiiiiiiiiiiiiiiiiiiiiiiiiiiiiiii",
"iiiiiiiiiiiiiiiiiiiiiiiiiiiiiiiiiiiiiiiiiiiiiiiiiiiiiiiiiiiiiiiiiiiiiiiiiiiiiiiiiiiiiiiiiiiiiiiiiiii",
"iiiiiiiiiiiiiiiiiiiiiiiiiiiiiiiiiiiiiiiiiiiiiiiiiiiiiiiiiiiiiiiiiiiiiiiiiiiiiiiiiiiiiiiiiiiiiiiiiiii",
"iiiiiiiiiiiiiiiiiiiiiiiiiiiiiiiiiiiiiiiiiiiiiiiiiiiiiiiiiiiiiiiiiiiiiiiiiiiiiiiiiiiiiiiiiiiiiiiiiiii",
"iiiiiiiiiiiiiiiiiiiiiiiiiiiiiiiiiiiiiiiiiiiiiiiiiiiiiiiiiiiiiiiiiiiiiiiiiiiiiiiiiiiiiiiiiiiiiiiiiiii"
};
