/* XPM */
static char *DVY_Brick_2x6_xpm[] = {
/* width height num_colors chars_per_pixel */
"   100   100       16            1",
/* colors */
"` c #7c0000",
". c #c5908e",
"# c #a34f50",
"a c #ba0000",
"b c #ffd1cf",
"c c #952e30",
"d c #c42c30",
"e c #c75356",
"f c #9d0000",
"g c #d4aead",
"h c #ae6c6c",
"i c #cb7172",
"j c #ffffff",
"k c #ff8f91",
"l c #ff1927",
"m c #ffb0b1",
/* pixels */
"jjjjjjjjjjjjjjjjjjjjjjjjjjjjjjjjjjjjjjjjjjjjjjjjjjjjjjjjjjjjjjjjjjjjjjjjjjjjjjjjjjjjjjjjjjjjjjjjjjjj",
"jjjjjjjjjjjjjjjjjjjjjjjjjjjjjjjjjjjjjjjjjjjjjjjjjjjjjjjjjjjjjjjjjjjjjjjjjjjjjjjjjjjjjjjjjjjjjjjjjjjj",
"jjjjjjjjjjjjjjjjjjjjjjjjjjjjjjjjjjjjjjjjjjjjjjjjjjjjjjjjjjjjjjjjjjjjjjjjjjjjjjjjjjjjjjjjjjjjjjjjjjjj",
"jjjjjjjjjjjjjjjjjjjjjjjjjjjjjjjjjjjjjjjjjjjjjjjjjjjjjjjjjjjjjjjjjjjjjjjjjjjjjjjjjjjjjjjjjjjjjjjjjjjj",
"jjjjjjjjjjjjjjjjjjjjjjjjjjjjjjjjjjjjjjjjjjjjjjjjjjjjjjjjjjjjjjjjjjjjjjjjjjjjjjjjjjjjjjjjjjjjjjjjjjjj",
"jjjjjjjjjjjjjjjjjjjjjjjjjjjjjjjjjjjjjjjjjjjjjjjjjjjjjjjjjjjjjjjjjjjjjjjjjjjjjjjjjjjjjjjjjjjjjjjjjjjj",
"jjjjjjjjjjjjjjjjjjjjjjjjjjjjjjjjjjjjjjjjjjjjjjjjjjjjjjjjjjjjjjjjjjjjjjjjjjjjjjjjjjjjjjjjjjjjjjjjjjjj",
"jjjjjjjjjjjjjjjjjjjjjjjjjjjjjjjjjjjjjjjjjjjjjjjjjjjjjjjjjjjjjjjjjjjjjjjjjjjjjjjjjjjjjjjjjjjjjjjjjjjj",
"jjjjjjjjjjjjjjjjjjjjjjjjjjjjjjjjjjjjjjjjjjjjjjjjjjjjjjjjjjjjjjjjjjjjjjjjjjjjjjjjjjjjjjjjjjjjjjjjjjjj",
"jjjjjjjjjjjjjjjjjjjjjjjjjjjjjjjjjjjjjjjjjjjjjjjjjjjjjjjjjjjjjjjjjjjjjjjjjjjjjjjjjjjjjjjjjjjjjjjjjjjj",
"jjjjjjjjjjjjjjjjjjjjjjjjjjjjjjjjjjjjjjjjjjjjjjjjjjjjjjjjjjjjjjjjjjjjjjjjjjjjjjjjjjjjjjjjjjjjjjjjjjjj",
"jjjjjjjjjjjjjjjjjjjjjjjjjjjjjjjjjjjjjjjjjjjjjjjjjjjjjjjjjjjjjjjjjjjjjjjjjjjjjjjjjjjjjjjjjjjjjjjjjjjj",
"jjjjjjjjjjjjjjjjjjjjjjjjjjjjjjjjjjjjjjjjjjjjjjjjjjjjjjjjjjjjjjjjjjjjjjjjjjjjjjjjjjjjjjjjjjjjjjjjjjjj",
"jjjjjjjjjjjjjjjjjjjjjjjjjjjjjjjjjjjjjjjjjjjjjjjjjjjjjjjjjjjjjjjjjjjjjjjjjjjjjjjjjjjjjjjjjjjjjjjjjjjj",
"jjjjjjjjjjjjjjjjjjjjjjjjjjjjjjjjjjjjjjjjjjjjjjjjjjjjjjjjjjjjjjjjjjjjjjjjjjjjjjjjjjjjjjjjjjjjjjjjjjjj",
"jjjjjjjjjjjjjjjjjjjjjjjjjjjjjjjjjjjjjjjjjjjjjjjjjjjjjjjjjjjjjjjjjjjjjjjjjjjjjjjjjjjjjjjjjjjjjjjjjjjj",
"jjjjjjjjjjjjjjjjjjjjjjjjjjjjjjjjjjjjjjjjjjjjjjjjjjjjjjjjjjjjjjjjjjjjjjjjjjjjjjjjjjjjjjjjjjjjjjjjjjjj",
"jjjjjjjjjjjjjjjjjjjjjjjjjjjjjjjjjjjjjjjjjjjjjjjjjjjjjjjjjjjjjjjjjjjjjjjjjjjjjjjjjjjjjjjjjjjjjjjjjjjj",
"jjjjjjjjjjjjjjjjjjjjjjjjjjjjjjjjjjjjjjjjjjjjjjjjjjjjjjjjjjjjjjjjjjjjjjjjjjjjjjjjjjjjjjjjjjjjjjjjjjjj",
"jjjjjjjjjjjjjjjjjjjjjjjjjjjjjjjjjjjjjjjjjjjjjjjjjjjjjjjjjjjjjjjjjjjjjjjjjjjjjjjjjjjjjjjjjjjjjjjjjjjj",
"jjjjjjjjjjjjjjjjjjjjjjjjjjjjjjjjjjjjjjjjjjjjjjjjjjjjjjjjjjjjjjjjjjjjjjjjjjjjbbjjjjjjjjjjjjjjjjjjjjjj",
"jjjjjjjjjjjjjjjjjjjjjjjjjjjjjjjjjjjjjjjjjjjjjjjjjjjjjjjjjjjjjjjjjjjjjjjjjjjbbmbjjjjjjjjjjjjjjjjjjjjj",
"jjjjjjjjjjjjjjjjjjjjjjjjjjjjjjjjjjjjjjjjjjjjjjjjjjjjjjjjjjjjjjjjjjjjjjjbbg..hh.gbjjjjjjjjjjjjjjjjjjj",
"jjjjjjjjjjjjjjjjjjjjjjjjjjjjjjjjjjjjjjjjjjjjjjjjjjjjjjjjjjjjjjjjjjjjjjbb.#ccc`#hgjjjjjjjjjjjjjjjjjjj",
"jjjjjjjjjjjjjjjjjjjjjjjjjjjjjjjjjjjjjjjjjjjjjjjjjjjjjjjjjjjjjjjjjjjjbg.h#ccc``cchgbjjjjjjjjjjjjjjjjj",
"jjjjjjjjjjjjjjjjjjjjjjjjjjjjjjjjjjjjjjjjjjjjjjjjjjjjjjjjjjjjjjjjjbbb.#c``ffffff`c#.jjjjjjjjjjjjjjjjj",
"jjjjjjjjjjjjjjjjjjjjjjjjjjjjjjjjjjjjjjjjjjjjjjjjjjjjjjjjjjjjjbbgg.hh#c```fadaaf``c#.gbjjjjjjjjjjjjjj",
"jjjjjjjjjjjjjjjjjjjjjjjjjjjjjjjjjjjjjjjjjjjjjjjjjjjjjjjjjjjjbgg.hcc`````ffddddf````chgbjjjjjjjjjjjjj",
"jjjjjjjjjjjjjjjjjjjjjjjjjjjjjjjjjjjjjjjjjjjjjjjjjjjjjjjjjbbg.h##cc``````ffddddaf```c#h.bbjjjjjjjjjjj",
"jjjjjjjjjjjjjjjjjjjjjjjjjjjjjjjjjjjjjjjjjjjjjjjjjjjjjjjjbbg.#c```fff````ffaddaaf``````#gbjjjjjjjjjjj",
"jjjjjjjjjjjjjjjjjjjjjjjjjjjjjjjjjjjjjjjjjjjjjjjjjjjbbbg..h##cffaaaff`````ffffff````f``c#.gbjjjjjjjjj",
"jjjjjjjjjjjjjjjjjjjjjjjjjjjjjjjjjjjjjjjjjjjjjjjjjjbmg.h#c````fadddaf``````````````ffff``chgjjjjjjjjj",
"jjjjjjjjjjjjjjjjjjjjjjjjjjjjjjjjjjjjjjjjjjjjjjjbgg.hh##cc````falddaf``````````````faafffcch.gjjjjjjj",
"jjjjjjjjjjjjjjjjjjjjjjjjjjjjjjjjjjjjjjjjjjjjjbbb.#ccc`cc````faalllaa``````````````faadaa``c#.bjjjjjj",
"jjjjjjjjjjjjjjjjjjjjjjjjjjjjjjjjjjjjjjjjjjbbgg.h#cc```````````faaaf```````````````fdddaaf``c#.bjjjjj",
"jjjjjjjjjjjjjjjjjjjjjjjjjjjjjjjjjjjjjjjjjbbgi#c```fffff``c``````````````ff````````ddddaafff`c#gjjjjj",
"jjjjjjjjjjjjjjjjjjjjjjjjjjjjjjjjjjjjbbggg.h#cc```faaaaf````````````````ffff```````faaaafffffc#.jjjjj",
"jjjjjjjjjjjjjjjjjjjjjjjjjjjjjjjjjjjjm..i#cc`````ffddddf````c``````````fffaff```````fffffaaafc#.jjjjj",
"jjjjjjjjjjjjjjjjjjjjjjjjjjjjjjjjjbggi###cc``````ffaddda``````````````faaaaaaf````ffffaaaaaaad#gjjjjj",
"jjjjjjjjjjjjjjjjjjjjjjjjjjjjjjjjbg.h#c``ffff`````faddaaf````````````faallllaf```ffffaaaaaaaadhgjjjjj",
"jjjjjjjjjjjjjjjjjjjjjjjjjjbbbbg..h#ccffaaaff`````ffffff````f`````````faadlaaf`fffffaaaaaaaaadhgjjjjj",
"jjjjjjjjjjjjjjjjjjjjjjjjjjbmk.h#c````faaaaaf``````````````ffffff``````faaaaffffaaaaaaaaaaaaadhgjjjjj",
"jjjjjjjjjjjjjjjjjjjjjjjjbg.he#cc`````falddaf``````````````fafffff```````ffffffaaaaaaaaaaaaaachgjjjjj",
"jjjjjjjjjjjjjjjjjjjjjbbjgh#cc```````faalllda``````````````faaaaaf`````````ffaaaaaaaaaaaaaaaachgjjjjj",
"jjjjjjjjjjjjjjjjjjbbg..h#cc`ff```````ffaaaf```````````````fdddaaf``````fffaaaaaaaaaaaaaaaaaadhgjjjjj",
"jjjjjjjjjjjjjjjjjjbmidc```fffaff````````````````ff````````ddddafff``fcaaaaaaaaaaaaaaaaaaaaaadhgjjjjj",
"jjjjjjjjjjjjbbgg..h#cc````faddaf```````````````ffff```````faaaaffffffcaaaaaaaaaaaaaaaaaaaaaadigjjjjj",
"jjjjjjjjjjjjbg.h#c```````faddddaf``````````````ffaff```````fffffaaafadaaaaaaaaaaaaaaaaaaaaaf#igjjjjj",
"jjjjjjjjjjbg.h#cc`````````fdddaff````````````faaaaaaf````ffffaaaaaaaaaaaaaaaaaaaaaaaaaaaadd#.gbjjjjj",
"jjjjjjjjbbgh#c````````````faaafff`fff```````ffallllaf``fffffaaaaaaaaaaaaaaaaaaaaaaaaaaaaddi.gjjjjjjj",
"jjjjjjjbgh#cc`ffffff```````ffff````fff```````faaalaaf`ffffaaaaaaaaaaaaaaaaaaaaaaaaafdceeiigbbjjjjjjj",
"jjjjjjbgh````ffaddaaf``````````````fffff``````faaaaffffaaaaaaaaaaaaaaaaaaaaaaaaaafffchikmbbjjjjjjjjj",
"jjjjjjbgh```ffaadddaf`````````````fffaaaf```````ffffffaaaaaaaaaaaaaaaaaaaaaaaaaaddei.ggbbbjjjjjjjjjj",
"jjjjjjbgeffffaaalldaf`````````````faddaaf`````````fffaaaaaaaaaaaaaaaaaaaaaaaadaadekbbjjjjjjjjjjjjjjj",
"jjjjjjbgeffffffaaaff``````````````fddddaf``````ffffaaaaaaaaaaaaaaaaaaaaaaafcceiikmbjjjjjjjjjjjjjjjjj",
"jjjjjjbgefffff`````````ffff```````fddddaafffffaaaaaaaaaaaaaaaaaaaaaaaaaaaacch.gjjjjjjjjjjjjjjjjjjjjj",
"jjjjjjbgefffff`````````fffff```````fadaaaffffaaaaaaaaaaaaaaaaaaaaaaaaaaddeehggbjjjjjjjjjjjjjjjjjjjjj",
"jjjjjjbgeffffff```````ffffff````````fffaaaaaaaaaaaaaaaaaaaaaaaaaaaaaaaddekmbbjjjjjjjjjjjjjjjjjjjjjjj",
"jjjjjjbgeffffffff````ffaadaaf``````fffaaaaaaaaaaaaaaaaaaaaaaaaaaadcc#i..mbbbjjjjjjjjjjjjjjjjjjjjjjjj",
"jjjjjjbgeffaaaaffff`ffaddldaf````fffaaaaaaaaaaaaaaaaaaaaaaaaaaaadd#h.gbjjjjjjjjjjjjjjjjjjjjjjjjjjjjj",
"jjjjjjbgeffffaffffffffaadddaf``ffffaaaaaaaaaaaaaaaaaaaaaaaafdcddei.gbbjjjjjjjjjjjjjjjjjjjjjjjjjjjjjj",
"jjjjjjbgefffffffffffffffadaaffffaaaaaaaaaaaaaaaaaaaaaaaaaaffc#eikmbjjjjjjjjjjjjjjjjjjjjjjjjjjjjjjjjj",
"jjjjjjbmeffffffffffffffffaaaffaaaaaaaaaaaaaaaaaaaaaaaaaaddeeiggmbbbjjjjjjjjjjjjjjjjjjjjjjjjjjjjjjjjj",
"jjjjjjbmefffffffffffff```fffaaaaaaaaaaaaaaaaaaaaaaaaaaaadeigbjjjjjjjjjjjjjjjjjjjjjjjjjjjjjjjjjjjjjjj",
"jjjjjjbb.cc`ffffffffffffffaaaaaaaaaaaaaaaaaaaaaaaafcc#eiikmbbjjjjjjjjjjjjjjjjjjjjjjjjjjjjjjjjjjjjjjj",
"jjjjjjjjghc`fffaffffffffaaaaaaaaaaaaaaaaaaaaaaaaffcc#hgbbbbjjjjjjjjjjjjjjjjjjjjjjjjjjjjjjjjjjjjjjjjj",
"jjjjjjjjbgi#cffffffffffaaaaaaaaaaaaaaaaaaaaaaaadddeh.gbbbbjjjjjjjjjjjjjjjjjjjjjjjjjjjjjjjjjjjjjjjjjj",
"jjjjjjjjjjmkeffffffffffaaaaaaaaaaaaaaaaaaaaaaaddeikgbjjjjjjjjjjjjjjjjjjjjjjjjjjjjjjjjjjjjjjjjjjjjjjj",
"jjjjjjjjjjbb.hcffffaffaaaaaaaaaaaaaaaaaaaadc#ii.kmbbbjjjjjjjjjjjjjjjjjjjjjjjjjjjjjjjjjjjjjjjjjjjjjjj",
"jjjjjjjjjjjjbghfffaaaaaaaaaaaaaaaaaaaaaaad#h.gbjjjjjjjjjjjjjjjjjjjjjjjjjjjjjjjjjjjjjjjjjjjjjjjjjjjjj",
"jjjjjjjjjjjjjb.ecfffffaaaaaaaaaaaaaaaadeei.ggbjjjjjjjjjjjjjjjjjjjjjjjjjjjjjjjjjjjjjjjjjjjjjjjjjjjjjj",
"jjjjjjjjjjjjjjbmicffffaaaaaaaaaaaffffce.mmbjjjjjjjjjjjjjjjjjjjjjjjjjjjjjjjjjjjjjjjjjjjjjjjjjjjjjjjjj",
"jjjjjjjjjjjjjjjbg.#fffaaaaaaaaaaadd#i.gbbbjjjjjjjjjjjjjjjjjjjjjjjjjjjjjjjjjjjjjjjjjjjjjjjjjjjjjjjjjj",
"jjjjjjjjjjjjjjjjjbicffaaaaaaaaaaddiggbjjjjjjjjjjjjjjjjjjjjjjjjjjjjjjjjjjjjjjjjjjjjjjjjjjjjjjjjjjjjjj",
"jjjjjjjjjjjjjjjjjjg.#cffaaaaadeii.gbbjjjjjjjjjjjjjjjjjjjjjjjjjjjjjjjjjjjjjjjjjjjjjjjjjjjjjjjjjjjjjjj",
"jjjjjjjjjjjjjjjjjjjj.ccfffffc#.bbbjjjjjjjjjjjjjjjjjjjjjjjjjjjjjjjjjjjjjjjjjjjjjjjjjjjjjjjjjjjjjjjjjj",
"jjjjjjjjjjjjjjjjjjjjb.hcddei.ggbbjjjjjjjjjjjjjjjjjjjjjjjjjjjjjjjjjjjjjjjjjjjjjjjjjjjjjjjjjjjjjjjjjjj",
"jjjjjjjjjjjjjjjjjjjjjjgeeekmbjjjjjjjjjjjjjjjjjjjjjjjjjjjjjjjjjjjjjjjjjjjjjjjjjjjjjjjjjjjjjjjjjjjjjjj",
"jjjjjjjjjjjjjjjjjjjjjjbggmmbjjjjjjjjjjjjjjjjjjjjjjjjjjjjjjjjjjjjjjjjjjjjjjjjjjjjjjjjjjjjjjjjjjjjjjjj",
"jjjjjjjjjjjjjjjjjjjjjjjjjjjjjjjjjjjjjjjjjjjjjjjjjjjjjjjjjjjjjjjjjjjjjjjjjjjjjjjjjjjjjjjjjjjjjjjjjjjj",
"jjjjjjjjjjjjjjjjjjjjjjjjjjjjjjjjjjjjjjjjjjjjjjjjjjjjjjjjjjjjjjjjjjjjjjjjjjjjjjjjjjjjjjjjjjjjjjjjjjjj",
"jjjjjjjjjjjjjjjjjjjjjjjjjjjjjjjjjjjjjjjjjjjjjjjjjjjjjjjjjjjjjjjjjjjjjjjjjjjjjjjjjjjjjjjjjjjjjjjjjjjj",
"jjjjjjjjjjjjjjjjjjjjjjjjjjjjjjjjjjjjjjjjjjjjjjjjjjjjjjjjjjjjjjjjjjjjjjjjjjjjjjjjjjjjjjjjjjjjjjjjjjjj",
"jjjjjjjjjjjjjjjjjjjjjjjjjjjjjjjjjjjjjjjjjjjjjjjjjjjjjjjjjjjjjjjjjjjjjjjjjjjjjjjjjjjjjjjjjjjjjjjjjjjj",
"jjjjjjjjjjjjjjjjjjjjjjjjjjjjjjjjjjjjjjjjjjjjjjjjjjjjjjjjjjjjjjjjjjjjjjjjjjjjjjjjjjjjjjjjjjjjjjjjjjjj",
"jjjjjjjjjjjjjjjjjjjjjjjjjjjjjjjjjjjjjjjjjjjjjjjjjjjjjjjjjjjjjjjjjjjjjjjjjjjjjjjjjjjjjjjjjjjjjjjjjjjj",
"jjjjjjjjjjjjjjjjjjjjjjjjjjjjjjjjjjjjjjjjjjjjjjjjjjjjjjjjjjjjjjjjjjjjjjjjjjjjjjjjjjjjjjjjjjjjjjjjjjjj",
"jjjjjjjjjjjjjjjjjjjjjjjjjjjjjjjjjjjjjjjjjjjjjjjjjjjjjjjjjjjjjjjjjjjjjjjjjjjjjjjjjjjjjjjjjjjjjjjjjjjj",
"jjjjjjjjjjjjjjjjjjjjjjjjjjjjjjjjjjjjjjjjjjjjjjjjjjjjjjjjjjjjjjjjjjjjjjjjjjjjjjjjjjjjjjjjjjjjjjjjjjjj",
"jjjjjjjjjjjjjjjjjjjjjjjjjjjjjjjjjjjjjjjjjjjjjjjjjjjjjjjjjjjjjjjjjjjjjjjjjjjjjjjjjjjjjjjjjjjjjjjjjjjj",
"jjjjjjjjjjjjjjjjjjjjjjjjjjjjjjjjjjjjjjjjjjjjjjjjjjjjjjjjjjjjjjjjjjjjjjjjjjjjjjjjjjjjjjjjjjjjjjjjjjjj",
"jjjjjjjjjjjjjjjjjjjjjjjjjjjjjjjjjjjjjjjjjjjjjjjjjjjjjjjjjjjjjjjjjjjjjjjjjjjjjjjjjjjjjjjjjjjjjjjjjjjj",
"jjjjjjjjjjjjjjjjjjjjjjjjjjjjjjjjjjjjjjjjjjjjjjjjjjjjjjjjjjjjjjjjjjjjjjjjjjjjjjjjjjjjjjjjjjjjjjjjjjjj",
"jjjjjjjjjjjjjjjjjjjjjjjjjjjjjjjjjjjjjjjjjjjjjjjjjjjjjjjjjjjjjjjjjjjjjjjjjjjjjjjjjjjjjjjjjjjjjjjjjjjj",
"jjjjjjjjjjjjjjjjjjjjjjjjjjjjjjjjjjjjjjjjjjjjjjjjjjjjjjjjjjjjjjjjjjjjjjjjjjjjjjjjjjjjjjjjjjjjjjjjjjjj",
"jjjjjjjjjjjjjjjjjjjjjjjjjjjjjjjjjjjjjjjjjjjjjjjjjjjjjjjjjjjjjjjjjjjjjjjjjjjjjjjjjjjjjjjjjjjjjjjjjjjj",
"jjjjjjjjjjjjjjjjjjjjjjjjjjjjjjjjjjjjjjjjjjjjjjjjjjjjjjjjjjjjjjjjjjjjjjjjjjjjjjjjjjjjjjjjjjjjjjjjjjjj",
"jjjjjjjjjjjjjjjjjjjjjjjjjjjjjjjjjjjjjjjjjjjjjjjjjjjjjjjjjjjjjjjjjjjjjjjjjjjjjjjjjjjjjjjjjjjjjjjjjjjj",
"jjjjjjjjjjjjjjjjjjjjjjjjjjjjjjjjjjjjjjjjjjjjjjjjjjjjjjjjjjjjjjjjjjjjjjjjjjjjjjjjjjjjjjjjjjjjjjjjjjjj",
"jjjjjjjjjjjjjjjjjjjjjjjjjjjjjjjjjjjjjjjjjjjjjjjjjjjjjjjjjjjjjjjjjjjjjjjjjjjjjjjjjjjjjjjjjjjjjjjjjjjj"
};
