/* XPM */
static char *DVY_DoorGlass_4x5_xpm[] = {
/* width height num_colors chars_per_pixel */
"   100   100       16            1",
/* colors */
"` c #cccacc",
". c #e4e6e4",
"# c #dcdadc",
"a c #f4f6f4",
"b c #d4d2d4",
"c c #eceeec",
"d c #e4e2e4",
"e c #ffffff",
"f c #cccecc",
"g c #eceaec",
"h c #fffaff",
"i c #f4f2f4",
"j c #dcdedc",
"k c #d4d6d4",
"l c #000000",
"m c #000000",
/* pixels */
"eeeeeeeeeeeeeeeeeeeeeeeeeeeeeeeeeeeeeeeeeeeeeeeeeeeeeeeeeeeeeeeeeeeeeeeeeeeeeeeeeeeeeeeeeeeeeeeeeeee",
"eeeeeeeeeeeeeeeeeeeeeeeeeeeeeeeeeeeeeeeeeeeeeeeeeeeeeeeeeeeeeeeeeeeeeeeeeeeeeeeeeeeeeeeeeeeeeeeeeeee",
"eeeeeeeeeeeeeeeeeeeeeeeeeeeeeeeeeeeeeeeeeeeeeeeeeeeeeeeeeeeeeeeeeeeeeeeeeeeeeeeeeeeeeeeeeeeeeeeeeeee",
"eeeeeeeeeeeeeeeeeeeeeeeeeeeeeeeeeeeeeeeeeeeeeeeheeeeeeeeeeeeeeeeeeeeeeeeeeeeeeeeeeeeeeeeeeeeeeeeeeee",
"eeeeeeeeeeeeeeeeeeeeeeeeeeeeeeeeeeeeeeeeeeeeeeeeeeeeeeeeeeeeeeeeeeeeeeeeeeeeeeeeeeeeeeeeeeeeeeeeeeee",
"eeeeeeeeeeeeeeeeeeeeeeeeeeeeeeeeeeeeeeeeeeeeeeeeeeeeeeeeeeeeeeeeeeeeeeeeeeeeeeeeeeeeeeeeeeeeeeeeeeee",
"eeeeeeeeeeeeeeeeeeeeeeeeeeeeeeeeeeeeeeeeeeeeeeeeeeeeeeeeeeeeeeeeeeeeeeeeeeeeeeeeeeeeeeeeeeeeeeeeeeee",
"eeeeeeeeeeeeeeeeeeeeeeeeeeeeeeeeeeeeeeeeeeeeeeeeeeeeeeeeeeeeeeeeeeeeeeeeeeeheeeeeeeeeeeeeeeeeeeeeeee",
"eeeeeeeeeeeeeeeeeeeeeeeeeeeeeeeeeeeeeeeeeeeeeeeeeeeeeeeeeeeeeeeehhaaaaheeeeeeeeeeeeeeeeeeeeeeeeeeeee",
"eeeeeeeeeeeeeeeeeeeeeeeeeeeeeeeeeeeeeeeeeeeeeeeeeeeeeeeeeeeeeeeehaicciaeeeeeeeeeeeeeeeeeeeeeeeeeeeee",
"eeeeeeeeeeeeeeeeeeeeeeeeeeeeeeeeeeeeeeeeeeeeeeeeeeeeeeeeeehhaaiccgg.ggiaheeeeeeeeeeeeeeeeeeeeeeeeeee",
"eeeeeeeeeeeeeeeeeeeeeeeeeeeeeeeeeeeeeeeeeeeeeeeeeeeeeeeeehaiicgdddddd.giaeeeeeeeeeeeeeeeeeeeeeeeeeee",
"eeeeeeeeeeeeeeeeeeeeeeeeeeeeeeeeeeeeeeeeeeeeeeeeeeeeeehaic.dj###jd..ggcaheeeeeeeeeeeeeeeeeeeeeeeeeee",
"eeeeeeeeeeeeeeeeeeeeeeeeeeeeeeeeeeeeeeeeeeeeeeeeeeeeehac.jkbf``fkd.ccciaheeeeeeeeeeeeeeeeeeeeeeeeeee",
"eeeeeeeeeeeeeeeeeeeeeeeeeeeeeeeeeeeeeeeeeeeeeeeeehaicgdj#kbbbk#d.gcciiaaheeeeeeeeeeeeeeeeeeeeeeeeeee",
"eeeeeeeeeeeeeeeeeeeeeeeeeeeeeeeeeeeeeeeeeeeeeeeehacgjkb```fk#dgiiiiiiaaaheeeeeeeeeeeeeeeeeeeeeeeeeee",
"eeeeeeeeeeeeeeeeeeeeeeeeeeeeeeeeeeeeeeeeeeeehhacggd#kbbbk#jd.gcaiiiiiaaaheeeeeeeeeeeeeeeeeeeeeeeeeee",
"eeeeeeeeeeeeeeeeeeeeeeeeeeeeeeeeeeehheeeeeehaigjj#kfffbkj.giiiaaaaiiiaaahheeeeeeeeeeeeeeeeeeeeeeeeee",
"eeeeeeeeeeeeeeeeeeeeeeeeeeeeeeeeeeeeeeeeaicg.d#k######j.gciiicccccciiaaaheeeeeeeeeeeeeeeeeeeeeeeeeee",
"eeeeeeeeeeeeeeeeeeeeeeeeeeeeeeeeeeeeeeehigd#bfffk#j..gciahaaicg...gciaahheeeeeeeeeeeeeeeeeeeeeeeeeee",
"eeeeeeeeeeeeeeeeeeeeeeeeeeeeeeeeeehaaig.d#kbbbk#j.gciiiiiiccg...dd.gciahheeeeeeeeeeeeeeeeeeeeeeeeeee",
"eeeeeeeeeeeeeeeeeeeeeeeeeeeeeeeeehaigd#kf`ffbk#dgiahhhaicg..djjdddd.ciaheeeeeeeeeeeeeeeeeeeeeeeeeeee",
"eeeeeeeeeeeeeeeeeeeeeeeeeeeeehaaig.j#kbbbbkjd.gciiiiiccggg...d.cg..gciahheeeeeeeeeeeeeeeeeeeeeeeeeee",
"eeeeeeeeeeeeeeeeeeeeeeeeeeeehaigdjkf``ffk#dgiahhhaicg..d...gggiaicggciahheeeeeeeeeeeeeeeeeeeeeeeeeee",
"eeeeeeeeeeeeeeeeeeeeeeeeeehhigdj#kbbbk#j.gciiaaaicgg...gggcciiahicggciahheeeeeeeeeeeeeeeeeeeeeeeeeee",
"eeeeeeeeeeeeeeeeeeeeeeeeeehigjkfffbkjdgiiaaaaiiccg....gcciaaahheacggciaheeeeeeeeeeeeeeeeeeeeeeeeeeee",
"eeeeeeeeeeeeeeeeeeeeeeeeeeai.j#kk#jdgciiiaiiccg..gggcciiaaaaaaahigggciaheeeeeeeeeeeeeeeeeeeeeeeeeeee",
"eeeeeeeeeeeeeeeeeeeeeeeeeeac.j##d.giaaaaaiccgg.dd.ciaahhhhaaiiiacgg.ciaeeeeeeeeeeeeeeeeeeeeeeeeeeeee",
"eeeeeeeeeeeeeeeeeeeeeeeeeeaig...gciaaaiccgggggggcciaaaaahhhaaiahigg.ciaheeeeeeeeeeeeeeeeeeeeeeeeeeee",
"eeeeeeeeeeeeeeeeeeeeeeeeeehaiciaahhhaicg.....gciahhhaaaahhhhaiahicggciahheeeeeeeeeeeeeeeeeeeeeeeeeee",
"eeeeeeeeeeeeeeeeeeeeeeeeehaaiiiaaaaicgggggccciiaahhhhaaahhhaaiahicggciahheeeeeeeeeeeeeeeeeeeeeeeeeee",
"eeeeeeeeeeeeeeeeeeeeeeeehaiiiiiaiicgg..gciaahhhhhhhhhhhhhhaaaaahicggciaheeeeeeeeeeeeeeeeeeeeeeeeeeee",
"eeeeeeeeeeeeeeeeeeeeeeeehiiiiiiaiiiccccciaaaaahhhhhhaaaaaaaaiiahicggciaheeeeeeeeeeeeeeeeeeeeeeeeeeee",
"eeeeeeeeeeeeeeeeeeeeeeeehiiiiiiaaaiiiiaaahhhaaahhhhhaaaaaaaiiiahicggciaheeeeeeeeeeeeeeeeeeeeeeeeeeee",
"eeeeeeeeeeeeeeeeeeeeeeeehiiiiciaaaaaaaaahhhhaaahhhaaaaaiiaiiiiahicggciaheeeeeeeeeeeeeeeeeeeeeeeeeeee",
"eeeeeeeeeeeeeeeeeeeeeeeeaiiicciaaaaaahhhhhhhhhhhaaaaaiiiiiiiiiahicggciaheeeeeeeeeeeeeeeeeeeeeeeeeeee",
"eeeeeeeeeeeeeeeeeeeeeeeeaiiicciaiiiaahhhhhaaaaaaaaaaiiiiiiiiiiahicggciaheeeeeeeeeeeeeeeeeeeeeeeeeeee",
"eeeeeeeeeeeeeeeeeeeeeeeeaiiiiiiiiiiaahhhhaaaaaaaaaiiiiiiiaaaiiahicggciaheeeeeeeeeeeeeeeeeeeeeeeeeeee",
"eeeeeeeeeeeeeeeeeeeeeeeeaiiiiiiiiiiaahhhhaaaaaiiiiiiiiiaaaaaaaahicggciaheeeeeeeeeeeeeeeeeeeeeeeeeeee",
"eeeeeeeeeeeeeeeeeeeeeeeehiiiiiiiiiiaahhhaaiiiiiiiiiiiaaaaaaaaaahiccgcaaheeeeeeeeeeeeeeeeeeeeeeeeeeee",
"eeeeeeeeeeeeeeeeeeeeeeeehiiiiciiiiiaaaaaaiiiiiiiiiiaaaaaaaaaaaahiccgcaaheeeeeeeeeeeeeeeeeeeeeeeeeeee",
"eeeeeeeeeeeeeeeeeeeeeeeehiiicciiiiiaaaaaiiiiiiiiiaaaaaahhhaaaaahiccgcaaheeeeeeeeeeeeeeeeeeeeeeeeeeee",
"eeeeeeeeeeeeeeeeeeeeeeeehiicccciiiiiiiiiiiiiiaaaaaaaaaahhhaaaaahiccgiaaheeeeeeeeeeeeeeeeeeeeeeeeeeee",
"eeeeeeeeeeeeeeeeeeeeeeeehiicccciiiiiiccciiiaaaaaaaahhhhhhhhaaaahiccciahheeeeeeeeeeeeeeeeeeeeeeeeeeee",
"eeeeeeeeeeeeeeeeeeeeeeeehicccgccciiiiiiiiiaaaaaaahhhhhhhhhhaaaaaiccciahheeeeeeeeeeeeeeeeeeeeeeeeeeee",
"eeeeeeeeeeeeeeeeeeeeeeeehiccggggcciiiiiaaaahaaahhhhhhhhhhhhaaaaaiccciahheeeeeeeeeeeeeeeeeeeeeeeeeeee",
"eeeeeeeeeeeeeeeeeeeeeeeeaicccggccciaaaaaaaahaaahhhhhhhhhhhhaaaaaiccciiaeeeeeeeeeeeeeeeeeeeeeeeeeeeee",
"eeeeeeeeeeeeeeeeeeeeeeeeaicccccccgiaaaahaaahaaahhhhhhhhhhhhaaaaaiccciiaeeeeeeeeeeeeeeeeeeeeeeeeeeeee",
"eeeeeeeeeeeeeeeeeeeeeeeeaccccccccgiaaaahaaahaaahhhhhhhhhhhhaaaaaiccciiaeeeeeeeeeeeeeeeeeeeeeeeeeeeee",
"eeeeeeeeeeeeeeeeeeeeeeeeaccccccicciaaaahhaahhhhhhhhhhhhhhhhaaaaaiccciiaeeeeeeeeeeeeeeeeeeeeeeeeeeeee",
"eeeeeeeeeeeeeeeeeeeeeeeeaccccccicciaaahhhahhhhhhhhhhhhhhhhhaaaaaiccciiaeeeeeeeeeeeeeeeeeeeeeeeeeeeee",
"eeeeeeeeeeeeeeeeeeeeeeeeacccccciccihaahhhhhhhhhhhhhhhhhhhhhaaaaaiccciiaeeeeeeeeeeeeeeeeeeeeeeeeeeeee",
"eeeeeeeeeeeeeeeeeeeeeeeeacccccciccihaahhhhhhhhhhhhhhhhhhhhhaaaaaiccciiaeeeeeeeeeeeeeeeeeeeeeeeeeeeee",
"eeeeeeeeeeeeeeeeeeeeeeeeaccccciiicihaahhhhhhhhhhhhhhhhhhhhhaaaahicciiiaeeeeeeeeeeeeeeeeeeeeeeeeeeeee",
"eeeeeeeeeeeeeeeeeeeeeeeeacccccciccihaahhhahhhaahhhhhhhhhhhhaaaahicciiiaeeeeeeeeeeeeeeeeeeeeeeeeeeeee",
"eeeeeeeeeeeeeeeeeeeeeeeeacccccciccihaahhhaahaaahhhhhhhhhhhhaaaahicciiiheeeeeeeeeeeeeeeeeeeeeeeeeeeee",
"eeeeeeeeeeeeeeeeeeeeeeeeaccccccicciaaaahhaahaaahhhhhhhhhhhhaaaahicciiiheeeeeeeeeeeeeeeeeeeeeeeeeeeee",
"eeeeeeeeeeeeeeeeeeeeeeeeaccccciicciaaaahhaahaaahhhhhhhhhhhhaaaahicciiiheeeeeeeeeeeeeeeeeeeeeeeeeeeee",
"eeeeeeeeeeeeeeeeeeeeeeeeaccccciicciaaaahhaahaaahhhhhhhhhhhhaaaahicciiiheeeeeeeeeeeeeeeeeeeeeeeeeeeee",
"eeeeeeeeeeeeeeeeeeeeeeeeacccciiicciaaaahhaahhhhhhhhhhhhhhhhaaaahicciiiheeeeeeeeeeeeeeeeeeeeeeeeeeeee",
"eeeeeeeeeeeeeeeeeeeeeeeeacccciiicciaaaahhaahhhhhhhhhhhhhhhhaaaahicciiiheeeeeeeeeeeeeeeeeeeeeeeeeeeee",
"eeeeeeeeeeeeeeeeeeeeeeeeacccciiiccihaaahhhhhhhhhhhhhhhhhhhhaaaahicciiiheeeeeeeeeeeeeeeeeeeeeeeeeeeee",
"eeeeeeeeeeeeeeeeeeeeeeeeaccccciicciaaaahhahhhaaaaaahhhhhhaaaaaahaiiiiiheeeeeeeeeeeeeeeeeeeeeeeeeeeee",
"eeeeeeeeeeeeeeeeeeeeeeeeaccccciicgiaaaahaahhhaaaaaahhhhhaaaaaaahhhaiiaheeeeheeeeeeeeeeeeeeeeeeeeeeee",
"eeeeeeeeeeeeeeeeeeeeeeeeaccccccicgihhhhhhahhhahhhhhhhaaaiiiaahhhhhaiiiheeeeeeeeeeeeeeeeeeeeeeeeeeeee",
"eeeeeeeeeeeeeeeeeeeeeeeeacccccccccihhhhhhahhhahehhhhaaiiiciahheeehaiccaeeeeeeeeeeeeeeeeeeeeeeeeeeeee",
"eeeeeeeeeeeeeeeeeeeeeeeeaccccciiccihhhhhhahhhaahaaaaaaaaiiiiiiahhhaiiiaeeeeeeeeeeeeeeeeeeeeeeeeeeeee",
"eeeeeeeeeeeeeeeeeeeeeeeeaccccciaiciaaaahhhhhhaaaiiiiiaahaaiicgciahaaaaheeeeeeeeeeeeeeeeeeeeeeeeeeeee",
"eeeeeeeeeeeeeeeeeeeeeeeeaccccciicgiaaahhhahhaaiiiiiiiiiiccgg..gciaaaaaheeeeeeeeeeeeeeeeeeeeeeeeeeeee",
"eeeeeeeeeeeeeeeeeeeeeeeeaccccccccgihhhhhhaaaaiiiiaaaaicg..dddd.cciaaahheeeeeeeeeeeeeeeeeeeeeeeeeeeee",
"eeeeeeeeeeeeeeeeeeeeeeeeaccccccccgihhhaaaaaaaaiiiiiicg..dd..ggciiiiiiaheeeeeeeeeeeeeeeeeeeeeeeeeeeee",
"eeeeeeeeeeeeeeeeeeeeeeeeacccccccccihhhaaiiiaaaaaaicg.djjjd.gciiaiicciaheeeeeeeeeeeeeeeeeeeeeeeeeeeee",
"eeeeeeeeeeeeeeeeeeeeeeeeaccccciicciaaaaiiiiiiiccgg.dddd.ggciiiiicccciaheeeeeeeeeeeeeeeeeeeeeeeeeeeee",
"eeeeeeeeeeeeeeeeeeeeeeeeaccccciaiciaiiiiiiiiccg.djjjjd.ciaaaiicccgcciaheeeeeeeeeeeeeeeeeeeeeeeeeeeee",
"eeeeeeeeeeeeeeeeeeeeeeeeaccccccicgciiiiaiccg.ddjdd..ggciiiiicccccciiahheeeeeeeeeeeeeeeeeeeeeeeeeeeee",
"eeeeeeeeeeeeeeeeeeeeeeeeacccccccg.ciiaaaicg.j###d.giiaiiiiccggggciahheeeeeeeeeeeeeeeeeeeeeeeeeeeeeee",
"eeeeeeeeeeeeeeeeeeeeeeeeacccccccg.ciicgg.ddddjd.gcciiiccccccciiaaahheeeeeeeeeeeeeeeeeeeeeeeeeeeeeeee",
"eeeeeeeeeeeeeeeeeeeeeeeeacccccccggcicgdj#k#jd.giiaiiccgggcciaaheeeeeeeeeeeeeeeeeeeeeeeeeeeeeeeeeeeee",
"eeeeeeeeeeeeeeeeeeeeeeeeaiiccggg....djjjjd.ggcciiiccccccciiahheeeeeeeeeeeeeeeeeeeeeeeeeeeeeeeeeeeeee",
"eeeeeeeeeeeeeeeeeeeeeeeehaicgggg.d#kkk#d.gciiaicccgggcciiahheeeeeeeeeeeeeeeeeeeeeeeeeeeeeeeeeeeeeeee",
"eeeeeeeeeeeeeeeeeeeeeeeehhicg.gg..djjjd.gcccciccccccciiaahheeeeeeeeeeeeeeeeeeeeeeeeeeeeeeeeeeeeeeeee",
"eeeeeeeeeeeeeeeeeeeeeeeeehacg.ggggg..ggccicccccccciiaahhheeeeeeeeeeeeeeeeeeeeeeeeeeeeeeeeeeeeeeeeeee",
"eeeeeeeeeeeeeeeeeeeeeeeeeeaicgciccccccciiiccccciiiaahhheeeeeeeeeeeeeeeeeeeeeeeeeeeeeeeeeeeeeeeeeeeee",
"eeeeeeeeeeeeeeeeeeeeeeeeeehaiciaaaiiiiiiiicccciaaahheeeeeeeeeeeeeeeeeeeeeeeeeeeeeeeeeeeeeeeeeeeeeeee",
"eeeeeeeeeeeeeeeeeeeeeeeeeehhiciiiiiiccciiiiiiiahhheeeeeeeeeeeeeeeeeeeeeeeeeeeeeeeeeeeeeeeeeeeeeeeeee",
"eeeeeeeeeeeeeeeeeeeeeeeeeeehicciiiiccgcciiiaahheeeeeeeeeeeeeeeeeeeeeeeeeeeeeeeeeeeeeeeeeeeeeeeeeeeee",
"eeeeeeeeeeeeeeeeeeeeeeeeeehaiggccccccciiaaahheeeeeeeeeeeeeeeeeeeeeeeeeeeeeeeeeeeeeeeeeeeeeeeeeeeeeee",
"eeeeeeeeeeeeeeeeeeeeeeeeeehac...gggcciiahheeeeeeeeeeeeeeeeeeeeeeeeeeeeeeeeeeeeeeeeeeeeeeeeeeeeeeeeee",
"eeeeeeeeeeeeeeeeeeeeeeeeeehaigggccciiaaheeeeeeeeeeeeeeeeeeeeeeeeeeeeeeeeeeeeeeeeeeeeeeeeeeeeeeeeeeee",
"eeeeeeeeeeeeeeeeeeeeeeeeeeehaiccciiaaheeeeeeeeeeeeeeeeeeeeeeeeeeeeeeeeeeeeeeeeeeeeeeeeeeeeeeeeeeeeee",
"eeeeeeeeeeeeeeeeeeeeeeeeeeeehaaaahhhhheeeeeeeeeeeeeeeeeeeeeeeeeeeeeeeeeeeeeeeeeeeeeeeeeeeeeeeeeeeeee",
"eeeeeeeeeeeeeeeeeeeeeeeeeeeeeeeheeeeeeeeeeeeeeeeeeeeeeeeeeeeeeeeeeeeeeeeeeeeeeeeeeeeeeeeeeeeeeeeeeee",
"eeeeeeeeeeeeeeeeeeeeeeeeeeeeeeeeeeeeeeeeeeeeeeeeeeeeeeeeeeeeeeeeeeeeeeeeeeeeeeeeeeeeeeeeeeeeeeeeeeee",
"eeeeeeeeeeeeeeeeeeeeeeeeeeeeeeeeeeeeeeeeeeeeeeeeeeeeeeeeeeeeeeeeeeeeeeeeeeeeeeeeeeeeeeeeeeeeeeeeeeee",
"eeeeeeeeeeeeeeeeeeeeeeeeeeeeeeeeeeeeeeeeeeeeeeeeeeeeeeeeeeeeeeeeeeeeeeeeeeeeeeeeeeeeeeeeeeeeeeeeeeee",
"eeeeeeeeeeeeeeeeeeeeeeeeeeeeeeeeeeeeeeeeeeeeeeeeeeeeeeeeeeeeeeeeeeeeeeeeeeeeeeeeeeeeeeeeeeeeeeeeeeee",
"eeeeeeeeeeeeeeeeeeeeeeeeeeeeeeeeeeeeeeeeeeeeeeeeeeeeeeeeeeeeeeeeeeeeeeeeeeeeeeeeeeeeeeeeeeeeeeeeeeee",
"eeeeeeeeeeeeeeeeeeeeeeeeeeeeeeeeeeeeeeeeeeeeeeeeeeeeeeeeeeeeeeeeeeeeeeeeeeeeeeeeeeeeeeeeeeeeeeeeeeee",
"eeeeeeeeeeeeeeeeeeeeeeeeeeeeeeeeeeeeeeeeeeeeeeeeeeeeeeeeeeeeeeeeeeeeeeeeeeeeeeeeeeeeeeeeeeeeeeeeeeee",
"eeeeeeeeeeeeeeeeeeeeeeeeeeeeeeeeeeeeeeeeeeeeeeeeeeeeeeeeeeeeeeeeeeeeeeeeeeeeeeeeeeeeeeeeeeeeeeeeeeee"
};
