/* XPM */
static char *DVY_Spindles_3_xpm[] = {
/* width height num_colors chars_per_pixel */
"    40   160      256            2",
/* colors */
"`` c #342200",
"`. c #c4926c",
"`# c #dcd2c4",
"`a c #6c5e4c",
"`b c #a4764c",
"`c c #c4ae8c",
"`d c #dc9274",
"`e c #c48664",
"`f c #dca274",
"`g c #ac8a6c",
"`h c #f4eee4",
"`i c #8c5e34",
"`j c #ec9e74",
"`k c #a47e5c",
"`l c #ccaa8c",
"`m c #4c3e1c",
"`n c #d49674",
"`o c #ecdec4",
"`p c #84765c",
"`q c #dca674",
"`r c #fffaf4",
"`s c #845e34",
"`t c #a47a64",
"`u c #c48e6c",
"`v c #946e44",
"`w c #eca674",
"`x c #b47e5c",
"`y c #ac7654",
"`z c #ec9a6c",
"`A c #6c522c",
"`B c #ece6d4",
"`C c #bc9a74",
"`D c #dcc2ac",
"`E c #e49e74",
"`F c #b48a6c",
"`G c #fff6ec",
"`H c #745e4c",
"`I c #a47a4c",
"`J c #e49a74",
"`K c #c48a64",
"`L c #ffeee4",
"`M c #f4a274",
"`N c #ac7e5c",
"`O c #54421c",
"`P c #cc9e74",
"`Q c #ece2d4",
"`R c #e4a674",
"`S c #9c6e44",
"`T c #b48e6c",
"`U c #342600",
"`V c #e4d2bc",
"`W c #ccae8c",
"`X c #dc966c",
"`Y c #946a4c",
"`Z c #eca274",
"`0 c #a48264",
"`1 c #4c421c",
"`2 c #ffffff",
"`3 c #84622c",
"`4 c #cc8e74",
"`5 c #8c7664",
"`6 c #f4a674",
"`7 c #b4825c",
"`8 c #c49a7c",
".` c #e4a274",
".. c #34220c",
".# c #c49274",
".a c #6c624c",
".b c #a47654",
".c c #c4866c",
".d c #dca27c",
".e c #f4f2ec",
".f c #8c6234",
".g c #a47e64",
".h c #d49a74",
".i c #ecdecc",
".j c #847664",
".k c #dca67c",
".l c #fffaff",
".m c #c48e74",
".n c #946e4c",
".o c #eca67c",
".p c #b47e64",
".q c #ac7a54",
".r c #ec9a74",
".s c #6c562c",
".t c #f4e6dc",
".u c #bc9a7c",
".v c #dcc6ac",
".w c #b48a74",
".x c #74624c",
".y c #a47a54",
".z c #c48a6c",
".A c #fff2ec",
".B c #d49e74",
".C c #f4e2dc",
".D c #e4a67c",
".E c #b48e74",
".F c #e4d2c4",
".G c #ccae94",
".H c #dc9674",
".I c #eca27c",
".J c #4c4224",
".K c #846234",
".L c #e4a27c",
".M c #000000",
".N c #000000",
".O c #000000",
".P c #000000",
".Q c #000000",
".R c #000000",
".S c #000000",
".T c #000000",
".U c #000000",
".V c #000000",
".W c #000000",
".X c #000000",
".Y c #000000",
".Z c #000000",
".0 c #000000",
".1 c #000000",
".2 c #000000",
".3 c #000000",
".4 c #000000",
".5 c #000000",
".6 c #000000",
".7 c #000000",
".8 c #000000",
"#` c #000000",
"#. c #000000",
"## c #000000",
"#a c #000000",
"#b c #000000",
"#c c #000000",
"#d c #000000",
"#e c #000000",
"#f c #000000",
"#g c #000000",
"#h c #000000",
"#i c #000000",
"#j c #000000",
"#k c #000000",
"#l c #000000",
"#m c #000000",
"#n c #000000",
"#o c #000000",
"#p c #000000",
"#q c #000000",
"#r c #000000",
"#s c #000000",
"#t c #000000",
"#u c #000000",
"#v c #000000",
"#w c #000000",
"#x c #000000",
"#y c #000000",
"#z c #000000",
"#A c #000000",
"#B c #000000",
"#C c #000000",
"#D c #000000",
"#E c #000000",
"#F c #000000",
"#G c #000000",
"#H c #000000",
"#I c #000000",
"#J c #000000",
"#K c #000000",
"#L c #000000",
"#M c #000000",
"#N c #000000",
"#O c #000000",
"#P c #000000",
"#Q c #000000",
"#R c #000000",
"#S c #000000",
"#T c #000000",
"#U c #000000",
"#V c #000000",
"#W c #000000",
"#X c #000000",
"#Y c #000000",
"#Z c #000000",
"#0 c #000000",
"#1 c #000000",
"#2 c #000000",
"#3 c #000000",
"#4 c #000000",
"#5 c #000000",
"#6 c #000000",
"#7 c #000000",
"#8 c #000000",
"a` c #000000",
"a. c #000000",
"a# c #000000",
"aa c #000000",
"ab c #000000",
"ac c #000000",
"ad c #000000",
"ae c #000000",
"af c #000000",
"ag c #000000",
"ah c #000000",
"ai c #000000",
"aj c #000000",
"ak c #000000",
"al c #000000",
"am c #000000",
"an c #000000",
"ao c #000000",
"ap c #000000",
"aq c #000000",
"ar c #000000",
"as c #000000",
"at c #000000",
"au c #000000",
"av c #000000",
"aw c #000000",
"ax c #000000",
"ay c #000000",
"az c #000000",
"aA c #000000",
"aB c #000000",
"aC c #000000",
"aD c #000000",
"aE c #000000",
"aF c #000000",
"aG c #000000",
"aH c #000000",
"aI c #000000",
"aJ c #000000",
"aK c #000000",
"aL c #000000",
"aM c #000000",
"aN c #000000",
"aO c #000000",
"aP c #000000",
"aQ c #000000",
"aR c #000000",
"aS c #000000",
"aT c #000000",
"aU c #000000",
"aV c #000000",
"aW c #000000",
"aX c #000000",
"aY c #000000",
"aZ c #000000",
"a0 c #000000",
"a1 c #000000",
"a2 c #000000",
"a3 c #000000",
"a4 c #000000",
"a5 c #000000",
"a6 c #000000",
"a7 c #000000",
"a8 c #000000",
/* pixels */
"`2`2`2`2`2`2`2`2`2`2`2`2`2`2`2`2`2`2`2`2`2`2`2`2`2`2`2`2`2`2`2`2`2`2`2`2`2`2`2`2",
"`2`2`2`2`2`2`2`2`2`2`2`2`2`2`2`2`2`2`2`2`2`2`2`L`W`W`h`2`2`2`2`2`2`2`2`2`2`2`2`2",
"`2`2`2`2`2`2`2`2`2`2`2`2`2`2`2`2`2`2`2`2`2`V`F.n`i`v.n`2`2`2`2`2`2`2`2`2`2`2`2`2",
"`2`2`2`2`2`2`2`2`2`2`2`2`2`2`2`2`2`l`P.K.n`X`Z`w`R`w.B.n`k.G`2`2`2`2`2`2`2`2`2`2",
"`2`2`2`2`2`2`2`2`2`2`2`2`2`2`2`2`D`H.n`R.r`Z.``X`n`w`Z.``7`Y.u`2`2`2`2`2`2`2`2`2",
"`2`2`2`2`2`2`2`2`2`2`2`2`2`2`2`2`D`5`F.K.H`Z.r.H`w.``Z.B`q.n`1`5`2`2`2`2`2`2`2`2",
"`2`2`2`2`2`2`2`2`2`2`2`2`2`2`2`2.F`F`Z.K.K`K`w`w.``X.B.n`v.g`v.G`2`2`2`2`2`2`2`2",
"`2`2`2`2`2`2`2`2`2`2`2`2`2`2`2`2`W.g`w`w.H`y.K.K.n.b`e`Z.``w.g`F`2`2`2`2`2`2`2`2",
"`2`2`2`2`2`2`2`2`2`2`2`2`2`2`2`2`W`7`w.o`Z`7`v`v`7.H`Z`j`Z`Z`y.w`2`2`2`2`2`2`2`2",
"`2`2`2`2`2`2`2`2`2`2`2`2`2`2`2`2`W`x`w`X`w.``x.c`Z.I`X`E`Z`w`I.E`2`2`2`2`2`2`2`2",
"`2`2`2`2`2`2`2`2`2`2`2`2`2`2`2`2.G.b`Z`Z`Z.H.b`7`q`E`Z`j`Z`M`y.w`2`2`2`2`2`2`2`2",
"`2`2`2`2`2`2`2`2`2`2`2`2`2`2`2`2`l.b`w`E`j.``7`e.``J`Z.r`Z`w.b.w`2`2`2`2`2`2`2`2",
"`2`2`2`2`2`2`2`2`2`2`2`2`2`2`2`2`W`7`w`Z`Z.`.b`7.``E`Z.r`Z`w.b.w`2`2`2`2`2`2`2`2",
"`2`2`2`2`2`2`2`2`2`2`2`2`2`2`2`2`W`7.``Z`Z`R.b`7`w.r`Z`E`Z`w.b.w`2`2`2`2`2`2`2`2",
"`2`2`2`2`2`2`2`2`2`2`2`2`2`2`2`2.G`7.``Z`Z`R.y`x`w`j`Z`j`Z`w`y.w`2`2`2`2`2`2`2`2",
"`2`2`2`2`2`2`2`2`2`2`2`2`2`2`2`2`W`7.L`Z`Z`R`b`7`w`j`Z.r`Z`w.b.w`2`2`2`2`2`2`2`2",
"`2`2`2`2`2`2`2`2`2`2`2`2`2`2`2`2`W`7.``Z`Z.`.b`7`Z`J`Z`E`Z`Z.b.w`2`2`2`2`2`2`2`2",
"`2`2`2`2`2`2`2`2`2`2`2`2`2`2`2`2.G.b.`.``Z.`.q`e`w`j`Z`Z.``Z.y`g`2`2`2`2`2`2`2`2",
"`2`2`2`2`2`2`2`2`2`2`2`2`2`2`2`2`W.y.``R`Z`E`I`7`w`E`w`Z.``w.b.w`2`2`2`2`2`2`2`2",
"`2`2`2`2`2`2`2`2`2`2`2`2`2`2`2`2`W`k.`.`.``j`y`7`w`E`w.`.``w`y`F`2`2`2`2`2`2`2`2",
"`2`2`2`2`2`2`2`2`2`2`2`2`2`2`2`2.G`k`R`R.``E`y`7.I`E`Z`R.``w`b`F`2`2`2`2`2`2`2`2",
"`2`2`2`2`2`2`2`2`2`2`2`2`2`2`2`2`W`k`Z`R.`.``y`e`w.`.`.``R`Z.g.w`2`2`2`2`2`2`2`2",
"`2`2`2`2`2`2`2`2`2`2`2`2`2`2`2`2`2.K`w.``Z.``e`K.`.k`R`Z`w.u.n`W`2`2`2`2`2`2`2`2",
"`2`2`2`2`2`2`2`2`2`2`2`2`2`2`2`2`2`2`A.b.b.b.K.n.b`7`q.b.K`F`2`2`2`2`2`2`2`2`2`2",
"`2`2`2`2`2`2`2`2`2`2`2`2`2`2`2`2`2`2.n`U`A`y`e.z.b.K.K``.s`o`2`2`2`2`2`2`2`2`2`2",
"`2`2`2`2`2`2`2`2`2`2`2`2`2`2`2`2`2`r.a`w.``.`7`7`y.m`w`w`k`W`2`2`2`2`2`2`2`2`2`2",
"`2`2`2`2`2`2`2`2`2`2`2`2`2`2`2`2`2`2.n.K`q`w`Z`Z`w`w`q`x.K`D`2`2`2`2`2`2`2`2`2`2",
"`2`2`2`2`2`2`2`2`2`2`2`2`2`2`2`2`2`V`p.L.h`7.m`e`7.m.m`w`k.u`2`2`2`2`2`2`2`2`2`2",
"`2`2`2`2`2`2`2`2`2`2`2`2`2`2`2`2`2`D.K`w`Z.o`Z`w`w`Z`w`q.E.G`2`2`2`2`2`2`2`2`2`2",
"`2`2`2`2`2`2`2`2`2`2`2`2`2`2`2`2`2`2`#`A.q.K.K.K.K`Y.K`t`2`2`2`2`2`2`2`2`2`2`2`2",
"`2`2`2`2`2`2`2`2`2`2`2`2`2`2`2`2`2`2`2.n`Z`R`d`e`K.``x.g`2`2`2`2`2`2`2`2`2`2`2`2",
"`2`2`2`2`2`2`2`2`2`2`2`2`2`2`2`2`2`2`2.n`w.``X`E`d.``K.w`2`2`2`2`2`2`2`2`2`2`2`2",
"`2`2`2`2`2`2`2`2`2`2`2`2`2`2`2`2`2`2`2.K`Z`R`w`Z`Z`w`e.n`2`2`2`2`2`2`2`2`2`2`2`2",
"`2`2`2`2`2`2`2`2`2`2`2`2`2`2`2`2`2`2`2`s.``w`Z`Z`E`Z.h.n`r`2`2`2`2`2`2`2`2`2`2`2",
"`2`2`2`2`2`2`2`2`2`2`2`2`2`2`2`2`2`2.i.n.``R`Z`w`j`6`f.b`8`2`2`2`2`2`2`2`2`2`2`2",
"`2`2`2`2`2`2`2`2`2`2`2`2`2`2`2`2`2`2.n`q`R.`.r`j.H.``w`F`k`2`2`2`2`2`2`2`2`2`2`2",
"`2`2`2`2`2`2`2`2`2`2`2`2`2`2`2`2`2`2.s`w`w.``j`E.r.``w`8.g`2`2`2`2`2`2`2`2`2`2`2",
"`2`2`2`2`2`2`2`2`2`2`2`2`2`2`2`2`2`2.K`w`f`w`Z`Z`w`j.``R.E`F`2`2`2`2`2`2`2`2`2`2",
"`2`2`2`2`2`2`2`2`2`2`2`2`2`2`2`2`2`c`0`w`Z.r.r`j`j`E`R`w`u.j`2`2`2`2`2`2`2`2`2`2",
"`2`2`2`2`2`2`2`2`2`2`2`2`2`2`2`2`2.F.g`w`w`Z`E`j`E`w`Z.`.u.w`2`2`2`2`2`2`2`2`2`2",
"`2`2`2`2`2`2`2`2`2`2`2`2`2`2`2`2`2.F`v`w`E.H`w`w`Z`j`R`Z.g`k`2`2`2`2`2`2`2`2`2`2",
"`2`2`2`2`2`2`2`2`2`2`2`2`2`2`2`2`2`2.w.n`X`Z.r`E`w.I.k`v.b`2`2`2`2`2`2`2`2`2`2`2",
"`2`2`2`2`2`2`2`2`2`2`2`2`2`2`2`2`2`2`D`1.n`d`j`w`w.H`b`m.n`2`2`2`2`2`2`2`2`2`2`2",
"`2`2`2`2`2`2`2`2`2`2`2`2`2`2`2`2`2`2`Y`w.``E.c.q.b`q`6`w`k`h`2`2`2`2`2`2`2`2`2`2",
"`2`2`2`2`2`2`2`2`2`2`2`2`2`2`2`2`2`r.n`A.q`w`Z`w`Z`R`x`O.n`2`2`2`2`2`2`2`2`2`2`2",
"`2`2`2`2`2`2`2`2`2`2`2`2`2`2`2`2`2`W.f.w`7.n`v.n.n.n.b.b.j`D`2`2`2`2`2`2`2`2`2`2",
"`2`2`2`2`2`2`2`2`2`2`2`2`2`2`2`2`2`G.j.n`R`w`w`Z`w`w`f.n.K`V`2`2`2`2`2`2`2`2`2`2",
"`2`2`2`2`2`2`2`2`2`2`2`2`2`2`2`2`2`2.u`1.n.n.n.K.K`v.K`A`5`2`2`2`2`2`2`2`2`2`2`2",
"`2`2`2`2`2`2`2`2`2`2`2`2`2`2`2`2`2`2`2.K`w`w.``w`w`Z.m.b`G`2`2`2`2`2`2`2`2`2`2`2",
"`2`2`2`2`2`2`2`2`2`2`2`2`2`2`2`2`2`2`2.K`w`w`E`Z`Z`R.m`v`2`2`2`2`2`2`2`2`2`2`2`2",
"`2`2`2`2`2`2`2`2`2`2`2`2`2`2`2`2`2`2`2.K`Z`w`E`Z`Z.`.m`v`2`2`2`2`2`2`2`2`2`2`2`2",
"`2`2`2`2`2`2`2`2`2`2`2`2`2`2`2`2`2`2`2.K`Z`6`J`Z`Z.``K.n`2`2`2`2`2`2`2`2`2`2`2`2",
"`2`2`2`2`2`2`2`2`2`2`2`2`2`2`2`2`2`2`2.K`Z`w.r`Z`Z.`.z.n`2`2`2`2`2`2`2`2`2`2`2`2",
"`2`2`2`2`2`2`2`2`2`2`2`2`2`2`2`2`2`2`2.K`Z`w`j`Z`Z.``u`S`2`2`2`2`2`2`2`2`2`2`2`2",
"`2`2`2`2`2`2`2`2`2`2`2`2`2`2`2`2`2`2`2.K`Z`R`Z`E`E`w`..b`r`2`2`2`2`2`2`2`2`2`2`2",
"`2`2`2`2`2`2`2`2`2`2`2`2`2`2`2`2`2`2`2.K`Z.``w.r`E`w.h`k`h`2`2`2`2`2`2`2`2`2`2`2",
"`2`2`2`2`2`2`2`2`2`2`2`2`2`2`2`2`2`2`2.K.`.``w.r`E`Z`q`7.G`2`2`2`2`2`2`2`2`2`2`2",
"`2`2`2`2`2`2`2`2`2`2`2`2`2`2`2`2`2`2.e.K`R.``w`E.r.``R`7.w`2`2`2`2`2`2`2`2`2`2`2",
"`2`2`2`2`2`2`2`2`2`2`2`2`2`2`2`2`2`2`8`7`w.``w`Z`Z.``Z.w.b`2`2`2`2`2`2`2`2`2`2`2",
"`2`2`2`2`2`2`2`2`2`2`2`2`2`2`2`2`2`2.w`e`Z`j`Z`Z`w.``w`F.n`2`2`2`2`2`2`2`2`2`2`2",
"`2`2`2`2`2`2`2`2`2`2`2`2`2`2`2`2`2`2.n`R`Z.r`E`E`Z`Z.`.p.g`2`2`2`2`2`2`2`2`2`2`2",
"`2`2`2`2`2`2`2`2`2`2`2`2`2`2`2`2`2`2`v`w`Z`E`j`J.r`Z`w`g`k`2`2`2`2`2`2`2`2`2`2`2",
"`2`2`2`2`2`2`2`2`2`2`2`2`2`2`2`2`2`2.n`Z`w`j`E`j`E`w`Z`4`k`2`2`2`2`2`2`2`2`2`2`2",
"`2`2`2`2`2`2`2`2`2`2`2`2`2`2`2`2`2`2`v.L`Z`E`j`E`E`Z.`.B`k.l`2`2`2`2`2`2`2`2`2`2",
"`2`2`2`2`2`2`2`2`2`2`2`2`2`2`2`2`2`2.n`Z`Z`Z`Z`Z`Z`Z`R`f.g.i`2`2`2`2`2`2`2`2`2`2",
"`2`2`2`2`2`2`2`2`2`2`2`2`2`2`2`2`2`2.K.``Z`j.r`w`Z`j`q.B`k`2`2`2`2`2`2`2`2`2`2`2",
"`2`2`2`2`2`2`2`2`2`2`2`2`2`2`2`2`2`2.K`Z`w`j.r`w`Z`Z`w`f`k.A`2`2`2`2`2`2`2`2`2`2",
"`2`2`2`2`2`2`2`2`2`2`2`2`2`2`2`2`2`2.n`q`w`Z`X`j`Z.`.``T`F`2`2`2`2`2`2`2`2`2`2`2",
"`2`2`2`2`2`2`2`2`2`2`2`2`2`2`2`2`2`2`2``.K.r`w`w`w`q.z.K`k`2`2`2`2`2`2`2`2`2`2`2",
"`2`2`2`2`2`2`2`2`2`2`2`2`2`2`2`2`2`2.w`7`x.K`A.K.K.K`A.g`k`2`2`2`2`2`2`2`2`2`2`2",
"`2`2`2`2`2`2`2`2`2`2`2`2`2`2`2`2`2`2`k`A.``Z`R`Z`w`w`Z.s.a`2`2`2`2`2`2`2`2`2`2`2",
"`2`2`2`2`2`2`2`2`2`2`2`2`2`2`2`2`2`2`H.b.K.s.K.n.n.K.s.w.n.v`2`2`2`2`2`2`2`2`2`2",
"`2`2`2`2`2`2`2`2`2`2`2`2`2`2`2`2`2`2.K.``w`Z`w`j`R`Z`Z.n`k.i`2`2`2`2`2`2`2`2`2`2",
"`2`2`2`2`2`2`2`2`2`2`2`2`2`2`2`2`2`2.u``.K.m.H`Z.``7.s`A`W`2`2`2`2`2`2`2`2`2`2`2",
"`2`2`2`2`2`2`2`2`2`2`2`2`2`2`2`2`2`2`2.u.h.``w`w`R`f.w.g`2`2`2`2`2`2`2`2`2`2`2`2",
"`2`2`2`2`2`2`2`2`2`2`2`2`2`2`2`2`2`2`2.u`e`f`w.`.``w.B`k`2`2`2`2`2`2`2`2`2`2`2`2",
"`2`2`2`2`2`2`2`2`2`2`2`2`2`2`2`2`2`2`2.u`7`6`w`R`R.``u`0`2`2`2`2`2`2`2`2`2`2`2`2",
"`2`2`2`2`2`2`2`2`2`2`2`2`2`2`2`2`2`2`2.G`7.``w.`.`.``.`k`2`2`2`2`2`2`2`2`2`2`2`2",
"`2`2`2`2`2`2`2`2`2`2`2`2`2`2`2`2`2`2`2.u.w`R`w.``R`w`F.g`2`2`2`2`2`2`2`2`2`2`2`2",
"`2`2`2`2`2`2`2`2`2`2`2`2`2`2`2`2`2`2`2`F.m.`.`.`.L`w`e`k`2`2`2`2`2`2`2`2`2`2`2`2",
"`2`2`2`2`2`2`2`2`2`2`2`2`2`2`2`2`2`2`2.n.``M`E`Z`w`Z`e`k`2`2`2`2`2`2`2`2`2`2`2`2",
"`2`2`2`2`2`2`2`2`2`2`2`2`2`2`2`2`2`2`2`s`w`w`w`E`6.L.z`v`2`2`2`2`2`2`2`2`2`2`2`2",
"`2`2`2`2`2`2`2`2`2`2`2`2`2`2`2`2`2`2`2.K`w`Z`Z.r`Z`J.h`v`2`2`2`2`2`2`2`2`2`2`2`2",
"`2`2`2`2`2`2`2`2`2`2`2`2`2`2`2`2`2`2`2.K`Z`Z`E`E`Z`j`P.y`2`2`2`2`2`2`2`2`2`2`2`2",
"`2`2`2`2`2`2`2`2`2`2`2`2`2`2`2`2`2`2`2.f`Z`J`E`Z`E`E`R`x.G`2`2`2`2`2`2`2`2`2`2`2",
"`2`2`2`2`2`2`2`2`2`2`2`2`2`2`2`2`2`2`2`i`w`j.r`Z`E`E`w`F.w`2`2`2`2`2`2`2`2`2`2`2",
"`2`2`2`2`2`2`2`2`2`2`2`2`2`2`2`2`2`2`8`x`E`Z`E`Z`j`X`Z.w`k`2`2`2`2`2`2`2`2`2`2`2",
"`2`2`2`2`2`2`2`2`2`2`2`2`2`2`2`2`2`2.w`e`j`w.r`Z`j.H`w.w.g`2`2`2`2`2`2`2`2`2`2`2",
"`2`2`2`2`2`2`2`2`2`2`2`2`2`2`2`2`2`2.n`f`Z`Z`E.r`E.r`w`7`k`2`2`2`2`2`2`2`2`2`2`2",
"`2`2`2`2`2`2`2`2`2`2`2`2`2`2`2`2`2`2.K`w`Z`Z`J`j.r`j`Z`7.g`2`2`2`2`2`2`2`2`2`2`2",
"`2`2`2`2`2`2`2`2`2`2`2`2`2`2`2`2`2`2.K`Z`Z.r`Z`Z`E.r`Z.B.g`2`2`2`2`2`2`2`2`2`2`2",
"`2`2`2`2`2`2`2`2`2`2`2`2`2`2`2`2`2`2.K`w`E`E`Z`Z`E`Z`Z`q.g`2`2`2`2`2`2`2`2`2`2`2",
"`2`2`2`2`2`2`2`2`2`2`2`2`2`2`2`2`2`2.K`R`Z`w`Z.I`Z`X`w`f.w`h`2`2`2`2`2`2`2`2`2`2",
"`2`2`2`2`2`2`2`2`2`2`2`2`2`2`2`2`2`2.K`w`Z`Z`Z`E`E`j`w`f`x`L`2`2`2`2`2`2`2`2`2`2",
"`2`2`2`2`2`2`2`2`2`2`2`2`2`2`2`2`2`2.f`w`Z`E`Z`Z`Z`w`R`f.g`G`2`2`2`2`2`2`2`2`2`2",
"`2`2`2`2`2`2`2`2`2`2`2`2`2`2`2`2`2`2`v.``w`Z`d`E`Z`w`w`f`k`2`2`2`2`2`2`2`2`2`2`2",
"`2`2`2`2`2`2`2`2`2`2`2`2`2`2`2`2`2`2.g`O.H`w`j`w`Z.D`R.K`A.v`2`2`2`2`2`2`2`2`2`2",
"`2`2`2`2`2`2`2`2`2`2`2`2`2`2`2`2`2`2`A.y`i`x.H`X.H`7`v.n`k`k`2`2`2`2`2`2`2`2`2`2",
"`2`2`2`2`2`2`2`2`2`2`2`2`2`2`2`2`2`2`A.n`7`w`w`w`w`Z`R.K`a.w`2`2`2`2`2`2`2`2`2`2",
"`2`2`2`2`2`2`2`2`2`2`2`2`2`2`2`2`2`2`O.K.K`x`.`7.z`7.n.K.x`W`2`2`2`2`2`2`2`2`2`2",
"`2`2`2`2`2`2`2`2`2`2`2`2`2`2`2`2`2`2.g.b`Z`Z`Z`w`w`w`w.g`k`W`2`2`2`2`2`2`2`2`2`2",
"`2`2`2`2`2`2`2`2`2`2`2`2`2`2`2`2`2`2.t..`v.#`..b`7.h`A`O.G`2`2`2`2`2`2`2`2`2`2`2",
"`2`2`2`2`2`2`2`2`2`2`2`2`2`2`2`2`2`2`2.n`w`w`w`w`Z`Z.B.w`2`2`2`2`2`2`2`2`2`2`2`2",
"`2`2`2`2`2`2`2`2`2`2`2`2`2`2`2`2`2`2`2.n`Z`Z`Z`Z`E`Z.B.w`2`2`2`2`2`2`2`2`2`2`2`2",
"`2`2`2`2`2`2`2`2`2`2`2`2`2`2`2`2`2`2`2.K`Z`E`E`Z`j`Z.m`k`2`2`2`2`2`2`2`2`2`2`2`2",
"`2`2`2`2`2`2`2`2`2`2`2`2`2`2`2`2`2`2`2.K`w`Z`E`Z.r`w.#`k`2`2`2`2`2`2`2`2`2`2`2`2",
"`2`2`2`2`2`2`2`2`2`2`2`2`2`2`2`2`2`2`2`A`w`Z`j`Z`j`Z`u`v`2`2`2`2`2`2`2`2`2`2`2`2",
"`2`2`2`2`2`2`2`2`2`2`2`2`2`2`2`2`2`2`2`A`w`w.r.r`E`w`K.n`2`2`2`2`2`2`2`2`2`2`2`2",
"`2`2`2`2`2`2`2`2`2`2`2`2`2`2`2`2`2`2`8`7`Z`Z`J`E`Z`Z`q`7.u`2`2`2`2`2`2`2`2`2`2`2",
"`2`2`2`2`2`2`2`2`2`2`2`2`2`2`2`2`2`2`k.H`Z`E.r`E`Z`w`R`7.E`2`2`2`2`2`2`2`2`2`2`2",
"`2`2`2`2`2`2`2`2`2`2`2`2`2`2`2`2`2`2.K`w`Z`Z`Z`Z`Z`Z`w.w`v`2`2`2`2`2`2`2`2`2`2`2",
"`2`2`2`2`2`2`2`2`2`2`2`2`2`2`2`2`2`2.K`Z`j`Z`w`Z`Z`Z.`.w.n`2`2`2`2`2`2`2`2`2`2`2",
"`2`2`2`2`2`2`2`2`2`2`2`2`2`2`2`2`2`2.K`Z`X`w`Z.H`Z`Z`w.m`k`2`2`2`2`2`2`2`2`2`2`2",
"`2`2`2`2`2`2`2`2`2`2`2`2`2`2`2`2`2`2.n`w.`.``Z`Z`w`w.`.d`W`D`2`2`2`2`2`2`2`2`2`2",
"`2`2`2`2`2`2`2`2`2`2`2`2`2`2`2`2`2`2`v`e.H`Z`w.H`E`Z`w.m.K`2`2`2`2`2`2`2`2`2`2`2",
"`2`2`2`2`2`2`2`2`2`2`2`2`2`2`2`2`2`r`a.s`e.I.H`w`w`X`q.s`A.C`2`2`2`2`2`2`2`2`2`2",
"`2`2`2`2`2`2`2`2`2`2`2`2`2`2`2`2`2.u`S`R`7.K`s`7.n.K.b`w`7`v`2`2`2`2`2`2`2`2`2`2",
"`2`2`2`2`2`2`2`2`2`2`2`2`2`2`2`2.u.K.J`w`f.`.``e.m`w`Z.y`A`A`G`2`2`2`2`2`2`2`2`2",
"`2`2`2`2`2`2`2`2`2`2`2`2`2`2`2`2.K`F`A`7.q.K.K.n.K`A.b.h`e.n`k`2`2`2`2`2`2`2`2`2",
"`2`2`2`2`2`2`2`2`2`2`2`2`2`2`2`2.K`R.m.K.m`Z`w`Z`Z`w.y.K.n.K`v`r`2`2`2`2`2`2`2`2",
"`2`2`2`2`2`2`2`2`2`2`2`2`2`2`2`2.K`f`f`w.b`O`Z.z.K.b`w.``w.B.g.A`2`2`2`2`2`2`2`2",
"`2`2`2`2`2`2`2`2`2`2`2`2`2`2`2`2.K`f`f.B`Z`m.n.K`e`Z`Z`6`Z`8`k`r`2`2`2`2`2`2`2`2",
"`2`2`2`2`2`2`2`2`2`2`2`2`2`2`2`2.K`w`Z`Z`w`f.K`6`Z`j`Z`E`w.h.g.l`2`2`2`2`2`2`2`2",
"`2`2`2`2`2`2`2`2`2`2`2`2`2`2`2`2.K.`.I`Z`w`f.K`w`Z`j`Z`E`Z.h`k`r`2`2`2`2`2`2`2`2",
"`2`2`2`2`2`2`2`2`2`2`2`2`2`2`2`2.K`R.r`Z`Z`q.K`w`Z`J`Z.r`w.B`k`r`2`2`2`2`2`2`2`2",
"`2`2`2`2`2`2`2`2`2`2`2`2`2`2`2`2.n.``w`Z`Z`q`3`w`Z.r`Z`E`w.B`k`r`2`2`2`2`2`2`2`2",
"`2`2`2`2`2`2`2`2`2`2`2`2`2`2`2`2.n`f`X`Z`w`f.K`6`Z.r`Z`E`w.B`0`r`2`2`2`2`2`2`2`2",
"`2`2`2`2`2`2`2`2`2`2`2`2`2`2.l`2`k`X.H`Z`Z`f.K`Z`Z`E`Z`E`6.B`k`r`2`2`2`2`2`2`2`2",
"`2`2`2`2`2`2`2`2`2`2`2`2`2`2`2`2`A`w`w`Z`w`f.K`w`Z.r`Z`E`w.B`k`r`2`2`2`2`2`2`2`2",
"`2`2`2`2`2`2`2`2`2`2`2`2`2`2`2`2.g`u`Z`Z`w`q.K`w`Z.r`Z`E`w.B`k`r`2`2`2`2`2`2`2`2",
"`2`2`2`2`2`2`2`2`2`2`2`2`2`2`2`2.K`Z.r`Z`w`q.K`w`Z.r`Z`E`Z.B`k`r`2`2`2`2`2`2`2`2",
"`2`2`2`2`2`2`2`2`2`2`2`2`2`2`2`2.K`w`E`z`Z`q.K`w`w.r`Z`E`Z.B`k`r`2`2`2`2`2`2`2`2",
"`2`2`2`2`2`2`2`2`2`2`2`2`2`2`2`2.K`w.H`j`Z`q.K`w`w.r`Z`E`Z.B`k`r`2`2`2`2`2`2`2`2",
"`2`2`2`2`2`2`2`2`2`2`2`2`2`2`2`2.n`w`w`E.I`f.K`Z`w`j`Z`E`Z.B`k`r`2`2`2`2`2`2`2`2",
"`2`2`2`2`2`2`2`2`2`2`2`2`2`2`2`2`v.h`w`J`Z`f.K`w`w`j`Z`E`Z.B`k`r`2`2`2`2`2`2`2`2",
"`2`2`2`2`2`2`2`2`2`2`2`2`2`2`2`2`v`w`E.r`Z`f.K`w`w.r`Z`E`w.B`k`r`2`2`2`2`2`2`2`2",
"`2`2`2`2`2`2`2`2`2`2`2`2`2`2`2`2.K.B`Z`J`Z`f.K`w`w.r`Z`E`w.B`k`r`2`2`2`2`2`2`2`2",
"`2`2`2`2`2`2`2`2`2`2`2`2`2`2`2`2.K.``w`E`j`q.K`w`w`j`Z`E`Z.B`k`r`2`2`2`2`2`2`2`2",
"`2`2`2`2`2`2`2`2`2`2`2`2`2`2`2`2`v`Z`E`j`Z`f.K`w`w`j`Z`E`Z.B`k`r`2`2`2`2`2`2`2`2",
"`2`2`2`2`2`2`2`2`2`2`2`2`2`2`2`2.K`q`Z`E`Z`f.K`Z`w.r`Z`E`Z.B`k`r`2`2`2`2`2`2`2`2",
"`2`2`2`2`2`2`2`2`2`2`2`2`2`2`2`2.n`w`E`E`Z`q.K`w`w.r`Z`E`Z.B`k`r`2`2`2`2`2`2`2`2",
"`2`2`2`2`2`2`2`2`2`2`2`2`2`2`2`2`v`w.r`Z`w`f.K`w`Z.r`Z`E`Z.B`k`r`2`2`2`2`2`2`2`2",
"`2`2`2`2`2`2`2`2`2`2`2`2`2`2`2`2.K.B`M`Z`w`f.K`Z`Z.r`Z`E`w.B`k`r`2`2`2`2`2`2`2`2",
"`2`2`2`2`2`2`2`2`2`2`2`2`2`2`2`2`A`Z`X`Z`M`f.K`w`Z.r`Z`E`w.B`k`r`2`2`2`2`2`2`2`2",
"`2`2`2`2`2`2`2`2`2`2`2`2`2`2`2`2.s`w.r`Z`Z`q.K`w`Z.r`Z`E`w.B.g`r`2`2`2`2`2`2`2`2",
"`2`2`2`2`2`2`2`2`2`2`2`2`2`2`2`2.s.B`w`Z`w`f.K`w`Z.r`Z`E`Z.B.g`r`2`2`2`2`2`2`2`2",
"`2`2`2`2`2`2`2`2`2`2`2`2`2`2`2`2.n`w.r`Z`w`q.K`Z`Z.r`Z`Z`w.B`k`r`2`2`2`2`2`2`2`2",
"`2`2`2`2`2`2`2`2`2`2`2`2`2`2`2`2.K.``w.L`w`f.K`Z`Z`j`w`E`Z`f`k`r`2`2`2`2`2`2`2`2",
"`2`2`2`2`2`2`2`2`2`2`2`2`2`2`2`2.n`w`f`R`w.r.K`w`w`E`Z`E.``f`k`r`2`2`2`2`2`2`2`2",
"`2`2`2`2`2`2`2`2`2`2`2`2`2`2`2`2`A`w.`.``Z`X.K`w`Z`E`w`E.``q`k`r`2`2`2`2`2`2`2`2",
"`2`2`2`2`2`2`2`2`2`2`2`2`2`2`2`2.K.``R`R`Z`X.f`Z`Z`E`Z`j.``f.g`r`2`2`2`2`2`2`2`2",
"`2`2`2`2`2`2`2`2`2`2`2`2`2`2`2`2.s.``w`R`Z`X.K`w`Z`E`Z`E.``f.g`r`2`2`2`2`2`2`2`2",
"`2`2`2`2`2`2`2`2`2`2`2`2`2`2`2`2.K`Z.`.``Z`j.K`Z`Z`Z`j`w.`.B.w`r`2`2`2`2`2`2`2`2",
"`2`2`2`2`2`2`2`2`2`2`2`2`2`2`2`2.n.``w`R`w.H.K`w`Z.H`E`Z`Z.B.g`r`2`2`2`2`2`2`2`2",
"`2`2`2`2`2`2`2`2`2`2`2`2`2`2`2`2`k`k`Z`Z`f`q`i`w`Z`Z`Z`X`M`q`k`2`2`2`2`2`2`2`2`2",
"`2`2`2`2`2`2`2`2`2`2`2`2`2`2`2`2`2`W.K.m`w`w.K`Z`w`X`w`w.`.g`v`B`2`2`2`2`2`2`2`2",
"`2`2`2`2`2`2`2`2`2`2`2`2`2`2`2`2`2`2`W.K.c`w.K`w`w`Z`Z`K.b`y`F`2`2`2`2`2`2`2`2`2",
"`2`2`2`2`2`2`2`2`2`2`2`2`2`2`2`2`2`2`2`2`N`1`k`w`k`A`C`2`2`2`2`2`2`2`2`2`2`2`2`2",
"`2`2`2`2`2`2`2`2`2`2`2`2`2`2`2`2`2`2`2`2`2`5..`H.u`Q`2`2`2`2`2`2`2`2`2`2`2`2`2`2",
"`2`2`2`2`2`2`2`2`2`2`2`2`2`2`2`2`2`2`2`2`2`2`2`2`2`2`2`2`2`2`2`2`2`2`2`2`2`2`2`2"
};
