/* XPM */
static char *DVY_RoofTile_1x2x45_xpm[] = {
/* width height num_colors chars_per_pixel */
"    64    64       32            1",
/* colors */
"` c #7c0000",
". c #ce8989",
"# c #a04749",
"a c #af0000",
"b c #bc2628",
"c c #ffc9c6",
"d c #802628",
"e c #d30000",
"f c #9c0000",
"g c #b36766",
"h c #ffe9e8",
"i c #dda9a7",
"j c #bc1500",
"k c #971619",
"l c #d11716",
"m c #c00000",
"n c #ba4447",
"o c #d27172",
"p c #e42830",
"q c #e38f92",
"r c #9d3031",
"s c #ffb0ad",
"t c #a45a5a",
"u c #761619",
"v c #b87777",
"w c #cf9997",
"x c #b0383b",
"y c #ffd7d4",
"z c #83373a",
"A c #dfb8b5",
"B c #c05a5d",
"C c #ffffff",
/* pixels */
"CCCCCCCCCCCCCCCCCCCCCCCCCCCCCCCCCCCCCCCCCCCCCCCCCCCCCCCCCCCCCCCC",
"CCCCCCCCCCCCCCCCCCCCCCCCCCCCCCCCCCCCCCCCCCCCCCCCCCCCCCCCCCCCCCCC",
"CCCCCCCCCCCCCCCCCCCCCCCCCCCCCCCCCCCCCCCCCCCCCCCCCCCCCCCCCCCCCCCC",
"CCCCCCCCCCCCCCCCCCCCCCCCCCCCCCCCCCCCCCCCCCCCCCCCCCCCCCCCCCCCCCCC",
"CCCCCCCCCCCCCCCCCCCCCCCCCCCCCCCCCCCCCCCCCCCCCCCCCCCCCCCCCCCCCCCC",
"CCCCCCCCCCCCCCCCCCCCCCCCCCCCCCCCCCCCCCCCCCCCCCCCCCCCCCCCCCCCCCCC",
"CCCCCCCCCCCCCCCCCCCCCCCCCCCCCCCCCCCCCCCCCCCCCCCCCCCCCCCCCCCCCCCC",
"CCCCCCCCCCCCCCCCCCCCCCCCCCCCCCCCCCCCCCCCCCCCCCCCCCCCCCCCCCCCCCCC",
"CCCCCCCCCCCCCCCCCCCCCCCCCCCCCCCCCCCCCCCCCCCCCCCCCCCCCCCCCCCCCCCC",
"CCCCCCCCCCCCCCCCCCCChyii.gz.cCCCCCCCCCCCCCCCCCCCCCCCCCCCCCCCCCCC",
"CCCCCCCCCCCCCCCCCChcwvtt#zuzvAhCCCCCCCCCCCCCCCCCCCCCCCCCCCCCCCCC",
"CCCCCCCCCCCCCCCCChAvz`u`uuuudtcCCCCCCCCCCCCCCCCCCCCCCCCCCCCCCCCC",
"CCCCCCCCCCCCCCChhc#d`````````uzchCCCCCCCCCCCCCCCCCCCCCCCCCCCCCCC",
"CCCCCCCCCCCCChA.#uu```````fkk``dwyCCCCCCCCCCCCCCCCCCCCCCCCCCCCCC",
"CCCCCCCCCChyiv#zu```````````````zgACCCCCCCCCCCCCCCCCCCCCCCCCCCCC",
"CCCCCCCCChA.tduu```ff````````````dvAhCCCCCCCCCCCCCCCCCCCCCCCCCCC",
"CCCCCCCCCitu``````ffaffff``ff`````utchhCCCCCCCCCCCCCCCCCCCCCCCCC",
"CCCCCCCCC.#kk`````ffjlppppljaf`````uzwhCCCCCCCCCCCCCCCCCCCCCCCCC",
"CCCCCCCChqn`ff````ffjlpppplmaf```````dgyCCCCCCCCCCCCCCCCCCCCCCCC",
"CCCCCCCChqn`fff````fjlpppplmaf```````kxqCCCCCCCCCCCCCCCCCCCCCCCC",
"CCCCCCCCC.nkffff```fkjpppplmaf`````ffjjnhCCCCCCCCCCCCCCCCCCCCCCC",
"CCCCCCCCC.nkfffff````fjlllaff```ffammembshCCCCCCCCCCCCCCCCCCCCCC",
"CCCCCCCCC.nffffffff`````fff``ffammeeeemjByCCCCCCCCCCCCCCCCCCCCCC",
"CCCCCCCCC.nfffffffff``````fffjameeeeeeejrihCCCCCCCCCCCCCCCCCCCCC",
"CCCCCCCCC.nffffffffff``ffffaajmeeeeeeeejkqcCCCCCCCCCCCCCCCCCCCCC",
"CCCCCCCCC.nfffffffffffffamlmmeeeeeeeeeemjnqhCCCCCCCCCCCCCCCCCCCC",
"CCCCCCCCC.n`ffffffafffljmeeeeeeeeeeeeeeeljoyCCCCCCCCCCCCCCCCCCCC",
"CCCCCCCCC.#kfffffffffalleeeeeeeeeeeeeeeeemnqhCCCCCCCCCCCCCCCCCCC",
"CCCCCCCCC.#kffffffffffjlleeeeeeeeeeeeeeeejbghCCCCCCCCCCCCCCCCCCC",
"CCCCCCCCC.#kffffffffffalleeeeeeeeeeeeeeeeljxcCCCCCCCCCCCCCCCCCCC",
"CCCCCCCCC.xffffffffffffjleeeeeeeeeeeeeeeeembqhCCCCCCCCCCCCCCCCCC",
"CCCCCCCCC.nkfffffffffffajlmeeeeeeeeeeeeeeeejxyhCCCCCCCCCCCCCCCCC",
"CCCCCCCCC.x`fafffffffffajleeeeeeeeeeeeeeeeeejiyCCCCCCCCCCCCCCCCC",
"CCCCCCCCh.x`fafffffffffamlleeeeeeeeeeeeeeeeejocCCCCCCCCCCCCCCCCC",
"CCCCCCCCh.#kffffffffffffajleeeeeeeeeeeeeeleelxihCCCCCCCCCCCCCCCC",
"CCCCCCCCC.#uffffffffffffaaleeeeeeeeeeeeeeeeeejocCCCCCCCCCCCCCCCC",
"CCCCCCCCCAtukffffffffffffalleeeeeeeeeeeeeeeeejn.hCCCCCCCCCCCCCCC",
"CCCCCCCCCyitkfffffffffffffjlleeeeeeeeeeeeeeeembByCCCCCCCCCCCCCCC",
"CCCCCCCCChyi#kffffffffffffalleeeeeeeeeeeeeeeeejniCCCCCCCCCCCCCCC",
"CCCCCCCCCCChsrkkffffffffffflleeeeeeeeeeeeeeeeejbohCCCCCCCCCCCCCC",
"CCCCCCCCCCCChygdkffffffffffajleeeeeeeeeeeeeeeemjxchCCCCCCCCCCCCC",
"CCCCCCCCCCCCChywrkffffffffffjlleeeeeeeeeeeeeeeejbqhCCCCCCCCCCCCC",
"CCCCCCCCCCCCCChc.rkfffffffffalleeeeeeeeeeeeeeeemjnchCCCCCCCCCCCC",
"CCCCCCCCCCCCCCChyvrkffffffffajleeeeeeeeeeeeeeeeembiyCCCCCCCCCCCC",
"CCCCCCCCCCCCCCCCChwtkffffffffaleeeeeeeeeeeeeeeeeejoACCCCCCCCCCCC",
"CCCCCCCCCCCCCCCCCChc.ufffffffajleeeeeeeeeeeeeeeeelx.hCCCCCCCCCCC",
"CCCCCCCCCCCCCCCCCCChc.kkfffffaaleeeeeeeeeeeeeeeeejkoyCCCCCCCCCCC",
"CCCCCCCCCCCCCCCCCCCChcgrkfffffalleeeeeeeeeeeeeeeemkocCCCCCCCCCCC",
"CCCCCCCCCCCCCCCCCCCCChyvrkfffffjlleeeeeeeeeeeeeeemkocCCCCCCCCCCC",
"CCCCCCCCCCCCCCCCCCCCCCChi#`ffffalleeeeeeeeeeemmmmfuoyCCCCCCCCCCC",
"CCCCCCCCCCCCCCCCCCCCCCCChcgu`ffajlleeeeeeeemmmaakdgihCCCCCCCCCCC",
"CCCCCCCCCCCCCCCCCCCCCCCCChABrkffalleeeeeemmmafkxB.AyCCCCCCCCCCCC",
"CCCCCCCCCCCCCCCCCCCCCCCCCChigrffajlmeeeemaakkrnoihCCCCCCCCCCCCCC",
"CCCCCCCCCCCCCCCCCCCCCCCCCCChc.kffjllmmmmajkrgAyhCCCCCCCCCCCCCCCC",
"CCCCCCCCCCCCCCCCCCCCCCCCCCCCChsdkfjjajjkkBqchCCCCCCCCCCCCCCCCCCC",
"CCCCCCCCCCCCCCCCCCCCCCCCCCCCChhi#kkkkkroicyhCCCCCCCCCCCCCCCCCCCC",
"CCCCCCCCCCCCCCCCCCCCCCCCCCCCCCChwtrrnB.AhhCCCCCCCCCCCCCCCCCCCCCC",
"CCCCCCCCCCCCCCCCCCCCCCCCCCCCCCCChAvgiyhhCCCCCCCCCCCCCCCCCCCCCCCC",
"CCCCCCCCCCCCCCCCCCCCCCCCCCCCCCCCCChhhCCCCCCCCCCCCCCCCCCCCCCCCCCC",
"CCCCCCCCCCCCCCCCCCCCCCCCCCCCCCCCCCCCCCCCCCCCCCCCCCCCCCCCCCCCCCCC",
"CCCCCCCCCCCCCCCCCCCCCCCCCCCCCCCCCCCCCCCCCCCCCCCCCCCCCCCCCCCCCCCC",
"CCCCCCCCCCCCCCCCCCCCCCCCCCCCCCCCCCCCCCCCCCCCCCCCCCCCCCCCCCCCCCCC",
"CCCCCCCCCCCCCCCCCCCCCCCCCCCCCCCCCCCCCCCCCCCCCCCCCCCCCCCCCCCCCCCC",
"CCCCCCCCCCCCCCCCCCCCCCCCCCCCCCCCCCCCCCCCCCCCCCCCCCCCCCCCCCCCCCCC"
};
