/* XPM */
static char *DVY_Plate_1x1_xpm[] = {
/* width height num_colors chars_per_pixel */
"   100   100       16            1",
/* colors */
"` c #7a0000",
". c #c88f8d",
"# c #a94f50",
"a c #bb0000",
"b c #943132",
"c c #ffd0cc",
"d c #9c0000",
"e c #bf2827",
"f c #ff4d4c",
"g c #ffb1ae",
"h c #b2706f",
"i c #c97373",
"j c #ffffff",
"k c #ff2c29",
"l c #e19695",
"m c #e3181a",
/* pixels */
"jjjjjjjjjjjjjjjjjjjjjjjjjjjjjjjjjjjjjjjjjjjjjjjjjjjjjjjjjjjjjjjjjjjjjjjjjjjjjjjjjjjjjjjjjjjjjjjjjjjj",
"jjjjjjjjjjjjjjjjjjjjjjjjjjjjjjjjjjjjjjjjjjjjjjjjjjjjjjjjjjjjjjjjjjjjjjjjjjjjjjjjjjjjjjjjjjjjjjjjjjjj",
"jjjjjjjjjjjjjjjjjjjjjjjjjjjjjjjjjjjjjjjjjjjjjjjjjjjjjjjjjjjjjjjjjjjjjjjjjjjjjjjjjjjjjjjjjjjjjjjjjjjj",
"jjjjjjjjjjjjjjjjjjjjjjjjjjjjjjjjjjjjjjjjjjjjjjjjjjjjjjjjjjjjjjjjjjjjjjjjjjjjjjjjjjjjjjjjjjjjjjjjjjjj",
"jjjjjjjjjjjjjjjjjjjjjjjjjjjjjjjjjjjjjjjjjjjjjjjjjjjjjjjjjjjjjjjjjjjjjjjjjjjjjjjjjjjjjjjjjjjjjjjjjjjj",
"jjjjjjjjjjjjjjjjjjjjjjjjjjjjjjjjjjjjjjjjjjjjjjjjjjjjjjjjjjjjjjjjjjjjjjjjjjjjjjjjjjjjjjjjjjjjjjjjjjjj",
"jjjjjjjjjjjjjjjjjjjjjjjjjjjjjjjjjjjjjjjjjjjjjjjjjjjjjjjjjjjjjjjjjjjjjjjjjjjjjjjjjjjjjjjjjjjjjjjjjjjj",
"jjjjjjjjjjjjjjjjjjjjjjjjjjjjjjjjjjjjjjjjjjjjjjjjjjjjjjjjjjjjjjjjjjjjjjjjjjjjjjjjjjjjjjjjjjjjjjjjjjjj",
"jjjjjjjjjjjjjjjjjjjjjjjjjjjjjjjjjjjjjjjjjjjjjjjjjjjjjjjjjjjjjjjjjjjjjjjjjjjjjjjjjjjjjjjjjjjjjjjjjjjj",
"jjjjjjjjjjjjjjjjjjjjjjjjjjjjjjjjjjjjjjjjjjjjjjjjjjjjjjjjjjjjjjjjjjjjjjjjjjjjjjjjjjjjjjjjjjjjjjjjjjjj",
"jjjjjjjjjjjjjjjjjjjjjjjjjjjjjjjjjjjjjjjjjjjjjjjjjjjjjjjjjjjjjjjjjjjjjjjjjjjjjjjjjjjjjjjjjjjjjjjjjjjj",
"jjjjjjjjjjjjjjjjjjjjjjjjjjjjjjjjjjjjjjjjjjjjjjjjjjjjjjjjjjjjjjjjjjjjjjjjjjjjjjjjjjjjjjjjjjjjjjjjjjjj",
"jjjjjjjjjjjjjjjjjjjjjjjjjjjjjjjjjjjjjjjjjjjjjjjjjjjjjjjjjjjjjjjjjjjjjjjjjjjjjjjjjjjjjjjjjjjjjjjjjjjj",
"jjjjjjjjjjjjjjjjjjjjjjjjjjjjjjjjjjjjjjjjjjjjjjjjjjjjjjjjjjjjjjjjjjjjjjjjjjjjjjjjjjjjjjjjjjjjjjjjjjjj",
"jjjjjjjjjjjjjjjjjjjjjjjjjjjjjjjjjjjjjjjjjjjjjjjjjjjjjjjjjjjjjjjjjjjjjjjjjjjjjjjjjjjjjjjjjjjjjjjjjjjj",
"jjjjjjjjjjjjjjjjjjjjjjjjjjjjjjjjjjjjjjjjjjjjjjjjjjjjjjjjjjjjjjjjjjjjjjjjjjjjjjjjjjjjjjjjjjjjjjjjjjjj",
"jjjjjjjjjjjjjjjjjjjjjjjjjjjjjjjjjjjjjjjjjjjjjjjjjjjjjjjjjjjjjjjjjjjjjjjjjjjjjjjjjjjjjjjjjjjjjjjjjjjj",
"jjjjjjjjjjjjjjjjjjjjjjjjjjjjjjjjjjjjjjjjjjjjjjjjjjjjjjjjjjjjjjjjjjjjjjjjjjjjjjjjjjjjjjjjjjjjjjjjjjjj",
"jjjjjjjjjjjjjjjjjjjjjjjjjjjjjjjjjjjjjjjjjjjjjjjjjjjjjjjjjjjjjjjjjjjjjjjjjjjjjjjjjjjjjjjjjjjjjjjjjjjj",
"jjjjjjjjjjjjjjjjjjjjjjjjjjjjjjjjjjjjjjjjjjjjjjjjjjjjjjjjjjjjjjjjjjjjjjjjjjjjjjjjjjjjjjjjjjjjjjjjjjjj",
"jjjjjjjjjjjjjjjjjjjjjjjjjjjjjjjjjjjjjjjjjjjjjjjjjjjjjjjjjjjjjjjjjjjjjjjjjjjjjjjjjjjjjjjjjjjjjjjjjjjj",
"jjjjjjjjjjjjjjjjjjjjjjjjjjjjjjjjjjjjjjjjjjjjjjjjjjjjjjjjjjjjjjjjjjjjjjjjjjjjjjjjjjjjjjjjjjjjjjjjjjjj",
"jjjjjjjjjjjjjjjjjjjjjjjjjjjjjjjjjjjjjjjjjjjjjjjjjjjjjjjjjjjjjjjjjjjjjjjjjjjjjjjjjjjjjjjjjjjjjjjjjjjj",
"jjjjjjjjjjjjjjjjjjjjjjjjjjjjjjjjjjjjjjjjjjjjjjjjjjjjjjjjjjjjjjjjjjjjjjjjjjjjjjjjjjjjjjjjjjjjjjjjjjjj",
"jjjjjjjjjjjjjjjjjjjjjjjjjjjjjjjjjjjjjjjjjjjjjjjjjjccclccjjjjjjjjjjjjjjjjjjjjjjjjjjjjjjjjjjjjjjjjjjjj",
"jjjjjjjjjjjjjjjjjjjjjjjjjjjjjjjjjjjjjjjjjjjjjjjjjjcg.h.ccjjjjjjjjjjjjjjjjjjjjjjjjjjjjjjjjjjjjjjjjjjj",
"jjjjjjjjjjjjjjjjjjjjjjjjjjjjjjjjjjjjjjjjjcccglll..h##b#h.ccjjjjjjjjjjjjjjjjjjjjjjjjjjjjjjjjjjjjjjjjj",
"jjjjjjjjjjjjjjjjjjjjjjjjjjjjjjjjjjjjjjjjccgli###bb``````#lcjjjjjjjjjjjjjjjjjjjjjjjjjjjjjjjjjjjjjjjjj",
"jjjjjjjjjjjjjjjjjjjjjjjjjjjjjjjjjjjjccg.hh###bbbb```````b#.gcjjjjjjjjjjjjjjjjjjjjjjjjjjjjjjjjjjjjjjj",
"jjjjjjjjjjjjjjjjjjjjjjjjjjjjjjjjjjjjcghb`````dddd`````````bhgjjjjjjjjjjjjjjjjjjjjjjjjjjjjjjjjjjjjjjj",
"jjjjjjjjjjjjjjjjjjjjjjjjjjjjjjjjjjcg.h#b````dddddd````````bbhlcjjjjjjjjjjjjjjjjjjjjjjjjjjjjjjjjjjjjj",
"jjjjjjjjjjjjjjjjjjjjjjjjjjjjjjjjjjghb``bbbdddddddddd````````b#lcjjjjjjjjjjjjjjjjjjjjjjjjjjjjjjjjjjjj",
"jjjjjjjjjjjjjjjjjjjjjjjjjjjjjjjjcghbb``ddddddddddddddd```````b#.gjjjjjjjjjjjjjjjjjjjjjjjjjjjjjjjjjjj",
"jjjjjjjjjjjjjjjjjjjjjjjjjjjjjjjclhb````ddddddddddddddddd``````bb.cjjjjjjjjjjjjjjjjjjjjjjjjjjjjjjjjjj",
"jjjjjjjjjjjjjjjjjjjjjjjjjjcccl.h#bb````ddddddddddddddedd````````#hlcjjjjjjjjjjjjjjjjjjjjjjjjjjjjjjjj",
"jjjjjjjjjjjjjjjjjjjjjjjjjjcg.#b````````ddddddddddddeeedd`````````bhgcjjjjjjjjjjjjjjjjjjjjjjjjjjjjjjj",
"jjjjjjjjjjjjjjjjjjjjjjccl.hh#bb````````dddddddddddddddddddd```````bh.ccjjjjjjjjjjjjjjjjjjjjjjjjjjjjj",
"jjjjjjjjjjjjjjjjjjjjjjc.hbb````````````dddd`dddddddddddeeed`````````#.cjjjjjjjjjjjjjjjjjjjjjjjjjjjjj",
"jjjjjjjjjjjjjjjjjccg.hh#bb``````````````````ddddddddddddded`````````b#.gcjjjjjjjjjjjjjjjjjjjjjjjjjjj",
"jjjjjjjjjjjjjjjjcclh#``````````````d````````deeeeeeeaaddddddd`````````bhgjjjjjjjjjjjjjjjjjjjjjjjjjjj",
"jjjjjjjjjjjjjccl.h#bb``````````````ddd``````ddddeeeeaadddddddd````````bbh.cjjjjjjjjjjjjjjjjjjjjjjjjj",
"jjjjjjjjjjjjcc.#b`````````````````ddddddddd```dddeeaaadddddddd``````````b#.cjjjjjjjjjjjjjjjjjjjjjjjj",
"jjjjjjjjjjjjcghbb`````````````````dddaaddddddddddddddddadddddd```````````b#.gcjjjjjjjjjjjjjjjjjjjjjj",
"jjjjjjjjjjjjc.#ddddddd````````````ddaaaaaaddddd`dddddddaaaaddd`````````````bhccjjjjjjjjjjjjjjjjjjjjj",
"jjjjjjjjjjjjg.#ddddddd````````````ddaaaaamaeeeeeeeeeaaaaaaaddd``````````````#hlccjjjjjjjjjjjjjjjjjjj",
"jjjjjjjjjjjjgi#daaaddd````````````ddaaaammmkffffffeeemmmaaadd`````````````````hgcjjjjjjjjjjjjjjjjjjj",
"jjjjjjjjjjjjgi#ddaaaddd```````````ddaaaammmkkkkfkkkmmmmmaaadd`````````````````bh.gcjjjjjjjjjjjjjjjjj",
"jjjjjjjjjjjjgi#ddaaaddd`````````ddddaaaammmmmkkkkkmmmmmmaaadd```````````````````#.gjjjjjjjjjjjjjjjjj",
"jjjjjjjjjjjjgi#ddaaddddd````````ddddaaaammmmkkkkkkmmmmmaaaaddd``````````````````b#.ccjjjjjjjjjjjjjjj",
"jjjjjjjjjjjjgi#dddddddddd````dddddddaaaammmmmkkkkkmmmmmaaaaddd`````````````````d`b#lcjjjjjjjjjjjjjjj",
"jjjjjjjjjjjjghbdddddddddddd`````dddddaaammmmmkkkkkmmmmmaaaadddd``````````ddddddddd#.cjjjjjjjjjjjjjjj",
"jjjjjjjjjjjjghb`ddddddddddddd`````dddaaammmmkkkkkmmmmmmaaaadddd`````````ddddaaaedd#.cjjjjjjjjjjjjjjj",
"jjjjjjjjjjjjgh#`dddddddddddddd````ddddaaammmkkkkkkkmmmmaaaadddd`````ddddddaaaaaaad#.cjjjjjjjjjjjjjjj",
"jjjjjjjjjjjjg.#`dddddddddddaddd`````ddddaeeekfffffkkmmeaaaddddddd`ddddddaaaaaaaaad#.gjjjjjjjjjjjjjjj",
"jjjjjjjjjjjjgh#`dddddddddddadddd`````dddddaeeeeeeeeeaaddddddddddddddddaaaaaaaaaaad#.cjjjjjjjjjjjjjjj",
"jjjjjjjjjjjjghb`dddddadddddaadddd`````````ddddddddddddd````ddddddddaaaaaaaaaaaaaad#lcjjjjjjjjjjjjjjj",
"jjjjjjjjjjjjgh#`dddddddddddddddddd``````````dddddddd```````dddddddaaaaaaaaaaaaaaad#.cjjjjjjjjjjjjjjj",
"jjjjjjjjjjjjc.#`dddddddddddddaddddd````````````````````````ddddaaaaaaaaaaaaaaaaaad#.cjjjjjjjjjjjjjjj",
"jjjjjjjjjjjjcg.#bddddddddddddaaddddd```````````````````ddddddaaaaaaaaaaaaaaaaaaaad#lcjjjjjjjjjjjjjjj",
"jjjjjjjjjjjjjjgi#`ddddddddddddaaadddddd```````````````ddddaaaaaaaaaaaaaaaaaaaaaaadilcjjjjjjjjjjjjjjj",
"jjjjjjjjjjjjjjcg.#bddddddddddddaaadddddd```````````dddddaaaaaaaaaaaaaaaaaaaaaaaaad#lcjjjjjjjjjjjjjjj",
"jjjjjjjjjjjjjjjjcl#`ddddddddddddaaaadddd`````````dddddaaaaaaaaaaaaaaaaaaaaaaaaaadd#lcjjjjjjjjjjjjjjj",
"jjjjjjjjjjjjjjjjcc.hbdddddddddddaaaaddddddd`ddddddddaaaaaaaaaaaaaaaaaaaaaaaaaaaadd#lcjjjjjjjjjjjjjjj",
"jjjjjjjjjjjjjjjjjjcghbdddddddddddaaddaddddddddddaaaaaaaaaaaaaaaaaaaaaaaaaaaaaaaadd#gcjjjjjjjjjjjjjjj",
"jjjjjjjjjjjjjjjjjjccli#bdddddddddddddadddddddaaaaaaaaaaaaaaaaaaaaaaaaaaaaaaaaaadbb.ccjjjjjjjjjjjjjjj",
"jjjjjjjjjjjjjjjjjjjjccibb`dddadddddddaaaaaaaaaaaaaaaaaaaaaaaaaaaaaaaaaaaaaaaaddd#hlcjjjjjjjjjjjjjjjj",
"jjjjjjjjjjjjjjjjjjjjjcg.#bddddddddddddddaaaaaaaaaaaaaaaaaaaaaaaaaaaaaaaaaadde#hi.gcjjjjjjjjjjjjjjjjj",
"jjjjjjjjjjjjjjjjjjjjjjjc.#b`dddddddaddddaaeeeaaaaaaaaaaaaaaaaaaaaaaaaaaaddbb#igccjjjjjjjjjjjjjjjjjjj",
"jjjjjjjjjjjjjjjjjjjjjjjjc.hbbdddddddddddaaaeaaaaaaaaaaaaaaaaaaaaaaaaadeee#i.lgccjjjjjjjjjjjjjjjjjjjj",
"jjjjjjjjjjjjjjjjjjjjjjjjjjlhb`ddddddddddaaamaaaaaaaaaaaaaaaaaaaaaddeddbbilgccjjjjjjjjjjjjjjjjjjjjjjj",
"jjjjjjjjjjjjjjjjjjjjjjjjjjcli#bdddddddddaaamaaaaaaaaaaaaaaaaaaadddeb#iilgccjjjjjjjjjjjjjjjjjjjjjjjjj",
"jjjjjjjjjjjjjjjjjjjjjjjjjjjjgi#``ddddddaaaamaaaaaaaaaaaaaaaaaadddbb#.gcjjjjjjjjjjjjjjjjjjjjjjjjjjjjj",
"jjjjjjjjjjjjjjjjjjjjjjjjjjjjcg.#b``dddddaaamaaaaaaaaaaaaaaaaade##i.lgcjjjjjjjjjjjjjjjjjjjjjjjjjjjjjj",
"jjjjjjjjjjjjjjjjjjjjjjjjjjjjjjcl#```ddddaaamaaaaaaaaaaaaadddeb#ilccjjjjjjjjjjjjjjjjjjjjjjjjjjjjjjjjj",
"jjjjjjjjjjjjjjjjjjjjjjjjjjjjjjcclhbbddddaaamaaaaaaaaaaddebb#i.lgccjjjjjjjjjjjjjjjjjjjjjjjjjjjjjjjjjj",
"jjjjjjjjjjjjjjjjjjjjjjjjjjjjjjjjcghbbdddaaamaaaaaaaaadddbbh.gcjjjjjjjjjjjjjjjjjjjjjjjjjjjjjjjjjjjjjj",
"jjjjjjjjjjjjjjjjjjjjjjjjjjjjjjjjccli#bddaaamaaaaaaaaee#ii.gccjjjjjjjjjjjjjjjjjjjjjjjjjjjjjjjjjjjjjjj",
"jjjjjjjjjjjjjjjjjjjjjjjjjjjjjjjjjjcc.bbddaaeaaaaadddb#.gcjjjjjjjjjjjjjjjjjjjjjjjjjjjjjjjjjjjjjjjjjjj",
"jjjjjjjjjjjjjjjjjjjjjjjjjjjjjjjjjjjcg.#bedeeaadee##i.lgccjjjjjjjjjjjjjjjjjjjjjjjjjjjjjjjjjjjjjjjjjjj",
"jjjjjjjjjjjjjjjjjjjjjjjjjjjjjjjjjjjjjcl#bdeeddbb#ilccjjjjjjjjjjjjjjjjjjjjjjjjjjjjjjjjjjjjjjjjjjjjjjj",
"jjjjjjjjjjjjjjjjjjjjjjjjjjjjjjjjjjjjjjcli##e##i.lgcjjjjjjjjjjjjjjjjjjjjjjjjjjjjjjjjjjjjjjjjjjjjjjjjj",
"jjjjjjjjjjjjjjjjjjjjjjjjjjjjjjjjjjjjjjjjgih#ilgcjjjjjjjjjjjjjjjjjjjjjjjjjjjjjjjjjjjjjjjjjjjjjjjjjjjj",
"jjjjjjjjjjjjjjjjjjjjjjjjjjjjjjjjjjjjjjjjcgllggcjjjjjjjjjjjjjjjjjjjjjjjjjjjjjjjjjjjjjjjjjjjjjjjjjjjjj",
"jjjjjjjjjjjjjjjjjjjjjjjjjjjjjjjjjjjjjjjjjjjjjjjjjjjjjjjjjjjjjjjjjjjjjjjjjjjjjjjjjjjjjjjjjjjjjjjjjjjj",
"jjjjjjjjjjjjjjjjjjjjjjjjjjjjjjjjjjjjjjjjjjjjjjjjjjjjjjjjjjjjjjjjjjjjjjjjjjjjjjjjjjjjjjjjjjjjjjjjjjjj",
"jjjjjjjjjjjjjjjjjjjjjjjjjjjjjjjjjjjjjjjjjjjjjjjjjjjjjjjjjjjjjjjjjjjjjjjjjjjjjjjjjjjjjjjjjjjjjjjjjjjj",
"jjjjjjjjjjjjjjjjjjjjjjjjjjjjjjjjjjjjjjjjjjjjjjjjjjjjjjjjjjjjjjjjjjjjjjjjjjjjjjjjjjjjjjjjjjjjjjjjjjjj",
"jjjjjjjjjjjjjjjjjjjjjjjjjjjjjjjjjjjjjjjjjjjjjjjjjjjjjjjjjjjjjjjjjjjjjjjjjjjjjjjjjjjjjjjjjjjjjjjjjjjj",
"jjjjjjjjjjjjjjjjjjjjjjjjjjjjjjjjjjjjjjjjjjjjjjjjjjjjjjjjjjjjjjjjjjjjjjjjjjjjjjjjjjjjjjjjjjjjjjjjjjjj",
"jjjjjjjjjjjjjjjjjjjjjjjjjjjjjjjjjjjjjjjjjjjjjjjjjjjjjjjjjjjjjjjjjjjjjjjjjjjjjjjjjjjjjjjjjjjjjjjjjjjj",
"jjjjjjjjjjjjjjjjjjjjjjjjjjjjjjjjjjjjjjjjjjjjjjjjjjjjjjjjjjjjjjjjjjjjjjjjjjjjjjjjjjjjjjjjjjjjjjjjjjjj",
"jjjjjjjjjjjjjjjjjjjjjjjjjjjjjjjjjjjjjjjjjjjjjjjjjjjjjjjjjjjjjjjjjjjjjjjjjjjjjjjjjjjjjjjjjjjjjjjjjjjj",
"jjjjjjjjjjjjjjjjjjjjjjjjjjjjjjjjjjjjjjjjjjjjjjjjjjjjjjjjjjjjjjjjjjjjjjjjjjjjjjjjjjjjjjjjjjjjjjjjjjjj",
"jjjjjjjjjjjjjjjjjjjjjjjjjjjjjjjjjjjjjjjjjjjjjjjjjjjjjjjjjjjjjjjjjjjjjjjjjjjjjjjjjjjjjjjjjjjjjjjjjjjj",
"jjjjjjjjjjjjjjjjjjjjjjjjjjjjjjjjjjjjjjjjjjjjjjjjjjjjjjjjjjjjjjjjjjjjjjjjjjjjjjjjjjjjjjjjjjjjjjjjjjjj",
"jjjjjjjjjjjjjjjjjjjjjjjjjjjjjjjjjjjjjjjjjjjjjjjjjjjjjjjjjjjjjjjjjjjjjjjjjjjjjjjjjjjjjjjjjjjjjjjjjjjj",
"jjjjjjjjjjjjjjjjjjjjjjjjjjjjjjjjjjjjjjjjjjjjjjjjjjjjjjjjjjjjjjjjjjjjjjjjjjjjjjjjjjjjjjjjjjjjjjjjjjjj",
"jjjjjjjjjjjjjjjjjjjjjjjjjjjjjjjjjjjjjjjjjjjjjjjjjjjjjjjjjjjjjjjjjjjjjjjjjjjjjjjjjjjjjjjjjjjjjjjjjjjj",
"jjjjjjjjjjjjjjjjjjjjjjjjjjjjjjjjjjjjjjjjjjjjjjjjjjjjjjjjjjjjjjjjjjjjjjjjjjjjjjjjjjjjjjjjjjjjjjjjjjjj",
"jjjjjjjjjjjjjjjjjjjjjjjjjjjjjjjjjjjjjjjjjjjjjjjjjjjjjjjjjjjjjjjjjjjjjjjjjjjjjjjjjjjjjjjjjjjjjjjjjjjj"
};
