/* XPM */
static char * MinimoICON_xpm[] = {
"36 36 143 2",
"  	c #FFFFFF",
". 	c #F9F9F9",
"+ 	c #EBEBEB",
"@ 	c #E5E5E5",
"# 	c #E6E6E6",
"$ 	c #EEEEEE",
"% 	c #FBFBFB",
"& 	c #EDEDED",
"* 	c #DADADA",
"= 	c #DCDCDC",
"- 	c #E0E0E0",
"; 	c #E2E2E2",
"> 	c #F3F3F3",
", 	c #EAEAEA",
"' 	c #D6D6D6",
") 	c #DDDDDD",
"! 	c #EFEFEF",
"~ 	c #F1F1F1",
"{ 	c #ECECEC",
"] 	c #F2F2F2",
"^ 	c #E3E3E3",
"/ 	c #F4F4F4",
"( 	c #F8F8F8",
"_ 	c #F6F6F6",
": 	c #F0F0F0",
"< 	c #F7F7F7",
"[ 	c #D9D9D9",
"} 	c #D8D8D8",
"| 	c #DFDFDF",
"1 	c #E8E8E8",
"2 	c #FAFAFA",
"3 	c #E7E7E7",
"4 	c #FDFDFD",
"5 	c #E4E4E4",
"6 	c #FEFEFE",
"7 	c #FCFCFC",
"8 	c #F5F5F5",
"9 	c #DBDBDB",
"0 	c #E1E1E1",
"a 	c #DEDEDE",
"b 	c #E9E9E9",
"c 	c #D7D7D7",
"d 	c #C4C4C4",
"e 	c #BBBBBB",
"f 	c #CACACA",
"g 	c #C8C8C8",
"h 	c #BEBEBE",
"i 	c #BCBCBC",
"j 	c #CFCFCF",
"k 	c #B4B3B3",
"l 	c #909090",
"m 	c #D3D2D2",
"n 	c #7F7E7E",
"o 	c #878686",
"p 	c #B7B7B7",
"q 	c #6F6E6E",
"r 	c #818080",
"s 	c #787777",
"t 	c #797878",
"u 	c #686767",
"v 	c #C9C9C9",
"w 	c #514F4F",
"x 	c #4B4A4A",
"y 	c #636262",
"z 	c #9A9999",
"A 	c #000000",
"B 	c #282727",
"C 	c #323030",
"D 	c #D8D7D7",
"E 	c #6B6A6A",
"F 	c #A3A2A2",
"G 	c #B6B5B5",
"H 	c #434242",
"I 	c #D2D2D2",
"J 	c #585757",
"K 	c #CCCBCB",
"L 	c #C1C0C0",
"M 	c #535151",
"N 	c #E9E8E8",
"O 	c #393838",
"P 	c #D5D5D5",
"Q 	c #A1A1A1",
"R 	c #515050",
"S 	c #A1A0A0",
"T 	c #4F4E4E",
"U 	c #605F5F",
"V 	c #8E8E8E",
"W 	c #454444",
"X 	c #717070",
"Y 	c #D3D3D3",
"Z 	c #A0A0A0",
"` 	c #3E3C3C",
" .	c #DAD9D9",
"..	c #565555",
"+.	c #5D5C5C",
"@.	c #C7C6C6",
"#.	c #4C4A4A",
"$.	c #9F9F9F",
"%.	c #4F4D4D",
"&.	c #676666",
"*.	c #A5A5A5",
"=.	c #383737",
"-.	c #969595",
";.	c #A3A3A3",
">.	c #868585",
",.	c #201F1F",
"'.	c #9A9A9A",
").	c #9B9A9A",
"!.	c #3C3B3B",
"~.	c #C0C0C0",
"{.	c #AEADAD",
"].	c #C3C2C2",
"^.	c #424141",
"/.	c #373636",
"(.	c #939393",
"_.	c #8E8D8D",
":.	c #5A5959",
"<.	c #6A6969",
"[.	c #989797",
"}.	c #898888",
"|.	c #8B8A8A",
"1.	c #575656",
"2.	c #BFBEBE",
"3.	c #474646",
"4.	c #686868",
"5.	c #9F9E9E",
"6.	c #A4A3A3",
"7.	c #E2E1E1",
"8.	c #D5D4D4",
"9.	c #C8C7C7",
"0.	c #CECECE",
"a.	c #ADACAC",
"b.	c #848484",
"c.	c #C6C6C6",
"d.	c #F9F9F8",
"e.	c #F1F1F0",
"f.	c #DEDEDD",
"g.	c #E8E8E7",
"h.	c #E9E9E8",
"i.	c #E3E3E2",
"j.	c #EBEBEA",
"k.	c #ECECEB",
"l.	c #EFEFEE",
"                                                                        ",
"                                . + @ # $ %                             ",
"                              & * = - ; ; ; >                           ",
"                            , ' ) # + ! ~ { ; ]                         ",
"                          $ ' * ^ { ~ / ( _ : @ <                       ",
"                        ( [ } | 1 ! > < 2 2 _ $ 3 4                     ",
"                        5 ' * ; + ~ _ 2 4 4 2 _ 3 :                     ",
"                      < [ * = 5 { ] < % 4 6 % . : # 6                   ",
"                      3 } = | # { ] < 2 4 6 7 2 / 5 8                   ",
"                    7 ) 9 ) 0 3 & > < 2 4 6 7 2 8 3 +                   ",
"                    / [ ) | ^ 1 $ > < 2 4 6 7 2 _ , @                   ",
"                    { [ a 0 5 b $ > < % 4 6 7 2 < { 0 2                 ",
"                    # 9 | ; # + ! / < % 4 6 7 2 < & - 8                 ",
"                    ^ = 0 5 1 { : / ( % 4 6 7 2 < & - >                 ",
"                    ^ ) ; # b & ~ 8 ( % 4 6 7 2 < & - ]                 ",
"                    5 ) ; # , $ ] 8 . % 4 6 7 2 _ { | /                 ",
"                    1 ) ^ 1 { ! > _ . 7 4 6 7 . 8 + - .                 ",
"                    : = 5 b & : / < 2 7 6 6 7 . / 1 ^ 6                 ",
"                    . ) ^ b $ ~ 8 ( % 4 6 6 % . ] ^ ,                   ",
"                      # ) 5 b & ~ 8 < . % % ( / + - <                   ",
"                      ( * a ^ # , $ : > < < > & 0 1                     ",
"                        { c = - ^ # b + ! : + ^ ; %                     ",
"                          3 ' 9 a 0 ^ # b b ; 0 .                       ",
"                            ! a a - ; @ # ^ 1 7                         ",
"                        2 , * d e d f g h i j 0 ] 6                     ",
"                          < ! 3 - ) = ) ) 5 , ] 2                       ",
"                      6 4                                 8             ",
"          k l     m n ) o p q     r a s ' t     { u   v w x y {         ",
"          z A *   B C D E F A G   H I J K A L   M A N O P 4 Q R 4       ",
"          S T U V W X Y q Z n `  ...Y +.@.T #.$.%.&.*.y       =.3       ",
"          -.;.>.,.a y Y q '.).f !.T P +.~.r {.A 5 +.].^.    > /./       ",
"          (._.4 ! 0 :.I <.[.}.  |.A a 1.2.E   , 4 3.6 4.+.5.^.6.        ",
"          7.|     < 8.8 c @ 0     9.( I : }       0.    a.b.c.          ",
"              6 ] 8 . / ( % d.e.~ 7 ] < > % $ ~ <   ] ~ .               ",
"                f.3 | g.| { h.5 ^ i.@ 0 @ g.# j.k.l.3 ; ) (             ",
"                                                                        "};
