/* XPM */
static char *DVY_RoofTile_1x1x2-3_xpm[] = {
/* width height num_colors chars_per_pixel */
"   100   100       16            1",
/* colors */
"` c #960000",
". c #d28d8c",
"# c #a44846",
"a c #952b2c",
"b c #ffd1ce",
"c c #be0000",
"d c #b86e70",
"e c #ffa8a8",
"f c #ac1619",
"g c #ffffff",
"h c #bd5153",
"i c #ac3134",
"j c #ca7374",
"k c #e89594",
"l c #ffb7b8",
"m c #951719",
/* pixels */
"gggggggggggggggggggggggggggggggggggggggggggggggggggggggggggggggggggggggggggggggggggggggggggggggggggg",
"gggggggggggggggggggggggggggggggggggggggggggggggggggggggggggggggggggggggggggggggggggggggggggggggggggg",
"gggggggggggggggggggggggggggggggggggggggggggggggggggggggggggggggggggggggggggggggggggggggggggggggggggg",
"gggggggggggggggggggggggggggggggggggggggggggggggggggggggggggggggggggggggggggggggggggggggggggggggggggg",
"gggggggggggggggggggggggggggggggggggggggggggggggggggggggggggggggggggggggggggggggggggggggggggggggggggg",
"gggggggggggggggggggggggggggggggggggggggggggggggggggggggggggggggggggggggggggggggggggggggggggggggggggg",
"gggggggggggggggggggggggggggggggggggggggggggggggggggggggggggggggggggggggggggggggggggggggggggggggggggg",
"gggggggggggggggggggggggggggggggggggggggggggggggggggggggggggggggggggggggggggggggggggggggggggggggggggg",
"gggggggggggggggggggggggggggggggggggggggggggggggggggggggggggggggggggggggggggggggggggggggggggggggggggg",
"gggggggggggggggggggggggggggggggggggggggggggggggggggggggggggggggggggggggggggggggggggggggggggggggggggg",
"gggggggggggggggggggggggggggggggggggggggggggggggggggggggggggggggggggggggggggggggggggggggggggggggggggg",
"gggggggggggggggggggggggggggggggggggggggggggggggggggggggggggggggggggggggggggggggggggggggggggggggggggg",
"gggggggggggggggggggggggggggggggggggggggggggggggggbbbbggggggggggggggggggggggggggggggggggggggggggggggg",
"ggggggggggggggggggggggggggggggggggggggggggggggggbbblbbgggggggggggggggggggggggggggggggggggggggggggggg",
"ggggggggggggggggggggggggggggggggggggggggggggbblk.jddj.lbgggggggggggggggggggggggggggggggggggggggggggg",
"ggggggggggggggggggggggggggggggggggggggggggggbkjiammmai.bbggggggggggggggggggggggggggggggggggggggggggg",
"ggggggggggggggggggggggggggggggggggggggggblk.jhhif`fffahjebgggggggggggggggggggggggggggggggggggggggggg",
"gggggggggggggggggggggggggggggggggggggggbej#ammffccccffmajbbggggggggggggggggggggggggggggggggggggggggg",
"ggggggggggggggggggggggggggggggggggbblk.jh#immffccccccffm#jebgggggggggggggggggggggggggggggggggggggggg",
"ggggggggggggggggggggggggggggggggggbl.himfffffcccccccccffmajbbggggggggggggggggggggggggggggggggggggggg",
"ggggggggggggggggggggggggggggggblk.jjhiffcccccccccccccccffmh.lggggggggggggggggggggggggggggggggggggggg",
"gggggggggggggggggggggggggggggbl.damm`fccccccccccccccccccc`ihkggggggggggggggggggggggggggggggggggggggg",
"gggggggggggggggggggggggggbbekjdhifffcccccccccccccccccccccffijlbggggggggggggggggggggggggggggggggggggg",
"ggggggggggggggggggggggggblkjimmfffccccccccccccccccccccccccffhklggggggggggggggggggggggggggggggggggggg",
"ggggggggggggggggggggbbl..dhifffcccccccccccccccccccccccccccc`ihkbgggggggggggggggggggggggggggggggggggg",
"ggggggggggggggggggggbej#ammffcccccccccccccccccccccccccccccccfijbbggggggggggggggggggggggggggggggggggg",
"ggggggggggggggggblk.jh#afffcccccccccccccccccccccccccccccccccffhkbggggggggggggggggggggggggggggggggggg",
"ggggggggggggggggl.himmffcfccccccccccccccccccccccccccccccccccf`#jlggggggggggggggggggggggggggggggggggg",
"ggggggggggggggbljhifffcccccccccccccccccccccccccccccccccccccccfi#.bbggggggggggggggggggggggggggggggggg",
"gggggggggggggglj#mm`cccccccccccccccccccccccccccccccccccccccccfmmdlbggggggggggggggggggggggggggggggggg",
"gggggggggggggb.#iffcccccccccccccccccccccccccccccccccccccccccccfm#jlggggggggggggggggggggggggggggggggg",
"ggggggggggggbljmfccccccccccccccccccccccccccccccccccccccccccccccffi.ggggggggggggggggggggggggggggggggg",
"ggggggggggggbehffcccccccccccccccccccccccccccccccccccccccccccccccfijlbggggggggggggggggggggggggggggggg",
"ggggggggggggl.hfcccccccccccccccccccccccccccccccccccccccccccccccccfh.lggggggggggggggggggggggggggggggg",
"ggggggggggggl.#`cccccccccccccccccccccccccccccccccccccccccccccccccfihkbgggggggggggggggggggggggggggggg",
"gggggggggggglj#`fccccccccccccccccccccccccccccccccccccccccccccccccffajbbggggggggggggggggggggggggggggg",
"gggggggggggglj#`fcccccccccccccccccccccccccccccccccccccccccccccccccfmh.lggggggggggggggggggggggggggggg",
"ggggggggggggl.#``cccccccccccccccccccccccccccccccccccccccccccccccccffihkggggggggggggggggggggggggggggg",
"gggggggggggglj#m`ccfcccccccccccccccccccccccccccccccccccccccccccccccffijbbggggggggggggggggggggggggggg",
"gggggggggggglj#m``ccccccccccccccccccccccccccccccccccccccccccccccccccfmhebggggggggggggggggggggggggggg",
"gggggggggggglj#m```ccccccccccccccccccccccccccccccccccccccccccccccccccfijebgggggggggggggggggggggggggg",
"ggggggggggggld#m```ccfccccccccccccccccccccccccccccccccccccccccccccccccfi.bgggggggggggggggggggggggggg",
"gggggggggggglj#m````cfccccccccccccccccccccccccccccccccccccccccccccccccffdebggggggggggggggggggggggggg",
"gggggggggggglj#m````cfccccccccccccccccccccccccccccccccccccccccccccccccc`ijlggggggggggggggggggggggggg",
"gggggggggggglj#m`````cccccccccccccccccccccccccccccccccccccccccccccccccccih.bgggggggggggggggggggggggg",
"gggggggggggglj#m``````cfccccccccccccccccccccccccccccccccccccccccccccccccfmjbbggggggggggggggggggggggg",
"gggggggggggged#```````ccccccccccccccccccccccccccccccccccccccccccccccccccffh.lggggggggggggggggggggggg",
"ggggggggggggedi````````ccfcccccccccccccccccccccccccccccccccccccccccccccccfi#.ggggggggggggggggggggggg",
"ggggggggggggedi`````````ffccccccccccccccccccccccccccccccccccccccccccccccccfijlbggggggggggggggggggggg",
"gggggggggggglji``c``````cfccccccccccccccccccccccccccccccccccccccccccccccccffhklggggggggggggggggggggg",
"ggggggggggggedi``c```````fcccccccccccccccccccccccccccccccccccccccccccccccccfihkbgggggggggggggggggggg",
"ggggggggggggedim`c```````cccccccccccccccccccccccccccccccccccccccccccccccccccfijbbggggggggggggggggggg",
"ggggggggggggedi```````````ccccccccccccccccccccccccccccccccccccccccccccccccccffhkbggggggggggggggggggg",
"ggggggggggggldi```````````ccccccccccccccccccccccccccccccccccccccccccccccccccccideggggggggggggggggggg",
"ggggggggggggld#```````````ccccccccccccccccccccccccccccccccccccccccccccccccccccf#.bbggggggggggggggggg",
"ggggggggggggld#mmf`````````ccfccccccccccccccccccccccccccccccccccccccccccccccccfmhebggggggggggggggggg",
"ggggggggggggld#mm```````````ccccccccccccccccccccccccccccccccccccccccccccccccccffijlggggggggggggggggg",
"ggggggggggggld#m`````````c```cccccccccccccccccccccccccccccccccccccccccccccccccccfi.ggggggggggggggggg",
"ggggggggggggbkdam````````c```cccccccccccccccccccccccccccccccccccccccccccccccccccfi.bgggggggggggggggg",
"gggggggggggggb.#am````````````ccccccccccccccccccccccccccccccccccccccccccccccccccffjlbggggggggggggggg",
"gggggggggggggbl.hamm``````````ccccccccccccccccccccccccccccccccccccccccccccccccccfmjlbggggggggggggggg",
"gggggggggggggggb.#am``````````ccccccccccccccccccccccccccccccccccccccccccccccccccfmjbbggggggggggggggg",
"ggggggggggggggggb.d#a``````````cccccccccccccccccccccccccccccccccccccccccccccccccfmjbbggggggggggggggg",
"ggggggggggggggggggej#``````f````ccccccccccccccccccccccccccccccccccccccccccccccccfmjbbggggggggggggggg",
"ggggggggggggggggggbejha``````````cccccccccccccccccccccccccccccccccccccccccccccffmajbgggggggggggggggg",
"gggggggggggggggggggglkhmmm````````ccccccccccccccccccccccccccccccccccccccccccccfmaa.bgggggggggggggggg",
"ggggggggggggggggggggbl.himm``````cccccccccccccccccccccccccccccccccccccccccfffmihj.lggggggggggggggggg",
"ggggggggggggggggggggggbedmmm````ccccccccccccccccccccccccccccccccccccccccccfmmadkbggggggggggggggggggg",
"ggggggggggggggggggggggbbkd#mm````cccccccccccccccccccccccccccccccccccccffffihd.ebbggggggggggggggggggg",
"ggggggggggggggggggggggggbbjam`````cccfcccccccccccccccccccccccccccffffffmaih.lbgggggggggggggggggggggg",
"gggggggggggggggggggggggggbl.ham````cccccccccccccccccccccccccccccfffmfi#hj.elbggggggggggggggggggggggg",
"ggggggggggggggggggggggggggbb.#a`````ccccccccccccccccccccccccccccffmmi#.ebggggggggggggggggggggggggggg",
"gggggggggggggggggggggggggggbl.dim````cccccccccccccccccccccccffffiihj.klbbggggggggggggggggggggggggggg",
"gggggggggggggggggggggggggggggbkhimm```cccccccccccccccccccfffffmm#jklbggggggggggggggggggggggggggggggg",
"ggggggggggggggggggggggggggggggbkj#a````ccccccccccccccccfffffihdjklbbgggggggggggggggggggggggggggggggg",
"gggggggggggggggggggggggggggggggglj#mmm``ccccccccccccccfffmaih.lbgggggggggggggggggggggggggggggggggggg",
"ggggggggggggggggggggggggggggggggbl.ham``fcccccccccccfffihhj.klbggggggggggggggggggggggggggggggggggggg",
"ggggggggggggggggggggggggggggggggggbkhmm`ffcccccccfffmmi#jebggggggggggggggggggggggggggggggggggggggggg",
"ggggggggggggggggggggggggggggggggggbb.d#mmfffccfffmi#hj.klbbggggggggggggggggggggggggggggggggggggggggg",
"ggggggggggggggggggggggggggggggggggggbldamffffcfmma#dkbbggggggggggggggggggggggggggggggggggggggggggggg",
"ggggggggggggggggggggggggggggggggggggbbkjhaffffihdj.lbbgggggggggggggggggggggggggggggggggggggggggggggg",
"ggggggggggggggggggggggggggggggggggggggbbjaaaiih.ebgggggggggggggggggggggggggggggggggggggggggggggggggg",
"gggggggggggggggggggggggggggggggggggggggbl.jjj.klbbgggggggggggggggggggggggggggggggggggggggggggggggggg",
"gggggggggggggggggggggggggggggggggggggggggbblbggggggggggggggggggggggggggggggggggggggggggggggggggggggg",
"ggggggggggggggggggggggggggggggggggggggggggbbbggggggggggggggggggggggggggggggggggggggggggggggggggggggg",
"gggggggggggggggggggggggggggggggggggggggggggggggggggggggggggggggggggggggggggggggggggggggggggggggggggg",
"gggggggggggggggggggggggggggggggggggggggggggggggggggggggggggggggggggggggggggggggggggggggggggggggggggg",
"gggggggggggggggggggggggggggggggggggggggggggggggggggggggggggggggggggggggggggggggggggggggggggggggggggg",
"gggggggggggggggggggggggggggggggggggggggggggggggggggggggggggggggggggggggggggggggggggggggggggggggggggg",
"gggggggggggggggggggggggggggggggggggggggggggggggggggggggggggggggggggggggggggggggggggggggggggggggggggg",
"gggggggggggggggggggggggggggggggggggggggggggggggggggggggggggggggggggggggggggggggggggggggggggggggggggg",
"gggggggggggggggggggggggggggggggggggggggggggggggggggggggggggggggggggggggggggggggggggggggggggggggggggg",
"gggggggggggggggggggggggggggggggggggggggggggggggggggggggggggggggggggggggggggggggggggggggggggggggggggg",
"gggggggggggggggggggggggggggggggggggggggggggggggggggggggggggggggggggggggggggggggggggggggggggggggggggg",
"gggggggggggggggggggggggggggggggggggggggggggggggggggggggggggggggggggggggggggggggggggggggggggggggggggg",
"gggggggggggggggggggggggggggggggggggggggggggggggggggggggggggggggggggggggggggggggggggggggggggggggggggg",
"gggggggggggggggggggggggggggggggggggggggggggggggggggggggggggggggggggggggggggggggggggggggggggggggggggg",
"gggggggggggggggggggggggggggggggggggggggggggggggggggggggggggggggggggggggggggggggggggggggggggggggggggg",
"gggggggggggggggggggggggggggggggggggggggggggggggggggggggggggggggggggggggggggggggggggggggggggggggggggg",
"gggggggggggggggggggggggggggggggggggggggggggggggggggggggggggggggggggggggggggggggggggggggggggggggggggg"
};
