/* XPM */
static char *DVY_Plate_2x8_xpm[] = {
/* width height num_colors chars_per_pixel */
"   100   100       16            1",
/* colors */
"` c #710000",
". c #cd9191",
"# c #9d4c4d",
"a c #a20000",
"b c #ffd1d0",
"c c #8a2e2f",
"d c #b46f6f",
"e c #a62e31",
"f c #dcafae",
"g c #ffffff",
"h c #ff9598",
"i c #b45357",
"j c #8b0000",
"k c #c97374",
"l c #bf2d32",
"m c #ffb4b5",
/* pixels */
"gggggggggggggggggggggggggggggggggggggggggggggggggggggggggggggggggggggggggggggggggggggggggggggggggggg",
"gggggggggggggggggggggggggggggggggggggggggggggggggggggggggggggggggggggggggggggggggggggggggggggggggggg",
"gggggggggggggggggggggggggggggggggggggggggggggggggggggggggggggggggggggggggggggggggggggggggggggggggggg",
"gggggggggggggggggggggggggggggggggggggggggggggggggggggggggggggggggggggggggggggggggggggggggggggggggggg",
"gggggggggggggggggggggggggggggggggggggggggggggggggggggggggggggggggggggggggggggggggggggggggggggggggggg",
"gggggggggggggggggggggggggggggggggggggggggggggggggggggggggggggggggggggggggggggggggggggggggggggggggggg",
"gggggggggggggggggggggggggggggggggggggggggggggggggggggggggggggggggggggggggggggggggggggggggggggggggggg",
"gggggggggggggggggggggggggggggggggggggggggggggggggggggggggggggggggggggggggggggggggggggggggggggggggggg",
"gggggggggggggggggggggggggggggggggggggggggggggggggggggggggggggggggggggggggggggggggggggggggggggggggggg",
"gggggggggggggggggggggggggggggggggggggggggggggggggggggggggggggggggggggggggggggggggggggggggggggggggggg",
"gggggggggggggggggggggggggggggggggggggggggggggggggggggggggggggggggggggggggggggggggggggggggggggggggggg",
"gggggggggggggggggggggggggggggggggggggggggggggggggggggggggggggggggggggggggggggggggggggggggggggggggggg",
"gggggggggggggggggggggggggggggggggggggggggggggggggggggggggggggggggggggggggggggggggggggggggggggggggggg",
"gggggggggggggggggggggggggggggggggggggggggggggggggggggggggggggggggggggggggggggggggggggggggggggggggggg",
"gggggggggggggggggggggggggggggggggggggggggggggggggggggggggggggggggggggggggggggggggggggggggggggggggggg",
"gggggggggggggggggggggggggggggggggggggggggggggggggggggggggggggggggggggggggggggggggggggggggggggggggggg",
"gggggggggggggggggggggggggggggggggggggggggggggggggggggggggggggggggggggggggggggggggggggggggggggggggggg",
"gggggggggggggggggggggggggggggggggggggggggggggggggggggggggggggggggggggggggggggggggggggggggggggggggggg",
"gggggggggggggggggggggggggggggggggggggggggggggggggggggggggggggggggggggggggggggggggggggggggggggggggggg",
"gggggggggggggggggggggggggggggggggggggggggggggggggggggggggggggggggggggggggggggggggggggggggggggggggggg",
"gggggggggggggggggggggggggggggggggggggggggggggggggggggggggggggggggggggggggggggggggggggggggggggggggggg",
"gggggggggggggggggggggggggggggggggggggggggggggggggggggggggggggggggggggggggggggggggggggggggggggggggggg",
"gggggggggggggggggggggggggggggggggggggggggggggggggggggggggggggggggggggggggggggggggggggggggggggggggggg",
"gggggggggggggggggggggggggggggggggggggggggggggggggggggggggggggggggggggggggggggggggggggggggggggggggggg",
"gggggggggggggggggggggggggggggggggggggggggggggggggggggggggggggggggggggggggggggggggggggggggggggggggggg",
"gggggggggggggggggggggggggggggggggggggggggggggggggggggggggggggggggggggggggggggggggggggggggggggggggggg",
"gggggggggggggggggggggggggggggggggggggggggggggggggggggggggggggggggggggggggggggggggggggggggggggggggggg",
"gggggggggggggggggggggggggggggggggggggggggggggggggggggggggggggggggggggggggggggggggggggggggggggggggggg",
"gggggggggggggggggggggggggggggggggggggggggggggggggggggggggggggggggggggggggggggggggggggggggggggggggggg",
"gggggggggggggggggggggggggggggggggggggggggggggggggggggggggggggggggggggggggggggggggggggggggggggggggggg",
"gggggggggggggggggggggggggggggggggggggggggggggggggggggggggggggggggggggbbf..fbbggggggggggggggggggggggg",
"ggggggggggggggggggggggggggggggggggggggggggggggggggggggggggggggggggggbb.i#cdfbggggggggggggggggggggggg",
"ggggggggggggggggggggggggggggggggggggggggggggggggggggggggggggggggbbf..d#ccc#i.fbggggggggggggggggggggg",
"gggggggggggggggggggggggggggggggggggggggggggggggggggggggggggggggbbfk#c``jjcc`#dfggggggggggggggggggggg",
"ggggggggggggggggggggggggggggggggggggggggggggggggggggggggggggbf.kdd#cc`jjcej`c#d.fbgggggggggggggggggg",
"ggggggggggggggggggggggggggggggggggggggggggggggggggggggggggbbf.#``jj``jjjeej```c#.bbggggggggggggggggg",
"ggggggggggggggggggggggggggggggggggggggggggggggggggggggbbff.di#ccccjjjjjjjajj``ccikfbbggggggggggggggg",
"ggggggggggggggggggggggggggggggggggggggggggggggggggggggb.kdc```jeeeajjjjjjjjjjjjcccdmbggggggggggggggg",
"ggggggggggggggggggggggggggggggggggggggggggggggggggbbf.di#ec```jjaejjjjjjjjjjjaeecjei.bbggggggggggggg",
"ggggggggggggggggggggggggggggggggggggggggggggggggggb.dcc`jjjjj`jjjejjjjjjjjjjalllejj`ifbggggggggggggg",
"ggggggggggggggggggggggggggggggggggggggggggggggbf..d#cccjeeajjjjjjjjjjjjajjjjjaaaajj`i.bggggggggggggg",
"ggggggggggggggggggggggggggggggggggggggggggggbb.#cc````jellejjjjjjjjjjjaaaajjjjjaaajci.fggggggggggggg",
"gggggggggggggggggggggggggggggggggggggggbbbff.d#ccc````jjaeajjjjjjjjjjaalaaajjajjjee#kfbggggggggggggg",
"ggggggggggggggggggggggggggggggggggggggbbmm.ic``jjajjj``jjjjjjjjajjjjjaelaaaaaaajcci.fbgggggggggggggg",
"ggggggggggggggggggggggggggggggggggggbf.kdd#cc`jaaeajj``jjjjjjjaaajjjjaaaaaaaaelik.ffbggggggggggggggg",
"gggggggggggggggggggggggggggggggggggbf.#``j```jjallajjj````jjjaaeaajjjjjjaaaaeekhmbgggggggggggggggggg",
"ggggggggggggggggggggggggggggggbbff.dd#cjjaj`jjjaaajjjjjjjjjjjaalaajjjjjjeeikk.fbbggggggggggggggggggg",
"ggggggggggggggggggggggggggggggbfkdc```jaeeajjjjjjjjjjjjajjjjjaaaaaaajjjc#d.mbggggggggggggggggggggggg",
"ggggggggggggggggggggggggggbbf.di#ec```jaalajjjjjjjjjjaaeajjjjjaaajaeeiik.fmbgggggggggggggggggggggggg",
"ggggggggggggggggggggggggggbfdcc``j````jaalajjjjjjjjjjellaajjjjjajjceikfbbggggggggggggggggggggggggggg",
"gggggggggggggggggggggbmf..d#cccceaj```jjjajjjjjjjjjjjaaaaajjjjce#ik.fmbbgggggggggggggggggggggggggggg",
"ggggggggggggggggggggbm.d#c````jlllajjjjjjjjjjjjaajjjjjaaaaaajjc#d.mbgggggggggggggggggggggggggggggggg",
"gggggggggggggggggbff.d#ec````jjaaaajjjjjjjjjjaalajjjjjjaaaeeidk.fbbggggggggggggggggggggggggggggggggg",
"ggggggggggggggggbm.#c``jjjjjjjjaaaajjjjjjjjjalllajjjjjjjjjei.mbggggggggggggggggggggggggggggggggggggg",
"ggggggggggggbf..di#cc`ceeajjjjjjjjjjjaaajjjjjaalaajjjce#ik.fmbbggggggggggggggggggggggggggggggggggggg",
"ggggggggggggfd#c`````jelleajjjj`jjjjaaaaajjjjjjaaaacccikfbbggggggggggggggggggggggggggggggggggggggggg",
"ggggggggbf.dicccjj``jjjeaajjjjjjjjjjaaaaajjjjjjjaelikk.fbbgggggggggggggggggggggggggggggggggggggggggg",
"ggggggggfd#```jejjjjjjjjjjjjaajjjjjjallaajjjjjjjeei.mbbggggggggggggggggggggggggggggggggggggggggggggg",
"ggggggggf#c``jeeajjjjjjjjjjjaaaajjjjaaaaajjjce#dk.fmbggggggggggggggggggggggggggggggggggggggggggggggg",
"gggggggg.cc`jjeleajj`````jjaaaaaajjjjjjaaacce#kmbggggggggggggggggggggggggggggggggggggggggggggggggggg",
"ggggggggfd#`jjaaajjjjjjjjjjjalaaajjjjjjce#ik..fbbggggggggggggggggggggggggggggggggggggggggggggggggggg",
"ggggggggb.i`jjjjjjjjjjjjjjjjalaaajjjjjcc#k.mbggggggggggggggggggggggggggggggggggggggggggggggggggggggg",
"ggggggggbb.dejjjjjjaaaajjjjjaaaaajjeeidk.fmbgggggggggggggggggggggggggggggggggggggggggggggggggggggggg",
"ggggggggggbfd`jjjjjaelaajjjjjaaaajeeikfbbggggggggggggggggggggggggggggggggggggggggggggggggggggggggggg",
"ggggggggggbb.d#jjjjaalaajjjjjjeelik.fmbggggggggggggggggggggggggggggggggggggggggggggggggggggggggggggg",
"ggggggggggggbmdcjjjaalaajjjjjceikhmbgggggggggggggggggggggggggggggggggggggggggggggggggggggggggggggggg",
"gggggggggggggbfk#jjjaaaajje#ik..fbbggggggggggggggggggggggggggggggggggggggggggggggggggggggggggggggggg",
"ggggggggggggggbbkccjjjaacc#d.bbggggggggggggggggggggggggggggggggggggggggggggggggggggggggggggggggggggg",
"gggggggggggggggbfk#ccceidk.fbbgggggggggggggggggggggggggggggggggggggggggggggggggggggggggggggggggggggg",
"ggggggggggggggggbbkcccikfbbggggggggggggggggggggggggggggggggggggggggggggggggggggggggggggggggggggggggg",
"gggggggggggggggggbf...fmbbgggggggggggggggggggggggggggggggggggggggggggggggggggggggggggggggggggggggggg",
"gggggggggggggggggggbgggggggggggggggggggggggggggggggggggggggggggggggggggggggggggggggggggggggggggggggg",
"gggggggggggggggggggggggggggggggggggggggggggggggggggggggggggggggggggggggggggggggggggggggggggggggggggg",
"gggggggggggggggggggggggggggggggggggggggggggggggggggggggggggggggggggggggggggggggggggggggggggggggggggg",
"gggggggggggggggggggggggggggggggggggggggggggggggggggggggggggggggggggggggggggggggggggggggggggggggggggg",
"gggggggggggggggggggggggggggggggggggggggggggggggggggggggggggggggggggggggggggggggggggggggggggggggggggg",
"gggggggggggggggggggggggggggggggggggggggggggggggggggggggggggggggggggggggggggggggggggggggggggggggggggg",
"gggggggggggggggggggggggggggggggggggggggggggggggggggggggggggggggggggggggggggggggggggggggggggggggggggg",
"gggggggggggggggggggggggggggggggggggggggggggggggggggggggggggggggggggggggggggggggggggggggggggggggggggg",
"gggggggggggggggggggggggggggggggggggggggggggggggggggggggggggggggggggggggggggggggggggggggggggggggggggg",
"gggggggggggggggggggggggggggggggggggggggggggggggggggggggggggggggggggggggggggggggggggggggggggggggggggg",
"gggggggggggggggggggggggggggggggggggggggggggggggggggggggggggggggggggggggggggggggggggggggggggggggggggg",
"gggggggggggggggggggggggggggggggggggggggggggggggggggggggggggggggggggggggggggggggggggggggggggggggggggg",
"gggggggggggggggggggggggggggggggggggggggggggggggggggggggggggggggggggggggggggggggggggggggggggggggggggg",
"gggggggggggggggggggggggggggggggggggggggggggggggggggggggggggggggggggggggggggggggggggggggggggggggggggg",
"gggggggggggggggggggggggggggggggggggggggggggggggggggggggggggggggggggggggggggggggggggggggggggggggggggg",
"gggggggggggggggggggggggggggggggggggggggggggggggggggggggggggggggggggggggggggggggggggggggggggggggggggg",
"gggggggggggggggggggggggggggggggggggggggggggggggggggggggggggggggggggggggggggggggggggggggggggggggggggg",
"gggggggggggggggggggggggggggggggggggggggggggggggggggggggggggggggggggggggggggggggggggggggggggggggggggg",
"gggggggggggggggggggggggggggggggggggggggggggggggggggggggggggggggggggggggggggggggggggggggggggggggggggg",
"gggggggggggggggggggggggggggggggggggggggggggggggggggggggggggggggggggggggggggggggggggggggggggggggggggg",
"gggggggggggggggggggggggggggggggggggggggggggggggggggggggggggggggggggggggggggggggggggggggggggggggggggg",
"gggggggggggggggggggggggggggggggggggggggggggggggggggggggggggggggggggggggggggggggggggggggggggggggggggg",
"gggggggggggggggggggggggggggggggggggggggggggggggggggggggggggggggggggggggggggggggggggggggggggggggggggg",
"gggggggggggggggggggggggggggggggggggggggggggggggggggggggggggggggggggggggggggggggggggggggggggggggggggg",
"gggggggggggggggggggggggggggggggggggggggggggggggggggggggggggggggggggggggggggggggggggggggggggggggggggg",
"gggggggggggggggggggggggggggggggggggggggggggggggggggggggggggggggggggggggggggggggggggggggggggggggggggg",
"gggggggggggggggggggggggggggggggggggggggggggggggggggggggggggggggggggggggggggggggggggggggggggggggggggg",
"gggggggggggggggggggggggggggggggggggggggggggggggggggggggggggggggggggggggggggggggggggggggggggggggggggg",
"gggggggggggggggggggggggggggggggggggggggggggggggggggggggggggggggggggggggggggggggggggggggggggggggggggg"
};
