/* XPM */
static char *CheeseHead_xpm[] = {
/* width height num_colors chars_per_pixel */
"    32    32      256            2",
/* colors */
"`` c #000000",
"`. c #010101",
"`# c #020202",
"`a c #030303",
"`b c #040404",
"`c c #050505",
"`d c #060606",
"`e c #070707",
"`f c #080808",
"`g c #090909",
"`h c #0a0a0a",
"`i c #0b0b0b",
"`j c #0c0c0c",
"`k c #0d0d0d",
"`l c #0e0e0e",
"`m c #0f0f0f",
"`n c #101010",
"`o c #111111",
"`p c #121212",
"`q c #131313",
"`r c #141414",
"`s c #151515",
"`t c #161616",
"`u c #171717",
"`v c #181818",
"`w c #191919",
"`x c #1a1a1a",
"`y c #1b1b1b",
"`z c #1c1c1c",
"`A c #1d1d1d",
"`B c #1e1e1e",
"`C c #1f1f1f",
"`D c #202020",
"`E c #212121",
"`F c #222222",
"`G c #232323",
"`H c #242424",
"`I c #252525",
"`J c #262626",
"`K c #272727",
"`L c #282828",
"`M c #292929",
"`N c #2a2a2a",
"`O c #2b2b2b",
"`P c #2c2c2c",
"`Q c #2d2d2d",
"`R c #2e2e2e",
"`S c #2f2f2f",
"`T c #303030",
"`U c #313131",
"`V c #323232",
"`W c #333333",
"`X c #343434",
"`Y c #353535",
"`Z c #363636",
"`0 c #373737",
"`1 c #383838",
"`2 c #393939",
"`3 c #3a3a3a",
"`4 c #3b3b3b",
"`5 c #3c3c3c",
"`6 c #3d3d3d",
"`7 c #3e3e3e",
"`8 c #3f3f3f",
".` c #404040",
".. c #414141",
".# c #424242",
".a c #434343",
".b c #444444",
".c c #454545",
".d c #464646",
".e c #474747",
".f c #484848",
".g c #494949",
".h c #4a4a4a",
".i c #4b4b4b",
".j c #4c4c4c",
".k c #4d4d4d",
".l c #4e4e4e",
".m c #4f4f4f",
".n c #505050",
".o c #515151",
".p c #525252",
".q c #535353",
".r c #545454",
".s c #555555",
".t c #565656",
".u c #575757",
".v c #585858",
".w c #595959",
".x c #5a5a5a",
".y c #5b5b5b",
".z c #5c5c5c",
".A c #5d5d5d",
".B c #5e5e5e",
".C c #5f5f5f",
".D c #606060",
".E c #616161",
".F c #626262",
".G c #636363",
".H c #646464",
".I c #656565",
".J c #666666",
".K c #676767",
".L c #686868",
".M c #696969",
".N c #6a6a6a",
".O c #6b6b6b",
".P c #6c6c6c",
".Q c #6d6d6d",
".R c #6e6e6e",
".S c #6f6f6f",
".T c #707070",
".U c #717171",
".V c #727272",
".W c #737373",
".X c #747474",
".Y c #757575",
".Z c #767676",
".0 c #777777",
".1 c #787878",
".2 c #797979",
".3 c #7a7a7a",
".4 c #7b7b7b",
".5 c #7c7c7c",
".6 c #7d7d7d",
".7 c #7e7e7e",
".8 c #7f7f7f",
"#` c #808080",
"#. c #818181",
"## c #828282",
"#a c #838383",
"#b c #848484",
"#c c #858585",
"#d c #868686",
"#e c #878787",
"#f c #888888",
"#g c #898989",
"#h c #8a8a8a",
"#i c #8b8b8b",
"#j c #8c8c8c",
"#k c #8d8d8d",
"#l c #8e8e8e",
"#m c #8f8f8f",
"#n c #909090",
"#o c #919191",
"#p c #929292",
"#q c #939393",
"#r c #949494",
"#s c #959595",
"#t c #969696",
"#u c #979797",
"#v c #989898",
"#w c #999999",
"#x c #9a9a9a",
"#y c #9b9b9b",
"#z c #9c9c9c",
"#A c #9d9d9d",
"#B c #9e9e9e",
"#C c #9f9f9f",
"#D c #a0a0a0",
"#E c #a1a1a1",
"#F c #a2a2a2",
"#G c #a3a3a3",
"#H c #a4a4a4",
"#I c #a5a5a5",
"#J c #a6a6a6",
"#K c #a7a7a7",
"#L c #a8a8a8",
"#M c #a9a9a9",
"#N c #aaaaaa",
"#O c #ababab",
"#P c #acacac",
"#Q c #adadad",
"#R c #aeaeae",
"#S c #afafaf",
"#T c #b0b0b0",
"#U c #b1b1b1",
"#V c #b2b2b2",
"#W c #b3b3b3",
"#X c #b4b4b4",
"#Y c #b5b5b5",
"#Z c #b6b6b6",
"#0 c #b7b7b7",
"#1 c #b8b8b8",
"#2 c #b9b9b9",
"#3 c #bababa",
"#4 c #bbbbbb",
"#5 c #bcbcbc",
"#6 c #bdbdbd",
"#7 c #bebebe",
"#8 c #bfbfbf",
"a` c #c0c0c0",
"a. c #c1c1c1",
"a# c #c2c2c2",
"aa c #c3c3c3",
"ab c #c4c4c4",
"ac c #c5c5c5",
"ad c #c6c6c6",
"ae c #c7c7c7",
"af c #c8c8c8",
"ag c #c9c9c9",
"ah c #cacaca",
"ai c #cbcbcb",
"aj c #cccccc",
"ak c #cdcdcd",
"al c #cecece",
"am c #cfcfcf",
"an c #d0d0d0",
"ao c #d1d1d1",
"ap c #d2d2d2",
"aq c #d3d3d3",
"ar c #d4d4d4",
"as c #d5d5d5",
"at c #d6d6d6",
"au c #d7d7d7",
"av c #d8d8d8",
"aw c #d9d9d9",
"ax c #dadada",
"ay c #dbdbdb",
"az c #dcdcdc",
"aA c #dddddd",
"aB c #dedede",
"aC c #dfdfdf",
"aD c #e0e0e0",
"aE c #e1e1e1",
"aF c #e2e2e2",
"aG c #e3e3e3",
"aH c #e4e4e4",
"aI c #e5e5e5",
"aJ c #e6e6e6",
"aK c #e7e7e7",
"aL c #e8e8e8",
"aM c #e9e9e9",
"aN c #eaeaea",
"aO c #ebebeb",
"aP c #ececec",
"aQ c #ededed",
"aR c #eeeeee",
"aS c #efefef",
"aT c #f0f0f0",
"aU c #f1f1f1",
"aV c #f2f2f2",
"aW c #f3f3f3",
"aX c #f4f4f4",
"aY c #f5f5f5",
"aZ c #f6f6f6",
"a0 c #f7f7f7",
"a1 c #f8f8f8",
"a2 c #f9f9f9",
"a3 c #fafafa",
"a4 c #fbfbfb",
"a5 c #fcfcfc",
"a6 c #fdfdfd",
"a7 c #fefefe",
"a8 c #ffffff",
/* pixels */
"a8a8a8a8a8a7a8a8a7a8a8a8a7a7a8a7a8a8a7a7a7a7a8a8a8a8a8a8a8a8a8a8",
"a8a8a8a8a8a8a8a8a7a7a7a6a7a7a2a5a4a2a6a7a8a7a7a8a8a8a8a8a8a8a8a8",
"a8a8a8a8a8a8a7a7a7a3aRab#f#c.N.L.J.S#d#8a7a7a7a7a7a7a7a7a8a8a8a8",
"a8a8a8a8a8a7a7a3ac.3.F#p#D#0aSa2a4aT.t.Ia7a7a2aMa7a7a6a7a8a8a8a8",
"a8a8a8a8a8a7au#n#taP#4ala.#1aiaYaU.n`e.Fa7a3#x#`#qaTa6a8a8a8a8a8",
"a8a8a8a7a7aj#waOa0aZaCagarapaAa4#e`c`e.Ga5#Baga2#Z.SaSa7a7a8a8a8",
"a8a8a8a7aX#ua2a4a7a7a7aZaK#F#6.5`g`i`l#..7aea7a5a2#U#ea7a7a7a8a8",
"a8a8a8a7aiapa3a4a7a7a7a5a2aJ.G`e`b`m#J#Daga2a2a7a2a0#ba2a8a8a8a8",
"a8a8a8a7aeaJa5a5a6a7a2a0a3.S`c`f`k#G#zafa1a3a6a6aZa1.4aXa7a8a8a8",
"a8a8a8a7aaaIa7a7a7a6a0aV.4`l`l`k#E#sahaXa7a4a3a7a1a2.XaZa8a8a8a8",
"a8a8a8a7#R#Aa3a1a0a5aX#k`a`i`j#H#c#maFaOa4a6a3a1aZaO`2a0a8a8a8a8",
"a8a8a8a8#P.Tama3aWaZ#f`f`j`l#H#B#6afas#Xaaa0aUa4aZ#e.YaXa7a8a8a8",
"a8a8a8a7afav#Y#2aS#f`i`i`m#D#EaeaSamaj#8aqaraYaI#HaL.3aYa7a8a7a7",
"a8a8a7a7awapa5ak.u`j`h`g#t#Da.a3a7a1aJaf#8#7#l#CaIa6.3a2a8a8a8a8",
"a8a8a8a8at#Ga2a6.2`b`c.I#r#saoaoaoab#x#n`T`n#`#FaRa7.3a0a7a8a8a8",
"a8a8a8a7aH#na5a5.Z`a.DaW.TaBayayayasaA#r`#`l#u#IaDa6.6aYa8a8a8a8",
"a8a8a7a7a7#aa0a3.Z.LaWa1.0a5a5a4a6a0a0#F`b`a#o#taVaV#ba7a7a8a8a8",
"a8a8a7a7a7#iaKa3aJ.5#0aS.Xa6a6a7a7a3aq.I`m`g#l#raRaG#ca7a7a7a8a8",
"a8a8a8a7a7aI#daSa0aYad#w.Ma5a5a6a7a3aN#.`h`b#G#BaE.YaHa6a8a8a8a8",
"a8a8a8a7a7a7aC#`ataYa5aXa1a1a3a6a7aZaZ.N`#`e.V.5.6#2a6a7a7a8a8a8",
"a8a8a8a7a7a7a6aS#e##aba2aZa2a3a4a6aYaQ.w`d`a.1#.aBa8a6a7a7a7a8a8",
"a8a8a8a8a7a7a6a6a5aF#C#g#e#V#S#N#R#P#..W.0#NaLa2a6a7a7a7a8a8a8a8",
"a8a8a8a7a7a7a7a6a6a6#zaPaZaVaf#J.Z.5aL.Yac#Da6a6a7a7a7a8a8a8a8a8",
"a8a8a8a8a8a7a7a6a4a6#laRa3a3a4aO`D`Ta2`4ae#ua7a7a8a8a8a8a8a8a8a8",
"a8a8a8a8a8a8a7a7a7a6#oaOa3a4a0aX`I`Ta1`4#6aoa7a6a7a8a8a8a8a8a8a8",
"a8a8a8a8a8a8a7a7a7a5aeata1a2a3aZ`F`Ua3`0#paEa6a7a7a8a8a8a8a8a8a8",
"a8a8a8a8a8a8a7a8a7a7aY#v#0aGa3aW`H`Ua4`T#Za6a7a7a7a8a8a8a8a8a8a8",
"a8a8a8a8a8a8a8a8a8a7a7a0as#..T.2`P`U#b#4a6a7a7a7a8a8a8a8a8a8a8a8",
"a8a8a8a8a8a8a8a8a8a7a7a7a5a5a6a7a7a6a5a5a7a7a7a7a8a8a8a8a8a8a8a8",
"a8a8a8a8a8a8a8a8a7a7a7a7a6a5a5a6a7a5a4a5a7a7a7a7a8a8a8a8a8a8a8a8",
"a8a8a8a8a8a8a8a8a8a7a7a7a7a7a8a8a7a7a6a7a7a7a8a7a8a8a8a8a8a8a8a8",
"a8a8a8a8a8a8a8a8a8a7a7a8a8a8a8a7a7a8a7a7a8a8a8a8a8a8a8a8a8a8a8a8"
};
