/* XPM */
static char *Torx_xpm[] = {
/* width height num_colors chars_per_pixel */
"    32    32       16            1",
/* colors */
"` c #0000ff",
". c #8785ff",
"# c #c7c7ff",
"a c #4f4eff",
"b c #e9e9ff",
"c c #2a29ff",
"d c #a9a9ab",
"e c #adadff",
"f c #d9daff",
"g c #6766ff",
"h c #3a3aff",
"i c #7575ef",
"j c #b9b9b9",
"k c #ffffff",
"l c #1818ff",
"m c #9797ff",
/* pixels */
"kkkkkkkkkkkkkkkkkkkkkkkkkkkkkkkk",
"kkkkkkkkkkkbjjjjdjdjbkkkkkkkkkkk",
"kkkkkkkkbjj#bkkkkkkbjjjkkkkkkkkk",
"kkkkkkkfjbkkkkkkkkkkkkfdfkkkkkkk",
"kkkkkb#fkkkkkkkkkkkkkkkkjjkkkkkk",
"kkkkbjbkkkkkkkeha#kkkkkkkjjkkkkk",
"kkkkjfkkkkkkkbl``akkkkkkkkjjkkkk",
"kkkffkkkkkkkke```lbkkkkkkkkjfkkk",
"kkb#kkkkkkkkki````#kkkkkkkkkdkkk",
"kk#bkkkjefkkbh````ikkk#e#kkkfjkk",
"kbjkkk.llcaia`````lgihllc#kkbdkk",
"k#bkkbh``````````````````gkkkdbk",
"kjkkkkg``````````````````ekkkfjk",
"b#kkkkbh````````````````gkkkkkdk",
"bfbkkkkfa``````````````ikkkkkkdk",
"ffbkkkkkf`````````````akkkkkkkdk",
"ffbkkkkkbl````````````gkkkkkkkdb",
"bfbkkkkk.`````````````lekkkkkkdk",
"b#kkkkbg```````````````lekkkkkdk",
"kjkkkk.`````````````````l#kkkbdk",
"kjkkkfc``````````````````gkkkjbk",
"kb#kkbg```chc``````hhl```ekkkjkk",
"kkjbkkf..efkfc````gbk#m.mkkkbjkk",
"kkffkkkkkkkkkg````ekkkkkkkkkjbkk",
"kkkjbkkkkkkkkm```lbkkkkkkkkfjkkk",
"kkkkjkkkkkkkkfl``hkkkkkkkkfjkkkk",
"kkkkbjkkkkkkkkilcekkkkkkkbjbkkkk",
"kkkkkbjbkkkkkkkbkkkkkkkkfjbkkkkk",
"kkkkkkkjfbkkkkkkkkkkkkbjjkkkkkkk",
"kkkkkkkkfjjbkkkkkkkkbjjbkkkkkkkk",
"kkkkkkkkkkbjjjffffjj#bkkkkkkkkkk",
"kkkkkkkkkkkkkbf#fbbkkkkkkkkkkkkk"
};
