/* XPM */
static char *RoundHead_xpm[] = {
/* width height num_colors chars_per_pixel */
"    42    32       16            1",
/* colors */
"` c #141e00",
". c #7e9490",
"# c #c5cfcf",
"a c #455e5d",
"b c #a6b2b1",
"c c #657a78",
"d c #97abac",
"e c #2c3c33",
"f c #8f9d9a",
"g c #ffffff",
"h c #576863",
"i c #788782",
"j c #b3c0c2",
"k c #1c2b1c",
"l c #dadddb",
"m c #384a43",
/* pixels */
"gggggggggggggggggggggggggggggggggggggggggg",
"gggggggggggggggggggggggggggggggggggggggggg",
"gggggggggggggggggggggggggggggggggggggggggg",
"gggggggggggggggggl##jjjllllggggggggggggggg",
"gggggggggggggj.fhihhmmklgbifdjgggggggggggg",
"ggggggggggldcccmkemkkkalghkai.f#gggggggggg",
"ggggggggldcc....aammmhf#bichhfdff#gggggggg",
"ggggggglcc.fdddfcccfbddddbbbbdfdfffggggggg",
"ggggggl...fffdddbjbdbbdbjjbjjdffff.bgggggg",
"ggggggd.ichhahamihacc...bjbbjbddff..jggggg",
"ggggg#icmemaib#lljfffhaemciffdf.id.iiggggg",
"gggggfiekemcjggggggggldhekemi.f..cicijgggg",
"gggggcmk`eiflggggggglbch`k``e.ffi.h..bgggg",
"gggglm`kkmi#lgggggglj.imk```khffid...dgggg",
"gggglm``kkm.lllgg#.amekek`kkkcffdf...fgggg",
"gggggck`kkkeemchcmmeemacfcamibbddd...fgggg",
"gggggdcc..ekkkkkeeeaiblgglifjjjbdf...fgggg",
"ggggglfb#glfek``kemhcifjf.ijjbbdf....lgggg",
"gggggglddbfieek`kkemmahmccdddddddfiflggggg",
"ggggggggljdfhmekkemmmacci..iiff.b#lggggggg",
"ggggggggggggglbaaamaidbbfffh#ggggggggggggg",
"ggggggggggggggje`kkmclggjjdh#ggggggggggggg",
"ggggggggggggggje```kh#glbjda#ggggggggggggg",
"ggggggggggggggjek`kke#gldbfalggggggggggggg",
"gggggggggggggg#m``k`k#glfjfalggggggggggggg",
"gggggggggggggg#mk`k`elgld#falggggggggggggg",
"gggggggggggggglbffffflglj##jgggggggggggggg",
"gggggggggggggggggggggggggggggggggggggggggg",
"gggggggggggggggggggggggggggggggggggggggggg",
"gggggggggggggggggggggggggggggggggggggggggg",
"gggggggggggggggggggggggggggggggggggggggggg",
"gggggggggggggggggggggggggggggggggggggggggg"
};
