/* XPM */
static char *DVY_RoofTile_2x2x45_xpm[] = {
/* width height num_colors chars_per_pixel */
"   100   100       16            1",
/* colors */
"` c #6e0000",
". c #c38c8d",
"# c #a34d4f",
"a c #ac0000",
"b c #b23032",
"c c #ffd0cf",
"d c #8b2e31",
"e c #d20000",
"f c #c75251",
"g c #ffb0b0",
"h c #c77275",
"i c #ad6e6e",
"j c #ffffff",
"k c #d62d2e",
"l c #dc9291",
"m c #8f0000",
/* pixels */
"jjjjjjjjjjjjjjjjjjjjjjjjjjjjjjjjjjjjjjjjjjjjjjjjjjjjjjjjjjjjjjjjjjjjjjjjjjjjjjjjjjjjjjjjjjjjjjjjjjjj",
"jjjjjjjjjjjjjjjjjjjjjjjjjjjjjjjjjjjjjjjjjjjjjjjjjjjjjjjjjjjjjjjjjjjjjjjjjjjjjjjjjjjjjjjjjjjjjjjjjjjj",
"jjjjjjjjjjjjjjjjjjjjjjjjjjjjjjjjjjjjjjjjjjjjjjjjjjjjjjjjjjjjjjjjjjjjjjjjjjjjjjjjjjjjjjjjjjjjjjjjjjjj",
"jjjjjjjjjjjjjjjjjjjjjjjjjjjjjjjjjjjjjjjjjjjjjjjjjjjjjjjjjjjjjjjjjjjjjjjjjjjjjjjjjjjjjjjjjjjjjjjjjjjj",
"jjjjjjjjjjjjjjjjjjjjjjjjjjjjjjjjjjjjjjjjjjjjjjjjjjjjjjjjjjjjjjjjjjjjjjjjjjjjjjjjjjjjjjjjjjjjjjjjjjjj",
"jjjjjjjjjjjjjjjjjjjjjjjjjjjjjjjjjjjjjjjjjjjjjjjjjjjjjjjjjjjjjjjjjjjjjjjjjjjjjjjjjjjjjjjjjjjjjjjjjjjj",
"jjjjjjjjjjjjjjjjjjjjjjjjjjjjjjjjjjjjjjjjjjjjjjjjjjjjjjjjjjjjjjjjjjjjjjjjjjjjjjjjjjjjjjjjjjjjjjjjjjjj",
"jjjjjjjjjjjjjjjjjjjjjjjjjjjjjjjjjjjjjjjjjjjjjjjjjjjjjjjjjjjjjjjjjjjjjjjjjjjjjjjjjjjjjjjjjjjjjjjjjjjj",
"jjjjjjjjjjjjjjjjjjjjjjjjjjjjjjjjjjjjjjjjjjjjjjjjjjjjjjjjjjjjjjjjjjjjjjjjjjjjjjjjjjjjjjjjjjjjjjjjjjjj",
"jjjjjjjjjjjjjjjjjjjjjjjjjjjjjjjjjjjjjjjjjjjjjjjjjjjjjjjjjjjjjjjjjjjjjjjjjjjjjjjjjjjjjjjjjjjjjjjjjjjj",
"jjjjjjjjjjjjjjjjjjjjjjjjjjjjjjjjjjjjjjjjjjjjjjjjjjjjjjjjjjjjjjjjjjjjjjjjjjjjjjjjjjjjjjjjjjjjjjjjjjjj",
"jjjjjjjjjjjjjjjjjjjjjjjjjjjjjjjjjjjjjjjjjjjjjjjjjjjjjjjjjjjjjjjjjjjjjjjjjjjjjjjjjjjjjjjjjjjjjjjjjjjj",
"jjjjjjjjjjjjjjjjjjjjjjjjjjjjjjjjjjjjjjjjjjjjjjjjjjjjjjjjjjjjjjjjjjjjjjjjjjjjjjjjjjjjjjjjjjjjjjjjjjjj",
"jjjjjjjjjjjjjjjjjjjjjjjjjjjjjjjjjjjjjjjjjjjjjjjjjjjjjjjjjjjjjjjjjjjjjjjjjjjjjjjjjjjjjjjjjjjjjjjjjjjj",
"jjjjjjjjjjjjjjjjjjjjjjjjjjjjjjjjjjjjjjjjjjjjjjjjjjjjjjjjjjjjjjjjjjjjjjjjjjjjjjjjjjjjjjjjjjjjjjjjjjjj",
"jjjjjjjjjjjjjjjjjjjjjjjjjjjjjjjjjjjjjjjjjjjjjjjjjjjjjjjjjjjjjjjjjjjjjjjjjjjjjjjjjjjjjjjjjjjjjjjjjjjj",
"jjjjjjjjjjjjjjjjjjjjjjjjjjjjjjjjjjjjjjjjjjjjjjjjjjjjjjjjjjjjjjjjjjjjjjjjjjjjjjjjjjjjjjjjjjjjjjjjjjjj",
"jjjjjjjjjjjjjjjjjjjjjjjjjjjjjjjjjjjjjjjjjjjjjjjjjjjjjjjjjjjjjjjjjjjjjjjjjjjjjjjjjjjjjjjjjjjjjjjjjjjj",
"jjjjjjjjjjjjjjjjjjjjjjjjjjjjjjjjjjjjjjjjjjjjjjjjccccg.ccjjjjjjjjjjjjjjjjjjjjjjjjjjjjjjjjjjjjjjjjjjjj",
"jjjjjjjjjjjjjjjjjjjjjjjjjjjjjjjjjjjjjjjjjjjjjjjccllli#.ccjjjjjjjjjjjjjjjjjjjjjjjjjjjjjjjjjjjjjjjjjjj",
"jjjjjjjjjjjjjjjjjjjjjjjjjjjjjjjjjjjjjjjjjjjjcg.ii###dd#ilccjjjjjjjjjjjjjjjjjjjjjjjjjjjjjjjjjjjjjjjjj",
"jjjjjjjjjjjjjjjjjjjjjjjjjjjjjjjjjjjjjjjjjjjjgid`````````#lcjjjjjjjjjjjjjjjjjjjjjjjjjjjjjjjjjjjjjjjjj",
"jjjjjjjjjjjjjjjjjjjjjjjjjjjjjjjjjjjjjjjjccglidd`````````d#.gcjjjjjjjjjjjjjjjjjjjjjjjjjjjjjjjjjjjjjjj",
"jjjjjjjjjjjjjjjjjjjjjjjjjjjjjjjjjjjjjjjjcgh#d````mmm``````digjjjjjjjjjjjjjjjjjjjjjjjjjjjjjjjjjjjjjjj",
"jjjjjjjjjjjjjjjjjjjjjjjjjjjjjjjjjjjjccl.i#ddm``mmmmmmmm```ddi.cjjjjjjjjjjjjjjjjjjjjjjjjjjjjjjjjjjjjj",
"jjjjjjjjjjjjjjjjjjjjjjjjjjjjjjjjjjjcg.#d````mmmmmmmmmmmm````d#.cjjjjjjjjjjjjjjjjjjjjjjjjjjjjjjjjjjjj",
"jjjjjjjjjjjjjjjjjjjjjjjjjjjjjjccgl.ii#dd````mmmmmmmmmmmmm````d#.gcjjjjjjjjjjjjjjjjjjjjjjjjjjjjjjjjjj",
"jjjjjjjjjjjjjjjjjjjjjjjjjjjjjccg.#d``````m``maaaaaammmmmmm````dd.ccjjjjjjjjjjjjjjjjjjjjjjjjjjjjjjjjj",
"jjjjjjjjjjjjjjjjjjjjjjjjcg...iii#dd```````mmmaaabkkkbaammm`````d#ilccjjjjjjjjjjjjjjjjjjjjjjjjjjjjjjj",
"jjjjjjjjjjjjjjjjjjjjjjjcgi#d`````m````````mmmaakkkkkkkbammm``````digcjjjjjjjjjjjjjjjjjjjjjjjjjjjjjjj",
"jjjjjjjjjjjjjjjjjjjjjcgli#d``````m````````mmmmabkkkkkkbammmm`````m#ilcjjjjjjjjjjjjjjjjjjjjjjjjjjjjjj",
"jjjjjjjjjjjjjjjjjjjjcc.#d`````mmmm````````mmmmabkkkkkkaammmmmmmmmmddhccjjjjjjjjjjjjjjjjjjjjjjjjjjjjj",
"jjjjjjjjjjjjjjjjccg..i#dm``mmmmmmmmm```````mmmmaabkkaaaammmmmmaaaaadflcjjjjjjjjjjjjjjjjjjjjjjjjjjjjj",
"jjjjjjjjjjjjjjjjcli#d````mmmmmmmmmmmm```````mmmmmaaaaaammmmmaaaeeaaafhgjjjjjjjjjjjjjjjjjjjjjjjjjjjjj",
"jjjjjjjjjjjjccg.i#dd```mmmmmmmmmmmmmmm``````mmmmmmaaaaaaaaaaaaeeeeaabfljjjjjjjjjjjjjjjjjjjjjjjjjjjjj",
"jjjjjjjjjjjjcgid``````mmmmmmmmmmmmmmmmmmmmmmmmmmmmmmmmaaaaeeeeeeeeeabb.cjjjjjjjjjjjjjjjjjjjjjjjjjjjj",
"jjjjjjjjjjjjc.#d`````mmmmaaabbbaaammmmmmmmmmmmmmmmmaaaaaeeeeeeeeeeeeabhgcjjjjjjjjjjjjjjjjjjjjjjjjjjj",
"jjjjjjjjjjjjgh#mmmmmmmmmaabkkkkkkbaammm`mmmmmmmmmmaaaaeeeeeeeeeeeeeeaaflcjjjjjjjjjjjjjjjjjjjjjjjjjjj",
"jjjjjjjjjjjjgh#mmmmmmmmmaabkkkkkkbaammmmmmmmmmmmaaaaeeeeeeeeeeeeeeeeeabfljjjjjjjjjjjjjjjjjjjjjjjjjjj",
"jjjjjjjjjjjjgh#mmmmmmmmmaaakkkkkkaaammmmmmmmmmaaaeeeeeeeeeeeeeeeeeeeeebd.jjjjjjjjjjjjjjjjjjjjjjjjjjj",
"jjjjjjjjjjjjgh#mmmmmmmmmmaaekkkkbaammmmmmmmmaaaaeeeeeeeeeeeeeeeeeeeeeeabhccjjjjjjjjjjjjjjjjjjjjjjjjj",
"jjjjjjjjjjjjgh#mmmmmmmmmmmaakkkkaaammmmmmaaaaeeeeeeeeeeeeeeeeeeeeeeeeeaaflcjjjjjjjjjjjjjjjjjjjjjjjjj",
"jjjjjjjjjjjjgh#mmmaaaammmmmaaaaaaaaaaaaaaaaaeeeeeeeeeeeeeeeeeeeeeeeeeeeabhgjjjjjjjjjjjjjjjjjjjjjjjjj",
"jjjjjjjjjjjjgh#mmaaaaammmmmmmmmmmmaaaaaaaeeeeeeeeeeeeeeeeeeeeeeeeeeeeeeebblcjjjjjjjjjjjjjjjjjjjjjjjj",
"jjjjjjjjjjjjgh#mmaaaaammmmmmmmmmaaaaaaaeeeeeeeeeeeeeeeeeeeeeeeeeeeeeeeeeebhccjjjjjjjjjjjjjjjjjjjjjjj",
"jjjjjjjjjjjjghbmmaaaaammmmmmmmmaaaaeeeeeeeeeeeeeeeeeeeeeeeeeeeeeeeeeeeeeeafgcjjjjjjjjjjjjjjjjjjjjjjj",
"jjjjjjjjjjjjgh#mmaaaaammmmmmaaaaaaeeeeeeeeeeeeeeeeeeeeeeeeeeeeeeeeeeeeeeeafhgjjjjjjjjjjjjjjjjjjjjjjj",
"jjjjjjjjjjjjgh#mmaaaaammmaaaaaeeeeeeeeeeeeeeeeeeeeeeeeeeeeeeeeeeeeeeeeeeeeb#ljjjjjjjjjjjjjjjjjjjjjjj",
"jjjjjjjjjjjjgh#mmmmaaammmaaaeeeeeeeeeeeeeeeeeeeeeeeeeeeeeeeeeeeeeeeeeeeeeebblccjjjjjjjjjjjjjjjjjjjjj",
"jjjjjjjjjjjjgh#mmmmaaaammaaaekeeeeeeeeeeeeeeeeeeeeeeeeeeeeeeeeeeeeeeeeeeeeabhgcjjjjjjjjjjjjjjjjjjjjj",
"jjjjjjjjjjjjgh#mmaaaaaamaaaaekeeeeeeeeeeeeeeeeeeeeeeeeeeeeeeeeeeeeeeeeeeeeebflgjjjjjjjjjjjjjjjjjjjjj",
"jjjjjjjjjjjjgh#mmaaaamaaaaaaekeeeeeeeeeeeeeeeeeeeeeeeeeeeeeeeeeeeeeeeeeeeeeabfljjjjjjjjjjjjjjjjjjjjj",
"jjjjjjjjjjjjgh#mmaaaaaaaaaaaaeeeeeeeeeeeeeeeeeeeeeeeeeeeeeeeeeeeeeeeeeeeeeeekblcjjjjjjjjjjjjjjjjjjjj",
"jjjjjjjjjjjjghbmmaaaaaammmaaaeeeeeeeeeeeeeeeeeeeeeeeeeeeeeeeeeeeeeeeeeeeeeeeabhccjjjjjjjjjjjjjjjjjjj",
"jjjjjjjjjjjjgh#mmammaammmmmaaaeeeeeeeeeeeeeeeeeeeeeeeeeeeeeeeeeeeeeeeeeeeeeeeaflcjjjjjjjjjjjjjjjjjjj",
"jjjjjjjjjjjjgh#mmmmmmammmmmaaaaeeeeeeeeeeeeeeeeeeeeeeeeeeeeeeeeeeeeeeeeeeeeeeabhgjjjjjjjjjjjjjjjjjjj",
"jjjjjjjjjjjjgh#mmmmmmmmmmmmaaaaeeeeeeeeeeeeeeeeeeeeeeeeeeeeeeeeeeeeeeeeeeeeeeebflcjjjjjjjjjjjjjjjjjj",
"jjjjjjjjjjjjgh#mmmmmmmmmmmmaaaaeeeeeeeeeeeeeeeeeeeeeeeeeeeeeeeeeeeeeeeeeeeeeeeabhccjjjjjjjjjjjjjjjjj",
"jjjjjjjjjjjjc.#`mmmaammaaaamaaaaeeeeeeeeeeeeeeeeeeeeeeeeeeeeeeeeeeeeeeeeeeeeeeaafgcjjjjjjjjjjjjjjjjj",
"jjjjjjjjjjjjcli`mmmaaaaaaaamaaaaeeeeeeeeeeeeeeeeeeeeeeeeeeeeeeeeeeeeeeeeeeeeeeaaflgjjjjjjjjjjjjjjjjj",
"jjjjjjjjjjjjcc.#dmmmaaaaaaamaaaaaeeeeeeeeeeeeeeeeeeeeeeeeeeeeeeeeeeeeeeeeeeeeeeabfljjjjjjjjjjjjjjjjj",
"jjjjjjjjjjjjjjcl#mmmmaaaaaaaaaaaaeeeeeeeeeeeeeeeeeeeeeeeeeeeeeeeeeeeeeeeeeeeeeeebbljjjjjjjjjjjjjjjjj",
"jjjjjjjjjjjjjjcclfbmmmmaaaaaamaaaaeeeeeeeeeeeeeeeeeeeeeeeeeeeeeeeeeeeeeeeeeeeeeaadhcjjjjjjjjjjjjjjjj",
"jjjjjjjjjjjjjjjjcgidmmmaamaaamaaaaekeeeeeeeeeeeeeeeeeeeeeeeeeeeeeeeeeeeeeeeeeeeaamhcjjjjjjjjjjjjjjjj",
"jjjjjjjjjjjjjjjjcclh#mmmmmmmmmaaaaekeeeeeeeeeeeeeeeeeeeeeeeeeeeeeeeeeeeeeeeeeeaamdhcjjjjjjjjjjjjjjjj",
"jjjjjjjjjjjjjjjjjjcghddmmmmmmmaaaaakeeeeeeeeeeeeeeeeeeeeeeeeeeeeeeeeeeeeeeeeeaaamdhccjjjjjjjjjjjjjjj",
"jjjjjjjjjjjjjjjjjjjcgh#dmmmmmaaaaaaaeeeeeeeeeeeeeeeeeeeeeeeeeeeeeeeeeeeeeeeaaaabbflcjjjjjjjjjjjjjjjj",
"jjjjjjjjjjjjjjjjjjjjcc.ddmmmaaamaaaaekeeeeeeeeeeeeeeeeeeeeeeeeeeeeeeeeeeeeaaaabbilcjjjjjjjjjjjjjjjjj",
"jjjjjjjjjjjjjjjjjjjjjcg.iddmmmmmmaaaakeeeeeeeeeeeeeeeeeeeeeeeeeeeeeeaaaaaaabffh.lgcjjjjjjjjjjjjjjjjj",
"jjjjjjjjjjjjjjjjjjjjjjjcl#dmmmmmmaaaaeeeeeeeeeeeeeeeeeeeeeeeeeeeeeaaaaaaambfhgcjjjjjjjjjjjjjjjjjjjjj",
"jjjjjjjjjjjjjjjjjjjjjjjjclibdmmmmmaaaeeeeeeeeeeeeeeeeeeeeeeeeeeeeaaaaabbfh.lgccjjjjjjjjjjjjjjjjjjjjj",
"jjjjjjjjjjjjjjjjjjjjjjjjjjlibmmmmmmaaeekeeeeeeeeeeeeeeeeeeeeeeeaaaaadd#hlccjjjjjjjjjjjjjjjjjjjjjjjjj",
"jjjjjjjjjjjjjjjjjjjjjjjjjjcgh#dmmmmaaaeeeeeeeeeeeeeeeeeeeeeaaaaaaabfhhlgccjjjjjjjjjjjjjjjjjjjjjjjjjj",
"jjjjjjjjjjjjjjjjjjjjjjjjjjjjgh#`mmmaaaeeeeeeeeeeeeeeeeeeeeaaaaaabbflgccjjjjjjjjjjjjjjjjjjjjjjjjjjjjj",
"jjjjjjjjjjjjjjjjjjjjjjjjjjjjcg.idmmmaaaeeeeeeeeeeeeeeeeeaaaabbbfh.lgccjjjjjjjjjjjjjjjjjjjjjjjjjjjjjj",
"jjjjjjjjjjjjjjjjjjjjjjjjjjjjjjcgidmmmaaaekeeeeeeeeeeeeeaaaabbdhlccjjjjjjjjjjjjjjjjjjjjjjjjjjjjjjjjjj",
"jjjjjjjjjjjjjjjjjjjjjjjjjjjjjjccli#mmmaaekeeeeeeeeeaaaaabbfhh.gccjjjjjjjjjjjjjjjjjjjjjjjjjjjjjjjjjjj",
"jjjjjjjjjjjjjjjjjjjjjjjjjjjjjjjjcghdmmmaakeeeeeeeaaaammbbflgcjjjjjjjjjjjjjjjjjjjjjjjjjjjjjjjjjjjjjjj",
"jjjjjjjjjjjjjjjjjjjjjjjjjjjjjjjjccgh#dmmakeeeeeaaaabb#fhlggccjjjjjjjjjjjjjjjjjjjjjjjjjjjjjjjjjjjjjjj",
"jjjjjjjjjjjjjjjjjjjjjjjjjjjjjjjjjjcc.ddmaaaeeeaaamdd#hlccjjjjjjjjjjjjjjjjjjjjjjjjjjjjjjjjjjjjjjjjjjj",
"jjjjjjjjjjjjjjjjjjjjjjjjjjjjjjjjjjjcg.#dbbaaaaabbfh.lgcjjjjjjjjjjjjjjjjjjjjjjjjjjjjjjjjjjjjjjjjjjjjj",
"jjjjjjjjjjjjjjjjjjjjjjjjjjjjjjjjjjjjjcl#bdmmmmbbflgcjjjjjjjjjjjjjjjjjjjjjjjjjjjjjjjjjjjjjjjjjjjjjjjj",
"jjjjjjjjjjjjjjjjjjjjjjjjjjjjjjjjjjjjjjclh##d#fhlgccjjjjjjjjjjjjjjjjjjjjjjjjjjjjjjjjjjjjjjjjjjjjjjjjj",
"jjjjjjjjjjjjjjjjjjjjjjjjjjjjjjjjjjjjjjjjgii#.gcjjjjjjjjjjjjjjjjjjjjjjjjjjjjjjjjjjjjjjjjjjjjjjjjjjjjj",
"jjjjjjjjjjjjjjjjjjjjjjjjjjjjjjjjjjjjjjjjcgglgccjjjjjjjjjjjjjjjjjjjjjjjjjjjjjjjjjjjjjjjjjjjjjjjjjjjjj",
"jjjjjjjjjjjjjjjjjjjjjjjjjjjjjjjjjjjjjjjjjjjjjjjjjjjjjjjjjjjjjjjjjjjjjjjjjjjjjjjjjjjjjjjjjjjjjjjjjjjj",
"jjjjjjjjjjjjjjjjjjjjjjjjjjjjjjjjjjjjjjjjjjjjjjjjjjjjjjjjjjjjjjjjjjjjjjjjjjjjjjjjjjjjjjjjjjjjjjjjjjjj",
"jjjjjjjjjjjjjjjjjjjjjjjjjjjjjjjjjjjjjjjjjjjjjjjjjjjjjjjjjjjjjjjjjjjjjjjjjjjjjjjjjjjjjjjjjjjjjjjjjjjj",
"jjjjjjjjjjjjjjjjjjjjjjjjjjjjjjjjjjjjjjjjjjjjjjjjjjjjjjjjjjjjjjjjjjjjjjjjjjjjjjjjjjjjjjjjjjjjjjjjjjjj",
"jjjjjjjjjjjjjjjjjjjjjjjjjjjjjjjjjjjjjjjjjjjjjjjjjjjjjjjjjjjjjjjjjjjjjjjjjjjjjjjjjjjjjjjjjjjjjjjjjjjj",
"jjjjjjjjjjjjjjjjjjjjjjjjjjjjjjjjjjjjjjjjjjjjjjjjjjjjjjjjjjjjjjjjjjjjjjjjjjjjjjjjjjjjjjjjjjjjjjjjjjjj",
"jjjjjjjjjjjjjjjjjjjjjjjjjjjjjjjjjjjjjjjjjjjjjjjjjjjjjjjjjjjjjjjjjjjjjjjjjjjjjjjjjjjjjjjjjjjjjjjjjjjj",
"jjjjjjjjjjjjjjjjjjjjjjjjjjjjjjjjjjjjjjjjjjjjjjjjjjjjjjjjjjjjjjjjjjjjjjjjjjjjjjjjjjjjjjjjjjjjjjjjjjjj",
"jjjjjjjjjjjjjjjjjjjjjjjjjjjjjjjjjjjjjjjjjjjjjjjjjjjjjjjjjjjjjjjjjjjjjjjjjjjjjjjjjjjjjjjjjjjjjjjjjjjj",
"jjjjjjjjjjjjjjjjjjjjjjjjjjjjjjjjjjjjjjjjjjjjjjjjjjjjjjjjjjjjjjjjjjjjjjjjjjjjjjjjjjjjjjjjjjjjjjjjjjjj",
"jjjjjjjjjjjjjjjjjjjjjjjjjjjjjjjjjjjjjjjjjjjjjjjjjjjjjjjjjjjjjjjjjjjjjjjjjjjjjjjjjjjjjjjjjjjjjjjjjjjj",
"jjjjjjjjjjjjjjjjjjjjjjjjjjjjjjjjjjjjjjjjjjjjjjjjjjjjjjjjjjjjjjjjjjjjjjjjjjjjjjjjjjjjjjjjjjjjjjjjjjjj",
"jjjjjjjjjjjjjjjjjjjjjjjjjjjjjjjjjjjjjjjjjjjjjjjjjjjjjjjjjjjjjjjjjjjjjjjjjjjjjjjjjjjjjjjjjjjjjjjjjjjj",
"jjjjjjjjjjjjjjjjjjjjjjjjjjjjjjjjjjjjjjjjjjjjjjjjjjjjjjjjjjjjjjjjjjjjjjjjjjjjjjjjjjjjjjjjjjjjjjjjjjjj",
"jjjjjjjjjjjjjjjjjjjjjjjjjjjjjjjjjjjjjjjjjjjjjjjjjjjjjjjjjjjjjjjjjjjjjjjjjjjjjjjjjjjjjjjjjjjjjjjjjjjj"
};
