/* XPM */
static char *DVY_Brick_2x3_xpm[] = {
/* width height num_colors chars_per_pixel */
"   100   100       16            1",
/* colors */
"` c #7d0000",
". c #a29086",
"# c #944d4a",
"a c #bb0000",
"b c #c5cabb",
"c c #942f2e",
"d c #ffffff",
"e c #b75152",
"f c #ff292a",
"g c #c48f8a",
"h c #d0b2ac",
"i c #9b6f68",
"j c #a6b09a",
"k c #bb7371",
"l c #9d0000",
"m c #e0d3cc",
/* pixels */
"dddddddddddddddddddddddddddddddddddddddddddddddddddddddddddddddddddddddddddddddddddddddddddddddddddd",
"dddddddddddddddddddddddddddddddddddddddddddddddddddddddddddddddddddddddddddddddddddddddddddddddddddd",
"dddddddddddddddddddddddddddddddddddddddddddddddddddddddddddddddddddddddddddddddddddddddddddddddddddd",
"dddddddddddddddddddddddddddddddddddddddddddddddddddddddddddddddddddddddddddddddddddddddddddddddddddd",
"dddddddddddddddddddddddddddddddddddddddddddddddddddddddddddddddddddddddddddddddddddddddddddddddddddd",
"dddddddddddddddddddddddddddddddddddddddddddddddddddddddddddddddddddddddddddddddddddddddddddddddddddd",
"dddddddddddddddddddddddddddddddddddddddddddddddddddddddddddddddddddddddddddddddddddddddddddddddddddd",
"dddddddddddddddddddddddddddddddddddddddddddddddddddddddddddddddddddddddddddddddddddddddddddddddddddd",
"dddddddddddddddddddddddddddddddddddddddddddddddddddddddddddddddddddddddddddddddddddddddddddddddddddd",
"dddddddddddddddddddddddddddddddddddddddddddddddddddddddddddddddddddddddddddddddddddddddddddddddddddd",
"dddddddddddddddddddddddddddddddddddddddddddddddddddddddddddddddddddddddddddddddddddddddddddddddddddd",
"dddddddddddddddddddddddddddddddddddddddddddddddddddddddddddddddddddddddddddddddddddddddddddddddddddd",
"dddddddddddddddddddddddddddddddddddddddddddddddddddddddddddddddddddddddddddddddddddddddddddddddddddd",
"dddddddddddddddddddddddddddddddddddddddddddddddddddddddddddddddddddddddddddddddddddddddddddddddddddd",
"dddddddddddddddddddddddddddddddddddddddddddddddddddddddddddddddddddddddddddddddddddddddddddddddddddd",
"dddddddddddddddddddddddddddddddddddddddddddddddddddddddddddddddddddddddddddddddddddddddddddddddddddd",
"dddddddddddddddddddddddddddddddddddddddddddddddddddddddddddddddddddddddddddddddddddddddddddddddddddd",
"dddddddddddddddddddddddddddddddddddddddddddddddddddddddddddddddddddddddddddddddddddddddddddddddddddd",
"dddddddddddddddddddddddddddddddddddddddddddddddddddddddddddddddddddddddddddddddddddddddddddddddddddd",
"dddddddddddddddddddddddddddddddddddddddddddddddddddddddddddddddddddddddddddddddddddddddddddddddddddd",
"ddddddddddddddddddddddddddddddddddddddddddddddddddddddddddmmmmmddddddddddddddddddddddddddddddddddddd",
"ddddddddddddddddddddddddddddddddddddddddddddddddddddddddddmhhhmmdddddddddddddddddddddddddddddddddddd",
"dddddddddddddddddddddddddddddddddddddddddddddddddddddmbhhggkkikghddddddddddddddddddddddddddddddddddd",
"ddddddddddddddddddddddddddddddddddddddddddddddddddddmbjii##cccc#gmdddddddddddddddddddddddddddddddddd",
"ddddddddddddddddddddddddddddddddddddddddddddddddmmmbh.i#cccc``cc#.hmdddddddddddddddddddddddddddddddd",
"ddddddddddddddddddddddddddddddddddddddddddddddddmhjgi#c`````````ccibmddddddddddddddddddddddddddddddd",
"ddddddddddddddddddddddddddddddddddddddddddddmmmhgii#cc```llllll``c#ijmmddddddddddddddddddddddddddddd",
"ddddddddddddddddddddddddddddddddddddddddddddmhgi#cc````lllaaaall```cihmddddddddddddddddddddddddddddd",
"ddddddddddddddddddddddddddddddddddddddmbbbhj.i#cc`````llaaaaaaall```#i.bmddddddddddddddddddddddddddd",
"dddddddddddddddddddddddddddddddddddddmh...ii#c````````laafffffaal`````#.bddddddddddddddddddddddddddd",
"dddddddddddddddddddddddddddddddddddmbgkie##cc`````````llaafffaaal`````c#khmddddddddddddddddddddddddd",
"ddddddddddddddddddddddddddddddddddmb.##ccc`````````````laafffaaal```````cihmdddddddddddddddddddddddd",
"ddddddddddddddddddddddddddddddmmmbgi#cccll``````````````laaaaalll```````ccighmdddddddddddddddddddddd",
"dddddddddddddddddddddddddddddmbhgg#c`````l```c```````````llllll``````lll``c#gmmddddddddddddddddddddd",
"dddddddddddddddddddddddddmmmbhgi##c````lllll`````````````````````````llll``c#khmmddddddddddddddddddd",
"dddddddddddddddddddddddmbbbhgi#c````lllllalll`````````````````````````lllll``cihmddddddddddddddddddd",
"ddddddddddddddddddddmbbjj.ii#cc`````laaaaaaal````````````````````````lllaall``ci.hmddddddddddddddddd",
"dddddddddddddddddddmj...i#c````````laaaaffaaal`````````````````````llllaaaal````cihddddddddddddddddd",
"ddddddddddddddddmbhgi###ccc`````````laafffaaal````````````````````llaaacaaaal```ccihmddddddddddddddd",
"ddddddddddddddddbji#c```````````````lafffffaal````````lc``````````laafffffaal`````cihddddddddddddddd",
"ddddddddddddmbbj.i#cc```````````````llaaaaaall```````llcc`````````laaffffaall`````ccgmdddddddddddddd",
"dddddddddddmb..i#c```lllllll`````````llaaalll```````llccc`````````laaafffcl````lllllehmddddddddddddd",
"ddddddddddmhg##cc```lllaaalll``````````lll`````````llll````````````llaaaaall``llaaaaehmddddddddddddd",
"ddddddddddmg#```````laaaaaaall````````````````````lllll``````````````lllllllllaaaaaaegmddddddddddddd",
"ddddddddddhk#``````llacffaaall````````````````````llllllll````````````lllalllaaaaaaaehmddddddddddddd",
"ddddddddddhecl````llacfffffaal```````````````````lllllaall`````````````llaaaaaaaaaaaehmddddddddddddd",
"ddddddddddhecllllllllacfffaall`````````````````lllaaaaaaall``````````lllaaaaaaaaaaaakhmddddddddddddd",
"ddddddddddhecllllllllaafaaaal``````````````````laacfffaaall````````llaaaaaaaaaaaaaaakhmddddddddddddd",
"ddddddddddheclllllllllllaall``````lll``````````laaaffffall```````lllaaaaaaaaaaaaaaackmmddddddddddddd",
"ddddddddddhkcllllllll````````````llall`````````laaffffcal```llllllaaaaaaaaaaaaaaaaacgddddddddddddddd",
"ddddddddddhk#llllllll`````````````lllll````````llaaaaaall``lllaaaaaaaaaaaaaaaaaaaaacgmdddddddddddddd",
"ddddddddddhk#lllllllll````````````llllll`````````llaaalll`llaaaaaaaaaaaaaaaaaaaaaaacgmdddddddddddddd",
"ddddddddddhk#llllllllll`````````lllllalll``````````llalllllaaaaaaaaaaaaaaaaaaaaaaaacgddddddddddddddd",
"ddddddddddhk#lllllllllll```````lllacaaaall``````````lllaaaaaaaaaaaaaaaaaaaaaaaaaaaacgddddddddddddddd",
"ddddddddddhk#llllllllllll``````laaaffaaal``````````llaaaaaaaaaaaaaaaaaaaaaaaaaaaaaacgddddddddddddddd",
"ddddddddddhk#llllllaaaaall`````lafffffaaa````````llaaaaaaaaaaaaaaaaaaaaaaaaaaaaaaaacgddddddddddddddd",
"ddddddddddhk#llllllllaaalll````laaffffaal``````lllaaaaaaaaaaaaaaaaaaaaaaaaaaaaaaaaacgddddddddddddddd",
"ddddddddddhkellllllllllallll``llaaafaaaal```llllaaaaaaaaaaaaaaaaaaaaaaaaaaaaaaaaaaacgddddddddddddddd",
"ddddddddddhkcllllllllllllllllllllllllallllllaaaaaaaaaaaaaaaaaaaaaaaaaaaaaaaaaaaaaacehddddddddddddddd",
"ddddddddddhkclllllllllllllllllll````````llaaaaaaaaaaaaaaaaaaaaaaaaaaaaaaaaaaaaaalc#gbddddddddddddddd",
"ddddddddddhkellllllllllllllllllll````lllaaaaaaaaaaaaaaaaaaaaaaaaaaaaaaaaaaaaaaceighbmddddddddddddddd",
"ddddddddddmgellllllllllllllllllllllllllaaaaaaaaaaaaaaaaaaaaaaaaaaaaaaaaalllaace.bmdddddddddddddddddd",
"ddddddddddmbkeclllllllllllllllllllaaaaaaaaaaaaaaaaaaaaaaaaaaaaaaaaaaaaaaaceekgghmddddddddddddddddddd",
"ddddddddddddhkellllllllllllllllllaaaaaaaaaaaaaaaaaaaaaaaaaaaaaaaaaaaaaaacekhbmdddddddddddddddddddddd",
"ddddddddddddmhkecllllllllllllllllaaaaaaaaaaaaaaaaaaaaaaaaaaaaaaaaccccceekghmmddddddddddddddddddddddd",
"ddddddddddddddbgellllllllllllllllaaaaaaaaaaaaaaaaaaaaaaaaaaaaaaaaccceeghmddddddddddddddddddddddddddd",
"ddddddddddddddmmgecllllllllllllllaaaaaaaaaaaaaaaaaaaaaaaaaaaaaalcekgghhmmddddddddddddddddddddddddddd",
"ddddddddddddddddmgelllllllllllllaaaaaaaaaaaaaaaaaaaaaaaaaaaaaalcekhmmddddddddddddddddddddddddddddddd",
"ddddddddddddddddmmgk#lllllllllllaaaaaaaaaaaaaaaaaaaaaaaaaaaaceekghmmdddddddddddddddddddddddddddddddd",
"ddddddddddddddddddmbkclllllllllaaaaaaaaaaaaaaaaaaaaaaaalaaaceghmmddddddddddddddddddddddddddddddddddd",
"dddddddddddddddddddmhkeclllllllaaaaaaaaaaaaaaaaaaaaaaaaceekkghmddddddddddddddddddddddddddddddddddddd",
"ddddddddddddddddddddmmgeclllllaaaaaaaaaaaaaaaaaaaaaaaacekhhhmddddddddddddddddddddddddddddddddddddddd",
"dddddddddddddddddddddmhgeccllllaaaaaaaaaaaaaaaaaaacceekghmmmdddddddddddddddddddddddddddddddddddddddd",
"ddddddddddddddddddddddmmhkc`lllaaaaaaaaaaaaaaaallceeghmmdddddddddddddddddddddddddddddddddddddddddddd",
"ddddddddddddddddddddddddmhk#clllaaaaaaaaaaaaaaceekghhmmddddddddddddddddddddddddddddddddddddddddddddd",
"dddddddddddddddddddddddddmhk#``llaaaaaaaaaaaacekhmmmdddddddddddddddddddddddddddddddddddddddddddddddd",
"ddddddddddddddddddddddddddmhkcc`laaaaaaacceekgghmmmddddddddddddddddddddddddddddddddddddddddddddddddd",
"ddddddddddddddddddddddddddddhic`laaaaaacc#kjbmdddddddddddddddddddddddddddddddddddddddddddddddddddddd",
"ddddddddddddddddddddddddddddmhk#caaaacekgghmmddddddddddddddddddddddddddddddddddddddddddddddddddddddd",
"ddddddddddddddddddddddddddddddhkecaceeghmddddddddddddddddddddddddddddddddddddddddddddddddddddddddddd",
"ddddddddddddddddddddddddddddddmhgkkkghhmmddddddddddddddddddddddddddddddddddddddddddddddddddddddddddd",
"ddddddddddddddddddddddddddddddddmhbbmddddddddddddddddddddddddddddddddddddddddddddddddddddddddddddddd",
"dddddddddddddddddddddddddddddddddmmmdddddddddddddddddddddddddddddddddddddddddddddddddddddddddddddddd",
"dddddddddddddddddddddddddddddddddddddddddddddddddddddddddddddddddddddddddddddddddddddddddddddddddddd",
"dddddddddddddddddddddddddddddddddddddddddddddddddddddddddddddddddddddddddddddddddddddddddddddddddddd",
"dddddddddddddddddddddddddddddddddddddddddddddddddddddddddddddddddddddddddddddddddddddddddddddddddddd",
"dddddddddddddddddddddddddddddddddddddddddddddddddddddddddddddddddddddddddddddddddddddddddddddddddddd",
"dddddddddddddddddddddddddddddddddddddddddddddddddddddddddddddddddddddddddddddddddddddddddddddddddddd",
"dddddddddddddddddddddddddddddddddddddddddddddddddddddddddddddddddddddddddddddddddddddddddddddddddddd",
"dddddddddddddddddddddddddddddddddddddddddddddddddddddddddddddddddddddddddddddddddddddddddddddddddddd",
"dddddddddddddddddddddddddddddddddddddddddddddddddddddddddddddddddddddddddddddddddddddddddddddddddddd",
"dddddddddddddddddddddddddddddddddddddddddddddddddddddddddddddddddddddddddddddddddddddddddddddddddddd",
"dddddddddddddddddddddddddddddddddddddddddddddddddddddddddddddddddddddddddddddddddddddddddddddddddddd",
"dddddddddddddddddddddddddddddddddddddddddddddddddddddddddddddddddddddddddddddddddddddddddddddddddddd",
"dddddddddddddddddddddddddddddddddddddddddddddddddddddddddddddddddddddddddddddddddddddddddddddddddddd",
"dddddddddddddddddddddddddddddddddddddddddddddddddddddddddddddddddddddddddddddddddddddddddddddddddddd",
"dddddddddddddddddddddddddddddddddddddddddddddddddddddddddddddddddddddddddddddddddddddddddddddddddddd",
"dddddddddddddddddddddddddddddddddddddddddddddddddddddddddddddddddddddddddddddddddddddddddddddddddddd",
"dddddddddddddddddddddddddddddddddddddddddddddddddddddddddddddddddddddddddddddddddddddddddddddddddddd",
"dddddddddddddddddddddddddddddddddddddddddddddddddddddddddddddddddddddddddddddddddddddddddddddddddddd"
};
