/* XPM */
static char *WoodScrew01_xpm[] = {
/* width height num_colors chars_per_pixel */
"    32    32       16            1",
/* colors */
"` c #292916",
". c #a69764",
"# c #dfcea1",
"a c #685e34",
"b c #c4b372",
"c c #ffedac",
"d c #82784d",
"e c #cabb9d",
"f c #b9a56e",
"g c #514a24",
"h c #ddd8cc",
"i c #d7c074",
"j c #ffffff",
"k c #796a3a",
"l c #93834e",
"m c #efe09a",
/* pixels */
"jjjjjjjjjjjjjjjjjjjjjjjjjjjjjjjj",
"jjjjjjjjjjjjjjjjjjjbfehjjjjjjjjj",
"jjjjjjjjjjjjjjjjjjhfeeb#jjjjjjjj",
"jjjjjjjjjjjjjjjjjj#.febb#jjjjjjj",
"jjjjjjjjjjjjjjjjjjh`gdefe#hjjjjj",
"jjjjjjjjjjjjjjjjjjhg.agfe##jjjjj",
"jjjjjjjjjjjjjjjjjjjabi.akem#jjjj",
"jjjjjjjjjjjjjjjjjjjdkmeelak#hjjj",
"jjjjjjjjjjjjjjjjjj.agk###hflfhjj",
"jjjjjjjjjjjjjjjjj.la``af#mh#bejj",
"jjjjjjjjjjjjjjjj.kklk``gab##b#hj",
"jjjjjjjjjjjjjjj.kabmmd``ggl#ebej",
"jjjjjjjjjjjjjjfkafccbggaakkdffej",
"jjjjjjjjjjjjj.ka.mc#lga..heeeehj",
"jjjjjjjjjjjjekg.mcdggadljjjjjjjj",
"jjjjjjjjjjj.lalmcl``ddlhjjjjjjjj",
"jjjjjjjjjjhkdkmcd``kffjjjjjjjjjj",
"jjjjjjjjjf.dlmcd``a.bjjjjjjjjjjj",
"jjjjjjjjhallmcb`affejjjjjjjjjjjj",
"jjjjjjje#lkmma``kffjjjjjjjjjjjjj",
"jjjjjj#glk#c.`lffejjjjjjjjjjjjjj",
"jjjjjhhld#mkggbbejjjjjjjjjjjjjjj",
"jjjjeglaiclg..eejjjjjjjjjjjjjjjj",
"jjjjhddecd`aifhjjjjjjjjjjjjjjjjj",
"jjhaldfckg..iejjjjjjjjjjjjjjjjjj",
"jjj.dbc.`aifjjjjjjjjjjjjjjjjjjjj",
"jjhdfcdgl.iejjjjjjjjjjjjjjjjjjjj",
"jhdlmbgdi.jjjjjjjjjjjjjjjjjjjjjj",
"jjf#fgd.i#jjjjjjjjjjjjjjjjjjjjjj",
"jjdfda.#jjjjjjjjjjjjjjjjjjjjjjjj",
"jjhhjjhjjjjjjjjjjjjjjjjjjjjjjjjj",
"jjjjjjjjjjjjjjjjjjjjjjjjjjjjjjjj"
};
