/* XPM */
static char *Slotted_xpm[] = {
/* width height num_colors chars_per_pixel */
"    32    32      256            2",
/* colors */
"`` c #fefefe",
"`. c #d6d6d6",
"`# c #c0c0c0",
"`a c #aaaaaa",
"`b c #9d9d9d",
"`c c #6b6b6b",
"`d c #787878",
"`e c #b7b7b7",
"`f c #c9c9c9",
"`g c #dfdfdf",
"`h c #848484",
"`i c #8c8c8c",
"`j c #aeaeae",
"`k c #d1d1d1",
"`l c #e3e3e3",
"`m c #f5f5f5",
"`n c #f9f9f9",
"`o c #ececec",
"`p c #dadada",
"`q c #c4c4c4",
"`r c #959595",
"`s c #919191",
"`t c #cdcdcd",
"`u c #e7e7e7",
"`v c #f0f0f0",
"`w c #b3b3b3",
"`x c #999999",
"`y c #808080",
"`z c #a6a6a6",
"`A c #6f6f6f",
"`B c #888888",
"`C c #636363",
"`D c #bbbbbb",
"`E c #a2a2a2",
"`F c #7c7c7c",
"`G c #252525",
"`H c #434343",
"`I c #010101",
"`J c #676767",
"`K c #737373",
"`L c #535353",
"`M c #e36f6f",
"`N c #da4b4b",
"`O c #e79595",
"`P c #ae7c7c",
"`Q c #e39595",
"`R c #5b5b5b",
"`S c #df5b5b",
"`T c #d13030",
"`U c #eca2a2",
"`V c #c90a0a",
"`W c #ae2525",
"`X c #d12222",
"`Y c #e37878",
"`Z c #df5f5f",
"`0 c #f5c0c0",
"`1 c #f9e7e7",
"`2 c #d64747",
"`3 c #fef0f0",
"`4 c #ecaaaa",
"`5 c #c90404",
"`6 c #cd1717",
"`7 c #f9dada",
"`8 c #f5d1d1",
".` c #000080",
".. c #800080",
".# c #008080",
".a c #c0c0c0",
".b c #c0dcc0",
".c c #a6caf0",
".d c #fffbf0",
".e c #a0a0a4",
".f c #808080",
".g c #ff0000",
".h c #00ff00",
".i c #ffff00",
".j c #0000ff",
".k c #ff00ff",
".l c #00ffff",
".m c #ffffff",
".n c #000000",
".o c #800000",
".p c #008000",
".q c #808000",
".r c #000080",
".s c #800080",
".t c #008080",
".u c #c0c0c0",
".v c #c0dcc0",
".w c #a6caf0",
".x c #fffbf0",
".y c #a0a0a4",
".z c #808080",
".A c #ff0000",
".B c #00ff00",
".C c #ffff00",
".D c #0000ff",
".E c #ff00ff",
".F c #00ffff",
".G c #ffffff",
".H c #000000",
".I c #800000",
".J c #008000",
".K c #808000",
".L c #000080",
".M c #800080",
".N c #008080",
".O c #c0c0c0",
".P c #c0dcc0",
".Q c #a6caf0",
".R c #fffbf0",
".S c #a0a0a4",
".T c #808080",
".U c #ff0000",
".V c #00ff00",
".W c #ffff00",
".X c #0000ff",
".Y c #ff00ff",
".Z c #00ffff",
".0 c #ffffff",
".1 c #000000",
".2 c #800000",
".3 c #008000",
".4 c #808000",
".5 c #000080",
".6 c #800080",
".7 c #008080",
".8 c #c0c0c0",
"#` c #c0dcc0",
"#. c #a6caf0",
"## c #fffbf0",
"#a c #a0a0a4",
"#b c #808080",
"#c c #ff0000",
"#d c #00ff00",
"#e c #ffff00",
"#f c #0000ff",
"#g c #ff00ff",
"#h c #00ffff",
"#i c #ffffff",
"#j c #000000",
"#k c #800000",
"#l c #008000",
"#m c #808000",
"#n c #000080",
"#o c #800080",
"#p c #008080",
"#q c #c0c0c0",
"#r c #c0dcc0",
"#s c #a6caf0",
"#t c #fffbf0",
"#u c #a0a0a4",
"#v c #808080",
"#w c #ff0000",
"#x c #00ff00",
"#y c #ffff00",
"#z c #0000ff",
"#A c #ff00ff",
"#B c #00ffff",
"#C c #ffffff",
"#D c #000000",
"#E c #800000",
"#F c #008000",
"#G c #808000",
"#H c #000080",
"#I c #800080",
"#J c #008080",
"#K c #c0c0c0",
"#L c #c0dcc0",
"#M c #a6caf0",
"#N c #fffbf0",
"#O c #a0a0a4",
"#P c #808080",
"#Q c #ff0000",
"#R c #00ff00",
"#S c #ffff00",
"#T c #0000ff",
"#U c #ff00ff",
"#V c #00ffff",
"#W c #ffffff",
"#X c #000000",
"#Y c #800000",
"#Z c #008000",
"#0 c #808000",
"#1 c #000080",
"#2 c #800080",
"#3 c #008080",
"#4 c #c0c0c0",
"#5 c #c0dcc0",
"#6 c #a6caf0",
"#7 c #fffbf0",
"#8 c #a0a0a4",
"a` c #808080",
"a. c #ff0000",
"a# c #00ff00",
"aa c #ffff00",
"ab c #0000ff",
"ac c #ff00ff",
"ad c #00ffff",
"ae c #ffffff",
"af c #000000",
"ag c #800000",
"ah c #008000",
"ai c #808000",
"aj c #000080",
"ak c #800080",
"al c #008080",
"am c #c0c0c0",
"an c #c0dcc0",
"ao c #a6caf0",
"ap c #fffbf0",
"aq c #a0a0a4",
"ar c #808080",
"as c #ff0000",
"at c #00ff00",
"au c #ffff00",
"av c #0000ff",
"aw c #ff00ff",
"ax c #00ffff",
"ay c #ffffff",
"az c #000000",
"aA c #800000",
"aB c #008000",
"aC c #808000",
"aD c #000080",
"aE c #800080",
"aF c #008080",
"aG c #c0c0c0",
"aH c #c0dcc0",
"aI c #a6caf0",
"aJ c #fffbf0",
"aK c #a0a0a4",
"aL c #808080",
"aM c #ff0000",
"aN c #00ff00",
"aO c #ffff00",
"aP c #0000ff",
"aQ c #ff00ff",
"aR c #00ffff",
"aS c #ffffff",
"aT c #000000",
"aU c #800000",
"aV c #008000",
"aW c #808000",
"aX c #000080",
"aY c #800080",
"aZ c #008080",
"a0 c #c0c0c0",
"a1 c #c0dcc0",
"a2 c #a6caf0",
"a3 c #fffbf0",
"a4 c #a0a0a4",
"a5 c #808080",
"a6 c #ff0000",
"a7 c #00ff00",
"a8 c #ffff00",
/* pixels */
"````````````````````````````````````````````````````````````````",
"```````````````````````````````n`l``````````````````````````````",
"`````````````````````k`r`e```````````````y`B`o``````````````````",
"```````````````````B`j```````````````````````K`s````````````````",
"```````````````g`v```````````````````````````````#`n````````````",
"`````````````e`z```````````````````````````````````L`l``````````",
"`````````g`r```````````````````````````````````````````u````````",
"`````````f`w```````````````````````````````````````````L`n``````",
"`````````n```````````````````````````````````````````````D``````",
"```````s```````````````````````````````````````````````````h````",
"`````w`g```````````````````````````````````````````````````c`o``",
"`````q```````````````````````````````````````````````````````A``",
"`````v```````````````````````````````````````````````````````A``",
"```v````````````````````````````````````````````````````````````",
"```k`n.j.j.j.j.j.j.j.j.j.j.j.j.j.j.j.j.j.j.j.j.j.j.j.j.j.j.j````",
"```j`v.j.j.j.j.j.j.j.j.j.j.j.j.j.j.j.j.j.j.j.j.j.j.j.j.j.j.j```n",
"```x`v.j.j.j.j.j.j.j.j.j.j.j.j.j.j.j.j.j.j.j.j.j.j.j.j.j.j.j```t",
"```E`v.j.j.j.j.j.j.j.j.j.j.j.j.j.j.j.j.j.j.j.j.j.j.j.j.j.j.j```l",
"```f`v.j.j.j.j.j.j.j.j.j.j.j.j.j.j.j.j.j.j.j.j.j.j.j.j.j.j.j````",
"```g````````````````````````````````````````````````````````````",
"`````````````````````````````````````````````````````````````w``",
"`````g```````````````````````````````````````````````````````d``",
"`````x`n```````````````````````````````````````````````````z`#``",
"`````u`E```````````````````````````````````````````````````c````",
"```````o`````````````````````````````````````````````````v``````",
"`````````x`l```````````````````````````````````````````x`#``````",
"```````````B```````````````````````````````````````````E````````",
"`````````````B`u```````````````````````````````````b`r``````````",
"```````````````r`````````````````````````````````m`a````````````",
"`````````````````v`x`m```````````````````````k`y`n``````````````",
"```````````````````u`i`k`````````````````v`w`r`m````````````````",
"```````````````````````````.`#`b`d`b`f`g````````````````````````"
};
