/* XPM */
static char *Hex_xpm[] = {
/* width height num_colors chars_per_pixel */
"    32    32       16            1",
/* colors */
"` c #0000ff",
". c #8787ff",
"# c #cacaff",
"a c #eeedff",
"b c #4747ff",
"c c #adadae",
"d c #2f2fff",
"e c #ddddff",
"f c #b6b6ff",
"g c #6e6fff",
"h c #a8a2ac",
"i c #bebdbe",
"j c #5557ff",
"k c #1717ff",
"l c #ffffff",
"m c #9f9fff",
/* pixels */
"lllllllllllllllallllllllllllllll",
"llllllllllaaiiiiciciaallllllllll",
"llllllllaiiiallllllaicilllllllll",
"llllllleialllllllllllaehelllllll",
"lllllaielllllllllllllllaiillllll",
"llllaielllllllllllllllllliilllll",
"llllielllllllllllllllllllliillll",
"lll#ellllllllllllllllllllllielll",
"llailllllla.jjjjjjjjmllllllahlll",
"ll#allllllf`````````k#llllll#ill",
"laillllllab``````````jalllllacal",
"l#allllll.```````````kfllllllcal",
"lillllllek````````````ballllleil",
"aillllllg``````````````mllllllhl",
"aeallllfk``````````````d#lllllhl",
"eeallllb````````````````glllllha",
"eealllld````````````````ballllca",
"eeallllm```````````````kmlllllhl",
"a#allllab``````````````galllllcl",
"lillllll#`````````````kalllllacl",
"liallllllg````````````mlllllliel",
"lailllllled``````````ballllllcal",
"lliallllll.``````````flllllleill",
"lleellllllajddddddddgallllllcall",
"llliallllllaeeeeeeeeallllll#illl",
"lllaialllllllllllllllllllleillll",
"llllacalllllllllllllllllleiallll",
"lllllaiallllllllllllllllecalllll",
"llllllaieallllllllllllaiiallllll",
"lllllllleiiallllllllaiiellllllll",
"llllllllllaiiieeeeiciallllllllll",
"lllllllllllllae##ealllllllllllll"
};
