/* XPM */
static char *DVY_Brick_2x2_xpm[] = {
/* width height num_colors chars_per_pixel */
"   100   100       16            1",
/* colors */
"` c #780000",
". c #ce9091",
"# c #a24d4e",
"a c #b80000",
"b c #7d2c2c",
"c c #ffcfce",
"d c #960000",
"e c #c12829",
"f c #c15657",
"g c #d8aead",
"h c #ae6f6f",
"i c #c47375",
"j c #ffffff",
"k c #dd2e30",
"l c #ffb3b4",
"m c #9b3135",
/* pixels */
"jjjjjjjjjjjjjjjjjjjjjjjjjjjjjjjjjjjjjjjjjjjjjjjjjjjjjjjjjjjjjjjjjjjjjjjjjjjjjjjjjjjjjjjjjjjjjjjjjjjj",
"jjjjjjjjjjjjjjjjjjjjjjjjjjjjjjjjjjjjjjjjjjjjjjjjjjjjjjjjjjjjjjjjjjjjjjjjjjjjjjjjjjjjjjjjjjjjjjjjjjjj",
"jjjjjjjjjjjjjjjjjjjjjjjjjjjjjjjjjjjjjjjjjjjjjjjjjjjjjjjjjjjjjjjjjjjjjjjjjjjjjjjjjjjjjjjjjjjjjjjjjjjj",
"jjjjjjjjjjjjjjjjjjjjjjjjjjjjjjjjjjjjjjjjjjjjjjjjjjjjjjjjjjjjjjjjjjjjjjjjjjjjjjjjjjjjjjjjjjjjjjjjjjjj",
"jjjjjjjjjjjjjjjjjjjjjjjjjjjjjjjjjjjjjjjjjjjjjjjjjjjjjjjjjjjjjjjjjjjjjjjjjjjjjjjjjjjjjjjjjjjjjjjjjjjj",
"jjjjjjjjjjjjjjjjjjjjjjjjjjjjjjjjjjjjjjjjjjjjjjjjjjjjjjjjjjjjjjjjjjjjjjjjjjjjjjjjjjjjjjjjjjjjjjjjjjjj",
"jjjjjjjjjjjjjjjjjjjjjjjjjjjjjjjjjjjjjjjjjjjjjjjjjjjjjjjjjjjjjjjjjjjjjjjjjjjjjjjjjjjjjjjjjjjjjjjjjjjj",
"jjjjjjjjjjjjjjjjjjjjjjjjjjjjjjjjjjjjjjjjjjjjjjjjjjjjjjjjjjjjjjjjjjjjjjjjjjjjjjjjjjjjjjjjjjjjjjjjjjjj",
"jjjjjjjjjjjjjjjjjjjjjjjjjjjjjjjjjjjjjjjjjjjjjjjjjjjjjjjjjjjjjjjjjjjjjjjjjjjjjjjjjjjjjjjjjjjjjjjjjjjj",
"jjjjjjjjjjjjjjjjjjjjjjjjjjjjjjjjjjjjjjjjjjjjjjjjjjjjjjjjjjjjjjjjjjjjjjjjjjjjjjjjjjjjjjjjjjjjjjjjjjjj",
"jjjjjjjjjjjjjjjjjjjjjjjjjjjjjjjjjjjjjjjjjjjjjjjjjjjjjjjjjjjjjjjjjjjjjjjjjjjjjjjjjjjjjjjjjjjjjjjjjjjj",
"jjjjjjjjjjjjjjjjjjjjjjjjjjjjjjjjjjjjjjjjjjjjjjjjjjjjjjjjjjjjjjjjjjjjjjjjjjjjjjjjjjjjjjjjjjjjjjjjjjjj",
"jjjjjjjjjjjjjjjjjjjjjjjjjjjjjjjjjjjjjjjjjjjjjjjjjjjjjjjjjjjjjjjjjjjjjjjjjjjjjjjjjjjjjjjjjjjjjjjjjjjj",
"jjjjjjjjjjjjjjjjjjjjjjjjjjjjjjjjjjjjjjjjjjjjjjjjjjjjjjjjjjjjjjjjjjjjjjjjjjjjjjjjjjjjjjjjjjjjjjjjjjjj",
"jjjjjjjjjjjjjjjjjjjjjjjjjjjjjjjjjjjjjjjjjjjjjjjjjjjjjjjjjjjjjjjjjjjjjjjjjjjjjjjjjjjjjjjjjjjjjjjjjjjj",
"jjjjjjjjjjjjjjjjjjjjjjjjjjjjjjjjjjjjjjjjjjjjjjjjjjjjjjjjjjjjjjjjjjjjjjjjjjjjjjjjjjjjjjjjjjjjjjjjjjjj",
"jjjjjjjjjjjjjjjjjjjjjjjjjjjjjjjjjjjjjjjjjjjjjjjjjjjjjjjjjjjjjjjjjjjjjjjjjjjjjjjjjjjjjjjjjjjjjjjjjjjj",
"jjjjjjjjjjjjjjjjjjjjjjjjjjjjjjjjjjjjjjjjjjjjjjjjjjjjjjjjjjjjjjjjjjjjjjjjjjjjjjjjjjjjjjjjjjjjjjjjjjjj",
"jjjjjjjjjjjjjjjjjjjjjjjjjjjjjjjjjjjjjjjjjjjjjjjjccccggccjjjjjjjjjjjjjjjjjjjjjjjjjjjjjjjjjjjjjjjjjjjj",
"jjjjjjjjjjjjjjjjjjjjjjjjjjjjjjjjjjjjjjjjjjjjjjjclg..h#.ccjjjjjjjjjjjjjjjjjjjjjjjjjjjjjjjjjjjjjjjjjjj",
"jjjjjjjjjjjjjjjjjjjjjjjjjjjjjjjjjjjjjjjjjjjjcg.hhfffmb#h.ccjjjjjjjjjjjjjjjjjjjjjjjjjjjjjjjjjjjjjjjjj",
"jjjjjjjjjjjjjjjjjjjjjjjjjjjjjjjjjjjjjjjjjjjjgh#`bbbb````#.cjjjjjjjjjjjjjjjjjjjjjjjjjjjjjjjjjjjjjjjjj",
"jjjjjjjjjjjjjjjjjjjjjjjjjjjjjjjjjjjjjjjjccg.hbbbbbbd````b#.gcjjjjjjjjjjjjjjjjjjjjjjjjjjjjjjjjjjjjjjj",
"jjjjjjjjjjjjjjjjjjjjjjjjjjjjjjjjjjjjjjjjcli#b``mbdddd`````#hgjjjjjjjjjjjjjjjjjjjjjjjjjjjjjjjjjjjjjjj",
"jjjjjjjjjjjjjjjjjjjjjjjjjjjjjjjjjjjjcgg.hfmb```dddddddd```bmh.cjjjjjjjjjjjjjjjjjjjjjjjjjjjjjjjjjjjjj",
"jjjjjjjjjjjjjjjjjjjjjjjjjjjjjjjjjjjcg.#b```````ddddddddd````b#.cjjjjjjjjjjjjjjjjjjjjjjjjjjjjjjjjjjjj",
"jjjjjjjjjjjjjjjjjjjjjjjjjjjjjjccgg.h##bb````ddddddddddddd```bb#.gcjjjjjjjjjjjjjjjjjjjjjjjjjjjjjjjjjj",
"jjjjjjjjjjjjjjjjjjjjjjjjjjjjcccl.#b`````````dddaaaaaaaadd`````bbiccjjjjjjjjjjjjjjjjjjjjjjjjjjjjjjjjj",
"jjjjjjjjjjjjjjjjjjjjjjjjcgg..ihh#bb````````dddaaeeeeeaaddd`````b#hgccjjjjjjjjjjjjjjjjjjjjjjjjjjjjjjj",
"jjjjjjjjjjjjjjjjjjjjjjjcgi#bbb```````````dddddeekkkkkeeadd```````bhgcjjjjjjjjjjjjjjjjjjjjjjjjjjjjjjj",
"jjjjjjjjjjjjjjjjjjjjjcg.h#mbbbb`````````````ddaekkkkkeeaddd```````b#.gcjjjjjjjjjjjjjjjjjjjjjjjjjjjjj",
"jjjjjjjjjjjjjjjjjjjjcc.#b```bbddd```````````ddaeekkkkeaaddd`````````#igjjjjjjjjjjjjjjjjjjjjjjjjjjjjj",
"jjjjjjjjjjjjjjjjccgg.h#bb``dddddddd`````````dddaeeeeeaadddd`````````b#hgcjjjjjjjjjjjjjjjjjjjjjjjjjjj",
"jjjjjjjjjjjjjjjjcgh#b`````dddddddddd``````````dddaaadddddd``````dmd```b#gjjjjjjjjjjjjjjjjjjjjjjjjjjj",
"jjjjjjjjjjjjccg.h##b````ddddddddddddd``````````ddddddddd``````dddddd``bb#.gcjjjjjjjjjjjjjjjjjjjjjjjj",
"jjjjjjjjjjjjcghb```````dddddddddddddd````````````````````````ddmdddddd``bbiccjjjjjjjjjjjjjjjjjjjjjjj",
"jjjjjjjjjjjjg.#b```````ddddeeeeeaadddd````````````````````````ddddddddd``b#hgcjjjjjjjjjjjjjjjjjjjjjj",
"jjjjjjjjjjjjgi#``d`````ddaeekkkkeeaddd````````````````````````dddddddddd```bhgcjjjjjjjjjjjjjjjjjjjjj",
"jjjjjjjjjjjjgi#`ddd``ddddaeekkkkeeaddd``````````````````````dddddddddddd````mh.gcjjjjjjjjjjjjjjjjjjj",
"jjjjjjjjjjjjgimddddddddddeeekkkkeaadddd```````````````````dddddddddaaaddd`````#.gjjjjjjjjjjjjjjjjjjj",
"jjjjjjjjjjjjgimdddddddddddaeekkkeaaddd````````````````````ddddaeeeeeaaadd`````b#igcjjjjjjjjjjjjjjjjj",
"jjjjjjjjjjjjgim`dddddddddddeeeeeaaddd``````ddd````````````dddeekkkkkeaadd```````bhgjjjjjjjjjjjjjjjjj",
"jjjjjjjjjjjjgimddddddddddddddddadddd`````dddddd```````````dddaekkkkkeeaddd``````bmiccjjjjjjjjjjjjjjj",
"jjjjjjjjjjjjgh#dddddddddddddd``dd```````dddddddd``````````dddaeekkkkeeadddd`dddd``#.cjjjjjjjjjjjjjjj",
"jjjjjjjjjjjjgi#ddddddddddddd`````````````dddddddd`````````ddddaaekeeeaddddddddddddf.cjjjjjjjjjjjjjjj",
"jjjjjjjjjjjjgi#`ddddddddddd``````````````ddddddddd`````````ddddaeeeaadddddddaaaaadf.cjjjjjjjjjjjjjjj",
"jjjjjjjjjjjjgi#dddddddddddddd````````````dddddddddd`````````dddddaaddddddddaaaaaadf.cjjjjjjjjjjjjjjj",
"jjjjjjjjjjjjgi#dddddddddddddd``````````ddddddddddddd```````````dddddddddaaaaaaaaadf.cjjjjjjjjjjjjjjj",
"jjjjjjjjjjjjgi#`ddddddddddddddd```````dddddaaaaaadddd``````````ddddddaaaaaaaaaaaadf.cjjjjjjjjjjjjjjj",
"jjjjjjjjjjjjgi#`dddddddddddddddd``````ddaeeeeeeeaaddd``````````ddddaaaaaaaaaaaaaadfgcjjjjjjjjjjjjjjj",
"jjjjjjjjjjjjgi#dddddddddddddddddd`````ddaeekkkeeaaddd````````dddddaaaaaaaaaaaaaaadfgcjjjjjjjjjjjjjjj",
"jjjjjjjjjjjjgi#ddddddddddaddddddddd```ddaeekkkkkaaadd```````ddddaaaaaaaaaaaaaaaaddfgcjjjjjjjjjjjjjjj",
"jjjjjjjjjjjjgi#ddddddddddaddddddddddd`ddaaekkkkkaaadd```ddddddaaaaaaaaaaaaaaaaaaddfgcjjjjjjjjjjjjjjj",
"jjjjjjjjjjjjgim`dddddddddddaddddddddddddaaekkkkeaaddddddddddaaaaaaaaaaaaaaaaaaaaddfgcjjjjjjjjjjjjjjj",
"jjjjjjjjjjjjgi#dddddddddddddddddddddddddddaaeeaaadddddddddaaaaaaaaaaaaaaaaaaaaaaddilcjjjjjjjjjjjjjjj",
"jjjjjjjjjjjjgi#dddddddddddddddddddddddddddddddddddddddaaaaaaaaaaaaaaaaaaaaaaaaaaddilcjjjjjjjjjjjjjjj",
"jjjjjjjjjjjjgimdddddddddddddddddddddddddddddddddddddaaaaaaaaaaaaaaaaaaaaaaaaaaaaddilcjjjjjjjjjjjjjjj",
"jjjjjjjjjjjjgim`ddddddddddddddddddddddddddd```ddddaaaaaaaaaaaaaaaaaaaaaaaaaaaaaaddiccjjjjjjjjjjjjjjj",
"jjjjjjjjjjjjg.#`dddddddddddddddddddddddddddddddddaaaaaaaaaaaaaaaaaaaaaaaaaaaaaaaddiccjjjjjjjjjjjjjjj",
"jjjjjjjjjjjjcgf`dddddddddddddddddddddddddddaaaaaaaaaaaaaaaaaaaaaaaaaaaaaaaaaaaaaadiccjjjjjjjjjjjjjjj",
"jjjjjjjjjjjjcc.#mdddddddddddddddddddddddddaaaaaaaaaaaaaaaaaaaaaaaaaaaaaaaaaaaaaaadiccjjjjjjjjjjjjjjj",
"jjjjjjjjjjjjjjc.fdddddddddddddddddddddddddaaaaaaaaaaaaaaaaaaaaaaaaaaaaaaaaaaaaaaadiccjjjjjjjjjjjjjjj",
"jjjjjjjjjjjjjjcc.fmdddddddddddddddddddddddaaaaaaaaaaaaaaaaaaaaaaaaaaaaaaaaaaaaaaddiccjjjjjjjjjjjjjjj",
"jjjjjjjjjjjjjjjjcgfbddddddddddddddddddddddaeaaaaaaaaaaaaaaaaaaaaaaaaaaaaaaaaaaaaddicjjjjjjjjjjjjjjjj",
"jjjjjjjjjjjjjjjjccgi#bdddddddddddddddddddaaaaaaaaaaaaaaaaaaaaaaaaaaaaaaaaaaaaaaadbicjjjjjjjjjjjjjjjj",
"jjjjjjjjjjjjjjjjjjccibbddddddddddddddddddaaaaaaaaaaaaaaaaaaaaaaaaaaaaaaaaaaaaaadmbicjjjjjjjjjjjjjjjj",
"jjjjjjjjjjjjjjjjjjjcgi#mddddddddddddddddaaaaaaaaaaaaaaaaaaaaaaaaaaaaaaaaaaaaaadm#fgcjjjjjjjjjjjjjjjj",
"jjjjjjjjjjjjjjjjjjjjcc.mmddddaddddddddddaaaaaaaaaaaaaaaaaaaaaaaaaaaaaaaaaaaaddmmf.cjjjjjjjjjjjjjjjjj",
"jjjjjjjjjjjjjjjjjjjjjcg.fmbdddddddddddddaaaaaaaaaaaaaaaaaaaaaaaaaaaaaaaaaaee#fi.gccjjjjjjjjjjjjjjjjj",
"jjjjjjjjjjjjjjjjjjjjjjjc.#mddddddddadddaaaaaaaaaaaaaaaaaaaaaaaaaaaaaaaaaddm#ilcjjjjjjjjjjjjjjjjjjjjj",
"jjjjjjjjjjjjjjjjjjjjjjjjc.hmmddddddddddaaaaaaaaaaaaaaaaaaaaaaaaaaaadddmmfi.glccjjjjjjjjjjjjjjjjjjjjj",
"jjjjjjjjjjjjjjjjjjjjjjjjjjghmddddddddaaaaaaaaaaaaaaaaaaaaaaaaaaaadddbm#f.ccjjjjjjjjjjjjjjjjjjjjjjjjj",
"jjjjjjjjjjjjjjjjjjjjjjjjjjcgi#mddddddddaaaaaaaaaaaaaaaaaaaaaaadddemffi.gccjjjjjjjjjjjjjjjjjjjjjjjjjj",
"jjjjjjjjjjjjjjjjjjjjjjjjjjjjl.#`ddddddddaaaaaaaaaaaaaaaaaaaaddddmmf.gccjjjjjjjjjjjjjjjjjjjjjjjjjjjjj",
"jjjjjjjjjjjjjjjjjjjjjjjjjjjjcl.fmdddddddaaaaaaaaaaaaaaaaaaadmm#fi.glccjjjjjjjjjjjjjjjjjjjjjjjjjjjjjj",
"jjjjjjjjjjjjjjjjjjjjjjjjjjjjjjcgf``dddddaaaaaaaaaaaaaaaaaadmmmigccjjjjjjjjjjjjjjjjjjjjjjjjjjjjjjjjjj",
"jjjjjjjjjjjjjjjjjjjjjjjjjjjjjjccgi#ddddddaaaaaaaaaaaaaaaeefii.gccjjjjjjjjjjjjjjjjjjjjjjjjjjjjjjjjjjj",
"jjjjjjjjjjjjjjjjjjjjjjjjjjjjjjjjccibbddddaaaaaaaaaaadddemf.lcjjjjjjjjjjjjjjjjjjjjjjjjjjjjjjjjjjjjjjj",
"jjjjjjjjjjjjjjjjjjjjjjjjjjjjjjjjjcgi#bdddaaaaaaaaadem#fi.glccjjjjjjjjjjjjjjjjjjjjjjjjjjjjjjjjjjjjjjj",
"jjjjjjjjjjjjjjjjjjjjjjjjjjjjjjjjjjcc.mb`daaaaaaaddmm#igccjjjjjjjjjjjjjjjjjjjjjjjjjjjjjjjjjjjjjjjjjjj",
"jjjjjjjjjjjjjjjjjjjjjjjjjjjjjjjjjjjcg.fmmddaaaaeefi..gcjjjjjjjjjjjjjjjjjjjjjjjjjjjjjjjjjjjjjjjjjjjjj",
"jjjjjjjjjjjjjjjjjjjjjjjjjjjjjjjjjjjjjc.#mmddddmmf.lcjjjjjjjjjjjjjjjjjjjjjjjjjjjjjjjjjjjjjjjjjjjjjjjj",
"jjjjjjjjjjjjjjjjjjjjjjjjjjjjjjjjjjjjjjc.i#mm#fi.gccjjjjjjjjjjjjjjjjjjjjjjjjjjjjjjjjjjjjjjjjjjjjjjjjj",
"jjjjjjjjjjjjjjjjjjjjjjjjjjjjjjjjjjjjjjjjghhf.lcjjjjjjjjjjjjjjjjjjjjjjjjjjjjjjjjjjjjjjjjjjjjjjjjjjjjj",
"jjjjjjjjjjjjjjjjjjjjjjjjjjjjjjjjjjjjjjjjcggggccjjjjjjjjjjjjjjjjjjjjjjjjjjjjjjjjjjjjjjjjjjjjjjjjjjjjj",
"jjjjjjjjjjjjjjjjjjjjjjjjjjjjjjjjjjjjjjjjjjjjjjjjjjjjjjjjjjjjjjjjjjjjjjjjjjjjjjjjjjjjjjjjjjjjjjjjjjjj",
"jjjjjjjjjjjjjjjjjjjjjjjjjjjjjjjjjjjjjjjjjjjjjjjjjjjjjjjjjjjjjjjjjjjjjjjjjjjjjjjjjjjjjjjjjjjjjjjjjjjj",
"jjjjjjjjjjjjjjjjjjjjjjjjjjjjjjjjjjjjjjjjjjjjjjjjjjjjjjjjjjjjjjjjjjjjjjjjjjjjjjjjjjjjjjjjjjjjjjjjjjjj",
"jjjjjjjjjjjjjjjjjjjjjjjjjjjjjjjjjjjjjjjjjjjjjjjjjjjjjjjjjjjjjjjjjjjjjjjjjjjjjjjjjjjjjjjjjjjjjjjjjjjj",
"jjjjjjjjjjjjjjjjjjjjjjjjjjjjjjjjjjjjjjjjjjjjjjjjjjjjjjjjjjjjjjjjjjjjjjjjjjjjjjjjjjjjjjjjjjjjjjjjjjjj",
"jjjjjjjjjjjjjjjjjjjjjjjjjjjjjjjjjjjjjjjjjjjjjjjjjjjjjjjjjjjjjjjjjjjjjjjjjjjjjjjjjjjjjjjjjjjjjjjjjjjj",
"jjjjjjjjjjjjjjjjjjjjjjjjjjjjjjjjjjjjjjjjjjjjjjjjjjjjjjjjjjjjjjjjjjjjjjjjjjjjjjjjjjjjjjjjjjjjjjjjjjjj",
"jjjjjjjjjjjjjjjjjjjjjjjjjjjjjjjjjjjjjjjjjjjjjjjjjjjjjjjjjjjjjjjjjjjjjjjjjjjjjjjjjjjjjjjjjjjjjjjjjjjj",
"jjjjjjjjjjjjjjjjjjjjjjjjjjjjjjjjjjjjjjjjjjjjjjjjjjjjjjjjjjjjjjjjjjjjjjjjjjjjjjjjjjjjjjjjjjjjjjjjjjjj",
"jjjjjjjjjjjjjjjjjjjjjjjjjjjjjjjjjjjjjjjjjjjjjjjjjjjjjjjjjjjjjjjjjjjjjjjjjjjjjjjjjjjjjjjjjjjjjjjjjjjj",
"jjjjjjjjjjjjjjjjjjjjjjjjjjjjjjjjjjjjjjjjjjjjjjjjjjjjjjjjjjjjjjjjjjjjjjjjjjjjjjjjjjjjjjjjjjjjjjjjjjjj",
"jjjjjjjjjjjjjjjjjjjjjjjjjjjjjjjjjjjjjjjjjjjjjjjjjjjjjjjjjjjjjjjjjjjjjjjjjjjjjjjjjjjjjjjjjjjjjjjjjjjj",
"jjjjjjjjjjjjjjjjjjjjjjjjjjjjjjjjjjjjjjjjjjjjjjjjjjjjjjjjjjjjjjjjjjjjjjjjjjjjjjjjjjjjjjjjjjjjjjjjjjjj",
"jjjjjjjjjjjjjjjjjjjjjjjjjjjjjjjjjjjjjjjjjjjjjjjjjjjjjjjjjjjjjjjjjjjjjjjjjjjjjjjjjjjjjjjjjjjjjjjjjjjj",
"jjjjjjjjjjjjjjjjjjjjjjjjjjjjjjjjjjjjjjjjjjjjjjjjjjjjjjjjjjjjjjjjjjjjjjjjjjjjjjjjjjjjjjjjjjjjjjjjjjjj"
};
