/* XPM */
static char *DVY_Spindles_14_xpm[] = {
/* width height num_colors chars_per_pixel */
"    40   160      256            2",
/* colors */
"`` c #140a00",
"`. c #9c8668",
"`# c #ccc6bc",
"`a c #5c4a27",
"`b c #bca684",
"`c c #946231",
"`d c #cc8a62",
"`e c #947654",
"`f c #746244",
"`g c #ac9a84",
"`h c #b48659",
"`i c #e49670",
"`j c #b47954",
"`k c #dca678",
"`l c #7c5628",
"`m c #cc9a72",
"`n c #a47844",
"`o c #b48670",
"`p c #ece8dc",
"`q c #946e42",
"`r c #8c6e49",
"`s c #dcd6cc",
"`t c #c4b6a4",
"`u c #a4765c",
"`v c #6c5734",
"`w c #a46e43",
"`x c #84622c",
"`y c #cc9264",
"`z c #dc9a6b",
"`A c #b48e64",
"`B c #dcb699",
"`C c #b48e78",
"`D c #7c5634",
"`E c #a4907c",
"`F c #dcc6b1",
"`G c #cca884",
"`H c #846244",
"`I c #443414",
"`J c #b47e54",
"`K c #bc966c",
"`L c #eca675",
"`M c #e49e72",
"`N c #a47e54",
"`O c #946e4c",
"`P c #dcceb4",
"`Q c #c4825a",
"`R c #6c4e30",
"`S c #946644",
"`T c #947660",
"`U c #c4865c",
"`V c #5c3e14",
"`W c #cc9e84",
"`X c #dc926c",
"`Y c #b48267",
"`Z c #ac865f",
"`0 c #a47652",
"`1 c #a47e62",
"`2 c #6c5a3c",
"`3 c #c48e6e",
"`4 c #ccac94",
"`5 c #bc9984",
"`6 c #fff6f4",
"`7 c #946a37",
"`8 c #8c5a24",
".` c #e4e0d4",
".. c #a4714c",
".# c #bc7e51",
".a c #ecae84",
".b c #f4a279",
".c c #9c7e66",
".d c #dc8e6c",
".e c #bc865b",
".f c #cca274",
".g c #ccbeac",
".h c #8c6a3c",
".i c #cc9270",
".j c #dca273",
".k c #7c5e39",
".l c #e4c6b1",
".m c #846a4c",
".n c #d48a64",
".o c #c48a70",
".p c #8c705c",
".q c #8c6230",
".r c #bc8e73",
".s c #543e24",
".t c #f4a676",
".u c #ec9e74",
".v c #9c6e50",
".w c #ac7e64",
".x c #644a27",
".y c #845e26",
".z c #d49a69",
".A c #f4f2ec",
".B c #9c6e38",
".C c #c48e62",
".D c #745230",
".E c #ac866f",
".F c #ac7650",
".G c #ccb2a4",
".H c #bc9e8c",
".I c #c4b29c",
".J c #9c6639",
".K c #e4a675",
".L c #bc866c",
".M c #745727",
".N c #ac7044",
".O c #dc9c74",
".P c #ac9070",
".Q c #8c6545",
".R c #dcd2c8",
".S c #9c775d",
".T c #5c4621",
".U c #745e3d",
".V c #ece0d8",
".W c #d4946d",
".X c #845e38",
".Y c #a48670",
".Z c #bcaa9c",
".0 c #cc8a6c",
".1 c #7c6344",
".2 c #b48764",
".3 c #ec9a74",
".4 c #845a23",
".5 c #ac7843",
".6 c #d4b69c",
".7 c #dcc1a9",
".8 c #dcc8bc",
"#` c #d4b18c",
"#. c #342000",
"## c #ac9e8c",
"#a c #4c362c",
"#b c #cca27c",
"#c c #e4d8d0",
"#d c #c49873",
"#e c #d4ae94",
"#f c #ffeedc",
"#g c #c4a288",
"#h c #ffffff",
"#i c #8c7660",
"#j c #544624",
"#k c #9c764a",
"#l c #ac7e44",
"#m c #d4b298",
"#n c #644614",
"#o c #d4c7b6",
"#p c #b49881",
"#q c #f4e9e2",
"#r c #ac7a64",
"#s c #bc8f62",
"#t c #d4aa7c",
"#u c #e4cfbc",
"#v c #9c6a44",
"#w c #d49a7c",
"#x c #74593d",
"#y c #ac724f",
"#z c #d4bfaf",
"#A c #e4cec4",
"#B c #94663c",
"#C c #8c7054",
"#D c #84643c",
"#E c #4c3614",
"#F c #b47f5c",
"#G c #e4a27c",
"#H c #94725c",
"#I c #6c523c",
"#J c #c48764",
"#K c #dc9674",
"#L c #a4826c",
"#M c #ccaea4",
"#N c #bc815c",
"#O c #bc8764",
"#P c #8c633c",
"#Q c #bc907c",
"#R c #eca27c",
"#S c #ac826c",
"#T c #d49e74",
"#U c #9c6f44",
"#V c #bc9e94",
"#W c #745734",
"#X c #ac907c",
"#Y c #7c624c",
"#Z c #d4baa4",
"#0 c #e4dadc",
"#1 c #c49a7c",
"#2 c #fff2ec",
"#3 c #d49263",
"#4 c #bc8264",
"#5 c #9c6a39",
"#6 c #f4ae7c",
"#7 c #8c6a46",
"#8 c #c4aa98",
"a` c #9c8674",
"a. c #ccb6a4",
"a# c #d4a274",
"aa c #dca27c",
"ab c #7c5e44",
"ac c #845e44",
"ad c #845a2c",
"ae c #d4a27c",
"af c #9c7654",
"ag c #ac7e54",
"ah c #644624",
"ai c #5c4e24",
"aj c #bcaa8c",
"ak c #946634",
"al c #cc8e60",
"am c #b48a5c",
"an c #e49a73",
"ao c #dcaa7c",
"ap c #cc9e72",
"aq c #b48a6c",
"ar c #a47a5e",
"as c #a47242",
"at c #dc9e6c",
"au c #dcba9c",
"av c #b49274",
"aw c #7c5a37",
"ax c #dccab4",
"ay c #846648",
"az c #b48252",
"aA c #ecaa78",
"aB c #e4a274",
"aC c #947253",
"aD c #6c522d",
"aE c #946a45",
"aF c #947a64",
"aG c #c48a5a",
"aH c #5c421c",
"aI c #dc966b",
"aJ c #ac8a64",
"aK c #a47a54",
"aL c #a48264",
"aM c #c49270",
"aN c #fffaff",
"aO c #8c5e29",
"aP c #bc8254",
"aQ c #9c8267",
"aR c #cc9674",
"aS c #e4cab0",
"aT c #d48e66",
"aU c #8c6634",
"aV c #bc9274",
"aW c #544220",
"aX c #f4aa79",
"aY c #eca274",
"aZ c #9c724f",
"a0 c #ac8264",
"a1 c #644e28",
"a2 c #9c723c",
"a3 c #c49264",
"a4 c #ac8a73",
"a5 c #ac7a52",
"a6 c #bca284",
"a7 c #e4aa74",
"a8 c #bc8a6f",
/* pixels */
"#h#h#h#h#h#h#h#h#h#h#h#h#h#h#h#h#h#h#h#h#h#h#h#h#h#h#h#h#h#h#h#h#h#h#h#h#h#h#h#h",
"#h#h#h#h#h#h#h#h#h#h#h#h#h#h#h#h#h#h#h#h#h#h#h#h#u.l#h#h#h#h#h#h#h#h#h#h#h#h#h#h",
"#h#h#h#h#h#h#h#h#h#h#h#h#h#h#h#h#h#h#h#h#h`p#g`..QaZ`5.A#h#h#h#h#h#h#h#h#h#h#h#h",
"#h#h#h#h#h#h#h#h#h#h#h#h#h#h#h#h#h#h#2`s.Ia5...zaY`Ma0a0.V#h#h#h#h#h#h#h#h#h#h#h",
"#h#h#h#h#h#h#h#h#h#h#h#h#h#h#h#h#h.ZaJaKaz.OaB.t`LaBa7#d`Oa.#h#h#h#h#h#h#h#h#h#h",
"#h#h#h#h#h#h#h#h#h#h#h#h#h#h#h#h.g.T.vaAaX`LaYanaY`Lan.K`zaL`EaN#h#h#h#h#h#h#h#h",
"#h#h#h#h#h#h#h#h#h#h#h#h#h#h#h#h.7#WaC#saI`MaIanan`i`L#R.W`H`R.E#h#h#h#h#h#h#h#h",
"#h#h#h#h#h#h#h#h#h#h#h#h#h#h#h#h#`a8#waZ.qan.tanaXaT#N.BaE.e.2#r#h#h#h#h#h#h#h#h",
"#h#h#h#h#h#h#h#h#h#h#h#h#h#h#h#h`Fa0`L`M`w`c`Xan#5ak#yaP`MaX#1.S#h#h#h#h#h#h#h#h",
"#h#h#h#h#h#h#h#h#h#h#h#h#h#h#h#h#z#raB`L.u`j`lak`d`d.uaYaYaY.r`1#h#h#h#h#h#h#h#h",
"#h#h#h#h#h#h#h#h#h#h#h#h#h#h#h#h#t`1aY`M`L`i.MaI`LaYaY.uaY`M.r.w#h#h#h#h#h#h#h#h",
"#h#h#h#h#h#h#h#h#h#h#h#h#h#h#h#h.6.w.K.O`L#KaUaX`L.O.3#K`L`L#d#r#h#h#h#h#h#h#h#h",
"#h#h#h#h#h#h#h#h#h#h#h#h#h#h#h#h#o`YaB`L.3.naUaB`L.uaY.u`L`L#d.w#h#h#h#h#h#h#h#h",
"#h#h#h#h#h#h#h#h#h#h#h#h#h#h#h#h`P.FaBaY.uan.q.b`L.uaY`M.uaB.r`1#h#h#h#h#h#h#h#h",
"#h#h#h#h#h#h#h#h#h#h#h#h#h#h#h#hau#raB#R.u.u.4`L`LaYaY.uan`L.r.w#h#h#h#h#h#h#h#h",
"#h#h#h#h#h#h#h#h#h#h#h#h#h#h#h#h.6`1aBaYaYan`8aY`L.uaYaYan`La8.w#h#h#h#h#h#h#h#h",
"#h#h#h#h#h#h#h#h#h#h#h#h#h#h#h#h.6#raB.uaYan.yaYaYaY.uaYan`L.r.w#h#h#h#h#h#h#h#h",
"#h#h#h#h#h#h#h#h#h#h#h#h#h#h#h#h.6#raB.uaYan.yaY`LaY.uaYan`L.r.w#h#h#h#h#h#h#h#h",
"#h#h#h#h#h#h#h#h#h#h#h#h#h#h#h#h.6#raB.uaYan.y`L`LaY.uaYan`L.r.w#h#h#h#h#h#h#h#h",
"#h#h#h#h#h#h#h#h#h#h#h#h#h#h#h#h.6.waB.uaYan.yaYaYaY.uaYan`L.r.w#h#h#h#h#h#h#h#h",
"#h#h#h#h#h#h#h#h#h#h#h#h#h#h#h#h.6.w`L.uaYan.yaY`LaY`M.u.3`L.r.w#h#h#h#h#h#h#h#h",
"#h#h#h#h#h#h#h#h#h#h#h#h#h#h#h#h.6.w`LaY.uan.yaYaYaYan.u.3`L.r.w#h#h#h#h#h#h#h#h",
"#h#h#h#h#h#h#h#h#h#h#h#h#h#h#h#h.6.waYaY.uan.yaYaYaYan.u.3`L.r.w#h#h#h#h#h#h#h#h",
"#h#h#h#h#h#h#h#h#h#h#h#h#h#h#h#h.6.waYaY.u.3.y`LaYaYan.u.3`L.r.w#h#h#h#h#h#h#h#h",
"#h#h#h#h#h#h#h#h#h#h#h#h#h#h#h#h.6.w`LaY.u.3.4`L`LaY.3aY.3aYa8.w#h#h#h#h#h#h#h#h",
"#h#h#h#h#h#h#h#h#h#h#h#h#h#h#h#h.6.waYaYaYan.4`L`LaYanaYan`L.r`1#h#h#h#h#h#h#h#h",
"#h#h#h#h#h#h#h#h#h#h#h#h#h#h#h#h.6#r`LaYaYan.yaYaYaYanaYan`L.o#r#h#h#h#h#h#h#h#h",
"#h#h#h#h#h#h#h#h#h#h#h#h#h#h#h#h.6.waYaY.u.3.yaY`LaYanaYan`L.r`1#h#h#h#h#h#h#h#h",
"#h#h#h#h#h#h#h#h#h#h#h#h#h#h#h#h#m.w`L.uaYan.y`L`L.uan.u.3.t`3`u#h#h#h#h#h#h#h#h",
"#h#h#h#h#h#h#h#h#h#h#h#h#h#h#h#h`F.S`LaYaY.uaOaX`LaY`MaY.b.O.w`5#h#h#h#h#h#h#h#h",
"#h#h#h#h#h#h#h#h#h#h#h#h#h#h#h#h#hab#1.taX.t#naGaXaXaX#6.C`T#p#h#h#h#h#h#h#h#h#h",
"#h#h#h#h#h#h#h#h#h#h#h#h#h#h#h#h#h.V`2`rafaZ`Z.U#DaZ#D`D.T`g#h#h#h#h#h#h#h#h#h#h",
"#h#h#h#h#h#h#h#h#h#h#h#h#h#h#h#h#h#h#V#I#xa1`haf.B.h#Y`a.1#h#h#h#h#h#h#h#h#h#h#h",
"#h#h#h#h#h#h#h#h#h#h#h#h#h#h#h#h#h#h#h#.ay.Yaz`h#Oag#Say`f#h#h#h#h#h#h#h#h#h#h#h",
"#h#h#h#h#h#h#h#h#h#h#h#h#h#h#h#h#h#h#haj#a#x`waE`0.M.k`vaV#h#h#h#h#h#h#h#h#h#h#h",
"#h#h#h#h#h#h#h#h#h#h#h#h#h#h#h#h#h#h#hayaMaB#O.n.#.W.j#Oar#f#h#h#h#h#h#h#h#h#h#h",
"#h#h#h#h#h#h#h#h#h#h#h#h#h#h#h#h#h#haS.2.t`L#G`L.b`L`M.ta4#k#h#h#h#h#h#h#h#h#h#h",
"#h#h#h#h#h#h#h#h#h#h#h#h#h#h#h#h#h#ha6a0`L`L`XaYaBanaY`L.r#i#h#h#h#h#h#h#h#h#h#h",
"#h#h#h#h#h#h#h#h#h#h#h#h#h#h#h#h#h#h#h#PaqaYaA`L`L`L`M.cac#h#h#h#h#h#h#h#h#h#h#h",
"#h#h#h#h#h#h#h#h#h#h#h#h#h#h#h#h#h#h#h#A`aaC.5`n.5.5#D#D.8#h#h#h#h#h#h#h#h#h#h#h",
"#h#h#h#h#h#h#h#h#h#h#h#h#h#h#h#h#h#h#h#h#xaC`0aG`h..`2.m#h#h#h#h#h#h#h#h#h#h#h#h",
"#h#h#h#h#h#h#h#h#h#h#h#h#h#h#h#h#h#h#h#h.sa4.5az.5az`v.7#h#h#h#h#h#h#h#h#h#h#h#h",
"#h#h#h#h#h#h#h#h#h#h#h#h#h#h#h#h#h#h#h#h```3.W.OaI.i`v`.#h#h#h#h#h#h#h#h#h#h#h#h",
"#h#h#h#h#h#h#h#h#h#h#h#h#h#h#h#h#h#h#h`G`R.1`x#W#W.1#v`2.`#h#h#h#h#h#h#h#h#h#h#h",
"#h#h#h#h#h#h#h#h#h#h#h#h#h#h#h#h#h#h#caD.tag`QaPaPaP.o.2.1#h#h#h#h#h#h#h#h#h#h#h",
"#h#h#h#h#h#h#h#h#h#h#h#h#h#h#h#h#h#h`O`yaBaX`L`L#GaA`LaA`C.G#h#h#h#h#h#h#h#h#h#h",
"#h#h#h#h#h#h#h#h#h#h#h#h#h#h#h#h#h#h.q`M`M`L`LaA`L`LaYaBap#C#h#h#h#h#h#h#h#h#h#h",
"#h#h#h#h#h#h#h#h#h#h#h#h#h#h#h#h#h#h#8`I#y`Z#3aG#3.C#F#7#P#o#h#h#h#h#h#h#h#h#h#h",
"#h#h#h#h#h#h#h#h#h#h#h#h#h#h#h#h#h#h#h`H.E`Z.Fak.FaE.w`v#o#h#h#h#h#h#h#h#h#h#h#h",
"#h#h#h#h#h#h#h#h#h#h#h#h#h#h#h#h#h#h#h`6#7`LaBanaB.uap#H#h#h#h#h#h#h#h#h#h#h#h#h",
"#h#h#h#h#h#h#h#h#h#h#h#h#h#h#h#h#h#h#h#haDaA.t.O`MaY.F.7#h#h#h#h#h#h#h#h#h#h#h#h",
"#h#h#h#h#h#h#h#h#h#h#h#h#h#h#h#h#h#h#h#h.Ra2`d`L`M`d.L#Z#h#h#h#h#h#h#h#h#h#h#h#h",
"#h#h#h#h#h#h#h#h#h#h#h#h#h#h#h#h#h#h#h#h#h#.a5`L`M`L#b.S#h#h#h#h#h#h#h#h#h#h#h#h",
"#h#h#h#h#h#h#h#h#h#h#h#h#h#h#h#h#h#h#h#h#oar`L.uaA`y`N`Z#h#h#h#h#h#h#h#h#h#h#h#h",
"#h#h#h#h#h#h#h#h#h#h#h#h#h#h#h#h#h#h#h#haDaB`LaY`d`waw.S#h#h#h#h#h#h#h#h#h#h#h#h",
"#h#h#h#h#h#h#h#h#h#h#h#h#h#h#h#h#h#h#h#h#WaA#O#N.k.e.r.p#h#h#h#h#h#h#h#h#h#h#h#h",
"#h#h#h#h#h#h#h#h#h#h#h#h#h#h#h#h#h#h#h#h`v#O.va5`X.t#d.1#h#h#h#h#h#h#h#h#h#h#h#h",
"#h#h#h#h#h#h#h#h#h#h#h#h#h#h#h#h#h#h#h#h#Y`0.OaY`L`M`1`Z#h#h#h#h#h#h#h#h#h#h#h#h",
"#h#h#h#h#h#h#h#h#h#h#h#h#h#h#h#h#h#h#h#h.UaB`LaY`M.Fah`o#h#h#h#h#h#h#h#h#h#h#h#h",
"#h#h#h#h#h#h#h#h#h#h#h#h#h#h#h#h#h#h#h.V.1.K.OaI`c`w`d.h#h#h#h#h#h#h#h#h#h#h#h#h",
"#h#h#h#h#h#h#h#h#h#h#h#h#h#h#h#h#h#h#h.6#S`L#Oak`w.WaoaE#h#h#h#h#h#h#h#h#h#h#h#h",
"#h#h#h#h#h#h#h#h#h#h#h#h#h#h#h#h#h#h#haxay#5ay`zaY.t#1.1#h#h#h#h#h#h#h#h#h#h#h#h",
"#h#h#h#h#h#h#h#h#h#h#h#h#h#h#h#h#h#h#h#haW.#aA`L.u`La0`v#h#h#h#h#h#h#h#h#h#h#h#h",
"#h#h#h#h#h#h#h#h#h#h#h#h#h#h#h#h#h#haNaN.1aX`LaY.u.z.T#C#h#h#h#h#h#h#h#h#h#h#h#h",
"#h#h#h#h#h#h#h#h#h#h#h#h#h#h#h#h#h#h#hay#e`k`L.u`Q.q.eaV#m#h#h#h#h#h#h#h#h#h#h#h",
"#h#h#h#h#h#h#h#h#h#h#h#h#h#h#h#h#h#h#h.1aBaA`y#5.y.CaA.w`W#h#h#h#h#h#h#h#h#h#h#h",
"#h#h#h#h#h#h#h#h#h#h#h#h#h#h#h#h#h#h#haD`LaZ`q.B`z.t.i`r`6#h#h#h#h#h#h#h#h#h#h#h",
"#h#h#h#h#h#h#h#h#h#h#h#h#h#h#h#h#h#h#h`r#Bak`d`L`LaB#4`V#q#h#h#h#h#h#h#h#h#h#h#h",
"#h#h#h#h#h#h#h#h#h#h#h#h#h#h#h#h#h#h#h#Q.XanaX`M`L.0.yag`1#h#h#h#h#h#h#h#h#h#h#h",
"#h#h#h#h#h#h#h#h#h#h#h#h#h#h#h#h#h#h#h.U`M`LaB`M`UaU#s#1#L#h#h#h#h#h#h#h#h#h#h#h",
"#h#h#h#h#h#h#h#h#h#h#h#h#h#h#h#h#h#h#h`f.K`M#Nasak#d.taq.p#h#h#h#h#h#h#h#h#h#h#h",
"#h#h#h#h#h#h#h#h#h#h#h#h#h#h#h#h#h#h#h`2.K`7.Q#J`M`L#T#b.m#h#h#h#h#h#h#h#h#h#h#h",
"#h#h#h#h#h#h#h#h#h#h#h#h#h#h#h#h#h#h#h.UaU`w`d`L`L`L#b.ya`#h#h#h#h#h#h#h#h#h#h#h",
"#h#h#h#h#h#h#h#h#h#h#h#h#h#h#h#h#h#h#h#7a5.O.taB`Lanam.xaC#h#h#h#h#h#h#h#h#h#h#h",
"#h#h#h#h#h#h#h#h#h#h#h#h#h#h#h#h#h#h#h.1aXaB`L`L#K..#P`maC#h#h#h#h#h#h#h#h#h#h#h",
"#h#h#h#h#h#h#h#h#h#h#h#h#h#h#h#h#h#h.V.S.jaX.W`dawaE`M.i`T#h#h#h#h#h#h#h#h#h#h#h",
"#h#h#h#h#h#h#h#h#h#h#h#h#h#h#h#h#h#h#2#DaX#3aE#DaIaI#Ra5.X#h#h#h#h#h#h#h#h#h#h#h",
"#h#h#h#h#h#h#h#h#h#h#h#h#h#h#h#h#h#h#h#x.5`w`QaY.u`L`m.y.k`6#h#h#h#h#h#h#h#h#h#h",
"#h#h#h#h#h#h#h#h#h#h#h#h#h#h#h#h#h#h#hayaOataY.3#R`X..`qa8#p#h#h#h#h#h#h#h#h#h#h",
"#h#h#h#h#h#h#h#h#h#h#h#h#h#h#h#h#h#h#h#W.t`L`i.uaI`Qad`L.f.w#h#h#h#h#h#h#h#h#h#h",
"#h#h#h#h#h#h#h#h#h#h#h#h#h#h#h#h#h#h#uam`L`LaTaIaO`w`y.taR#X#h#h#h#h#h#h#h#h#h#h",
"#h#h#h#h#h#h#h#h#h#h#h#h#h#h#h#h#h#h`GaK`M.e`c.D#3`M.t#J.U.A#h#h#h#h#h#h#h#h#h#h",
"#h#h#h#h#h#h#h#h#h#h#h#h#h#h#h#h#h#h.layaE#5aT`L`M`LaBaZ.x#g#h#h#h#h#h#h#h#h#h#h",
"#h#h#h#h#h#h#h#h#h#h#h#h#h#h#h#h#h#h#h`I#s.u`L`M`M`L.C#D.2#H#h#h#h#h#h#h#h#h#h#h",
"#h#h#h#h#h#h#h#h#h#h#h#h#h#h#h#h#h#h.8`1aA`L#KaAaY#Nad#Tae`T#h#h#h#h#h#h#h#h#h#h",
"#h#h#h#h#h#h#h#h#h#h#h#h#h#h#h#h#h#h.v.K`LaB.t#3asaE#N.t#day#h#h#h#h#h#h#h#h#h#h",
"#h#h#h#h#h#h#h#h#h#h#h#h#h#h#h#h#h#h`r`L`L.W.#.q.J`daX`kaZ.Q#h#h#h#h#h#h#h#h#h#h",
"#h#h#h#h#h#h#h#h#h#h#h#h#h#h#h#h#h#h#zar`J`c#5`X`M#R`L`A.T#r#2#h#h#h#h#h#h#h#h#h",
"#h#h#h#h#h#h#h#h#h#h#h#h#h#h#h#h#h#h#hai`1.Wan.u`M.u#J.y.i`o#e#h#h#h#h#h#h#h#h#h",
"#h#h#h#h#h#h#h#h#h#h#h#h#h#h#h#h#h#h#h#D#G.t`M`Lan#kadaMaA.c#q#h#h#h#h#h#h#h#h#h",
"#h#h#h#h#h#h#h#h#h#h#h#h#h#h#h#h#h#h#Xa4`LaAan`waE#k`U.taR`O#h#h#h#h#h#h#h#h#h#h",
"#h#h#h#h#h#h#h#h#h#h#h#h#h#h#h#h#h#h.p.O`L`J`w.q`daX.t`L`S.m#h#h#h#h#h#h#h#h#h#h",
"#h#h#h#h#h#h#h#h#h#h#h#h#h#h#h#h#h#h`O.taC.4.zaI.t`MaXaGa1#7.V#h#h#h#h#h#h#h#h#h",
"#h#h#h#h#h#h#h#h#h#h#h#h#h#h#h#h#h#h.EaEak.j#R.tan`M#F.qaRapaF#h#h#h#h#h#h#h#h#h",
"#h#h#h#h#h#h#h#h#h#h#h#h#h#h#h#h#h#h#p.UaA`L`LaYaG`0aw.i`LaV.S#h#h#h#h#h#h#h#h#h",
"#h#h#h#h#h#h#h#h#h#h#h#h#h#h#h#h#h#h`1`C`L.K`X`j#7as`z`L`L#1ar#h#h#h#h#h#h#h#h#h",
"#h#h#h#h#h#h#h#h#h#h#h#h#h#h#h#h#h#h`F.1aAaB.u`JanaY`L`L.ja8`t#h#h#h#h#h#h#h#h#h",
"#h#h#h#h#h#h#h#h#h#h#h#h#h#h#h#h#h#h#h`h`3#R.t.t#K`LaB`LaMaZ#h#h#h#h#h#h#h#h#h#h",
"#h#h#h#h#h#h#h#h#h#h#h#h#h#h#h#h#h#h#ha4#U`MaYan#RaYaB`M`u#C#h#h#h#h#h#h#h#h#h#h",
"#h#h#h#h#h#h#h#h#h#h#h#h#h#h#h#h#h#h#0.1`q#5`J`j.e.N.Fa2`v#7aN#h#h#h#h#h#h#h#h#h",
"#h#h#h#h#h#h#h#h#h#h#h#h#h#h#h#h#h#h.1aaaaaa.Wal.F`d.W`L`kar#8#h#h#h#h#h#h#h#h#h",
"#h#h#h#h#h#h#h#h#h#h#h#h#h#h#h#h#h#h.yaY`L.O`L.t`L`L.t`k`L#b#C#h#h#h#h#h#h#h#h#h",
"#h#h#h#h#h#h#h#h#h#h#h#h#h#h#h#h#h#h`2`LaBaB`L#K`L`MaBaB#Gavav#h#h#h#h#h#h#h#h#h",
"#h#h#h#h#h#h#h#h#h#h#h#h#h#h#h#h#h#h`HaR.K`L`LaY`L`L.KaX.Y.Q.A#h#h#h#h#h#h#h#h#h",
"#h#h#h#h#h#h#h#h#h#h#h#h#h#h#h#h#h#h#q#Ca0`m`z`d`daTap.E.Q`4#h#h#h#h#h#h#h#h#h#h",
"#h#h#h#h#h#h#h#h#h#h#h#h#h#h#h#h#h#h#h.P#x`7.5`1.5`n.p.x.1#h#h#h#h#h#h#h#h#h#h#h",
"#h#h#h#h#h#h#h#h#h#h#h#h#h#h#h#h#h#h#h#ha1aQ#k#k#l`e.m#7`s#h#h#h#h#h#h#h#h#h#h#h",
"#h#h#h#h#h#h#h#h#h#h#h#h#h#h#h#h#h#h#h#iaCaB`y#3#3#3`K.UaN#h#h#h#h#h#h#h#h#h#h#h",
"#h#h#h#h#h#h#h#h#h#h#h#h#h#h#h#h#h#h`p#E#7`e`A.#a0`Sa5.M.h#h#h#h#h#h#h#h#h#h#h#h",
"#h#h#h#h#h#h#h#h#h#h#h#h#h#h#h#h#h#h`2`Z#U`l#v#J.w`D`ca5.S`E#h#h#h#h#h#h#h#h#h#h",
"#h#h#h#h#h#h#h#h#h#h#h#h#h#h#h#h#h`5aZaXataI`U`w.#`danaYaB.Q.`#h#h#h#h#h#h#h#h#h",
"#h#h#h#h#h#h#h#h#h#h#h#h#h#h#h#h#h#7.O.K`L`ian`L`L.uaY`L`L.La2#h#h#h#h#h#h#h#h#h",
"#h#h#h#h#h#h#h#h#h#h#h#h#h#h#h#h#h.l`e`L`Lananan`XaYaY`L`3#r.V#h#h#h#h#h#h#h#h#h",
"#h#h#h#h#h#h#h#h#h#h#h#h#h#h#h#h#h#habaEaB.O`LaY`LaX`M`z#HaF#h#h#h#h#h#h#h#h#h#h",
"#h#h#h#h#h#h#h#h#h#h#h#h#h#h#h#h#h.R.T.T`H.qaJ.Oal`h.Ja1#E.1.R#h#h#h#h#h#h#h#h#h",
"#h#h#h#h#h#h#h#h#h#h#h#h#h#h#h#h#MaW#E.1#jaUaD#W.U#jaDaH`v#H.c#u#h#h#h#h#h#h#h#h",
"#h#h#h#h#h#h#h#h#h#h#h#h#h#h#h#h.paQ.E.Daf.2aUaU.U`ra5a2`1aZay#p#h#h#h#h#h#h#h#h",
"#h#h#h#h#h#h#h#h#h#h#h#h#h#h#h#h`TaA`L`U#U.C.K.K.a#sak`7`jaR.r.E#h#h#h#h#h#h#h#h",
"#h#h#h#h#h#h#h#h#h#h#h#h#h#h#h#h#7`L`L.t.N#DaYaYas#vaPan.K`L#da8#h#h#h#h#h#h#h#h",
"#h#h#h#h#h#h#h#h#h#h#h#h#h#h#h#h`1anaYaY`X.e`qa5#Ua#`L.taBaY`Ya8#h#h#h#h#h#h#h#h",
"#h#h#h#h#h#h#h#h#h#h#h#h#h#h#h#haS`0aB#K.uaY.4`L#RaYaY`LanaY.ra4#h#h#h#h#h#h#h#h",
"#h#h#h#h#h#h#h#h#h#h#h#h#h#h#h#h.6#raB`Manan.yaY.uaYaY`LanaY.ra4#h#h#h#h#h#h#h#h",
"#h#h#h#h#h#h#h#h#h#h#h#h#h#h#h#h.6`1aB.3an`M.4aY.uaY`L`Lan`L.ra4#h#h#h#h#h#h#h#h",
"#h#h#h#h#h#h#h#h#h#h#h#h#h#h#h#h.6`1.K.3.3an.4`L.uaY`L`Lan`L.ra4#h#h#h#h#h#h#h#h",
"#h#h#h#h#h#h#h#h#h#h#h#h#h#h#h#h.6.waB.3an.3.y`L.uaY`L`Lan`L.ra4#h#h#h#h#h#h#h#h",
"#h#h#h#h#h#h#h#h#h#h#h#h#h#h#h#h.6#raBanan.3.4`L.uaY`L`LanaY.ra4#h#h#h#h#h#h#h#h",
"#h#h#h#h#h#h#h#h#h#h#h#h#h#h#h#h.6.w.Kananan.y`L.uaY`L`LanaY.ra4#h#h#h#h#h#h#h#h",
"#h#h#h#h#h#h#h#h#h#h#h#h#h#h#h#h.6.waBanan.3.4`L.uaY`L`LanaY.ra4#h#h#h#h#h#h#h#h",
"#h#h#h#h#h#h#h#h#h#h#h#h#h#h#h#h.6.waB.3.3.3.yaYaYaY`L`LanaY.ra4#h#h#h#h#h#h#h#h",
"#h#h#h#h#h#h#h#h#h#h#h#h#h#h#h#h.6.waB.3.3.3.yaYaYaY`L`LanaY.ra4#h#h#h#h#h#h#h#h",
"#h#h#h#h#h#h#h#h#h#h#h#h#h#h#h#h.6.waB.3.3.3.yaYaYaY`L`LanaY.ra4#h#h#h#h#h#h#h#h",
"#h#h#h#h#h#h#h#h#h#h#h#h#h#h#h#h.6.waB.3.3.3.yaYaYaY`L`LanaY.ra4#h#h#h#h#h#h#h#h",
"#h#h#h#h#h#h#h#h#h#h#h#h#h#h#h#h.6.waB.3.3.3.yaYaYaY`L`LanaY.ra4#h#h#h#h#h#h#h#h",
"#h#h#h#h#h#h#h#h#h#h#h#h#h#h#h#h.6.waB.3.3.3.yaYaYaY`L`LanaY.ra4#h#h#h#h#h#h#h#h",
"#h#h#h#h#h#h#h#h#h#h#h#h#h#h#h#h.6.waB.3.3.3.yaYaYaY`L`LanaY.ra4#h#h#h#h#h#h#h#h",
"#h#h#h#h#h#h#h#h#h#h#h#h#h#h#h#h.6.waB.3.3.3.yaYaYaY`L`LanaY.ra4#h#h#h#h#h#h#h#h",
"#h#h#h#h#h#h#h#h#h#h#h#h#h#h#h#h.6.waBanan.3.4aYaYaY`L`Lan`L.ra4#h#h#h#h#h#h#h#h",
"#h#h#h#h#h#h#h#h#h#h#h#h#h#h#h#h.6.waBananan.4`LaYaY`L`Lan`L.ra4#h#h#h#h#h#h#h#h",
"#h#h#h#h#h#h#h#h#h#h#h#h#h#h#h#h.6.waB.u.u.3.4aYaYaYaY`Lan`L.ra4#h#h#h#h#h#h#h#h",
"#h#h#h#h#h#h#h#h#h#h#h#h#h#h#h#h.6.waB.u.u.3.4aYaYaYaYaY.3`L.ra4#h#h#h#h#h#h#h#h",
"#h#h#h#h#h#h#h#h#h#h#h#h#h#h#h#h.6.waBaYaYan.yaYaYaYaYaY.3`L.ra4#h#h#h#h#h#h#h#h",
"#h#h#h#h#h#h#h#h#h#h#h#h#h#h#h#h.6.waBaY.uan.yaYaYaYaYaY.3aY.ra4#h#h#h#h#h#h#h#h",
"#h#h#h#h#h#h#h#h#h#h#h#h#h#h#h#h.6.waB.u.u.3.y`LaYaY`LaY.3aY.ra4#h#h#h#h#h#h#h#h",
"#h#h#h#h#h#h#h#h#h#h#h#h#h#h#h#h.6.waB.u.uan.yaYaYaY`LaY.3aY.ra4#h#h#h#h#h#h#h#h",
"#h#h#h#h#h#h#h#h#h#h#h#h#h#h#h#h`B#r.KanaY.O.yaY`LaB.uaYan`L#da4#h#h#h#h#h#h#h#h",
"#h#h#h#h#h#h#h#h#h#h#h#h#h#h#h#h.6`1`L.O`L.O.y`L.KaB.u`L.O`L#da4#h#h#h#h#h#h#h#h",
"#h#h#h#h#h#h#h#h#h#h#h#h#h#h#h#h.6.w.K.OaY.O`q`M.KaBaYaY.O`L#da4#h#h#h#h#h#h#h#h",
"#h#h#h#h#h#h#h#h#h#h#h#h#h#h#h#h`B#raB.KaY.O`w.iaB.K.uaY.OaY#da4#h#h#h#h#h#h#h#h",
"#h#h#h#h#h#h#h#h#h#h#h#h#h#h#h#h.6.w.KaBaY.3#y#JaBaBaY`L.O`L#da4#h#h#h#h#h#h#h#h",
"#h#h#h#h#h#h#h#h#h#h#h#h#h#h#h#h.6#F.j`L.uan#F.FaB.KaYaY.OaB#da4#h#h#h#h#h#h#h#h",
"#h#h#h#h#h#h#h#h#h#h#h#h#h#h#h#h.6.w.j`M`L.d#N`j`L.OaY`L.uaBaVa4#h#h#h#h#h#h#h#h",
"#h#h#h#h#h#h#h#h#h#h#h#h#h#h#h#h#`.E`MaBaIaY.v#J.K`MaY`M.uaB#da4#h#h#h#h#h#h#h#h",
"#h#h#h#h#h#h#h#h#h#h#h#h#h#h#h#h`BaZaX.O`M`M`j#F.K.O.u`M`L`L#d#Q#h#h#h#h#h#h#h#h",
"#h#h#h#h#h#h#h#h#h#h#h#h#h#h#h#haNaL.B`L`LaB.Fa8.K.KaY.O.K`L.f.c#h#h#h#h#h#h#h#h",
"#h#h#h#h#h#h#h#h#h#h#h#h#h#h#h#h#haNaf`w#K`L.2#4`LaBaYaX`Ma3`u###h#h#h#h#h#h#h#h",
"#h#h#h#h#h#h#h#h#h#h#h#h#h#h#h#h#h#h#q#p.J.KaM`Y.t`L.j.##U.P#z#h#h#h#h#h#h#h#h#h",
"#h#h#h#h#h#h#h#h#h#h#h#h#h#h#h#h#h#h#haN`b`r`H`m`3a5aQam#caN#h#h#h#h#h#h#h#h#h#h",
"#h#h#h#h#h#h#h#h#h#h#h#h#h#h#h#h#h#h#h#h#h.H`2`a##`4.A#h#h#h#h#h#h#h#h#h#h#h#h#h",
"#h#h#h#h#h#h#h#h#h#h#h#h#h#h#h#h#h#h#h#h#h#h.R`##h#h#h#h#h#h#h#h#h#h#h#h#h#h#h#h",
"#h#h#h#h#h#h#h#h#h#h#h#h#h#h#h#h#h#h#h#h#h#h#h#h#h#h#h#h#h#h#h#h#h#h#h#h#h#h#h#h"
};
