/* XPM */
static char *DVY_Spindles_0_xpm[] = {
/* width height num_colors chars_per_pixel */
"    40   160      256            2",
/* colors */
"`` c #ffffff",
"`. c #fffffd",
"`# c #fffeff",
"`a c #feffff",
"`b c #fffefc",
"`c c #fefefe",
"`d c #fefeff",
"`e c #fffffb",
"`f c #fffdfe",
"`g c #bbbbdd",
"`h c #5455a8",
"`i c #010080",
"`j c #000081",
"`k c #111087",
"`l c #4743a2",
"`m c #b9bcdd",
"`n c #a8aad3",
"`o c #000180",
"`p c #111288",
"`q c #7776bc",
"`r c #8988c2",
"`s c #5555ab",
"`t c #8889c1",
"`u c #4445a2",
"`v c #010081",
"`w c #8888c4",
"`x c #f0eff7",
"`y c #babade",
"`z c #5654a8",
"`A c #5355a8",
"`B c #8788c1",
"`C c #cccce4",
"`D c #fcfffd",
"`E c #cecce4",
"`F c #101088",
"`G c #01007f",
"`H c #00017f",
"`I c #020080",
"`J c #4543a4",
"`K c #edeef3",
"`L c #edf0f9",
"`M c #9899c9",
"`N c #6766b6",
"`O c #222292",
"`P c #000082",
"`Q c #6867b3",
"`R c #abaad4",
"`S c #fefffd",
"`T c #7677b8",
"`U c #4443a0",
"`V c #4444a4",
"`W c #222290",
"`X c #8a86c3",
"`Y c #bcbadf",
"`Z c #a9aad8",
"`0 c #343498",
"`1 c #00007f",
"`2 c #7778bb",
"`3 c #00017e",
"`4 c #888ac5",
"`5 c #fffdff",
"`6 c #fefefc",
"`7 c #bbbada",
"`8 c #fdfffc",
".` c #989acd",
".. c #4343a3",
".# c #4544a1",
".a c #6766b2",
".b c #bbbbdf",
".c c #8789c4",
".d c #02007f",
".e c #000182",
".f c #01007e",
".g c #a9aad6",
".h c #8888c6",
".i c #4642a1",
".j c #eceff6",
".k c #4246a1",
".l c #8988c4",
".m c #4346a3",
".n c #fdfeff",
".o c #00007e",
".p c #8789c2",
".q c #212191",
".r c #8989c5",
".s c #7778b9",
".t c #989acb",
".u c #8889c2",
".v c #00007d",
".w c #7877b9",
".x c #343399",
".y c #bcbbdd",
".z c #eceefa",
".A c #000283",
".B c #4445a1",
".C c #000083",
".D c #4544a2",
".E c #9799ca",
".F c #4442a3",
".G c #4344a1",
".H c #999bce",
".I c #4645a2",
".J c #333397",
".K c #7877bd",
".L c #fefffb",
".M c #020183",
".N c #000280",
".O c #00027d",
".P c #bebadd",
".Q c #00027f",
".R c #fefffa",
".S c #bbb9de",
".T c #6567b2",
".U c #9b98cf",
".V c #858ac1",
".W c #020082",
".X c #fdfffe",
".Y c #4741a1",
".Z c #5454aa",
".0 c #eeeef6",
".1 c #cccde2",
".2 c #7877bb",
".3 c #bcbbdb",
".4 c #4443a1",
".5 c #efedf8",
".6 c #babadc",
".7 c #010082",
".8 c #efeff7",
"#` c #101187",
"#. c #00017c",
"## c #bbbcdb",
"#a c #21228e",
"#b c #010083",
"#c c #bdbbe2",
"#d c #000084",
"#e c #45459f",
"#f c #888ac3",
"#g c #dbdeef",
"#h c #010281",
"#i c #121284",
"#j c #cbcbe5",
"#k c #dcddf1",
"#l c #5854a8",
"#m c #111189",
"#n c #eeeff4",
"#o c #101386",
"#p c #9999cd",
"#q c #bcbae1",
"#r c #8887c1",
"#s c #fcffff",
"#t c #202291",
"#u c #8987c6",
"#v c #313398",
"#w c #21218f",
"#x c #9999cb",
"#y c #5654a7",
"#z c #bdbcdc",
"#A c #fefdff",
"#B c #7677ba",
"#C c #4545a5",
"#D c #9898cc",
"#E c #010084",
"#F c #44459f",
"#G c #4144a1",
"#H c #8688c3",
"#I c #242192",
"#J c #4145a0",
"#K c #4344a0",
"#L c #6566b6",
"#M c #dcddef",
"#N c #8a89c3",
"#O c #efeff9",
"#P c #020181",
"#Q c #333298",
"#R c #4546a3",
"#S c #bbbadc",
"#T c #5456a9",
"#U c #44449e",
"#V c #b9bcdb",
"#W c #aaa9d5",
"#X c #030081",
"#Y c #111286",
"#Z c #7976bd",
"#0 c #8887c3",
"#1 c #5456ab",
"#2 c #8886c5",
"#3 c #8688c5",
"#4 c #cbcce8",
"#5 c #cecbe8",
"#6 c #101388",
"#7 c #eeedf5",
"#8 c #9d98ce",
"a` c #6466b1",
"a. c #6766b4",
"a# c #4245a2",
"aa c #22238f",
"ab c #8989c7",
"ac c #bdb9dc",
"ad c #32349b",
"ae c #8787c5",
"af c #7579b9",
"ag c #12108b",
"ah c #fffefd",
"ai c #000000",
"aj c #000000",
"ak c #000000",
"al c #000000",
"am c #000000",
"an c #000000",
"ao c #000000",
"ap c #000000",
"aq c #000000",
"ar c #000000",
"as c #000000",
"at c #000000",
"au c #000000",
"av c #000000",
"aw c #000000",
"ax c #000000",
"ay c #000000",
"az c #000000",
"aA c #000000",
"aB c #000000",
"aC c #000000",
"aD c #000000",
"aE c #000000",
"aF c #000000",
"aG c #000000",
"aH c #000000",
"aI c #000000",
"aJ c #000000",
"aK c #000000",
"aL c #000000",
"aM c #000000",
"aN c #000000",
"aO c #000000",
"aP c #000000",
"aQ c #000000",
"aR c #000000",
"aS c #000000",
"aT c #000000",
"aU c #000000",
"aV c #000000",
"aW c #000000",
"aX c #000000",
"aY c #000000",
"aZ c #000000",
"a0 c #000000",
"a1 c #000000",
"a2 c #000000",
"a3 c #000000",
"a4 c #000000",
"a5 c #000000",
"a6 c #000000",
"a7 c #000000",
"a8 c #000000",
/* pixels */
"````````````````````````````````````````````````````````````````````````````````",
"````````````````````````````````````````````````````````````````````````````````",
"````````````````````````````````````````````````````````````````````````````````",
"````````````````````````````````````````````````````````````````````````````````",
"````````````````````````````````````````````````````````````````````````````````",
"````````````````````````````````````````````````````````````````````````````````",
"````````````````````````````````````````````````````````````````````````````````",
"````````````````````````````````````````````````````````````````````````````````",
"````````````````````````````````````````````````````````````````````````````````",
"````````````````````````````````````````````````````````````````````````````````",
"````````````````````````````````````````````````````````````````````````````````",
"````````````````````````````````````````````````````````````````````````````````",
"````````````````````````````````````````````````````````````````````````````````",
"````````````````````````````````````````````````````````````````````````````````",
"````````````````````````````````````````````````````````````````````````````````",
"````````````````````````````````````````````````````````````````````````````````",
"```````````````````````````````````.`````````.`#````````````````````````````````",
"`````````````````````````````````a`````.`.```a`a````````````````````````````````",
"`````````````````````````````````#`b`````````c`.````````````````````````````````",
"`````````````````````````````````a`````#`#`d`.``````````````````````````````````",
"```````````````````````````````````.`#```e```.`f````````````````````````````````",
"```````````````````````````````````.`a`a`a`c````````````````````````````````````",
"`````````````````````````````````#`#`e`c`#`````a````````````````````````````````",
"`````````````````````````````````a`g`h`i`j`k`l`m````````````````````````````````",
"`````````````````````````````````n`o`p`q`r`s`j`t````````````````````````````````",
"`````````````````````````````````u`v`w```.`c`x`y````````````````````````````````",
"`````````````````````````````````z`o`o`A`B`C`D``````````````````````````````````",
"`````````````````````````````````E`F`j`G`H`I`J`K````````````````````````````````",
"`````````````````````````````````a`L`M`N`O`P`j`Q````````````````````````````````",
"`````````````````````````````````R`c```S`a`T`P`U````````````````````````````````",
"`````````````````````````````````V`W`X`Y`Z`0`1`w````````````````````````````````",
"`````````````````````````````````2`i`3`P`1`p`4`5````````````````````````````````",
"`````````````````````````````````6```Y`g`7`````d````````````````````````````````",
"```````````````````````````````````8`S`````````a````````````````````````````````",
"`````````````````````````````````#```c`6```c`S`S````````````````````````````````",
"`````````````````````````````````#```````6`#`#`#````````````````````````````````",
"`````````````````````````````````a```.```````c`D````````````````````````````````",
"`````````````````````````````````.`e`#`6`a```#`f````````````````````````````````",
"````````````````````````````````.``J..`u.#.a.b`.````````````````````````````````",
"````````````````````````````````.c`i`1.d`j.e.f.g````````````````````````````````",
"````````````````````````````````.h`H.i`..j.k`j`J````````````````````````````````",
"````````````````````````````````.l`1.m.n```q.o`u````````````````````````````````",
"````````````````````````````````.p`i.q.r.s`j.o.t````````````````````````````````",
"````````````````````````````````.u`j`i.v`i`I.w`5````````````````````````````````",
"````````````````````````````````.l`1.x`m.y.z`S``````````````````````````````````",
"`````````````````````````````````w.A.B`d`e```a``````````````````````````````````",
"````````````````````````````````.p.C.D`S`#`f```.````````````````````````````````",
"`````````````````````````````````#`.`#```````S``````````````````````````````````",
"`````````````````````````````````````S`.```````S````````````````````````````````",
"`````````````````````````````````#```a`````c```.````````````````````````````````",
"```````````````````````````````````S`a`e`.`S`8``````````````````````````````````",
"`````````````````````````````````#```````a`6```5````````````````````````````````",
"``````````````````````````````````.E.F`u.G`u`T`.````````````````````````````````",
"`````````````````````````````````c.H.I.v`i.J.K`6````````````````````````````````",
"````````````````````````````````.L`#`c.M`G`7```.````````````````````````````````",
"```````````````````````````````````.`a`1.N.b```#````````````````````````````````",
"`````````````````````````````````a`.`.`j.O.P`.`a````````````````````````````````",
"````````````````````````````````````.n`1`P`g`a`c````````````````````````````````",
"`````````````````````````````````c`f`a.o.Q.y.R``````````````````````````````````",
"`````````````````````````````````#.S.u`G`j.T.U`c````````````````````````````````",
"``````````````````````````````````.V`1.W`i`o..`a````````````````````````````````",
"```````````````````````````````````c`#`b`#`6`a`c````````````````````````````````",
"`````````````````````````````````e`6`a`a`a`a````````````````````````````````````",
"`````````````````````````````````````````.```#``````````````````````````````````",
"`````````````````````````````````.`a```f```c`a`#`e`#`..X```f`.`.````````````````",
"```````````````````````````````````..n`S`#.R`.`#`a```.`a`c`#`c``````````````````",
"````````````````````````````````.G.Y.Z.0`d```2`V.1`````a`6`#`.`c````````````````",
"`````````````````````````````````o`H`i.2```e`V`o.3```d```.```.``````````````````",
"`````````````````````````````````G.N.o`1`Z`#.4`i`g`S`````c``````````````````````",
"`````````````````````````````````P`1.Z`o`p.5.B.o.6`.````````````````````````````",
"````````````````````````````````.7`i.8#``G`z`V.7.b`````````.```.````````````````",
"````````````````````````````````.o`G`5`m.d.M#.`o##```f`.```.```#````````````````",
"`````````````````````````````````i.o```#.w`H`j.o.b`a```.`.`c````````````````````",
"`````````````````````````````````j`j`a`#.z#a#b.Q.3`S`d```````d``````````````````",
"`````````````````````````````````I`3`#`.`d#c#d.o.3`#```.`6.R```e````````````````",
"`````````````````````````````````.`a`c`a`.`S`.`#.X`.`d``.n```d``````````````````",
"``````````````````````````````````.X```a`.`.`a`.`.```.`6`a`````.````````````````",
"`````````````````````````````````a```````f`a`c`````.```````.````````````````````",
"`````````````````````````````````.`.```.```.`.```#`.`6``````````````````````````",
"`````````````````````````````````#`S`.`a`a`.```a`.```````.`#`.``````````````````",
"```````````````````````````````````#`````f`.```.`````a`.`#`.`c`#````````````````",
"`````````````````````````````````J.k`u`J#e#f#g```.`#`.`6`.`.`a`.````````````````",
"`````````````````````````````````1.Q#h`1`o`j#i#j```#`6`#`#```8`#````````````````",
"`````````````````````````````````G`1`g``#k#l`j#m.j```````.`c`S``````````````````",
"`````````````````````````````````j`G.b`a`d#n#o`o#p`a```S````````````````````````",
"`````````````````````````````````j.o#q```#`b`J`i#r`S```a````````````````````````",
"````````````````````````````````.Q`1##`.`##s#t`1.l`d`.`S```````.````````````````",
"`````````````````````````````````1.7`g`c`d#u`i`G#g`.`#``````````````````````````",
"`````````````````````````````````1`o#v#e#w.e`v#x````````````````````````````````",
"````````````````````````````````.o.7`1`j`I#y#z``````````````````````````````````",
"````````````````````````````````.n```#`#`.```c`a````````````````````````````````",
"```````````````````````````````````d.R```````d`#````````````````````````````````",
"`````````````````````````````````d`S`S`S`.`.````````````````````````````````````",
"```````````````````````````````````````a`````6``````````````````````````````````",
"`````````````````````````````````#```6`````.`e#A````````````````````````````````",
"`````````````````````````````````S#B#C#D`````S``````````````````````````````````",
"`````````````````````````````````a`u#E`B`S```#`#````````````````````````````````",
"`````````````````````````````````#`J`i`w`S`e`a`a````````````````````````````````",
"`````````````````````````````````c#F`1.r```#`.`.````````````````````````````````",
"``````````````````````````````````.G`i.h```#```a````````````````````````````````",
"`````````````````````````````````a#G`o#H`a`````S````````````````````````````````",
"``````````````````````````````````.#.d`w`a```d`#````````````````````````````````",
"```````````````````````````````````V`o#I`U.G.D#B````````````````````````````````",
"```````````````````````````````````u`H`j`i`o`1`u````````````````````````````````",
"```````````````````````````````````#`a`c```a```e````````````````````````````````",
"`````````````````````````````````b```#`c`#`..X``````````````````````````````````",
"```````````````````````````````````S``.X```f````````````````````````````````````",
"`````````````````````````````````#`.`````a`S```a````````````````````````````````",
"`````````````````````````````````#`a`6`#`c```c`e````````````````````````````````",
"````````````````````````````````#s#J#e#K.k`V#F#p````````````````````````````````",
"`````````````````````````````````#`1`P.C`P`I.o`4````````````````````````````````",
"``````````````````````````````````.7.f##`.```a`#````````````````````````````````",
"```````````````````````````````````o.o#L`r#r#H#M````````````````````````````````",
"```````````````````````````````````G.7`j.Q`o.d`Y````````````````````````````````",
"`````````````````````````````````.`H`H#N.y`m`y#O````````````````````````````````",
"``````````````````````````````````.o`o##`6`a`#`b````````````````````````````````",
"``````````````````````````````````#E#P#Q#R.F`u#x````````````````````````````````",
"```````````````````````````````````I.o#P`j`i`i.u````````````````````````````````",
"````````````````````````````````.L```a```#`a````````````````````````````````````",
"`````````````````````````````````#`5`S`.`#`a`a`#````````````````````````````````",
"`````````````````````````````````a`S```#```e````````````````````````````````````",
"```````````````````````````````````#```a`f```D`.````````````````````````````````",
"`````````````````````````````````.`.`a`a```````#````````````````````````````````",
"`````````````````````````````````c`````6`#```a`S````````````````````````````````",
"`````````````````````````````````S#S#T.e.o`k#U#V````````````````````````````````",
"````````````````````````````````#W#X#Y#Z#0#1`I#2````````````````````````````````",
"````````````````````````````````.B`1.u`#````.0`m````````````````````````````````",
"````````````````````````````````.Z.M.o`s#3#4`.`#````````````````````````````````",
"````````````````````````````````#5#6#.#E`1`i.i.8````````````````````````````````",
"``````````````````````````````````#7#8a`#w`P`1a.````````````````````````````````",
"````````````````````````````````#W`a#A```.`T`o.#````````````````````````````````",
"````````````````````````````````a#aaabac`nad`iae````````````````````````````````",
"````````````````````````````````af`o.o`H.Qag.l``````````````````````````````````",
"````````````````````````````````ah.n#S.b#q``````````````````````````````````````",
"`````````````````````````````````c`a```d`.`.`a`#````````````````````````````````",
"`````````````````````````````````.`a`.```#`#`a`.````````````````````````````````",
"````````````````````````````````````````````````````````````````````````````````",
"````````````````````````````````````````````````````````````````````````````````",
"````````````````````````````````````````````````````````````````````````````````",
"````````````````````````````````````````````````````````````````````````````````",
"````````````````````````````````````````````````````````````````````````````````",
"````````````````````````````````````````````````````````````````````````````````",
"````````````````````````````````````````````````````````````````````````````````",
"````````````````````````````````````````````````````````````````````````````````",
"````````````````````````````````````````````````````````````````````````````````",
"````````````````````````````````````````````````````````````````````````````````",
"````````````````````````````````````````````````````````````````````````````````",
"````````````````````````````````````````````````````````````````````````````````",
"````````````````````````````````````````````````````````````````````````````````",
"````````````````````````````````````````````````````````````````````````````````",
"````````````````````````````````````````````````````````````````````````````````",
"````````````````````````````````````````````````````````````````````````````````",
"````````````````````````````````````````````````````````````````````````````````",
"````````````````````````````````````````````````````````````````````````````````",
"````````````````````````````````````````````````````````````````````````````````",
"````````````````````````````````````````````````````````````````````````````````",
"````````````````````````````````````````````````````````````````````````````````",
"````````````````````````````````````````````````````````````````````````````````",
"````````````````````````````````````````````````````````````````````````````````",
"````````````````````````````````````````````````````````````````````````````````"
};
