/* XPM */
static char *DVY_RidgeTile_2x4x45_xpm[] = {
/* width height num_colors chars_per_pixel */
"   100   100       16            1",
/* colors */
"` c #8c0000",
". c #d18e8d",
"# c #a94d4c",
"a c #c50000",
"b c #ffd1cf",
"c c #9e2729",
"d c #bd6e6e",
"e c #bb3134",
"f c #ffb0ae",
"g c #ffffff",
"h c #c65153",
"i c #d17171",
"j c #e99598",
"k c #a50000",
"l c #d50000",
"m c #9f3738",
/* pixels */
"gggggggggggggggggggggggggggggggggggggggggggggggggggggggggggggggggggggggggggggggggggggggggggggggggggg",
"gggggggggggggggggggggggggggggggggggggggggggggggggggggggggggggggggggggggggggggggggggggggggggggggggggg",
"gggggggggggggggggggggggggggggggggggggggggggggggggggggggggggggggggggggggggggggggggggggggggggggggggggg",
"gggggggggggggggggggggggggggggggggggggggggggggggggggggggggggggggggggggggggggggggggggggggggggggggggggg",
"gggggggggggggggggggggggggggggggggggggggggggggggggggggggggggggggggggggggggggggggggggggggggggggggggggg",
"gggggggggggggggggggggggggggggggggggggggggggggggggggggggggggggggggggggggggggggggggggggggggggggggggggg",
"gggggggggggggggggggggggggggggggggggggggggggggggggggggggggggggggggggggggggggggggggggggggggggggggggggg",
"gggggggggggggggggggggggggggggggggggggggggggggggggggggggggggggggggggggggggggggggggggggggggggggggggggg",
"gggggggggggggggggggggggggggggggggggggggggggggggggggggggggggggggggggggggggggggggggggggggggggggggggggg",
"gggggggggggggggggggggggggggggggggggggggggggggggggggggggggggggggggggggggggggggggggggggggggggggggggggg",
"gggggggggggggggggggggggggggggggggggggggggggggggggggggggggggggggggggggggggggggggggggggggggggggggggggg",
"gggggggggggggggggggggggggggggggggggggggggggggggggggggggggggggggggggggggggggggggggggggggggggggggggggg",
"gggggggggggggggggggggggggggggggggggggggggggggggggggggggggggggggggggggggggggggggggggggggggggggggggggg",
"gggggggggggggggggggggggggggggggggggggggggggggggggggggggggggggggggggggggggggggggggggggggggggggggggggg",
"gggggggggggggggggggggggggggggggggggggggggggggggggggggggggggggggggggggggggggggggggggggggggggggggggggg",
"gggggggggggggggggggggggggggggggggggggggggggggggggggggggggggggggggggggggggggggggggggggggggggggggggggg",
"gggggggggggggggggggggggggggggggggggggggggggggggggggggggggggggggggggggggggggggggggggggggggggggggggggg",
"gggggggggggggggggggggggggggggggggggggggggggggggggggggggggggggggggggggggggggggggggggggggggggggggggggg",
"gggggggggggggggggggggggggggggggggggggggggggggggggggggggggggggggggggggggggggggggggggggggggggggggggggg",
"gggggggggggggggggggggggggggggggggggggggggggggggggggggggggggggggggggggggggggggggggggggggggggggggggggg",
"gggggggggggggggggggggggggggggggggggggggggggggggggggggggggggggggggggggggggggggggggggggggggggggggggggg",
"gggggggggggggggggggggggggggggggggggggggggggggggggggggggggggggggggggggggggggggggggggggggggggggggggggg",
"gggggggggggggggggggggggggggggggggggggggggggggggggggggggggggggggggggggggggggggggggggggggggggggggggggg",
"gggggggggggggggggggggggggggggggggggggggggggggggggggggggggggggggggggggggggggggggggggggggggggggggggggg",
"gggggggggggggggggggggggggggggggggggggggggggggggggggggggggggggggggggggggggggggggggggggggggggggggggggg",
"gggggggggggggggggggggggggggggggggggggggggggggggggggggggggggggggggggggggggggggggggggggggggggggggggggg",
"gggggggggggggggggggggggggggggggggggggggggggggggggggggggggggggggggggggggggggggggggggggggggggggggggggg",
"gggggggggggggggggggggggggggggggggggggggggggggggggggggggggggggggggggggggggggggggggggggggggggggggggggg",
"ggggggggggggggggggggggggggggggggggggggggggggggggggggggggggggggggggggggggbbbggggggggggggggggggggggggg",
"ggggggggggggggggggggggggggggggggggggggggggggggggggggggggggggggggggggggggbfbbgggggggggggggggggggggggg",
"ggggggggggggggggggggggggggggggggggggggggggggggggggggggggggggggggggggbfj.id.jbggggggggggggggggggggggg",
"ggggggggggggggggggggggggggggggggggggggggggggggggggggggggggggggggggbbf.hcccm#jggggggggggggggggggggggg",
"gggggggggggggggggggggggggggggggggggggggggggggggggggggggggggggggbbf.idhecckcm.bgggggggggggggggggggggg",
"ggggggggggggggggggggggggggggggggggggggggggggggggggggggggggggggbf.d#ccccakkccibbggggggggggggggggggggg",
"ggggggggggggggggggggggggggggggggggggggggggggggggggggggggggbbf.iiheckkkaaaakchjbggggggggggggggggggggg",
"gggggggggggggggggggggggggggggggggggggggggggggggggggggggggbfjimckkaaaaaaaaaaaehfggggggggggggggggggggg",
"gggggggggggggggggggggggggggggggggggggggggggggggggggggbbf..dheeckaaaaallaaaaaeejbgggggggggggggggggggg",
"ggggggggggggggggggggggggggggggggggggggggggggggggggggbbjd#cckkkaalllllllllaaaacibbggggggggggggggggggg",
"ggggggggggggggggggggggggggggggggggggggggggggggggbbfj.ihecckkaaaalllllllaaallakhfbggggggggggggggggggg",
"ggggggggggggggggggggggggggggggggggggggggggggggggbfi#mkkkkaaaaaaallllllaaaallaaeifggggggggggggggggggg",
"ggggggggggggggggggggggggggggggggggggggggggggbbj.idheckkaaaaaalllllllllaaaaalaaehjbgggggggggggggggggg",
"gggggggggggggggggggggggggggggggggggggggggggbf.hccckkkaaalllllllllllalllaaaaaaacc.bgggggggggggggggggg",
"ggggggggggggggggggggggggggggggggggggggbbbf.idhecckkaaaaallllllaalllalllaalaaaaacifbggggggggggggggggg",
"ggggggggggggggggggggggggggggggggggggggbbjiekkkaaaaaaaaalllllllaaalllllllllllaaakhjfggggggggggggggggg",
"ggggggggggggggggggggggggggggggggggbbf..dheckkaalllllllllaallllaaaaalllllllllaaaaehjggggggggggggggggg",
"ggggggggggggggggggggggggggggggggggbfd#c`kkaaallllllllllaaallllllaaalllllllllaaaaec.ggggggggggggggggg",
"ggggggggggggggggggggggggggggggbfj.ih#eckkkaaalllllllllllllllllaaaallllllllllaaaaacifbggggggggggggggg",
"ggggggggggggggggggggggggggggbbfihcc`kckaaaaallllllllllllllllllaaaallllllllllaaaaachjbggggggggggggggg",
"gggggggggggggggggggggggggbbj.dhheckkkaaaaaallllllllllllllllllllaaalllllllllllaaaakeifggggggggggggggg",
"ggggggggggggggggggggggggbf.hm``kkkaaaaaaaallllllllllllllllllllllaalllllllllllaaaakc#.ggggggggggggggg",
"ggggggggggggggggggggbbf.idheckkaaaaaaaaaaalllaalllllllllllllllllllllllllllllaaaaakcm.ggggggggggggggg",
"ggggggggggggggggggggbjdmckkaaaaaallaaallllaaaaaaalllllllllllllllllllllllllaaaaaaakcc.ggggggggggggggg",
"ggggggggggggggggbbj.dh#cckaaallllllllllllaaaalaalllllllllllllllllllaaallllaaaakkccmdjggggggggggggggg",
"ggggggggggggggggf.#cccccaaaalllllllllllllaaaallllllllllllllllllllaaaaaaaaaaakkkkccdjbggggggggggggggg",
"ggggggggggggbfj.d#mcccckaaallllllllllllllaaalllllllllllllllllllllllaaaaaaakccc#hi.jbbggggggggggggggg",
"gggggggggggbf.#c````kckaaalllllllllllllaalllllllllllllllllllllllllllaaaaakkcc#ifbggggggggggggggggggg",
"ggggggggggbfd#c````kkkaaaalllllllllllllallllllllllllllllllllaaaaaaaaaaaaeehi..fbbggggggggggggggggggg",
"ggggggggggfdm````kkkkkallaalllllllllllaallllllllllllllllllaaaaaaaaaakkkcehjfbggggggggggggggggggggggg",
"ggggggggggfdm````kkkkkaaaaallllllllllllllllllllllllllllllllaaaaaakcce#hi.ffbbggggggggggggggggggggggg",
"ggggggggggfdm```kkkkkkaaaaallllaaallllllllllllllllllllllllllaaakkkcc#ifbbggggggggggggggggggggggggggg",
"ggggggggggbfdmc``kkkkkkaallalllllllllllllllllllllllllllaaaaaakccehi.jfbggggggggggggggggggggggggggggg",
"ggggggggggggj#m``kkkkkkaallalllllllllllllllllllllllllaaaaaakkkceijfbgggggggggggggggggggggggggggggggg",
"ggggggggggggbjdmc```kkkkalaaaaallllllallllllllllllllaaakkkcehii.fbbggggggggggggggggggggggggggggggggg",
"ggggggggggggggfdm```kkkkaaaaaaaallllaalllllllllllaaaaakkkcmh.fbggggggggggggggggggggggggggggggggggggg",
"ggggggggggggggbf.#c``kkkkaaaaaalllllllllllaaaaaaaaaakceehi.jfbbggggggggggggggggggggggggggggggggggggg",
"ggggggggggggggggb.#```kkkkallallllllllllaaaaaaaaaakkcchijbbggggggggggggggggggggggggggggggggggggggggg",
"ggggggggggggggggbb.hm``kkkaaaallllllllllllaaaaakccehi.jfbbgggggggggggggggggggggggggggggggggggggggggg",
"ggggggggggggggggggbjh``kkkkaaallllllllllllaaakkkcmh.fbgggggggggggggggggggggggggggggggggggggggggggggg",
"ggggggggggggggggggbb.dm`kkkaaalllllllaaaaaakcehhi.jbbggggggggggggggggggggggggggggggggggggggggggggggg",
"ggggggggggggggggggggbfdc``kkaalllllaaaaakkkkehifbbgggggggggggggggggggggggggggggggggggggggggggggggggg",
"ggggggggggggggggggggbbjd#ckkkaaaalaaakkceehi.jfbbggggggggggggggggggggggggggggggggggggggggggggggggggg",
"ggggggggggggggggggggggbbicc`kaaaaaaakkkc#ijbbggggggggggggggggggggggggggggggggggggggggggggggggggggggg",
"gggggggggggggggggggggggbf.#ccckkkkkcehhi.fbbgggggggggggggggggggggggggggggggggggggggggggggggggggggggg",
"ggggggggggggggggggggggggbb.mcccckkcchifbbggggggggggggggggggggggggggggggggggggggggggggggggggggggggggg",
"gggggggggggggggggggggggggbf.dmmm#hi.jfbbgggggggggggggggggggggggggggggggggggggggggggggggggggggggggggg",
"gggggggggggggggggggggggggggbjd##djbggggggggggggggggggggggggggggggggggggggggggggggggggggggggggggggggg",
"ggggggggggggggggggggggggggggbjj.fbbggggggggggggggggggggggggggggggggggggggggggggggggggggggggggggggggg",
"gggggggggggggggggggggggggggggggggggggggggggggggggggggggggggggggggggggggggggggggggggggggggggggggggggg",
"gggggggggggggggggggggggggggggggggggggggggggggggggggggggggggggggggggggggggggggggggggggggggggggggggggg",
"gggggggggggggggggggggggggggggggggggggggggggggggggggggggggggggggggggggggggggggggggggggggggggggggggggg",
"gggggggggggggggggggggggggggggggggggggggggggggggggggggggggggggggggggggggggggggggggggggggggggggggggggg",
"gggggggggggggggggggggggggggggggggggggggggggggggggggggggggggggggggggggggggggggggggggggggggggggggggggg",
"gggggggggggggggggggggggggggggggggggggggggggggggggggggggggggggggggggggggggggggggggggggggggggggggggggg",
"gggggggggggggggggggggggggggggggggggggggggggggggggggggggggggggggggggggggggggggggggggggggggggggggggggg",
"gggggggggggggggggggggggggggggggggggggggggggggggggggggggggggggggggggggggggggggggggggggggggggggggggggg",
"gggggggggggggggggggggggggggggggggggggggggggggggggggggggggggggggggggggggggggggggggggggggggggggggggggg",
"gggggggggggggggggggggggggggggggggggggggggggggggggggggggggggggggggggggggggggggggggggggggggggggggggggg",
"gggggggggggggggggggggggggggggggggggggggggggggggggggggggggggggggggggggggggggggggggggggggggggggggggggg",
"gggggggggggggggggggggggggggggggggggggggggggggggggggggggggggggggggggggggggggggggggggggggggggggggggggg",
"gggggggggggggggggggggggggggggggggggggggggggggggggggggggggggggggggggggggggggggggggggggggggggggggggggg",
"gggggggggggggggggggggggggggggggggggggggggggggggggggggggggggggggggggggggggggggggggggggggggggggggggggg",
"gggggggggggggggggggggggggggggggggggggggggggggggggggggggggggggggggggggggggggggggggggggggggggggggggggg",
"gggggggggggggggggggggggggggggggggggggggggggggggggggggggggggggggggggggggggggggggggggggggggggggggggggg",
"gggggggggggggggggggggggggggggggggggggggggggggggggggggggggggggggggggggggggggggggggggggggggggggggggggg",
"gggggggggggggggggggggggggggggggggggggggggggggggggggggggggggggggggggggggggggggggggggggggggggggggggggg",
"gggggggggggggggggggggggggggggggggggggggggggggggggggggggggggggggggggggggggggggggggggggggggggggggggggg",
"gggggggggggggggggggggggggggggggggggggggggggggggggggggggggggggggggggggggggggggggggggggggggggggggggggg",
"gggggggggggggggggggggggggggggggggggggggggggggggggggggggggggggggggggggggggggggggggggggggggggggggggggg",
"gggggggggggggggggggggggggggggggggggggggggggggggggggggggggggggggggggggggggggggggggggggggggggggggggggg",
"gggggggggggggggggggggggggggggggggggggggggggggggggggggggggggggggggggggggggggggggggggggggggggggggggggg"
};
