/* XPM */
static char *point2point[] = {
/* width height num_colors chars_per_pixel */
"    34    34        8            1",
/* colors */
"` c #05036c",
". c #8e88b6",
"# c #464595",
"a c #d6d4e6",
"b c #2b2980",
"c c #726ca7",
"d c #bcbad4",
"e c #fcfefc",
/* pixels */
"eeeeeeeeeeeeeeeeeeeeeeeeeeeeeeeeee",
"eeeeeeeeeeeeeeeeeeeeeeeeeeeeeeeeee",
"eeeeeeeeeeeeeeeeeeeeeeeeeeeeeeeeee",
"eeeeeeeeeeeeeeeeeeeeeeeeeeeeeeeeee",
"eeeeeeeeeeeeeeeeeeeeeeeeeeeeeeeeee",
"eeeeeeeeeeeeeeeeeeeeeeeeeeeeeeeeee",
"eeeeeeeeeeeeeeeeeeeeeeeeeeeeeeeeee",
"eeeeeeeeeeeeeeeeeeeeeeeeeeeeeeeeee",
"eeeeeeeeeeeeeeeeeeeeeeeeeeeeeeeeee",
"eeeeeeeeeeeeeeeeeeeeeeeeeeeeeeeeee",
"ee.######.aeeeeeeeeeeed######caeee",
"ee.````````aeeeeeeeeeed````````.ee",
"ee.``#.cb``#eeeeeeeeeed``b..b```ee",
"ee.``.eea```eecb``bdeed``#eeeb``de",
"ee.``.eee```ee`b#``baed``#eee#``de",
"ee.``.eac``#ee.eea``ded``#ee.```ee",
"ee.````````deeeeee``aed````````.ee",
"ee.``````bdeeeeee#`#eed```````.eee",
"ee.``cdddeeeeeeac`beeed``bdddeeeee",
"ee.``.eeeeeeeeab`ceeeed``#eeeeeeee",
"ee.``.eeeeeeea```###ced``#eeeeeeee",
"ee.``.eeeeeeed``````#ed``#eeeeeeee",
"eeeeeeeeeeeeeeeeeeeeeeeeeeeeeeeeee",
"eeeeeeeeeeeeeeeeeeeeeeeeeeeeeeeeee",
"eeeeeeeeeeeeeeeeeeeeeeeeeeeeeeeeee",
"eeeeeeeeeeeeeeeeeeeeeeeeeeeeeeeeee",
"eeeeeeeeeeeeeeeeeeeeeeeeeeeeeeeeee",
"eeeeeeeeeeeeeeeeeeeeeeeeeeeeeeeeee",
"eeeeeeeeeeeeeeeeeeeeeeeeeeeeeeeeee",
"eeeeeeeeeeeeeeeeeeeeeeeeeeeeeeeeee",
"eeeeeeeeeeeeeeeeeeeeeeeeeeeeeeeeee",
"eeeeeeeeeeeeeeeeeeeeeeeeeeeeeeeeee",
"eeeeeeeeeeeeeeeeeeeeeeeeeeeeeeeeee",
"eeeeeeeeeeeeeeeeeeeeeeeeeeeeeeeeee"
};
