<?xml version="1.0" encoding="utf-8"?>
<!-- Generator: Adobe Illustrator 13.0.2, SVG Export Plug-In . SVG Version: 6.00 Build 14948)  -->
<svg version="1.2" baseProfile="tiny" id="Layer_1" xmlns="http://www.w3.org/2000/svg" xmlns:xlink="http://www.w3.org/1999/xlink"
	 x="0px" y="0px" width="242.648px" height="202.523px" viewBox="0 0 242.648 202.523" xml:space="preserve">
<g>
	<g>
		<path fill="#636464" stroke="#010101" stroke-width="6.25" stroke-linecap="round" stroke-linejoin="round" d="M148.232,128.183
			l81.738,11.494c24.434,5.24-3.535-85.524-22.264-69.941L148.232,128.183z"/>
		<path fill="#424242" stroke="#010101" stroke-width="6.25" stroke-linecap="round" stroke-linejoin="round" d="M34.15,121.933
			l18.975,6.822l24.363,70.049l-22.791-9.124c-5.017-2.075-6.24-4.817-8.462-10.827l-16.418-52.516
			c-1.399-3.428,1.038-5.256,4.368-4.369"/>
		<path fill="#424242" stroke="#010101" stroke-width="6.25" stroke-linecap="round" stroke-linejoin="round" d="M134.055,83.296
			L31.538,121.802l21.56,6.838l113.416-41.687l-13.711-4.905C145.559,79.043,139.17,81.785,134.055,83.296z"/>
		<path fill="#636464" stroke="#010101" stroke-width="6.25" stroke-linecap="round" stroke-linejoin="round" d="M61.897,125.378
			l97.021-36.052c8.694-3.154,12.957-1.943,14.407,3.577l17.183,53.491c2.266,7.822,0.747,11.18-4.966,13.491l-99.766,38.919
			c-8.015,1.896-10.222-0.96-11.707-5.618l-18.062-55.581C53.389,129.739,55.225,127.9,61.897,125.378z"/>
	</g>
	<g>
		<path fill="#444444" stroke="#010101" stroke-width="5" stroke-linecap="round" stroke-linejoin="round" d="M158.357,46.841
			c0,24.478-16.595,44.341-37.073,44.341s-37.08-19.863-37.08-44.341c0-24.497,16.602-44.341,37.08-44.341
			S158.357,22.344,158.357,46.841z"/>
		<path fill="#DCDBDB" stroke="#010101" stroke-width="5" stroke-linecap="round" stroke-linejoin="round" d="M168.403,46.841
			c0,24.478-16.595,44.341-37.073,44.341c-20.478,0-37.072-19.863-37.072-44.341c0-24.497,16.594-44.341,37.072-44.341
			C151.809,2.5,168.403,22.344,168.403,46.841z"/>
		<path fill="#FFFFFF" stroke="#010101" stroke-width="2.5" stroke-linecap="round" stroke-linejoin="round" d="M137.121,46.831
			c0,3.813-2.592,6.917-5.791,6.917c-3.2,0-5.766-3.103-5.766-6.917s2.565-6.909,5.766-6.909
			C134.529,39.922,137.121,43.018,137.121,46.831z"/>
		<path fill="#231F20" stroke="#010101" stroke-width="0.3158" stroke-linecap="round" stroke-linejoin="round" d="M133.994,46.831
			c0,1.768-1.187,3.198-2.664,3.198c-1.477,0-2.663-1.431-2.663-3.198c0-1.758,1.187-3.191,2.663-3.191
			C132.808,43.64,133.994,45.073,133.994,46.831z"/>
		<path fill="#5B5B5B" stroke="#010101" stroke-width="3.75" stroke-linecap="round" stroke-linejoin="round" d="M118.972,14.636
			c6.03-5.537,16.453-6.636,23.845-1.697c8.887,5.916-4.104,23.02-11.24,23.02C125.002,35.959,111.968,21.062,118.972,14.636z"/>
		<path fill="#5B5B5B" stroke="#010101" stroke-width="3.75" stroke-linecap="round" stroke-linejoin="round" d="M118.147,78.823
			c6.038,5.537,16.453,6.636,23.853,1.704c8.877-5.923-4.095-23.027-11.233-23.027C124.185,57.5,111.15,72.397,118.147,78.823z"/>
		<path fill="#5B5B5B" stroke="#010101" stroke-width="3.75" stroke-linecap="round" stroke-linejoin="round" d="M104.443,58.74
			c-4.709-6.038-5.632-16.453-1.44-23.853c5.027-8.877,19.573,4.111,19.573,11.24C122.576,52.703,109.902,65.737,104.443,58.74z"/>
		<path fill="#5B5B5B" stroke="#010101" stroke-width="3.75" stroke-linecap="round" stroke-linejoin="round" d="M158.391,59.558
			c4.72-6.021,5.643-16.445,1.451-23.845c-5.037-8.877-19.563,4.097-19.563,11.233C140.278,53.538,152.935,66.563,158.391,59.558z"
			/>
	</g>
	<g>
		<path fill="#444444" stroke="#010101" stroke-width="5" stroke-linecap="round" stroke-linejoin="round" d="M84.88,69.937
			c0,27.202-18.43,49.262-41.187,49.262C20.93,119.199,2.5,97.138,2.5,69.937c0-27.227,18.43-49.28,41.194-49.28
			C66.45,20.657,84.88,42.71,84.88,69.937z"/>
		<path fill="#DCDBDB" stroke="#010101" stroke-width="5" stroke-linecap="round" stroke-linejoin="round" d="M96.042,69.937
			c0,27.202-18.43,49.262-41.187,49.262c-22.764,0-41.184-22.061-41.184-49.262c0-27.227,18.42-49.28,41.184-49.28
			C77.612,20.657,96.042,42.71,96.042,69.937z"/>
		<path fill="#FFFFFF" stroke="#010101" stroke-width="2.5" stroke-linecap="round" stroke-linejoin="round" d="M61.282,69.929
			c0,4.236-2.866,7.673-6.426,7.673c-3.567,0-6.416-3.438-6.416-7.673c0-4.255,2.849-7.683,6.416-7.683
			C58.416,62.246,61.282,65.674,61.282,69.929z"/>
		<path fill="#231F20" stroke="#010101" stroke-width="0.3509" stroke-linecap="round" stroke-linejoin="round" d="M57.81,69.929
			c0,1.951-1.311,3.55-2.954,3.55s-2.961-1.599-2.961-3.55c0-1.96,1.318-3.542,2.961-3.542S57.81,67.969,57.81,69.929z"/>
		<path fill="#5B5B5B" stroke="#010101" stroke-width="3.75" stroke-linecap="round" stroke-linejoin="round" d="M41.128,34.148
			c6.689-6.152,18.271-7.373,26.499-1.89c9.861,6.584-4.561,25.586-12.498,25.586C47.817,57.844,33.35,41.284,41.128,34.148z"/>
		<path fill="#5B5B5B" stroke="#010101" stroke-width="3.75" stroke-linecap="round" stroke-linejoin="round" d="M40.205,105.471
			c6.707,6.152,18.271,7.376,26.499,1.899c9.861-6.592-4.561-25.593-12.48-25.593C46.912,81.777,32.427,98.335,40.205,105.471z"/>
		<path fill="#5B5B5B" stroke="#010101" stroke-width="3.75" stroke-linecap="round" stroke-linejoin="round" d="M24.99,83.157
			c-5.237-6.707-6.265-18.281-1.616-26.509c5.591-9.861,21.743,4.563,21.743,12.49C45.117,76.45,31.055,90.925,24.99,83.157z"/>
		<path fill="#5B5B5B" stroke="#010101" stroke-width="3.75" stroke-linecap="round" stroke-linejoin="round" d="M84.915,84.063
			c5.239-6.699,6.284-18.264,1.619-26.499c-5.591-9.854-21.746,4.561-21.746,12.498C64.788,77.363,78.85,91.848,84.915,84.063z"/>
	</g>
</g>
</svg>
