/* XPM */
static char *DVY_Spindles_8_xpm[] = {
/* width height num_colors chars_per_pixel */
"    40   160      256            2",
/* colors */
"`` c #543e0c",
"`. c #d4a274",
"`# c #a47654",
"`a c #cc8a6c",
"`b c #ecdac4",
"`c c #c48e6c",
"`d c #7c663c",
"`e c #dcc6ac",
"`f c #bc7e5c",
"`g c #e4a26c",
"`h c #a4825c",
"`i c #e49a74",
"`j c #b4764c",
"`k c #947a5c",
"`l c #f4a274",
"`m c #745224",
"`n c #cc9674",
"`o c #eca26c",
"`p c #a47e5c",
"`q c #946e4c",
"`r c #ccb294",
"`s c #fffaf4",
"`t c #7c5e3c",
"`u c #dc926c",
"`v c #ac8a6c",
"`w c #ac764c",
"`x c #bc865c",
"`y c #dc966c",
"`z c #eca27c",
"`A c #9c764c",
"`B c #6c5224",
"`C c #cc9274",
"`D c #f4e6dc",
"`E c #e4c6ac",
"`F c #e4a27c",
"`G c #ac825c",
"`H c #ec9a74",
"`I c #8c6234",
"`J c #dca274",
"`K c #b49e84",
"`L c #8c6634",
"`M c #b47e54",
"`N c #9c8a7c",
"`O c #eca66c",
"`P c #ac7e5c",
"`Q c #d4b294",
"`R c #846234",
"`S c #c48664",
"`T c #dc9e74",
"`U c #9c765c",
"`V c #544214",
"`W c #a47a54",
"`X c #ecdec4",
"`Y c #dccab4",
"`Z c #e4a674",
"`0 c #9c7a5c",
"`1 c #f4a674",
"`2 c #74561c",
"`3 c #ffffff",
"`4 c #7c623c",
"`5 c #ac7a4c",
"`6 c #dc9a74",
"`7 c #d4926c",
"`8 c #ac866c",
".` c #ec9e74",
".. c #543e14",
".# c #d4a674",
".a c #a4765c",
".b c #cc8e6c",
".c c #ecdacc",
".d c #c49674",
".e c #846634",
".f c #dcc6b4",
".g c #c48264",
".h c #e4a274",
".i c #a48264",
".j c #e49e74",
".k c #b47a54",
".l c #f4a27c",
".m c #d4966c",
".n c #eca274",
".o c #a47e64",
".p c #94724c",
".q c #ccb29c",
".r c #fffaff",
".s c #dc9274",
".t c #ac8a74",
".u c #ac7654",
".v c #bc8664",
".w c #dc9674",
".x c #eca67c",
".y c #9c7654",
".z c #6c5624",
".A c #f4eadc",
".B c #e4c6b4",
".C c #e4a67c",
".D c #ac8264",
".E c #dca674",
".F c #bc9e84",
".G c #8c6e4c",
".H c #b47e5c",
".I c #eca674",
".J c #ac7e64",
".K c #d4b29c",
".L c #c48a6c",
".M c #9c7664",
".N c #9c7a64",
".O c #745624",
".P c #7c6244",
".Q c #d49274",
".R c #ec9e7c",
".S c #000000",
".T c #000000",
".U c #000000",
".V c #000000",
".W c #000000",
".X c #000000",
".Y c #000000",
".Z c #000000",
".0 c #000000",
".1 c #000000",
".2 c #000000",
".3 c #000000",
".4 c #000000",
".5 c #000000",
".6 c #000000",
".7 c #000000",
".8 c #000000",
"#` c #000000",
"#. c #000000",
"## c #000000",
"#a c #000000",
"#b c #000000",
"#c c #000000",
"#d c #000000",
"#e c #000000",
"#f c #000000",
"#g c #000000",
"#h c #000000",
"#i c #000000",
"#j c #000000",
"#k c #000000",
"#l c #000000",
"#m c #000000",
"#n c #000000",
"#o c #000000",
"#p c #000000",
"#q c #000000",
"#r c #000000",
"#s c #000000",
"#t c #000000",
"#u c #000000",
"#v c #000000",
"#w c #000000",
"#x c #000000",
"#y c #000000",
"#z c #000000",
"#A c #000000",
"#B c #000000",
"#C c #000000",
"#D c #000000",
"#E c #000000",
"#F c #000000",
"#G c #000000",
"#H c #000000",
"#I c #000000",
"#J c #000000",
"#K c #000000",
"#L c #000000",
"#M c #000000",
"#N c #000000",
"#O c #000000",
"#P c #000000",
"#Q c #000000",
"#R c #000000",
"#S c #000000",
"#T c #000000",
"#U c #000000",
"#V c #000000",
"#W c #000000",
"#X c #000000",
"#Y c #000000",
"#Z c #000000",
"#0 c #000000",
"#1 c #000000",
"#2 c #000000",
"#3 c #000000",
"#4 c #000000",
"#5 c #000000",
"#6 c #000000",
"#7 c #000000",
"#8 c #000000",
"a` c #000000",
"a. c #000000",
"a# c #000000",
"aa c #000000",
"ab c #000000",
"ac c #000000",
"ad c #000000",
"ae c #000000",
"af c #000000",
"ag c #000000",
"ah c #000000",
"ai c #000000",
"aj c #000000",
"ak c #000000",
"al c #000000",
"am c #000000",
"an c #000000",
"ao c #000000",
"ap c #000000",
"aq c #000000",
"ar c #000000",
"as c #000000",
"at c #000000",
"au c #000000",
"av c #000000",
"aw c #000000",
"ax c #000000",
"ay c #000000",
"az c #000000",
"aA c #000000",
"aB c #000000",
"aC c #000000",
"aD c #000000",
"aE c #000000",
"aF c #000000",
"aG c #000000",
"aH c #000000",
"aI c #000000",
"aJ c #000000",
"aK c #000000",
"aL c #000000",
"aM c #000000",
"aN c #000000",
"aO c #000000",
"aP c #000000",
"aQ c #000000",
"aR c #000000",
"aS c #000000",
"aT c #000000",
"aU c #000000",
"aV c #000000",
"aW c #000000",
"aX c #000000",
"aY c #000000",
"aZ c #000000",
"a0 c #000000",
"a1 c #000000",
"a2 c #000000",
"a3 c #000000",
"a4 c #000000",
"a5 c #000000",
"a6 c #000000",
"a7 c #000000",
"a8 c #000000",
/* pixels */
"`3`3`3`3`3`3`3`3`3`3`3`3`3`3`3`3`3`3`3`3`3`3`3`3.c.O`e`s`3`3`3`3`3`3`3`3`3`3`3`3",
"`3`3`3`3`3`3`3`3`3`3`3`3`3`3`3`3`3`3`3`3`3`3.f`q`I.I`L.A`3`3`3`3`3`3`3`3`3`3`3`3",
"`3`3`3`3`3`3`3`3`3`3`3`3`3`3`3`3`3`3`s`0.G`..I.h.h.I.n`.`q`r`3`3`3`3`3`3`3`3`3`3",
"`3`3`3`3`3`3`3`3`3`3`3`3`3`3`3`3`3.G`4.q.I.h.I.n`u`T.h.I`Z.N.J`3`3`3`3`3`3`3`3`3",
"`3`3`3`3`3`3`3`3`3`3`3`3`3`3`3`3`3`q`4`c.I.I.I.h.h.I`Z.h`Z.n.z.O`3`3`3`3`3`3`3`3",
"`3`3`3`3`3`3`3`3`3`3`3`3`3`3`3`3`3`8.I`#.e`u.n.h`i.I.h`w.O`#`8`4`3`3`3`3`3`3`3`3",
"`3`3`3`3`3`3`3`3`3`3`3`3`3`3`3`3`3`v.h.I`w`L.g.I.h`w`L.u.L`Z`.`q`3`3`3`3`3`3`3`3",
"`3`3`3`3`3`3`3`3`3`3`3`3`3`3`3`3`3`8.h.I`7`w.e`L`I`L`M`y.h.I`.`q`3`3`3`3`3`3`3`3",
"`3`3`3`3`3`3`3`3`3`3`3`3`3`3`3`3`3`8`Z.j.n.I`f`w.j.n.`.n.h.h`J.G`3`3`3`3`3`3`3`3",
"`3`3`3`3`3`3`3`3`3`3`3`3`3`3`3`3`3`v.I`H.j.I`S`M.h.j`i.j`6`T`.`q`3`3`3`3`3`3`3`3",
"`3`3`3`3`3`3`3`3`3`3`3`3`3`3`3`3`3`8.h.I.n.I`f.k.I.j.j.n.h.h.E.G`3`3`3`3`3`3`3`3",
"`3`3`3`3`3`3`3`3`3`3`3`3`3`3`3`3.c`8.h.I.n.I`f`w`g.n.n`i`i.h`.`L`3`3`3`3`3`3`3`3",
"`3`3`3`3`3`3`3`3`3`3`3`3`3`3`3`3.c`v`Z.n`z.I`f`w.h.`.n`i.j.h`.`I`3`3`3`3`3`3`3`3",
"`3`3`3`3`3`3`3`3`3`3`3`3`3`3`3`3`b`8.h`1.`.I`f`w.h.n.`.j`H.h`.`L`3`3`3`3`3`3`3`3",
"`3`3`3`3`3`3`3`3`3`3`3`3`3`3`3`3`D.J`6.I.n.I`f`w.h.h.j.j.n.n.h`L`3`3`3`3`3`3`3`3",
"`3`3`3`3`3`3`3`3`3`3`3`3`3`3`3`3`s.J`6.I.n.n`f`w.h.h`i.j.n.I.h`L`3`3`3`3`3`3`3`3",
"`3`3`3`3`3`3`3`3`3`3`3`3`3`3`3`3.r`G`6.n.n.n`f`w.h.h`i.j.n.I.h`L`3`3`3`3`3`3`3`3",
"`3`3`3`3`3`3`3`3`3`3`3`3`3`3`3`3.A.J`6`Z.`.n`f`w.h.h`H.j.``Z.h`4`3`3`3`3`3`3`3`3",
"`3`3`3`3`3`3`3`3`3`3`3`3`3`3`3`3`b.y`..h.h.n`f`w`Z`Z`Z.n.h.I.h.P`3`3`3`3`3`3`3`3",
"`3`3`3`3`3`3`3`3`3`3`3`3`3`3`3`3.c`0.#.h.h.h`f`j.h.C.h.h.h`Z.h`4`3`3`3`3`3`3`3`3",
"`3`3`3`3`3`3`3`3`3`3`3`3`3`3`3`3`3`0`8.I.I.I`S`M.I`J`Z.n.n.I`0`8`3`3`3`3`3`3`3`3",
"`3`3`3`3`3`3`3`3`3`3`3`3`3`3`3`3`3`3.O```L`q`L.G`q`A.v`#.O..`K`3`3`3`3`3`3`3`3`3",
"`3`3`3`3`3`3`3`3`3`3`3`3`3`3`3`3`3`3.N.O...O`q`M`L.O.O...O`2`K`3`3`3`3`3`3`3`3`3",
"`3`3`3`3`3`3`3`3`3`3`3`3`3`3`3`3`3`K`8.n`n`w`f`#`#.y`q`M`J`J`t`3`3`3`3`3`3`3`3`3",
"`3`3`3`3`3`3`3`3`3`3`3`3`s`s`3`3`3.c.N`#`c.h.I.n.I.h.n`.`#`4`v`3`3`3`3`3`3`3`3`3",
"`3`3`3`3`3`3`3`3`3`3`3`3`s`s`3`3`3`3`v...O.y`I.y`q`q`#.P..`4`3`3`3`3`3`3`3`3`3`3",
"`3`3`3`3`3`3`3`3`3`3`3`3`3`3`3`3`3`3`3.O`V...O.O``...O.z..`3`3`3`3`3`3`3`3`3`3`3",
"`3`3`3`3`3`3`3`3`3`3`3`3`3`3`3`3`3`3`3`q`J.I.I.h.I.h.I.n.G.A`3`3`3`3`3`3`3`3`3`3",
"`3`3`3`3`3`3`3`3`3`3`3`3`3`3`3`3`3`3.K`4`8.I.h.I.x.I.I`..P`4`3`3`3`3`3`3`3`3`3`3",
"`3`3`3`3`3`3`3`3`3`3`3`3`3`3`3`3`3`3.P.....O`2`L`I`L.O.O.O.O`3`3`3`3`3`3`3`3`3`3",
"`3`3`3`3`3`3`3`3`3`3`3`3`3`3`3`3`3.A`K.I`.`F`T.h`Z.``6.I.I`.`k`3`3`3`3`3`3`3`3`3",
"`3`3`3`3`3`3`3`3`3`3`3`3`3`3`3`3`3.f`q.h.I.n`6.j.`.j.I`n.I.i.N`3`3`3`3`3`3`3`3`3",
"`3`3`3`3`3`3`3`3`3`3`3`3`3`3`3`3`3`3.G`n.h`Z.n`y.I.n.h`6.h`8`K`3`3`3`3`3`3`3`3`3",
"`3`3`3`3`3`3`3`3`3`3`3`3`3`3`3`3`3`3.G`J.h.h.I`6.I.I.n.h.h.p.c`3`3`3`3`3`3`3`3`3",
"`3`3`3`3`3`3`3`3`3`3`3`3`3`3`3`3`3`3`v`8.h.h.I.j.n.n`H.I`.`t`3`3`3`3`3`3`3`3`3`3",
"`3`3`3`3`3`3`3`3`3`3`3`3`3`3`3`3`3`3`b.y`J.n.`.j.n.n`i.h.v.D`3`3`3`3`3`3`3`3`3`3",
"`3`3`3`3`3`3`3`3`3`3`3`3`3`3`3`3`3`3`3.G`n.n`H.j.n`o.j.h`#`X`3`3`3`3`3`3`3`3`3`3",
"`3`3`3`3`3`3`3`3`3`3`3`3`3`3`3`3`3`3`3.i`r`Z.h.I.j.n.h.I.O`3`3`3`3`3`3`3`3`3`3`3",
"`3`3`3`3`3`3`3`3`3`3`3`3`3`3`3`3`3`3`3`s`q`Z.h.I`i.h.h.h`0`3`3`3`3`3`3`3`3`3`3`3",
"`3`3`3`3`3`3`3`3`3`3`3`3`3`3`3`3`3`3`3`3`4.h.I.#.h.h.I.J.A`3`3`3`3`3`3`3`3`3`3`3",
"`3`3`3`3`3`3`3`3`3`3`3`3`3`3`3`3`3`3`3.O.O`q`#`.`f.v`#`4..`s`3`3`3`3`3`3`3`3`3`3",
"`3`3`3`3`3`3`3`3`3`3`3`3`3`3`3`3`3`3`3`0.G`L`L`q`L.O`q`4`q`3`3`3`3`3`3`3`3`3`3`3",
"`3`3`3`3`3`3`3`3`3`3`3`3`3`3`3`3`3`3`3.A.O`4.k.y`M.v.y```3`3`3`3`3`3`3`3`3`3`3`3",
"`3`3`3`3`3`3`3`3`3`3`3`3`3`3`3`3`3`3`3`3`q.J`w`M`w`M.G.D`3`3`3`3`3`3`3`3`3`3`3`3",
"`3`3`3`3`3`3`3`3`3`3`3`3`3`3`3`3`3`3`3`3.e`..I.n.n`Z`L`s`3`3`3`3`3`3`3`3`3`3`3`3",
"`3`3`3`3`3`3`3`3`3`3`3`3`3`3`3`3`3`3`3`3`4.I`M.v`T.n`q`E`3`3`3`3`3`3`3`3`3`3`3`3",
"`3`3`3`3`3`3`3`3`3`3`3`3`3`3`3`3`3`3`3`3`4.z`w`6.n`.`.`q`3`3`3`3`3`3`3`3`3`3`3`3",
"`3`3`3`3`3`3`3`3`3`3`3`3`3`3`3`3`3`3`3`3.O.O.h.n`Z`c.h`4`3`3`3`3`3`3`3`3`3`3`3`3",
"`3`3`3`3`3`3`3`3`3`3`3`3`3`3`3`3`3`3`3`3.O.J.I.n`L.v.I`4`3`3`3`3`3`3`3`3`3`3`3`3",
"`3`3`3`3`3`3`3`3`3`3`3`3`3`3`3`3`3`3`3.A`q.I.h`M`R`.`.`4`3`3`3`3`3`3`3`3`3`3`3`3",
"`3`3`3`3`3`3`3`3`3`3`3`3`3`3`3`3`3`3`3`q`..I.O`w.n.h.O`4`3`3`3`3`3`3`3`3`3`3`3`3",
"`3`3`3`3`3`3`3`3`3`3`3`3`3`3`3`3`3`3`3`8.n`L.G`z`u.n.O.O`3`3`3`3`3`3`3`3`3`3`3`3",
"`3`3`3`3`3`3`3`3`3`3`3`3`3`3`3`3`3`3`3`v.h.O`..n.I.p.y`4`3`3`3`3`3`3`3`3`3`3`3`3",
"`3`3`3`3`3`3`3`3`3`3`3`3`3`3`3`3`3`3`3.K..`..h.I.O`f.h`4`3`3`3`3`3`3`3`3`3`3`3`3",
"`3`3`3`3`3`3`3`3`3`3`3`3`3`3`3`3`3`3`3`r`4.h.n`q`L.I.n.O`3`3`3`3`3`3`3`3`3`3`3`3",
"`3`3`3`3`3`3`3`3`3`3`3`3`3`3`3`3`3`3`3.J`c.I`a.z.I.#.I..`3`3`3`3`3`3`3`3`3`3`3`3",
"`3`3`3`3`3`3`3`3`3`3`3`3`3`3`3`3`3`3`3`0.E`q`w.h.I.h`L.P.c`3`3`3`3`3`3`3`3`3`3`3",
"`3`3`3`3`3`3`3`3`3`3`3`3`3`3`3`3`3`3`3.p`c..`6.I.s.n.O`K`q`3`3`3`3`3`3`3`3`3`3`3",
"`3`3`3`3`3`3`3`3`3`3`3`3`3`3`3`3`3`3`3`0.G.G.I.I`y`L.J.I.P`3`3`3`3`3`3`3`3`3`3`3",
"`3`3`3`3`3`3`3`3`3`3`3`3`3`3`3`3`3`3`3`0`4`Z.h`c`L.h.I`K.i`3`3`3`3`3`3`3`3`3`3`3",
"`3`3`3`3`3`3`3`3`3`3`3`3`3`3`3`3`3`3`3.G`n.I`n`I`w.I.n`4`s`3`3`3`3`3`3`3`3`3`3`3",
"`3`3`3`3`3`3`3`3`3`3`3`3`3`3`3`3`3`3`3`4`Z.n`w.e.I.h.I..`3`3`3`3`3`3`3`3`3`3`3`3",
"`3`3`3`3`3`3`3`3`3`3`3`3`3`3`3`3`3`3`3`0`c.O`c.I.n.I.G`8`2`3`3`3`3`3`3`3`3`3`3`3",
"`3`3`3`3`3`3`3`3`3`3`3`3`3`3`3`3`3`3`3`q.O`f`7.h.n`S.O.h`q`3`3`3`3`3`3`3`3`3`3`3",
"`3`3`3`3`3`3`3`3`3`3`3`3`3`3`3`3`3`3`3.P`2`..I.I`6`L.k.n`4`3`3`3`3`3`3`3`3`3`3`3",
"`3`3`3`3`3`3`3`3`3`3`3`3`3`3`3`3`3`3`3.O`8`..I`T`w.e.I.I`4`3`3`3`3`3`3`3`3`3`3`3",
"`3`3`3`3`3`3`3`3`3`3`3`3`3`3`3`3`3`3`K.o`..I`w.e`u.n`..P.J`3`3`3`3`3`3`3`3`3`3`3",
"`3`3`3`3`3`3`3`3`3`3`3`3`3`3`3`3`3`3`q.E.h`n`I.s.I.h`J`B`4`3`3`3`3`3`3`3`3`3`3`3",
"`3`3`3`3`3`3`3`3`3`3`3`3`3`3`3`3`3`3.M`..h.O`w.I`T.n`q.P`k`3`3`3`3`3`3`3`3`3`3`3",
"`3`3`3`3`3`3`3`3`3`3`3`3`3`3`3`3`3`3.q.O`q`n.I`6.n.O.v.h`2`3`3`3`3`3`3`3`3`3`3`3",
"`3`3`3`3`3`3`3`3`3`3`3`3`3`3`3`3`3`3`s.O.y.n`F.I`L.G`l.I`4`3`3`3`3`3`3`3`3`3`3`3",
"`3`3`3`3`3`3`3`3`3`3`3`3`3`3`3`3`3`3.B`k`Z.h.I`w.O.I.h.I.G`3`3`3`3`3`3`3`3`3`3`3",
"`3`3`3`3`3`3`3`3`3`3`3`3`3`3`3`3`3`3`4`J.I`n.O`u.n.h`Z.O`m`3`3`3`3`3`3`3`3`3`3`3",
"`3`3`3`3`3`3`3`3`3`3`3`3`3`3`3`3`3`3.G`..I.O`f.n.j.I`n.O`4`3`3`3`3`3`3`3`3`3`3`3",
"`3`3`3`3`3`3`3`3`3`3`3`3`3`3`3`3`3`3`q.I`L`w.h`6.I.h.G`#`p.c`3`3`3`3`3`3`3`3`3`3",
"`3`3`3`3`3`3`3`3`3`3`3`3`3`3`3`3`3`3`8```S`n.h.h`c.O`..h.P`3`3`3`3`3`3`3`3`3`3`3",
"`3`3`3`3`3`3`3`3`3`3`3`3`3`3`3`3`3`3.c`q`c.n`6.I```6.I`.`d`3`3`3`3`3`3`3`3`3`3`3",
"`3`3`3`3`3`3`3`3`3`3`3`3`3`3`3`3`3`3`8`8.I.h.I..`y.h`Z.D`I`3`3`3`3`3`3`3`3`3`3`3",
"`3`3`3`3`3`3`3`3`3`3`3`3`3`3`3`3`3`3.M`.`Z..`f.n`i.I`n.O`4`3`3`3`3`3`3`3`3`3`3`3",
"`3`3`3`3`3`3`3`3`3`3`3`3`3`3`3`3`3`3`q.J.O`c.h.I.j`6.G`S`q`s`3`3`3`3`3`3`3`3`3`3",
"`3`3`3`3`3`3`3`3`3`3`3`3`3`3`3`3`3`3.K.O`G.h.h.I.j.h.O.I`q`s`3`3`3`3`3`3`3`3`3`3",
"`3`3`3`3`3`3`3`3`3`3`3`3`3`3`3`3`3`3.K`4`..n`6.h`y...h`Z.O`3`3`3`3`3`3`3`3`3`3`3",
"`3`3`3`3`3`3`3`3`3`3`3`3`3`3`3`3`3`3`t`..n`n.n`L`I.I.I`4.P.c`3`3`3`3`3`3`3`3`3`3",
"`3`3`3`3`3`3`3`3`3`3`3`3`3`3`3`3`3`3`q`J.h.h`L`L.n.n.n.O`n`0`3`3`3`3`3`3`3`3`3`3",
"`3`3`3`3`3`3`3`3`3`3`3`3`3`3`3`3`3`3`0`..I`w.z.h.I`7.v`L.I`4`3`3`3`3`3`3`3`3`3`3",
"`3`3`3`3`3`3`3`3`3`3`3`3`3`3`3`3`3`3`q.#...v.I.h`u`6`I.n`.`q`3`3`3`3`3`3`3`3`3`3",
"`3`3`3`3`3`3`3`3`3`3`3`3`3`3`3`3`3`3`q.O.t.n`6`Z.n.O`x.n.#.N`3`3`3`3`3`3`3`3`3`3",
"`3`3`3`3`3`3`3`3`3`3`3`3`3`3`3`3`3`3`8`4`..I.I.n.k.e.h.I`L`s`3`3`3`3`3`3`3`3`3`3",
"`3`3`3`3`3`3`3`3`3`3`3`3`3`3`3`3`3`3`q`.`Z.n`f.z`f.h.I`M.O.i`3`3`3`3`3`3`3`3`3`3",
"`3`3`3`3`3`3`3`3`3`3`3`3`3`3`3`3`3`3.G`n.h`6`I`5.I`6.h.O`S`4`3`3`3`3`3`3`3`3`3`3",
"`3`3`3`3`3`3`3`3`3`3`3`3`3`3`3`3`3.c`P`Z.h.O`L.n.n.I.G`I.I`q.c`3`3`3`3`3`3`3`3`3",
"`3`3`3`3`3`3`3`3`3`3`3`3`3`3`3`3`3`3.D.o.O`..I`6`i.O`M.I.#`P`Q`3`3`3`3`3`3`3`3`3",
"`3`3`3`3`3`3`3`3`3`3`3`3`3`3`3`3`3`3`q..`c.h.h`Z`L`I.I.h.n`d`3`3`3`3`3`3`3`3`3`3",
"`3`3`3`3`3`3`3`3`3`3`3`3`3`3`3`3`3`3.p`#`.`Z.I`L`q.I.n.h`J`I`3`3`3`3`3`3`3`3`3`3",
"`3`3`3`3`3`3`3`3`3`3`3`3`3`3`3`3`3`3`q.#`Z`.`L.v.I.h.I`f..`8`3`3`3`3`3`3`3`3`3`3",
"`3`3`3`3`3`3`3`3`3`3`3`3`3`3`3`3`3.c`8.#.I`M`L.n`6.I`Z.O.v`4`3`3`3`3`3`3`3`3`3`3",
"`3`3`3`3`3`3`3`3`3`3`3`3`3`3`3`3`3`b`8.h.n.e.k.I`Z.I`w`q.n.N.K`3`3`3`3`3`3`3`3`3",
"`3`3`3`3`3`3`3`3`3`3`3`3`3`3`3`3`3`3`L.I`c`L.I.h.I`w`I`l.I`.`0`3`3`3`3`3`3`3`3`3",
"`3`3`3`3`3`3`3`3`3`3`3`3`3`3`3`3`3`3.N`#.O`J`6`6.I`7.I`Z.n`q`3`3`3`3`3`3`3`3`3`3",
"`3`3`3`3`3`3`3`3`3`3`3`3`3`3`3`3`3`3`3.G..`n`Z.I`i.n`6.n.J.N`3`3`3`3`3`3`3`3`3`3",
"`3`3`3`3`3`3`3`3`3`3`3`3`3`3`3`3`3`3`3`n.J.n`Z.h.I.n.h.I`4`3`3`3.r`3`3`3`3`3`3`3",
"`3`3`3`3`3`3`3`3`3`3`3`3`3`3`3`3`3`3`3`q`..l.n`T.n.I`6.C.O`3`3`3`3`3`3`3`3`3`3`3",
"`3`3`3`3`3`3`3`3`3`3`3`3`3`3`3`3`3`3`3`2`h.I.I.h.I.I.I`..O`s`3`3`3`3`3`3`3`3`3`3",
"`3`3`3`3`3`3`3`3`3`3`3`3`3`3`3`3`3`3.A....`#`n.E.h`6.v`L.O.G`3`3`3`3`3`3`3`3`3`3",
"`3`3`3`3`3`3`3`3`3`3`3`3`3`3`3`3`3.F`N.I`8`I`L`f`f`w.O`q`..#`q`3`3`3`3`3`3`3`3`3",
"`3`3`3`3`3`3`3`3`3`3`3`3`3`3`3`3`3`3.P`q`Z.n.n.v`n`f.I`Z`8.P`K`3`3`3`3`3`3`3`3`3",
"`3`3`3`3`3`3`3`3`3`3`3`3`3`3`3`3`3`3`e.O`4`q`n.h.h`f`n`#`q`2`3`3`3`3`3`3`3`3`3`3",
"`3`3`3`3`3`3`3`3`3`3`3`3`3`3`3`3`3`3`3.O.O`q.G`c`M.k.O`q...A`3`3`3`3`3`3`3`3`3`3",
"`3`3`3`3`3`3`3`3`3`3`3`3`3`3`3`3`3`3`3`8.#.I`c`c.k`u.I.h`4`3`3`3`3`3`3`3`3`3`3`3",
"`3`3`3`3`3`3`3`3`3`3`3`3`3`3`3`3`3`3`3`Q.y.h.h.n.j`i.h.#`v`3`3`3`3`3`3`3`3`3`3`3",
"`3`3`3`3`3`3`3`3`3`3`3`3`3`3`3`3`3`3`3`3`L`T`T.Q.n.``6`f`C`3`3`3`3`3`3`3`3`3`3`3",
"`3`3`3`3`3`3`3`3`3`3`3`3`3`3`3`3`3`3`3`s`L.Q.n.`.n.j.j.h`#`3`3`3`3`3`3`3`3`3`3`3",
"`3`3`3`3`3`3`3`3`3`3`3`3`3`3`3`3`3`3`3`3`L`6.I.j.`.j`i.h`q`3`3`3`3`3`3`3`3`3`3`3",
"`3`3`3`3`3`3`3`3`3`3`3`3`3`3`3`3`3`3`3`s`q`6.n.j.n`i.j.h`4`3`3`3`3`3`3`3`3`3`3`3",
"`3`3`3`3`3`3`3`3`3`3`3`3`3`3`3`3`3`3`3`n`f.h.n`i`i.`.n`6`4`3`3`3`3`3`3`3`3`3`3`3",
"`3`3`3`3`3`3`3`3`3`3`3`3`3`3`3`3`3`3`3.J`c.I.`.j.j`i.n`6.p`s`3`3`3`3`3`3`3`3`3`3",
"`3`3`3`3`3`3`3`3`3`3`3`3`3`3`3`3`3`3`3`q`J.I.n`H`i.n.`.h`v`K`3`3`3`3`3`3`3`3`3`3",
"`3`3`3`3`3`3`3`3`3`3`3`3`3`3`3`3`3`3`3.p.h.n`H.n.``7.n.h.I`4`3`3`3`3`3`3`3`3`3`3",
"`3`3`3`3`3`3`3`3`3`3`3`3`3`3`3`3`3`3.K.G.I.I.j.n.j.n.j.I.h`4`3`3`3`3`3`3`3`3`3`3",
"`3`3`3`3`3`3`3`3`3`3`3`3`3`3`3`3`3`3`8`c.I`Z.R.j.j.j`i.I.#`4`3`3`3`3`3`3`3`3`3`3",
"`3`3`3`3`3`3`3`3`3`3`3`3`3`3`3`3`3`3`K.h`O`T.I.I.j.`.I.h.n`8.A`3`3`3`3`3`3`3`3`3",
"`3`3`3`3`3`3`3`3`3`3`3`3`3`3`3`3`3`3`Y`n.n.h.`.`.`.I.I.h.I.N`s`3`3`3`3`3`3`3`3`3",
"`3`3`3`3`3`3`3`3`3`3`3`3`3`3`3`3`3`3`3`W.h.I`i`H`7.j.``l.I`4`3`3`3`3`3`3`3`3`3`3",
"`3`3`3`3`3`3`3`3`3`3`3`3`3`3`3`3`3`3.P.O`#.h.I.I.n`Z.h.E`L`q`r`3`3`3`3`3`3`3`3`3",
"`3`3`3`3`3`3`3`3`3`3`3`3`3`3`3`3`3`3`0.#`#.O`L`u.h.h.k.z`I`.`K`3`3`3`3`3`3`3`3`3",
"`3`3`3`3`3`3`3`3`3`3`3`3`3`3`3`3`3`3`q`C.I.h`w.e`I.O`w.I.n`P.G`3`3`3`3`3`3`3`3`3",
"`3`3`3`3`3`3`3`3`3`3`3`3`3`3`3`3`3.K.G.O`w.E`u.n.h.h.h`n`w..`4`3`3`3`3`3`3`3`3`3",
"`3`3`3`3`3`3`3`3`3`3`3`3`3`3`3`3`3`U.P`4.O`L`f.I`S.h.k.O`q.h`n`8`3`3`3`3`3`3`3`3",
"`3`3`3`3`3`3`3`3`3`3`3`3`3`3`3`3`3.G.h`#.O.b`w`L``.O`I.s`n`q`4.N`3`3`3`3`3`3`3`3",
"`3`3`3`3`3`3`3`3`3`3`3`3`3`3`3`3`3`8`n.I.e`M.h.I.n.I`w`I.e`..h.J`3`3`3`3`3`3`3`3",
"`3`3`3`3`3`3`3`3`3`3`3`3`3`3`3`3`3`v`n`Z.n`w`#.k`w`M.m.I`l.h.#`8`3`3`3`3`3`3`3`3",
"`3`3`3`3`3`3`3`3`3`3`3`3`3`3`3`3`3`v`.`J.n`6`L.O`M`7`z.I.h.h.h`8`3`3`3`3`3`3`3`3",
"`3`3`3`3`3`3`3`3`3`3`3`3`3`3`3`3`3`8.#`..I.n`L.O.h.I`Z.h`Z.h.h.i`3`3`3`3`3`3`3`3",
"`3`3`3`3`3`3`3`3`3`3`3`3`3`3`3`3`3`8`S.h.h.h.v.k.n`6.I.h.h.h`Z.o`3`3`3`3`3`3`3`3",
"`3`3`3`3`3`3`3`3`3`3`3`3`3`3`3`3`3`#`c`Z.h.h`f.H.h`6.I.I`Z.h.h`v`3`3`3`3`3`3`3`3",
"`3`3`3`3`3`3`3`3`3`3`3`3`3`3`3`3`3`q`n`T.h.I`f`w.h.n`6`Z.h.h`.`8`3`3`3`3`3`3`3`3",
"`3`3`3`3`3`3`3`3`3`3`3`3`3`3`3`3`3`0`n.n.n.n`f`w.n`i.n.`.h.h`J.J`s`3`3`3`3`3`3`3",
"`3`3`3`3`3`3`3`3`3`3`3`3`3`3`3`3`3`v`n.n.`.``f`w.n.`.`.n.h.h.h.J`s`3`3`3`3`3`3`3",
"`3`3`3`3`3`3`3`3`3`3`3`3`3`3`3`3`3.D`n.n.n.n`f`w.n.j.n.`.h.h`J.o`s`3`3`3`3`3`3`3",
"`3`3`3`3`3`3`3`3`3`3`3`3`3`3`3`3`3`8`n.n.`.``f`w.``i.n.`.h.h`..J`s`3`3`3`3`3`3`3",
"`3`3`3`3`3`3`3`3`3`3`3`3`3`3`3`3`3.i`n.n.n.n`f`w.n.j.n.n.h.h.h.D`s`3`3`3`3`3`3`3",
"`3`3`3`3`3`3`3`3`3`3`3`3`3`3`3`3`3`0`n.n.n.n`f`w.n.j.n.`.h.h`J.i`s`3`3`3`3`3`3`3",
"`3`3`3`3`3`3`3`3`3`3`3`3`3`3`3`3`3`8`n.n.n.``f`w.n`i.n.``Z.h`..J`s`3`3`3`3`3`3`3",
"`3`3`3`3`3`3`3`3`3`3`3`3`3`3`3`3`3.o`n.n.`.n`f`w.n.j.n.n.h.h.h.J`s`3`3`3`3`3`3`3",
"`3`3`3`3`3`3`3`3`3`3`3`3`3`3`3`3`3`8`n.`.n.n`f`w.n`i.n.n.h`Z`J.J`s`3`3`3`3`3`3`3",
"`3`3`3`3`3`3`3`3`3`3`3`3`3`3`3`3`3.i`n.n.`.n`f`w.n`H.n.`.h`Z.h.J`s`3`3`3`3`3`3`3",
"`3`3`3`3`3`3`3`3`3`3`3`3`3`3`3`3`3.o`c.n.n.h.k`w.h`H.`.n.h.h.h.J`3`3`3`3`3`3`3`3",
"`3`3`3`3`3`3`3`3`3`3`3`3`3`3`3`3`3.i`c.n.n.h`M`w.h.j.`.``Z.h.h.J`3`3`3`3`3`3`3`3",
"`3`3`3`3`3`3`3`3`3`3`3`3`3`3`3`3`3`v`c.n.I`Z`M`w.h.j.n.`.h`Z.h.i`3`3`3`3`3`3`3`3",
"`3`3`3`3`3`3`3`3`3`3`3`3`3`3`3`3`3`q`n.n.I.h.k`w.I.j.n.n.h.h.h.i`3`3`3`3`3`3`3`3",
"`3`3`3`3`3`3`3`3`3`3`3`3`3`3`3`3`3`0`n.h.n.h`M`w.I`i.n.n.h.I`Z`8`3`3`3`3`3`3`3`3",
"`3`3`3`3`3`3`3`3`3`3`3`3`3`3`3`3`3`0.d.h.I.h`f`w.`.j.n.n.h.I.h`v`3`3`3`3`3`3`3`3",
"`3`3`3`3`3`3`3`3`3`3`3`3`3`3`3`3`3.N`8.I`J.I`w`w.I`u.n`y`6.I.I`q`3`3`3`3`3`3`3`3",
"`3`3`3`3`3`3`3`3`3`3`3`3`3`3`3`3`3`q.n.#.I`J`n`M.n.n.`.j.h.n.h`q`3`3`3`3`3`3`3`3",
"`3`3`3`3`3`3`r`3`3`3`3`3`3`3`3`3`3.N`8.n.h.I`f`w.`.n.n.n.I.I`.`v`3`3`3`3`3`3`3`3",
"`3`3`3`3`3`3`3`3`3`3`3`3`3`3`3`3`3`3.A`L.#.I.d.a.I.I.w.I.n.J`#`r`3`3`3`3`3`3`3`3",
"`3`3`3`3`3`3`3`3`3`3`3`3`3`3`3`3`3`3`3`Q.O.h`f`w.I.j.I`w`L`r`3`3`3`3`3`3`3`3`3`3",
"`3`3`3`3`3`3`3`3`3`3`3`3`3`3`3`3`3`3`3`3.K.O.y.E.h`f`L`f.B`3`3`3`3`3`3`3`3`3`3`3",
"`3`3`3`3`3`3`3`3`3`3`3`3`3`3`3`3`3`3`3`3`3`3`K`K`b`3`3`3`3`3`3`3`3`3`3`3`3`3`3`3",
"`3`3`3`3`3`3`3`3`3`3`3`3`3`3`3`3`3`3`3`3`3`3`3`3`3`3`3`3`3`3`3`3`3`3`3`3`3`3`3`3"
};
