/* XPM */
static char *DVY_FlatTile_1x6_xpm[] = {
/* width height num_colors chars_per_pixel */
"   100   100       16            1",
/* colors */
"` c #680000",
". c #c38e8e",
"# c #994e4f",
"a c #990000",
"b c #ffd0d1",
"c c #972f31",
"d c #d5acad",
"e c #bd5153",
"f c #7e2c2d",
"g c #ffffff",
"h c #c17272",
"i c #a86868",
"j c #dc9494",
"k c #ffb3b4",
"l c #b13437",
"m c #7c0000",
/* pixels */
"gggggggggggggggggggggggggggggggggggggggggggggggggggggggggggggggggggggggggggggggggggggggggggggggggggg",
"gggggggggggggggggggggggggggggggggggggggggggggggggggggggggggggggggggggggggggggggggggggggggggggggggggg",
"gggggggggggggggggggggggggggggggggggggggggggggggggggggggggggggggggggggggggggggggggggggggggggggggggggg",
"gggggggggggggggggggggggggggggggggggggggggggggggggggggggggggggggggggggggggggggggggggggggggggggggggggg",
"gggggggggggggggggggggggggggggggggggggggggggggggggggggggggggggggggggggggggggggggggggggggggggggggggggg",
"gggggggggggggggggggggggggggggggggggggggggggggggggggggggggggggggggggggggggggggggggggggggggggggggggggg",
"gggggggggggggggggggggggggggggggggggggggggggggggggggggggggggggggggggggggggggggggggggggggggggggggggggg",
"gggggggggggggggggggggggggggggggggggggggggggggggggggggggggggggggggggggggggggggggggggggggggggggggggggg",
"gggggggggggggggggggggggggggggggggggggggggggggggggggggggggggggggggggggggggggggggggggggggggggggggggggg",
"gggggggggggggggggggggggggggggggggggggggggggggggggggggggggggggggggggggggggggggggggggggggggggggggggggg",
"gggggggggggggggggggggggggggggggggggggggggggggggggggggggggggggggggggggggggggggggggggggggggggggggggggg",
"gggggggggggggggggggggggggggggggggggggggggggggggggggggggggggggggggggggggggggggggggggggggggggggggggggg",
"gggggggggggggggggggggggggggggggggggggggggggggggggggggggggggggggggggggggggggggggggggggggggggggggggggg",
"gggggggggggggggggggggggggggggggggggggggggggggggggggggggggggggggggggggggggggggggggggggggggggggggggggg",
"gggggggggggggggggggggggggggggggggggggggggggggggggggggggggggggggggggggggggggggggggggggggggggggggggggg",
"gggggggggggggggggggggggggggggggggggggggggggggggggggggggggggggggggggggggggggggggggggggggggggggggggggg",
"gggggggggggggggggggggggggggggggggggggggggggggggggggggggggggggggggggggggggggggggggggggggggggggggggggg",
"gggggggggggggggggggggggggggggggggggggggggggggggggggggggggggggggggggggggggggggggggggggggggggggggggggg",
"gggggggggggggggggggggggggggggggggggggggggggggggggggggggggggggggggggggggggggggggggggggggggggggggggggg",
"gggggggggggggggggggggggggggggggggggggggggggggggggggggggggggggggggggggggggggggggggggggggggggggggggggg",
"gggggggggggggggggggggggggggggggggggggggggggggggggggggggggggggggggggggggggggggggggggggggggggggggggggg",
"gggggggggggggggggggggggggggggggggggggggggggggggggggggggggggggggggggggggggggggggggggggggggggggggggggg",
"gggggggggggggggggggggggggggggggggggggggggggggggggggggggggggggggggggggggggggggggggggggggggggggggggggg",
"gggggggggggggggggggggggggggggggggggggggggggggggggggggggggggggggggggggggggggggggggggggggggggggggggggg",
"gggggggggggggggggggggggggggggggggggggggggggggggggggggggggggggggggggggggggggggggggggggggggggggggggggg",
"gggggggggggggggggggggggggggggggggggggggggggggggggggggggggggggggggggggggggggggggggggggggggggggggggggg",
"gggggggggggggggggggggggggggggggggggggggggggggggggggggggggggggggggggggggggggggggggggggggggggggggggggg",
"gggggggggggggggggggggggggggggggggggggggggggggggggggggggggggggggggggggggggggggggggggggggggggggggggggg",
"ggggggggggggggggggggggggggggggggggggggggggggggggggggggggggggggggggggggggggggbdbbbggggggggggggggggggg",
"gggggggggggggggggggggggggggggggggggggggggggggggggggggggggggggggggggggggggggbd..dbggggggggggggggggggg",
"ggggggggggggggggggggggggggggggggggggggggggggggggggggggggggggggggggggggbbbd.hi###.dbggggggggggggggggg",
"ggggggggggggggggggggggggggggggggggggggggggggggggggggggggggggggggggggggbk.#f`````cidggggggggggggggggg",
"ggggggggggggggggggggggggggggggggggggggggggggggggggggggggggggggggggbbd.hi#ff`````fci.dggggggggggggggg",
"gggggggggggggggggggggggggggggggggggggggggggggggggggggggggggggggggbkjiff````mmmmmmmff.bgggggggggggggg",
"gggggggggggggggggggggggggggggggggggggggggggggggggggggggggggggbbdj.i#cfm``mmmmmmmmmmf#.dggggggggggggg",
"ggggggggggggggggggggggggggggggggggggggggggggggggggggggggggggbbdh#f```mmmmmmmmmmmmmmmmf.ggggggggggggg",
"ggggggggggggggggggggggggggggggggggggggggggggggggggggggggbbdd.i#cfm``mmmmmmmmmmmaaaaaff.ggggggggggggg",
"ggggggggggggggggggggggggggggggggggggggggggggggggggggggggbd.#f````mmmmmmmmmmmmmmaaaaaaf.ggggggggggggg",
"ggggggggggggggggggggggggggggggggggggggggggggggggggggbbd.hi#ff```mmmmmmmmmmmmaaaaaaaac#jggggggggggggg",
"gggggggggggggggggggggggggggggggggggggggggggggggggggbd.#f```mmmmmmmmmmmmmaaaaaaaaaaafcidggggggggggggg",
"gggggggggggggggggggggggggggggggggggggggggggggggbbd.hi#ffm`mmmmmmmmmmaaaaaaaaaaaalleh.dbggggggggggggg",
"ggggggggggggggggggggggggggggggggggggggggggggggbk.if````mmmmmmmmmmmaaaaaaaaaaaaacehjbbggggggggggggggg",
"ggggggggggggggggggggggggggggggggggggggggggbbd.hi#cf````mmmmmmmmmaaaaaaaaaaccleh.jdbbgggggggggggggggg",
"ggggggggggggggggggggggggggggggggggggggggggbjicf```mmmmmmmmmmmmmaaaaaaaaaaacchjkbgggggggggggggggggggg",
"ggggggggggggggggggggggggggggggggggggggbd..i#cfmmmmmmmmmmmmmmmaaaaaaaaacleeh.dbbggggggggggggggggggggg",
"ggggggggggggggggggggggggggggggggggggbbdh#f```mmmmmmmmmmmmmmaaaaaaaaaaalehkbbgggggggggggggggggggggggg",
"ggggggggggggggggggggggggggggggggbbkd.h#cfm``mmmmmmmmmmaaaaaaaaaaaccleh.jkbbggggggggggggggggggggggggg",
"ggggggggggggggggggggggggggggggggbk.#f````mmmmmmmmmmmmaaaaaaaaaaccf#hjbbggggggggggggggggggggggggggggg",
"ggggggggggggggggggggggggggggbbd.h##ff```mmmmmmmmmmmaaaaaaaaaaclehhjdbbgggggggggggggggggggggggggggggg",
"ggggggggggggggggggggggggggggd.iff````mmmmmmmmmmmmaaaaaaaaaacccejkbbggggggggggggggggggggggggggggggggg",
"gggggggggggggggggggggggbbd.hi#cfm```mmmmmmmmmmaaaaaaaaaacleehjdkbggggggggggggggggggggggggggggggggggg",
"ggggggggggggggggggggggbbjhc```mmmmmmmmmmmmmaaaaaaaaaaacfcehdbggggggggggggggggggggggggggggggggggggggg",
"ggggggggggggggggggbbd..i#cfmmmmmmmmmmmmmmmaaaaaaaaaalleh.ddbbggggggggggggggggggggggggggggggggggggggg",
"ggggggggggggggggggbdi#f```mmmmmmmmmmmmmmmaaaaaaaaaaclhjbbggggggggggggggggggggggggggggggggggggggggggg",
"ggggggggggggggbdd.i##ff``mmmmmmmmmmmaaaaaaaaaacclehhjdbbgggggggggggggggggggggggggggggggggggggggggggg",
"ggggggggggggbbd.#f``mmmmmmmmmmmmmmaaaaaaaaaaacccijkbgggggggggggggggggggggggggggggggggggggggggggggggg",
"gggggggggbdd.hi#fmmmmmmmmmmmmmmaaaaaaaaaaacleeh.dbbggggggggggggggggggggggggggggggggggggggggggggggggg",
"ggggggggbd.if````mmmmmmmmmmammaaaaaaaaaaaalehkbggggggggggggggggggggggggggggggggggggggggggggggggggggg",
"gggggggbdi#ff``mmmmmmmmmmmaaaaaaaaaaaccleh.jkbbggggggggggggggggggggggggggggggggggggggggggggggggggggg",
"ggggggbbhf````mmmmmmmmmmmaaaaaaaaaaacc#hjbbggggggggggggggggggggggggggggggggggggggggggggggggggggggggg",
"ggggggbbh``mmmmmmmmmmmaaaaaaaaaaaclehhjdbbgggggggggggggggggggggggggggggggggggggggggggggggggggggggggg",
"gggggggbh`mmmmmmmammmmaaaaaaaaaaccejkbbggggggggggggggggggggggggggggggggggggggggggggggggggggggggggggg",
"gggggggb.ffmmmmmmaaaaaaaaaaaclehhjdkbggggggggggggggggggggggggggggggggggggggggggggggggggggggggggggggg",
"ggggggggj#cmaaaaaaaaaaaaaaafc#.kbbgggggggggggggggggggggggggggggggggggggggggggggggggggggggggggggggggg",
"ggggggggbjiccaaaaaaaaaaalleh.ddbbggggggggggggggggggggggggggggggggggggggggggggggggggggggggggggggggggg",
"ggggggggggdecmaaaaaaaaaclhjbbggggggggggggggggggggggggggggggggggggggggggggggggggggggggggggggggggggggg",
"ggggggggggbdh#cffccclehhjdbbbggggggggggggggggggggggggggggggggggggggggggggggggggggggggggggggggggggggg",
"ggggggggggggdh#fffccejkbgggggggggggggggggggggggggggggggggggggggggggggggggggggggggggggggggggggggggggg",
"ggggggggggggbd.iihh.dkbggggggggggggggggggggggggggggggggggggggggggggggggggggggggggggggggggggggggggggg",
"ggggggggggggggbjddbbgggggggggggggggggggggggggggggggggggggggggggggggggggggggggggggggggggggggggggggggg",
"ggggggggggggggbbbbbggggggggggggggggggggggggggggggggggggggggggggggggggggggggggggggggggggggggggggggggg",
"gggggggggggggggggggggggggggggggggggggggggggggggggggggggggggggggggggggggggggggggggggggggggggggggggggg",
"gggggggggggggggggggggggggggggggggggggggggggggggggggggggggggggggggggggggggggggggggggggggggggggggggggg",
"gggggggggggggggggggggggggggggggggggggggggggggggggggggggggggggggggggggggggggggggggggggggggggggggggggg",
"gggggggggggggggggggggggggggggggggggggggggggggggggggggggggggggggggggggggggggggggggggggggggggggggggggg",
"gggggggggggggggggggggggggggggggggggggggggggggggggggggggggggggggggggggggggggggggggggggggggggggggggggg",
"gggggggggggggggggggggggggggggggggggggggggggggggggggggggggggggggggggggggggggggggggggggggggggggggggggg",
"gggggggggggggggggggggggggggggggggggggggggggggggggggggggggggggggggggggggggggggggggggggggggggggggggggg",
"gggggggggggggggggggggggggggggggggggggggggggggggggggggggggggggggggggggggggggggggggggggggggggggggggggg",
"gggggggggggggggggggggggggggggggggggggggggggggggggggggggggggggggggggggggggggggggggggggggggggggggggggg",
"gggggggggggggggggggggggggggggggggggggggggggggggggggggggggggggggggggggggggggggggggggggggggggggggggggg",
"gggggggggggggggggggggggggggggggggggggggggggggggggggggggggggggggggggggggggggggggggggggggggggggggggggg",
"gggggggggggggggggggggggggggggggggggggggggggggggggggggggggggggggggggggggggggggggggggggggggggggggggggg",
"gggggggggggggggggggggggggggggggggggggggggggggggggggggggggggggggggggggggggggggggggggggggggggggggggggg",
"gggggggggggggggggggggggggggggggggggggggggggggggggggggggggggggggggggggggggggggggggggggggggggggggggggg",
"gggggggggggggggggggggggggggggggggggggggggggggggggggggggggggggggggggggggggggggggggggggggggggggggggggg",
"gggggggggggggggggggggggggggggggggggggggggggggggggggggggggggggggggggggggggggggggggggggggggggggggggggg",
"gggggggggggggggggggggggggggggggggggggggggggggggggggggggggggggggggggggggggggggggggggggggggggggggggggg",
"gggggggggggggggggggggggggggggggggggggggggggggggggggggggggggggggggggggggggggggggggggggggggggggggggggg",
"gggggggggggggggggggggggggggggggggggggggggggggggggggggggggggggggggggggggggggggggggggggggggggggggggggg",
"gggggggggggggggggggggggggggggggggggggggggggggggggggggggggggggggggggggggggggggggggggggggggggggggggggg",
"gggggggggggggggggggggggggggggggggggggggggggggggggggggggggggggggggggggggggggggggggggggggggggggggggggg",
"gggggggggggggggggggggggggggggggggggggggggggggggggggggggggggggggggggggggggggggggggggggggggggggggggggg",
"gggggggggggggggggggggggggggggggggggggggggggggggggggggggggggggggggggggggggggggggggggggggggggggggggggg",
"gggggggggggggggggggggggggggggggggggggggggggggggggggggggggggggggggggggggggggggggggggggggggggggggggggg",
"gggggggggggggggggggggggggggggggggggggggggggggggggggggggggggggggggggggggggggggggggggggggggggggggggggg",
"gggggggggggggggggggggggggggggggggggggggggggggggggggggggggggggggggggggggggggggggggggggggggggggggggggg",
"gggggggggggggggggggggggggggggggggggggggggggggggggggggggggggggggggggggggggggggggggggggggggggggggggggg",
"gggggggggggggggggggggggggggggggggggggggggggggggggggggggggggggggggggggggggggggggggggggggggggggggggggg",
"gggggggggggggggggggggggggggggggggggggggggggggggggggggggggggggggggggggggggggggggggggggggggggggggggggg"
};
