/* XPM */
static char *DVY_Lego_xpm[] = {
/* width height num_colors chars_per_pixel */
"    32    32      128            2",
/* colors */
"`` c #242228",
"`. c #448644",
"`# c #44c244",
"`a c #6c4a84",
"`b c #748e4c",
"`c c #5c0a94",
"`d c #7cca7c",
"`e c #44a244",
"`f c #44e244",
"`g c #441660",
"`h c #844ea4",
"`i c #5c2a7c",
"`j c #44b244",
"`k c #6c924c",
"`l c #449644",
"`m c #44d244",
"`n c #447a44",
"`o c #5c1a84",
"`p c #341a4b",
"`q c #8caa84",
"`r c #74de6c",
"`s c #5ca244",
"`t c #5cc64c",
"`u c #6ce664",
"`v c #540e84",
"`w c #448e44",
"`x c #8c8694",
"`y c #8c6aac",
"`z c #44ca44",
"`A c #5c168c",
"`B c #8cce84",
"`C c #44aa44",
"`D c #547a44",
"`E c #84968c",
"`F c #5c4274",
"`G c #2c1e38",
"`H c #541674",
"`I c #54b64c",
"`J c #449e44",
"`K c #448244",
"`L c #341e44",
"`M c #64f25c",
"`N c #548a44",
"`O c #74667c",
"`P c #74d65c",
"`Q c #44ba44",
"`R c #64da54",
"`S c #6c1a9c",
"`T c #3c1654",
"`U c #a47aac",
"`V c #743a9c",
"`W c #4c8844",
"`X c #54c244",
"`Y c #64527c",
"`Z c #640a9c",
"`0 c #4ca444",
"`1 c #4cf244",
"`2 c #4c126f",
"`3 c #7c5a9c",
"`4 c #4cb344",
"`5 c #4c9844",
"`6 c #54d244",
"`7 c #4c7d44",
"`8 c #74ea61",
".` c #54ae4c",
".. c #847e94",
".# c #8cbe8c",
".a c #742aa4",
".b c #949a9c",
".c c #6c3e8c",
".d c #54ee4c",
".e c #5c9e44",
".f c #8cd67c",
".g c #84da7c",
".h c #948aa4",
".i c #8442ac",
".j c #642694",
".k c #6c229c",
".l c #6c169c",
".m c #54ca48",
".n c #9cda7c",
".o c #94b294",
".p c #64ee59",
".q c #848e8c",
".r c #54fa4c",
".s c #44da44",
".t c #64139c",
".u c #849e84",
".v c #7c629c",
".w c #8c7ea4",
".x c #64466c",
".y c #4cc244",
".z c #540e8c",
".A c #4c9144",
".B c #4cac44",
".C c #74269c",
".D c #2c222c",
".E c #7cd664",
".F c #6c5278",
".G c #5cae44",
".H c #9c9aa4",
".I c #6cee5c",
".J c #8c8e94",
".K c #4cd244",
".L c #64c64c",
".M c #946aac",
".N c #5c7a44",
".O c #4c9e44",
".P c #4c8244",
".Q c #5c0e8c",
".R c #74e264",
".S c #5ca64c",
".T c #54127d",
".U c #2c2234",
".V c #64f654",
".W c #3c1a4d",
".X c #7c5ea4",
".Y c #448a44",
".Z c #44c644",
".0 c #7cce7c",
".1 c #44a644",
".2 c #44b644",
".3 c #449a44",
".4 c #447e44",
".5 c #449244",
".6 c #44ce44",
".7 c #44ae44",
".8 c #541a74",
/* pixels */
"````````````````````````````````````````````````````````````````",
"````````````````````````````````````````````````````````````````",
".U.U.D.D.D.U.D.U.U.U.D.D.D.D.D.D.D.D.D.D.D.D.D.D.D.U.D.D.U.D.D.D",
"`G`G`G`G`G`G`G`G`G`G`G`G`G`G`G`G`G`G`G`G`G`G`G`G`G`G`G`G`G`G`G`G",
"`G`G`G`G`G`G`G`G`G`G`G`G`G`G`G`G`G`G`G`G`G`G`G`G`G`G`G`G`G`G`G`G",
"`L`L`L`L`L`L`L`L`L`L`L`L`L`L`L`L`L`L`L`L`L`L`L`L`L`L`L`L`L`L`L`L",
"`p`p`p`p`p`p`p`p`p`p`p`p`p`p`p`p`p`p`p`p`p`p`p`p`p`p`p`p`p`p`p`p",
".W.W.W.W.W.W.W.W.W.W.W.W.W.W.W.W.W.W.W.W.W.x.F.W.W.W.W.W.W.W.W.W",
"`T`T`T`T`T`T`T.W`T`T`T`T`T`T`T`T`T.W`T`O.E`k`b`q`T`T`T`T`T`T`T.W",
"`g`g`g`g`g`g`g`g`g`g`g`g`g`g`g`g`F.u.p.A`W`0.A`7`u`g`g`g`g`g`g`g",
"`g`g`g`g`g`g`g`g`g`g`g`g`g`g.F.R`4.5`n`n`e.s.2`.`n.d`Y`g`g`g`g`g",
"`2`2`2`2`2`2`2`2`2`2`2`a`E.I.3.4`J`e.Y`7.P`N`W.P`l`.`Q.q`2`2`2`2",
"`2`2`2`2`2`2`2`2`2`i`d.y`l`n`K.5`m.6.Y`7`7`7`D.N.e`4.5`w.0.8`2`H",
".T.T.T.T.T.T.c`x`8.7`K.5.1.5.4.4`.`.`K.5`J`..4`D.G`X.A.Y.5.J.T.T",
"`v`v.T`v`o.o.m.3`n`n`.`z.s.3`K`..4.4`.`e`Q`e`K`..Y`l`J.1`e.J`v`v",
".z`v`v.h`I`.`w.1`l`K`K`w.5`..A.A`W.4`K`j.s.1.Y`l`J.1.1.1.1..`v`A",
".Q.Q.Q.I.Y`l.Z`f`J.4`.`K`.`7.A.B.1`.`n.4.Y.3.1.1.1.1.1.1`J`3.Q.j",
"`c`c`c.V`w`l`w`w`..Y.3.Y`K`K`J`f.2`w`l`J.1.1`C.1`C.1.1.1`e.v`c`c",
"`c`c`c`M`w.3.5`.`K`l`C.1`.`K`..5`J`e.1.1.1.1.1`C.1.1`J.5.K`V`c`c",
"`Z`Z`Z.p.5.3`l.A`W`e`f`#.Y`w`J.1.1.1.1`0.1.1.1`e`5`5`6`B`h.t`Z`Z",
"`Z`Z`Z`8.Y`l.5.A`l`w.5.3`e.1.1.1.1`0`0`e.1`e`5`s`P.H`S`Z`Z`Z`Z`Z",
"`Z`Z`Z`y.`.Y`l`l`l.3`e`C.1.1.1`e`0`0.1.3.A.S.f`U.t`Z`Z`Z`Z`Z`Z`Z",
"`Z`Z.l`Z.M.L`W`l.5`J.1.1`C.1.1`0`0.3`J`t.n.i`Z`Z`Z`Z`Z`Z`Z`Z`Z`Z",
"`Z`Z`Z`Z`Z`h`R.5.3.3`0.1`C.1.O.O`J`1.#.a`Z`Z`Z`Z`Z`Z`Z`Z`Z`Z`Z`Z",
"`Z`Z`Z`Z`Z`Z.C.p.Y`J`0.B`5`5`4.r.b.k`Z`Z.t`Z`Z`Z`Z`Z`Z`Z`Z`Z`Z`Z",
"`Z`Z`Z`Z`Z`Z`Z.t.I.5.3.A.m`8.w`Z`Z`Z`Z`Z`Z`Z`Z`Z`Z`Z`Z`Z`Z`Z`Z`Z",
"`Z`Z`Z`Z`Z`Z`Z`Z.t`r`f.g.X`Z`Z`Z`Z`Z`Z`Z`Z`Z`Z`Z`Z`Z`Z`Z`Z`Z`Z`Z",
"`Z`Z`Z`Z`Z`Z`Z`Z`Z`Z`Z`Z`Z`Z`Z`Z`Z`Z`Z`Z`Z`Z`Z`Z`Z`Z`Z`Z`Z`Z`Z`Z",
"`Z`Z`Z`Z`Z`Z`Z`Z`Z`Z`Z`Z`Z`Z`Z`Z`Z`Z`Z`Z`Z`Z`Z`Z`Z`Z`Z`Z`Z`Z`Z`Z",
"`Z.t`Z`Z`Z`Z`Z`Z`Z`Z`Z`Z`Z`Z`Z`Z`Z`Z`Z`Z`Z`Z`Z`Z`Z`Z`Z`Z`Z`Z`Z`Z",
"`Z`Z`Z`Z`Z`Z`Z`Z`Z`Z`Z`Z`Z`Z`Z`Z`Z`Z`Z`Z`Z`Z`Z`Z`Z`Z`Z`Z`Z`Z`Z`Z",
"`Z`Z`Z`Z`Z`Z`Z`Z`Z`Z`Z`Z`Z`Z`Z`Z`Z`Z`Z`Z`Z`Z`Z`Z`Z`Z`Z`Z`Z`Z`Z`Z"
};
