/* XPM */
static char *DVY_RoofTile_2x4xRightAngle_xpm[] = {
/* width height num_colors chars_per_pixel */
"   100   100       16            1",
/* colors */
"` c #6e0000",
". c #c68e8c",
"# c #9c4e4d",
"a c #ad0000",
"b c #ffd1cf",
"c c #a8302f",
"d c #8a2f2e",
"e c #ac6f6d",
"f c #d6acaa",
"g c #ffffff",
"h c #d99492",
"i c #c5706f",
"j c #b85252",
"k c #ce2827",
"l c #8b0000",
"m c #ffb3b1",
/* pixels */
"gggggggggggggggggggggggggggggggggggggggggggggggggggggggggggggggggggggggggggggggggggggggggggggggggggg",
"gggggggggggggggggggggggggggggggggggggggggggggggggggggggggggggggggggggggggggggggggggggggggggggggggggg",
"gggggggggggggggggggggggggggggggggggggggggggggggggggggggggggggggggggggggggggggggggggggggggggggggggggg",
"gggggggggggggggggggggggggggggggggggggggggggggggggggggggggggggggggggggggggggggggggggggggggggggggggggg",
"gggggggggggggggggggggggggggggggggggggggggggggggggggggggggggggggggggggggggggggggggggggggggggggggggggg",
"gggggggggggggggggggggggggggggggggggggggggggggggggggggggggggggggggggggggggggggggggggggggggggggggggggg",
"gggggggggggggggggggggggggggggggggggggggggggggggggggggggggggggggggggggggggggggggggggggggggggggggggggg",
"gggggggggggggggggggggggggggggggggggggggggggggggggggggggggggggggggggggggggggggggggggggggggggggggggggg",
"gggggggggggggggggggggggggggggggggggggggggggggggggggggggggggggggggggggggggggggggggggggggggggggggggggg",
"gggggggggggggggggggggggggggggggggggggggggggggggggggggggggggggggggggggggggggggggggggggggggggggggggggg",
"gggggggggggggggggggggggggggggggggggggggggggggggggggggggggggggggggggggggggggggggggggggggggggggggggggg",
"gggggggggggggggggggggggggggggggggggggggggggggggggggggggggggggggggggggggggggggggggggggggggggggggggggg",
"gggggggggggggggggggggggggggggggggggggggggggggggggggggggggggggggggggggggggggggggggggggggggggggggggggg",
"gggggggggggggggggggggggggggggggggggggggggggggggggggggggggggggggggggggggggggggggggggggggggggggggggggg",
"gggggggggggggggggggggggggggggggggggggggggggggggggggggggggggggggggggggggggggggggggggggggggggggggggggg",
"gggggggggggggggggggggggggggggggggggggggggggggggggggggggggggggggggggggggggggggggggggggggggggggggggggg",
"gggggggggggggggggggggggggggggggggggggggggggggggggggggggggggggggggggggggggggggggggggggggggggggggggggg",
"gggggggggggggggggggggggggggggggggggggggggggggggggggggggggggggggggggggggggggggggggggggggggggggggggggg",
"gggggggggggggggggggggggggggggggggggggggggggggggggggggggggggggggggggggggggggggggggggggggggggggggggggg",
"gggggggggggggggggggggggggggggggggggggggggggggggggggggggggggggggggggggggggggggggggggggggggggggggggggg",
"gggggggggggggggggggggggggggggggggggggggggggggggggggggggggggggggggggggggggggggggggggggggggggggggggggg",
"gggggggggggggggggggggggggggggggggggggggggggggggggggggggggggggggggggggggggggggggggggggggggggggggggggg",
"gggggggggggggggggggggggggggggggggggggggggggggggggggggggggggggggggggggggggggggggggggggggggggggggggggg",
"gggggggggggggggggggggggggggggggggggggggggggggggggggggggggggggggggggggggggggggggggggggggggggggggggggg",
"gggggggggggggggggggggggggggggggggggggggggggggggggggggggggggggggggggggggggggggggggggggggggggggggggggg",
"gggggggggggggggggggggggggggggggggggggggggggggggggggggggggggggggggggggggggggggggggggggggggggggggggggg",
"gggggggggggggggggggggggggggggggggggggggggggggggggggggggggggggggggggggggggggggggggggggggggggggggggggg",
"gggggggggggggggggggggggggggggggggggggggggggggggggggggggggggggggggggggggggggggggggggggggggggggggggggg",
"gggggggggggggggggggggggggggggggggggggggggggggggggggggggggggggggggggggggggggggggggggggggggggggggggggg",
"gggggggggggggggggggggggggggggggggggggggggggggggggggggggggggggggggggggggggggggggggggggggggggggggggggg",
"gggggggggggggggggggggggggggggggggggggggggggggggggggggggggggggggggggggggggggggggggggggggggggggggggggg",
"gggggggggggggggggggggggggggggggggggggggggggggggggggggggggggggggggggggggggggggggggggggggggggggggggggg",
"gggggggggggggggggggggggggggggggggggggggggggggggggggggggggggggggggggggggggggggggggggggggggggggggggggg",
"gggggggggggggggggggggggggggggggggggggggggggggggggggggggggggggggggggggggggggggggggggggggggggggggggggg",
"ggggggggggggggggggggggggggggggggggggggggggggggggggggggggggggggggggggbbfffbbggggggggggggggggggggggggg",
"ggggggggggggggggggggggggggggggggggggggggggggggggggggggggggggggggggbbmhi#e.mggggggggggggggggggggggggg",
"ggggggggggggggggggggggggggggggggggggggggggggggggggggggggggggggggbmhiej#d##efbggggggggggggggggggggggg",
"ggggggggggggggggggggggggggggggggggggggggggggggggggggggggggggggggf.#ddd````d#fggggggggggggggggggggggg",
"gggggggggggggggggggggggggggggggggggggggggggggggggggggggggggbbf.ee#d`lllll`dde.fbgggggggggggggggggggg",
"ggggggggggggggggggggggggggggggggggggggggggggggggggggggggggbbhed`````lllaall`dd.bbggggggggggggggggggg",
"gggggggggggggggggggggggggggggggggggggggggggggggggggggggbff.ijdd```lllaaaaall`d#efbbggggggggggggggggg",
"ggggggggggggggggggggggggggggggggggggggggggggggggggggggbm.#d`````lllaaaakaaal````embggggggggggggggggg",
"ggggggggggggggggggggggggggggggggggggggggggggggggggbbfhii#cdllllllllaakkkkaall```djhbbggggggggggggggg",
"ggggggggggggggggggggggggggggggggggggggggggggggggggbfidd`llllllllllaakkkkkaalllll``jfbggggggggggggggg",
"gggggggggggggggggggggggggggggggggggggggggggggggbf.ej#dlllaaalllllllaakkkkaaalllalljhbggggggggggggggg",
"ggggggggggggggggggggggggggggggggggggggggggggggbfed```llaaaaaaaalllllakkkaaaaaaaaaajhbggggggggggggggg",
"ggggggggggggggggggggggggggggggggggggggggggggbf.#dd``llaaaaaaaaaaaallaaaaaaaaaaaaaajhbggggggggggggggg",
"ggggggggggggggggggggggggggggggggggggggggggggfed```llaaaaaaaaaaaaaaalllllaaaaaaaaaajhbggggggggggggggg",
"ggggggggggggggggggggggggggggggggggggggggggb.edd``llaaaaaaaaaaaaaaaaaalaaaaaaaaaaaajhbggggggggggggggg",
"gggggggggggggggggggggggggggggggggggggggggg.#d``lllaaaaaaaaaaaaaaaaaaaaaaaaaaaaaaaajfbggggggggggggggg",
"ggggggggggggggggggggggggggggggggggggggggf.#d``lllaaaaaaaaaaaaaaaaaaaaaaaaaaaaaaaaajfbggggggggggggggg",
"gggggggggggggggggggggggggggggggggggggggb.dd`llaaaaaaaaaaaaaaaaaaaaaaaaaaaaaaaaaaalimbggggggggggggggg",
"gggggggggggggggggggggggggggggggggggggbfe#d`llaaaaaaaaaaaaaaaaaaaaaaaaaaaaaaaaaaaalifbggggggggggggggg",
"ggggggggggggggggggggggggggggggggggggbfe```laaaaaaaaaaaaaaaaaaaaaaaaaaaaaaaaaaaaaalifbggggggggggggggg",
"ggggggggggggggggggggggggggggggggggbf.#d``llaaaaaaaaaaaaaaaaaaaaaaaaaaaaaaaaaaaaaalifbggggggggggggggg",
"ggggggggggggggggggggggggggggggggggf.#``lllaaaaaaaaaaaaaaaaaaaaaaaaaaaaaaaaaaaaaaacimbggggggggggggggg",
"ggggggggggggggggggggggggggggggggbfe#d``llaaaaaaaaaaaaaaaaaaaaaaaaaaaaaaaaaaaaaaaalibbggggggggggggggg",
"ggggggggggggggggggggggggggggggggfed``lllaaaaaaaaaaaaaaaaaaaaaaaaaaaaaaaaaaaaaaaaalibbggggggggggggggg",
"ggggggggggggggggggggggggggggggbhedd`llllaaaaaaaaaaaaaaaaaaaaaaaaaaaaaaaaaaaaaaaaalibbggggggggggggggg",
"gggggggggggggggggggggggggggggb.#d`llllaaaaaaaaaaaaaaaaaaaaaaaaaaaaaaaaaaaaaaaaaaaaibbggggggggggggggg",
"gggggggggggggggggggggggggggbf.#dlllllaaaaaaaaaaaaaaaaaaaaaaaaaaaaaaaaaaaaaaaaaaacjhbgggggggggggggggg",
"ggggggggggggggggggggggggggbbeddlllaaaaaaaaaaaaaaaaaaaaaaaaaaaaaaaaaaaaaaaaaaaaacjimggggggggggggggggg",
"ggggggggggggggggggggggggbbhe#dlllaaaaaaaaaaaaaaaaaaaaaaaaaaaaaaaaaaaaaaaaaaccji.hmbggggggggggggggggg",
"ggggggggggggggggggggggggbh#``llaaaaaaaaaaaaaaaaaaaaaaaaaaaaaaaaaaaaaaaaaaldcihmbgggggggggggggggggggg",
"ggggggggggggggggggggggbfi#dllllaaaaaaaaaaaaaaaaaaaaaaaaaaaaaaaaaaaaaaaccjji.fbbggggggggggggggggggggg",
"ggggggggggggggggggggggfed`llaaaaaaaaaaaaaaaaaaaaaaaaaaaaaaaaaaaaaaaaaacjimbggggggggggggggggggggggggg",
"ggggggggggggggggggggbheddlllaaaaaaaaaaaaaaaaaaaaaaaaaaaaaaaaaaaaaaccji.hmbbggggggggggggggggggggggggg",
"gggggggggggggggggggbh#dllllaaaaaaaaaaaaaaaaaakaaaaaaaaaaaaaaaaaacd#ihbbggggggggggggggggggggggggggggg",
"gggggggggggggggggbf.jddllaaaaaaaaaaaaaaaaaaaaaaaaaaaaaaaaaaaaacjiihfbbgggggggggggggggggggggggggggggg",
"ggggggggggggggggbb.dd`laaaaaaaaaaaaaaaaaaaaaaaaaaaaaaaaaaaaaccjifbbggggggggggggggggggggggggggggggggg",
"ggggggggggggggbbfi#dllllaaaaaaaaaaaaaaaaaaaaaaaaaaaaaaaacccji.fmbbgggggggggggggggggggggggggggggggggg",
"ggggggggggggggbmidlllallaaaaaaaaaaaaaaaaaaaaaaaaaaaaaaadc#ihbggggggggggggggggggggggggggggggggggggggg",
"ggggggggggggbf.jcllllaaaaaaaaaaaaaaaaaaaaaaaaaaaaaaaccjiihfbbggggggggggggggggggggggggggggggggggggggg",
"ggggggggggggm.#`lllaaaaaaaaaaaaaaaaaaaaaaaaaaaaaaaaccjhmbggggggggggggggggggggggggggggggggggggggggggg",
"gggggggggggbh#dlllaaaaaaaaaaaaaaaaaaaaaaaaaaaaaccjji.fmbbggggggggggggggggggggggggggggggggggggggggggg",
"gggggggggggbidlllaaaaaaaaaaaaaaaaaaaaaaaaaaaaacd#ifbbggggggggggggggggggggggggggggggggggggggggggggggg",
"gggggggggggbidlllaaaaaaaaaaaaaaaaaaaaaaaaaaccji.hfbbgggggggggggggggggggggggggggggggggggggggggggggggg",
"gggggggggggbidllaaaaaaaaaaaaaaaaaaaaaaaaalccjhmbgggggggggggggggggggggggggggggggggggggggggggggggggggg",
"gggggggggggbficllaaaaaaaaaaaaaaaaaaaaaccjjihfmbggggggggggggggggggggggggggggggggggggggggggggggggggggg",
"ggggggggggggbmidllaaaaaaaaaaaaaaaaaallc#imbggggggggggggggggggggggggggggggggggggggggggggggggggggggggg",
"ggggggggggggbbfi#dlaaaaaaaaaaaaaaaccji.hfbbggggggggggggggggggggggggggggggggggggggggggggggggggggggggg",
"ggggggggggggggbbiddlaaaaaaakaaaaadcihbbggggggggggggggggggggggggggggggggggggggggggggggggggggggggggggg",
"gggggggggggggggbf.jdlaaaaaaaaacjiihfmbbggggggggggggggggggggggggggggggggggggggggggggggggggggggggggggg",
"gggggggggggggggggb.ddlaaaaalddj.mbbggggggggggggggggggggggggggggggggggggggggggggggggggggggggggggggggg",
"ggggggggggggggggggf.jdcccccji.fmbggggggggggggggggggggggggggggggggggggggggggggggggggggggggggggggggggg",
"gggggggggggggggggggbh#ddccihbggggggggggggggggggggggggggggggggggggggggggggggggggggggggggggggggggggggg",
"ggggggggggggggggggggbh.i.hmbbggggggggggggggggggggggggggggggggggggggggggggggggggggggggggggggggggggggg",
"ggggggggggggggggggggggbbbggggggggggggggggggggggggggggggggggggggggggggggggggggggggggggggggggggggggggg",
"gggggggggggggggggggggggbgggggggggggggggggggggggggggggggggggggggggggggggggggggggggggggggggggggggggggg",
"gggggggggggggggggggggggggggggggggggggggggggggggggggggggggggggggggggggggggggggggggggggggggggggggggggg",
"gggggggggggggggggggggggggggggggggggggggggggggggggggggggggggggggggggggggggggggggggggggggggggggggggggg",
"gggggggggggggggggggggggggggggggggggggggggggggggggggggggggggggggggggggggggggggggggggggggggggggggggggg",
"gggggggggggggggggggggggggggggggggggggggggggggggggggggggggggggggggggggggggggggggggggggggggggggggggggg",
"gggggggggggggggggggggggggggggggggggggggggggggggggggggggggggggggggggggggggggggggggggggggggggggggggggg",
"gggggggggggggggggggggggggggggggggggggggggggggggggggggggggggggggggggggggggggggggggggggggggggggggggggg",
"gggggggggggggggggggggggggggggggggggggggggggggggggggggggggggggggggggggggggggggggggggggggggggggggggggg",
"gggggggggggggggggggggggggggggggggggggggggggggggggggggggggggggggggggggggggggggggggggggggggggggggggggg",
"gggggggggggggggggggggggggggggggggggggggggggggggggggggggggggggggggggggggggggggggggggggggggggggggggggg",
"gggggggggggggggggggggggggggggggggggggggggggggggggggggggggggggggggggggggggggggggggggggggggggggggggggg",
"gggggggggggggggggggggggggggggggggggggggggggggggggggggggggggggggggggggggggggggggggggggggggggggggggggg"
};
