/* XPM */
static char *OvalHead_xpm[] = {
/* width height num_colors chars_per_pixel */
"    42    32       16            1",
/* colors */
"` c #716235",
". c #c3b57c",
"# c #e1dbbf",
"a c #a1905d",
"b c #cec2a1",
"c c #baa463",
"d c #d3c48e",
"e c #baa87c",
"f c #cdbb82",
"g c #9f8244",
"h c #ffffff",
"i c #d8cfb7",
"j c #857744",
"k c #b19556",
"l c #886e3c",
"m c #e6e2d7",
/* pixels */
"hhhhhhhhhhhhhhhhhhhhhhhhhhhhhhhhhhhhhhhhhh",
"hhhhhhhhhhhhhhhhhhhhhhhhhhhhhhhhhhhhhhhhhh",
"hhhhhhhhhhhhhhhhhhhhhhhhhhhhhhhhhhhhhhhhhh",
"hhhhhhhhhhhhhhhhhhhhhhhhhhhhhhhhhhhhhhhhhh",
"hhhhhhhhhhhhhhm#ib...bhhmmmmhhhhhhhhhhhhhh",
"hhhhhhhhhhm#bb.bfekkkeiibbbbiimhhhhhhhhhhh",
"hhhhhhhhmibbbbbf.kkck.efddbdbbbbimhhhhhhhh",
"hhhhhhmibbbbbbbfkkgkef.dddddddbbbiimhhhhhh",
"hhhhh#bbbbbbbffckkkc...fdddddddibbdbimhhhh",
"hhhhibbbbbbbbbfggkccc.ffddddddddddbbbbhhhh",
"hhhmbbbbbbbbbb.ggkccedfffdddddddddddbbihhh",
"hhhbbbbbbbbbbdkkkccckffffdddddddbddfdfihhh",
"hhhbeebdbbbbbfkkkkkkc..ffddddddddddddemhhh",
"hhhmkkec....fcgkkkgaaaaac..fddddff.cc#hhhh",
"hhhhakkkaccekkkkkgkajjjjgjgk.dffkace#hhhhh",
"hhhhheaal````kkkga.`jaa.ibb##d..fbbmhhhhhh",
"hhhhhheakcgagakglck`aa.ff.f.e.fbbbmhhhhhhh",
"hhhhhhh.akkkckgjkccc...fffffbfbibmhhhhhhhh",
"hhhhhhhhbakcccakkkkkcc..fddddbbbmhhhhhhhhh",
"hhhhhhhhhiakcccccccccc.dffdbdbbmhhhhhhhhhh",
"hhhhhhhhhh#aakccecc..ffffdfddbihhhhhhhhhhh",
"hhhhhhhhhhhmeaccccccc.ffffdddb#hhhhhhhhhhh",
"hhhhhhhhhhhhiccccccc..fdfddfb.#hhhhhhhhhhh",
"hhhhhhhhhhhhic.ccccc.dddffffdd#hhhhhhhhhhh",
"hhhhhhhhhhhhic.ecccc.dddf.fddf#hhhhhhhhhhh",
"hhhhhhhhhhhhic.ecccc..fd..ddff#hhhhhhhhhhh",
"hhhhhhhhhhhh#c.ckkcc.ffd..ff.f#hhhhhhhhhhh",
"hhhhhhhhhhhh#fdb.f.dddd#dbiddimhhhhhhhhhhh",
"hhhhhhhhhhhhhhhhhhhhhhhhhhhhhhhhhhhhhhhhhh",
"hhhhhhhhhhhhhhhhhhhhhhhhhhhhhhhhhhhhhhhhhh",
"hhhhhhhhhhhhhhhhhhhhhhhhhhhhhhhhhhhhhhhhhh",
"hhhhhhhhhhhhhhhhhhhhhhhhhhhhhhhhhhhhhhhhhh"
};
