/* XPM */
static char *DVY_Spindles_12_xpm[] = {
/* width height num_colors chars_per_pixel */
"    40   160      256            2",
/* colors */
"`` c #241200",
"`. c #a48a74",
"`# c #d4c6b4",
"`a c #644e24",
"`b c #d48a64",
"`c c #9c6a3c",
"`d c #bca284",
"`e c #bc7e54",
"`f c #e4aa7c",
"`g c #846a4c",
"`h c #9c7a54",
"`i c #bc8e64",
"`j c #d49a6c",
"`k c #845e34",
"`l c #ece6dc",
"`m c #ac7a54",
"`n c #bc9674",
"`o c #ec9a74",
"`p c #745e3c",
"`q c #ac6e44",
"`r c #e4d6bc",
"`s c #ac967c",
"`t c #744e2c",
"`u c #bcae94",
"`v c #d4a274",
"`w c #ecaa74",
"`x c #9c7e64",
"`y c #9c7244",
"`z c #cc8a62",
"`A c #ac825c",
"`B c #cc966c",
"`C c #b48a61",
"`D c #94765a",
"`E c #d49269",
"`F c #fff6ee",
"`G c #4c3214",
"`H c #94623c",
"`I c #cca277",
"`J c #946a43",
"`K c #bc967c",
"`L c #ecdecd",
"`M c #544220",
"`N c #e4cab4",
"`O c #cc8667",
"`P c #d4baa6",
"`Q c #745632",
"`R c #bcaa8e",
"`S c #bc8a6c",
"`T c #e49a73",
"`U c #846638",
"`V c #eca274",
"`W c #e4a274",
"`X c #6c562f",
"`Y c #bc8658",
"`Z c #f4eee3",
"`0 c #7c664c",
"`1 c #9c866c",
"`2 c #e4966c",
"`3 c #ac9278",
"`4 c #9c6a4c",
"`5 c #9c825c",
"`6 c #ac7a5c",
"`7 c #7c5e37",
"`8 c #e4d6cc",
".` c #ccae93",
".. c #9c7254",
".# c #ac8264",
".a c #dc926c",
".b c #d4c2a9",
".c c #7c5a30",
".d c #ac7652",
".e c #b48a74",
".f c #94724d",
".g c #f4a274",
".h c #ac8a74",
".i c #dccebc",
".j c #c4a287",
".k c #c49667",
".l c #dca274",
".m c #ffaa7c",
".n c #cc9268",
".o c #64461c",
".p c #dc8e70",
".q c #c47e5c",
".r c #a47a5b",
".s c #bc9264",
".t c #dc9a6f",
".u c #8c6239",
".v c #a47e64",
".w c #ffffff",
".x c #4c3a18",
".y c #946a4c",
".z c #bc9e84",
".A c #74563c",
".B c #f4f2ee",
".C c #dcc6b1",
".D c #6c4e24",
".E c #a46e44",
".F c #bca694",
".G c #8c725c",
".H c #c48a59",
".I c #b47a54",
".J c #b4724c",
".K c #ecd6c3",
".L c #b49e84",
".M c #f4aa79",
".N c #cc8e6c",
".O c #cc9e77",
".P c #5c4a1c",
".Q c #e4d2bc",
".R c #d4bab4",
".S c #c49271",
".T c #e49e7c",
".U c #8c663c",
".V c #eca27c",
".W c #6c563c",
".X c #7c5e44",
".Y c #ccb69c",
".Z c #a47656",
".0 c #b48264",
".1 c #dc9274",
".2 c #c49674",
".3 c #d48e6b",
".4 c #9c6e42",
".5 c #bca68a",
".6 c #8c6a41",
".7 c #846244",
".8 c #f4e6dc",
"#` c #746242",
"#. c #34260c",
"## c #d4b69f",
"#a c #947e5c",
"#b c #b49277",
"#c c #c4865f",
"#d c #a48669",
"#e c #a4824c",
"#f c #dcc2ac",
"#g c #b4967c",
"#h c #c4ae94",
"#i c #a4724c",
"#j c #b4825a",
"#k c #f4e2d4",
"#l c #5c421c",
"#m c #eccebc",
"#n c #c48e6c",
"#o c #a46e4c",
"#p c #b47e5c",
"#q c #ecd6cc",
"#r c #543e1c",
"#s c #b48a6c",
"#t c #947a64",
"#u c #fffaff",
"#v c #c4967c",
"#w c #e4a684",
"#x c #ccb29c",
"#y c #ac8e7c",
"#z c #c48a64",
"#A c #8c6e4c",
"#B c #c4aa8e",
"#C c #b4764c",
"#D c #fff2ec",
"#E c #846644",
"#F c #d4c2b4",
"#G c #7c5a3c",
"#H c #c49e84",
"#I c #ecd2bc",
"#J c #a48674",
"#K c #a4825c",
"#L c #a48e74",
"#M c #bc825c",
"#N c #d49e74",
"#O c #84623c",
"#P c #ec9e74",
"#Q c #ac7246",
"#R c #745228",
"#S c #d4a678",
"#T c #9c8268",
"#U c #cc8e62",
"#V c #cc9a70",
"#W c #b48e64",
"#X c #d4966b",
"#Y c #fffaf4",
"#Z c #4c3615",
"#0 c #94663d",
"#1 c #946e44",
"#2 c #ece2d4",
"#3 c #e4cebc",
"#4 c #d4beaa",
"#5 c #745a33",
"#6 c #bc8e74",
"#7 c #e49e73",
"#8 c #eca674",
"a` c #e4a675",
"a. c #6c5a34",
"a# c #f4f2e4",
"aa c #9c6e4d",
"ab c #ac7e5d",
"ac c #7c623c",
"ad c #e4dad4",
"ae c #ccb294",
"af c #9c7655",
"ag c #dc9669",
"ah c #f4a677",
"ai c #ac8e73",
"aj c #c49a6c",
"ak c #dca676",
"al c #644a24",
"am c #c48262",
"an c #a47e5b",
"ao c #dc9e74",
"ap c #a48266",
"aq c #946e4d",
"ar c #dccab0",
"as c #6c5224",
"at c #b47e52",
"au c #ecdac4",
"av c #f4ae7c",
"aw c #b48666",
"ax c #f4eae2",
"ay c #b49a84",
"az c #c4b297",
"aA c #b4865c",
"aB c #645224",
"aC c #9c7e54",
"aD c #ac7e54",
"aE c #bc9a74",
"aF c #bc9a7c",
"aG c #ac8664",
"aH c #b48e74",
"aI c #dcd2bc",
"aJ c #ffae7c",
"aK c #745a3c",
"aL c #eca67c",
"aM c #6c5a3c",
"aN c #7c6244",
"aO c #dc9674",
"aP c #c49a74",
"aQ c #a4764c",
"aR c #5c461c",
"aS c #ecdacc",
"aT c #c49a7c",
"aU c #c48e64",
"aV c #a48a7c",
"aW c #d48a6c",
"aX c #9c6a44",
"aY c #bca28c",
"aZ c #bc7e5c",
"a0 c #d49a74",
"a1 c #845e3c",
"a2 c #745e44",
"a3 c #ac6e4c",
"a4 c #e4d6c4",
"a5 c #ac9684",
"a6 c #d4a27c",
"a7 c #ecaa7c",
"a8 c #9c724c",
/* pixels */
".w.w.w.w.w.w.w.w.w.w.w.w.w.w.w.w.w.w.w.w.w.w.w.w.B#D.w.w.w.w.w.w.w.w.w.w.w.w.w.w",
".w.w.w.w.w.w.w.w.w.w.w.w.w.w.w.w.w.w.w.w.w.w#Y`Pai#Taz.w.w.w.w.w.w.w.w.w.w.w.w.w",
".w.w.w.w.w.w.w.w.w.w.w.w.w.w.w.w.w.w.w#YaS.j#K#0aU.H.d#baS.w.w.w.w.w.w.w.w.w.w.w",
".w.w.w.w.w.w.w.w.w.w.w.w.w.w.w.w.waxadabaa`m`T`V`V`V.V`maq`8.w.w.w.w.w.w.w.w.w.w",
".w.w.w.w.w.w.w.w.w.w.w.w.w.w.w.w.w.Aaq#z.tah`V`V#7ag#7ah.Haq#4.8.w.w.w.w.w.w.w.w",
".w.w.w.w.w.w.w.w.w.w.w.w.w.w.w.w.w.o`A.na`ah`W.1#P`V.t#8aL.t.D`1.w.w.w.w.w.w.w.w",
".w.w.w.w.w.w.w.w.w.w.w.w.w.w.w.w.w#A.l`J.E#X#8`o#P.Mag.I#0..aD.6#2.w.w.w.w.w.w.w",
".w.w.w.w.w.w.w.w.w.w.w.w.w.w.w.w.w`p`V#X.E#R#Uah.pat#0#0am.nah`D.K.w.w.w.w.w.w.w",
".w.w.w.w.w.w.w.w.w.w.w.w.w.w.w.w.w`p#8ah`V.d#R#iaX.E.H`T`V#P`Vaa.K.w.w.w.w.w.w.w",
".w.w.w.w.w.w.w.w.w.w.w.w.w.w.w.w.w.U.g`T#8aLat.6`z#8#PaL#8ao#8.f.K.w.w.w.w.w.w.w",
".w.w.w.w.w.w.w.w.w.w.w.w.w.w.w.w.w.U#8.1`o`Vao`Jah`V`E#P`V`V`Vaa.K.w.w.w.w.w.w.w",
".w.w.w.w.w.w.w.w.w.w.w.w.w.w.w.w.waN#8#7`V#8.q.y#8`V`V#8`V#P`V.f.K.w.w.w.w.w.w.w",
".w.w.w.w.w.w.w.w.w.w.w.w.w.w.w.w.w`p#8`V#P`V`Oa8#8ak#P#P`V`V`V.f.K.w.w.w.w.w.w.w",
".w.w.w.w.w.w.w.w.w.w.w.w.w.w.w.w.w#O#8`V`V#8.N`J`V`V#8`V`V#P`V.f.K.w.w.w.w.w.w.w",
".w.w.w.w.w.w.w.w.w.w.w.w.w.w.w.w.w#0#8`V#8`V.q.U#8`V`V`V`o`V`Vaq.K.w.w.w.w.w.w.w",
".w.w.w.w.w.w.w.w.w.w.w.w.w.w.w.w.w.U#8`V`V#8amaq#8.V`V`V`o`W`V.f.K.w.w.w.w.w.w.w",
".w.w.w.w.w.w.w.w.w.w.w.w.w.w.w.w.w.U`V`V`V#8am`J#8`V`V`V#P`V`V.f.K.w.w.w.w.w.w.w",
".w.w.w.w.w.w.w.w.w.w.w.w.w.w.w.w.w.Uah`V`V#8am`J#8`V`V`V`o`V#8aq.K.w.w.w.w.w.w.w",
".w.w.w.w.w.w.w.w.w.w.w.w.w.w.w.w.w.U`V`V#8#8am#1`V`V`V`V#P`V`Va8au.w.w.w.w.w.w.w",
".w.w.w.w.w.w.w.w.w.w.w.w.w.w.w.w.w.U#8#P`V#8am.U#8`V#7#P#P`W`V.f.K.w.w.w.w.w.w.w",
".w.w.w.w.w.w.w.w.w.w.w.w.w.w.w.w.w.U#8#7`V#8am.U#8`V`o#P`o`W`V.f.K.w.w.w.w.w.w.w",
".w.w.w.w.w.w.w.w.w.w.w.w.w.w.w.w.w.U`V`T`V`Vam.U#8`V`o`o`o`Vahaq.K.w.w.w.w.w.w.w",
".w.w.w.w.w.w.w.w.w.w.w.w.w.w.w.w.w`J#8`V#7`Vam.E#8`V`T`V`V`V#Xaf`L.w.w.w.w.w.w.w",
".w.w.w.w.w.w.w.w.w.w.w.w.w.w.w.w.w#d#M.M.gaham#0ah#8`W#8.M`V..`d#u.w.w.w.w.w.w.w",
".w.w.w.w.w.w.w.w.w.w.w.w.w.w.w.w.w`##E#U`W#7aq.u.n#7aJ#w#U...L#k.w.w.w.w.w.w.w.w",
".w.w.w.w.w.w.w.w.w.w.w.w.w.w.w.w.w.w`3#.`tac..aG..a8.4aK`M`D.w.w.w.w.w.w.w.w.w.w",
".w.w.w.w.w.w.w.w.w.w.w.w.w.w.w.w.w.w.8.W.f.r#z`S..`Jaq#Gal`P.w.w.w.w.w.w.w.w.w.w",
".w.w.w.w.w.w.w.w.w.w.w.w.w.w.w.w.w.w.wa1.S.t#Va8.0`z.n`Ea.#T.w.w.w.w.w.w.w.w.w.w",
".w.w.w.w.w.w.w.w.w.w.w.w.w.w.w.w.w.w`F`Man.Zaw`c`O#C#0.r.y`s.w.w.w.w.w.w.w.w.w.w",
".w.w.w.w.w.w.w.w.w.w.w.w.w.w.w.w.w.w#2.Uah`W`V`2`o#P#P.M.l`C.w.w.w.w.w.w.w.w.w.w",
".w.w.w.w.w.w.w.w.w.w.w.w.w.w.w.w.w.wax#5`Y.ta7.mah.M`WaU.raY.w.w.w.w.w.w.w.w.w.w",
".w.w.w.w.w.w.w.w.w.w.w.w.w.w.w.w.w.w.w#Ba1aq`Aatat#ja8a..G`F.w.w.w.w.w.w.w.w.w.w",
".w.w.w.w.w.w.w.w.w.w.w.w.w.w.w.w.w.w.w.w#facag.Naw`B#p#Ja#.w.w.w.w.w.w.w.w.w.w.w",
".w.w.w.w.w.w.w.w.w.w.w.w.w.w.w.w.w.w.w.w`L.6.Ma6aha7aw`K.w.w.w.w.w.w.w.w.w.w.w.w",
".w.w.w.w.w.w.w.w.w.w.w.w.w.w.w.w.w.w.w.w.Q#5aAaq`BaD#5`..w.w.w.w.w.w.w.w.w.w.w.w",
".w.w.w.w.w.w.w.w.w.w.w.w.w.w.w.w.w.w.w.w.Cac.uas.2aK`a#B.w.w.w.w.w.w.w.w.w.w.w.w",
".w.w.w.w.w.w.w.w.w.w.w.w.w.w.w.w.w.w.w.w`L#A.U`U`W`a`X.`.w.w.w.w.w.w.w.w.w.w.w.w",
".w.w.w.w.w.w.w.w.w.w.w.w.w.w.w.w.w.w.w.w.8`p.U`p`vas#`aH.w.w.w.w.w.w.w.w.w.w.w.w",
".w.w.w.w.w.w.w.w.w.w.w.w.w.w.w.w.w.w.w.w#2#`.Ua2`v.D.U#L.w.w.w.w.w.w.w.w.w.w.w.w",
".w.w.w.w.w.w.w.w.w.w.w.w.w.w.w.w.w.w.w.w`L#`.U`p`KaBaaai.w.w.w.w.w.w.w.w.w.w.w.w",
".w.w.w.w.w.w.w.w.w.w.w.w.w.w.w.w.w.w.w.w.K`pac#O`I.D.f`..w.w.w.w.w.w.w.w.w.w.w.w",
".w.w.w.w.w.w.w.w.w.w.w.w.w.w.w.w.w.w.w.w.K.X#`aaakas.f`n#Y.w.w.w.w.w.w.w.w.w.w.w",
".w.w.w.w.w.w.w.w.w.w.w.w.w.w.w.w.w.w.w.w#q#5`Qaf.Oas.y.j#Y.w.w.w.w.w.w.w.w.w.w.w",
".w.w.w.w.w.w.w.w.w.w.w.w.w.w.w.w.w.w.w.w#2.D`Qan.O.D.U.z#Y.w.w.w.w.w.w.w.w.w.w.w",
".w.w.w.w.w.w.w.w.w.w.w.w.w.w.w.w.w.w.w.wau`a#`.r.l.Dac`n.w.w.w.w.w.w.w.w.w.w.w.w",
".w.w.w.w.w.w.w.w.w.w.w.w.w.w.w.w.w.w.w.w#4`XaN.r`Vas#`.2#Y.w.w.w.w.w.w.w.w.w.w.w",
".w.w.w.w.w.w.w.w.w.w.w.w.w.w.w.w.w.w.w.w#h.7`X.v`Vas`XaF#Y.w.w.w.w.w.w.w.w.w.w.w",
".w.w.w.w.w.w.w.w.w.w.w.w.w.w.w.w.w.w.w.w`K.r`aa8#8aKaBaF.w.w.w.w.w.w.w.w.w.w.w.w",
".w.w.w.w.w.w.w.w.w.w.w.w.w.w.w.w.w.w.w.w#babasaf`V.DasaE#Y.w.w.w.w.w.w.w.w.w.w.w",
".w.w.w.w.w.w.w.w.w.w.w.w.w.w.w.w.w.w.w.waT#tasaf#8asaBaF.8.w.w.w.w.w.w.w.w.w.w.w",
".w.w.w.w.w.w.w.w.w.w.w.w.w.w.w.w.w.w.w.w`K.fasaq#8`p`pai.C.w.w.w.w.w.w.w.w.w.w.w",
".w.w.w.w.w.w.w.w.w.w.w.w.w.w.w.w.w.w.w.w`.aaaNaq#8#`#O#L#h.w.w.w.w.w.w.w.w.w.w.w",
".w.w.w.w.w.w.w.w.w.w.w.w.w.w.w.w.w.w.w.waiaf`X`h#8`X.6aiaz.w.w.w.w.w.w.w.w.w.w.w",
".w.w.w.w.w.w.w.w.w.w.w.w.w.w.w.w.w.w.w.w#y.r.Dan#8.D.U`K`P.w.w.w.w.w.w.w.w.w.w.w",
".w.w.w.w.w.w.w.w.w.w.w.w.w.w.w.w.w.w.w`F.v.S`aan#8as#0aP.`.w.w.w.w.w.w.w.w.w.w.w",
".w.w.w.w.w.w.w.w.w.w.w.w.w.w.w.w.w.w.w`Zaaak.D#Q`Vas.U#b.5.w.w.w.w.w.w.w.w.w.w.w",
".w.w.w.w.w.w.w.w.w.w.w.w.w.w.w.w.w.w.w`Z.f`vaBaa#8#5aN`.#B.w.w.w.w.w.w.w.w.w.w.w",
".w.w.w.w.w.w.w.w.w.w.w.w.w.w.w.w.w.w.w`Z.f`vasaa#8`X`Qai`R.w.w.w.w.w.w.w.w.w.w.w",
".w.w.w.w.w.w.w.w.w.w.w.w.w.w.w.w.w.w.w`Zaq`v.Da8#8aN`aai#B.w.w.w.w.w.w.w.w.w.w.w",
".w.w.w.w.w.w.w.w.w.w.w.w.w.w.w.w.w.w.w`Zaq.lasaq#8a2asai.5.w.w.w.w.w.w.w.w.w.w.w",
".w.w.w.w.w.w.w.w.w.w.w.w.w.w.w.w.w.w.w`Faa.O#l.##8a2asaiae.w.w.w.w.w.w.w.w.w.w.w",
".w.w.w.w.w.w.w.w.w.w.w.w.w.w.w.w.w.w.w.w.faF#Z#S#8a2asai#h.w.w.w.w.w.w.w.w.w.w.w",
".w.w.w.w.w.w.w.w.w.w.w.w.w.w.w.w.w.w.w#D.f`K#Z#S#8.Xasai.5.w.w.w.w.w.w.w.w.w.w.w",
".w.w.w.w.w.w.w.w.w.w.w.w.w.w.w.w.w.w.w`Z.f`S#Z`v#8`pasai#B.w.w.w.w.w.w.w.w.w.w.w",
".w.w.w.w.w.w.w.w.w.w.w.w.w.w.w.w.w.w.w`Z.faH#Z`v#8`pas#L#B.w.w.w.w.w.w.w.w.w.w.w",
".w.w.w.w.w.w.w.w.w.w.w.w.w.w.w.w.w.w.wax#0.e.x`v#8#`asaV#B.w.w.w.w.w.w.w.w.w.w.w",
".w.w.w.w.w.w.w.w.w.w.w.w.w.w.w.w.w.w.w`L.U#b#Z`v#8`X.D#bay.w.w.w.w.w.w.w.w.w.w.w",
".w.w.w.w.w.w.w.w.w.w.w.w.w.w.w.w.w.w.waSaq.S.x`W`Va.as`I#s.w.w.w.w.w.w.w.w.w.w.w",
".w.w.w.w.w.w.w.w.w.w.w.w.w.w.w.w.w.w.w.C.f`S#Z`V`V#`as.l`K#Y.w.w.w.w.w.w.w.w.w.w",
".w.w.w.w.w.w.w.w.w.w.w.w.w.w.w.w.w.w.wazab.0.x`W#8acas.Oai.w.w.w.w.w.w.w.w.w.w.w",
".w.w.w.w.w.w.w.w.w.w.w.w.w.w.w.w.w.w.waF`S.0.x#S#8.4.D.O#K#D.w.w.w.w.w.w.w.w.w.w",
".w.w.w.w.w.w.w.w.w.w.w.w.w.w.w.w.w.w.waiaT#p#Z.l#8.E.Dakap#x.w.w.w.w.w.w.w.w.w.w",
".w.w.w.w.w.w.w.w.w.w.w.w.w.w.w.w.w.w.w`xa`abaR`W`V.Uasa``3.`.w.w.w.w.w.w.w.w.w.w",
".w.w.w.w.w.w.w.w.w.w.w.w.w.w.w.w.w.w#uaa.Vaw#r`W#8.Uas`Wap#h.w.w.w.w.w.w.w.w.w.w",
".w.w.w.w.w.w.w.w.w.w.w.w.w.w.w.w.w.w.wa8#8`6#Z`V#8`Jas`V.r.5.w.w.w.w.w.w.w.w.w.w",
".w.w.w.w.w.w.w.w.w.w.w.w.w.w.w.w.w.w#Y..#8.r.x#8#8#1as.l.r#h.w.w.w.w.w.w.w.w.w.w",
".w.w.w.w.w.w.w.w.w.w.w.w.w.w.w.w.w.w.waq#8.r#Z.g`V.Uas`Wan##.w.w.w.w.w.w.w.w.w.w",
".w.w.w.w.w.w.w.w.w.w.w.w.w.w.w.w.w.w.w`J`V.d``#8`V.6as`V.f`R.w.w.w.w.w.w.w.w.w.w",
".w.w.w.w.w.w.w.w.w.w.w.w.w.w.w.w.w.w.w.c#8.d#.#8#8#i.D`Vaf#H.w.w.w.w.w.w.w.w.w.w",
".w.w.w.w.w.w.w.w.w.w.w.w.w.w.w.w.w.w#D#5#8#o.x#8#8aaas`V.v#v.w.w.w.w.w.w.w.w.w.w",
".w.w.w.w.w.w.w.w.w.w.w.w.w.w.w.w.w.waS.6#8#i#Z#8`V`Jas`V.0`S.w.w.w.w.w.w.w.w.w.w",
".w.w.w.w.w.w.w.w.w.w.w.w.w.w.w.w.w.w#4.Z`V#i#Z#8`V`JaB`V#V.0.w.w.w.w.w.w.w.w.w.w",
".w.w.w.w.w.w.w.w.w.w.w.w.w.w.w.w.w.w#S.0#8aa#Z#8#8#1.D.l`Waba#.w.w.w.w.w.w.w.w.w",
".w.w.w.w.w.w.w.w.w.w.w.w.w.w.w.w.w.w.2`S`V`J#Z#8#8`Jas`v#8.Zau.w.w.w.w.w.w.w.w.w",
".w.w.w.w.w.w.w.w.w.w.w.w.w.w.w.w.w.wana0`V`c.x`V#8#1.D`v.gaf#f.w.w.w.w.w.w.w.w.w",
".w.w.w.w.w.w.w.w.w.w.w.w.w.w.w.w.w.w.f#8#8.E#Z#8#8.uaB`v#8...b.w.w.w.w.w.w.w.w.w",
".w.w.w.w.w.w.w.w.w.w.w.w.w.w.w.w.w.w..#8#8`q.x`V`V`Jasa6#8aq.Y.w.w.w.w.w.w.w.w.w",
".w.w.w.w.w.w.w.w.w.w.w.w.w.w.w.w.w.waq#8#8#i#Z#8#8#ias`v.g.f.Y.w.w.w.w.w.w.w.w.w",
".w.w.w.w.w.w.w.w.w.w.w.w.w.w`F.w.w.w.f`V#8.6.xah#8`qas`v`V.r.Y.w.w.w.w.w.w.w.w.w",
".w.w.w.w.w.w.w.w.w.w.w.w.w.w#u.w.w.w...g`V.U.D#8#8#Qas.S#8.v##.w.w.w.w.w.w.w.w.w",
".w.w.w.w.w.w.w.w.w.w.w.w.w.w.w.w.w.w#E#8.l.Uas`V`V#pas.q#8.f#h.w.w.w.w.w.w.w.w.w",
".w.w.w.w.w.w.w.w.w.w.w.w.w.w.w.w.w.waf.la``7as#8`V#MaBaw#8.Z.b.w.w.w.w.w.w.w.w.w",
".w.w.w.w.w.w.w.w.w.w.w.w.w.w.w.w.w.w.Caqahaq`X#7#8#Q.D`S`B.v.w.w.w.w.w.w.w.w.w.w",
".w.w.w.w.w.w.w.w.w.w.w.w.w.w.w.w.w.w.F`XaUa8.U`Tah#o`a`y.c#y.w.w.w.w.w.w.w.w.w.w",
".w.w.w.w.w.w.w.w.w.w.w.w.w.w.w.w.w#Y`X`Danana8ab`e#1`Jaw#5aH.w.w.w.w.w.w.w.w.w.w",
".w.w.w.w.w.w.w.w.w.w.w.w.w.w.w.w.w#Y#O#W.n`i.q#n.q.k#X.n`X#A.w.w.w.w.w.w.w.w.w.w",
".w.w.w.w.w.w.w.w.w.w.w.w.w.w.w.w.w.w`X#j.faf.0`e#C#p.Z`Cat`Da4.w.w.w.w.w.w.w.w.w",
".w.w.w.w.w.w.w.w.w.w.w.w.w.w.w.w.w`LasaJ#7.l#Xag`E.a#N.MaJ.rar.w.w.w.w.w.w.w.w.w",
".w.w.w.w.w.w.w.w.w.w.w.w.w.w.w.w.w.8.Uaja7`fahaJah.VavaL.3`4`F.w.w.w.w.w.w.w.w.w",
".w.w.w.w.w.w.w.w.w.w.w.w.w.w.w.w.w.w.``Q#A#jat`yat#j.r.A#5#F.w.w.w.w.w.w.w.w.w.w",
".w.w.w.w.w.w.w.w.w.w.w.w.w.w.w.w.w.w#Yab.U`z#c#U#z.k#zaq`u.w.w.w.w.w.w.w.w.w.w.w",
".w.w.w.w.w.w.w.w.w.w.w.w.w.w.w.w.w.w.w`l`kahak#8#7#8ak.S.w.w.w.w.w.w.w.w.w.w.w.w",
".w.w.w.w.w.w.w.w.w.w.w.w.w.w.w.w.w.w.w`L`7`V`V#7`V`V.O#j.w.w.w.w.w.w.w.w.w.w.w.w",
".w.w.w.w.w.w.w.w.w.w.w.w.w.w.w.w.w.w.w.C#0#8`V`T#8`V.n#j.w.w.w.w.w.w.w.w.w.w.w.w",
".w.w.w.w.w.w.w.w.w.w.w.w.w.w.w.w.w.w.w#H.J#8#8#P`V#P.p#p`F.w.w.w.w.w.w.w.w.w.w.w",
".w.w.w.w.w.w.w.w.w.w.w.w.w.w.w.w.w.w.w.#`B#8`V#P#7`V#7anaI.w.w.w.w.w.w.w.w.w.w.w",
".w.w.w.w.w.w.w.w.w.w.w.w.w.w.B.w.w.w#ua8#8`V#P`o#7.g`V.r#h.w.w.w.w.w.w.w.w.w.w.w",
".w.w.w.w.w.w.w.w.w.w.w.w.w.w#u.w.w.w#Y#O.g`V`V`V#P`V`Vab`d.w.w.w.w.w.w.w.w.w.w.w",
".w.w.w.w.w.w.w.w.w.w.w.w.w.w.w.w.w.wa#`p#8`V#8#P`o`V#8aq#b.w.w.w.w.w.w.w.w.w.w.w",
".w.w.w.w.w.w.w.w.w.w.w.w.w.w.w.w.w.w#2.U#8`V`V#P#P#8#8aq`..w.w.w.w.w.w.w.w.w.w.w",
".w.w.w.w.w.w.w.w.w.w.w.w.w.w.w.w.w.w#x`D`V`V#P#7`o`V`V#n#y#D.w.w.w.w.w.w.w.w.w.w",
".w.w.w.w.w.w.w.w.w.w.w.w.w.w.w.w.w.w.z#j#8#8#P#P#P#P`Vakap.b.w.w.w.w.w.w.w.w.w.w",
".w.w.w.w.w.w.w.w.w.w.w.w.w.w.w.w.w.w.h`I`V`V`o`V`V#7#8`W.r#x.w.w.w.w.w.w.w.w.w.w",
".w.w.w.w.w.w.w.w.w.w.w.w.w.w.w.w.w.w`6`W`W`V`V`V#8`V`V`V.Z#4.w.w.w.w.w.w.w.w.w.w",
".w.w.w.w.w.w.w.w.w.w.w.w.w.w.w.w.w.w#ga``W`V#8`V#P`V`V#8`h.Y.w.w.w.w.w.w.w.w.w.w",
".w.w.w.w.w.w.w.w.w.w.w.w.w.w.w.w.w.w`N.f.Mak`Wag`T`Wak`W#d##.w.w.w.w.w.w.w.w.w.w",
".w.w.w.w.w.w.w.w.w.w.w.w.w.w.w.w.w.waHaM#e.T`TaJ.M`wao.Z`a#f.w.w.w.w.w.w.w.w.w.w",
".w.w.w.w.w.w.w.w.w.w.w.w.w.w.w.w.w.w`0#V.fa8at.4ataDaba8#5`R.w.w.w.w.w.w.w.w.w.w",
".w.w.w.w.w.w.w.w.w.w.w.w.w.w.w.w.B.z`7.Z.t.s.##c.I`6.kab`X.6#Y.w.w.w.w.w.w.w.w.w",
".w.w.w.w.w.w.w.w.w.w.w.w.w.w.w.w.Y.PaG`Y.f..aUam.Iaw.4at.N.r#B.w.w.w.w.w.w.w.w.w",
".w.w.w.w.w.w.w.w.w.w.w.w.w.w.w.w.``JaQat`e`j`b.n`z#Xao.nataC`g.i.w.w.w.w.w.w.w.w",
".w.w.w.w.w.w.w.w.w.w.w.w.w.w.w.w`n#6.l#i.E#n`W.M#7#c.E#1#Q#X.U.Y.w.w.w.w.w.w.w.w",
".w.w.w.w.w.w.w.w.w.w.w.w.w.w.w.waF`S#8.T#C`U.V.3aX`Ham#7.Mahaq`r.w.w.w.w.w.w.w.w",
".w.w.w.w.w.w.w.w.w.w.w.w.w.w.w.waE#j`V#8aW#C.u#0.d`E.M#7`T`V.f.K.w.w.w.w.w.w.w.w",
".w.w.w.w.w.w.w.w.w.w.w.w.w.w.w.w#v.0#8#P#P.1`caZ`Vah#P#P#7#8a8#m.w.w.w.w.w.w.w.w",
".w.w.w.w.w.w.w.w.w.w.w.w.w.w.w.waF.0#8#P`V.1#Qam#8#8#P#P#P`V.f.Q.w.w.w.w.w.w.w.w",
".w.w.w.w.w.w.w.w.w.w.w.w.w.w.w.waT.0#8#P`V.1`qam#8#8`o`V#7`V.f.Q.w.w.w.w.w.w.w.w",
".w.w.w.w.w.w.w.w.w.w.w.w.w.w.w.waE.0#8#P`V.a#Qam`V#8`o`V#P#8a8.Q.w.w.w.w.w.w.w.w",
".w.w.w.w.w.w.w.w.w.w.w.w.w.w.w.waF.0#8#P`V.3`qam#8`V#P`V`o#8.f.Q.w.w.w.w.w.w.w.w",
".w.w.w.w.w.w.w.w.w.w.w.w.w.w.w.waF.0`V#7`V.3`qam#8`V#P`V`o#8.f.Q.w.w.w.w.w.w.w.w",
".w.w.w.w.w.w.w.w.w.w.w.w.w.w.w.waF.0`V#7`V.3`qam#8`V#P`V`o#8.f.Q.w.w.w.w.w.w.w.w",
".w.w.w.w.w.w.w.w.w.w.w.w.w.w.w.waF.0`V#7`V.3`qam#8`V#P`V`o#8.f.Q.w.w.w.w.w.w.w.w",
".w.w.w.w.w.w.w.w.w.w.w.w.w.w.w.waF.0#8#P`V.3`qam#8`V#P`V`o#8.f.Q.w.w.w.w.w.w.w.w",
".w.w.w.w.w.w.w.w.w.w.w.w.w.w.w.waF.0#8#P`V.3#Qam#8`V#P`V`o#8.f.Q.w.w.w.w.w.w.w.w",
".w.w.w.w.w.w.w.w.w.w.w.w.w.w.w.waF.0#8`V#8.3#Qam#8`V#P`V`o#8.f.Q.w.w.w.w.w.w.w.w",
".w.w.w.w.w.w.w.w.w.w.w.w.w.w.w.waF.0#8`V#8.3#Qam#8`V#P`V`o#8.f.Q.w.w.w.w.w.w.w.w",
".w.w.w.w.w.w.w.w.w.w.w.w.w.w.w.waF.0#8`V#8.3#Qam#8`V#P`V`o#8.f.Q.w.w.w.w.w.w.w.w",
".w.w.w.w.w.w.w.w.w.w.w.w.w.w.w.waF.0#8`V#8.3#Qam#8`V#P`V`o#8.f.Q.w.w.w.w.w.w.w.w",
".w.w.w.w.w.w.w.w.w.w.w.w.w.w.w.waF.0#8`V#8.3#Qam#8`V#P`V`o#8.f.Q.w.w.w.w.w.w.w.w",
".w.w.w.w.w.w.w.w.w.w.w.w.w.w.w.waF.0#8`V#8.3#Qam#8`V#P`V`o#8.f.Q.w.w.w.w.w.w.w.w",
".w.w.w.w.w.w.w.w.w.w.w.w.w.w.w.waF.0#8`V#8.3#Qam#8`V#P`V`o#8.f.Q.w.w.w.w.w.w.w.w",
".w.w.w.w.w.w.w.w.w.w.w.w.w.w.w.waF.0#8`V#8.3#Qam#8`V#P`V`o#8.f.Q.w.w.w.w.w.w.w.w",
".w.w.w.w.w.w.w.w.w.w.w.w.w.w.w.waF.0#8`V#8.3#Qam#8`V#P`V`o#8.f.Q.w.w.w.w.w.w.w.w",
".w.w.w.w.w.w.w.w.w.w.w.w.w.w.w.waF.0#8`V#8.3#Qam#8`V#P`V`o#8.f.Q.w.w.w.w.w.w.w.w",
".w.w.w.w.w.w.w.w.w.w.w.w.w.w.w.w#v#j#8`V#8.3a3am`V#8#P`V#P`V.f.Q.w.w.w.w.w.w.w.w",
".w.w.w.w.w.w.w.w.w.w.w.w.w.w.w.waF#j#8`V#8.3#Qam`V`V`o`V#7`V.f.Q.w.w.w.w.w.w.w.w",
".w.w.w.w.w.w.w.w.w.w.w.w.w.w.w.waF.0#8`V#8.3`q.q#8`V`o`V#7`V.f.Q.w.w.w.w.w.w.w.w",
".w.w.w.w.w.w.w.w.w.w.w.w.w.w.w.waF.0`V`V`V.a`qam`V`V`o`V#7`V.f.Q.w.w.w.w.w.w.w.w",
".w.w.w.w.w.w.w.w.w.w.w.w.w.w.w.waT.0`V`V#8.1#Qam#8#8#P#8#P#8.f.Q.w.w.w.w.w.w.w.w",
".w.w.w.w.w.w.w.w.w.w.w.w.w.w.w.waT.0`V`V#8.aa3am#8#8#P#8#P#8.f.Q.w.w.w.w.w.w.w.w",
".w.w.w.w.w.w.w.w.w.w.w.w.w.w.w.waF.0`V`V#8.3`qam#8#8#P#8#P#8.f.Q.w.w.w.w.w.w.w.w",
".w.w.w.w.w.w.w.w.w.w.w.w.w.w.w.w#v.0`V`V#8.3#Qam#8#8#P`V#P#8.f#I.w.w.w.w.w.w.w.w",
".w.w.w.w.w.w.w.w.w.w.w.w.w.w.w.w.j.0.l`Vah.3#Q.q`V`V`T`o`T`V.f`N.w.w.w.w.w.w.w.w",
".w.w.w.w.w.w.w.w.w.w.w.w.w.w.w.wai`6a``V.laO#Qam`V#P.t#8`V#8a8#3.w.w.w.w.w.w.w.w",
".w.w.w.w.w.w.w.w.w.w.w.w.w.w.w.w.`.u#VaL`Vag#Q`E#8#8`T#8`V`Vaq`L.w.w.w.w.w.w.w.w",
".w.w.w.w.w.w.w.w.w.w.w.w.w.w.w.w.w`P#0`Cah#7#Q`O#7#7`T#8aha`aMar.w.w.w.w.w.w.w.w",
".w.w.w.w.w.w.w.w.w.w.w.w.w.w.w.w.w.w.Caq`Yah#Qam`Vah#8`jab`AaH`Z.w.w.w.w.w.w.w.w",
".w.w.w.w.w.w.w.w.w.w.w.w.w.w.w.w.w.w.w.Caf.fabak.l`Y.y#day.B.w.w.w.w.w.w.w.w.w.w",
".w.w.w.w.w.w.w.w.w.w.w.w.w.w.w.w.w.w.w.wax#a`Ganap`5.R.w.w.w.w.w.w.w.w.w.w.w.w.w",
".w.w.w.w.w.w.w.w.w.w.w.w.w.w.w.w.w.w.w.w.w#Da5`R`l#u.w.w.w.w.w.w.w.w.w.w.w.w.w.w"
};
