/* XPM */
static char *DVY_RoofTile_2x1x45_xpm[] = {
/* width height num_colors chars_per_pixel */
"   100   100       16            1",
/* colors */
"` c #740000",
". c #c58d8c",
"# c #a34f50",
"a c #b80000",
"b c #ffd1ce",
"c c #902f31",
"d c #b43638",
"e c #990000",
"f c #d30000",
"g c #c85556",
"h c #ffb2b1",
"i c #af6c6c",
"j c #ffffff",
"k c #cb7172",
"l c #dd9292",
"m c #e2292e",
/* pixels */
"jjjjjjjjjjjjjjjjjjjjjjjjjjjjjjjjjjjjjjjjjjjjjjjjjjjjjjjjjjjjjjjjjjjjjjjjjjjjjjjjjjjjjjjjjjjjjjjjjjjj",
"jjjjjjjjjjjjjjjjjjjjjjjjjjjjjjjjjjjjjjjjjjjjjjjjjjjjjjjjjjjjjjjjjjjjjjjjjjjjjjjjjjjjjjjjjjjjjjjjjjjj",
"jjjjjjjjjjjjjjjjjjjjjjjjjjjjjjjjjjjjjjjjjjjjjjjjjjjjjjjjjjjjjjjjjjjjjjjjjjjjjjjjjjjjjjjjjjjjjjjjjjjj",
"jjjjjjjjjjjjjjjjjjjjjjjjjjjjjjjjjjjjjjjjjjjjjjjjjjjjjjjjjjjjjjjjjjjjjjjjjjjjjjjjjjjjjjjjjjjjjjjjjjjj",
"jjjjjjjjjjjjjjjjjjjjjjjjjjjjjjjjjjjjjjjjjjjjjjjjjjjjjjjjjjjjjjjjjjjjjjjjjjjjjjjjjjjjjjjjjjjjjjjjjjjj",
"jjjjjjjjjjjjjjjjjjjjjjjjjjjjjjjjjjjjjjjjjjjjjjjjjjjjjjjjjjjjjjjjjjjjjjjjjjjjjjjjjjjjjjjjjjjjjjjjjjjj",
"jjjjjjjjjjjjjjjjjjjjjjjjjjjjjjjjjjjjjjjjjjjjjjjjjjjjjjjjjjjjjjjjjjjjjjjjjjjjjjjjjjjjjjjjjjjjjjjjjjjj",
"jjjjjjjjjjjjjjjjjjjjjjjjjjjjjjjjjjjjjjjjjjjjjjjjjjjjjjjjjjjjjjjjjjjjjjjjjjjjjjjjjjjjjjjjjjjjjjjjjjjj",
"jjjjjjjjjjjjjjjjjjjjjjjjjjjjjjjjjjjjjjjjjjjjjjjjjjjjjjjjjjjjjjjjjjjjjjjjjjjjjjjjjjjjjjjjjjjjjjjjjjjj",
"jjjjjjjjjjjjjjjjjjjjjjjjjjjjjjjjjjjjjjjjjjjjjjjjjjjjjjjjjjjjjjjjjjjjjjjjjjjjjjjjjjjjjjjjjjjjjjjjjjjj",
"jjjjjjjjjjjjjjjjjjjjjjjjjjjjjjjjjjjjjjjjjjjjjjjjjjjjjjjjjjjjjjjjjjjjjjjjjjjjjjjjjjjjjjjjjjjjjjjjjjjj",
"jjjjjjjjjjjjjjjjjjjjjjjjjjjjjjjjjjjjjjjjjjjjjjjjjjjjjjjjjjjjjjjjjjjjjjjjjjjjjjjjjjjjjjjjjjjjjjjjjjjj",
"jjjjjjjjjjjjjjjjjjjjjjjjjjjjjjjjjjjjjjjjjjjjjjjjjjjjjjjjjjjjjjjjjjjjjjjjjjjjjjjjjjjjjjjjjjjjjjjjjjjj",
"jjjjjjjjjjjjjjjjjjjjjjjjjjjjjjjjjjjjjjjjjjjjjjjjjjjjjjjjjjjjjjjjjjjjjjjjjjjjjjjjjjjjjjjjjjjjjjjjjjjj",
"jjjjjjjjjjjjjjjjjjjjjjjjjjjjjjjjjbbbbhhl...hbjjjjjjjjjjjjjjjjjjjjjjjjjjjjjjjjjjjjjjjjjjjjjjjjjjjjjjj",
"jjjjjjjjjjjjjjjjjjjjjjjjjjjjjjjjbbhl..i#c`#.hjjjjjjjjjjjjjjjjjjjjjjjjjjjjjjjjjjjjjjjjjjjjjjjjjjjjjjj",
"jjjjjjjjjjjjjjjjjjjjjjjjjjjjjjbl.ii###ccc`c#i.bjjjjjjjjjjjjjjjjjjjjjjjjjjjjjjjjjjjjjjjjjjjjjjjjjjjjj",
"jjjjjjjjjjjjjjjjjjjjjjjjjjjjjb.#c``````cc```c#.bjjjjjjjjjjjjjjjjjjjjjjjjjjjjjjjjjjjjjjjjjjjjjjjjjjjj",
"jjjjjjjjjjjjjjjjjjjjjjjjjjjbh.#c```````e`````c#.hbjjjjjjjjjjjjjjjjjjjjjjjjjjjjjjjjjjjjjjjjjjjjjjjjjj",
"jjjjjjjjjjjjjjjjjjjjjjjjjjbb.cc````````e```````c.bbjjjjjjjjjjjjjjjjjjjjjjjjjjjjjjjjjjjjjjjjjjjjjjjjj",
"jjjjjjjjjjjjjjjjjjjjjjbbh..i#c`````````eeeee````#ilbjjjjjjjjjjjjjjjjjjjjjjjjjjjjjjjjjjjjjjjjjjjjjjjj",
"jjjjjjjjjjjjjjjjjjjjjjbli#c```````ee```eeeeee`````ihbjjjjjjjjjjjjjjjjjjjjjjjjjjjjjjjjjjjjjjjjjjjjjjj",
"jjjjjjjjjjjjjjjjjbbhl.i#cc````````eee```eeeee`````c#.bbjjjjjjjjjjjjjjjjjjjjjjjjjjjjjjjjjjjjjjjjjjjjj",
"jjjjjjjjjjjjjjjjbblk#cc``````eeee``eee`````````e````#.bjjjjjjjjjjjjjjjjjjjjjjjjjjjjjjjjjjjjjjjjjjjjj",
"jjjjjjjjjjjjjjbbli##c````````eeeeeeeee`````eeee`````c#ilbjjjjjjjjjjjjjjjjjjjjjjjjjjjjjjjjjjjjjjjjjjj",
"jjjjjjjjjjjjjjbl#```````````eeeaeeeeeee```eeeee```````ciljjjjjjjjjjjjjjjjjjjjjjjjjjjjjjjjjjjjjjjjjjj",
"jjjjjjjjjjjjjjb.#```````````eeeaaaaaaaaaaaaaeee```````cci.hbjjjjjjjjjjjjjjjjjjjjjjjjjjjjjjjjjjjjjjjj",
"jjjjjjjjjjjjjjhk#cee````````eeeaammmmmmmmmfaaae`````````cc.bjjjjjjjjjjjjjjjjjjjjjjjjjjjjjjjjjjjjjjjj",
"jjjjjjjjjjjjjjhk#eeeee``````eeeaammmmmmmmmfaaee``````````c#.hbjjjjjjjjjjjjjjjjjjjjjjjjjjjjjjjjjjjjjj",
"jjjjjjjjjjjjjjhkdeeeeee`````eeeaafmmmmmmmffaaee````````````ckbbjjjjjjjjjjjjjjjjjjjjjjjjjjjjjjjjjjjjj",
"jjjjjjjjjjjjjjhkdeeeeeeee```eeeaammmmmmmmffaaee```````````ecglhjjjjjjjjjjjjjjjjjjjjjjjjjjjjjjjjjjjjj",
"jjjjjjjjjjjjjjhkdeeeeeeeee````eaaammmmmmmmfaaee```````eeeeaaddljjjjjjjjjjjjjjjjjjjjjjjjjjjjjjjjjjjjj",
"jjjjjjjjjjjjjjhkdeeeeeeeeee```eeeaammmmmfaaaeeee```eeeeeaaaaadkbbjjjjjjjjjjjjjjjjjjjjjjjjjjjjjjjjjjj",
"jjjjjjjjjjjjjjhkdeeeeeeeeeee````eeaaaaaaaaaeeeeeeeeeeaaaaaffaakhbjjjjjjjjjjjjjjjjjjjjjjjjjjjjjjjjjjj",
"jjjjjjjjjjjjjjhkdeeeeeeeeeeeeee`eeeeeaaaeeeeeeeeeeeaaaaaffffaaglhjjjjjjjjjjjjjjjjjjjjjjjjjjjjjjjjjjj",
"jjjjjjjjjjjjjjhkdeeeeeeeeeeeeee```eeeeeeeeeeeeeeaaaaffffffffaadgljjjjjjjjjjjjjjjjjjjjjjjjjjjjjjjjjjj",
"jjjjjjjjjjjjjjhkdeeeeeeeeeeeeeeeeee`eeeeeeeeeeaaaaafffffffffaaddlbjjjjjjjjjjjjjjjjjjjjjjjjjjjjjjjjjj",
"jjjjjjjjjjjjjjhkdeeeeeeeeeeeeeeeeee`eee`eeeeaaaaaffffffffffffaackbbjjjjjjjjjjjjjjjjjjjjjjjjjjjjjjjjj",
"jjjjjjjjjjjjjjhkdeeeeeeeeeeeeeeeeeeeeeeeeaaaaaaafffffffffffffaaaglbjjjjjjjjjjjjjjjjjjjjjjjjjjjjjjjjj",
"jjjjjjjjjjjjjjhkdeeeeeeeeeeeeaeeeeeeeeaaafaaaffffffffffffffffaaadghjjjjjjjjjjjjjjjjjjjjjjjjjjjjjjjjj",
"jjjjjjjjjjjjjjhkdeeeeeeeeeeeeaeeeeeaaaaaafffffffffffffffffffffaaddlbjjjjjjjjjjjjjjjjjjjjjjjjjjjjjjjj",
"jjjjjjjjjjjjjjhkdeeeeeeeeeeeeaeeeeamaaafffffffffffffffffffffffffaakbbjjjjjjjjjjjjjjjjjjjjjjjjjjjjjjj",
"jjjjjjjjjjjjjjhkdeeeeeeeeeeeeeeeeeamffffffffffffffffffffffffffffaaghbjjjjjjjjjjjjjjjjjjjjjjjjjjjjjjj",
"jjjjjjjjjjjjjjhkdeeeeeeeeeeeeeeeeeamffffffffffffffffffffffffffffaaglhjjjjjjjjjjjjjjjjjjjjjjjjjjjjjjj",
"jjjjjjjjjjjjjjhkdeeeeeeeeeeeeeeeeeaafmfffffffffffffffffffffffffffadglbjjjjjjjjjjjjjjjjjjjjjjjjjjjjjj",
"jjjjjjjjjjjjjjhkdeeeeeeeeeeeeeeeeeaafmffffffffffffffffffffffffffffackbjjjjjjjjjjjjjjjjjjjjjjjjjjjjjj",
"jjjjjjjjjjjjjjhkdeeeeeeeeeeeeeeeeeaaamffffffffffffffffffffffffffffaekhbjjjjjjjjjjjjjjjjjjjjjjjjjjjjj",
"jjjjjjjjjjjjjjhkdeeeeeeeeeeeeeeeeeeeamfaffffffffffffffffffffffffffaaglhjjjjjjjjjjjjjjjjjjjjjjjjjjjjj",
"jjjjjjjjjjjjjjhkdeeeeeeeeeeeeeeeeeeeamffffffffffffffffffffffffffffaadghjjjjjjjjjjjjjjjjjjjjjjjjjjjjj",
"jjjjjjjjjjjjjjhkdeeeeeeeeeeeeeeeeeeeaaamfafffffffffffffffffffffffffaddljjjjjjjjjjjjjjjjjjjjjjjjjjjjj",
"jjjjjjjjjjjjjjhkdeeeeeeeeeeeeeeeeeeeaaamfaffffffffffffffffffffffffffadkbbjjjjjjjjjjjjjjjjjjjjjjjjjjj",
"jjjjjjjjjjjjjjhkdeeeeaeeeeeeeeeeeeeeaaamffffffffffffffffffffffffffffaaglbjjjjjjjjjjjjjjjjjjjjjjjjjjj",
"jjjjjjjjjjjjjjhkdeeeeaeeeeeeeeeeeeeeeaamfffffffffffffffffffffffffffffadkhjjjjjjjjjjjjjjjjjjjjjjjjjjj",
"jjjjjjjjjjjjjjhkdeeeeeeeeeeeeeeeeeeeeaaffmffffffffffffffffffffffffffffddljjjjjjjjjjjjjjjjjjjjjjjjjjj",
"jjjjjjjjjjjjjjhid`eeeeeeeeeeeeeeeeeeeeaafmffffffffffffffffffffffffffffddkbbjjjjjjjjjjjjjjjjjjjjjjjjj",
"jjjjjjjjjjjjjjhic`eeeeeeeeeeeeeeeeeeeeaaammfffffffffffffffffffffffffffacghbjjjjjjjjjjjjjjjjjjjjjjjjj",
"jjjjjjjjjjjjjjh.#``eeeeeeeeeeeeeeeeeeeeaammfffffffffffffffffffffffffffaagkhjjjjjjjjjjjjjjjjjjjjjjjjj",
"jjjjjjjjjjjjjjbl#``eeeeeeeeeeaeeeeeeeeeeafffffffffffffffffffffffffffffaadgljjjjjjjjjjjjjjjjjjjjjjjjj",
"jjjjjjjjjjjjjjbb.#ceeeeeeeeeeeeeeeeeeeeeaafmfffffffffffffffffffffffffffaddlbjjjjjjjjjjjjjjjjjjjjjjjj",
"jjjjjjjjjjjjjjjjbhiceeeeeeeeeeeeeeeeeeeeaaamffffffffffffffffffffffffffffaakhbjjjjjjjjjjjjjjjjjjjjjjj",
"jjjjjjjjjjjjjjjjbblkdeeeeeeeeeeeeeeeeeeeeaamffffffffffffffffffffffffffffaaglbjjjjjjjjjjjjjjjjjjjjjjj",
"jjjjjjjjjjjjjjjjjjbhkce`eeeeeeeeeeeeeeeeeeamfffffffffffffffffffffffffffffadkhjjjjjjjjjjjjjjjjjjjjjjj",
"jjjjjjjjjjjjjjjjjjbbhk#ceeeeeeeeeeeeeeeeeeaafmfffffffffffffffffffffffffffad#lbjjjjjjjjjjjjjjjjjjjjjj",
"jjjjjjjjjjjjjjjjjjjjbb.cceeeeeeeeeeeeeeeeeaaamfffffffffffffffffffffffffffaackbbjjjjjjjjjjjjjjjjjjjjj",
"jjjjjjjjjjjjjjjjjjjjjbh.#cceeeeeeeeeeeeeeeeaammffffffffffffffffffffffffffaaaglbjjjjjjjjjjjjjjjjjjjjj",
"jjjjjjjjjjjjjjjjjjjjjjjbl#ceeeeeeeeeeeeeeeeeammffffffffffffffffffffffffffaaadkhjjjjjjjjjjjjjjjjjjjjj",
"jjjjjjjjjjjjjjjjjjjjjjjjblidceeeeeeeeeeeeeeeaafmffffffffffffffffffffffffffaadglbjjjjjjjjjjjjjjjjjjjj",
"jjjjjjjjjjjjjjjjjjjjjjjjjbli#ceeeeeaeeeeeeeeaafmffffffffffffffffffffffffffaaadkbbjjjjjjjjjjjjjjjjjjj",
"jjjjjjjjjjjjjjjjjjjjjjjjjjbhk#ceeeeeeeeeeeeeaaamfffffffffffffffffffffffffffaaaghbjjjjjjjjjjjjjjjjjjj",
"jjjjjjjjjjjjjjjjjjjjjjjjjjjjh.#ceeeeeeeeeeeaeeamffffffffffffffffffffffffffffaaglhjjjjjjjjjjjjjjjjjjj",
"jjjjjjjjjjjjjjjjjjjjjjjjjjjjbh.iceeeeeeeeeeeeeafffffffffffffffffffffffffffffaadgljjjjjjjjjjjjjjjjjjj",
"jjjjjjjjjjjjjjjjjjjjjjjjjjjjjjbliceeeeeeeaeeeeaafmfffffffffffffffffffffffffffadd.bjjjjjjjjjjjjjjjjjj",
"jjjjjjjjjjjjjjjjjjjjjjjjjjjjjjbblideeeeeeeeeeeaaamfffffffffffffffffffffffffffaackbbjjjjjjjjjjjjjjjjj",
"jjjjjjjjjjjjjjjjjjjjjjjjjjjjjjjjbbkcceeeeeeeeeaaamfffffffffffffffffffffffffffaackhbjjjjjjjjjjjjjjjjj",
"jjjjjjjjjjjjjjjjjjjjjjjjjjjjjjjjjbhk#ceeeeeeeeeeamfffffffffffffffffffffffffffaackhbjjjjjjjjjjjjjjjjj",
"jjjjjjjjjjjjjjjjjjjjjjjjjjjjjjjjjjbb.cceeeeeeeeeaaafffffffffffffffffffffffffaaackhbjjjjjjjjjjjjjjjjj",
"jjjjjjjjjjjjjjjjjjjjjjjjjjjjjjjjjjjbh.icceeeeeeeaaamfffffffffffffffffffffaafaaeckbbjjjjjjjjjjjjjjjjj",
"jjjjjjjjjjjjjjjjjjjjjjjjjjjjjjjjjjjjjbl#c`eeeeeeeaamfffffffffffffffffffaaaaaaeeckbbjjjjjjjjjjjjjjjjj",
"jjjjjjjjjjjjjjjjjjjjjjjjjjjjjjjjjjjjjjblidceeeeeeaamffffffffffffffffffaaaaaaeec#.bjjjjjjjjjjjjjjjjjj",
"jjjjjjjjjjjjjjjjjjjjjjjjjjjjjjjjjjjjjjjjhk#`eeeeeaaafffffffffffffffaaaaaaaeecc#.hjjjjjjjjjjjjjjjjjjj",
"jjjjjjjjjjjjjjjjjjjjjjjjjjjjjjjjjjjjjjjjbh.#ceeeeeaafmffffffffffaaaaaaaeaddgk.lhbjjjjjjjjjjjjjjjjjjj",
"jjjjjjjjjjjjjjjjjjjjjjjjjjjjjjjjjjjjjjjjjjhl#`eeeeaafmfafffffffaaaaaaeeecdglhjjjjjjjjjjjjjjjjjjjjjjj",
"jjjjjjjjjjjjjjjjjjjjjjjjjjjjjjjjjjjjjjjjjjbhlideeeeaammfffffaaaaaaeecd#gklhbbjjjjjjjjjjjjjjjjjjjjjjj",
"jjjjjjjjjjjjjjjjjjjjjjjjjjjjjjjjjjjjjjjjjjjjbhi`eeeaammfaaaaaaaaaeecdg.hbjjjjjjjjjjjjjjjjjjjjjjjjjjj",
"jjjjjjjjjjjjjjjjjjjjjjjjjjjjjjjjjjjjjjjjjjjjbblkdeeeaaaaaaaaaaaaddgk.lhbbjjjjjjjjjjjjjjjjjjjjjjjjjjj",
"jjjjjjjjjjjjjjjjjjjjjjjjjjjjjjjjjjjjjjjjjjjjjjbhkceeeaaaaaaaeeeedklbbjjjjjjjjjjjjjjjjjjjjjjjjjjjjjjj",
"jjjjjjjjjjjjjjjjjjjjjjjjjjjjjjjjjjjjjjjjjjjjjjbbh.#cceeaeeecdggklhbbjjjjjjjjjjjjjjjjjjjjjjjjjjjjjjjj",
"jjjjjjjjjjjjjjjjjjjjjjjjjjjjjjjjjjjjjjjjjjjjjjjjjb.#ceeeeeccglhbjjjjjjjjjjjjjjjjjjjjjjjjjjjjjjjjjjjj",
"jjjjjjjjjjjjjjjjjjjjjjjjjjjjjjjjjjjjjjjjjjjjjjjjjjh.iddd#gk.lhbjjjjjjjjjjjjjjjjjjjjjjjjjjjjjjjjjjjjj",
"jjjjjjjjjjjjjjjjjjjjjjjjjjjjjjjjjjjjjjjjjjjjjjjjjjjblii#klbjjjjjjjjjjjjjjjjjjjjjjjjjjjjjjjjjjjjjjjjj",
"jjjjjjjjjjjjjjjjjjjjjjjjjjjjjjjjjjjjjjjjjjjjjjjjjjjjbhllhbbjjjjjjjjjjjjjjjjjjjjjjjjjjjjjjjjjjjjjjjjj",
"jjjjjjjjjjjjjjjjjjjjjjjjjjjjjjjjjjjjjjjjjjjjjjjjjjjjjjjjjjjjjjjjjjjjjjjjjjjjjjjjjjjjjjjjjjjjjjjjjjjj",
"jjjjjjjjjjjjjjjjjjjjjjjjjjjjjjjjjjjjjjjjjjjjjjjjjjjjjjjjjjjjjjjjjjjjjjjjjjjjjjjjjjjjjjjjjjjjjjjjjjjj",
"jjjjjjjjjjjjjjjjjjjjjjjjjjjjjjjjjjjjjjjjjjjjjjjjjjjjjjjjjjjjjjjjjjjjjjjjjjjjjjjjjjjjjjjjjjjjjjjjjjjj",
"jjjjjjjjjjjjjjjjjjjjjjjjjjjjjjjjjjjjjjjjjjjjjjjjjjjjjjjjjjjjjjjjjjjjjjjjjjjjjjjjjjjjjjjjjjjjjjjjjjjj",
"jjjjjjjjjjjjjjjjjjjjjjjjjjjjjjjjjjjjjjjjjjjjjjjjjjjjjjjjjjjjjjjjjjjjjjjjjjjjjjjjjjjjjjjjjjjjjjjjjjjj",
"jjjjjjjjjjjjjjjjjjjjjjjjjjjjjjjjjjjjjjjjjjjjjjjjjjjjjjjjjjjjjjjjjjjjjjjjjjjjjjjjjjjjjjjjjjjjjjjjjjjj",
"jjjjjjjjjjjjjjjjjjjjjjjjjjjjjjjjjjjjjjjjjjjjjjjjjjjjjjjjjjjjjjjjjjjjjjjjjjjjjjjjjjjjjjjjjjjjjjjjjjjj",
"jjjjjjjjjjjjjjjjjjjjjjjjjjjjjjjjjjjjjjjjjjjjjjjjjjjjjjjjjjjjjjjjjjjjjjjjjjjjjjjjjjjjjjjjjjjjjjjjjjjj",
"jjjjjjjjjjjjjjjjjjjjjjjjjjjjjjjjjjjjjjjjjjjjjjjjjjjjjjjjjjjjjjjjjjjjjjjjjjjjjjjjjjjjjjjjjjjjjjjjjjjj"
};
