/* XPM */
static char * gmh2_xpm[] = {
"33 33 673 2",
"  	c #11201B",
". 	c #111F1B",
"+ 	c #11201A",
"@ 	c #10201B",
"# 	c #101F1A",
"$ 	c #12211C",
"% 	c #13221D",
"& 	c #14221D",
"* 	c #14231D",
"= 	c #15231C",
"- 	c #14251D",
"; 	c #13271E",
"> 	c #12251C",
", 	c #2F3E36",
"' 	c #F5F5F5",
") 	c #FFFFFF",
"! 	c #79847E",
"~ 	c #1A2E23",
"{ 	c #162A1E",
"] 	c #12201C",
"^ 	c #13201D",
"/ 	c #111F1A",
"( 	c #10201A",
"_ 	c #12221D",
": 	c #14221C",
"< 	c #13231B",
"[ 	c #14231C",
"} 	c #15241D",
"| 	c #15241C",
"1 	c #13251C",
"2 	c #12261D",
"3 	c #45524C",
"4 	c #FEFEFE",
"5 	c #304137",
"6 	c #162B1E",
"7 	c #11211B",
"8 	c #11211C",
"9 	c #11201C",
"0 	c #12201B",
"a 	c #13211C",
"b 	c #12221C",
"c 	c #13221B",
"d 	c #14241E",
"e 	c #13261D",
"f 	c #C7CBC9",
"g 	c #87908B",
"h 	c #A5ACA8",
"i 	c #F1F2F1",
"j 	c #7F8983",
"k 	c #192D22",
"l 	c #14251E",
"m 	c #11251C",
"n 	c #14281F",
"o 	c #46534C",
"p 	c #F3F4F3",
"q 	c #59665F",
"r 	c #04190D",
"s 	c #12271B",
"t 	c #071B10",
"u 	c #6F7A74",
"v 	c #F8F9F9",
"w 	c #B0B7B3",
"x 	c #1B2F23",
"y 	c #13241D",
"z 	c #13261E",
"A 	c #384840",
"B 	c #324339",
"C 	c #12261B",
"D 	c #15291E",
"E 	c #14281D",
"F 	c #0F2519",
"G 	c #415248",
"H 	c #D2D5D3",
"I 	c #C4C9C5",
"J 	c #1A3023",
"K 	c #14231E",
"L 	c #13211D",
"M 	c #13241B",
"N 	c #13241C",
"O 	c #12261C",
"P 	c #11261B",
"Q 	c #13271C",
"R 	c #36493F",
"S 	c #CACECC",
"T 	c #BCC3BF",
"U 	c #13231D",
"V 	c #12241C",
"W 	c #12251D",
"X 	c #14281E",
"Y 	c #152A1F",
"Z 	c #48584F",
"` 	c #D7DAD8",
" .	c #9CA49F",
"..	c #13231E",
"+.	c #13271F",
"@.	c #13271D",
"#.	c #14291E",
"$.	c #142A1E",
"%.	c #152B1F",
"&.	c #092013",
"*.	c #727E77",
"=.	c #FAFAFA",
"-.	c #5C6B62",
";.	c #192E22",
">.	c #15241F",
",.	c #14221E",
"'.	c #11251B",
").	c #11251D",
"!.	c #11281C",
"~.	c #2C3F35",
"{.	c #B8BEBB",
"].	c #ECEEED",
"^.	c #253A2D",
"/.	c #172D20",
"(.	c #11241D",
"_.	c #11261C",
":.	c #15291F",
"<.	c #152B1E",
"[.	c #13281C",
"}.	c #79837D",
"|.	c #7F8A84",
"1.	c #1C3226",
"2.	c #172E20",
"3.	c #162520",
"4.	c #12231C",
"5.	c #10241E",
"6.	c #152820",
"7.	c #142B1E",
"8.	c #11271B",
"9.	c #4A5A51",
"0.	c #F2F3F3",
"a.	c #D3D7D3",
"b.	c #304338",
"c.	c #162C20",
"d.	c #183526",
"e.	c #11231D",
"f.	c #10231D",
"g.	c #10231E",
"h.	c #12261E",
"i.	c #15281F",
"j.	c #142A20",
"k.	c #13291D",
"l.	c #304238",
"m.	c #D2D4D2",
"n.	c #FCFCFC",
"o.	c #54655C",
"p.	c #163323",
"q.	c #26663E",
"r.	c #12231D",
"s.	c #11241E",
"t.	c #142920",
"u.	c #1F3327",
"v.	c #ABB2AE",
"w.	c #7C8981",
"x.	c #163022",
"y.	c #225637",
"z.	c #2C7444",
"A.	c #15251F",
"B.	c #182722",
"C.	c #596360",
"D.	c #CED1D0",
"E.	c #DBDCDC",
"F.	c #717A77",
"G.	c #2D3B36",
"H.	c #A6ACAA",
"I.	c #A6ABA9",
"J.	c #1E2F29",
"K.	c #0F231A",
"L.	c #919995",
"M.	c #B9BFBC",
"N.	c #37473F",
"O.	c #5C6963",
"P.	c #969E9B",
"Q.	c #425148",
"R.	c #A7AEA9",
"S.	c #314139",
"T.	c #13281E",
"U.	c #7C8781",
"V.	c #9FA7A2",
"W.	c #1D3226",
"X.	c #1A402B",
"Y.	c #2B7144",
"Z.	c #27663F",
"`.	c #162620",
" +	c #3F4B47",
".+	c #CFD3D2",
"++	c #BCC0BF",
"@+	c #7F8986",
"#+	c #394641",
"$+	c #D4D6D5",
"%+	c #2A3A31",
"&+	c #0F2219",
"*+	c #F8F8F8",
"=+	c #EFF0F0",
"-+	c #42524A",
";+	c #74807B",
">+	c #C4C9C6",
",+	c #525F58",
"'+	c #DADDDA",
")+	c #3B4B45",
"!+	c #4B5951",
"~+	c #FFFEFE",
"{+	c #BCC2BE",
"]+	c #2A3E32",
"^+	c #12291C",
"/+	c #245D3A",
"(+	c #1E4F31",
"_+	c #192924",
":+	c #A4A9A7",
"<+	c #D1D3D2",
"[+	c #091913",
"}+	c #0E1E18",
"|+	c #0D1E18",
"1+	c #394541",
"2+	c #C1C4C3",
"3+	c #606C66",
"4+	c #47544D",
"5+	c #DFE1E1",
"6+	c #43524B",
"7+	c #75807B",
"8+	c #C1C6C3",
"9+	c #0C2115",
"0+	c #4A5A50",
"a+	c #D8DCD9",
"b+	c #3A4C42",
"c+	c #11291C",
"d+	c #FAFAF9",
"e+	c #D6DAD8",
"f+	c #36473D",
"g+	c #0E2518",
"h+	c #13291C",
"i+	c #1E5132",
"j+	c #215F3A",
"k+	c #173725",
"l+	c #215536",
"m+	c #1A2A24",
"n+	c #C7CAC9",
"o+	c #99A09D",
"p+	c #45504C",
"q+	c #C8CAC9",
"r+	c #848C8A",
"s+	c #4D5854",
"t+	c #C5C8C7",
"u+	c #C8CBCA",
"v+	c #969D99",
"w+	c #8C9490",
"x+	c #A6ABA8",
"y+	c #F4F5F4",
"z+	c #6F7A75",
"A+	c #EFF0EF",
"B+	c #F5F6F5",
"C+	c #374E41",
"D+	c #0D2719",
"E+	c #D8DBD9",
"F+	c #FBFBFB",
"G+	c #D0D3D1",
"H+	c #9DA5A0",
"I+	c #A5ABA7",
"J+	c #A5ADA8",
"K+	c #A9BDB0",
"L+	c #AEC1B4",
"M+	c #69786E",
"N+	c #31764E",
"O+	c #1A2A25",
"P+	c #C6C9C7",
"Q+	c #A3A8A6",
"R+	c #434F4B",
"S+	c #E8E9E8",
"T+	c #BBBFBE",
"U+	c #565F5B",
"V+	c #C9CCCB",
"W+	c #878F8B",
"X+	c #CBCCCB",
"Y+	c #616C66",
"Z+	c #F7F8F8",
"`+	c #717D78",
" @	c #EAEBEB",
".@	c #939C96",
"+@	c #B1B9B4",
"@@	c #E9EDEA",
"#@	c #3B5E46",
"$@	c #164122",
"%@	c #F9FAF9",
"&@	c #FEFFFF",
"*@	c #FEFFFE",
"=@	c #FFFEFF",
"-@	c #9FACA5",
";@	c #31925D",
">@	c #192A24",
",@	c #9BA29E",
"'@	c #E1E3E2",
")@	c #5F6964",
"!@	c #C3C7C6",
"~@	c #55615D",
"{@	c #CED2D0",
"]@	c #46544D",
"^@	c #E9EAEA",
"/@	c #FDFEFD",
"(@	c #213229",
"_@	c #FAFBFB",
":@	c #43514B",
"<@	c #757E7A",
"[@	c #CADED0",
"}@	c #2B6E3D",
"|@	c #61976E",
"1@	c #DEEBDF",
"2@	c #56BC66",
"3@	c #36B14B",
"4@	c #F9FDF9",
"5@	c #FFFFFE",
"6@	c #FDFFFE",
"7@	c #80C19E",
"8@	c #1F7645",
"9@	c #172820",
"0@	c #35423D",
"a@	c #F4F3F3",
"b@	c #535E5A",
"c@	c #D8DAD9",
"d@	c #2A3B33",
"e@	c #CFD1CF",
"f@	c #C7C9C8",
"g@	c #1C2D26",
"h@	c #45564D",
"i@	c #7D9787",
"j@	c #CAD3CD",
"k@	c #1F4A2B",
"l@	c #5D8467",
"m@	c #E2EBE4",
"n@	c #56BE67",
"o@	c #36C64E",
"p@	c #F1FAF5",
"q@	c #CCEDDC",
"r@	c #80D9AC",
"s@	c #519D76",
"t@	c #255C3A",
"u@	c #172821",
"v@	c #15261F",
"w@	c #202F29",
"x@	c #707974",
"y@	c #6B7470",
"z@	c #25332D",
"A@	c #1C2D27",
"B@	c #475651",
"C@	c #1D332A",
"D@	c #3A5648",
"E@	c #3D5C4D",
"F@	c #264D3A",
"G@	c #5A836D",
"H@	c #397553",
"I@	c #45805B",
"J@	c #548869",
"K@	c #377F51",
"L@	c #489665",
"M@	c #5C9573",
"N@	c #397F53",
"O@	c #3CAB5D",
"P@	c #85D99C",
"Q@	c #87D99F",
"R@	c #7EA68C",
"S@	c #80A791",
"T@	c #88BCA1",
"U@	c #84C7A4",
"V@	c #6BC195",
"W@	c #4BB77F",
"X@	c #21A25E",
"Y@	c #478162",
"Z@	c #4B5B51",
"`@	c #204F34",
" #	c #183A31",
".#	c #16261F",
"+#	c #152620",
"@#	c #183728",
"##	c #1A5237",
"$#	c #185939",
"%#	c #175E3A",
"&#	c #15663E",
"*#	c #166F42",
"=#	c #147945",
"-#	c #12844A",
";#	c #129451",
">#	c #0FA458",
",#	c #11B25F",
"'#	c #11AF5E",
")#	c #13B05F",
"!#	c #12B05E",
"~#	c #12AE5D",
"{#	c #13AD5D",
"]#	c #14AC5D",
"^#	c #14AB5D",
"/#	c #16AD5E",
"(#	c #14AF5E",
"_#	c #0FAD5B",
":#	c #08A353",
"<#	c #0A8344",
"[#	c #105A32",
"}#	c #153523",
"|#	c #1B3F2B",
"1#	c #1B453B",
"2#	c #18372E",
"3#	c #172F25",
"4#	c #142B21",
"5#	c #141F1B",
"6#	c #15211D",
"7#	c #16221E",
"8#	c #15221D",
"9#	c #13221C",
"0#	c #14211C",
"a#	c #14211B",
"b#	c #245535",
"c#	c #1B3B24",
"d#	c #184929",
"e#	c #1C6B39",
"f#	c #176E3C",
"g#	c #0C5F34",
"h#	c #0A6E39",
"i#	c #087A3F",
"j#	c #077E40",
"k#	c #097D3E",
"l#	c #139248",
"m#	c #1C994C",
"n#	c #0F562F",
"o#	c #153B26",
"p#	c #18251D",
"q#	c #192C21",
"r#	c #1A3A27",
"s#	c #183022",
"t#	c #172C20",
"u#	c #183122",
"v#	c #1B5448",
"w#	c #205C46",
"x#	c #236042",
"y#	c #205737",
"z#	c #173828",
"A#	c #13241E",
"B#	c #152F22",
"C#	c #246037",
"D#	c #1A4026",
"E#	c #1E4C2B",
"F#	c #245E35",
"G#	c #1F4A2E",
"H#	c #14271D",
"I#	c #16291F",
"J#	c #162920",
"K#	c #162B1F",
"L#	c #153120",
"M#	c #1C4B29",
"N#	c #389951",
"O#	c #142C1D",
"P#	c #162A1F",
"Q#	c #172D21",
"R#	c #1A3927",
"S#	c #193123",
"T#	c #182C1F",
"U#	c #172E21",
"V#	c #287746",
"W#	c #204D33",
"X#	c #1D3E27",
"Y#	c #1C3B25",
"Z#	c #1F492C",
"`#	c #225D35",
" $	c #173926",
".$	c #12271D",
"+$	c #1B452D",
"@$	c #20532F",
"#$	c #1D4829",
"$$	c #1F4F2C",
"%$	c #255E35",
"&$	c #1F482D",
"*$	c #162D20",
"=$	c #163622",
"-$	c #2E7945",
";$	c #173323",
">$	c #162B20",
",$	c #183123",
"'$	c #182D20",
")$	c #182E20",
"!$	c #1B3523",
"~$	c #172B1E",
"{$	c #16291D",
"]$	c #162C1D",
"^$	c #1A3A21",
"/$	c #266C36",
"($	c #1A4229",
"_$	c #13261F",
":$	c #1F4E30",
"<$	c #1E4E2C",
"[$	c #20522E",
"}$	c #1F4C2C",
"|$	c #235932",
"1$	c #1C4229",
"2$	c #152921",
"3$	c #152A20",
"4$	c #162E21",
"5$	c #225334",
"6$	c #183225",
"7$	c #172C21",
"8$	c #172D22",
"9$	c #172B20",
"0$	c #172A1D",
"a$	c #15261A",
"b$	c #152219",
"c$	c #142018",
"d$	c #172D1D",
"e$	c #1C4525",
"f$	c #277B38",
"g$	c #153724",
"h$	c #194027",
"i$	c #21502F",
"j$	c #235231",
"k$	c #1D492B",
"l$	c #245732",
"m$	c #1F442C",
"n$	c #14261E",
"o$	c #152B20",
"p$	c #162A20",
"q$	c #162A22",
"r$	c #152A21",
"s$	c #172B21",
"t$	c #16281C",
"u$	c #162D1D",
"v$	c #16301E",
"w$	c #14281A",
"x$	c #16311E",
"y$	c #21632D",
"z$	c #247737",
"A$	c #153022",
"B$	c #193E26",
"C$	c #204C2D",
"D$	c #205130",
"E$	c #215B31",
"F$	c #2A6E3D",
"G$	c #286437",
"H$	c #173524",
"I$	c #152920",
"J$	c #162921",
"K$	c #152C20",
"L$	c #275436",
"M$	c #15281D",
"N$	c #15271D",
"O$	c #15251C",
"P$	c #132019",
"Q$	c #122018",
"R$	c #132419",
"S$	c #152E1D",
"T$	c #1C4A26",
"U$	c #288237",
"V$	c #1A5331",
"W$	c #193D26",
"X$	c #226031",
"Y$	c #2C8741",
"Z$	c #2B8240",
"`$	c #2C8144",
" %	c #1C462C",
".%	c #14261F",
"+%	c #152C1F",
"@%	c #285135",
"#%	c #275D35",
"$%	c #16251E",
"%%	c #142117",
"&%	c #132017",
"*%	c #121E16",
"=%	c #121D16",
"-%	c #121E17",
";%	c #162F1D",
">%	c #183920",
",%	c #1F5529",
"'%	c #236D37",
")%	c #153C2B",
"!%	c #183D28",
"~%	c #1F552F",
"{%	c #215B2D",
"]%	c #287A3A",
"^%	c #297D3E",
"/%	c #2D8E45",
"(%	c #2E9145",
"_%	c #194428",
":%	c #152E21",
"<%	c #162C21",
"[%	c #15271E",
"}%	c #235934",
"|%	c #2D733F",
"1%	c #245230",
"2%	c #22482C",
"3%	c #1E4429",
"4%	c #142218",
"5%	c #152118",
"6%	c #121D15",
"7%	c #121C16",
"8%	c #111A15",
"9%	c #142A1C",
"0%	c #15321E",
"a%	c #1A4224",
"b%	c #1E522D",
"c%	c #194C37",
"d%	c #184B34",
"e%	c #215A33",
"f%	c #1E532B",
"g%	c #2A813B",
"h%	c #287A3F",
"i%	c #298042",
"j%	c #31A24C",
"k%	c #309D47",
"l%	c #1E532E",
"m%	c #193625",
"n%	c #1F472E",
"o%	c #225332",
"p%	c #2A683B",
"q%	c #307E43",
"r%	c #2C6D3A",
"s%	c #265A33",
"t%	c #20492C",
"u%	c #1E4528",
"v%	c #214D2A",
"w%	c #152218",
"x%	c #141F17",
"y%	c #111B15",
"z%	c #101B16",
"A%	c #12231A",
"B%	c #142D1C",
"C%	c #163621",
"D%	c #173620",
"E%	c #1B4E34",
"F%	c #195540",
"G%	c #215B37",
"H%	c #1B4B29",
"I%	c #256D32",
"J%	c #2C8B42",
"K%	c #298045",
"L%	c #2A8842",
"M%	c #2F9648",
"N%	c #35A647",
"O%	c #36A54D",
"P%	c #308547",
"Q%	c #317D45",
"R%	c #2B6A3B",
"S%	c #255835",
"T%	c #265A36",
"U%	c #255333",
"V%	c #21492C",
"W%	c #20482B",
"X%	c #1D4027",
"Y%	c #22492B",
"Z%	c #20472A",
"`%	c #1A3724",
" &	c #141F16",
".&	c #121B16",
"+&	c #111B14",
"@&	c #122118",
"#&	c #152F1E",
"$&	c #142E1E",
"%&	c #1F5F37",
"&&	c #1C6C40",
"*&	c #205F3F",
"=&	c #1D4E2E",
"-&	c #1C522A",
";&	c #297D38",
">&	c #2D8E44",
",&	c #288145",
"'&	c #2B8743",
")&	c #2E8D47",
"!&	c #2B783D",
"~&	c #276836",
"{&	c #265E33",
"]&	c #265C35",
"^&	c #245430",
"/&	c #1F4429",
"(&	c #1D3F26",
"_&	c #1E4127",
":&	c #1E3E26",
"<&	c #1B3722",
"[&	c #1A3723",
"}&	c #20472B",
"|&	c #245834",
"    . . + @     # $   % & * * * = - ; ; > , ' ) ) ) ) ) ) ) ! ~ { ",
"] ^ ^ ] / ( # #   $   _ : < [ } | 1 2 2 > 3 ) 4 ) ) ) ) 4 ) ) 5 6 ",
"7     8 9     $ 8 0 a % b c [ d 1 1 2 e > 3 ) ) f g h i ) 4 ) j k ",
"% $ $   $ $       $ $ % % [ } l 2 m ; n m o p q r s t u v ) ) w x ",
"b % b $ $ $ $ $ $ % % $ * [ y z 2 2 2 ; 2 A B C D E F G H ) ) I J ",
"K % % a _ % b % % L $ K * M N O 2 2 ; ; n P Q D D D P R S ) ) T J ",
"% K % % % $ L L $ % K U V 1 W 2 ; 2 ; n X Q D E D Y F Z ` ) )  .J ",
"K % K K % $ % % $ % & ..m > W m 2 ; +.X @.E D #.$.%.&.*.=.) ) -.;.",
">.K % K K % % % % ,.U '.).W 2 2 ; ; n @.E X #.D %.!.~.{.) ) ].^./.",
">.>.K % K ,.....,.K > (.W _.2 ; 2 ; n @.E D :.<.$.[.}.) ) ) |.1.2.",
"3.>.K K % ..,.% ..4.).5.O m 2 ; 2 ; E Q X 6.$.7.8.9.0.) ) a.b.c.d.",
"3.>.K K ..U ,.,.e.f.g.2 2 2 ; 2 h.; @.E i.j.7.k.l.m.) ) n.o.$.p.q.",
"3.>.K % b U U _ ..r.s.2 m 2 2 m ; @.s E 6.t.$.u.v.) ) ) w.<.x.y.z.",
"A.B.C.D.E.F.G.H.I.J.K.L.M.N.O.P.i.Q.R.S.T.%.Y U.) ) ) V.W.7.X.Y.Z.",
"`. +) .+++@+#+$+) %+&+*+=+-+;+>+:.,+'+)+T.k.!+) ~+) {+]+^+x.Z./+(+",
"_+:+<+[+}+|+1+2+) 3+4+5+i 6+7+8+9+0+a+b+c+%+d+) ) e+f+g+h+i+j+k+l+",
"m+n+o+p+q+r+s+t+u+v+w+x+y+6+z+) A+B+B+C+D+E+) ) F+G+H+I+J+K+L+M+N+",
"O+P+Q+R+S+T+U+V+W+X+<+Y+Z+6+`+ @.@+@@@#@$@%@&@&@) ) ) *@=@&@) -@;@",
">@,@'@: )@!@~@{@]@^@/@(@_@:@<@[@}@|@1@2@3@4@) 5@) ) 5@) 4 ) 6@7@8@",
"9@0@a@) ) T+b@c@d@e@f@g@) h@i@j@k@l@m@n@o@4 ) ) ) ) ) ) p@q@r@s@t@",
"u@v@w@x@y@z@A@B@C@D@E@F@G@H@I@J@K@L@M@N@O@P@Q@R@S@T@U@V@W@X@Y@Z@`@",
" #.#+#@###$#%#&#*#=#-#;#>#,#,#'#)#!#~#{#]#^#]#/#(#_#:#<#[#}#6 <.|#",
"1#2#3#4#5#6#7#8#9#: 0#a#b#c#d#e#f#g#h#i#j#k#l#m#n#o#p#q#r#s#t#2.u#",
"v#w#x#y#z#A#z 2 2 ; 2 B#C#D#E#F#G#H#I#J#K#L#M#N#O#t#P#Q#R#S#T#2.U#",
"V#W#X#Y#Z#`# $4.e .$z +$@$#$$$%$&$#.:.t.%.*$=$-$;$>$c.t#,$,$'$)$)$",
"!$~${$]$]$^$/$($_$z 2 :$<$[$}$|$1$n 2$3$>$%.4$5$6$>$c.c.7$8$9$/.Q#",
"0$a$b$c$a$d$e$f$g$2 .$h$i$j$k$l$m$n$2$o$p$>$c.q$c.p$3$r$3$>$>$s$2$",
"t$t$u$v$w$w$x$y$z$A$.$B$C$D$E$F$G$H$I$3$>$J$p$p$7$>$I$J$>$K$I$6.L$",
"M$N$O$P$Q$R$S$T$U$V$+.W$}$X$Y$Z$`$ %.%K$+%p$t.p$%.%.:.3$I$c.S#@%#%",
"$%%%&%*%=%-%;%>%,%'%)%!%~%{%]%^%/%(%_%:%>$Y I$>$<%<%[%p$}%|%1%2%3%",
"4%5%*%6%7%8%9%0%a%b%c%d%e%f%g%h%i%j%k%l%j.n$X m%n%o%p%q%r%s%t%u%v%",
"w%x%=%y%8%z%A%B%C%D%E%F%G%H%I%J%K%L%M%N%O%P%Q%R%S%T%U%V%W%X%Y%Z%`%",
" &7%.&y%y%+&@&O##&$&%&&&*&=&-&;&>&,&'&)&!&~&{&]&^&/&(&_&:&<&[&}&|&"};
