/* XPM */
static const char *ss_xpm[] = {
/* width height num_colors chars_per_pixel */
"    32    32      256            2",
/* colors */
"`` c #cdcdcd",
"`. c #c5c5c5",
"`# c #bdbdbd",
"`a c #b4b4b4",
"`b c #acacac",
"`c c #9c9ca4",
"`d c #738394",
"`e c #626a94",
"`f c #52628b",
"`g c #62739c",
"`h c #8b94ac",
"`i c #b4b4bd",
"`j c #9c9c9c",
"`k c #8b8b94",
"`l c #4a5a8b",
"`m c #294a83",
"`n c #62738b",
"`o c #627394",
"`p c #394a83",
"`q c #294183",
"`r c #949494",
"`s c #6a7383",
"`t c #314a83",
"`u c #204a83",
"`v c #7b8b9c",
"`w c #8b8b8b",
"`x c #626a83",
"`y c #203983",
"`z c #20528b",
"`A c #41528b",
"`B c #737b94",
"`C c #7b839c",
"`D c #838b9c",
"`E c #8b949c",
"`F c #8b94a4",
"`G c #9494a4",
"`H c #949ca4",
"`I c #a4a4ac",
"`J c #a4a4a4",
"`K c #4a5a83",
"`L c #204183",
"`M c #20397b",
"`N c #4a6294",
"`O c #9c9cac",
"`P c #838b94",
"`Q c #39528b",
"`R c #626a8b",
"`S c #526283",
"`T c #415283",
"`U c #83838b",
"`V c #acacb4",
"`W c #838383",
"`X c #5a6a8b",
"`Y c #415a8b",
"`Z c #294a8b",
"`0 c #6a7394",
"`1 c #6a7b9c",
"`2 c #7b7b83",
"`3 c #314183",
"`4 c #5a6283",
"`5 c #acb4b4",
"`6 c #838b8b",
"`7 c #295a8b",
"`8 c #29528b",
".` c #7b83a4",
".. c #b4bdbd",
".# c #395283",
".a c #9ca4b4",
".b c #94949c",
".c c #737b8b",
".d c #525a7b",
".e c #29417b",
".f c #838ba4",
".g c #73737b",
".h c #5a627b",
".i c #316294",
".j c #20417b",
".k c #315a8b",
".l c #949cac",
".m c #6a737b",
".n c #31628b",
".o c #7383a4",
".p c #7b7b7b",
".q c #39527b",
".r c #838394",
".s c #737b7b",
".t c #314a7b",
".u c #a4acb4",
".v c #394a7b",
".w c #394a8b",
".x c #6a7b94",
".y c #9ca4ac",
".z c #000000",
".A c #000000",
".B c #000000",
".C c #000000",
".D c #000000",
".E c #000000",
".F c #000000",
".G c #000000",
".H c #000000",
".I c #000000",
".J c #000000",
".K c #000000",
".L c #000000",
".M c #000000",
".N c #000000",
".O c #000000",
".P c #000000",
".Q c #000000",
".R c #000000",
".S c #000000",
".T c #000000",
".U c #000000",
".V c #000000",
".W c #000000",
".X c #000000",
".Y c #000000",
".Z c #000000",
".0 c #000000",
".1 c #000000",
".2 c #000000",
".3 c #000000",
".4 c #000000",
".5 c #000000",
".6 c #000000",
".7 c #000000",
".8 c #000000",
"#` c #000000",
"#. c #000000",
"## c #000000",
"#a c #000000",
"#b c #000000",
"#c c #000000",
"#d c #000000",
"#e c #000000",
"#f c #000000",
"#g c #000000",
"#h c #000000",
"#i c #000000",
"#j c #000000",
"#k c #000000",
"#l c #000000",
"#m c #000000",
"#n c #000000",
"#o c #000000",
"#p c #000000",
"#q c #000000",
"#r c #000000",
"#s c #000000",
"#t c #000000",
"#u c #000000",
"#v c #000000",
"#w c #000000",
"#x c #000000",
"#y c #000000",
"#z c #000000",
"#A c #000000",
"#B c #000000",
"#C c #000000",
"#D c #000000",
"#E c #000000",
"#F c #000000",
"#G c #000000",
"#H c #000000",
"#I c #000000",
"#J c #000000",
"#K c #000000",
"#L c #000000",
"#M c #000000",
"#N c #000000",
"#O c #000000",
"#P c #000000",
"#Q c #000000",
"#R c #000000",
"#S c #000000",
"#T c #000000",
"#U c #000000",
"#V c #000000",
"#W c #000000",
"#X c #000000",
"#Y c #000000",
"#Z c #000000",
"#0 c #000000",
"#1 c #000000",
"#2 c #000000",
"#3 c #000000",
"#4 c #000000",
"#5 c #000000",
"#6 c #000000",
"#7 c #000000",
"#8 c #000000",
"a` c #000000",
"a. c #000000",
"a# c #000000",
"aa c #000000",
"ab c #000000",
"ac c #000000",
"ad c #000000",
"ae c #000000",
"af c #000000",
"ag c #000000",
"ah c #000000",
"ai c #000000",
"aj c #000000",
"ak c #000000",
"al c #000000",
"am c #000000",
"an c #000000",
"ao c #000000",
"ap c #000000",
"aq c #000000",
"ar c #000000",
"as c #000000",
"at c #000000",
"au c #000000",
"av c #000000",
"aw c #000000",
"ax c #000000",
"ay c #000000",
"az c #000000",
"aA c #000000",
"aB c #000000",
"aC c #000000",
"aD c #000000",
"aE c #000000",
"aF c #000000",
"aG c #000000",
"aH c #000000",
"aI c #000000",
"aJ c #000000",
"aK c #000000",
"aL c #000000",
"aM c #000000",
"aN c #000000",
"aO c #000000",
"aP c #000000",
"aQ c #000000",
"aR c #000000",
"aS c #000000",
"aT c #000000",
"aU c #000000",
"aV c #000000",
"aW c #000000",
"aX c #000000",
"aY c #000000",
"aZ c #000000",
"a0 c #000000",
"a1 c #000000",
"a2 c #000000",
"a3 c #000000",
"a4 c #000000",
"a5 c #000000",
"a6 c #000000",
"a7 c #000000",
"a8 c #000000",
/* pixels */
"```.`.`.`.`.`.`.`.`.`.`.`.`.`.`.`.`.`.`.`.`.`.`.`.`.`.`.`.`.`.``",
"`.`#`#`#`#`#`#`#`#`#`#`#`#`#`#`#`#`#`#`#`#`#`#`#`#`#`#`#`#`#`#`.",
"`.`#`#`#`#`#`#`#`#`#`#`#`#`#`#`#`#`#`#`#`#`#`#`#`#`#`#`#`#`#`#`.",
"`.`#`#`#`#`#`#`#`#`#`#`#`#`#`#`#`#`#`#`#`#`#`#`#`#`#`#`#`#`#`#`.",
"`.`#`#`#`#`#`#`a`a`a`#`#`#`#`#`#`#`#`#`#`#`#`#`#`#`#`#`#`#`#`#`.",
"`.`#`#`#`a`b`b`c`d`e`f`g`h`i`#`#`#`#`#`#`#`#`#`#`#`#`#`#`#`#`#`.",
"`.`#`#`b`j`k`l`m`l`n`o`p`q`h`#`#`#`#`#`#`#`#`#`#`#`#`#`#`#`#`#`.",
"`.`#`b`r`s`t`u`v`a`b`b`a`i`#`#`#`#`#`#`#`#`#`#`#`#`#`#`#`#`#`#`.",
"`.`#`b`w`x`y`z`A`B`C`C`D`E`F`G`H`I`a`#`#`#`#`#`#`#`#`#`#`#`#`#`.",
"`.`#`a`J`r`s`K`t`u`L`y`M`L`L`L`L`L`L`N`O`#`#`#`#`#`#`#`#`#`#`#`.",
"`.`#`#`a`j`w`P`t`Q`c`c`G`E`P`B`R`S`T`L`L`h`#`#`#`#`#`#`#`#`#`#`.",
"`.`#`#`b`r`U`m`y`V`#`#`#`#`a`a`b`r`W`X`u`Y`#`#`#`#`#`#`#`#`#`#`.",
"`.`#`#`b`w`s`L`Z`0`V`a`a`a`a`a`b`r`W`l`u`1`#`#`#`#`#`#`#`#`#`#`.",
"`.`#`#`b`r`2`3`u`u`q`p`T`l`f`f`X`4`S`L`L`F`5`#`#`#`#`#`#`#`#`#`.",
"`.`#`#`#`b`j`6`K`q`L`u`u`u`u`u`u`u`u`7`8`L`q`Y.`..`#`#`#`#`#`#`.",
"`.`#`#`#`#`a`b`J`c`D`B`0`X`f`K`T.#`t`q`q`y`u`8`u`Q.a`#`#`#`#`#`.",
"`.`#`#`#`#`#`#`#`#`a`a`a`a`a`a`a`b`b`J.b.c.d.e`Z`8`y.f`#`#`#`#`.",
"`.`#`#`#`#`#`#`#`#`#`#`#`#`#`#`#`#`#`#`a`J`w.g.e`8`7`u`h`#`#`#`.",
"`.`#`#`#`#`#`#`#`#`#`#`#`#`#`#`#`#`#`#`#`a`j`W.h`u.i`8`Q`#`#`#`.",
"`.`#`#`#`#`#`#`#`#`#`#`#`a`a`#`#`#`#`#`#`#`b`w.g.j.k.i`L.l`#`#`.",
"`.`#`#`#`#`#`#`#`#`#`a`J`j`E`Q.f`#`#`#`#`#`J`W.m`y.n.i`u.o`#`#`.",
"`.`#`#`#`#`#`#`#`#`a`J`w`x`q`u`m`o`a`#`a`b`r.p.q`Z.i.i`u.``#`#`.",
"`.`#`#`#`#`#`#`#`#`b`w.h`L`8.i.i`u`t`o.r.c`S.e`u.i.i.i`L.a`#`#`.",
"`.`#`#`#`#`#`#`#`#`b`r.s.t`u.i.i.i.k`u`L`y`u`7.i.i.i`8`Y`#`#`#`.",
"`.`#`#`#`#`#`#`#`#`#`b`r.s.e`u.i.i.i.i.i.i.i.i.i.i`8`t.u`#`#`#`.",
"`.`#`#`#`#`#`#`#`#`#`#`b`r`2.v`u`7.i.i.i.i.i.i`7`u.w.u`#`#`#`#`.",
"`.`#`#`#`#`#`#`#`#`#`#`#`a`J`r`x`p`M`u`u`u`u`y`p.``i`#`#`#`#`#`.",
"`.`#`#`#`#`#`#`#`#`#`#`#`#`a`a`b`J`E`B`o.x`C.y`#`#`#`#`#`#`#`#`.",
"`.`#`#`#`#`#`#`#`#`#`#`#`#`#`#`#`#`#`a`#`#`#`#`#`#`#`#`#`#`#`#`.",
"`.`#`#`#`#`#`#`#`#`#`#`#`#`#`#`#`#`#`#`#`#`#`#`#`#`#`#`#`#`#`#`.",
"`.`#`#`#`#`#`#`#`#`#`#`#`#`#`#`#`#`#`#`#`#`#`#`#`#`#`#`#`#`#`#`.",
"```.`.`.`.`.`.`.`.`.`.`.`.`.`.`.`.`.`.`.`.`.`.`.`.`.`.`.`.`.`.``"
};
